  0
SECTION
  2
HEADER
  9
$ANGBASE
  50
0.0
  9
$ANGDIR
  70
1
  9
$MEASUREMENT
  70
0
  0
ENDSEC
  0
SECTION
  2
TABLES
  0
TABLE
  2
LTYPE
  70
4
  0
LTYPE
  5
40F
  2
CONTINUOUS
  70
0
  3
Solid line
  72
65
  73
0
  40
0.0
  0
LTYPE
  5
410
  2
DASHDOT
 70
0
  3
Dash Dot ____ _ ____ _
 72
65
 73
4
 40
2.0
 49
1.25
 49
-0.25
 49
0.25
 49
-0.25
  0
LTYPE
  5
411
  2
DASHED
 70
0
  3
Dashed __ __ __ __ __
 72
65
 73
2
 40
0.75
 49
0.5
 49
-0.25
  0
LTYPE
  5
43B
  2
DOTTED
 70
0
  3
Dotted .  .  .  .
 72
65
 73
2
 40
0.2
 49
0.0
 49
-0.2
  0
ENDTAB
  0
TABLE
  2
STYLE
  70
4
  0
STYLE
  2
KICAD
  70
0
  40
0
  41
1
  42
1
  50
0
  71
0
  3
isocp.shx
  0
STYLE
  2
KICADB
  70
0
  40
0
  41
1
  42
1
  50
0
  71
0
  3
isocp.shx
  0
STYLE
  2
KICADI
  70
0
  40
0
  41
1
  42
1
  50
15
  71
0
  3
isocp.shx
  0
STYLE
  2
KICADBI
  70
0
  40
0
  41
1
  42
1
  50
15
  71
0
  3
isocp.shx
  0
ENDTAB
  0
TABLE
  2
LAYER
  70
1
  0
LAYER
  2
BLACK
  70
0
  62
7
  6
CONTINUOUS
  0
ENDTAB
  0
ENDSEC
  0
SECTION
  2
ENTITIES
0
LINE
8
BLACK
6
CONTINUOUS
10
0.214063
20
0.32481
11
0.227949
21
0.322451
0
LINE
8
BLACK
6
CONTINUOUS
10
0.227949
20
0.322451
11
0.241483
21
0.318552
0
LINE
8
BLACK
6
CONTINUOUS
10
0.241483
20
0.318552
11
0.254496
21
0.313162
0
LINE
8
BLACK
6
CONTINUOUS
10
0.254496
20
0.313162
11
0.266823
21
0.306349
0
LINE
8
BLACK
6
CONTINUOUS
10
0.266823
20
0.306349
11
0.27831
21
0.298198
0
LINE
8
BLACK
6
CONTINUOUS
10
0.27831
20
0.298198
11
0.288813
21
0.288813
0
LINE
8
BLACK
6
CONTINUOUS
10
0.288813
20
0.288813
11
0.298198
21
0.27831
0
LINE
8
BLACK
6
CONTINUOUS
10
0.298198
20
0.27831
11
0.306349
21
0.266823
0
LINE
8
BLACK
6
CONTINUOUS
10
0.306349
20
0.266823
11
0.313162
21
0.254496
0
LINE
8
BLACK
6
CONTINUOUS
10
0.313162
20
0.254496
11
0.318552
21
0.241483
0
LINE
8
BLACK
6
CONTINUOUS
10
0.318552
20
0.241483
11
0.322451
21
0.227949
0
LINE
8
BLACK
6
CONTINUOUS
10
0.322451
20
0.227949
11
0.32481
21
0.214063
0
LINE
8
BLACK
6
CONTINUOUS
10
0.32481
20
0.214063
11
0.3256
21
0.2
0
LINE
8
BLACK
6
CONTINUOUS
10
0.3256
20
0.2
11
0.32481
21
0.185937
0
LINE
8
BLACK
6
CONTINUOUS
10
0.32481
20
0.185937
11
0.322451
21
0.172051
0
LINE
8
BLACK
6
CONTINUOUS
10
0.322451
20
0.172051
11
0.318552
21
0.158517
0
LINE
8
BLACK
6
CONTINUOUS
10
0.318552
20
0.158517
11
0.313162
21
0.145504
0
LINE
8
BLACK
6
CONTINUOUS
10
0.313162
20
0.145504
11
0.306349
21
0.133177
0
LINE
8
BLACK
6
CONTINUOUS
10
0.306349
20
0.133177
11
0.298198
21
0.12169
0
LINE
8
BLACK
6
CONTINUOUS
10
0.298198
20
0.12169
11
0.288813
21
0.111187
0
LINE
8
BLACK
6
CONTINUOUS
10
0.288813
20
0.111187
11
0.27831
21
0.101802
0
LINE
8
BLACK
6
CONTINUOUS
10
0.27831
20
0.101802
11
0.266823
21
0.0936515
0
LINE
8
BLACK
6
CONTINUOUS
10
0.266823
20
0.0936515
11
0.254496
21
0.0868383
0
LINE
8
BLACK
6
CONTINUOUS
10
0.254496
20
0.0868383
11
0.241483
21
0.0814483
0
LINE
8
BLACK
6
CONTINUOUS
10
0.241483
20
0.0814483
11
0.227949
21
0.0775491
0
LINE
8
BLACK
6
CONTINUOUS
10
0.227949
20
0.0775491
11
0.214063
21
0.0751898
0
LINE
8
BLACK
6
CONTINUOUS
10
0.214063
20
0.0751898
11
0.2
21
0.0744
0
LINE
8
BLACK
6
CONTINUOUS
10
0.2
20
0.0744
11
0.185937
21
0.0751898
0
LINE
8
BLACK
6
CONTINUOUS
10
0.185937
20
0.0751898
11
0.172051
21
0.0775491
0
LINE
8
BLACK
6
CONTINUOUS
10
0.172051
20
0.0775491
11
0.158517
21
0.0814483
0
LINE
8
BLACK
6
CONTINUOUS
10
0.158517
20
0.0814483
11
0.145504
21
0.0868383
0
LINE
8
BLACK
6
CONTINUOUS
10
0.145504
20
0.0868383
11
0.133177
21
0.0936515
0
LINE
8
BLACK
6
CONTINUOUS
10
0.133177
20
0.0936515
11
0.12169
21
0.101802
0
LINE
8
BLACK
6
CONTINUOUS
10
0.12169
20
0.101802
11
0.111187
21
0.111187
0
LINE
8
BLACK
6
CONTINUOUS
10
0.111187
20
0.111187
11
0.101802
21
0.12169
0
LINE
8
BLACK
6
CONTINUOUS
10
0.101802
20
0.12169
11
0.0936515
21
0.133177
0
LINE
8
BLACK
6
CONTINUOUS
10
0.0936515
20
0.133177
11
0.0868383
21
0.145504
0
LINE
8
BLACK
6
CONTINUOUS
10
0.0868383
20
0.145504
11
0.0814483
21
0.158517
0
LINE
8
BLACK
6
CONTINUOUS
10
0.0814483
20
0.158517
11
0.0775491
21
0.172051
0
LINE
8
BLACK
6
CONTINUOUS
10
0.0775491
20
0.172051
11
0.0751898
21
0.185937
0
LINE
8
BLACK
6
CONTINUOUS
10
0.0751898
20
0.185937
11
0.0744
21
0.2
0
LINE
8
BLACK
6
CONTINUOUS
10
0.0744
20
0.2
11
0.0751898
21
0.214063
0
LINE
8
BLACK
6
CONTINUOUS
10
0.0751898
20
0.214063
11
0.0775491
21
0.227949
0
LINE
8
BLACK
6
CONTINUOUS
10
0.0775491
20
0.227949
11
0.0814483
21
0.241483
0
LINE
8
BLACK
6
CONTINUOUS
10
0.0814483
20
0.241483
11
0.0868383
21
0.254496
0
LINE
8
BLACK
6
CONTINUOUS
10
0.0868383
20
0.254496
11
0.0936515
21
0.266823
0
LINE
8
BLACK
6
CONTINUOUS
10
0.0936515
20
0.266823
11
0.101802
21
0.27831
0
LINE
8
BLACK
6
CONTINUOUS
10
0.101802
20
0.27831
11
0.111187
21
0.288813
0
LINE
8
BLACK
6
CONTINUOUS
10
0.111187
20
0.288813
11
0.12169
21
0.298198
0
LINE
8
BLACK
6
CONTINUOUS
10
0.12169
20
0.298198
11
0.133177
21
0.306349
0
LINE
8
BLACK
6
CONTINUOUS
10
0.133177
20
0.306349
11
0.145504
21
0.313162
0
LINE
8
BLACK
6
CONTINUOUS
10
0.145504
20
0.313162
11
0.158517
21
0.318552
0
LINE
8
BLACK
6
CONTINUOUS
10
0.158517
20
0.318552
11
0.172051
21
0.322451
0
LINE
8
BLACK
6
CONTINUOUS
10
0.172051
20
0.322451
11
0.185937
21
0.32481
0
LINE
8
BLACK
6
CONTINUOUS
10
0.185937
20
0.32481
11
0.2
21
0.3256
0
LINE
8
BLACK
6
CONTINUOUS
10
0.2
20
0.3256
11
0.214063
21
0.32481
0
LINE
8
BLACK
6
CONTINUOUS
10
0.0899617
20
0.187138
11
0.0921989
21
0.174451
0
LINE
8
BLACK
6
CONTINUOUS
10
0.0921989
20
0.174451
11
0.0958939
21
0.162108
0
LINE
8
BLACK
6
CONTINUOUS
10
0.0958939
20
0.162108
11
0.100997
21
0.150279
0
LINE
8
BLACK
6
CONTINUOUS
10
0.100997
20
0.150279
11
0.107438
21
0.139121
0
LINE
8
BLACK
6
CONTINUOUS
10
0.107438
20
0.139121
11
0.115132
21
0.128787
0
LINE
8
BLACK
6
CONTINUOUS
10
0.115132
20
0.128787
11
0.123973
21
0.119416
0
LINE
8
BLACK
6
CONTINUOUS
10
0.123973
20
0.119416
11
0.133842
21
0.111135
0
LINE
8
BLACK
6
CONTINUOUS
10
0.133842
20
0.111135
11
0.144606
21
0.104055
0
LINE
8
BLACK
6
CONTINUOUS
10
0.144606
20
0.104055
11
0.156119
21
0.0982732
0
LINE
8
BLACK
6
CONTINUOUS
10
0.156119
20
0.0982732
11
0.168226
21
0.0938668
0
LINE
8
BLACK
6
CONTINUOUS
10
0.168226
20
0.0938668
11
0.180762
21
0.0908957
0
LINE
8
BLACK
6
CONTINUOUS
10
0.180762
20
0.0908957
11
0.193558
21
0.0894
0
LINE
8
BLACK
6
CONTINUOUS
10
0.193558
20
0.0894
11
0.206442
21
0.0894
0
LINE
8
BLACK
6
CONTINUOUS
10
0.206442
20
0.0894
11
0.219238
21
0.0908957
0
LINE
8
BLACK
6
CONTINUOUS
10
0.219238
20
0.0908957
11
0.231774
21
0.0938668
0
LINE
8
BLACK
6
CONTINUOUS
10
0.231774
20
0.0938668
11
0.243881
21
0.0982732
0
LINE
8
BLACK
6
CONTINUOUS
10
0.243881
20
0.0982732
11
0.255394
21
0.104055
0
LINE
8
BLACK
6
CONTINUOUS
10
0.255394
20
0.104055
11
0.266158
21
0.111135
0
LINE
8
BLACK
6
CONTINUOUS
10
0.266158
20
0.111135
11
0.276027
21
0.119416
0
LINE
8
BLACK
6
CONTINUOUS
10
0.276027
20
0.119416
11
0.284868
21
0.128787
0
LINE
8
BLACK
6
CONTINUOUS
10
0.284868
20
0.128787
11
0.292562
21
0.139121
0
LINE
8
BLACK
6
CONTINUOUS
10
0.292562
20
0.139121
11
0.299003
21
0.150279
0
LINE
8
BLACK
6
CONTINUOUS
10
0.299003
20
0.150279
11
0.304106
21
0.162108
0
LINE
8
BLACK
6
CONTINUOUS
10
0.304106
20
0.162108
11
0.307801
21
0.174451
0
LINE
8
BLACK
6
CONTINUOUS
10
0.307801
20
0.174451
11
0.310038
21
0.187138
0
LINE
8
BLACK
6
CONTINUOUS
10
0.310038
20
0.187138
11
0.310787
21
0.2
0
LINE
8
BLACK
6
CONTINUOUS
10
0.310787
20
0.2
11
0.310038
21
0.212862
0
LINE
8
BLACK
6
CONTINUOUS
10
0.310038
20
0.212862
11
0.307801
21
0.225549
0
LINE
8
BLACK
6
CONTINUOUS
10
0.307801
20
0.225549
11
0.304106
21
0.237892
0
LINE
8
BLACK
6
CONTINUOUS
10
0.304106
20
0.237892
11
0.299003
21
0.249721
0
LINE
8
BLACK
6
CONTINUOUS
10
0.299003
20
0.249721
11
0.292562
21
0.260879
0
LINE
8
BLACK
6
CONTINUOUS
10
0.292562
20
0.260879
11
0.284868
21
0.271213
0
LINE
8
BLACK
6
CONTINUOUS
10
0.284868
20
0.271213
11
0.276027
21
0.280584
0
LINE
8
BLACK
6
CONTINUOUS
10
0.276027
20
0.280584
11
0.266158
21
0.288865
0
LINE
8
BLACK
6
CONTINUOUS
10
0.266158
20
0.288865
11
0.255394
21
0.295945
0
LINE
8
BLACK
6
CONTINUOUS
10
0.255394
20
0.295945
11
0.243881
21
0.301727
0
LINE
8
BLACK
6
CONTINUOUS
10
0.243881
20
0.301727
11
0.231774
21
0.306133
0
LINE
8
BLACK
6
CONTINUOUS
10
0.231774
20
0.306133
11
0.219238
21
0.309104
0
LINE
8
BLACK
6
CONTINUOUS
10
0.219238
20
0.309104
11
0.206442
21
0.3106
0
LINE
8
BLACK
6
CONTINUOUS
10
0.206442
20
0.3106
11
0.193558
21
0.3106
0
LINE
8
BLACK
6
CONTINUOUS
10
0.193558
20
0.3106
11
0.180762
21
0.309104
0
LINE
8
BLACK
6
CONTINUOUS
10
0.180762
20
0.309104
11
0.168226
21
0.306133
0
LINE
8
BLACK
6
CONTINUOUS
10
0.168226
20
0.306133
11
0.156119
21
0.301727
0
LINE
8
BLACK
6
CONTINUOUS
10
0.156119
20
0.301727
11
0.144606
21
0.295945
0
LINE
8
BLACK
6
CONTINUOUS
10
0.144606
20
0.295945
11
0.133842
21
0.288865
0
LINE
8
BLACK
6
CONTINUOUS
10
0.133842
20
0.288865
11
0.123973
21
0.280584
0
LINE
8
BLACK
6
CONTINUOUS
10
0.123973
20
0.280584
11
0.115132
21
0.271213
0
LINE
8
BLACK
6
CONTINUOUS
10
0.115132
20
0.271213
11
0.107438
21
0.260879
0
LINE
8
BLACK
6
CONTINUOUS
10
0.107438
20
0.260879
11
0.100997
21
0.249721
0
LINE
8
BLACK
6
CONTINUOUS
10
0.100997
20
0.249721
11
0.0958939
21
0.237892
0
LINE
8
BLACK
6
CONTINUOUS
10
0.0958939
20
0.237892
11
0.0921989
21
0.225549
0
LINE
8
BLACK
6
CONTINUOUS
10
0.0921989
20
0.225549
11
0.0899617
21
0.212862
0
LINE
8
BLACK
6
CONTINUOUS
10
0.0899617
20
0.212862
11
0.0892126
21
0.2
0
LINE
8
BLACK
6
CONTINUOUS
10
0.0892126
20
0.2
11
0.0899617
21
0.187138
0
LINE
8
BLACK
6
CONTINUOUS
10
3.41406
20
0.32481
11
3.42795
21
0.322451
0
LINE
8
BLACK
6
CONTINUOUS
10
3.42795
20
0.322451
11
3.44148
21
0.318552
0
LINE
8
BLACK
6
CONTINUOUS
10
3.44148
20
0.318552
11
3.4545
21
0.313162
0
LINE
8
BLACK
6
CONTINUOUS
10
3.4545
20
0.313162
11
3.46682
21
0.306349
0
LINE
8
BLACK
6
CONTINUOUS
10
3.46682
20
0.306349
11
3.47831
21
0.298198
0
LINE
8
BLACK
6
CONTINUOUS
10
3.47831
20
0.298198
11
3.48881
21
0.288813
0
LINE
8
BLACK
6
CONTINUOUS
10
3.48881
20
0.288813
11
3.4982
21
0.27831
0
LINE
8
BLACK
6
CONTINUOUS
10
3.4982
20
0.27831
11
3.50635
21
0.266823
0
LINE
8
BLACK
6
CONTINUOUS
10
3.50635
20
0.266823
11
3.51316
21
0.254496
0
LINE
8
BLACK
6
CONTINUOUS
10
3.51316
20
0.254496
11
3.51855
21
0.241483
0
LINE
8
BLACK
6
CONTINUOUS
10
3.51855
20
0.241483
11
3.52245
21
0.227949
0
LINE
8
BLACK
6
CONTINUOUS
10
3.52245
20
0.227949
11
3.52481
21
0.214063
0
LINE
8
BLACK
6
CONTINUOUS
10
3.52481
20
0.214063
11
3.5256
21
0.2
0
LINE
8
BLACK
6
CONTINUOUS
10
3.5256
20
0.2
11
3.52481
21
0.185937
0
LINE
8
BLACK
6
CONTINUOUS
10
3.52481
20
0.185937
11
3.52245
21
0.172051
0
LINE
8
BLACK
6
CONTINUOUS
10
3.52245
20
0.172051
11
3.51855
21
0.158517
0
LINE
8
BLACK
6
CONTINUOUS
10
3.51855
20
0.158517
11
3.51316
21
0.145504
0
LINE
8
BLACK
6
CONTINUOUS
10
3.51316
20
0.145504
11
3.50635
21
0.133177
0
LINE
8
BLACK
6
CONTINUOUS
10
3.50635
20
0.133177
11
3.4982
21
0.12169
0
LINE
8
BLACK
6
CONTINUOUS
10
3.4982
20
0.12169
11
3.48881
21
0.111187
0
LINE
8
BLACK
6
CONTINUOUS
10
3.48881
20
0.111187
11
3.47831
21
0.101802
0
LINE
8
BLACK
6
CONTINUOUS
10
3.47831
20
0.101802
11
3.46682
21
0.0936515
0
LINE
8
BLACK
6
CONTINUOUS
10
3.46682
20
0.0936515
11
3.4545
21
0.0868383
0
LINE
8
BLACK
6
CONTINUOUS
10
3.4545
20
0.0868383
11
3.44148
21
0.0814483
0
LINE
8
BLACK
6
CONTINUOUS
10
3.44148
20
0.0814483
11
3.42795
21
0.0775491
0
LINE
8
BLACK
6
CONTINUOUS
10
3.42795
20
0.0775491
11
3.41406
21
0.0751898
0
LINE
8
BLACK
6
CONTINUOUS
10
3.41406
20
0.0751898
11
3.4
21
0.0744
0
LINE
8
BLACK
6
CONTINUOUS
10
3.4
20
0.0744
11
3.38594
21
0.0751898
0
LINE
8
BLACK
6
CONTINUOUS
10
3.38594
20
0.0751898
11
3.37205
21
0.0775491
0
LINE
8
BLACK
6
CONTINUOUS
10
3.37205
20
0.0775491
11
3.35852
21
0.0814483
0
LINE
8
BLACK
6
CONTINUOUS
10
3.35852
20
0.0814483
11
3.3455
21
0.0868383
0
LINE
8
BLACK
6
CONTINUOUS
10
3.3455
20
0.0868383
11
3.33318
21
0.0936515
0
LINE
8
BLACK
6
CONTINUOUS
10
3.33318
20
0.0936515
11
3.32169
21
0.101802
0
LINE
8
BLACK
6
CONTINUOUS
10
3.32169
20
0.101802
11
3.31119
21
0.111187
0
LINE
8
BLACK
6
CONTINUOUS
10
3.31119
20
0.111187
11
3.3018
21
0.12169
0
LINE
8
BLACK
6
CONTINUOUS
10
3.3018
20
0.12169
11
3.29365
21
0.133177
0
LINE
8
BLACK
6
CONTINUOUS
10
3.29365
20
0.133177
11
3.28684
21
0.145504
0
LINE
8
BLACK
6
CONTINUOUS
10
3.28684
20
0.145504
11
3.28145
21
0.158517
0
LINE
8
BLACK
6
CONTINUOUS
10
3.28145
20
0.158517
11
3.27755
21
0.172051
0
LINE
8
BLACK
6
CONTINUOUS
10
3.27755
20
0.172051
11
3.27519
21
0.185937
0
LINE
8
BLACK
6
CONTINUOUS
10
3.27519
20
0.185937
11
3.2744
21
0.2
0
LINE
8
BLACK
6
CONTINUOUS
10
3.2744
20
0.2
11
3.27519
21
0.214063
0
LINE
8
BLACK
6
CONTINUOUS
10
3.27519
20
0.214063
11
3.27755
21
0.227949
0
LINE
8
BLACK
6
CONTINUOUS
10
3.27755
20
0.227949
11
3.28145
21
0.241483
0
LINE
8
BLACK
6
CONTINUOUS
10
3.28145
20
0.241483
11
3.28684
21
0.254496
0
LINE
8
BLACK
6
CONTINUOUS
10
3.28684
20
0.254496
11
3.29365
21
0.266823
0
LINE
8
BLACK
6
CONTINUOUS
10
3.29365
20
0.266823
11
3.3018
21
0.27831
0
LINE
8
BLACK
6
CONTINUOUS
10
3.3018
20
0.27831
11
3.31119
21
0.288813
0
LINE
8
BLACK
6
CONTINUOUS
10
3.31119
20
0.288813
11
3.32169
21
0.298198
0
LINE
8
BLACK
6
CONTINUOUS
10
3.32169
20
0.298198
11
3.33318
21
0.306349
0
LINE
8
BLACK
6
CONTINUOUS
10
3.33318
20
0.306349
11
3.3455
21
0.313162
0
LINE
8
BLACK
6
CONTINUOUS
10
3.3455
20
0.313162
11
3.35852
21
0.318552
0
LINE
8
BLACK
6
CONTINUOUS
10
3.35852
20
0.318552
11
3.37205
21
0.322451
0
LINE
8
BLACK
6
CONTINUOUS
10
3.37205
20
0.322451
11
3.38594
21
0.32481
0
LINE
8
BLACK
6
CONTINUOUS
10
3.38594
20
0.32481
11
3.4
21
0.3256
0
LINE
8
BLACK
6
CONTINUOUS
10
3.4
20
0.3256
11
3.41406
21
0.32481
0
LINE
8
BLACK
6
CONTINUOUS
10
3.28996
20
0.187138
11
3.2922
21
0.174451
0
LINE
8
BLACK
6
CONTINUOUS
10
3.2922
20
0.174451
11
3.29589
21
0.162108
0
LINE
8
BLACK
6
CONTINUOUS
10
3.29589
20
0.162108
11
3.301
21
0.150279
0
LINE
8
BLACK
6
CONTINUOUS
10
3.301
20
0.150279
11
3.30744
21
0.139121
0
LINE
8
BLACK
6
CONTINUOUS
10
3.30744
20
0.139121
11
3.31513
21
0.128787
0
LINE
8
BLACK
6
CONTINUOUS
10
3.31513
20
0.128787
11
3.32397
21
0.119416
0
LINE
8
BLACK
6
CONTINUOUS
10
3.32397
20
0.119416
11
3.33384
21
0.111135
0
LINE
8
BLACK
6
CONTINUOUS
10
3.33384
20
0.111135
11
3.34461
21
0.104055
0
LINE
8
BLACK
6
CONTINUOUS
10
3.34461
20
0.104055
11
3.35612
21
0.0982732
0
LINE
8
BLACK
6
CONTINUOUS
10
3.35612
20
0.0982732
11
3.36823
21
0.0938668
0
LINE
8
BLACK
6
CONTINUOUS
10
3.36823
20
0.0938668
11
3.38076
21
0.0908957
0
LINE
8
BLACK
6
CONTINUOUS
10
3.38076
20
0.0908957
11
3.39356
21
0.0894
0
LINE
8
BLACK
6
CONTINUOUS
10
3.39356
20
0.0894
11
3.40644
21
0.0894
0
LINE
8
BLACK
6
CONTINUOUS
10
3.40644
20
0.0894
11
3.41924
21
0.0908957
0
LINE
8
BLACK
6
CONTINUOUS
10
3.41924
20
0.0908957
11
3.43177
21
0.0938668
0
LINE
8
BLACK
6
CONTINUOUS
10
3.43177
20
0.0938668
11
3.44388
21
0.0982732
0
LINE
8
BLACK
6
CONTINUOUS
10
3.44388
20
0.0982732
11
3.45539
21
0.104055
0
LINE
8
BLACK
6
CONTINUOUS
10
3.45539
20
0.104055
11
3.46616
21
0.111135
0
LINE
8
BLACK
6
CONTINUOUS
10
3.46616
20
0.111135
11
3.47603
21
0.119416
0
LINE
8
BLACK
6
CONTINUOUS
10
3.47603
20
0.119416
11
3.48487
21
0.128787
0
LINE
8
BLACK
6
CONTINUOUS
10
3.48487
20
0.128787
11
3.49256
21
0.139121
0
LINE
8
BLACK
6
CONTINUOUS
10
3.49256
20
0.139121
11
3.499
21
0.150279
0
LINE
8
BLACK
6
CONTINUOUS
10
3.499
20
0.150279
11
3.50411
21
0.162108
0
LINE
8
BLACK
6
CONTINUOUS
10
3.50411
20
0.162108
11
3.5078
21
0.174451
0
LINE
8
BLACK
6
CONTINUOUS
10
3.5078
20
0.174451
11
3.51004
21
0.187138
0
LINE
8
BLACK
6
CONTINUOUS
10
3.51004
20
0.187138
11
3.51079
21
0.2
0
LINE
8
BLACK
6
CONTINUOUS
10
3.51079
20
0.2
11
3.51004
21
0.212862
0
LINE
8
BLACK
6
CONTINUOUS
10
3.51004
20
0.212862
11
3.5078
21
0.225549
0
LINE
8
BLACK
6
CONTINUOUS
10
3.5078
20
0.225549
11
3.50411
21
0.237892
0
LINE
8
BLACK
6
CONTINUOUS
10
3.50411
20
0.237892
11
3.499
21
0.249721
0
LINE
8
BLACK
6
CONTINUOUS
10
3.499
20
0.249721
11
3.49256
21
0.260879
0
LINE
8
BLACK
6
CONTINUOUS
10
3.49256
20
0.260879
11
3.48487
21
0.271213
0
LINE
8
BLACK
6
CONTINUOUS
10
3.48487
20
0.271213
11
3.47603
21
0.280584
0
LINE
8
BLACK
6
CONTINUOUS
10
3.47603
20
0.280584
11
3.46616
21
0.288865
0
LINE
8
BLACK
6
CONTINUOUS
10
3.46616
20
0.288865
11
3.45539
21
0.295945
0
LINE
8
BLACK
6
CONTINUOUS
10
3.45539
20
0.295945
11
3.44388
21
0.301727
0
LINE
8
BLACK
6
CONTINUOUS
10
3.44388
20
0.301727
11
3.43177
21
0.306133
0
LINE
8
BLACK
6
CONTINUOUS
10
3.43177
20
0.306133
11
3.41924
21
0.309104
0
LINE
8
BLACK
6
CONTINUOUS
10
3.41924
20
0.309104
11
3.40644
21
0.3106
0
LINE
8
BLACK
6
CONTINUOUS
10
3.40644
20
0.3106
11
3.39356
21
0.3106
0
LINE
8
BLACK
6
CONTINUOUS
10
3.39356
20
0.3106
11
3.38076
21
0.309104
0
LINE
8
BLACK
6
CONTINUOUS
10
3.38076
20
0.309104
11
3.36823
21
0.306133
0
LINE
8
BLACK
6
CONTINUOUS
10
3.36823
20
0.306133
11
3.35612
21
0.301727
0
LINE
8
BLACK
6
CONTINUOUS
10
3.35612
20
0.301727
11
3.34461
21
0.295945
0
LINE
8
BLACK
6
CONTINUOUS
10
3.34461
20
0.295945
11
3.33384
21
0.288865
0
LINE
8
BLACK
6
CONTINUOUS
10
3.33384
20
0.288865
11
3.32397
21
0.280584
0
LINE
8
BLACK
6
CONTINUOUS
10
3.32397
20
0.280584
11
3.31513
21
0.271213
0
LINE
8
BLACK
6
CONTINUOUS
10
3.31513
20
0.271213
11
3.30744
21
0.260879
0
LINE
8
BLACK
6
CONTINUOUS
10
3.30744
20
0.260879
11
3.301
21
0.249721
0
LINE
8
BLACK
6
CONTINUOUS
10
3.301
20
0.249721
11
3.29589
21
0.237892
0
LINE
8
BLACK
6
CONTINUOUS
10
3.29589
20
0.237892
11
3.2922
21
0.225549
0
LINE
8
BLACK
6
CONTINUOUS
10
3.2922
20
0.225549
11
3.28996
21
0.212862
0
LINE
8
BLACK
6
CONTINUOUS
10
3.28996
20
0.212862
11
3.28921
21
0.2
0
LINE
8
BLACK
6
CONTINUOUS
10
3.28921
20
0.2
11
3.28996
21
0.187138
0
LINE
8
BLACK
6
CONTINUOUS
10
1.0978
20
1.92576
11
1.11168
21
1.9234
0
LINE
8
BLACK
6
CONTINUOUS
10
1.11168
20
1.9234
11
1.12522
21
1.9195
0
LINE
8
BLACK
6
CONTINUOUS
10
1.12522
20
1.9195
11
1.13823
21
1.91411
0
LINE
8
BLACK
6
CONTINUOUS
10
1.13823
20
1.91411
11
1.15056
21
1.90729
0
LINE
8
BLACK
6
CONTINUOUS
10
1.15056
20
1.90729
11
1.16204
21
1.89914
0
LINE
8
BLACK
6
CONTINUOUS
10
1.16204
20
1.89914
11
1.17254
21
1.88976
0
LINE
8
BLACK
6
CONTINUOUS
10
1.17254
20
1.88976
11
1.18193
21
1.87926
0
LINE
8
BLACK
6
CONTINUOUS
10
1.18193
20
1.87926
11
1.19008
21
1.86777
0
LINE
8
BLACK
6
CONTINUOUS
10
1.19008
20
1.86777
11
1.19689
21
1.85544
0
LINE
8
BLACK
6
CONTINUOUS
10
1.19689
20
1.85544
11
1.20228
21
1.84243
0
LINE
8
BLACK
6
CONTINUOUS
10
1.20228
20
1.84243
11
1.20618
21
1.82889
0
LINE
8
BLACK
6
CONTINUOUS
10
1.20618
20
1.82889
11
1.20854
21
1.81501
0
LINE
8
BLACK
6
CONTINUOUS
10
1.20854
20
1.81501
11
1.20933
21
1.80094
0
LINE
8
BLACK
6
CONTINUOUS
10
1.20933
20
1.80094
11
1.20854
21
1.78688
0
LINE
8
BLACK
6
CONTINUOUS
10
1.20854
20
1.78688
11
1.20618
21
1.773
0
LINE
8
BLACK
6
CONTINUOUS
10
1.20618
20
1.773
11
1.20228
21
1.75946
0
LINE
8
BLACK
6
CONTINUOUS
10
1.20228
20
1.75946
11
1.19689
21
1.74645
0
LINE
8
BLACK
6
CONTINUOUS
10
1.19689
20
1.74645
11
1.19008
21
1.73412
0
LINE
8
BLACK
6
CONTINUOUS
10
1.19008
20
1.73412
11
1.18193
21
1.72263
0
LINE
8
BLACK
6
CONTINUOUS
10
1.18193
20
1.72263
11
1.17254
21
1.71213
0
LINE
8
BLACK
6
CONTINUOUS
10
1.17254
20
1.71213
11
1.16204
21
1.70275
0
LINE
8
BLACK
6
CONTINUOUS
10
1.16204
20
1.70275
11
1.15056
21
1.6946
0
LINE
8
BLACK
6
CONTINUOUS
10
1.15056
20
1.6946
11
1.13823
21
1.68778
0
LINE
8
BLACK
6
CONTINUOUS
10
1.13823
20
1.68778
11
1.12522
21
1.68239
0
LINE
8
BLACK
6
CONTINUOUS
10
1.12522
20
1.68239
11
1.11168
21
1.67849
0
LINE
8
BLACK
6
CONTINUOUS
10
1.11168
20
1.67849
11
1.0978
21
1.67613
0
LINE
8
BLACK
6
CONTINUOUS
10
1.0978
20
1.67613
11
1.08373
21
1.67534
0
LINE
8
BLACK
6
CONTINUOUS
10
1.08373
20
1.67534
11
1.06967
21
1.67613
0
LINE
8
BLACK
6
CONTINUOUS
10
1.06967
20
1.67613
11
1.05578
21
1.67849
0
LINE
8
BLACK
6
CONTINUOUS
10
1.05578
20
1.67849
11
1.04225
21
1.68239
0
LINE
8
BLACK
6
CONTINUOUS
10
1.04225
20
1.68239
11
1.02924
21
1.68778
0
LINE
8
BLACK
6
CONTINUOUS
10
1.02924
20
1.68778
11
1.01691
21
1.6946
0
LINE
8
BLACK
6
CONTINUOUS
10
1.01691
20
1.6946
11
1.00542
21
1.70275
0
LINE
8
BLACK
6
CONTINUOUS
10
1.00542
20
1.70275
11
0.99492
21
1.71213
0
LINE
8
BLACK
6
CONTINUOUS
10
0.99492
20
1.71213
11
0.985534
21
1.72263
0
LINE
8
BLACK
6
CONTINUOUS
10
0.985534
20
1.72263
11
0.977384
21
1.73412
0
LINE
8
BLACK
6
CONTINUOUS
10
0.977384
20
1.73412
11
0.970571
21
1.74645
0
LINE
8
BLACK
6
CONTINUOUS
10
0.970571
20
1.74645
11
0.965181
21
1.75946
0
LINE
8
BLACK
6
CONTINUOUS
10
0.965181
20
1.75946
11
0.961281
21
1.773
0
LINE
8
BLACK
6
CONTINUOUS
10
0.961281
20
1.773
11
0.958922
21
1.78688
0
LINE
8
BLACK
6
CONTINUOUS
10
0.958922
20
1.78688
11
0.958132
21
1.80094
0
LINE
8
BLACK
6
CONTINUOUS
10
0.958132
20
1.80094
11
0.958922
21
1.81501
0
LINE
8
BLACK
6
CONTINUOUS
10
0.958922
20
1.81501
11
0.961281
21
1.82889
0
LINE
8
BLACK
6
CONTINUOUS
10
0.961281
20
1.82889
11
0.965181
21
1.84243
0
LINE
8
BLACK
6
CONTINUOUS
10
0.965181
20
1.84243
11
0.970571
21
1.85544
0
LINE
8
BLACK
6
CONTINUOUS
10
0.970571
20
1.85544
11
0.977384
21
1.86777
0
LINE
8
BLACK
6
CONTINUOUS
10
0.977384
20
1.86777
11
0.985534
21
1.87926
0
LINE
8
BLACK
6
CONTINUOUS
10
0.985534
20
1.87926
11
0.99492
21
1.88976
0
LINE
8
BLACK
6
CONTINUOUS
10
0.99492
20
1.88976
11
1.00542
21
1.89914
0
LINE
8
BLACK
6
CONTINUOUS
10
1.00542
20
1.89914
11
1.01691
21
1.90729
0
LINE
8
BLACK
6
CONTINUOUS
10
1.01691
20
1.90729
11
1.02924
21
1.91411
0
LINE
8
BLACK
6
CONTINUOUS
10
1.02924
20
1.91411
11
1.04225
21
1.9195
0
LINE
8
BLACK
6
CONTINUOUS
10
1.04225
20
1.9195
11
1.05578
21
1.9234
0
LINE
8
BLACK
6
CONTINUOUS
10
1.05578
20
1.9234
11
1.06967
21
1.92576
0
LINE
8
BLACK
6
CONTINUOUS
10
1.06967
20
1.92576
11
1.08373
21
1.92654
0
LINE
8
BLACK
6
CONTINUOUS
10
1.08373
20
1.92654
11
1.0978
21
1.92576
0
LINE
8
BLACK
6
CONTINUOUS
10
0.973694
20
1.78808
11
0.975931
21
1.7754
0
LINE
8
BLACK
6
CONTINUOUS
10
0.975931
20
1.7754
11
0.979626
21
1.76305
0
LINE
8
BLACK
6
CONTINUOUS
10
0.979626
20
1.76305
11
0.984729
21
1.75122
0
LINE
8
BLACK
6
CONTINUOUS
10
0.984729
20
1.75122
11
0.991171
21
1.74007
0
LINE
8
BLACK
6
CONTINUOUS
10
0.991171
20
1.74007
11
0.998864
21
1.72973
0
LINE
8
BLACK
6
CONTINUOUS
10
0.998864
20
1.72973
11
1.00771
21
1.72036
0
LINE
8
BLACK
6
CONTINUOUS
10
1.00771
20
1.72036
11
1.01757
21
1.71208
0
LINE
8
BLACK
6
CONTINUOUS
10
1.01757
20
1.71208
11
1.02834
21
1.705
0
LINE
8
BLACK
6
CONTINUOUS
10
1.02834
20
1.705
11
1.03985
21
1.69922
0
LINE
8
BLACK
6
CONTINUOUS
10
1.03985
20
1.69922
11
1.05196
21
1.69481
0
LINE
8
BLACK
6
CONTINUOUS
10
1.05196
20
1.69481
11
1.06449
21
1.69184
0
LINE
8
BLACK
6
CONTINUOUS
10
1.06449
20
1.69184
11
1.07729
21
1.69034
0
LINE
8
BLACK
6
CONTINUOUS
10
1.07729
20
1.69034
11
1.09017
21
1.69034
0
LINE
8
BLACK
6
CONTINUOUS
10
1.09017
20
1.69034
11
1.10297
21
1.69184
0
LINE
8
BLACK
6
CONTINUOUS
10
1.10297
20
1.69184
11
1.11551
21
1.69481
0
LINE
8
BLACK
6
CONTINUOUS
10
1.11551
20
1.69481
11
1.12761
21
1.69922
0
LINE
8
BLACK
6
CONTINUOUS
10
1.12761
20
1.69922
11
1.13913
21
1.705
0
LINE
8
BLACK
6
CONTINUOUS
10
1.13913
20
1.705
11
1.14989
21
1.71208
0
LINE
8
BLACK
6
CONTINUOUS
10
1.14989
20
1.71208
11
1.15976
21
1.72036
0
LINE
8
BLACK
6
CONTINUOUS
10
1.15976
20
1.72036
11
1.1686
21
1.72973
0
LINE
8
BLACK
6
CONTINUOUS
10
1.1686
20
1.72973
11
1.17629
21
1.74007
0
LINE
8
BLACK
6
CONTINUOUS
10
1.17629
20
1.74007
11
1.18274
21
1.75122
0
LINE
8
BLACK
6
CONTINUOUS
10
1.18274
20
1.75122
11
1.18784
21
1.76305
0
LINE
8
BLACK
6
CONTINUOUS
10
1.18784
20
1.76305
11
1.19153
21
1.7754
0
LINE
8
BLACK
6
CONTINUOUS
10
1.19153
20
1.7754
11
1.19377
21
1.78808
0
LINE
8
BLACK
6
CONTINUOUS
10
1.19377
20
1.78808
11
1.19452
21
1.80094
0
LINE
8
BLACK
6
CONTINUOUS
10
1.19452
20
1.80094
11
1.19377
21
1.81381
0
LINE
8
BLACK
6
CONTINUOUS
10
1.19377
20
1.81381
11
1.19153
21
1.82649
0
LINE
8
BLACK
6
CONTINUOUS
10
1.19153
20
1.82649
11
1.18784
21
1.83884
0
LINE
8
BLACK
6
CONTINUOUS
10
1.18784
20
1.83884
11
1.18274
21
1.85067
0
LINE
8
BLACK
6
CONTINUOUS
10
1.18274
20
1.85067
11
1.17629
21
1.86182
0
LINE
8
BLACK
6
CONTINUOUS
10
1.17629
20
1.86182
11
1.1686
21
1.87216
0
LINE
8
BLACK
6
CONTINUOUS
10
1.1686
20
1.87216
11
1.15976
21
1.88153
0
LINE
8
BLACK
6
CONTINUOUS
10
1.15976
20
1.88153
11
1.14989
21
1.88981
0
LINE
8
BLACK
6
CONTINUOUS
10
1.14989
20
1.88981
11
1.13913
21
1.89689
0
LINE
8
BLACK
6
CONTINUOUS
10
1.13913
20
1.89689
11
1.12761
21
1.90267
0
LINE
8
BLACK
6
CONTINUOUS
10
1.12761
20
1.90267
11
1.11551
21
1.90708
0
LINE
8
BLACK
6
CONTINUOUS
10
1.11551
20
1.90708
11
1.10297
21
1.91005
0
LINE
8
BLACK
6
CONTINUOUS
10
1.10297
20
1.91005
11
1.09017
21
1.91154
0
LINE
8
BLACK
6
CONTINUOUS
10
1.09017
20
1.91154
11
1.07729
21
1.91154
0
LINE
8
BLACK
6
CONTINUOUS
10
1.07729
20
1.91154
11
1.06449
21
1.91005
0
LINE
8
BLACK
6
CONTINUOUS
10
1.06449
20
1.91005
11
1.05196
21
1.90708
0
LINE
8
BLACK
6
CONTINUOUS
10
1.05196
20
1.90708
11
1.03985
21
1.90267
0
LINE
8
BLACK
6
CONTINUOUS
10
1.03985
20
1.90267
11
1.02834
21
1.89689
0
LINE
8
BLACK
6
CONTINUOUS
10
1.02834
20
1.89689
11
1.01757
21
1.88981
0
LINE
8
BLACK
6
CONTINUOUS
10
1.01757
20
1.88981
11
1.00771
21
1.88153
0
LINE
8
BLACK
6
CONTINUOUS
10
1.00771
20
1.88153
11
0.998864
21
1.87216
0
LINE
8
BLACK
6
CONTINUOUS
10
0.998864
20
1.87216
11
0.991171
21
1.86182
0
LINE
8
BLACK
6
CONTINUOUS
10
0.991171
20
1.86182
11
0.984729
21
1.85067
0
LINE
8
BLACK
6
CONTINUOUS
10
0.984729
20
1.85067
11
0.979626
21
1.83884
0
LINE
8
BLACK
6
CONTINUOUS
10
0.979626
20
1.83884
11
0.975931
21
1.82649
0
LINE
8
BLACK
6
CONTINUOUS
10
0.975931
20
1.82649
11
0.973694
21
1.81381
0
LINE
8
BLACK
6
CONTINUOUS
10
0.973694
20
1.81381
11
0.972945
21
1.80094
0
LINE
8
BLACK
6
CONTINUOUS
10
0.972945
20
1.80094
11
0.973694
21
1.78808
0
LINE
8
BLACK
6
CONTINUOUS
10
2.2978
20
1.92576
11
2.31168
21
1.9234
0
LINE
8
BLACK
6
CONTINUOUS
10
2.31168
20
1.9234
11
2.32522
21
1.9195
0
LINE
8
BLACK
6
CONTINUOUS
10
2.32522
20
1.9195
11
2.33823
21
1.91411
0
LINE
8
BLACK
6
CONTINUOUS
10
2.33823
20
1.91411
11
2.35056
21
1.90729
0
LINE
8
BLACK
6
CONTINUOUS
10
2.35056
20
1.90729
11
2.36204
21
1.89914
0
LINE
8
BLACK
6
CONTINUOUS
10
2.36204
20
1.89914
11
2.37254
21
1.88976
0
LINE
8
BLACK
6
CONTINUOUS
10
2.37254
20
1.88976
11
2.38193
21
1.87926
0
LINE
8
BLACK
6
CONTINUOUS
10
2.38193
20
1.87926
11
2.39008
21
1.86777
0
LINE
8
BLACK
6
CONTINUOUS
10
2.39008
20
1.86777
11
2.39689
21
1.85544
0
LINE
8
BLACK
6
CONTINUOUS
10
2.39689
20
1.85544
11
2.40228
21
1.84243
0
LINE
8
BLACK
6
CONTINUOUS
10
2.40228
20
1.84243
11
2.40618
21
1.82889
0
LINE
8
BLACK
6
CONTINUOUS
10
2.40618
20
1.82889
11
2.40854
21
1.81501
0
LINE
8
BLACK
6
CONTINUOUS
10
2.40854
20
1.81501
11
2.40933
21
1.80094
0
LINE
8
BLACK
6
CONTINUOUS
10
2.40933
20
1.80094
11
2.40854
21
1.78688
0
LINE
8
BLACK
6
CONTINUOUS
10
2.40854
20
1.78688
11
2.40618
21
1.773
0
LINE
8
BLACK
6
CONTINUOUS
10
2.40618
20
1.773
11
2.40228
21
1.75946
0
LINE
8
BLACK
6
CONTINUOUS
10
2.40228
20
1.75946
11
2.39689
21
1.74645
0
LINE
8
BLACK
6
CONTINUOUS
10
2.39689
20
1.74645
11
2.39008
21
1.73412
0
LINE
8
BLACK
6
CONTINUOUS
10
2.39008
20
1.73412
11
2.38193
21
1.72263
0
LINE
8
BLACK
6
CONTINUOUS
10
2.38193
20
1.72263
11
2.37254
21
1.71213
0
LINE
8
BLACK
6
CONTINUOUS
10
2.37254
20
1.71213
11
2.36204
21
1.70275
0
LINE
8
BLACK
6
CONTINUOUS
10
2.36204
20
1.70275
11
2.35056
21
1.6946
0
LINE
8
BLACK
6
CONTINUOUS
10
2.35056
20
1.6946
11
2.33823
21
1.68778
0
LINE
8
BLACK
6
CONTINUOUS
10
2.33823
20
1.68778
11
2.32522
21
1.68239
0
LINE
8
BLACK
6
CONTINUOUS
10
2.32522
20
1.68239
11
2.31168
21
1.67849
0
LINE
8
BLACK
6
CONTINUOUS
10
2.31168
20
1.67849
11
2.2978
21
1.67613
0
LINE
8
BLACK
6
CONTINUOUS
10
2.2978
20
1.67613
11
2.28373
21
1.67534
0
LINE
8
BLACK
6
CONTINUOUS
10
2.28373
20
1.67534
11
2.26967
21
1.67613
0
LINE
8
BLACK
6
CONTINUOUS
10
2.26967
20
1.67613
11
2.25578
21
1.67849
0
LINE
8
BLACK
6
CONTINUOUS
10
2.25578
20
1.67849
11
2.24225
21
1.68239
0
LINE
8
BLACK
6
CONTINUOUS
10
2.24225
20
1.68239
11
2.22924
21
1.68778
0
LINE
8
BLACK
6
CONTINUOUS
10
2.22924
20
1.68778
11
2.21691
21
1.6946
0
LINE
8
BLACK
6
CONTINUOUS
10
2.21691
20
1.6946
11
2.20542
21
1.70275
0
LINE
8
BLACK
6
CONTINUOUS
10
2.20542
20
1.70275
11
2.19492
21
1.71213
0
LINE
8
BLACK
6
CONTINUOUS
10
2.19492
20
1.71213
11
2.18553
21
1.72263
0
LINE
8
BLACK
6
CONTINUOUS
10
2.18553
20
1.72263
11
2.17738
21
1.73412
0
LINE
8
BLACK
6
CONTINUOUS
10
2.17738
20
1.73412
11
2.17057
21
1.74645
0
LINE
8
BLACK
6
CONTINUOUS
10
2.17057
20
1.74645
11
2.16518
21
1.75946
0
LINE
8
BLACK
6
CONTINUOUS
10
2.16518
20
1.75946
11
2.16128
21
1.773
0
LINE
8
BLACK
6
CONTINUOUS
10
2.16128
20
1.773
11
2.15892
21
1.78688
0
LINE
8
BLACK
6
CONTINUOUS
10
2.15892
20
1.78688
11
2.15813
21
1.80094
0
LINE
8
BLACK
6
CONTINUOUS
10
2.15813
20
1.80094
11
2.15892
21
1.81501
0
LINE
8
BLACK
6
CONTINUOUS
10
2.15892
20
1.81501
11
2.16128
21
1.82889
0
LINE
8
BLACK
6
CONTINUOUS
10
2.16128
20
1.82889
11
2.16518
21
1.84243
0
LINE
8
BLACK
6
CONTINUOUS
10
2.16518
20
1.84243
11
2.17057
21
1.85544
0
LINE
8
BLACK
6
CONTINUOUS
10
2.17057
20
1.85544
11
2.17738
21
1.86777
0
LINE
8
BLACK
6
CONTINUOUS
10
2.17738
20
1.86777
11
2.18553
21
1.87926
0
LINE
8
BLACK
6
CONTINUOUS
10
2.18553
20
1.87926
11
2.19492
21
1.88976
0
LINE
8
BLACK
6
CONTINUOUS
10
2.19492
20
1.88976
11
2.20542
21
1.89914
0
LINE
8
BLACK
6
CONTINUOUS
10
2.20542
20
1.89914
11
2.21691
21
1.90729
0
LINE
8
BLACK
6
CONTINUOUS
10
2.21691
20
1.90729
11
2.22924
21
1.91411
0
LINE
8
BLACK
6
CONTINUOUS
10
2.22924
20
1.91411
11
2.24225
21
1.9195
0
LINE
8
BLACK
6
CONTINUOUS
10
2.24225
20
1.9195
11
2.25578
21
1.9234
0
LINE
8
BLACK
6
CONTINUOUS
10
2.25578
20
1.9234
11
2.26967
21
1.92576
0
LINE
8
BLACK
6
CONTINUOUS
10
2.26967
20
1.92576
11
2.28373
21
1.92654
0
LINE
8
BLACK
6
CONTINUOUS
10
2.28373
20
1.92654
11
2.2978
21
1.92576
0
LINE
8
BLACK
6
CONTINUOUS
10
2.17369
20
1.78808
11
2.17593
21
1.7754
0
LINE
8
BLACK
6
CONTINUOUS
10
2.17593
20
1.7754
11
2.17963
21
1.76305
0
LINE
8
BLACK
6
CONTINUOUS
10
2.17963
20
1.76305
11
2.18473
21
1.75122
0
LINE
8
BLACK
6
CONTINUOUS
10
2.18473
20
1.75122
11
2.19117
21
1.74007
0
LINE
8
BLACK
6
CONTINUOUS
10
2.19117
20
1.74007
11
2.19886
21
1.72973
0
LINE
8
BLACK
6
CONTINUOUS
10
2.19886
20
1.72973
11
2.20771
21
1.72036
0
LINE
8
BLACK
6
CONTINUOUS
10
2.20771
20
1.72036
11
2.21757
21
1.71208
0
LINE
8
BLACK
6
CONTINUOUS
10
2.21757
20
1.71208
11
2.22834
21
1.705
0
LINE
8
BLACK
6
CONTINUOUS
10
2.22834
20
1.705
11
2.23985
21
1.69922
0
LINE
8
BLACK
6
CONTINUOUS
10
2.23985
20
1.69922
11
2.25196
21
1.69481
0
LINE
8
BLACK
6
CONTINUOUS
10
2.25196
20
1.69481
11
2.26449
21
1.69184
0
LINE
8
BLACK
6
CONTINUOUS
10
2.26449
20
1.69184
11
2.27729
21
1.69034
0
LINE
8
BLACK
6
CONTINUOUS
10
2.27729
20
1.69034
11
2.29017
21
1.69034
0
LINE
8
BLACK
6
CONTINUOUS
10
2.29017
20
1.69034
11
2.30297
21
1.69184
0
LINE
8
BLACK
6
CONTINUOUS
10
2.30297
20
1.69184
11
2.31551
21
1.69481
0
LINE
8
BLACK
6
CONTINUOUS
10
2.31551
20
1.69481
11
2.32761
21
1.69922
0
LINE
8
BLACK
6
CONTINUOUS
10
2.32761
20
1.69922
11
2.33913
21
1.705
0
LINE
8
BLACK
6
CONTINUOUS
10
2.33913
20
1.705
11
2.34989
21
1.71208
0
LINE
8
BLACK
6
CONTINUOUS
10
2.34989
20
1.71208
11
2.35976
21
1.72036
0
LINE
8
BLACK
6
CONTINUOUS
10
2.35976
20
1.72036
11
2.3686
21
1.72973
0
LINE
8
BLACK
6
CONTINUOUS
10
2.3686
20
1.72973
11
2.37629
21
1.74007
0
LINE
8
BLACK
6
CONTINUOUS
10
2.37629
20
1.74007
11
2.38274
21
1.75122
0
LINE
8
BLACK
6
CONTINUOUS
10
2.38274
20
1.75122
11
2.38784
21
1.76305
0
LINE
8
BLACK
6
CONTINUOUS
10
2.38784
20
1.76305
11
2.39153
21
1.7754
0
LINE
8
BLACK
6
CONTINUOUS
10
2.39153
20
1.7754
11
2.39377
21
1.78808
0
LINE
8
BLACK
6
CONTINUOUS
10
2.39377
20
1.78808
11
2.39452
21
1.80094
0
LINE
8
BLACK
6
CONTINUOUS
10
2.39452
20
1.80094
11
2.39377
21
1.81381
0
LINE
8
BLACK
6
CONTINUOUS
10
2.39377
20
1.81381
11
2.39153
21
1.82649
0
LINE
8
BLACK
6
CONTINUOUS
10
2.39153
20
1.82649
11
2.38784
21
1.83884
0
LINE
8
BLACK
6
CONTINUOUS
10
2.38784
20
1.83884
11
2.38274
21
1.85067
0
LINE
8
BLACK
6
CONTINUOUS
10
2.38274
20
1.85067
11
2.37629
21
1.86182
0
LINE
8
BLACK
6
CONTINUOUS
10
2.37629
20
1.86182
11
2.3686
21
1.87216
0
LINE
8
BLACK
6
CONTINUOUS
10
2.3686
20
1.87216
11
2.35976
21
1.88153
0
LINE
8
BLACK
6
CONTINUOUS
10
2.35976
20
1.88153
11
2.34989
21
1.88981
0
LINE
8
BLACK
6
CONTINUOUS
10
2.34989
20
1.88981
11
2.33913
21
1.89689
0
LINE
8
BLACK
6
CONTINUOUS
10
2.33913
20
1.89689
11
2.32761
21
1.90267
0
LINE
8
BLACK
6
CONTINUOUS
10
2.32761
20
1.90267
11
2.31551
21
1.90708
0
LINE
8
BLACK
6
CONTINUOUS
10
2.31551
20
1.90708
11
2.30297
21
1.91005
0
LINE
8
BLACK
6
CONTINUOUS
10
2.30297
20
1.91005
11
2.29017
21
1.91154
0
LINE
8
BLACK
6
CONTINUOUS
10
2.29017
20
1.91154
11
2.27729
21
1.91154
0
LINE
8
BLACK
6
CONTINUOUS
10
2.27729
20
1.91154
11
2.26449
21
1.91005
0
LINE
8
BLACK
6
CONTINUOUS
10
2.26449
20
1.91005
11
2.25196
21
1.90708
0
LINE
8
BLACK
6
CONTINUOUS
10
2.25196
20
1.90708
11
2.23985
21
1.90267
0
LINE
8
BLACK
6
CONTINUOUS
10
2.23985
20
1.90267
11
2.22834
21
1.89689
0
LINE
8
BLACK
6
CONTINUOUS
10
2.22834
20
1.89689
11
2.21757
21
1.88981
0
LINE
8
BLACK
6
CONTINUOUS
10
2.21757
20
1.88981
11
2.20771
21
1.88153
0
LINE
8
BLACK
6
CONTINUOUS
10
2.20771
20
1.88153
11
2.19886
21
1.87216
0
LINE
8
BLACK
6
CONTINUOUS
10
2.19886
20
1.87216
11
2.19117
21
1.86182
0
LINE
8
BLACK
6
CONTINUOUS
10
2.19117
20
1.86182
11
2.18473
21
1.85067
0
LINE
8
BLACK
6
CONTINUOUS
10
2.18473
20
1.85067
11
2.17963
21
1.83884
0
LINE
8
BLACK
6
CONTINUOUS
10
2.17963
20
1.83884
11
2.17593
21
1.82649
0
LINE
8
BLACK
6
CONTINUOUS
10
2.17593
20
1.82649
11
2.17369
21
1.81381
0
LINE
8
BLACK
6
CONTINUOUS
10
2.17369
20
1.81381
11
2.17294
21
1.80094
0
LINE
8
BLACK
6
CONTINUOUS
10
2.17294
20
1.80094
11
2.17369
21
1.78808
0
LINE
8
BLACK
6
CONTINUOUS
10
1.0978
20
4.32576
11
1.11168
21
4.3234
0
LINE
8
BLACK
6
CONTINUOUS
10
1.11168
20
4.3234
11
1.12522
21
4.3195
0
LINE
8
BLACK
6
CONTINUOUS
10
1.12522
20
4.3195
11
1.13823
21
4.31411
0
LINE
8
BLACK
6
CONTINUOUS
10
1.13823
20
4.31411
11
1.15056
21
4.30729
0
LINE
8
BLACK
6
CONTINUOUS
10
1.15056
20
4.30729
11
1.16204
21
4.29914
0
LINE
8
BLACK
6
CONTINUOUS
10
1.16204
20
4.29914
11
1.17254
21
4.28976
0
LINE
8
BLACK
6
CONTINUOUS
10
1.17254
20
4.28976
11
1.18193
21
4.27926
0
LINE
8
BLACK
6
CONTINUOUS
10
1.18193
20
4.27926
11
1.19008
21
4.26777
0
LINE
8
BLACK
6
CONTINUOUS
10
1.19008
20
4.26777
11
1.19689
21
4.25544
0
LINE
8
BLACK
6
CONTINUOUS
10
1.19689
20
4.25544
11
1.20228
21
4.24243
0
LINE
8
BLACK
6
CONTINUOUS
10
1.20228
20
4.24243
11
1.20618
21
4.22889
0
LINE
8
BLACK
6
CONTINUOUS
10
1.20618
20
4.22889
11
1.20854
21
4.21501
0
LINE
8
BLACK
6
CONTINUOUS
10
1.20854
20
4.21501
11
1.20933
21
4.20094
0
LINE
8
BLACK
6
CONTINUOUS
10
1.20933
20
4.20094
11
1.20854
21
4.18688
0
LINE
8
BLACK
6
CONTINUOUS
10
1.20854
20
4.18688
11
1.20618
21
4.173
0
LINE
8
BLACK
6
CONTINUOUS
10
1.20618
20
4.173
11
1.20228
21
4.15946
0
LINE
8
BLACK
6
CONTINUOUS
10
1.20228
20
4.15946
11
1.19689
21
4.14645
0
LINE
8
BLACK
6
CONTINUOUS
10
1.19689
20
4.14645
11
1.19008
21
4.13412
0
LINE
8
BLACK
6
CONTINUOUS
10
1.19008
20
4.13412
11
1.18193
21
4.12263
0
LINE
8
BLACK
6
CONTINUOUS
10
1.18193
20
4.12263
11
1.17254
21
4.11213
0
LINE
8
BLACK
6
CONTINUOUS
10
1.17254
20
4.11213
11
1.16204
21
4.10275
0
LINE
8
BLACK
6
CONTINUOUS
10
1.16204
20
4.10275
11
1.15056
21
4.0946
0
LINE
8
BLACK
6
CONTINUOUS
10
1.15056
20
4.0946
11
1.13823
21
4.08778
0
LINE
8
BLACK
6
CONTINUOUS
10
1.13823
20
4.08778
11
1.12522
21
4.08239
0
LINE
8
BLACK
6
CONTINUOUS
10
1.12522
20
4.08239
11
1.11168
21
4.07849
0
LINE
8
BLACK
6
CONTINUOUS
10
1.11168
20
4.07849
11
1.0978
21
4.07613
0
LINE
8
BLACK
6
CONTINUOUS
10
1.0978
20
4.07613
11
1.08373
21
4.07534
0
LINE
8
BLACK
6
CONTINUOUS
10
1.08373
20
4.07534
11
1.06967
21
4.07613
0
LINE
8
BLACK
6
CONTINUOUS
10
1.06967
20
4.07613
11
1.05578
21
4.07849
0
LINE
8
BLACK
6
CONTINUOUS
10
1.05578
20
4.07849
11
1.04225
21
4.08239
0
LINE
8
BLACK
6
CONTINUOUS
10
1.04225
20
4.08239
11
1.02924
21
4.08778
0
LINE
8
BLACK
6
CONTINUOUS
10
1.02924
20
4.08778
11
1.01691
21
4.0946
0
LINE
8
BLACK
6
CONTINUOUS
10
1.01691
20
4.0946
11
1.00542
21
4.10275
0
LINE
8
BLACK
6
CONTINUOUS
10
1.00542
20
4.10275
11
0.99492
21
4.11213
0
LINE
8
BLACK
6
CONTINUOUS
10
0.99492
20
4.11213
11
0.985534
21
4.12263
0
LINE
8
BLACK
6
CONTINUOUS
10
0.985534
20
4.12263
11
0.977384
21
4.13412
0
LINE
8
BLACK
6
CONTINUOUS
10
0.977384
20
4.13412
11
0.970571
21
4.14645
0
LINE
8
BLACK
6
CONTINUOUS
10
0.970571
20
4.14645
11
0.965181
21
4.15946
0
LINE
8
BLACK
6
CONTINUOUS
10
0.965181
20
4.15946
11
0.961281
21
4.173
0
LINE
8
BLACK
6
CONTINUOUS
10
0.961281
20
4.173
11
0.958922
21
4.18688
0
LINE
8
BLACK
6
CONTINUOUS
10
0.958922
20
4.18688
11
0.958132
21
4.20094
0
LINE
8
BLACK
6
CONTINUOUS
10
0.958132
20
4.20094
11
0.958922
21
4.21501
0
LINE
8
BLACK
6
CONTINUOUS
10
0.958922
20
4.21501
11
0.961281
21
4.22889
0
LINE
8
BLACK
6
CONTINUOUS
10
0.961281
20
4.22889
11
0.965181
21
4.24243
0
LINE
8
BLACK
6
CONTINUOUS
10
0.965181
20
4.24243
11
0.970571
21
4.25544
0
LINE
8
BLACK
6
CONTINUOUS
10
0.970571
20
4.25544
11
0.977384
21
4.26777
0
LINE
8
BLACK
6
CONTINUOUS
10
0.977384
20
4.26777
11
0.985534
21
4.27926
0
LINE
8
BLACK
6
CONTINUOUS
10
0.985534
20
4.27926
11
0.99492
21
4.28976
0
LINE
8
BLACK
6
CONTINUOUS
10
0.99492
20
4.28976
11
1.00542
21
4.29914
0
LINE
8
BLACK
6
CONTINUOUS
10
1.00542
20
4.29914
11
1.01691
21
4.30729
0
LINE
8
BLACK
6
CONTINUOUS
10
1.01691
20
4.30729
11
1.02924
21
4.31411
0
LINE
8
BLACK
6
CONTINUOUS
10
1.02924
20
4.31411
11
1.04225
21
4.3195
0
LINE
8
BLACK
6
CONTINUOUS
10
1.04225
20
4.3195
11
1.05578
21
4.3234
0
LINE
8
BLACK
6
CONTINUOUS
10
1.05578
20
4.3234
11
1.06967
21
4.32576
0
LINE
8
BLACK
6
CONTINUOUS
10
1.06967
20
4.32576
11
1.08373
21
4.32654
0
LINE
8
BLACK
6
CONTINUOUS
10
1.08373
20
4.32654
11
1.0978
21
4.32576
0
LINE
8
BLACK
6
CONTINUOUS
10
0.973694
20
4.18808
11
0.975931
21
4.1754
0
LINE
8
BLACK
6
CONTINUOUS
10
0.975931
20
4.1754
11
0.979626
21
4.16305
0
LINE
8
BLACK
6
CONTINUOUS
10
0.979626
20
4.16305
11
0.984729
21
4.15122
0
LINE
8
BLACK
6
CONTINUOUS
10
0.984729
20
4.15122
11
0.991171
21
4.14007
0
LINE
8
BLACK
6
CONTINUOUS
10
0.991171
20
4.14007
11
0.998864
21
4.12973
0
LINE
8
BLACK
6
CONTINUOUS
10
0.998864
20
4.12973
11
1.00771
21
4.12036
0
LINE
8
BLACK
6
CONTINUOUS
10
1.00771
20
4.12036
11
1.01757
21
4.11208
0
LINE
8
BLACK
6
CONTINUOUS
10
1.01757
20
4.11208
11
1.02834
21
4.105
0
LINE
8
BLACK
6
CONTINUOUS
10
1.02834
20
4.105
11
1.03985
21
4.09922
0
LINE
8
BLACK
6
CONTINUOUS
10
1.03985
20
4.09922
11
1.05196
21
4.09481
0
LINE
8
BLACK
6
CONTINUOUS
10
1.05196
20
4.09481
11
1.06449
21
4.09184
0
LINE
8
BLACK
6
CONTINUOUS
10
1.06449
20
4.09184
11
1.07729
21
4.09034
0
LINE
8
BLACK
6
CONTINUOUS
10
1.07729
20
4.09034
11
1.09017
21
4.09034
0
LINE
8
BLACK
6
CONTINUOUS
10
1.09017
20
4.09034
11
1.10297
21
4.09184
0
LINE
8
BLACK
6
CONTINUOUS
10
1.10297
20
4.09184
11
1.11551
21
4.09481
0
LINE
8
BLACK
6
CONTINUOUS
10
1.11551
20
4.09481
11
1.12761
21
4.09922
0
LINE
8
BLACK
6
CONTINUOUS
10
1.12761
20
4.09922
11
1.13913
21
4.105
0
LINE
8
BLACK
6
CONTINUOUS
10
1.13913
20
4.105
11
1.14989
21
4.11208
0
LINE
8
BLACK
6
CONTINUOUS
10
1.14989
20
4.11208
11
1.15976
21
4.12036
0
LINE
8
BLACK
6
CONTINUOUS
10
1.15976
20
4.12036
11
1.1686
21
4.12973
0
LINE
8
BLACK
6
CONTINUOUS
10
1.1686
20
4.12973
11
1.17629
21
4.14007
0
LINE
8
BLACK
6
CONTINUOUS
10
1.17629
20
4.14007
11
1.18274
21
4.15122
0
LINE
8
BLACK
6
CONTINUOUS
10
1.18274
20
4.15122
11
1.18784
21
4.16305
0
LINE
8
BLACK
6
CONTINUOUS
10
1.18784
20
4.16305
11
1.19153
21
4.1754
0
LINE
8
BLACK
6
CONTINUOUS
10
1.19153
20
4.1754
11
1.19377
21
4.18808
0
LINE
8
BLACK
6
CONTINUOUS
10
1.19377
20
4.18808
11
1.19452
21
4.20094
0
LINE
8
BLACK
6
CONTINUOUS
10
1.19452
20
4.20094
11
1.19377
21
4.21381
0
LINE
8
BLACK
6
CONTINUOUS
10
1.19377
20
4.21381
11
1.19153
21
4.22649
0
LINE
8
BLACK
6
CONTINUOUS
10
1.19153
20
4.22649
11
1.18784
21
4.23884
0
LINE
8
BLACK
6
CONTINUOUS
10
1.18784
20
4.23884
11
1.18274
21
4.25067
0
LINE
8
BLACK
6
CONTINUOUS
10
1.18274
20
4.25067
11
1.17629
21
4.26182
0
LINE
8
BLACK
6
CONTINUOUS
10
1.17629
20
4.26182
11
1.1686
21
4.27216
0
LINE
8
BLACK
6
CONTINUOUS
10
1.1686
20
4.27216
11
1.15976
21
4.28153
0
LINE
8
BLACK
6
CONTINUOUS
10
1.15976
20
4.28153
11
1.14989
21
4.28981
0
LINE
8
BLACK
6
CONTINUOUS
10
1.14989
20
4.28981
11
1.13913
21
4.29689
0
LINE
8
BLACK
6
CONTINUOUS
10
1.13913
20
4.29689
11
1.12761
21
4.30267
0
LINE
8
BLACK
6
CONTINUOUS
10
1.12761
20
4.30267
11
1.11551
21
4.30708
0
LINE
8
BLACK
6
CONTINUOUS
10
1.11551
20
4.30708
11
1.10297
21
4.31005
0
LINE
8
BLACK
6
CONTINUOUS
10
1.10297
20
4.31005
11
1.09017
21
4.31154
0
LINE
8
BLACK
6
CONTINUOUS
10
1.09017
20
4.31154
11
1.07729
21
4.31154
0
LINE
8
BLACK
6
CONTINUOUS
10
1.07729
20
4.31154
11
1.06449
21
4.31005
0
LINE
8
BLACK
6
CONTINUOUS
10
1.06449
20
4.31005
11
1.05196
21
4.30708
0
LINE
8
BLACK
6
CONTINUOUS
10
1.05196
20
4.30708
11
1.03985
21
4.30267
0
LINE
8
BLACK
6
CONTINUOUS
10
1.03985
20
4.30267
11
1.02834
21
4.29689
0
LINE
8
BLACK
6
CONTINUOUS
10
1.02834
20
4.29689
11
1.01757
21
4.28981
0
LINE
8
BLACK
6
CONTINUOUS
10
1.01757
20
4.28981
11
1.00771
21
4.28153
0
LINE
8
BLACK
6
CONTINUOUS
10
1.00771
20
4.28153
11
0.998864
21
4.27216
0
LINE
8
BLACK
6
CONTINUOUS
10
0.998864
20
4.27216
11
0.991171
21
4.26182
0
LINE
8
BLACK
6
CONTINUOUS
10
0.991171
20
4.26182
11
0.984729
21
4.25067
0
LINE
8
BLACK
6
CONTINUOUS
10
0.984729
20
4.25067
11
0.979626
21
4.23884
0
LINE
8
BLACK
6
CONTINUOUS
10
0.979626
20
4.23884
11
0.975931
21
4.22649
0
LINE
8
BLACK
6
CONTINUOUS
10
0.975931
20
4.22649
11
0.973694
21
4.21381
0
LINE
8
BLACK
6
CONTINUOUS
10
0.973694
20
4.21381
11
0.972945
21
4.20094
0
LINE
8
BLACK
6
CONTINUOUS
10
0.972945
20
4.20094
11
0.973694
21
4.18808
0
LINE
8
BLACK
6
CONTINUOUS
10
2.2978
20
4.32576
11
2.31168
21
4.3234
0
LINE
8
BLACK
6
CONTINUOUS
10
2.31168
20
4.3234
11
2.32522
21
4.3195
0
LINE
8
BLACK
6
CONTINUOUS
10
2.32522
20
4.3195
11
2.33823
21
4.31411
0
LINE
8
BLACK
6
CONTINUOUS
10
2.33823
20
4.31411
11
2.35056
21
4.30729
0
LINE
8
BLACK
6
CONTINUOUS
10
2.35056
20
4.30729
11
2.36204
21
4.29914
0
LINE
8
BLACK
6
CONTINUOUS
10
2.36204
20
4.29914
11
2.37254
21
4.28976
0
LINE
8
BLACK
6
CONTINUOUS
10
2.37254
20
4.28976
11
2.38193
21
4.27926
0
LINE
8
BLACK
6
CONTINUOUS
10
2.38193
20
4.27926
11
2.39008
21
4.26777
0
LINE
8
BLACK
6
CONTINUOUS
10
2.39008
20
4.26777
11
2.39689
21
4.25544
0
LINE
8
BLACK
6
CONTINUOUS
10
2.39689
20
4.25544
11
2.40228
21
4.24243
0
LINE
8
BLACK
6
CONTINUOUS
10
2.40228
20
4.24243
11
2.40618
21
4.22889
0
LINE
8
BLACK
6
CONTINUOUS
10
2.40618
20
4.22889
11
2.40854
21
4.21501
0
LINE
8
BLACK
6
CONTINUOUS
10
2.40854
20
4.21501
11
2.40933
21
4.20094
0
LINE
8
BLACK
6
CONTINUOUS
10
2.40933
20
4.20094
11
2.40854
21
4.18688
0
LINE
8
BLACK
6
CONTINUOUS
10
2.40854
20
4.18688
11
2.40618
21
4.173
0
LINE
8
BLACK
6
CONTINUOUS
10
2.40618
20
4.173
11
2.40228
21
4.15946
0
LINE
8
BLACK
6
CONTINUOUS
10
2.40228
20
4.15946
11
2.39689
21
4.14645
0
LINE
8
BLACK
6
CONTINUOUS
10
2.39689
20
4.14645
11
2.39008
21
4.13412
0
LINE
8
BLACK
6
CONTINUOUS
10
2.39008
20
4.13412
11
2.38193
21
4.12263
0
LINE
8
BLACK
6
CONTINUOUS
10
2.38193
20
4.12263
11
2.37254
21
4.11213
0
LINE
8
BLACK
6
CONTINUOUS
10
2.37254
20
4.11213
11
2.36204
21
4.10275
0
LINE
8
BLACK
6
CONTINUOUS
10
2.36204
20
4.10275
11
2.35056
21
4.0946
0
LINE
8
BLACK
6
CONTINUOUS
10
2.35056
20
4.0946
11
2.33823
21
4.08778
0
LINE
8
BLACK
6
CONTINUOUS
10
2.33823
20
4.08778
11
2.32522
21
4.08239
0
LINE
8
BLACK
6
CONTINUOUS
10
2.32522
20
4.08239
11
2.31168
21
4.07849
0
LINE
8
BLACK
6
CONTINUOUS
10
2.31168
20
4.07849
11
2.2978
21
4.07613
0
LINE
8
BLACK
6
CONTINUOUS
10
2.2978
20
4.07613
11
2.28373
21
4.07534
0
LINE
8
BLACK
6
CONTINUOUS
10
2.28373
20
4.07534
11
2.26967
21
4.07613
0
LINE
8
BLACK
6
CONTINUOUS
10
2.26967
20
4.07613
11
2.25578
21
4.07849
0
LINE
8
BLACK
6
CONTINUOUS
10
2.25578
20
4.07849
11
2.24225
21
4.08239
0
LINE
8
BLACK
6
CONTINUOUS
10
2.24225
20
4.08239
11
2.22924
21
4.08778
0
LINE
8
BLACK
6
CONTINUOUS
10
2.22924
20
4.08778
11
2.21691
21
4.0946
0
LINE
8
BLACK
6
CONTINUOUS
10
2.21691
20
4.0946
11
2.20542
21
4.10275
0
LINE
8
BLACK
6
CONTINUOUS
10
2.20542
20
4.10275
11
2.19492
21
4.11213
0
LINE
8
BLACK
6
CONTINUOUS
10
2.19492
20
4.11213
11
2.18553
21
4.12263
0
LINE
8
BLACK
6
CONTINUOUS
10
2.18553
20
4.12263
11
2.17738
21
4.13412
0
LINE
8
BLACK
6
CONTINUOUS
10
2.17738
20
4.13412
11
2.17057
21
4.14645
0
LINE
8
BLACK
6
CONTINUOUS
10
2.17057
20
4.14645
11
2.16518
21
4.15946
0
LINE
8
BLACK
6
CONTINUOUS
10
2.16518
20
4.15946
11
2.16128
21
4.173
0
LINE
8
BLACK
6
CONTINUOUS
10
2.16128
20
4.173
11
2.15892
21
4.18688
0
LINE
8
BLACK
6
CONTINUOUS
10
2.15892
20
4.18688
11
2.15813
21
4.20094
0
LINE
8
BLACK
6
CONTINUOUS
10
2.15813
20
4.20094
11
2.15892
21
4.21501
0
LINE
8
BLACK
6
CONTINUOUS
10
2.15892
20
4.21501
11
2.16128
21
4.22889
0
LINE
8
BLACK
6
CONTINUOUS
10
2.16128
20
4.22889
11
2.16518
21
4.24243
0
LINE
8
BLACK
6
CONTINUOUS
10
2.16518
20
4.24243
11
2.17057
21
4.25544
0
LINE
8
BLACK
6
CONTINUOUS
10
2.17057
20
4.25544
11
2.17738
21
4.26777
0
LINE
8
BLACK
6
CONTINUOUS
10
2.17738
20
4.26777
11
2.18553
21
4.27926
0
LINE
8
BLACK
6
CONTINUOUS
10
2.18553
20
4.27926
11
2.19492
21
4.28976
0
LINE
8
BLACK
6
CONTINUOUS
10
2.19492
20
4.28976
11
2.20542
21
4.29914
0
LINE
8
BLACK
6
CONTINUOUS
10
2.20542
20
4.29914
11
2.21691
21
4.30729
0
LINE
8
BLACK
6
CONTINUOUS
10
2.21691
20
4.30729
11
2.22924
21
4.31411
0
LINE
8
BLACK
6
CONTINUOUS
10
2.22924
20
4.31411
11
2.24225
21
4.3195
0
LINE
8
BLACK
6
CONTINUOUS
10
2.24225
20
4.3195
11
2.25578
21
4.3234
0
LINE
8
BLACK
6
CONTINUOUS
10
2.25578
20
4.3234
11
2.26967
21
4.32576
0
LINE
8
BLACK
6
CONTINUOUS
10
2.26967
20
4.32576
11
2.28373
21
4.32654
0
LINE
8
BLACK
6
CONTINUOUS
10
2.28373
20
4.32654
11
2.2978
21
4.32576
0
LINE
8
BLACK
6
CONTINUOUS
10
2.17369
20
4.18808
11
2.17593
21
4.1754
0
LINE
8
BLACK
6
CONTINUOUS
10
2.17593
20
4.1754
11
2.17963
21
4.16305
0
LINE
8
BLACK
6
CONTINUOUS
10
2.17963
20
4.16305
11
2.18473
21
4.15122
0
LINE
8
BLACK
6
CONTINUOUS
10
2.18473
20
4.15122
11
2.19117
21
4.14007
0
LINE
8
BLACK
6
CONTINUOUS
10
2.19117
20
4.14007
11
2.19886
21
4.12973
0
LINE
8
BLACK
6
CONTINUOUS
10
2.19886
20
4.12973
11
2.20771
21
4.12036
0
LINE
8
BLACK
6
CONTINUOUS
10
2.20771
20
4.12036
11
2.21757
21
4.11208
0
LINE
8
BLACK
6
CONTINUOUS
10
2.21757
20
4.11208
11
2.22834
21
4.105
0
LINE
8
BLACK
6
CONTINUOUS
10
2.22834
20
4.105
11
2.23985
21
4.09922
0
LINE
8
BLACK
6
CONTINUOUS
10
2.23985
20
4.09922
11
2.25196
21
4.09481
0
LINE
8
BLACK
6
CONTINUOUS
10
2.25196
20
4.09481
11
2.26449
21
4.09184
0
LINE
8
BLACK
6
CONTINUOUS
10
2.26449
20
4.09184
11
2.27729
21
4.09034
0
LINE
8
BLACK
6
CONTINUOUS
10
2.27729
20
4.09034
11
2.29017
21
4.09034
0
LINE
8
BLACK
6
CONTINUOUS
10
2.29017
20
4.09034
11
2.30297
21
4.09184
0
LINE
8
BLACK
6
CONTINUOUS
10
2.30297
20
4.09184
11
2.31551
21
4.09481
0
LINE
8
BLACK
6
CONTINUOUS
10
2.31551
20
4.09481
11
2.32761
21
4.09922
0
LINE
8
BLACK
6
CONTINUOUS
10
2.32761
20
4.09922
11
2.33913
21
4.105
0
LINE
8
BLACK
6
CONTINUOUS
10
2.33913
20
4.105
11
2.34989
21
4.11208
0
LINE
8
BLACK
6
CONTINUOUS
10
2.34989
20
4.11208
11
2.35976
21
4.12036
0
LINE
8
BLACK
6
CONTINUOUS
10
2.35976
20
4.12036
11
2.3686
21
4.12973
0
LINE
8
BLACK
6
CONTINUOUS
10
2.3686
20
4.12973
11
2.37629
21
4.14007
0
LINE
8
BLACK
6
CONTINUOUS
10
2.37629
20
4.14007
11
2.38274
21
4.15122
0
LINE
8
BLACK
6
CONTINUOUS
10
2.38274
20
4.15122
11
2.38784
21
4.16305
0
LINE
8
BLACK
6
CONTINUOUS
10
2.38784
20
4.16305
11
2.39153
21
4.1754
0
LINE
8
BLACK
6
CONTINUOUS
10
2.39153
20
4.1754
11
2.39377
21
4.18808
0
LINE
8
BLACK
6
CONTINUOUS
10
2.39377
20
4.18808
11
2.39452
21
4.20094
0
LINE
8
BLACK
6
CONTINUOUS
10
2.39452
20
4.20094
11
2.39377
21
4.21381
0
LINE
8
BLACK
6
CONTINUOUS
10
2.39377
20
4.21381
11
2.39153
21
4.22649
0
LINE
8
BLACK
6
CONTINUOUS
10
2.39153
20
4.22649
11
2.38784
21
4.23884
0
LINE
8
BLACK
6
CONTINUOUS
10
2.38784
20
4.23884
11
2.38274
21
4.25067
0
LINE
8
BLACK
6
CONTINUOUS
10
2.38274
20
4.25067
11
2.37629
21
4.26182
0
LINE
8
BLACK
6
CONTINUOUS
10
2.37629
20
4.26182
11
2.3686
21
4.27216
0
LINE
8
BLACK
6
CONTINUOUS
10
2.3686
20
4.27216
11
2.35976
21
4.28153
0
LINE
8
BLACK
6
CONTINUOUS
10
2.35976
20
4.28153
11
2.34989
21
4.28981
0
LINE
8
BLACK
6
CONTINUOUS
10
2.34989
20
4.28981
11
2.33913
21
4.29689
0
LINE
8
BLACK
6
CONTINUOUS
10
2.33913
20
4.29689
11
2.32761
21
4.30267
0
LINE
8
BLACK
6
CONTINUOUS
10
2.32761
20
4.30267
11
2.31551
21
4.30708
0
LINE
8
BLACK
6
CONTINUOUS
10
2.31551
20
4.30708
11
2.30297
21
4.31005
0
LINE
8
BLACK
6
CONTINUOUS
10
2.30297
20
4.31005
11
2.29017
21
4.31154
0
LINE
8
BLACK
6
CONTINUOUS
10
2.29017
20
4.31154
11
2.27729
21
4.31154
0
LINE
8
BLACK
6
CONTINUOUS
10
2.27729
20
4.31154
11
2.26449
21
4.31005
0
LINE
8
BLACK
6
CONTINUOUS
10
2.26449
20
4.31005
11
2.25196
21
4.30708
0
LINE
8
BLACK
6
CONTINUOUS
10
2.25196
20
4.30708
11
2.23985
21
4.30267
0
LINE
8
BLACK
6
CONTINUOUS
10
2.23985
20
4.30267
11
2.22834
21
4.29689
0
LINE
8
BLACK
6
CONTINUOUS
10
2.22834
20
4.29689
11
2.21757
21
4.28981
0
LINE
8
BLACK
6
CONTINUOUS
10
2.21757
20
4.28981
11
2.20771
21
4.28153
0
LINE
8
BLACK
6
CONTINUOUS
10
2.20771
20
4.28153
11
2.19886
21
4.27216
0
LINE
8
BLACK
6
CONTINUOUS
10
2.19886
20
4.27216
11
2.19117
21
4.26182
0
LINE
8
BLACK
6
CONTINUOUS
10
2.19117
20
4.26182
11
2.18473
21
4.25067
0
LINE
8
BLACK
6
CONTINUOUS
10
2.18473
20
4.25067
11
2.17963
21
4.23884
0
LINE
8
BLACK
6
CONTINUOUS
10
2.17963
20
4.23884
11
2.17593
21
4.22649
0
LINE
8
BLACK
6
CONTINUOUS
10
2.17593
20
4.22649
11
2.17369
21
4.21381
0
LINE
8
BLACK
6
CONTINUOUS
10
2.17369
20
4.21381
11
2.17294
21
4.20094
0
LINE
8
BLACK
6
CONTINUOUS
10
2.17294
20
4.20094
11
2.17369
21
4.18808
0
LINE
8
BLACK
6
CONTINUOUS
10
0.214063
20
5.52481
11
0.227949
21
5.52245
0
LINE
8
BLACK
6
CONTINUOUS
10
0.227949
20
5.52245
11
0.241483
21
5.51855
0
LINE
8
BLACK
6
CONTINUOUS
10
0.241483
20
5.51855
11
0.254496
21
5.51316
0
LINE
8
BLACK
6
CONTINUOUS
10
0.254496
20
5.51316
11
0.266823
21
5.50635
0
LINE
8
BLACK
6
CONTINUOUS
10
0.266823
20
5.50635
11
0.27831
21
5.4982
0
LINE
8
BLACK
6
CONTINUOUS
10
0.27831
20
5.4982
11
0.288813
21
5.48881
0
LINE
8
BLACK
6
CONTINUOUS
10
0.288813
20
5.48881
11
0.298198
21
5.47831
0
LINE
8
BLACK
6
CONTINUOUS
10
0.298198
20
5.47831
11
0.306349
21
5.46682
0
LINE
8
BLACK
6
CONTINUOUS
10
0.306349
20
5.46682
11
0.313162
21
5.4545
0
LINE
8
BLACK
6
CONTINUOUS
10
0.313162
20
5.4545
11
0.318552
21
5.44148
0
LINE
8
BLACK
6
CONTINUOUS
10
0.318552
20
5.44148
11
0.322451
21
5.42795
0
LINE
8
BLACK
6
CONTINUOUS
10
0.322451
20
5.42795
11
0.32481
21
5.41406
0
LINE
8
BLACK
6
CONTINUOUS
10
0.32481
20
5.41406
11
0.3256
21
5.4
0
LINE
8
BLACK
6
CONTINUOUS
10
0.3256
20
5.4
11
0.32481
21
5.38594
0
LINE
8
BLACK
6
CONTINUOUS
10
0.32481
20
5.38594
11
0.322451
21
5.37205
0
LINE
8
BLACK
6
CONTINUOUS
10
0.322451
20
5.37205
11
0.318552
21
5.35852
0
LINE
8
BLACK
6
CONTINUOUS
10
0.318552
20
5.35852
11
0.313162
21
5.3455
0
LINE
8
BLACK
6
CONTINUOUS
10
0.313162
20
5.3455
11
0.306349
21
5.33318
0
LINE
8
BLACK
6
CONTINUOUS
10
0.306349
20
5.33318
11
0.298198
21
5.32169
0
LINE
8
BLACK
6
CONTINUOUS
10
0.298198
20
5.32169
11
0.288813
21
5.31119
0
LINE
8
BLACK
6
CONTINUOUS
10
0.288813
20
5.31119
11
0.27831
21
5.3018
0
LINE
8
BLACK
6
CONTINUOUS
10
0.27831
20
5.3018
11
0.266823
21
5.29365
0
LINE
8
BLACK
6
CONTINUOUS
10
0.266823
20
5.29365
11
0.254496
21
5.28684
0
LINE
8
BLACK
6
CONTINUOUS
10
0.254496
20
5.28684
11
0.241483
21
5.28145
0
LINE
8
BLACK
6
CONTINUOUS
10
0.241483
20
5.28145
11
0.227949
21
5.27755
0
LINE
8
BLACK
6
CONTINUOUS
10
0.227949
20
5.27755
11
0.214063
21
5.27519
0
LINE
8
BLACK
6
CONTINUOUS
10
0.214063
20
5.27519
11
0.2
21
5.2744
0
LINE
8
BLACK
6
CONTINUOUS
10
0.2
20
5.2744
11
0.185937
21
5.27519
0
LINE
8
BLACK
6
CONTINUOUS
10
0.185937
20
5.27519
11
0.172051
21
5.27755
0
LINE
8
BLACK
6
CONTINUOUS
10
0.172051
20
5.27755
11
0.158517
21
5.28145
0
LINE
8
BLACK
6
CONTINUOUS
10
0.158517
20
5.28145
11
0.145504
21
5.28684
0
LINE
8
BLACK
6
CONTINUOUS
10
0.145504
20
5.28684
11
0.133177
21
5.29365
0
LINE
8
BLACK
6
CONTINUOUS
10
0.133177
20
5.29365
11
0.12169
21
5.3018
0
LINE
8
BLACK
6
CONTINUOUS
10
0.12169
20
5.3018
11
0.111187
21
5.31119
0
LINE
8
BLACK
6
CONTINUOUS
10
0.111187
20
5.31119
11
0.101802
21
5.32169
0
LINE
8
BLACK
6
CONTINUOUS
10
0.101802
20
5.32169
11
0.0936515
21
5.33318
0
LINE
8
BLACK
6
CONTINUOUS
10
0.0936515
20
5.33318
11
0.0868383
21
5.3455
0
LINE
8
BLACK
6
CONTINUOUS
10
0.0868383
20
5.3455
11
0.0814483
21
5.35852
0
LINE
8
BLACK
6
CONTINUOUS
10
0.0814483
20
5.35852
11
0.0775491
21
5.37205
0
LINE
8
BLACK
6
CONTINUOUS
10
0.0775491
20
5.37205
11
0.0751898
21
5.38594
0
LINE
8
BLACK
6
CONTINUOUS
10
0.0751898
20
5.38594
11
0.0744
21
5.4
0
LINE
8
BLACK
6
CONTINUOUS
10
0.0744
20
5.4
11
0.0751898
21
5.41406
0
LINE
8
BLACK
6
CONTINUOUS
10
0.0751898
20
5.41406
11
0.0775491
21
5.42795
0
LINE
8
BLACK
6
CONTINUOUS
10
0.0775491
20
5.42795
11
0.0814483
21
5.44148
0
LINE
8
BLACK
6
CONTINUOUS
10
0.0814483
20
5.44148
11
0.0868383
21
5.4545
0
LINE
8
BLACK
6
CONTINUOUS
10
0.0868383
20
5.4545
11
0.0936515
21
5.46682
0
LINE
8
BLACK
6
CONTINUOUS
10
0.0936515
20
5.46682
11
0.101802
21
5.47831
0
LINE
8
BLACK
6
CONTINUOUS
10
0.101802
20
5.47831
11
0.111187
21
5.48881
0
LINE
8
BLACK
6
CONTINUOUS
10
0.111187
20
5.48881
11
0.12169
21
5.4982
0
LINE
8
BLACK
6
CONTINUOUS
10
0.12169
20
5.4982
11
0.133177
21
5.50635
0
LINE
8
BLACK
6
CONTINUOUS
10
0.133177
20
5.50635
11
0.145504
21
5.51316
0
LINE
8
BLACK
6
CONTINUOUS
10
0.145504
20
5.51316
11
0.158517
21
5.51855
0
LINE
8
BLACK
6
CONTINUOUS
10
0.158517
20
5.51855
11
0.172051
21
5.52245
0
LINE
8
BLACK
6
CONTINUOUS
10
0.172051
20
5.52245
11
0.185937
21
5.52481
0
LINE
8
BLACK
6
CONTINUOUS
10
0.185937
20
5.52481
11
0.2
21
5.5256
0
LINE
8
BLACK
6
CONTINUOUS
10
0.2
20
5.5256
11
0.214063
21
5.52481
0
LINE
8
BLACK
6
CONTINUOUS
10
0.0899617
20
5.38714
11
0.0921989
21
5.37445
0
LINE
8
BLACK
6
CONTINUOUS
10
0.0921989
20
5.37445
11
0.0958939
21
5.36211
0
LINE
8
BLACK
6
CONTINUOUS
10
0.0958939
20
5.36211
11
0.100997
21
5.35028
0
LINE
8
BLACK
6
CONTINUOUS
10
0.100997
20
5.35028
11
0.107438
21
5.33912
0
LINE
8
BLACK
6
CONTINUOUS
10
0.107438
20
5.33912
11
0.115132
21
5.32879
0
LINE
8
BLACK
6
CONTINUOUS
10
0.115132
20
5.32879
11
0.123973
21
5.31942
0
LINE
8
BLACK
6
CONTINUOUS
10
0.123973
20
5.31942
11
0.133842
21
5.31113
0
LINE
8
BLACK
6
CONTINUOUS
10
0.133842
20
5.31113
11
0.144606
21
5.30406
0
LINE
8
BLACK
6
CONTINUOUS
10
0.144606
20
5.30406
11
0.156119
21
5.29827
0
LINE
8
BLACK
6
CONTINUOUS
10
0.156119
20
5.29827
11
0.168226
21
5.29387
0
LINE
8
BLACK
6
CONTINUOUS
10
0.168226
20
5.29387
11
0.180762
21
5.2909
0
LINE
8
BLACK
6
CONTINUOUS
10
0.180762
20
5.2909
11
0.193558
21
5.2894
0
LINE
8
BLACK
6
CONTINUOUS
10
0.193558
20
5.2894
11
0.206442
21
5.2894
0
LINE
8
BLACK
6
CONTINUOUS
10
0.206442
20
5.2894
11
0.219238
21
5.2909
0
LINE
8
BLACK
6
CONTINUOUS
10
0.219238
20
5.2909
11
0.231774
21
5.29387
0
LINE
8
BLACK
6
CONTINUOUS
10
0.231774
20
5.29387
11
0.243881
21
5.29827
0
LINE
8
BLACK
6
CONTINUOUS
10
0.243881
20
5.29827
11
0.255394
21
5.30406
0
LINE
8
BLACK
6
CONTINUOUS
10
0.255394
20
5.30406
11
0.266158
21
5.31113
0
LINE
8
BLACK
6
CONTINUOUS
10
0.266158
20
5.31113
11
0.276027
21
5.31942
0
LINE
8
BLACK
6
CONTINUOUS
10
0.276027
20
5.31942
11
0.284868
21
5.32879
0
LINE
8
BLACK
6
CONTINUOUS
10
0.284868
20
5.32879
11
0.292562
21
5.33912
0
LINE
8
BLACK
6
CONTINUOUS
10
0.292562
20
5.33912
11
0.299003
21
5.35028
0
LINE
8
BLACK
6
CONTINUOUS
10
0.299003
20
5.35028
11
0.304106
21
5.36211
0
LINE
8
BLACK
6
CONTINUOUS
10
0.304106
20
5.36211
11
0.307801
21
5.37445
0
LINE
8
BLACK
6
CONTINUOUS
10
0.307801
20
5.37445
11
0.310038
21
5.38714
0
LINE
8
BLACK
6
CONTINUOUS
10
0.310038
20
5.38714
11
0.310787
21
5.4
0
LINE
8
BLACK
6
CONTINUOUS
10
0.310787
20
5.4
11
0.310038
21
5.41286
0
LINE
8
BLACK
6
CONTINUOUS
10
0.310038
20
5.41286
11
0.307801
21
5.42555
0
LINE
8
BLACK
6
CONTINUOUS
10
0.307801
20
5.42555
11
0.304106
21
5.43789
0
LINE
8
BLACK
6
CONTINUOUS
10
0.304106
20
5.43789
11
0.299003
21
5.44972
0
LINE
8
BLACK
6
CONTINUOUS
10
0.299003
20
5.44972
11
0.292562
21
5.46088
0
LINE
8
BLACK
6
CONTINUOUS
10
0.292562
20
5.46088
11
0.284868
21
5.47121
0
LINE
8
BLACK
6
CONTINUOUS
10
0.284868
20
5.47121
11
0.276027
21
5.48058
0
LINE
8
BLACK
6
CONTINUOUS
10
0.276027
20
5.48058
11
0.266158
21
5.48887
0
LINE
8
BLACK
6
CONTINUOUS
10
0.266158
20
5.48887
11
0.255394
21
5.49594
0
LINE
8
BLACK
6
CONTINUOUS
10
0.255394
20
5.49594
11
0.243881
21
5.50173
0
LINE
8
BLACK
6
CONTINUOUS
10
0.243881
20
5.50173
11
0.231774
21
5.50613
0
LINE
8
BLACK
6
CONTINUOUS
10
0.231774
20
5.50613
11
0.219238
21
5.5091
0
LINE
8
BLACK
6
CONTINUOUS
10
0.219238
20
5.5091
11
0.206442
21
5.5106
0
LINE
8
BLACK
6
CONTINUOUS
10
0.206442
20
5.5106
11
0.193558
21
5.5106
0
LINE
8
BLACK
6
CONTINUOUS
10
0.193558
20
5.5106
11
0.180762
21
5.5091
0
LINE
8
BLACK
6
CONTINUOUS
10
0.180762
20
5.5091
11
0.168226
21
5.50613
0
LINE
8
BLACK
6
CONTINUOUS
10
0.168226
20
5.50613
11
0.156119
21
5.50173
0
LINE
8
BLACK
6
CONTINUOUS
10
0.156119
20
5.50173
11
0.144606
21
5.49594
0
LINE
8
BLACK
6
CONTINUOUS
10
0.144606
20
5.49594
11
0.133842
21
5.48887
0
LINE
8
BLACK
6
CONTINUOUS
10
0.133842
20
5.48887
11
0.123973
21
5.48058
0
LINE
8
BLACK
6
CONTINUOUS
10
0.123973
20
5.48058
11
0.115132
21
5.47121
0
LINE
8
BLACK
6
CONTINUOUS
10
0.115132
20
5.47121
11
0.107438
21
5.46088
0
LINE
8
BLACK
6
CONTINUOUS
10
0.107438
20
5.46088
11
0.100997
21
5.44972
0
LINE
8
BLACK
6
CONTINUOUS
10
0.100997
20
5.44972
11
0.0958939
21
5.43789
0
LINE
8
BLACK
6
CONTINUOUS
10
0.0958939
20
5.43789
11
0.0921989
21
5.42555
0
LINE
8
BLACK
6
CONTINUOUS
10
0.0921989
20
5.42555
11
0.0899617
21
5.41286
0
LINE
8
BLACK
6
CONTINUOUS
10
0.0899617
20
5.41286
11
0.0892126
21
5.4
0
LINE
8
BLACK
6
CONTINUOUS
10
0.0892126
20
5.4
11
0.0899617
21
5.38714
0
LINE
8
BLACK
6
CONTINUOUS
10
3.41406
20
5.52481
11
3.42795
21
5.52245
0
LINE
8
BLACK
6
CONTINUOUS
10
3.42795
20
5.52245
11
3.44148
21
5.51855
0
LINE
8
BLACK
6
CONTINUOUS
10
3.44148
20
5.51855
11
3.4545
21
5.51316
0
LINE
8
BLACK
6
CONTINUOUS
10
3.4545
20
5.51316
11
3.46682
21
5.50635
0
LINE
8
BLACK
6
CONTINUOUS
10
3.46682
20
5.50635
11
3.47831
21
5.4982
0
LINE
8
BLACK
6
CONTINUOUS
10
3.47831
20
5.4982
11
3.48881
21
5.48881
0
LINE
8
BLACK
6
CONTINUOUS
10
3.48881
20
5.48881
11
3.4982
21
5.47831
0
LINE
8
BLACK
6
CONTINUOUS
10
3.4982
20
5.47831
11
3.50635
21
5.46682
0
LINE
8
BLACK
6
CONTINUOUS
10
3.50635
20
5.46682
11
3.51316
21
5.4545
0
LINE
8
BLACK
6
CONTINUOUS
10
3.51316
20
5.4545
11
3.51855
21
5.44148
0
LINE
8
BLACK
6
CONTINUOUS
10
3.51855
20
5.44148
11
3.52245
21
5.42795
0
LINE
8
BLACK
6
CONTINUOUS
10
3.52245
20
5.42795
11
3.52481
21
5.41406
0
LINE
8
BLACK
6
CONTINUOUS
10
3.52481
20
5.41406
11
3.5256
21
5.4
0
LINE
8
BLACK
6
CONTINUOUS
10
3.5256
20
5.4
11
3.52481
21
5.38594
0
LINE
8
BLACK
6
CONTINUOUS
10
3.52481
20
5.38594
11
3.52245
21
5.37205
0
LINE
8
BLACK
6
CONTINUOUS
10
3.52245
20
5.37205
11
3.51855
21
5.35852
0
LINE
8
BLACK
6
CONTINUOUS
10
3.51855
20
5.35852
11
3.51316
21
5.3455
0
LINE
8
BLACK
6
CONTINUOUS
10
3.51316
20
5.3455
11
3.50635
21
5.33318
0
LINE
8
BLACK
6
CONTINUOUS
10
3.50635
20
5.33318
11
3.4982
21
5.32169
0
LINE
8
BLACK
6
CONTINUOUS
10
3.4982
20
5.32169
11
3.48881
21
5.31119
0
LINE
8
BLACK
6
CONTINUOUS
10
3.48881
20
5.31119
11
3.47831
21
5.3018
0
LINE
8
BLACK
6
CONTINUOUS
10
3.47831
20
5.3018
11
3.46682
21
5.29365
0
LINE
8
BLACK
6
CONTINUOUS
10
3.46682
20
5.29365
11
3.4545
21
5.28684
0
LINE
8
BLACK
6
CONTINUOUS
10
3.4545
20
5.28684
11
3.44148
21
5.28145
0
LINE
8
BLACK
6
CONTINUOUS
10
3.44148
20
5.28145
11
3.42795
21
5.27755
0
LINE
8
BLACK
6
CONTINUOUS
10
3.42795
20
5.27755
11
3.41406
21
5.27519
0
LINE
8
BLACK
6
CONTINUOUS
10
3.41406
20
5.27519
11
3.4
21
5.2744
0
LINE
8
BLACK
6
CONTINUOUS
10
3.4
20
5.2744
11
3.38594
21
5.27519
0
LINE
8
BLACK
6
CONTINUOUS
10
3.38594
20
5.27519
11
3.37205
21
5.27755
0
LINE
8
BLACK
6
CONTINUOUS
10
3.37205
20
5.27755
11
3.35852
21
5.28145
0
LINE
8
BLACK
6
CONTINUOUS
10
3.35852
20
5.28145
11
3.3455
21
5.28684
0
LINE
8
BLACK
6
CONTINUOUS
10
3.3455
20
5.28684
11
3.33318
21
5.29365
0
LINE
8
BLACK
6
CONTINUOUS
10
3.33318
20
5.29365
11
3.32169
21
5.3018
0
LINE
8
BLACK
6
CONTINUOUS
10
3.32169
20
5.3018
11
3.31119
21
5.31119
0
LINE
8
BLACK
6
CONTINUOUS
10
3.31119
20
5.31119
11
3.3018
21
5.32169
0
LINE
8
BLACK
6
CONTINUOUS
10
3.3018
20
5.32169
11
3.29365
21
5.33318
0
LINE
8
BLACK
6
CONTINUOUS
10
3.29365
20
5.33318
11
3.28684
21
5.3455
0
LINE
8
BLACK
6
CONTINUOUS
10
3.28684
20
5.3455
11
3.28145
21
5.35852
0
LINE
8
BLACK
6
CONTINUOUS
10
3.28145
20
5.35852
11
3.27755
21
5.37205
0
LINE
8
BLACK
6
CONTINUOUS
10
3.27755
20
5.37205
11
3.27519
21
5.38594
0
LINE
8
BLACK
6
CONTINUOUS
10
3.27519
20
5.38594
11
3.2744
21
5.4
0
LINE
8
BLACK
6
CONTINUOUS
10
3.2744
20
5.4
11
3.27519
21
5.41406
0
LINE
8
BLACK
6
CONTINUOUS
10
3.27519
20
5.41406
11
3.27755
21
5.42795
0
LINE
8
BLACK
6
CONTINUOUS
10
3.27755
20
5.42795
11
3.28145
21
5.44148
0
LINE
8
BLACK
6
CONTINUOUS
10
3.28145
20
5.44148
11
3.28684
21
5.4545
0
LINE
8
BLACK
6
CONTINUOUS
10
3.28684
20
5.4545
11
3.29365
21
5.46682
0
LINE
8
BLACK
6
CONTINUOUS
10
3.29365
20
5.46682
11
3.3018
21
5.47831
0
LINE
8
BLACK
6
CONTINUOUS
10
3.3018
20
5.47831
11
3.31119
21
5.48881
0
LINE
8
BLACK
6
CONTINUOUS
10
3.31119
20
5.48881
11
3.32169
21
5.4982
0
LINE
8
BLACK
6
CONTINUOUS
10
3.32169
20
5.4982
11
3.33318
21
5.50635
0
LINE
8
BLACK
6
CONTINUOUS
10
3.33318
20
5.50635
11
3.3455
21
5.51316
0
LINE
8
BLACK
6
CONTINUOUS
10
3.3455
20
5.51316
11
3.35852
21
5.51855
0
LINE
8
BLACK
6
CONTINUOUS
10
3.35852
20
5.51855
11
3.37205
21
5.52245
0
LINE
8
BLACK
6
CONTINUOUS
10
3.37205
20
5.52245
11
3.38594
21
5.52481
0
LINE
8
BLACK
6
CONTINUOUS
10
3.38594
20
5.52481
11
3.4
21
5.5256
0
LINE
8
BLACK
6
CONTINUOUS
10
3.4
20
5.5256
11
3.41406
21
5.52481
0
LINE
8
BLACK
6
CONTINUOUS
10
3.28996
20
5.38714
11
3.2922
21
5.37445
0
LINE
8
BLACK
6
CONTINUOUS
10
3.2922
20
5.37445
11
3.29589
21
5.36211
0
LINE
8
BLACK
6
CONTINUOUS
10
3.29589
20
5.36211
11
3.301
21
5.35028
0
LINE
8
BLACK
6
CONTINUOUS
10
3.301
20
5.35028
11
3.30744
21
5.33912
0
LINE
8
BLACK
6
CONTINUOUS
10
3.30744
20
5.33912
11
3.31513
21
5.32879
0
LINE
8
BLACK
6
CONTINUOUS
10
3.31513
20
5.32879
11
3.32397
21
5.31942
0
LINE
8
BLACK
6
CONTINUOUS
10
3.32397
20
5.31942
11
3.33384
21
5.31113
0
LINE
8
BLACK
6
CONTINUOUS
10
3.33384
20
5.31113
11
3.34461
21
5.30406
0
LINE
8
BLACK
6
CONTINUOUS
10
3.34461
20
5.30406
11
3.35612
21
5.29827
0
LINE
8
BLACK
6
CONTINUOUS
10
3.35612
20
5.29827
11
3.36823
21
5.29387
0
LINE
8
BLACK
6
CONTINUOUS
10
3.36823
20
5.29387
11
3.38076
21
5.2909
0
LINE
8
BLACK
6
CONTINUOUS
10
3.38076
20
5.2909
11
3.39356
21
5.2894
0
LINE
8
BLACK
6
CONTINUOUS
10
3.39356
20
5.2894
11
3.40644
21
5.2894
0
LINE
8
BLACK
6
CONTINUOUS
10
3.40644
20
5.2894
11
3.41924
21
5.2909
0
LINE
8
BLACK
6
CONTINUOUS
10
3.41924
20
5.2909
11
3.43177
21
5.29387
0
LINE
8
BLACK
6
CONTINUOUS
10
3.43177
20
5.29387
11
3.44388
21
5.29827
0
LINE
8
BLACK
6
CONTINUOUS
10
3.44388
20
5.29827
11
3.45539
21
5.30406
0
LINE
8
BLACK
6
CONTINUOUS
10
3.45539
20
5.30406
11
3.46616
21
5.31113
0
LINE
8
BLACK
6
CONTINUOUS
10
3.46616
20
5.31113
11
3.47603
21
5.31942
0
LINE
8
BLACK
6
CONTINUOUS
10
3.47603
20
5.31942
11
3.48487
21
5.32879
0
LINE
8
BLACK
6
CONTINUOUS
10
3.48487
20
5.32879
11
3.49256
21
5.33912
0
LINE
8
BLACK
6
CONTINUOUS
10
3.49256
20
5.33912
11
3.499
21
5.35028
0
LINE
8
BLACK
6
CONTINUOUS
10
3.499
20
5.35028
11
3.50411
21
5.36211
0
LINE
8
BLACK
6
CONTINUOUS
10
3.50411
20
5.36211
11
3.5078
21
5.37445
0
LINE
8
BLACK
6
CONTINUOUS
10
3.5078
20
5.37445
11
3.51004
21
5.38714
0
LINE
8
BLACK
6
CONTINUOUS
10
3.51004
20
5.38714
11
3.51079
21
5.4
0
LINE
8
BLACK
6
CONTINUOUS
10
3.51079
20
5.4
11
3.51004
21
5.41286
0
LINE
8
BLACK
6
CONTINUOUS
10
3.51004
20
5.41286
11
3.5078
21
5.42555
0
LINE
8
BLACK
6
CONTINUOUS
10
3.5078
20
5.42555
11
3.50411
21
5.43789
0
LINE
8
BLACK
6
CONTINUOUS
10
3.50411
20
5.43789
11
3.499
21
5.44972
0
LINE
8
BLACK
6
CONTINUOUS
10
3.499
20
5.44972
11
3.49256
21
5.46088
0
LINE
8
BLACK
6
CONTINUOUS
10
3.49256
20
5.46088
11
3.48487
21
5.47121
0
LINE
8
BLACK
6
CONTINUOUS
10
3.48487
20
5.47121
11
3.47603
21
5.48058
0
LINE
8
BLACK
6
CONTINUOUS
10
3.47603
20
5.48058
11
3.46616
21
5.48887
0
LINE
8
BLACK
6
CONTINUOUS
10
3.46616
20
5.48887
11
3.45539
21
5.49594
0
LINE
8
BLACK
6
CONTINUOUS
10
3.45539
20
5.49594
11
3.44388
21
5.50173
0
LINE
8
BLACK
6
CONTINUOUS
10
3.44388
20
5.50173
11
3.43177
21
5.50613
0
LINE
8
BLACK
6
CONTINUOUS
10
3.43177
20
5.50613
11
3.41924
21
5.5091
0
LINE
8
BLACK
6
CONTINUOUS
10
3.41924
20
5.5091
11
3.40644
21
5.5106
0
LINE
8
BLACK
6
CONTINUOUS
10
3.40644
20
5.5106
11
3.39356
21
5.5106
0
LINE
8
BLACK
6
CONTINUOUS
10
3.39356
20
5.5106
11
3.38076
21
5.5091
0
LINE
8
BLACK
6
CONTINUOUS
10
3.38076
20
5.5091
11
3.36823
21
5.50613
0
LINE
8
BLACK
6
CONTINUOUS
10
3.36823
20
5.50613
11
3.35612
21
5.50173
0
LINE
8
BLACK
6
CONTINUOUS
10
3.35612
20
5.50173
11
3.34461
21
5.49594
0
LINE
8
BLACK
6
CONTINUOUS
10
3.34461
20
5.49594
11
3.33384
21
5.48887
0
LINE
8
BLACK
6
CONTINUOUS
10
3.33384
20
5.48887
11
3.32397
21
5.48058
0
LINE
8
BLACK
6
CONTINUOUS
10
3.32397
20
5.48058
11
3.31513
21
5.47121
0
LINE
8
BLACK
6
CONTINUOUS
10
3.31513
20
5.47121
11
3.30744
21
5.46088
0
LINE
8
BLACK
6
CONTINUOUS
10
3.30744
20
5.46088
11
3.301
21
5.44972
0
LINE
8
BLACK
6
CONTINUOUS
10
3.301
20
5.44972
11
3.29589
21
5.43789
0
LINE
8
BLACK
6
CONTINUOUS
10
3.29589
20
5.43789
11
3.2922
21
5.42555
0
LINE
8
BLACK
6
CONTINUOUS
10
3.2922
20
5.42555
11
3.28996
21
5.41286
0
LINE
8
BLACK
6
CONTINUOUS
10
3.28996
20
5.41286
11
3.28921
21
5.4
0
LINE
8
BLACK
6
CONTINUOUS
10
3.28921
20
5.4
11
3.28996
21
5.38714
  0
ENDSEC
  0
EOF
