  0
SECTION
  2
HEADER
  9
$ANGBASE
  50
0.0
  9
$ANGDIR
  70
1
  9
$MEASUREMENT
  70
0
  0
ENDSEC
  0
SECTION
  2
TABLES
  0
TABLE
  2
LTYPE
  70
4
  0
LTYPE
  5
40F
  2
CONTINUOUS
  70
0
  3
Solid line
  72
65
  73
0
  40
0.0
  0
LTYPE
  5
410
  2
DASHDOT
 70
0
  3
Dash Dot ____ _ ____ _
 72
65
 73
4
 40
2.0
 49
1.25
 49
-0.25
 49
0.25
 49
-0.25
  0
LTYPE
  5
411
  2
DASHED
 70
0
  3
Dashed __ __ __ __ __
 72
65
 73
2
 40
0.75
 49
0.5
 49
-0.25
  0
LTYPE
  5
43B
  2
DOTTED
 70
0
  3
Dotted .  .  .  .
 72
65
 73
2
 40
0.2
 49
0.0
 49
-0.2
  0
ENDTAB
  0
TABLE
  2
STYLE
  70
4
  0
STYLE
  2
KICAD
  70
0
  40
0
  41
1
  42
1
  50
0
  71
0
  3
isocp.shx
  0
STYLE
  2
KICADB
  70
0
  40
0
  41
1
  42
1
  50
0
  71
0
  3
isocp.shx
  0
STYLE
  2
KICADI
  70
0
  40
0
  41
1
  42
1
  50
15
  71
0
  3
isocp.shx
  0
STYLE
  2
KICADBI
  70
0
  40
0
  41
1
  42
1
  50
15
  71
0
  3
isocp.shx
  0
ENDTAB
  0
TABLE
  2
LAYER
  70
1
  0
LAYER
  2
BLACK
  70
0
  62
7
  6
CONTINUOUS
  0
ENDTAB
  0
ENDSEC
  0
SECTION
  2
ENTITIES
0
LINE
8
BLACK
6
CONTINUOUS
10
0.22051
20
0.316316
11
0.233874
21
0.313148
0
LINE
8
BLACK
6
CONTINUOUS
10
0.233874
20
0.313148
11
0.246781
21
0.308451
0
LINE
8
BLACK
6
CONTINUOUS
10
0.246781
20
0.308451
11
0.259055
21
0.302286
0
LINE
8
BLACK
6
CONTINUOUS
10
0.259055
20
0.302286
11
0.270531
21
0.294739
0
LINE
8
BLACK
6
CONTINUOUS
10
0.270531
20
0.294739
11
0.281052
21
0.28591
0
LINE
8
BLACK
6
CONTINUOUS
10
0.281052
20
0.28591
11
0.290478
21
0.27592
0
LINE
8
BLACK
6
CONTINUOUS
10
0.290478
20
0.27592
11
0.29868
21
0.264903
0
LINE
8
BLACK
6
CONTINUOUS
10
0.29868
20
0.264903
11
0.305547
21
0.253008
0
LINE
8
BLACK
6
CONTINUOUS
10
0.305547
20
0.253008
11
0.310987
21
0.240396
0
LINE
8
BLACK
6
CONTINUOUS
10
0.310987
20
0.240396
11
0.314927
21
0.227238
0
LINE
8
BLACK
6
CONTINUOUS
10
0.314927
20
0.227238
11
0.317312
21
0.213712
0
LINE
8
BLACK
6
CONTINUOUS
10
0.317312
20
0.213712
11
0.31811
21
0.2
0
LINE
8
BLACK
6
CONTINUOUS
10
0.31811
20
0.2
11
0.317312
21
0.186288
0
LINE
8
BLACK
6
CONTINUOUS
10
0.317312
20
0.186288
11
0.314927
21
0.172762
0
LINE
8
BLACK
6
CONTINUOUS
10
0.314927
20
0.172762
11
0.310987
21
0.159604
0
LINE
8
BLACK
6
CONTINUOUS
10
0.310987
20
0.159604
11
0.305547
21
0.146992
0
LINE
8
BLACK
6
CONTINUOUS
10
0.305547
20
0.146992
11
0.29868
21
0.135097
0
LINE
8
BLACK
6
CONTINUOUS
10
0.29868
20
0.135097
11
0.290478
21
0.12408
0
LINE
8
BLACK
6
CONTINUOUS
10
0.290478
20
0.12408
11
0.281052
21
0.11409
0
LINE
8
BLACK
6
CONTINUOUS
10
0.281052
20
0.11409
11
0.270531
21
0.105261
0
LINE
8
BLACK
6
CONTINUOUS
10
0.270531
20
0.105261
11
0.259055
21
0.0977135
0
LINE
8
BLACK
6
CONTINUOUS
10
0.259055
20
0.0977135
11
0.246781
21
0.0915493
0
LINE
8
BLACK
6
CONTINUOUS
10
0.246781
20
0.0915493
11
0.233874
21
0.0868516
0
LINE
8
BLACK
6
CONTINUOUS
10
0.233874
20
0.0868516
11
0.22051
21
0.0836841
0
LINE
8
BLACK
6
CONTINUOUS
10
0.22051
20
0.0836841
11
0.206867
21
0.0820896
0
LINE
8
BLACK
6
CONTINUOUS
10
0.206867
20
0.0820896
11
0.193133
21
0.0820896
0
LINE
8
BLACK
6
CONTINUOUS
10
0.193133
20
0.0820896
11
0.17949
21
0.0836841
0
LINE
8
BLACK
6
CONTINUOUS
10
0.17949
20
0.0836841
11
0.166126
21
0.0868516
0
LINE
8
BLACK
6
CONTINUOUS
10
0.166126
20
0.0868516
11
0.153219
21
0.0915493
0
LINE
8
BLACK
6
CONTINUOUS
10
0.153219
20
0.0915493
11
0.140945
21
0.0977135
0
LINE
8
BLACK
6
CONTINUOUS
10
0.140945
20
0.0977135
11
0.129469
21
0.105261
0
LINE
8
BLACK
6
CONTINUOUS
10
0.129469
20
0.105261
11
0.118948
21
0.11409
0
LINE
8
BLACK
6
CONTINUOUS
10
0.118948
20
0.11409
11
0.109522
21
0.12408
0
LINE
8
BLACK
6
CONTINUOUS
10
0.109522
20
0.12408
11
0.10132
21
0.135097
0
LINE
8
BLACK
6
CONTINUOUS
10
0.10132
20
0.135097
11
0.0944528
21
0.146992
0
LINE
8
BLACK
6
CONTINUOUS
10
0.0944528
20
0.146992
11
0.0890127
21
0.159604
0
LINE
8
BLACK
6
CONTINUOUS
10
0.0890127
20
0.159604
11
0.0850734
21
0.172762
0
LINE
8
BLACK
6
CONTINUOUS
10
0.0850734
20
0.172762
11
0.0826884
21
0.186288
0
LINE
8
BLACK
6
CONTINUOUS
10
0.0826884
20
0.186288
11
0.0818898
21
0.2
0
LINE
8
BLACK
6
CONTINUOUS
10
0.0818898
20
0.2
11
0.0826884
21
0.213712
0
LINE
8
BLACK
6
CONTINUOUS
10
0.0826884
20
0.213712
11
0.0850734
21
0.227238
0
LINE
8
BLACK
6
CONTINUOUS
10
0.0850734
20
0.227238
11
0.0890127
21
0.240396
0
LINE
8
BLACK
6
CONTINUOUS
10
0.0890127
20
0.240396
11
0.0944528
21
0.253008
0
LINE
8
BLACK
6
CONTINUOUS
10
0.0944528
20
0.253008
11
0.10132
21
0.264903
0
LINE
8
BLACK
6
CONTINUOUS
10
0.10132
20
0.264903
11
0.109522
21
0.27592
0
LINE
8
BLACK
6
CONTINUOUS
10
0.109522
20
0.27592
11
0.118948
21
0.28591
0
LINE
8
BLACK
6
CONTINUOUS
10
0.118948
20
0.28591
11
0.129469
21
0.294739
0
LINE
8
BLACK
6
CONTINUOUS
10
0.129469
20
0.294739
11
0.140945
21
0.302286
0
LINE
8
BLACK
6
CONTINUOUS
10
0.140945
20
0.302286
11
0.153219
21
0.308451
0
LINE
8
BLACK
6
CONTINUOUS
10
0.153219
20
0.308451
11
0.166126
21
0.313148
0
LINE
8
BLACK
6
CONTINUOUS
10
0.166126
20
0.313148
11
0.17949
21
0.316316
0
LINE
8
BLACK
6
CONTINUOUS
10
0.17949
20
0.316316
11
0.193133
21
0.31791
0
LINE
8
BLACK
6
CONTINUOUS
10
0.193133
20
0.31791
11
0.206867
21
0.31791
0
LINE
8
BLACK
6
CONTINUOUS
10
0.206867
20
0.31791
11
0.22051
21
0.316316
0
LINE
8
BLACK
6
CONTINUOUS
10
3.42051
20
0.316316
11
3.43387
21
0.313148
0
LINE
8
BLACK
6
CONTINUOUS
10
3.43387
20
0.313148
11
3.44678
21
0.308451
0
LINE
8
BLACK
6
CONTINUOUS
10
3.44678
20
0.308451
11
3.45906
21
0.302286
0
LINE
8
BLACK
6
CONTINUOUS
10
3.45906
20
0.302286
11
3.47053
21
0.294739
0
LINE
8
BLACK
6
CONTINUOUS
10
3.47053
20
0.294739
11
3.48105
21
0.28591
0
LINE
8
BLACK
6
CONTINUOUS
10
3.48105
20
0.28591
11
3.49048
21
0.27592
0
LINE
8
BLACK
6
CONTINUOUS
10
3.49048
20
0.27592
11
3.49868
21
0.264903
0
LINE
8
BLACK
6
CONTINUOUS
10
3.49868
20
0.264903
11
3.50555
21
0.253008
0
LINE
8
BLACK
6
CONTINUOUS
10
3.50555
20
0.253008
11
3.51099
21
0.240396
0
LINE
8
BLACK
6
CONTINUOUS
10
3.51099
20
0.240396
11
3.51493
21
0.227238
0
LINE
8
BLACK
6
CONTINUOUS
10
3.51493
20
0.227238
11
3.51731
21
0.213712
0
LINE
8
BLACK
6
CONTINUOUS
10
3.51731
20
0.213712
11
3.51811
21
0.2
0
LINE
8
BLACK
6
CONTINUOUS
10
3.51811
20
0.2
11
3.51731
21
0.186288
0
LINE
8
BLACK
6
CONTINUOUS
10
3.51731
20
0.186288
11
3.51493
21
0.172762
0
LINE
8
BLACK
6
CONTINUOUS
10
3.51493
20
0.172762
11
3.51099
21
0.159604
0
LINE
8
BLACK
6
CONTINUOUS
10
3.51099
20
0.159604
11
3.50555
21
0.146992
0
LINE
8
BLACK
6
CONTINUOUS
10
3.50555
20
0.146992
11
3.49868
21
0.135097
0
LINE
8
BLACK
6
CONTINUOUS
10
3.49868
20
0.135097
11
3.49048
21
0.12408
0
LINE
8
BLACK
6
CONTINUOUS
10
3.49048
20
0.12408
11
3.48105
21
0.11409
0
LINE
8
BLACK
6
CONTINUOUS
10
3.48105
20
0.11409
11
3.47053
21
0.105261
0
LINE
8
BLACK
6
CONTINUOUS
10
3.47053
20
0.105261
11
3.45906
21
0.0977135
0
LINE
8
BLACK
6
CONTINUOUS
10
3.45906
20
0.0977135
11
3.44678
21
0.0915493
0
LINE
8
BLACK
6
CONTINUOUS
10
3.44678
20
0.0915493
11
3.43387
21
0.0868516
0
LINE
8
BLACK
6
CONTINUOUS
10
3.43387
20
0.0868516
11
3.42051
21
0.0836841
0
LINE
8
BLACK
6
CONTINUOUS
10
3.42051
20
0.0836841
11
3.40687
21
0.0820896
0
LINE
8
BLACK
6
CONTINUOUS
10
3.40687
20
0.0820896
11
3.39313
21
0.0820896
0
LINE
8
BLACK
6
CONTINUOUS
10
3.39313
20
0.0820896
11
3.37949
21
0.0836841
0
LINE
8
BLACK
6
CONTINUOUS
10
3.37949
20
0.0836841
11
3.36613
21
0.0868516
0
LINE
8
BLACK
6
CONTINUOUS
10
3.36613
20
0.0868516
11
3.35322
21
0.0915493
0
LINE
8
BLACK
6
CONTINUOUS
10
3.35322
20
0.0915493
11
3.34094
21
0.0977135
0
LINE
8
BLACK
6
CONTINUOUS
10
3.34094
20
0.0977135
11
3.32947
21
0.105261
0
LINE
8
BLACK
6
CONTINUOUS
10
3.32947
20
0.105261
11
3.31895
21
0.11409
0
LINE
8
BLACK
6
CONTINUOUS
10
3.31895
20
0.11409
11
3.30952
21
0.12408
0
LINE
8
BLACK
6
CONTINUOUS
10
3.30952
20
0.12408
11
3.30132
21
0.135097
0
LINE
8
BLACK
6
CONTINUOUS
10
3.30132
20
0.135097
11
3.29445
21
0.146992
0
LINE
8
BLACK
6
CONTINUOUS
10
3.29445
20
0.146992
11
3.28901
21
0.159604
0
LINE
8
BLACK
6
CONTINUOUS
10
3.28901
20
0.159604
11
3.28507
21
0.172762
0
LINE
8
BLACK
6
CONTINUOUS
10
3.28507
20
0.172762
11
3.28269
21
0.186288
0
LINE
8
BLACK
6
CONTINUOUS
10
3.28269
20
0.186288
11
3.28189
21
0.2
0
LINE
8
BLACK
6
CONTINUOUS
10
3.28189
20
0.2
11
3.28269
21
0.213712
0
LINE
8
BLACK
6
CONTINUOUS
10
3.28269
20
0.213712
11
3.28507
21
0.227238
0
LINE
8
BLACK
6
CONTINUOUS
10
3.28507
20
0.227238
11
3.28901
21
0.240396
0
LINE
8
BLACK
6
CONTINUOUS
10
3.28901
20
0.240396
11
3.29445
21
0.253008
0
LINE
8
BLACK
6
CONTINUOUS
10
3.29445
20
0.253008
11
3.30132
21
0.264903
0
LINE
8
BLACK
6
CONTINUOUS
10
3.30132
20
0.264903
11
3.30952
21
0.27592
0
LINE
8
BLACK
6
CONTINUOUS
10
3.30952
20
0.27592
11
3.31895
21
0.28591
0
LINE
8
BLACK
6
CONTINUOUS
10
3.31895
20
0.28591
11
3.32947
21
0.294739
0
LINE
8
BLACK
6
CONTINUOUS
10
3.32947
20
0.294739
11
3.34094
21
0.302286
0
LINE
8
BLACK
6
CONTINUOUS
10
3.34094
20
0.302286
11
3.35322
21
0.308451
0
LINE
8
BLACK
6
CONTINUOUS
10
3.35322
20
0.308451
11
3.36613
21
0.313148
0
LINE
8
BLACK
6
CONTINUOUS
10
3.36613
20
0.313148
11
3.37949
21
0.316316
0
LINE
8
BLACK
6
CONTINUOUS
10
3.37949
20
0.316316
11
3.39313
21
0.31791
0
LINE
8
BLACK
6
CONTINUOUS
10
3.39313
20
0.31791
11
3.40687
21
0.31791
0
LINE
8
BLACK
6
CONTINUOUS
10
3.40687
20
0.31791
11
3.42051
21
0.316316
0
LINE
8
BLACK
6
CONTINUOUS
10
0.522
20
0.112
11
0.462
21
0.112
0
LINE
8
BLACK
6
CONTINUOUS
10
0.462
20
0.112
11
0.462
21
0.172
0
LINE
8
BLACK
6
CONTINUOUS
10
0.462
20
0.172
11
0.522
21
0.172
0
LINE
8
BLACK
6
CONTINUOUS
10
0.522
20
0.172
11
0.522
21
0.112
0
LINE
8
BLACK
6
CONTINUOUS
10
0.622
20
0.112
11
0.562
21
0.112
0
LINE
8
BLACK
6
CONTINUOUS
10
0.562
20
0.112
11
0.562
21
0.172
0
LINE
8
BLACK
6
CONTINUOUS
10
0.562
20
0.172
11
0.622
21
0.172
0
LINE
8
BLACK
6
CONTINUOUS
10
0.622
20
0.172
11
0.622
21
0.112
0
LINE
8
BLACK
6
CONTINUOUS
10
0.722
20
0.112
11
0.662
21
0.112
0
LINE
8
BLACK
6
CONTINUOUS
10
0.662
20
0.112
11
0.662
21
0.172
0
LINE
8
BLACK
6
CONTINUOUS
10
0.662
20
0.172
11
0.722
21
0.172
0
LINE
8
BLACK
6
CONTINUOUS
10
0.722
20
0.172
11
0.722
21
0.112
0
LINE
8
BLACK
6
CONTINUOUS
10
0.822
20
0.112
11
0.762
21
0.112
0
LINE
8
BLACK
6
CONTINUOUS
10
0.762
20
0.112
11
0.762
21
0.172
0
LINE
8
BLACK
6
CONTINUOUS
10
0.762
20
0.172
11
0.822
21
0.172
0
LINE
8
BLACK
6
CONTINUOUS
10
0.822
20
0.172
11
0.822
21
0.112
0
LINE
8
BLACK
6
CONTINUOUS
10
1.152
20
0.112
11
1.092
21
0.112
0
LINE
8
BLACK
6
CONTINUOUS
10
1.092
20
0.112
11
1.092
21
0.172
0
LINE
8
BLACK
6
CONTINUOUS
10
1.092
20
0.172
11
1.152
21
0.172
0
LINE
8
BLACK
6
CONTINUOUS
10
1.152
20
0.172
11
1.152
21
0.112
0
LINE
8
BLACK
6
CONTINUOUS
10
1.252
20
0.112
11
1.192
21
0.112
0
LINE
8
BLACK
6
CONTINUOUS
10
1.192
20
0.112
11
1.192
21
0.172
0
LINE
8
BLACK
6
CONTINUOUS
10
1.192
20
0.172
11
1.252
21
0.172
0
LINE
8
BLACK
6
CONTINUOUS
10
1.252
20
0.172
11
1.252
21
0.112
0
LINE
8
BLACK
6
CONTINUOUS
10
1.352
20
0.112
11
1.292
21
0.112
0
LINE
8
BLACK
6
CONTINUOUS
10
1.292
20
0.112
11
1.292
21
0.172
0
LINE
8
BLACK
6
CONTINUOUS
10
1.292
20
0.172
11
1.352
21
0.172
0
LINE
8
BLACK
6
CONTINUOUS
10
1.352
20
0.172
11
1.352
21
0.112
0
LINE
8
BLACK
6
CONTINUOUS
10
1.45
20
0.112
11
1.39
21
0.112
0
LINE
8
BLACK
6
CONTINUOUS
10
1.39
20
0.112
11
1.39
21
0.172
0
LINE
8
BLACK
6
CONTINUOUS
10
1.39
20
0.172
11
1.45
21
0.172
0
LINE
8
BLACK
6
CONTINUOUS
10
1.45
20
0.172
11
1.45
21
0.112
0
LINE
8
BLACK
6
CONTINUOUS
10
1.55
20
0.112
11
1.49
21
0.112
0
LINE
8
BLACK
6
CONTINUOUS
10
1.49
20
0.112
11
1.49
21
0.172
0
LINE
8
BLACK
6
CONTINUOUS
10
1.49
20
0.172
11
1.55
21
0.172
0
LINE
8
BLACK
6
CONTINUOUS
10
1.55
20
0.172
11
1.55
21
0.112
0
LINE
8
BLACK
6
CONTINUOUS
10
0.522
20
0.212
11
0.462
21
0.212
0
LINE
8
BLACK
6
CONTINUOUS
10
0.462
20
0.212
11
0.462
21
0.272
0
LINE
8
BLACK
6
CONTINUOUS
10
0.462
20
0.272
11
0.522
21
0.272
0
LINE
8
BLACK
6
CONTINUOUS
10
0.522
20
0.272
11
0.522
21
0.212
0
LINE
8
BLACK
6
CONTINUOUS
10
0.622
20
0.212
11
0.562
21
0.212
0
LINE
8
BLACK
6
CONTINUOUS
10
0.562
20
0.212
11
0.562
21
0.272
0
LINE
8
BLACK
6
CONTINUOUS
10
0.562
20
0.272
11
0.622
21
0.272
0
LINE
8
BLACK
6
CONTINUOUS
10
0.622
20
0.272
11
0.622
21
0.212
0
LINE
8
BLACK
6
CONTINUOUS
10
0.722
20
0.212
11
0.662
21
0.212
0
LINE
8
BLACK
6
CONTINUOUS
10
0.662
20
0.212
11
0.662
21
0.272
0
LINE
8
BLACK
6
CONTINUOUS
10
0.662
20
0.272
11
0.722
21
0.272
0
LINE
8
BLACK
6
CONTINUOUS
10
0.722
20
0.272
11
0.722
21
0.212
0
LINE
8
BLACK
6
CONTINUOUS
10
0.822
20
0.212
11
0.762
21
0.212
0
LINE
8
BLACK
6
CONTINUOUS
10
0.762
20
0.212
11
0.762
21
0.272
0
LINE
8
BLACK
6
CONTINUOUS
10
0.762
20
0.272
11
0.822
21
0.272
0
LINE
8
BLACK
6
CONTINUOUS
10
0.822
20
0.272
11
0.822
21
0.212
0
LINE
8
BLACK
6
CONTINUOUS
10
1.152
20
0.212
11
1.092
21
0.212
0
LINE
8
BLACK
6
CONTINUOUS
10
1.092
20
0.212
11
1.092
21
0.272
0
LINE
8
BLACK
6
CONTINUOUS
10
1.092
20
0.272
11
1.152
21
0.272
0
LINE
8
BLACK
6
CONTINUOUS
10
1.152
20
0.272
11
1.152
21
0.212
0
LINE
8
BLACK
6
CONTINUOUS
10
1.252
20
0.212
11
1.192
21
0.212
0
LINE
8
BLACK
6
CONTINUOUS
10
1.192
20
0.212
11
1.192
21
0.272
0
LINE
8
BLACK
6
CONTINUOUS
10
1.192
20
0.272
11
1.252
21
0.272
0
LINE
8
BLACK
6
CONTINUOUS
10
1.252
20
0.272
11
1.252
21
0.212
0
LINE
8
BLACK
6
CONTINUOUS
10
1.352
20
0.212
11
1.292
21
0.212
0
LINE
8
BLACK
6
CONTINUOUS
10
1.292
20
0.212
11
1.292
21
0.272
0
LINE
8
BLACK
6
CONTINUOUS
10
1.292
20
0.272
11
1.352
21
0.272
0
LINE
8
BLACK
6
CONTINUOUS
10
1.352
20
0.272
11
1.352
21
0.212
0
LINE
8
BLACK
6
CONTINUOUS
10
1.45
20
0.212
11
1.39
21
0.212
0
LINE
8
BLACK
6
CONTINUOUS
10
1.39
20
0.212
11
1.39
21
0.272
0
LINE
8
BLACK
6
CONTINUOUS
10
1.39
20
0.272
11
1.45
21
0.272
0
LINE
8
BLACK
6
CONTINUOUS
10
1.45
20
0.272
11
1.45
21
0.212
0
LINE
8
BLACK
6
CONTINUOUS
10
1.55
20
0.212
11
1.49
21
0.212
0
LINE
8
BLACK
6
CONTINUOUS
10
1.49
20
0.212
11
1.49
21
0.272
0
LINE
8
BLACK
6
CONTINUOUS
10
1.49
20
0.272
11
1.55
21
0.272
0
LINE
8
BLACK
6
CONTINUOUS
10
1.55
20
0.272
11
1.55
21
0.212
0
LINE
8
BLACK
6
CONTINUOUS
10
1.40368
20
0.730614
11
1.41107
21
0.728373
0
LINE
8
BLACK
6
CONTINUOUS
10
1.41107
20
0.728373
11
1.41787
21
0.724735
0
LINE
8
BLACK
6
CONTINUOUS
10
1.41787
20
0.724735
11
1.42384
21
0.719839
0
LINE
8
BLACK
6
CONTINUOUS
10
1.42384
20
0.719839
11
1.42874
21
0.713873
0
LINE
8
BLACK
6
CONTINUOUS
10
1.42874
20
0.713873
11
1.43237
21
0.707066
0
LINE
8
BLACK
6
CONTINUOUS
10
1.43237
20
0.707066
11
1.43461
21
0.699681
0
LINE
8
BLACK
6
CONTINUOUS
10
1.43461
20
0.699681
11
1.43537
21
0.692
0
LINE
8
BLACK
6
CONTINUOUS
10
1.43537
20
0.692
11
1.43461
21
0.684319
0
LINE
8
BLACK
6
CONTINUOUS
10
1.43461
20
0.684319
11
1.43237
21
0.676934
0
LINE
8
BLACK
6
CONTINUOUS
10
1.43237
20
0.676934
11
1.42874
21
0.670127
0
LINE
8
BLACK
6
CONTINUOUS
10
1.42874
20
0.670127
11
1.42384
21
0.664161
0
LINE
8
BLACK
6
CONTINUOUS
10
1.42384
20
0.664161
11
1.41787
21
0.659265
0
LINE
8
BLACK
6
CONTINUOUS
10
1.41787
20
0.659265
11
1.41107
21
0.655627
0
LINE
8
BLACK
6
CONTINUOUS
10
1.41107
20
0.655627
11
1.40368
21
0.653386
0
LINE
8
BLACK
6
CONTINUOUS
10
1.40368
20
0.653386
11
1.396
21
0.65263
0
LINE
8
BLACK
6
CONTINUOUS
10
1.396
20
0.65263
11
1.38832
21
0.653386
0
LINE
8
BLACK
6
CONTINUOUS
10
1.38832
20
0.653386
11
1.38093
21
0.655627
0
LINE
8
BLACK
6
CONTINUOUS
10
1.38093
20
0.655627
11
1.37413
21
0.659265
0
LINE
8
BLACK
6
CONTINUOUS
10
1.37413
20
0.659265
11
1.36816
21
0.664161
0
LINE
8
BLACK
6
CONTINUOUS
10
1.36816
20
0.664161
11
1.36326
21
0.670127
0
LINE
8
BLACK
6
CONTINUOUS
10
1.36326
20
0.670127
11
1.35963
21
0.676934
0
LINE
8
BLACK
6
CONTINUOUS
10
1.35963
20
0.676934
11
1.35739
21
0.684319
0
LINE
8
BLACK
6
CONTINUOUS
10
1.35739
20
0.684319
11
1.35663
21
0.692
0
LINE
8
BLACK
6
CONTINUOUS
10
1.35663
20
0.692
11
1.35739
21
0.699681
0
LINE
8
BLACK
6
CONTINUOUS
10
1.35739
20
0.699681
11
1.35963
21
0.707066
0
LINE
8
BLACK
6
CONTINUOUS
10
1.35963
20
0.707066
11
1.36326
21
0.713873
0
LINE
8
BLACK
6
CONTINUOUS
10
1.36326
20
0.713873
11
1.36816
21
0.719839
0
LINE
8
BLACK
6
CONTINUOUS
10
1.36816
20
0.719839
11
1.37413
21
0.724735
0
LINE
8
BLACK
6
CONTINUOUS
10
1.37413
20
0.724735
11
1.38093
21
0.728373
0
LINE
8
BLACK
6
CONTINUOUS
10
1.38093
20
0.728373
11
1.38832
21
0.730614
0
LINE
8
BLACK
6
CONTINUOUS
10
1.38832
20
0.730614
11
1.396
21
0.73137
0
LINE
8
BLACK
6
CONTINUOUS
10
1.396
20
0.73137
11
1.40368
21
0.730614
0
LINE
8
BLACK
6
CONTINUOUS
10
1.60368
20
0.730614
11
1.61107
21
0.728373
0
LINE
8
BLACK
6
CONTINUOUS
10
1.61107
20
0.728373
11
1.61787
21
0.724735
0
LINE
8
BLACK
6
CONTINUOUS
10
1.61787
20
0.724735
11
1.62384
21
0.719839
0
LINE
8
BLACK
6
CONTINUOUS
10
1.62384
20
0.719839
11
1.62874
21
0.713873
0
LINE
8
BLACK
6
CONTINUOUS
10
1.62874
20
0.713873
11
1.63237
21
0.707066
0
LINE
8
BLACK
6
CONTINUOUS
10
1.63237
20
0.707066
11
1.63461
21
0.699681
0
LINE
8
BLACK
6
CONTINUOUS
10
1.63461
20
0.699681
11
1.63537
21
0.692
0
LINE
8
BLACK
6
CONTINUOUS
10
1.63537
20
0.692
11
1.63461
21
0.684319
0
LINE
8
BLACK
6
CONTINUOUS
10
1.63461
20
0.684319
11
1.63237
21
0.676934
0
LINE
8
BLACK
6
CONTINUOUS
10
1.63237
20
0.676934
11
1.62874
21
0.670127
0
LINE
8
BLACK
6
CONTINUOUS
10
1.62874
20
0.670127
11
1.62384
21
0.664161
0
LINE
8
BLACK
6
CONTINUOUS
10
1.62384
20
0.664161
11
1.61787
21
0.659265
0
LINE
8
BLACK
6
CONTINUOUS
10
1.61787
20
0.659265
11
1.61107
21
0.655627
0
LINE
8
BLACK
6
CONTINUOUS
10
1.61107
20
0.655627
11
1.60368
21
0.653386
0
LINE
8
BLACK
6
CONTINUOUS
10
1.60368
20
0.653386
11
1.596
21
0.65263
0
LINE
8
BLACK
6
CONTINUOUS
10
1.596
20
0.65263
11
1.58832
21
0.653386
0
LINE
8
BLACK
6
CONTINUOUS
10
1.58832
20
0.653386
11
1.58093
21
0.655627
0
LINE
8
BLACK
6
CONTINUOUS
10
1.58093
20
0.655627
11
1.57413
21
0.659265
0
LINE
8
BLACK
6
CONTINUOUS
10
1.57413
20
0.659265
11
1.56816
21
0.664161
0
LINE
8
BLACK
6
CONTINUOUS
10
1.56816
20
0.664161
11
1.56326
21
0.670127
0
LINE
8
BLACK
6
CONTINUOUS
10
1.56326
20
0.670127
11
1.55963
21
0.676934
0
LINE
8
BLACK
6
CONTINUOUS
10
1.55963
20
0.676934
11
1.55739
21
0.684319
0
LINE
8
BLACK
6
CONTINUOUS
10
1.55739
20
0.684319
11
1.55663
21
0.692
0
LINE
8
BLACK
6
CONTINUOUS
10
1.55663
20
0.692
11
1.55739
21
0.699681
0
LINE
8
BLACK
6
CONTINUOUS
10
1.55739
20
0.699681
11
1.55963
21
0.707066
0
LINE
8
BLACK
6
CONTINUOUS
10
1.55963
20
0.707066
11
1.56326
21
0.713873
0
LINE
8
BLACK
6
CONTINUOUS
10
1.56326
20
0.713873
11
1.56816
21
0.719839
0
LINE
8
BLACK
6
CONTINUOUS
10
1.56816
20
0.719839
11
1.57413
21
0.724735
0
LINE
8
BLACK
6
CONTINUOUS
10
1.57413
20
0.724735
11
1.58093
21
0.728373
0
LINE
8
BLACK
6
CONTINUOUS
10
1.58093
20
0.728373
11
1.58832
21
0.730614
0
LINE
8
BLACK
6
CONTINUOUS
10
1.58832
20
0.730614
11
1.596
21
0.73137
0
LINE
8
BLACK
6
CONTINUOUS
10
1.596
20
0.73137
11
1.60368
21
0.730614
0
LINE
8
BLACK
6
CONTINUOUS
10
1.80368
20
0.730614
11
1.81107
21
0.728373
0
LINE
8
BLACK
6
CONTINUOUS
10
1.81107
20
0.728373
11
1.81787
21
0.724735
0
LINE
8
BLACK
6
CONTINUOUS
10
1.81787
20
0.724735
11
1.82384
21
0.719839
0
LINE
8
BLACK
6
CONTINUOUS
10
1.82384
20
0.719839
11
1.82874
21
0.713873
0
LINE
8
BLACK
6
CONTINUOUS
10
1.82874
20
0.713873
11
1.83237
21
0.707066
0
LINE
8
BLACK
6
CONTINUOUS
10
1.83237
20
0.707066
11
1.83461
21
0.699681
0
LINE
8
BLACK
6
CONTINUOUS
10
1.83461
20
0.699681
11
1.83537
21
0.692
0
LINE
8
BLACK
6
CONTINUOUS
10
1.83537
20
0.692
11
1.83461
21
0.684319
0
LINE
8
BLACK
6
CONTINUOUS
10
1.83461
20
0.684319
11
1.83237
21
0.676934
0
LINE
8
BLACK
6
CONTINUOUS
10
1.83237
20
0.676934
11
1.82874
21
0.670127
0
LINE
8
BLACK
6
CONTINUOUS
10
1.82874
20
0.670127
11
1.82384
21
0.664161
0
LINE
8
BLACK
6
CONTINUOUS
10
1.82384
20
0.664161
11
1.81787
21
0.659265
0
LINE
8
BLACK
6
CONTINUOUS
10
1.81787
20
0.659265
11
1.81107
21
0.655627
0
LINE
8
BLACK
6
CONTINUOUS
10
1.81107
20
0.655627
11
1.80368
21
0.653386
0
LINE
8
BLACK
6
CONTINUOUS
10
1.80368
20
0.653386
11
1.796
21
0.65263
0
LINE
8
BLACK
6
CONTINUOUS
10
1.796
20
0.65263
11
1.78832
21
0.653386
0
LINE
8
BLACK
6
CONTINUOUS
10
1.78832
20
0.653386
11
1.78093
21
0.655627
0
LINE
8
BLACK
6
CONTINUOUS
10
1.78093
20
0.655627
11
1.77413
21
0.659265
0
LINE
8
BLACK
6
CONTINUOUS
10
1.77413
20
0.659265
11
1.76816
21
0.664161
0
LINE
8
BLACK
6
CONTINUOUS
10
1.76816
20
0.664161
11
1.76326
21
0.670127
0
LINE
8
BLACK
6
CONTINUOUS
10
1.76326
20
0.670127
11
1.75963
21
0.676934
0
LINE
8
BLACK
6
CONTINUOUS
10
1.75963
20
0.676934
11
1.75739
21
0.684319
0
LINE
8
BLACK
6
CONTINUOUS
10
1.75739
20
0.684319
11
1.75663
21
0.692
0
LINE
8
BLACK
6
CONTINUOUS
10
1.75663
20
0.692
11
1.75739
21
0.699681
0
LINE
8
BLACK
6
CONTINUOUS
10
1.75739
20
0.699681
11
1.75963
21
0.707066
0
LINE
8
BLACK
6
CONTINUOUS
10
1.75963
20
0.707066
11
1.76326
21
0.713873
0
LINE
8
BLACK
6
CONTINUOUS
10
1.76326
20
0.713873
11
1.76816
21
0.719839
0
LINE
8
BLACK
6
CONTINUOUS
10
1.76816
20
0.719839
11
1.77413
21
0.724735
0
LINE
8
BLACK
6
CONTINUOUS
10
1.77413
20
0.724735
11
1.78093
21
0.728373
0
LINE
8
BLACK
6
CONTINUOUS
10
1.78093
20
0.728373
11
1.78832
21
0.730614
0
LINE
8
BLACK
6
CONTINUOUS
10
1.78832
20
0.730614
11
1.796
21
0.73137
0
LINE
8
BLACK
6
CONTINUOUS
10
1.796
20
0.73137
11
1.80368
21
0.730614
0
LINE
8
BLACK
6
CONTINUOUS
10
2.00368
20
0.730614
11
2.01107
21
0.728373
0
LINE
8
BLACK
6
CONTINUOUS
10
2.01107
20
0.728373
11
2.01787
21
0.724735
0
LINE
8
BLACK
6
CONTINUOUS
10
2.01787
20
0.724735
11
2.02384
21
0.719839
0
LINE
8
BLACK
6
CONTINUOUS
10
2.02384
20
0.719839
11
2.02874
21
0.713873
0
LINE
8
BLACK
6
CONTINUOUS
10
2.02874
20
0.713873
11
2.03237
21
0.707066
0
LINE
8
BLACK
6
CONTINUOUS
10
2.03237
20
0.707066
11
2.03461
21
0.699681
0
LINE
8
BLACK
6
CONTINUOUS
10
2.03461
20
0.699681
11
2.03537
21
0.692
0
LINE
8
BLACK
6
CONTINUOUS
10
2.03537
20
0.692
11
2.03461
21
0.684319
0
LINE
8
BLACK
6
CONTINUOUS
10
2.03461
20
0.684319
11
2.03237
21
0.676934
0
LINE
8
BLACK
6
CONTINUOUS
10
2.03237
20
0.676934
11
2.02874
21
0.670127
0
LINE
8
BLACK
6
CONTINUOUS
10
2.02874
20
0.670127
11
2.02384
21
0.664161
0
LINE
8
BLACK
6
CONTINUOUS
10
2.02384
20
0.664161
11
2.01787
21
0.659265
0
LINE
8
BLACK
6
CONTINUOUS
10
2.01787
20
0.659265
11
2.01107
21
0.655627
0
LINE
8
BLACK
6
CONTINUOUS
10
2.01107
20
0.655627
11
2.00368
21
0.653386
0
LINE
8
BLACK
6
CONTINUOUS
10
2.00368
20
0.653386
11
1.996
21
0.65263
0
LINE
8
BLACK
6
CONTINUOUS
10
1.996
20
0.65263
11
1.98832
21
0.653386
0
LINE
8
BLACK
6
CONTINUOUS
10
1.98832
20
0.653386
11
1.98093
21
0.655627
0
LINE
8
BLACK
6
CONTINUOUS
10
1.98093
20
0.655627
11
1.97413
21
0.659265
0
LINE
8
BLACK
6
CONTINUOUS
10
1.97413
20
0.659265
11
1.96816
21
0.664161
0
LINE
8
BLACK
6
CONTINUOUS
10
1.96816
20
0.664161
11
1.96326
21
0.670127
0
LINE
8
BLACK
6
CONTINUOUS
10
1.96326
20
0.670127
11
1.95963
21
0.676934
0
LINE
8
BLACK
6
CONTINUOUS
10
1.95963
20
0.676934
11
1.95739
21
0.684319
0
LINE
8
BLACK
6
CONTINUOUS
10
1.95739
20
0.684319
11
1.95663
21
0.692
0
LINE
8
BLACK
6
CONTINUOUS
10
1.95663
20
0.692
11
1.95739
21
0.699681
0
LINE
8
BLACK
6
CONTINUOUS
10
1.95739
20
0.699681
11
1.95963
21
0.707066
0
LINE
8
BLACK
6
CONTINUOUS
10
1.95963
20
0.707066
11
1.96326
21
0.713873
0
LINE
8
BLACK
6
CONTINUOUS
10
1.96326
20
0.713873
11
1.96816
21
0.719839
0
LINE
8
BLACK
6
CONTINUOUS
10
1.96816
20
0.719839
11
1.97413
21
0.724735
0
LINE
8
BLACK
6
CONTINUOUS
10
1.97413
20
0.724735
11
1.98093
21
0.728373
0
LINE
8
BLACK
6
CONTINUOUS
10
1.98093
20
0.728373
11
1.98832
21
0.730614
0
LINE
8
BLACK
6
CONTINUOUS
10
1.98832
20
0.730614
11
1.996
21
0.73137
0
LINE
8
BLACK
6
CONTINUOUS
10
1.996
20
0.73137
11
2.00368
21
0.730614
0
LINE
8
BLACK
6
CONTINUOUS
10
2.20368
20
0.730614
11
2.21107
21
0.728373
0
LINE
8
BLACK
6
CONTINUOUS
10
2.21107
20
0.728373
11
2.21787
21
0.724735
0
LINE
8
BLACK
6
CONTINUOUS
10
2.21787
20
0.724735
11
2.22384
21
0.719839
0
LINE
8
BLACK
6
CONTINUOUS
10
2.22384
20
0.719839
11
2.22874
21
0.713873
0
LINE
8
BLACK
6
CONTINUOUS
10
2.22874
20
0.713873
11
2.23237
21
0.707066
0
LINE
8
BLACK
6
CONTINUOUS
10
2.23237
20
0.707066
11
2.23461
21
0.699681
0
LINE
8
BLACK
6
CONTINUOUS
10
2.23461
20
0.699681
11
2.23537
21
0.692
0
LINE
8
BLACK
6
CONTINUOUS
10
2.23537
20
0.692
11
2.23461
21
0.684319
0
LINE
8
BLACK
6
CONTINUOUS
10
2.23461
20
0.684319
11
2.23237
21
0.676934
0
LINE
8
BLACK
6
CONTINUOUS
10
2.23237
20
0.676934
11
2.22874
21
0.670127
0
LINE
8
BLACK
6
CONTINUOUS
10
2.22874
20
0.670127
11
2.22384
21
0.664161
0
LINE
8
BLACK
6
CONTINUOUS
10
2.22384
20
0.664161
11
2.21787
21
0.659265
0
LINE
8
BLACK
6
CONTINUOUS
10
2.21787
20
0.659265
11
2.21107
21
0.655627
0
LINE
8
BLACK
6
CONTINUOUS
10
2.21107
20
0.655627
11
2.20368
21
0.653386
0
LINE
8
BLACK
6
CONTINUOUS
10
2.20368
20
0.653386
11
2.196
21
0.65263
0
LINE
8
BLACK
6
CONTINUOUS
10
2.196
20
0.65263
11
2.18832
21
0.653386
0
LINE
8
BLACK
6
CONTINUOUS
10
2.18832
20
0.653386
11
2.18093
21
0.655627
0
LINE
8
BLACK
6
CONTINUOUS
10
2.18093
20
0.655627
11
2.17413
21
0.659265
0
LINE
8
BLACK
6
CONTINUOUS
10
2.17413
20
0.659265
11
2.16816
21
0.664161
0
LINE
8
BLACK
6
CONTINUOUS
10
2.16816
20
0.664161
11
2.16326
21
0.670127
0
LINE
8
BLACK
6
CONTINUOUS
10
2.16326
20
0.670127
11
2.15963
21
0.676934
0
LINE
8
BLACK
6
CONTINUOUS
10
2.15963
20
0.676934
11
2.15739
21
0.684319
0
LINE
8
BLACK
6
CONTINUOUS
10
2.15739
20
0.684319
11
2.15663
21
0.692
0
LINE
8
BLACK
6
CONTINUOUS
10
2.15663
20
0.692
11
2.15739
21
0.699681
0
LINE
8
BLACK
6
CONTINUOUS
10
2.15739
20
0.699681
11
2.15963
21
0.707066
0
LINE
8
BLACK
6
CONTINUOUS
10
2.15963
20
0.707066
11
2.16326
21
0.713873
0
LINE
8
BLACK
6
CONTINUOUS
10
2.16326
20
0.713873
11
2.16816
21
0.719839
0
LINE
8
BLACK
6
CONTINUOUS
10
2.16816
20
0.719839
11
2.17413
21
0.724735
0
LINE
8
BLACK
6
CONTINUOUS
10
2.17413
20
0.724735
11
2.18093
21
0.728373
0
LINE
8
BLACK
6
CONTINUOUS
10
2.18093
20
0.728373
11
2.18832
21
0.730614
0
LINE
8
BLACK
6
CONTINUOUS
10
2.18832
20
0.730614
11
2.196
21
0.73137
0
LINE
8
BLACK
6
CONTINUOUS
10
2.196
20
0.73137
11
2.20368
21
0.730614
0
LINE
8
BLACK
6
CONTINUOUS
10
1.71068
20
1.04725
11
1.71702
21
1.04503
0
LINE
8
BLACK
6
CONTINUOUS
10
1.71702
20
1.04503
11
1.7227
21
1.04145
0
LINE
8
BLACK
6
CONTINUOUS
10
1.7227
20
1.04145
11
1.72745
21
1.0367
0
LINE
8
BLACK
6
CONTINUOUS
10
1.72745
20
1.0367
11
1.73103
21
1.03102
0
LINE
8
BLACK
6
CONTINUOUS
10
1.73103
20
1.03102
11
1.73325
21
1.02468
0
LINE
8
BLACK
6
CONTINUOUS
10
1.73325
20
1.02468
11
1.734
21
1.018
0
LINE
8
BLACK
6
CONTINUOUS
10
1.734
20
1.018
11
1.73325
21
1.01132
0
LINE
8
BLACK
6
CONTINUOUS
10
1.73325
20
1.01132
11
1.73103
21
1.00498
0
LINE
8
BLACK
6
CONTINUOUS
10
1.73103
20
1.00498
11
1.72745
21
0.999295
0
LINE
8
BLACK
6
CONTINUOUS
10
1.72745
20
0.999295
11
1.7227
21
0.994545
0
LINE
8
BLACK
6
CONTINUOUS
10
1.7227
20
0.994545
11
1.71702
21
0.990971
0
LINE
8
BLACK
6
CONTINUOUS
10
1.71702
20
0.990971
11
1.71068
21
0.988752
0
LINE
8
BLACK
6
CONTINUOUS
10
1.71068
20
0.988752
11
1.704
21
0.988
0
LINE
8
BLACK
6
CONTINUOUS
10
1.704
20
0.988
11
1.69732
21
0.988752
0
LINE
8
BLACK
6
CONTINUOUS
10
1.69732
20
0.988752
11
1.69098
21
0.990971
0
LINE
8
BLACK
6
CONTINUOUS
10
1.69098
20
0.990971
11
1.6853
21
0.994545
0
LINE
8
BLACK
6
CONTINUOUS
10
1.6853
20
0.994545
11
1.68153
21
0.998315
0
LINE
8
BLACK
6
CONTINUOUS
10
1.68153
20
0.998315
11
1.42419
21
0.998315
0
LINE
8
BLACK
6
CONTINUOUS
10
1.42419
20
0.998315
11
1.42303
21
0.994984
0
LINE
8
BLACK
6
CONTINUOUS
10
1.42303
20
0.994984
11
1.41945
21
0.989295
0
LINE
8
BLACK
6
CONTINUOUS
10
1.41945
20
0.989295
11
1.4147
21
0.984545
0
LINE
8
BLACK
6
CONTINUOUS
10
1.4147
20
0.984545
11
1.40902
21
0.980971
0
LINE
8
BLACK
6
CONTINUOUS
10
1.40902
20
0.980971
11
1.40268
21
0.978752
0
LINE
8
BLACK
6
CONTINUOUS
10
1.40268
20
0.978752
11
1.396
21
0.978
0
LINE
8
BLACK
6
CONTINUOUS
10
1.396
20
0.978
11
1.38932
21
0.978752
0
LINE
8
BLACK
6
CONTINUOUS
10
1.38932
20
0.978752
11
1.38298
21
0.980971
0
LINE
8
BLACK
6
CONTINUOUS
10
1.38298
20
0.980971
11
1.3773
21
0.984545
0
LINE
8
BLACK
6
CONTINUOUS
10
1.3773
20
0.984545
11
1.37255
21
0.989295
0
LINE
8
BLACK
6
CONTINUOUS
10
1.37255
20
0.989295
11
1.36897
21
0.994984
0
LINE
8
BLACK
6
CONTINUOUS
10
1.36897
20
0.994984
11
1.36675
21
1.00132
0
LINE
8
BLACK
6
CONTINUOUS
10
1.36675
20
1.00132
11
1.366
21
1.008
0
LINE
8
BLACK
6
CONTINUOUS
10
1.366
20
1.008
11
1.36675
21
1.01468
0
LINE
8
BLACK
6
CONTINUOUS
10
1.36675
20
1.01468
11
1.36897
21
1.02102
0
LINE
8
BLACK
6
CONTINUOUS
10
1.36897
20
1.02102
11
1.37255
21
1.0267
0
LINE
8
BLACK
6
CONTINUOUS
10
1.37255
20
1.0267
11
1.3773
21
1.03145
0
LINE
8
BLACK
6
CONTINUOUS
10
1.3773
20
1.03145
11
1.38298
21
1.03503
0
LINE
8
BLACK
6
CONTINUOUS
10
1.38298
20
1.03503
11
1.38932
21
1.03725
0
LINE
8
BLACK
6
CONTINUOUS
10
1.38932
20
1.03725
11
1.396
21
1.038
0
LINE
8
BLACK
6
CONTINUOUS
10
1.396
20
1.038
11
1.40241
21
1.03728
0
LINE
8
BLACK
6
CONTINUOUS
10
1.40241
20
1.03728
11
1.40392
21
1.03739
0
LINE
8
BLACK
6
CONTINUOUS
10
1.40392
20
1.03739
11
1.406
21
1.03769
0
LINE
8
BLACK
6
CONTINUOUS
10
1.406
20
1.03769
11
1.68153
21
1.03769
0
LINE
8
BLACK
6
CONTINUOUS
10
1.68153
20
1.03769
11
1.6853
21
1.04145
0
LINE
8
BLACK
6
CONTINUOUS
10
1.6853
20
1.04145
11
1.69098
21
1.04503
0
LINE
8
BLACK
6
CONTINUOUS
10
1.69098
20
1.04503
11
1.69732
21
1.04725
0
LINE
8
BLACK
6
CONTINUOUS
10
1.69732
20
1.04725
11
1.704
21
1.048
0
LINE
8
BLACK
6
CONTINUOUS
10
1.704
20
1.048
11
1.71068
21
1.04725
0
LINE
8
BLACK
6
CONTINUOUS
10
1.78543
20
1.46457
11
1.71457
21
1.46457
0
LINE
8
BLACK
6
CONTINUOUS
10
1.71457
20
1.46457
11
1.71457
21
1.53543
0
LINE
8
BLACK
6
CONTINUOUS
10
1.71457
20
1.53543
11
1.78543
21
1.53543
0
LINE
8
BLACK
6
CONTINUOUS
10
1.78543
20
1.53543
11
1.78543
21
1.46457
0
LINE
8
BLACK
6
CONTINUOUS
10
1.86095
20
1.5337
11
1.86772
21
1.53069
0
LINE
8
BLACK
6
CONTINUOUS
10
1.86772
20
1.53069
11
1.87371
21
1.52633
0
LINE
8
BLACK
6
CONTINUOUS
10
1.87371
20
1.52633
11
1.87867
21
1.52083
0
LINE
8
BLACK
6
CONTINUOUS
10
1.87867
20
1.52083
11
1.88237
21
1.51441
0
LINE
8
BLACK
6
CONTINUOUS
10
1.88237
20
1.51441
11
1.88466
21
1.50737
0
LINE
8
BLACK
6
CONTINUOUS
10
1.88466
20
1.50737
11
1.88543
21
1.5
0
LINE
8
BLACK
6
CONTINUOUS
10
1.88543
20
1.5
11
1.88466
21
1.49263
0
LINE
8
BLACK
6
CONTINUOUS
10
1.88466
20
1.49263
11
1.88237
21
1.48559
0
LINE
8
BLACK
6
CONTINUOUS
10
1.88237
20
1.48559
11
1.87867
21
1.47917
0
LINE
8
BLACK
6
CONTINUOUS
10
1.87867
20
1.47917
11
1.87371
21
1.47367
0
LINE
8
BLACK
6
CONTINUOUS
10
1.87371
20
1.47367
11
1.86772
21
1.46931
0
LINE
8
BLACK
6
CONTINUOUS
10
1.86772
20
1.46931
11
1.86095
21
1.4663
0
LINE
8
BLACK
6
CONTINUOUS
10
1.86095
20
1.4663
11
1.8537
21
1.46476
0
LINE
8
BLACK
6
CONTINUOUS
10
1.8537
20
1.46476
11
1.8463
21
1.46476
0
LINE
8
BLACK
6
CONTINUOUS
10
1.8463
20
1.46476
11
1.83905
21
1.4663
0
LINE
8
BLACK
6
CONTINUOUS
10
1.83905
20
1.4663
11
1.83228
21
1.46931
0
LINE
8
BLACK
6
CONTINUOUS
10
1.83228
20
1.46931
11
1.82629
21
1.47367
0
LINE
8
BLACK
6
CONTINUOUS
10
1.82629
20
1.47367
11
1.82133
21
1.47917
0
LINE
8
BLACK
6
CONTINUOUS
10
1.82133
20
1.47917
11
1.81763
21
1.48559
0
LINE
8
BLACK
6
CONTINUOUS
10
1.81763
20
1.48559
11
1.81534
21
1.49263
0
LINE
8
BLACK
6
CONTINUOUS
10
1.81534
20
1.49263
11
1.81457
21
1.5
0
LINE
8
BLACK
6
CONTINUOUS
10
1.81457
20
1.5
11
1.81534
21
1.50737
0
LINE
8
BLACK
6
CONTINUOUS
10
1.81534
20
1.50737
11
1.81763
21
1.51441
0
LINE
8
BLACK
6
CONTINUOUS
10
1.81763
20
1.51441
11
1.82133
21
1.52083
0
LINE
8
BLACK
6
CONTINUOUS
10
1.82133
20
1.52083
11
1.82629
21
1.52633
0
LINE
8
BLACK
6
CONTINUOUS
10
1.82629
20
1.52633
11
1.83228
21
1.53069
0
LINE
8
BLACK
6
CONTINUOUS
10
1.83228
20
1.53069
11
1.83905
21
1.5337
0
LINE
8
BLACK
6
CONTINUOUS
10
1.83905
20
1.5337
11
1.8463
21
1.53524
0
LINE
8
BLACK
6
CONTINUOUS
10
1.8463
20
1.53524
11
1.8537
21
1.53524
0
LINE
8
BLACK
6
CONTINUOUS
10
1.8537
20
1.53524
11
1.86095
21
1.5337
0
LINE
8
BLACK
6
CONTINUOUS
10
1.10424
20
1.91726
11
1.11761
21
1.91409
0
LINE
8
BLACK
6
CONTINUOUS
10
1.11761
20
1.91409
11
1.13051
21
1.9094
0
LINE
8
BLACK
6
CONTINUOUS
10
1.13051
20
1.9094
11
1.14279
21
1.90323
0
LINE
8
BLACK
6
CONTINUOUS
10
1.14279
20
1.90323
11
1.15426
21
1.89568
0
LINE
8
BLACK
6
CONTINUOUS
10
1.15426
20
1.89568
11
1.16478
21
1.88686
0
LINE
8
BLACK
6
CONTINUOUS
10
1.16478
20
1.88686
11
1.17421
21
1.87686
0
LINE
8
BLACK
6
CONTINUOUS
10
1.17421
20
1.87686
11
1.18241
21
1.86585
0
LINE
8
BLACK
6
CONTINUOUS
10
1.18241
20
1.86585
11
1.18928
21
1.85395
0
LINE
8
BLACK
6
CONTINUOUS
10
1.18928
20
1.85395
11
1.19472
21
1.84134
0
LINE
8
BLACK
6
CONTINUOUS
10
1.19472
20
1.84134
11
1.19866
21
1.82818
0
LINE
8
BLACK
6
CONTINUOUS
10
1.19866
20
1.82818
11
1.20104
21
1.81466
0
LINE
8
BLACK
6
CONTINUOUS
10
1.20104
20
1.81466
11
1.20184
21
1.80094
0
LINE
8
BLACK
6
CONTINUOUS
10
1.20184
20
1.80094
11
1.20104
21
1.78723
0
LINE
8
BLACK
6
CONTINUOUS
10
1.20104
20
1.78723
11
1.19866
21
1.77371
0
LINE
8
BLACK
6
CONTINUOUS
10
1.19866
20
1.77371
11
1.19472
21
1.76055
0
LINE
8
BLACK
6
CONTINUOUS
10
1.19472
20
1.76055
11
1.18928
21
1.74794
0
LINE
8
BLACK
6
CONTINUOUS
10
1.18928
20
1.74794
11
1.18241
21
1.73604
0
LINE
8
BLACK
6
CONTINUOUS
10
1.18241
20
1.73604
11
1.17421
21
1.72503
0
LINE
8
BLACK
6
CONTINUOUS
10
1.17421
20
1.72503
11
1.16478
21
1.71503
0
LINE
8
BLACK
6
CONTINUOUS
10
1.16478
20
1.71503
11
1.15426
21
1.70621
0
LINE
8
BLACK
6
CONTINUOUS
10
1.15426
20
1.70621
11
1.14279
21
1.69866
0
LINE
8
BLACK
6
CONTINUOUS
10
1.14279
20
1.69866
11
1.13051
21
1.69249
0
LINE
8
BLACK
6
CONTINUOUS
10
1.13051
20
1.69249
11
1.11761
21
1.6878
0
LINE
8
BLACK
6
CONTINUOUS
10
1.11761
20
1.6878
11
1.10424
21
1.68463
0
LINE
8
BLACK
6
CONTINUOUS
10
1.10424
20
1.68463
11
1.0906
21
1.68303
0
LINE
8
BLACK
6
CONTINUOUS
10
1.0906
20
1.68303
11
1.07686
21
1.68303
0
LINE
8
BLACK
6
CONTINUOUS
10
1.07686
20
1.68303
11
1.06322
21
1.68463
0
LINE
8
BLACK
6
CONTINUOUS
10
1.06322
20
1.68463
11
1.04986
21
1.6878
0
LINE
8
BLACK
6
CONTINUOUS
10
1.04986
20
1.6878
11
1.03695
21
1.69249
0
LINE
8
BLACK
6
CONTINUOUS
10
1.03695
20
1.69249
11
1.02468
21
1.69866
0
LINE
8
BLACK
6
CONTINUOUS
10
1.02468
20
1.69866
11
1.0132
21
1.70621
0
LINE
8
BLACK
6
CONTINUOUS
10
1.0132
20
1.70621
11
1.00268
21
1.71503
0
LINE
8
BLACK
6
CONTINUOUS
10
1.00268
20
1.71503
11
0.993255
21
1.72503
0
LINE
8
BLACK
6
CONTINUOUS
10
0.993255
20
1.72503
11
0.985053
21
1.73604
0
LINE
8
BLACK
6
CONTINUOUS
10
0.985053
20
1.73604
11
0.978185
21
1.74794
0
LINE
8
BLACK
6
CONTINUOUS
10
0.978185
20
1.74794
11
0.972745
21
1.76055
0
LINE
8
BLACK
6
CONTINUOUS
10
0.972745
20
1.76055
11
0.968806
21
1.77371
0
LINE
8
BLACK
6
CONTINUOUS
10
0.968806
20
1.77371
11
0.966421
21
1.78723
0
LINE
8
BLACK
6
CONTINUOUS
10
0.966421
20
1.78723
11
0.965622
21
1.80094
0
LINE
8
BLACK
6
CONTINUOUS
10
0.965622
20
1.80094
11
0.966421
21
1.81466
0
LINE
8
BLACK
6
CONTINUOUS
10
0.966421
20
1.81466
11
0.968806
21
1.82818
0
LINE
8
BLACK
6
CONTINUOUS
10
0.968806
20
1.82818
11
0.972745
21
1.84134
0
LINE
8
BLACK
6
CONTINUOUS
10
0.972745
20
1.84134
11
0.978185
21
1.85395
0
LINE
8
BLACK
6
CONTINUOUS
10
0.978185
20
1.85395
11
0.985053
21
1.86585
0
LINE
8
BLACK
6
CONTINUOUS
10
0.985053
20
1.86585
11
0.993255
21
1.87686
0
LINE
8
BLACK
6
CONTINUOUS
10
0.993255
20
1.87686
11
1.00268
21
1.88686
0
LINE
8
BLACK
6
CONTINUOUS
10
1.00268
20
1.88686
11
1.0132
21
1.89568
0
LINE
8
BLACK
6
CONTINUOUS
10
1.0132
20
1.89568
11
1.02468
21
1.90323
0
LINE
8
BLACK
6
CONTINUOUS
10
1.02468
20
1.90323
11
1.03695
21
1.9094
0
LINE
8
BLACK
6
CONTINUOUS
10
1.03695
20
1.9094
11
1.04986
21
1.91409
0
LINE
8
BLACK
6
CONTINUOUS
10
1.04986
20
1.91409
11
1.06322
21
1.91726
0
LINE
8
BLACK
6
CONTINUOUS
10
1.06322
20
1.91726
11
1.07686
21
1.91886
0
LINE
8
BLACK
6
CONTINUOUS
10
1.07686
20
1.91886
11
1.0906
21
1.91886
0
LINE
8
BLACK
6
CONTINUOUS
10
1.0906
20
1.91886
11
1.10424
21
1.91726
0
LINE
8
BLACK
6
CONTINUOUS
10
2.30424
20
1.91726
11
2.31761
21
1.91409
0
LINE
8
BLACK
6
CONTINUOUS
10
2.31761
20
1.91409
11
2.33051
21
1.9094
0
LINE
8
BLACK
6
CONTINUOUS
10
2.33051
20
1.9094
11
2.34279
21
1.90323
0
LINE
8
BLACK
6
CONTINUOUS
10
2.34279
20
1.90323
11
2.35426
21
1.89568
0
LINE
8
BLACK
6
CONTINUOUS
10
2.35426
20
1.89568
11
2.36478
21
1.88686
0
LINE
8
BLACK
6
CONTINUOUS
10
2.36478
20
1.88686
11
2.37421
21
1.87686
0
LINE
8
BLACK
6
CONTINUOUS
10
2.37421
20
1.87686
11
2.38241
21
1.86585
0
LINE
8
BLACK
6
CONTINUOUS
10
2.38241
20
1.86585
11
2.38928
21
1.85395
0
LINE
8
BLACK
6
CONTINUOUS
10
2.38928
20
1.85395
11
2.39472
21
1.84134
0
LINE
8
BLACK
6
CONTINUOUS
10
2.39472
20
1.84134
11
2.39866
21
1.82818
0
LINE
8
BLACK
6
CONTINUOUS
10
2.39866
20
1.82818
11
2.40104
21
1.81466
0
LINE
8
BLACK
6
CONTINUOUS
10
2.40104
20
1.81466
11
2.40184
21
1.80094
0
LINE
8
BLACK
6
CONTINUOUS
10
2.40184
20
1.80094
11
2.40104
21
1.78723
0
LINE
8
BLACK
6
CONTINUOUS
10
2.40104
20
1.78723
11
2.39866
21
1.77371
0
LINE
8
BLACK
6
CONTINUOUS
10
2.39866
20
1.77371
11
2.39472
21
1.76055
0
LINE
8
BLACK
6
CONTINUOUS
10
2.39472
20
1.76055
11
2.38928
21
1.74794
0
LINE
8
BLACK
6
CONTINUOUS
10
2.38928
20
1.74794
11
2.38241
21
1.73604
0
LINE
8
BLACK
6
CONTINUOUS
10
2.38241
20
1.73604
11
2.37421
21
1.72503
0
LINE
8
BLACK
6
CONTINUOUS
10
2.37421
20
1.72503
11
2.36478
21
1.71503
0
LINE
8
BLACK
6
CONTINUOUS
10
2.36478
20
1.71503
11
2.35426
21
1.70621
0
LINE
8
BLACK
6
CONTINUOUS
10
2.35426
20
1.70621
11
2.34279
21
1.69866
0
LINE
8
BLACK
6
CONTINUOUS
10
2.34279
20
1.69866
11
2.33051
21
1.69249
0
LINE
8
BLACK
6
CONTINUOUS
10
2.33051
20
1.69249
11
2.31761
21
1.6878
0
LINE
8
BLACK
6
CONTINUOUS
10
2.31761
20
1.6878
11
2.30424
21
1.68463
0
LINE
8
BLACK
6
CONTINUOUS
10
2.30424
20
1.68463
11
2.2906
21
1.68303
0
LINE
8
BLACK
6
CONTINUOUS
10
2.2906
20
1.68303
11
2.27686
21
1.68303
0
LINE
8
BLACK
6
CONTINUOUS
10
2.27686
20
1.68303
11
2.26322
21
1.68463
0
LINE
8
BLACK
6
CONTINUOUS
10
2.26322
20
1.68463
11
2.24986
21
1.6878
0
LINE
8
BLACK
6
CONTINUOUS
10
2.24986
20
1.6878
11
2.23695
21
1.69249
0
LINE
8
BLACK
6
CONTINUOUS
10
2.23695
20
1.69249
11
2.22468
21
1.69866
0
LINE
8
BLACK
6
CONTINUOUS
10
2.22468
20
1.69866
11
2.2132
21
1.70621
0
LINE
8
BLACK
6
CONTINUOUS
10
2.2132
20
1.70621
11
2.20268
21
1.71503
0
LINE
8
BLACK
6
CONTINUOUS
10
2.20268
20
1.71503
11
2.19325
21
1.72503
0
LINE
8
BLACK
6
CONTINUOUS
10
2.19325
20
1.72503
11
2.18505
21
1.73604
0
LINE
8
BLACK
6
CONTINUOUS
10
2.18505
20
1.73604
11
2.17819
21
1.74794
0
LINE
8
BLACK
6
CONTINUOUS
10
2.17819
20
1.74794
11
2.17274
21
1.76055
0
LINE
8
BLACK
6
CONTINUOUS
10
2.17274
20
1.76055
11
2.16881
21
1.77371
0
LINE
8
BLACK
6
CONTINUOUS
10
2.16881
20
1.77371
11
2.16642
21
1.78723
0
LINE
8
BLACK
6
CONTINUOUS
10
2.16642
20
1.78723
11
2.16562
21
1.80094
0
LINE
8
BLACK
6
CONTINUOUS
10
2.16562
20
1.80094
11
2.16642
21
1.81466
0
LINE
8
BLACK
6
CONTINUOUS
10
2.16642
20
1.81466
11
2.16881
21
1.82818
0
LINE
8
BLACK
6
CONTINUOUS
10
2.16881
20
1.82818
11
2.17274
21
1.84134
0
LINE
8
BLACK
6
CONTINUOUS
10
2.17274
20
1.84134
11
2.17819
21
1.85395
0
LINE
8
BLACK
6
CONTINUOUS
10
2.17819
20
1.85395
11
2.18505
21
1.86585
0
LINE
8
BLACK
6
CONTINUOUS
10
2.18505
20
1.86585
11
2.19325
21
1.87686
0
LINE
8
BLACK
6
CONTINUOUS
10
2.19325
20
1.87686
11
2.20268
21
1.88686
0
LINE
8
BLACK
6
CONTINUOUS
10
2.20268
20
1.88686
11
2.2132
21
1.89568
0
LINE
8
BLACK
6
CONTINUOUS
10
2.2132
20
1.89568
11
2.22468
21
1.90323
0
LINE
8
BLACK
6
CONTINUOUS
10
2.22468
20
1.90323
11
2.23695
21
1.9094
0
LINE
8
BLACK
6
CONTINUOUS
10
2.23695
20
1.9094
11
2.24986
21
1.91409
0
LINE
8
BLACK
6
CONTINUOUS
10
2.24986
20
1.91409
11
2.26322
21
1.91726
0
LINE
8
BLACK
6
CONTINUOUS
10
2.26322
20
1.91726
11
2.27686
21
1.91886
0
LINE
8
BLACK
6
CONTINUOUS
10
2.27686
20
1.91886
11
2.2906
21
1.91886
0
LINE
8
BLACK
6
CONTINUOUS
10
2.2906
20
1.91886
11
2.30424
21
1.91726
0
LINE
8
BLACK
6
CONTINUOUS
10
1.486
20
1.69
11
1.426
21
1.69
0
LINE
8
BLACK
6
CONTINUOUS
10
1.426
20
1.69
11
1.426
21
1.75
0
LINE
8
BLACK
6
CONTINUOUS
10
1.426
20
1.75
11
1.486
21
1.75
0
LINE
8
BLACK
6
CONTINUOUS
10
1.486
20
1.75
11
1.486
21
1.69
0
LINE
8
BLACK
6
CONTINUOUS
10
1.586
20
1.69
11
1.526
21
1.69
0
LINE
8
BLACK
6
CONTINUOUS
10
1.526
20
1.69
11
1.526
21
1.75
0
LINE
8
BLACK
6
CONTINUOUS
10
1.526
20
1.75
11
1.586
21
1.75
0
LINE
8
BLACK
6
CONTINUOUS
10
1.586
20
1.75
11
1.586
21
1.69
0
LINE
8
BLACK
6
CONTINUOUS
10
1.686
20
1.69
11
1.626
21
1.69
0
LINE
8
BLACK
6
CONTINUOUS
10
1.626
20
1.69
11
1.626
21
1.75
0
LINE
8
BLACK
6
CONTINUOUS
10
1.626
20
1.75
11
1.686
21
1.75
0
LINE
8
BLACK
6
CONTINUOUS
10
1.686
20
1.75
11
1.686
21
1.69
0
LINE
8
BLACK
6
CONTINUOUS
10
1.786
20
1.69
11
1.726
21
1.69
0
LINE
8
BLACK
6
CONTINUOUS
10
1.726
20
1.69
11
1.726
21
1.75
0
LINE
8
BLACK
6
CONTINUOUS
10
1.726
20
1.75
11
1.786
21
1.75
0
LINE
8
BLACK
6
CONTINUOUS
10
1.786
20
1.75
11
1.786
21
1.69
0
LINE
8
BLACK
6
CONTINUOUS
10
1.946
20
1.69
11
1.886
21
1.69
0
LINE
8
BLACK
6
CONTINUOUS
10
1.886
20
1.69
11
1.886
21
1.75
0
LINE
8
BLACK
6
CONTINUOUS
10
1.886
20
1.75
11
1.946
21
1.75
0
LINE
8
BLACK
6
CONTINUOUS
10
1.946
20
1.75
11
1.946
21
1.69
0
LINE
8
BLACK
6
CONTINUOUS
10
1.486
20
1.79
11
1.426
21
1.79
0
LINE
8
BLACK
6
CONTINUOUS
10
1.426
20
1.79
11
1.426
21
1.85
0
LINE
8
BLACK
6
CONTINUOUS
10
1.426
20
1.85
11
1.486
21
1.85
0
LINE
8
BLACK
6
CONTINUOUS
10
1.486
20
1.85
11
1.486
21
1.79
0
LINE
8
BLACK
6
CONTINUOUS
10
1.586
20
1.79
11
1.526
21
1.79
0
LINE
8
BLACK
6
CONTINUOUS
10
1.526
20
1.79
11
1.526
21
1.85
0
LINE
8
BLACK
6
CONTINUOUS
10
1.526
20
1.85
11
1.586
21
1.85
0
LINE
8
BLACK
6
CONTINUOUS
10
1.586
20
1.85
11
1.586
21
1.79
0
LINE
8
BLACK
6
CONTINUOUS
10
1.686
20
1.79
11
1.626
21
1.79
0
LINE
8
BLACK
6
CONTINUOUS
10
1.626
20
1.79
11
1.626
21
1.85
0
LINE
8
BLACK
6
CONTINUOUS
10
1.626
20
1.85
11
1.686
21
1.85
0
LINE
8
BLACK
6
CONTINUOUS
10
1.686
20
1.85
11
1.686
21
1.79
0
LINE
8
BLACK
6
CONTINUOUS
10
1.786
20
1.79
11
1.726
21
1.79
0
LINE
8
BLACK
6
CONTINUOUS
10
1.726
20
1.79
11
1.726
21
1.85
0
LINE
8
BLACK
6
CONTINUOUS
10
1.726
20
1.85
11
1.786
21
1.85
0
LINE
8
BLACK
6
CONTINUOUS
10
1.786
20
1.85
11
1.786
21
1.79
0
LINE
8
BLACK
6
CONTINUOUS
10
1.946
20
1.79
11
1.886
21
1.79
0
LINE
8
BLACK
6
CONTINUOUS
10
1.886
20
1.79
11
1.886
21
1.85
0
LINE
8
BLACK
6
CONTINUOUS
10
1.886
20
1.85
11
1.946
21
1.85
0
LINE
8
BLACK
6
CONTINUOUS
10
1.946
20
1.85
11
1.946
21
1.79
0
LINE
8
BLACK
6
CONTINUOUS
10
0.976676
20
2.19925
11
0.983016
21
2.19703
0
LINE
8
BLACK
6
CONTINUOUS
10
0.983016
20
2.19703
11
0.988705
21
2.19345
0
LINE
8
BLACK
6
CONTINUOUS
10
0.988705
20
2.19345
11
0.993455
21
2.1887
0
LINE
8
BLACK
6
CONTINUOUS
10
0.993455
20
2.1887
11
0.997029
21
2.18302
0
LINE
8
BLACK
6
CONTINUOUS
10
0.997029
20
2.18302
11
0.999248
21
2.17668
0
LINE
8
BLACK
6
CONTINUOUS
10
0.999248
20
2.17668
11
1
21
2.17
0
LINE
8
BLACK
6
CONTINUOUS
10
1
20
2.17
11
0.999248
21
2.16332
0
LINE
8
BLACK
6
CONTINUOUS
10
0.999248
20
2.16332
11
0.997029
21
2.15698
0
LINE
8
BLACK
6
CONTINUOUS
10
0.997029
20
2.15698
11
0.993455
21
2.1513
0
LINE
8
BLACK
6
CONTINUOUS
10
0.993455
20
2.1513
11
0.988705
21
2.14655
0
LINE
8
BLACK
6
CONTINUOUS
10
0.988705
20
2.14655
11
0.983016
21
2.14297
0
LINE
8
BLACK
6
CONTINUOUS
10
0.983016
20
2.14297
11
0.976676
21
2.14075
0
LINE
8
BLACK
6
CONTINUOUS
10
0.976676
20
2.14075
11
0.97
21
2.14
0
LINE
8
BLACK
6
CONTINUOUS
10
0.97
20
2.14
11
0.963324
21
2.14075
0
LINE
8
BLACK
6
CONTINUOUS
10
0.963324
20
2.14075
11
0.956984
21
2.14297
0
LINE
8
BLACK
6
CONTINUOUS
10
0.956984
20
2.14297
11
0.951295
21
2.14655
0
LINE
8
BLACK
6
CONTINUOUS
10
0.951295
20
2.14655
11
0.946545
21
2.1513
0
LINE
8
BLACK
6
CONTINUOUS
10
0.946545
20
2.1513
11
0.942971
21
2.15698
0
LINE
8
BLACK
6
CONTINUOUS
10
0.942971
20
2.15698
11
0.940752
21
2.16332
0
LINE
8
BLACK
6
CONTINUOUS
10
0.940752
20
2.16332
11
0.94
21
2.17
0
LINE
8
BLACK
6
CONTINUOUS
10
0.94
20
2.17
11
0.940752
21
2.17668
0
LINE
8
BLACK
6
CONTINUOUS
10
0.940752
20
2.17668
11
0.942971
21
2.18302
0
LINE
8
BLACK
6
CONTINUOUS
10
0.942971
20
2.18302
11
0.946545
21
2.1887
0
LINE
8
BLACK
6
CONTINUOUS
10
0.946545
20
2.1887
11
0.951295
21
2.19345
0
LINE
8
BLACK
6
CONTINUOUS
10
0.951295
20
2.19345
11
0.956984
21
2.19703
0
LINE
8
BLACK
6
CONTINUOUS
10
0.956984
20
2.19703
11
0.963324
21
2.19925
0
LINE
8
BLACK
6
CONTINUOUS
10
0.963324
20
2.19925
11
0.97
21
2.2
0
LINE
8
BLACK
6
CONTINUOUS
10
0.97
20
2.2
11
0.976676
21
2.19925
0
LINE
8
BLACK
6
CONTINUOUS
10
1.36068
20
2.35725
11
1.36702
21
2.35503
0
LINE
8
BLACK
6
CONTINUOUS
10
1.36702
20
2.35503
11
1.3727
21
2.35145
0
LINE
8
BLACK
6
CONTINUOUS
10
1.3727
20
2.35145
11
1.37745
21
2.3467
0
LINE
8
BLACK
6
CONTINUOUS
10
1.37745
20
2.3467
11
1.38103
21
2.34102
0
LINE
8
BLACK
6
CONTINUOUS
10
1.38103
20
2.34102
11
1.38325
21
2.33468
0
LINE
8
BLACK
6
CONTINUOUS
10
1.38325
20
2.33468
11
1.384
21
2.328
0
LINE
8
BLACK
6
CONTINUOUS
10
1.384
20
2.328
11
1.38325
21
2.32132
0
LINE
8
BLACK
6
CONTINUOUS
10
1.38325
20
2.32132
11
1.38103
21
2.31498
0
LINE
8
BLACK
6
CONTINUOUS
10
1.38103
20
2.31498
11
1.37745
21
2.3093
0
LINE
8
BLACK
6
CONTINUOUS
10
1.37745
20
2.3093
11
1.3727
21
2.30455
0
LINE
8
BLACK
6
CONTINUOUS
10
1.3727
20
2.30455
11
1.36702
21
2.30097
0
LINE
8
BLACK
6
CONTINUOUS
10
1.36702
20
2.30097
11
1.36068
21
2.29875
0
LINE
8
BLACK
6
CONTINUOUS
10
1.36068
20
2.29875
11
1.354
21
2.298
0
LINE
8
BLACK
6
CONTINUOUS
10
1.354
20
2.298
11
1.34732
21
2.29875
0
LINE
8
BLACK
6
CONTINUOUS
10
1.34732
20
2.29875
11
1.34098
21
2.30097
0
LINE
8
BLACK
6
CONTINUOUS
10
1.34098
20
2.30097
11
1.3353
21
2.30455
0
LINE
8
BLACK
6
CONTINUOUS
10
1.3353
20
2.30455
11
1.33055
21
2.3093
0
LINE
8
BLACK
6
CONTINUOUS
10
1.33055
20
2.3093
11
1.32697
21
2.31498
0
LINE
8
BLACK
6
CONTINUOUS
10
1.32697
20
2.31498
11
1.32475
21
2.32132
0
LINE
8
BLACK
6
CONTINUOUS
10
1.32475
20
2.32132
11
1.324
21
2.328
0
LINE
8
BLACK
6
CONTINUOUS
10
1.324
20
2.328
11
1.32475
21
2.33468
0
LINE
8
BLACK
6
CONTINUOUS
10
1.32475
20
2.33468
11
1.32697
21
2.34102
0
LINE
8
BLACK
6
CONTINUOUS
10
1.32697
20
2.34102
11
1.33055
21
2.3467
0
LINE
8
BLACK
6
CONTINUOUS
10
1.33055
20
2.3467
11
1.3353
21
2.35145
0
LINE
8
BLACK
6
CONTINUOUS
10
1.3353
20
2.35145
11
1.34098
21
2.35503
0
LINE
8
BLACK
6
CONTINUOUS
10
1.34098
20
2.35503
11
1.34732
21
2.35725
0
LINE
8
BLACK
6
CONTINUOUS
10
1.34732
20
2.35725
11
1.354
21
2.358
0
LINE
8
BLACK
6
CONTINUOUS
10
1.354
20
2.358
11
1.36068
21
2.35725
0
LINE
8
BLACK
6
CONTINUOUS
10
1.026
20
2.708
11
0.966
21
2.708
0
LINE
8
BLACK
6
CONTINUOUS
10
0.966
20
2.708
11
0.966
21
2.768
0
LINE
8
BLACK
6
CONTINUOUS
10
0.966
20
2.768
11
1.026
21
2.768
0
LINE
8
BLACK
6
CONTINUOUS
10
1.026
20
2.768
11
1.026
21
2.708
0
LINE
8
BLACK
6
CONTINUOUS
10
1.452
20
2.714
11
1.392
21
2.714
0
LINE
8
BLACK
6
CONTINUOUS
10
1.392
20
2.714
11
1.392
21
2.774
0
LINE
8
BLACK
6
CONTINUOUS
10
1.392
20
2.774
11
1.452
21
2.774
0
LINE
8
BLACK
6
CONTINUOUS
10
1.452
20
2.774
11
1.452
21
2.714
0
LINE
8
BLACK
6
CONTINUOUS
10
1.552
20
2.714
11
1.492
21
2.714
0
LINE
8
BLACK
6
CONTINUOUS
10
1.492
20
2.714
11
1.492
21
2.774
0
LINE
8
BLACK
6
CONTINUOUS
10
1.492
20
2.774
11
1.552
21
2.774
0
LINE
8
BLACK
6
CONTINUOUS
10
1.552
20
2.774
11
1.552
21
2.714
0
LINE
8
BLACK
6
CONTINUOUS
10
1.652
20
2.714
11
1.592
21
2.714
0
LINE
8
BLACK
6
CONTINUOUS
10
1.592
20
2.714
11
1.592
21
2.774
0
LINE
8
BLACK
6
CONTINUOUS
10
1.592
20
2.774
11
1.652
21
2.774
0
LINE
8
BLACK
6
CONTINUOUS
10
1.652
20
2.774
11
1.652
21
2.714
0
LINE
8
BLACK
6
CONTINUOUS
10
1.752
20
2.714
11
1.692
21
2.714
0
LINE
8
BLACK
6
CONTINUOUS
10
1.692
20
2.714
11
1.692
21
2.774
0
LINE
8
BLACK
6
CONTINUOUS
10
1.692
20
2.774
11
1.752
21
2.774
0
LINE
8
BLACK
6
CONTINUOUS
10
1.752
20
2.774
11
1.752
21
2.714
0
LINE
8
BLACK
6
CONTINUOUS
10
1.852
20
2.714
11
1.792
21
2.714
0
LINE
8
BLACK
6
CONTINUOUS
10
1.792
20
2.714
11
1.792
21
2.774
0
LINE
8
BLACK
6
CONTINUOUS
10
1.792
20
2.774
11
1.852
21
2.774
0
LINE
8
BLACK
6
CONTINUOUS
10
1.852
20
2.774
11
1.852
21
2.714
0
LINE
8
BLACK
6
CONTINUOUS
10
1.952
20
2.714
11
1.892
21
2.714
0
LINE
8
BLACK
6
CONTINUOUS
10
1.892
20
2.714
11
1.892
21
2.774
0
LINE
8
BLACK
6
CONTINUOUS
10
1.892
20
2.774
11
1.952
21
2.774
0
LINE
8
BLACK
6
CONTINUOUS
10
1.952
20
2.774
11
1.952
21
2.714
0
LINE
8
BLACK
6
CONTINUOUS
10
2.052
20
2.714
11
1.992
21
2.714
0
LINE
8
BLACK
6
CONTINUOUS
10
1.992
20
2.714
11
1.992
21
2.774
0
LINE
8
BLACK
6
CONTINUOUS
10
1.992
20
2.774
11
2.052
21
2.774
0
LINE
8
BLACK
6
CONTINUOUS
10
2.052
20
2.774
11
2.052
21
2.714
0
LINE
8
BLACK
6
CONTINUOUS
10
2.152
20
2.714
11
2.092
21
2.714
0
LINE
8
BLACK
6
CONTINUOUS
10
2.092
20
2.714
11
2.092
21
2.774
0
LINE
8
BLACK
6
CONTINUOUS
10
2.092
20
2.774
11
2.152
21
2.774
0
LINE
8
BLACK
6
CONTINUOUS
10
2.152
20
2.774
11
2.152
21
2.714
0
LINE
8
BLACK
6
CONTINUOUS
10
1.026
20
2.808
11
0.966
21
2.808
0
LINE
8
BLACK
6
CONTINUOUS
10
0.966
20
2.808
11
0.966
21
2.868
0
LINE
8
BLACK
6
CONTINUOUS
10
0.966
20
2.868
11
1.026
21
2.868
0
LINE
8
BLACK
6
CONTINUOUS
10
1.026
20
2.868
11
1.026
21
2.808
0
LINE
8
BLACK
6
CONTINUOUS
10
1.026
20
2.908
11
0.966
21
2.908
0
LINE
8
BLACK
6
CONTINUOUS
10
0.966
20
2.908
11
0.966
21
2.968
0
LINE
8
BLACK
6
CONTINUOUS
10
0.966
20
2.968
11
1.026
21
2.968
0
LINE
8
BLACK
6
CONTINUOUS
10
1.026
20
2.968
11
1.026
21
2.908
0
LINE
8
BLACK
6
CONTINUOUS
10
1.026
20
3.008
11
0.966
21
3.008
0
LINE
8
BLACK
6
CONTINUOUS
10
0.966
20
3.008
11
0.966
21
3.068
0
LINE
8
BLACK
6
CONTINUOUS
10
0.966
20
3.068
11
1.026
21
3.068
0
LINE
8
BLACK
6
CONTINUOUS
10
1.026
20
3.068
11
1.026
21
3.008
0
LINE
8
BLACK
6
CONTINUOUS
10
1.026
20
3.108
11
0.966
21
3.108
0
LINE
8
BLACK
6
CONTINUOUS
10
0.966
20
3.108
11
0.966
21
3.168
0
LINE
8
BLACK
6
CONTINUOUS
10
0.966
20
3.168
11
1.026
21
3.168
0
LINE
8
BLACK
6
CONTINUOUS
10
1.026
20
3.168
11
1.026
21
3.108
0
LINE
8
BLACK
6
CONTINUOUS
10
1.026
20
3.208
11
0.966
21
3.208
0
LINE
8
BLACK
6
CONTINUOUS
10
0.966
20
3.208
11
0.966
21
3.268
0
LINE
8
BLACK
6
CONTINUOUS
10
0.966
20
3.268
11
1.026
21
3.268
0
LINE
8
BLACK
6
CONTINUOUS
10
1.026
20
3.268
11
1.026
21
3.208
0
LINE
8
BLACK
6
CONTINUOUS
10
1.026
20
3.308
11
0.966
21
3.308
0
LINE
8
BLACK
6
CONTINUOUS
10
0.966
20
3.308
11
0.966
21
3.368
0
LINE
8
BLACK
6
CONTINUOUS
10
0.966
20
3.368
11
1.026
21
3.368
0
LINE
8
BLACK
6
CONTINUOUS
10
1.026
20
3.368
11
1.026
21
3.308
0
LINE
8
BLACK
6
CONTINUOUS
10
1.454
20
3.362
11
1.394
21
3.362
0
LINE
8
BLACK
6
CONTINUOUS
10
1.394
20
3.362
11
1.394
21
3.422
0
LINE
8
BLACK
6
CONTINUOUS
10
1.394
20
3.422
11
1.454
21
3.422
0
LINE
8
BLACK
6
CONTINUOUS
10
1.454
20
3.422
11
1.454
21
3.362
0
LINE
8
BLACK
6
CONTINUOUS
10
1.554
20
3.362
11
1.494
21
3.362
0
LINE
8
BLACK
6
CONTINUOUS
10
1.494
20
3.362
11
1.494
21
3.422
0
LINE
8
BLACK
6
CONTINUOUS
10
1.494
20
3.422
11
1.554
21
3.422
0
LINE
8
BLACK
6
CONTINUOUS
10
1.554
20
3.422
11
1.554
21
3.362
0
LINE
8
BLACK
6
CONTINUOUS
10
1.654
20
3.362
11
1.594
21
3.362
0
LINE
8
BLACK
6
CONTINUOUS
10
1.594
20
3.362
11
1.594
21
3.422
0
LINE
8
BLACK
6
CONTINUOUS
10
1.594
20
3.422
11
1.654
21
3.422
0
LINE
8
BLACK
6
CONTINUOUS
10
1.654
20
3.422
11
1.654
21
3.362
0
LINE
8
BLACK
6
CONTINUOUS
10
1.754
20
3.362
11
1.694
21
3.362
0
LINE
8
BLACK
6
CONTINUOUS
10
1.694
20
3.362
11
1.694
21
3.422
0
LINE
8
BLACK
6
CONTINUOUS
10
1.694
20
3.422
11
1.754
21
3.422
0
LINE
8
BLACK
6
CONTINUOUS
10
1.754
20
3.422
11
1.754
21
3.362
0
LINE
8
BLACK
6
CONTINUOUS
10
1.854
20
3.362
11
1.794
21
3.362
0
LINE
8
BLACK
6
CONTINUOUS
10
1.794
20
3.362
11
1.794
21
3.422
0
LINE
8
BLACK
6
CONTINUOUS
10
1.794
20
3.422
11
1.854
21
3.422
0
LINE
8
BLACK
6
CONTINUOUS
10
1.854
20
3.422
11
1.854
21
3.362
0
LINE
8
BLACK
6
CONTINUOUS
10
1.954
20
3.362
11
1.894
21
3.362
0
LINE
8
BLACK
6
CONTINUOUS
10
1.894
20
3.362
11
1.894
21
3.422
0
LINE
8
BLACK
6
CONTINUOUS
10
1.894
20
3.422
11
1.954
21
3.422
0
LINE
8
BLACK
6
CONTINUOUS
10
1.954
20
3.422
11
1.954
21
3.362
0
LINE
8
BLACK
6
CONTINUOUS
10
2.054
20
3.362
11
1.994
21
3.362
0
LINE
8
BLACK
6
CONTINUOUS
10
1.994
20
3.362
11
1.994
21
3.422
0
LINE
8
BLACK
6
CONTINUOUS
10
1.994
20
3.422
11
2.054
21
3.422
0
LINE
8
BLACK
6
CONTINUOUS
10
2.054
20
3.422
11
2.054
21
3.362
0
LINE
8
BLACK
6
CONTINUOUS
10
2.154
20
3.362
11
2.094
21
3.362
0
LINE
8
BLACK
6
CONTINUOUS
10
2.094
20
3.362
11
2.094
21
3.422
0
LINE
8
BLACK
6
CONTINUOUS
10
2.094
20
3.422
11
2.154
21
3.422
0
LINE
8
BLACK
6
CONTINUOUS
10
2.154
20
3.422
11
2.154
21
3.362
0
LINE
8
BLACK
6
CONTINUOUS
10
1.026
20
3.408
11
0.966
21
3.408
0
LINE
8
BLACK
6
CONTINUOUS
10
0.966
20
3.408
11
0.966
21
3.468
0
LINE
8
BLACK
6
CONTINUOUS
10
0.966
20
3.468
11
1.026
21
3.468
0
LINE
8
BLACK
6
CONTINUOUS
10
1.026
20
3.468
11
1.026
21
3.408
0
LINE
8
BLACK
6
CONTINUOUS
10
1.05
20
3.612
11
0.99
21
3.612
0
LINE
8
BLACK
6
CONTINUOUS
10
0.99
20
3.612
11
0.99
21
3.672
0
LINE
8
BLACK
6
CONTINUOUS
10
0.99
20
3.672
11
1.05
21
3.672
0
LINE
8
BLACK
6
CONTINUOUS
10
1.05
20
3.672
11
1.05
21
3.612
0
LINE
8
BLACK
6
CONTINUOUS
10
1.15
20
3.612
11
1.09
21
3.612
0
LINE
8
BLACK
6
CONTINUOUS
10
1.09
20
3.612
11
1.09
21
3.672
0
LINE
8
BLACK
6
CONTINUOUS
10
1.09
20
3.672
11
1.15
21
3.672
0
LINE
8
BLACK
6
CONTINUOUS
10
1.15
20
3.672
11
1.15
21
3.612
0
LINE
8
BLACK
6
CONTINUOUS
10
1.05
20
3.712
11
0.99
21
3.712
0
LINE
8
BLACK
6
CONTINUOUS
10
0.99
20
3.712
11
0.99
21
3.772
0
LINE
8
BLACK
6
CONTINUOUS
10
0.99
20
3.772
11
1.05
21
3.772
0
LINE
8
BLACK
6
CONTINUOUS
10
1.05
20
3.772
11
1.05
21
3.712
0
LINE
8
BLACK
6
CONTINUOUS
10
1.15
20
3.712
11
1.09
21
3.712
0
LINE
8
BLACK
6
CONTINUOUS
10
1.09
20
3.712
11
1.09
21
3.772
0
LINE
8
BLACK
6
CONTINUOUS
10
1.09
20
3.772
11
1.15
21
3.772
0
LINE
8
BLACK
6
CONTINUOUS
10
1.15
20
3.772
11
1.15
21
3.712
0
LINE
8
BLACK
6
CONTINUOUS
10
1.05
20
3.812
11
0.99
21
3.812
0
LINE
8
BLACK
6
CONTINUOUS
10
0.99
20
3.812
11
0.99
21
3.872
0
LINE
8
BLACK
6
CONTINUOUS
10
0.99
20
3.872
11
1.05
21
3.872
0
LINE
8
BLACK
6
CONTINUOUS
10
1.05
20
3.872
11
1.05
21
3.812
0
LINE
8
BLACK
6
CONTINUOUS
10
1.15
20
3.812
11
1.09
21
3.812
0
LINE
8
BLACK
6
CONTINUOUS
10
1.09
20
3.812
11
1.09
21
3.872
0
LINE
8
BLACK
6
CONTINUOUS
10
1.09
20
3.872
11
1.15
21
3.872
0
LINE
8
BLACK
6
CONTINUOUS
10
1.15
20
3.872
11
1.15
21
3.812
0
LINE
8
BLACK
6
CONTINUOUS
10
1.05
20
3.912
11
0.99
21
3.912
0
LINE
8
BLACK
6
CONTINUOUS
10
0.99
20
3.912
11
0.99
21
3.972
0
LINE
8
BLACK
6
CONTINUOUS
10
0.99
20
3.972
11
1.05
21
3.972
0
LINE
8
BLACK
6
CONTINUOUS
10
1.05
20
3.972
11
1.05
21
3.912
0
LINE
8
BLACK
6
CONTINUOUS
10
1.15
20
3.912
11
1.09
21
3.912
0
LINE
8
BLACK
6
CONTINUOUS
10
1.09
20
3.912
11
1.09
21
3.972
0
LINE
8
BLACK
6
CONTINUOUS
10
1.09
20
3.972
11
1.15
21
3.972
0
LINE
8
BLACK
6
CONTINUOUS
10
1.15
20
3.972
11
1.15
21
3.912
0
LINE
8
BLACK
6
CONTINUOUS
10
1.78543
20
4.06457
11
1.71457
21
4.06457
0
LINE
8
BLACK
6
CONTINUOUS
10
1.71457
20
4.06457
11
1.71457
21
4.13543
0
LINE
8
BLACK
6
CONTINUOUS
10
1.71457
20
4.13543
11
1.78543
21
4.13543
0
LINE
8
BLACK
6
CONTINUOUS
10
1.78543
20
4.13543
11
1.78543
21
4.06457
0
LINE
8
BLACK
6
CONTINUOUS
10
1.86095
20
4.1337
11
1.86772
21
4.13069
0
LINE
8
BLACK
6
CONTINUOUS
10
1.86772
20
4.13069
11
1.87371
21
4.12633
0
LINE
8
BLACK
6
CONTINUOUS
10
1.87371
20
4.12633
11
1.87867
21
4.12083
0
LINE
8
BLACK
6
CONTINUOUS
10
1.87867
20
4.12083
11
1.88237
21
4.11441
0
LINE
8
BLACK
6
CONTINUOUS
10
1.88237
20
4.11441
11
1.88466
21
4.10737
0
LINE
8
BLACK
6
CONTINUOUS
10
1.88466
20
4.10737
11
1.88543
21
4.1
0
LINE
8
BLACK
6
CONTINUOUS
10
1.88543
20
4.1
11
1.88466
21
4.09263
0
LINE
8
BLACK
6
CONTINUOUS
10
1.88466
20
4.09263
11
1.88237
21
4.08559
0
LINE
8
BLACK
6
CONTINUOUS
10
1.88237
20
4.08559
11
1.87867
21
4.07917
0
LINE
8
BLACK
6
CONTINUOUS
10
1.87867
20
4.07917
11
1.87371
21
4.07367
0
LINE
8
BLACK
6
CONTINUOUS
10
1.87371
20
4.07367
11
1.86772
21
4.06931
0
LINE
8
BLACK
6
CONTINUOUS
10
1.86772
20
4.06931
11
1.86095
21
4.0663
0
LINE
8
BLACK
6
CONTINUOUS
10
1.86095
20
4.0663
11
1.8537
21
4.06476
0
LINE
8
BLACK
6
CONTINUOUS
10
1.8537
20
4.06476
11
1.8463
21
4.06476
0
LINE
8
BLACK
6
CONTINUOUS
10
1.8463
20
4.06476
11
1.83905
21
4.0663
0
LINE
8
BLACK
6
CONTINUOUS
10
1.83905
20
4.0663
11
1.83228
21
4.06931
0
LINE
8
BLACK
6
CONTINUOUS
10
1.83228
20
4.06931
11
1.82629
21
4.07367
0
LINE
8
BLACK
6
CONTINUOUS
10
1.82629
20
4.07367
11
1.82133
21
4.07917
0
LINE
8
BLACK
6
CONTINUOUS
10
1.82133
20
4.07917
11
1.81763
21
4.08559
0
LINE
8
BLACK
6
CONTINUOUS
10
1.81763
20
4.08559
11
1.81534
21
4.09263
0
LINE
8
BLACK
6
CONTINUOUS
10
1.81534
20
4.09263
11
1.81457
21
4.1
0
LINE
8
BLACK
6
CONTINUOUS
10
1.81457
20
4.1
11
1.81534
21
4.10737
0
LINE
8
BLACK
6
CONTINUOUS
10
1.81534
20
4.10737
11
1.81763
21
4.11441
0
LINE
8
BLACK
6
CONTINUOUS
10
1.81763
20
4.11441
11
1.82133
21
4.12083
0
LINE
8
BLACK
6
CONTINUOUS
10
1.82133
20
4.12083
11
1.82629
21
4.12633
0
LINE
8
BLACK
6
CONTINUOUS
10
1.82629
20
4.12633
11
1.83228
21
4.13069
0
LINE
8
BLACK
6
CONTINUOUS
10
1.83228
20
4.13069
11
1.83905
21
4.1337
0
LINE
8
BLACK
6
CONTINUOUS
10
1.83905
20
4.1337
11
1.8463
21
4.13524
0
LINE
8
BLACK
6
CONTINUOUS
10
1.8463
20
4.13524
11
1.8537
21
4.13524
0
LINE
8
BLACK
6
CONTINUOUS
10
1.8537
20
4.13524
11
1.86095
21
4.1337
0
LINE
8
BLACK
6
CONTINUOUS
10
1.10424
20
4.31726
11
1.11761
21
4.31409
0
LINE
8
BLACK
6
CONTINUOUS
10
1.11761
20
4.31409
11
1.13051
21
4.3094
0
LINE
8
BLACK
6
CONTINUOUS
10
1.13051
20
4.3094
11
1.14279
21
4.30323
0
LINE
8
BLACK
6
CONTINUOUS
10
1.14279
20
4.30323
11
1.15426
21
4.29568
0
LINE
8
BLACK
6
CONTINUOUS
10
1.15426
20
4.29568
11
1.16478
21
4.28686
0
LINE
8
BLACK
6
CONTINUOUS
10
1.16478
20
4.28686
11
1.17421
21
4.27686
0
LINE
8
BLACK
6
CONTINUOUS
10
1.17421
20
4.27686
11
1.18241
21
4.26585
0
LINE
8
BLACK
6
CONTINUOUS
10
1.18241
20
4.26585
11
1.18928
21
4.25395
0
LINE
8
BLACK
6
CONTINUOUS
10
1.18928
20
4.25395
11
1.19472
21
4.24134
0
LINE
8
BLACK
6
CONTINUOUS
10
1.19472
20
4.24134
11
1.19866
21
4.22818
0
LINE
8
BLACK
6
CONTINUOUS
10
1.19866
20
4.22818
11
1.20104
21
4.21466
0
LINE
8
BLACK
6
CONTINUOUS
10
1.20104
20
4.21466
11
1.20184
21
4.20094
0
LINE
8
BLACK
6
CONTINUOUS
10
1.20184
20
4.20094
11
1.20104
21
4.18723
0
LINE
8
BLACK
6
CONTINUOUS
10
1.20104
20
4.18723
11
1.19866
21
4.17371
0
LINE
8
BLACK
6
CONTINUOUS
10
1.19866
20
4.17371
11
1.19472
21
4.16055
0
LINE
8
BLACK
6
CONTINUOUS
10
1.19472
20
4.16055
11
1.18928
21
4.14794
0
LINE
8
BLACK
6
CONTINUOUS
10
1.18928
20
4.14794
11
1.18241
21
4.13604
0
LINE
8
BLACK
6
CONTINUOUS
10
1.18241
20
4.13604
11
1.17421
21
4.12503
0
LINE
8
BLACK
6
CONTINUOUS
10
1.17421
20
4.12503
11
1.16478
21
4.11503
0
LINE
8
BLACK
6
CONTINUOUS
10
1.16478
20
4.11503
11
1.15426
21
4.10621
0
LINE
8
BLACK
6
CONTINUOUS
10
1.15426
20
4.10621
11
1.14279
21
4.09866
0
LINE
8
BLACK
6
CONTINUOUS
10
1.14279
20
4.09866
11
1.13051
21
4.09249
0
LINE
8
BLACK
6
CONTINUOUS
10
1.13051
20
4.09249
11
1.11761
21
4.0878
0
LINE
8
BLACK
6
CONTINUOUS
10
1.11761
20
4.0878
11
1.10424
21
4.08463
0
LINE
8
BLACK
6
CONTINUOUS
10
1.10424
20
4.08463
11
1.0906
21
4.08303
0
LINE
8
BLACK
6
CONTINUOUS
10
1.0906
20
4.08303
11
1.07686
21
4.08303
0
LINE
8
BLACK
6
CONTINUOUS
10
1.07686
20
4.08303
11
1.06322
21
4.08463
0
LINE
8
BLACK
6
CONTINUOUS
10
1.06322
20
4.08463
11
1.04986
21
4.0878
0
LINE
8
BLACK
6
CONTINUOUS
10
1.04986
20
4.0878
11
1.03695
21
4.09249
0
LINE
8
BLACK
6
CONTINUOUS
10
1.03695
20
4.09249
11
1.02468
21
4.09866
0
LINE
8
BLACK
6
CONTINUOUS
10
1.02468
20
4.09866
11
1.0132
21
4.10621
0
LINE
8
BLACK
6
CONTINUOUS
10
1.0132
20
4.10621
11
1.00268
21
4.11503
0
LINE
8
BLACK
6
CONTINUOUS
10
1.00268
20
4.11503
11
0.993255
21
4.12503
0
LINE
8
BLACK
6
CONTINUOUS
10
0.993255
20
4.12503
11
0.985053
21
4.13604
0
LINE
8
BLACK
6
CONTINUOUS
10
0.985053
20
4.13604
11
0.978185
21
4.14794
0
LINE
8
BLACK
6
CONTINUOUS
10
0.978185
20
4.14794
11
0.972745
21
4.16055
0
LINE
8
BLACK
6
CONTINUOUS
10
0.972745
20
4.16055
11
0.968806
21
4.17371
0
LINE
8
BLACK
6
CONTINUOUS
10
0.968806
20
4.17371
11
0.966421
21
4.18723
0
LINE
8
BLACK
6
CONTINUOUS
10
0.966421
20
4.18723
11
0.965622
21
4.20094
0
LINE
8
BLACK
6
CONTINUOUS
10
0.965622
20
4.20094
11
0.966421
21
4.21466
0
LINE
8
BLACK
6
CONTINUOUS
10
0.966421
20
4.21466
11
0.968806
21
4.22818
0
LINE
8
BLACK
6
CONTINUOUS
10
0.968806
20
4.22818
11
0.972745
21
4.24134
0
LINE
8
BLACK
6
CONTINUOUS
10
0.972745
20
4.24134
11
0.978185
21
4.25395
0
LINE
8
BLACK
6
CONTINUOUS
10
0.978185
20
4.25395
11
0.985053
21
4.26585
0
LINE
8
BLACK
6
CONTINUOUS
10
0.985053
20
4.26585
11
0.993255
21
4.27686
0
LINE
8
BLACK
6
CONTINUOUS
10
0.993255
20
4.27686
11
1.00268
21
4.28686
0
LINE
8
BLACK
6
CONTINUOUS
10
1.00268
20
4.28686
11
1.0132
21
4.29568
0
LINE
8
BLACK
6
CONTINUOUS
10
1.0132
20
4.29568
11
1.02468
21
4.30323
0
LINE
8
BLACK
6
CONTINUOUS
10
1.02468
20
4.30323
11
1.03695
21
4.3094
0
LINE
8
BLACK
6
CONTINUOUS
10
1.03695
20
4.3094
11
1.04986
21
4.31409
0
LINE
8
BLACK
6
CONTINUOUS
10
1.04986
20
4.31409
11
1.06322
21
4.31726
0
LINE
8
BLACK
6
CONTINUOUS
10
1.06322
20
4.31726
11
1.07686
21
4.31886
0
LINE
8
BLACK
6
CONTINUOUS
10
1.07686
20
4.31886
11
1.0906
21
4.31886
0
LINE
8
BLACK
6
CONTINUOUS
10
1.0906
20
4.31886
11
1.10424
21
4.31726
0
LINE
8
BLACK
6
CONTINUOUS
10
2.30424
20
4.31726
11
2.31761
21
4.31409
0
LINE
8
BLACK
6
CONTINUOUS
10
2.31761
20
4.31409
11
2.33051
21
4.3094
0
LINE
8
BLACK
6
CONTINUOUS
10
2.33051
20
4.3094
11
2.34279
21
4.30323
0
LINE
8
BLACK
6
CONTINUOUS
10
2.34279
20
4.30323
11
2.35426
21
4.29568
0
LINE
8
BLACK
6
CONTINUOUS
10
2.35426
20
4.29568
11
2.36478
21
4.28686
0
LINE
8
BLACK
6
CONTINUOUS
10
2.36478
20
4.28686
11
2.37421
21
4.27686
0
LINE
8
BLACK
6
CONTINUOUS
10
2.37421
20
4.27686
11
2.38241
21
4.26585
0
LINE
8
BLACK
6
CONTINUOUS
10
2.38241
20
4.26585
11
2.38928
21
4.25395
0
LINE
8
BLACK
6
CONTINUOUS
10
2.38928
20
4.25395
11
2.39472
21
4.24134
0
LINE
8
BLACK
6
CONTINUOUS
10
2.39472
20
4.24134
11
2.39866
21
4.22818
0
LINE
8
BLACK
6
CONTINUOUS
10
2.39866
20
4.22818
11
2.40104
21
4.21466
0
LINE
8
BLACK
6
CONTINUOUS
10
2.40104
20
4.21466
11
2.40184
21
4.20094
0
LINE
8
BLACK
6
CONTINUOUS
10
2.40184
20
4.20094
11
2.40104
21
4.18723
0
LINE
8
BLACK
6
CONTINUOUS
10
2.40104
20
4.18723
11
2.39866
21
4.17371
0
LINE
8
BLACK
6
CONTINUOUS
10
2.39866
20
4.17371
11
2.39472
21
4.16055
0
LINE
8
BLACK
6
CONTINUOUS
10
2.39472
20
4.16055
11
2.38928
21
4.14794
0
LINE
8
BLACK
6
CONTINUOUS
10
2.38928
20
4.14794
11
2.38241
21
4.13604
0
LINE
8
BLACK
6
CONTINUOUS
10
2.38241
20
4.13604
11
2.37421
21
4.12503
0
LINE
8
BLACK
6
CONTINUOUS
10
2.37421
20
4.12503
11
2.36478
21
4.11503
0
LINE
8
BLACK
6
CONTINUOUS
10
2.36478
20
4.11503
11
2.35426
21
4.10621
0
LINE
8
BLACK
6
CONTINUOUS
10
2.35426
20
4.10621
11
2.34279
21
4.09866
0
LINE
8
BLACK
6
CONTINUOUS
10
2.34279
20
4.09866
11
2.33051
21
4.09249
0
LINE
8
BLACK
6
CONTINUOUS
10
2.33051
20
4.09249
11
2.31761
21
4.0878
0
LINE
8
BLACK
6
CONTINUOUS
10
2.31761
20
4.0878
11
2.30424
21
4.08463
0
LINE
8
BLACK
6
CONTINUOUS
10
2.30424
20
4.08463
11
2.2906
21
4.08303
0
LINE
8
BLACK
6
CONTINUOUS
10
2.2906
20
4.08303
11
2.27686
21
4.08303
0
LINE
8
BLACK
6
CONTINUOUS
10
2.27686
20
4.08303
11
2.26322
21
4.08463
0
LINE
8
BLACK
6
CONTINUOUS
10
2.26322
20
4.08463
11
2.24986
21
4.0878
0
LINE
8
BLACK
6
CONTINUOUS
10
2.24986
20
4.0878
11
2.23695
21
4.09249
0
LINE
8
BLACK
6
CONTINUOUS
10
2.23695
20
4.09249
11
2.22468
21
4.09866
0
LINE
8
BLACK
6
CONTINUOUS
10
2.22468
20
4.09866
11
2.2132
21
4.10621
0
LINE
8
BLACK
6
CONTINUOUS
10
2.2132
20
4.10621
11
2.20268
21
4.11503
0
LINE
8
BLACK
6
CONTINUOUS
10
2.20268
20
4.11503
11
2.19325
21
4.12503
0
LINE
8
BLACK
6
CONTINUOUS
10
2.19325
20
4.12503
11
2.18505
21
4.13604
0
LINE
8
BLACK
6
CONTINUOUS
10
2.18505
20
4.13604
11
2.17819
21
4.14794
0
LINE
8
BLACK
6
CONTINUOUS
10
2.17819
20
4.14794
11
2.17274
21
4.16055
0
LINE
8
BLACK
6
CONTINUOUS
10
2.17274
20
4.16055
11
2.16881
21
4.17371
0
LINE
8
BLACK
6
CONTINUOUS
10
2.16881
20
4.17371
11
2.16642
21
4.18723
0
LINE
8
BLACK
6
CONTINUOUS
10
2.16642
20
4.18723
11
2.16562
21
4.20094
0
LINE
8
BLACK
6
CONTINUOUS
10
2.16562
20
4.20094
11
2.16642
21
4.21466
0
LINE
8
BLACK
6
CONTINUOUS
10
2.16642
20
4.21466
11
2.16881
21
4.22818
0
LINE
8
BLACK
6
CONTINUOUS
10
2.16881
20
4.22818
11
2.17274
21
4.24134
0
LINE
8
BLACK
6
CONTINUOUS
10
2.17274
20
4.24134
11
2.17819
21
4.25395
0
LINE
8
BLACK
6
CONTINUOUS
10
2.17819
20
4.25395
11
2.18505
21
4.26585
0
LINE
8
BLACK
6
CONTINUOUS
10
2.18505
20
4.26585
11
2.19325
21
4.27686
0
LINE
8
BLACK
6
CONTINUOUS
10
2.19325
20
4.27686
11
2.20268
21
4.28686
0
LINE
8
BLACK
6
CONTINUOUS
10
2.20268
20
4.28686
11
2.2132
21
4.29568
0
LINE
8
BLACK
6
CONTINUOUS
10
2.2132
20
4.29568
11
2.22468
21
4.30323
0
LINE
8
BLACK
6
CONTINUOUS
10
2.22468
20
4.30323
11
2.23695
21
4.3094
0
LINE
8
BLACK
6
CONTINUOUS
10
2.23695
20
4.3094
11
2.24986
21
4.31409
0
LINE
8
BLACK
6
CONTINUOUS
10
2.24986
20
4.31409
11
2.26322
21
4.31726
0
LINE
8
BLACK
6
CONTINUOUS
10
2.26322
20
4.31726
11
2.27686
21
4.31886
0
LINE
8
BLACK
6
CONTINUOUS
10
2.27686
20
4.31886
11
2.2906
21
4.31886
0
LINE
8
BLACK
6
CONTINUOUS
10
2.2906
20
4.31886
11
2.30424
21
4.31726
0
LINE
8
BLACK
6
CONTINUOUS
10
1.40368
20
4.99046
11
1.41107
21
4.98822
0
LINE
8
BLACK
6
CONTINUOUS
10
1.41107
20
4.98822
11
1.41787
21
4.98458
0
LINE
8
BLACK
6
CONTINUOUS
10
1.41787
20
4.98458
11
1.42384
21
4.97968
0
LINE
8
BLACK
6
CONTINUOUS
10
1.42384
20
4.97968
11
1.42874
21
4.97372
0
LINE
8
BLACK
6
CONTINUOUS
10
1.42874
20
4.97372
11
1.43237
21
4.96691
0
LINE
8
BLACK
6
CONTINUOUS
10
1.43237
20
4.96691
11
1.43461
21
4.95952
0
LINE
8
BLACK
6
CONTINUOUS
10
1.43461
20
4.95952
11
1.43537
21
4.95184
0
LINE
8
BLACK
6
CONTINUOUS
10
1.43537
20
4.95184
11
1.43461
21
4.94416
0
LINE
8
BLACK
6
CONTINUOUS
10
1.43461
20
4.94416
11
1.43237
21
4.93678
0
LINE
8
BLACK
6
CONTINUOUS
10
1.43237
20
4.93678
11
1.42874
21
4.92997
0
LINE
8
BLACK
6
CONTINUOUS
10
1.42874
20
4.92997
11
1.42384
21
4.924
0
LINE
8
BLACK
6
CONTINUOUS
10
1.42384
20
4.924
11
1.41787
21
4.91911
0
LINE
8
BLACK
6
CONTINUOUS
10
1.41787
20
4.91911
11
1.41107
21
4.91547
0
LINE
8
BLACK
6
CONTINUOUS
10
1.41107
20
4.91547
11
1.40368
21
4.91323
0
LINE
8
BLACK
6
CONTINUOUS
10
1.40368
20
4.91323
11
1.396
21
4.91247
0
LINE
8
BLACK
6
CONTINUOUS
10
1.396
20
4.91247
11
1.38832
21
4.91323
0
LINE
8
BLACK
6
CONTINUOUS
10
1.38832
20
4.91323
11
1.38093
21
4.91547
0
LINE
8
BLACK
6
CONTINUOUS
10
1.38093
20
4.91547
11
1.37413
21
4.91911
0
LINE
8
BLACK
6
CONTINUOUS
10
1.37413
20
4.91911
11
1.36816
21
4.924
0
LINE
8
BLACK
6
CONTINUOUS
10
1.36816
20
4.924
11
1.36326
21
4.92997
0
LINE
8
BLACK
6
CONTINUOUS
10
1.36326
20
4.92997
11
1.35963
21
4.93678
0
LINE
8
BLACK
6
CONTINUOUS
10
1.35963
20
4.93678
11
1.35739
21
4.94416
0
LINE
8
BLACK
6
CONTINUOUS
10
1.35739
20
4.94416
11
1.35663
21
4.95184
0
LINE
8
BLACK
6
CONTINUOUS
10
1.35663
20
4.95184
11
1.35739
21
4.95952
0
LINE
8
BLACK
6
CONTINUOUS
10
1.35739
20
4.95952
11
1.35963
21
4.96691
0
LINE
8
BLACK
6
CONTINUOUS
10
1.35963
20
4.96691
11
1.36326
21
4.97372
0
LINE
8
BLACK
6
CONTINUOUS
10
1.36326
20
4.97372
11
1.36816
21
4.97968
0
LINE
8
BLACK
6
CONTINUOUS
10
1.36816
20
4.97968
11
1.37413
21
4.98458
0
LINE
8
BLACK
6
CONTINUOUS
10
1.37413
20
4.98458
11
1.38093
21
4.98822
0
LINE
8
BLACK
6
CONTINUOUS
10
1.38093
20
4.98822
11
1.38832
21
4.99046
0
LINE
8
BLACK
6
CONTINUOUS
10
1.38832
20
4.99046
11
1.396
21
4.99121
0
LINE
8
BLACK
6
CONTINUOUS
10
1.396
20
4.99121
11
1.40368
21
4.99046
0
LINE
8
BLACK
6
CONTINUOUS
10
1.60368
20
4.99046
11
1.61107
21
4.98822
0
LINE
8
BLACK
6
CONTINUOUS
10
1.61107
20
4.98822
11
1.61787
21
4.98458
0
LINE
8
BLACK
6
CONTINUOUS
10
1.61787
20
4.98458
11
1.62384
21
4.97968
0
LINE
8
BLACK
6
CONTINUOUS
10
1.62384
20
4.97968
11
1.62874
21
4.97372
0
LINE
8
BLACK
6
CONTINUOUS
10
1.62874
20
4.97372
11
1.63237
21
4.96691
0
LINE
8
BLACK
6
CONTINUOUS
10
1.63237
20
4.96691
11
1.63461
21
4.95952
0
LINE
8
BLACK
6
CONTINUOUS
10
1.63461
20
4.95952
11
1.63537
21
4.95184
0
LINE
8
BLACK
6
CONTINUOUS
10
1.63537
20
4.95184
11
1.63461
21
4.94416
0
LINE
8
BLACK
6
CONTINUOUS
10
1.63461
20
4.94416
11
1.63237
21
4.93678
0
LINE
8
BLACK
6
CONTINUOUS
10
1.63237
20
4.93678
11
1.62874
21
4.92997
0
LINE
8
BLACK
6
CONTINUOUS
10
1.62874
20
4.92997
11
1.62384
21
4.924
0
LINE
8
BLACK
6
CONTINUOUS
10
1.62384
20
4.924
11
1.61787
21
4.91911
0
LINE
8
BLACK
6
CONTINUOUS
10
1.61787
20
4.91911
11
1.61107
21
4.91547
0
LINE
8
BLACK
6
CONTINUOUS
10
1.61107
20
4.91547
11
1.60368
21
4.91323
0
LINE
8
BLACK
6
CONTINUOUS
10
1.60368
20
4.91323
11
1.596
21
4.91247
0
LINE
8
BLACK
6
CONTINUOUS
10
1.596
20
4.91247
11
1.58832
21
4.91323
0
LINE
8
BLACK
6
CONTINUOUS
10
1.58832
20
4.91323
11
1.58093
21
4.91547
0
LINE
8
BLACK
6
CONTINUOUS
10
1.58093
20
4.91547
11
1.57413
21
4.91911
0
LINE
8
BLACK
6
CONTINUOUS
10
1.57413
20
4.91911
11
1.56816
21
4.924
0
LINE
8
BLACK
6
CONTINUOUS
10
1.56816
20
4.924
11
1.56326
21
4.92997
0
LINE
8
BLACK
6
CONTINUOUS
10
1.56326
20
4.92997
11
1.55963
21
4.93678
0
LINE
8
BLACK
6
CONTINUOUS
10
1.55963
20
4.93678
11
1.55739
21
4.94416
0
LINE
8
BLACK
6
CONTINUOUS
10
1.55739
20
4.94416
11
1.55663
21
4.95184
0
LINE
8
BLACK
6
CONTINUOUS
10
1.55663
20
4.95184
11
1.55739
21
4.95952
0
LINE
8
BLACK
6
CONTINUOUS
10
1.55739
20
4.95952
11
1.55963
21
4.96691
0
LINE
8
BLACK
6
CONTINUOUS
10
1.55963
20
4.96691
11
1.56326
21
4.97372
0
LINE
8
BLACK
6
CONTINUOUS
10
1.56326
20
4.97372
11
1.56816
21
4.97968
0
LINE
8
BLACK
6
CONTINUOUS
10
1.56816
20
4.97968
11
1.57413
21
4.98458
0
LINE
8
BLACK
6
CONTINUOUS
10
1.57413
20
4.98458
11
1.58093
21
4.98822
0
LINE
8
BLACK
6
CONTINUOUS
10
1.58093
20
4.98822
11
1.58832
21
4.99046
0
LINE
8
BLACK
6
CONTINUOUS
10
1.58832
20
4.99046
11
1.596
21
4.99121
0
LINE
8
BLACK
6
CONTINUOUS
10
1.596
20
4.99121
11
1.60368
21
4.99046
0
LINE
8
BLACK
6
CONTINUOUS
10
1.80368
20
4.99046
11
1.81107
21
4.98822
0
LINE
8
BLACK
6
CONTINUOUS
10
1.81107
20
4.98822
11
1.81787
21
4.98458
0
LINE
8
BLACK
6
CONTINUOUS
10
1.81787
20
4.98458
11
1.82384
21
4.97968
0
LINE
8
BLACK
6
CONTINUOUS
10
1.82384
20
4.97968
11
1.82874
21
4.97372
0
LINE
8
BLACK
6
CONTINUOUS
10
1.82874
20
4.97372
11
1.83237
21
4.96691
0
LINE
8
BLACK
6
CONTINUOUS
10
1.83237
20
4.96691
11
1.83461
21
4.95952
0
LINE
8
BLACK
6
CONTINUOUS
10
1.83461
20
4.95952
11
1.83537
21
4.95184
0
LINE
8
BLACK
6
CONTINUOUS
10
1.83537
20
4.95184
11
1.83461
21
4.94416
0
LINE
8
BLACK
6
CONTINUOUS
10
1.83461
20
4.94416
11
1.83237
21
4.93678
0
LINE
8
BLACK
6
CONTINUOUS
10
1.83237
20
4.93678
11
1.82874
21
4.92997
0
LINE
8
BLACK
6
CONTINUOUS
10
1.82874
20
4.92997
11
1.82384
21
4.924
0
LINE
8
BLACK
6
CONTINUOUS
10
1.82384
20
4.924
11
1.81787
21
4.91911
0
LINE
8
BLACK
6
CONTINUOUS
10
1.81787
20
4.91911
11
1.81107
21
4.91547
0
LINE
8
BLACK
6
CONTINUOUS
10
1.81107
20
4.91547
11
1.80368
21
4.91323
0
LINE
8
BLACK
6
CONTINUOUS
10
1.80368
20
4.91323
11
1.796
21
4.91247
0
LINE
8
BLACK
6
CONTINUOUS
10
1.796
20
4.91247
11
1.78832
21
4.91323
0
LINE
8
BLACK
6
CONTINUOUS
10
1.78832
20
4.91323
11
1.78093
21
4.91547
0
LINE
8
BLACK
6
CONTINUOUS
10
1.78093
20
4.91547
11
1.77413
21
4.91911
0
LINE
8
BLACK
6
CONTINUOUS
10
1.77413
20
4.91911
11
1.76816
21
4.924
0
LINE
8
BLACK
6
CONTINUOUS
10
1.76816
20
4.924
11
1.76326
21
4.92997
0
LINE
8
BLACK
6
CONTINUOUS
10
1.76326
20
4.92997
11
1.75963
21
4.93678
0
LINE
8
BLACK
6
CONTINUOUS
10
1.75963
20
4.93678
11
1.75739
21
4.94416
0
LINE
8
BLACK
6
CONTINUOUS
10
1.75739
20
4.94416
11
1.75663
21
4.95184
0
LINE
8
BLACK
6
CONTINUOUS
10
1.75663
20
4.95184
11
1.75739
21
4.95952
0
LINE
8
BLACK
6
CONTINUOUS
10
1.75739
20
4.95952
11
1.75963
21
4.96691
0
LINE
8
BLACK
6
CONTINUOUS
10
1.75963
20
4.96691
11
1.76326
21
4.97372
0
LINE
8
BLACK
6
CONTINUOUS
10
1.76326
20
4.97372
11
1.76816
21
4.97968
0
LINE
8
BLACK
6
CONTINUOUS
10
1.76816
20
4.97968
11
1.77413
21
4.98458
0
LINE
8
BLACK
6
CONTINUOUS
10
1.77413
20
4.98458
11
1.78093
21
4.98822
0
LINE
8
BLACK
6
CONTINUOUS
10
1.78093
20
4.98822
11
1.78832
21
4.99046
0
LINE
8
BLACK
6
CONTINUOUS
10
1.78832
20
4.99046
11
1.796
21
4.99121
0
LINE
8
BLACK
6
CONTINUOUS
10
1.796
20
4.99121
11
1.80368
21
4.99046
0
LINE
8
BLACK
6
CONTINUOUS
10
2.00368
20
4.99046
11
2.01107
21
4.98822
0
LINE
8
BLACK
6
CONTINUOUS
10
2.01107
20
4.98822
11
2.01787
21
4.98458
0
LINE
8
BLACK
6
CONTINUOUS
10
2.01787
20
4.98458
11
2.02384
21
4.97968
0
LINE
8
BLACK
6
CONTINUOUS
10
2.02384
20
4.97968
11
2.02874
21
4.97372
0
LINE
8
BLACK
6
CONTINUOUS
10
2.02874
20
4.97372
11
2.03237
21
4.96691
0
LINE
8
BLACK
6
CONTINUOUS
10
2.03237
20
4.96691
11
2.03461
21
4.95952
0
LINE
8
BLACK
6
CONTINUOUS
10
2.03461
20
4.95952
11
2.03537
21
4.95184
0
LINE
8
BLACK
6
CONTINUOUS
10
2.03537
20
4.95184
11
2.03461
21
4.94416
0
LINE
8
BLACK
6
CONTINUOUS
10
2.03461
20
4.94416
11
2.03237
21
4.93678
0
LINE
8
BLACK
6
CONTINUOUS
10
2.03237
20
4.93678
11
2.02874
21
4.92997
0
LINE
8
BLACK
6
CONTINUOUS
10
2.02874
20
4.92997
11
2.02384
21
4.924
0
LINE
8
BLACK
6
CONTINUOUS
10
2.02384
20
4.924
11
2.01787
21
4.91911
0
LINE
8
BLACK
6
CONTINUOUS
10
2.01787
20
4.91911
11
2.01107
21
4.91547
0
LINE
8
BLACK
6
CONTINUOUS
10
2.01107
20
4.91547
11
2.00368
21
4.91323
0
LINE
8
BLACK
6
CONTINUOUS
10
2.00368
20
4.91323
11
1.996
21
4.91247
0
LINE
8
BLACK
6
CONTINUOUS
10
1.996
20
4.91247
11
1.98832
21
4.91323
0
LINE
8
BLACK
6
CONTINUOUS
10
1.98832
20
4.91323
11
1.98093
21
4.91547
0
LINE
8
BLACK
6
CONTINUOUS
10
1.98093
20
4.91547
11
1.97413
21
4.91911
0
LINE
8
BLACK
6
CONTINUOUS
10
1.97413
20
4.91911
11
1.96816
21
4.924
0
LINE
8
BLACK
6
CONTINUOUS
10
1.96816
20
4.924
11
1.96326
21
4.92997
0
LINE
8
BLACK
6
CONTINUOUS
10
1.96326
20
4.92997
11
1.95963
21
4.93678
0
LINE
8
BLACK
6
CONTINUOUS
10
1.95963
20
4.93678
11
1.95739
21
4.94416
0
LINE
8
BLACK
6
CONTINUOUS
10
1.95739
20
4.94416
11
1.95663
21
4.95184
0
LINE
8
BLACK
6
CONTINUOUS
10
1.95663
20
4.95184
11
1.95739
21
4.95952
0
LINE
8
BLACK
6
CONTINUOUS
10
1.95739
20
4.95952
11
1.95963
21
4.96691
0
LINE
8
BLACK
6
CONTINUOUS
10
1.95963
20
4.96691
11
1.96326
21
4.97372
0
LINE
8
BLACK
6
CONTINUOUS
10
1.96326
20
4.97372
11
1.96816
21
4.97968
0
LINE
8
BLACK
6
CONTINUOUS
10
1.96816
20
4.97968
11
1.97413
21
4.98458
0
LINE
8
BLACK
6
CONTINUOUS
10
1.97413
20
4.98458
11
1.98093
21
4.98822
0
LINE
8
BLACK
6
CONTINUOUS
10
1.98093
20
4.98822
11
1.98832
21
4.99046
0
LINE
8
BLACK
6
CONTINUOUS
10
1.98832
20
4.99046
11
1.996
21
4.99121
0
LINE
8
BLACK
6
CONTINUOUS
10
1.996
20
4.99121
11
2.00368
21
4.99046
0
LINE
8
BLACK
6
CONTINUOUS
10
2.20368
20
4.99046
11
2.21107
21
4.98822
0
LINE
8
BLACK
6
CONTINUOUS
10
2.21107
20
4.98822
11
2.21787
21
4.98458
0
LINE
8
BLACK
6
CONTINUOUS
10
2.21787
20
4.98458
11
2.22384
21
4.97968
0
LINE
8
BLACK
6
CONTINUOUS
10
2.22384
20
4.97968
11
2.22874
21
4.97372
0
LINE
8
BLACK
6
CONTINUOUS
10
2.22874
20
4.97372
11
2.23237
21
4.96691
0
LINE
8
BLACK
6
CONTINUOUS
10
2.23237
20
4.96691
11
2.23461
21
4.95952
0
LINE
8
BLACK
6
CONTINUOUS
10
2.23461
20
4.95952
11
2.23537
21
4.95184
0
LINE
8
BLACK
6
CONTINUOUS
10
2.23537
20
4.95184
11
2.23461
21
4.94416
0
LINE
8
BLACK
6
CONTINUOUS
10
2.23461
20
4.94416
11
2.23237
21
4.93678
0
LINE
8
BLACK
6
CONTINUOUS
10
2.23237
20
4.93678
11
2.22874
21
4.92997
0
LINE
8
BLACK
6
CONTINUOUS
10
2.22874
20
4.92997
11
2.22384
21
4.924
0
LINE
8
BLACK
6
CONTINUOUS
10
2.22384
20
4.924
11
2.21787
21
4.91911
0
LINE
8
BLACK
6
CONTINUOUS
10
2.21787
20
4.91911
11
2.21107
21
4.91547
0
LINE
8
BLACK
6
CONTINUOUS
10
2.21107
20
4.91547
11
2.20368
21
4.91323
0
LINE
8
BLACK
6
CONTINUOUS
10
2.20368
20
4.91323
11
2.196
21
4.91247
0
LINE
8
BLACK
6
CONTINUOUS
10
2.196
20
4.91247
11
2.18832
21
4.91323
0
LINE
8
BLACK
6
CONTINUOUS
10
2.18832
20
4.91323
11
2.18093
21
4.91547
0
LINE
8
BLACK
6
CONTINUOUS
10
2.18093
20
4.91547
11
2.17413
21
4.91911
0
LINE
8
BLACK
6
CONTINUOUS
10
2.17413
20
4.91911
11
2.16816
21
4.924
0
LINE
8
BLACK
6
CONTINUOUS
10
2.16816
20
4.924
11
2.16326
21
4.92997
0
LINE
8
BLACK
6
CONTINUOUS
10
2.16326
20
4.92997
11
2.15963
21
4.93678
0
LINE
8
BLACK
6
CONTINUOUS
10
2.15963
20
4.93678
11
2.15739
21
4.94416
0
LINE
8
BLACK
6
CONTINUOUS
10
2.15739
20
4.94416
11
2.15663
21
4.95184
0
LINE
8
BLACK
6
CONTINUOUS
10
2.15663
20
4.95184
11
2.15739
21
4.95952
0
LINE
8
BLACK
6
CONTINUOUS
10
2.15739
20
4.95952
11
2.15963
21
4.96691
0
LINE
8
BLACK
6
CONTINUOUS
10
2.15963
20
4.96691
11
2.16326
21
4.97372
0
LINE
8
BLACK
6
CONTINUOUS
10
2.16326
20
4.97372
11
2.16816
21
4.97968
0
LINE
8
BLACK
6
CONTINUOUS
10
2.16816
20
4.97968
11
2.17413
21
4.98458
0
LINE
8
BLACK
6
CONTINUOUS
10
2.17413
20
4.98458
11
2.18093
21
4.98822
0
LINE
8
BLACK
6
CONTINUOUS
10
2.18093
20
4.98822
11
2.18832
21
4.99046
0
LINE
8
BLACK
6
CONTINUOUS
10
2.18832
20
4.99046
11
2.196
21
4.99121
0
LINE
8
BLACK
6
CONTINUOUS
10
2.196
20
4.99121
11
2.20368
21
4.99046
0
LINE
8
BLACK
6
CONTINUOUS
10
0.22051
20
5.51632
11
0.233874
21
5.51315
0
LINE
8
BLACK
6
CONTINUOUS
10
0.233874
20
5.51315
11
0.246781
21
5.50845
0
LINE
8
BLACK
6
CONTINUOUS
10
0.246781
20
5.50845
11
0.259055
21
5.50229
0
LINE
8
BLACK
6
CONTINUOUS
10
0.259055
20
5.50229
11
0.270531
21
5.49474
0
LINE
8
BLACK
6
CONTINUOUS
10
0.270531
20
5.49474
11
0.281052
21
5.48591
0
LINE
8
BLACK
6
CONTINUOUS
10
0.281052
20
5.48591
11
0.290478
21
5.47592
0
LINE
8
BLACK
6
CONTINUOUS
10
0.290478
20
5.47592
11
0.29868
21
5.4649
0
LINE
8
BLACK
6
CONTINUOUS
10
0.29868
20
5.4649
11
0.305547
21
5.45301
0
LINE
8
BLACK
6
CONTINUOUS
10
0.305547
20
5.45301
11
0.310987
21
5.4404
0
LINE
8
BLACK
6
CONTINUOUS
10
0.310987
20
5.4404
11
0.314927
21
5.42724
0
LINE
8
BLACK
6
CONTINUOUS
10
0.314927
20
5.42724
11
0.317312
21
5.41371
0
LINE
8
BLACK
6
CONTINUOUS
10
0.317312
20
5.41371
11
0.31811
21
5.4
0
LINE
8
BLACK
6
CONTINUOUS
10
0.31811
20
5.4
11
0.317312
21
5.38629
0
LINE
8
BLACK
6
CONTINUOUS
10
0.317312
20
5.38629
11
0.314927
21
5.37276
0
LINE
8
BLACK
6
CONTINUOUS
10
0.314927
20
5.37276
11
0.310987
21
5.3596
0
LINE
8
BLACK
6
CONTINUOUS
10
0.310987
20
5.3596
11
0.305547
21
5.34699
0
LINE
8
BLACK
6
CONTINUOUS
10
0.305547
20
5.34699
11
0.29868
21
5.3351
0
LINE
8
BLACK
6
CONTINUOUS
10
0.29868
20
5.3351
11
0.290478
21
5.32408
0
LINE
8
BLACK
6
CONTINUOUS
10
0.290478
20
5.32408
11
0.281052
21
5.31409
0
LINE
8
BLACK
6
CONTINUOUS
10
0.281052
20
5.31409
11
0.270531
21
5.30526
0
LINE
8
BLACK
6
CONTINUOUS
10
0.270531
20
5.30526
11
0.259055
21
5.29771
0
LINE
8
BLACK
6
CONTINUOUS
10
0.259055
20
5.29771
11
0.246781
21
5.29155
0
LINE
8
BLACK
6
CONTINUOUS
10
0.246781
20
5.29155
11
0.233874
21
5.28685
0
LINE
8
BLACK
6
CONTINUOUS
10
0.233874
20
5.28685
11
0.22051
21
5.28368
0
LINE
8
BLACK
6
CONTINUOUS
10
0.22051
20
5.28368
11
0.206867
21
5.28209
0
LINE
8
BLACK
6
CONTINUOUS
10
0.206867
20
5.28209
11
0.193133
21
5.28209
0
LINE
8
BLACK
6
CONTINUOUS
10
0.193133
20
5.28209
11
0.17949
21
5.28368
0
LINE
8
BLACK
6
CONTINUOUS
10
0.17949
20
5.28368
11
0.166126
21
5.28685
0
LINE
8
BLACK
6
CONTINUOUS
10
0.166126
20
5.28685
11
0.153219
21
5.29155
0
LINE
8
BLACK
6
CONTINUOUS
10
0.153219
20
5.29155
11
0.140945
21
5.29771
0
LINE
8
BLACK
6
CONTINUOUS
10
0.140945
20
5.29771
11
0.129469
21
5.30526
0
LINE
8
BLACK
6
CONTINUOUS
10
0.129469
20
5.30526
11
0.118948
21
5.31409
0
LINE
8
BLACK
6
CONTINUOUS
10
0.118948
20
5.31409
11
0.109522
21
5.32408
0
LINE
8
BLACK
6
CONTINUOUS
10
0.109522
20
5.32408
11
0.10132
21
5.3351
0
LINE
8
BLACK
6
CONTINUOUS
10
0.10132
20
5.3351
11
0.0944528
21
5.34699
0
LINE
8
BLACK
6
CONTINUOUS
10
0.0944528
20
5.34699
11
0.0890127
21
5.3596
0
LINE
8
BLACK
6
CONTINUOUS
10
0.0890127
20
5.3596
11
0.0850734
21
5.37276
0
LINE
8
BLACK
6
CONTINUOUS
10
0.0850734
20
5.37276
11
0.0826884
21
5.38629
0
LINE
8
BLACK
6
CONTINUOUS
10
0.0826884
20
5.38629
11
0.0818898
21
5.4
0
LINE
8
BLACK
6
CONTINUOUS
10
0.0818898
20
5.4
11
0.0826884
21
5.41371
0
LINE
8
BLACK
6
CONTINUOUS
10
0.0826884
20
5.41371
11
0.0850734
21
5.42724
0
LINE
8
BLACK
6
CONTINUOUS
10
0.0850734
20
5.42724
11
0.0890127
21
5.4404
0
LINE
8
BLACK
6
CONTINUOUS
10
0.0890127
20
5.4404
11
0.0944528
21
5.45301
0
LINE
8
BLACK
6
CONTINUOUS
10
0.0944528
20
5.45301
11
0.10132
21
5.4649
0
LINE
8
BLACK
6
CONTINUOUS
10
0.10132
20
5.4649
11
0.109522
21
5.47592
0
LINE
8
BLACK
6
CONTINUOUS
10
0.109522
20
5.47592
11
0.118948
21
5.48591
0
LINE
8
BLACK
6
CONTINUOUS
10
0.118948
20
5.48591
11
0.129469
21
5.49474
0
LINE
8
BLACK
6
CONTINUOUS
10
0.129469
20
5.49474
11
0.140945
21
5.50229
0
LINE
8
BLACK
6
CONTINUOUS
10
0.140945
20
5.50229
11
0.153219
21
5.50845
0
LINE
8
BLACK
6
CONTINUOUS
10
0.153219
20
5.50845
11
0.166126
21
5.51315
0
LINE
8
BLACK
6
CONTINUOUS
10
0.166126
20
5.51315
11
0.17949
21
5.51632
0
LINE
8
BLACK
6
CONTINUOUS
10
0.17949
20
5.51632
11
0.193133
21
5.51791
0
LINE
8
BLACK
6
CONTINUOUS
10
0.193133
20
5.51791
11
0.206867
21
5.51791
0
LINE
8
BLACK
6
CONTINUOUS
10
0.206867
20
5.51791
11
0.22051
21
5.51632
0
LINE
8
BLACK
6
CONTINUOUS
10
3.42051
20
5.51632
11
3.43387
21
5.51315
0
LINE
8
BLACK
6
CONTINUOUS
10
3.43387
20
5.51315
11
3.44678
21
5.50845
0
LINE
8
BLACK
6
CONTINUOUS
10
3.44678
20
5.50845
11
3.45906
21
5.50229
0
LINE
8
BLACK
6
CONTINUOUS
10
3.45906
20
5.50229
11
3.47053
21
5.49474
0
LINE
8
BLACK
6
CONTINUOUS
10
3.47053
20
5.49474
11
3.48105
21
5.48591
0
LINE
8
BLACK
6
CONTINUOUS
10
3.48105
20
5.48591
11
3.49048
21
5.47592
0
LINE
8
BLACK
6
CONTINUOUS
10
3.49048
20
5.47592
11
3.49868
21
5.4649
0
LINE
8
BLACK
6
CONTINUOUS
10
3.49868
20
5.4649
11
3.50555
21
5.45301
0
LINE
8
BLACK
6
CONTINUOUS
10
3.50555
20
5.45301
11
3.51099
21
5.4404
0
LINE
8
BLACK
6
CONTINUOUS
10
3.51099
20
5.4404
11
3.51493
21
5.42724
0
LINE
8
BLACK
6
CONTINUOUS
10
3.51493
20
5.42724
11
3.51731
21
5.41371
0
LINE
8
BLACK
6
CONTINUOUS
10
3.51731
20
5.41371
11
3.51811
21
5.4
0
LINE
8
BLACK
6
CONTINUOUS
10
3.51811
20
5.4
11
3.51731
21
5.38629
0
LINE
8
BLACK
6
CONTINUOUS
10
3.51731
20
5.38629
11
3.51493
21
5.37276
0
LINE
8
BLACK
6
CONTINUOUS
10
3.51493
20
5.37276
11
3.51099
21
5.3596
0
LINE
8
BLACK
6
CONTINUOUS
10
3.51099
20
5.3596
11
3.50555
21
5.34699
0
LINE
8
BLACK
6
CONTINUOUS
10
3.50555
20
5.34699
11
3.49868
21
5.3351
0
LINE
8
BLACK
6
CONTINUOUS
10
3.49868
20
5.3351
11
3.49048
21
5.32408
0
LINE
8
BLACK
6
CONTINUOUS
10
3.49048
20
5.32408
11
3.48105
21
5.31409
0
LINE
8
BLACK
6
CONTINUOUS
10
3.48105
20
5.31409
11
3.47053
21
5.30526
0
LINE
8
BLACK
6
CONTINUOUS
10
3.47053
20
5.30526
11
3.45906
21
5.29771
0
LINE
8
BLACK
6
CONTINUOUS
10
3.45906
20
5.29771
11
3.44678
21
5.29155
0
LINE
8
BLACK
6
CONTINUOUS
10
3.44678
20
5.29155
11
3.43387
21
5.28685
0
LINE
8
BLACK
6
CONTINUOUS
10
3.43387
20
5.28685
11
3.42051
21
5.28368
0
LINE
8
BLACK
6
CONTINUOUS
10
3.42051
20
5.28368
11
3.40687
21
5.28209
0
LINE
8
BLACK
6
CONTINUOUS
10
3.40687
20
5.28209
11
3.39313
21
5.28209
0
LINE
8
BLACK
6
CONTINUOUS
10
3.39313
20
5.28209
11
3.37949
21
5.28368
0
LINE
8
BLACK
6
CONTINUOUS
10
3.37949
20
5.28368
11
3.36613
21
5.28685
0
LINE
8
BLACK
6
CONTINUOUS
10
3.36613
20
5.28685
11
3.35322
21
5.29155
0
LINE
8
BLACK
6
CONTINUOUS
10
3.35322
20
5.29155
11
3.34094
21
5.29771
0
LINE
8
BLACK
6
CONTINUOUS
10
3.34094
20
5.29771
11
3.32947
21
5.30526
0
LINE
8
BLACK
6
CONTINUOUS
10
3.32947
20
5.30526
11
3.31895
21
5.31409
0
LINE
8
BLACK
6
CONTINUOUS
10
3.31895
20
5.31409
11
3.30952
21
5.32408
0
LINE
8
BLACK
6
CONTINUOUS
10
3.30952
20
5.32408
11
3.30132
21
5.3351
0
LINE
8
BLACK
6
CONTINUOUS
10
3.30132
20
5.3351
11
3.29445
21
5.34699
0
LINE
8
BLACK
6
CONTINUOUS
10
3.29445
20
5.34699
11
3.28901
21
5.3596
0
LINE
8
BLACK
6
CONTINUOUS
10
3.28901
20
5.3596
11
3.28507
21
5.37276
0
LINE
8
BLACK
6
CONTINUOUS
10
3.28507
20
5.37276
11
3.28269
21
5.38629
0
LINE
8
BLACK
6
CONTINUOUS
10
3.28269
20
5.38629
11
3.28189
21
5.4
0
LINE
8
BLACK
6
CONTINUOUS
10
3.28189
20
5.4
11
3.28269
21
5.41371
0
LINE
8
BLACK
6
CONTINUOUS
10
3.28269
20
5.41371
11
3.28507
21
5.42724
0
LINE
8
BLACK
6
CONTINUOUS
10
3.28507
20
5.42724
11
3.28901
21
5.4404
0
LINE
8
BLACK
6
CONTINUOUS
10
3.28901
20
5.4404
11
3.29445
21
5.45301
0
LINE
8
BLACK
6
CONTINUOUS
10
3.29445
20
5.45301
11
3.30132
21
5.4649
0
LINE
8
BLACK
6
CONTINUOUS
10
3.30132
20
5.4649
11
3.30952
21
5.47592
0
LINE
8
BLACK
6
CONTINUOUS
10
3.30952
20
5.47592
11
3.31895
21
5.48591
0
LINE
8
BLACK
6
CONTINUOUS
10
3.31895
20
5.48591
11
3.32947
21
5.49474
0
LINE
8
BLACK
6
CONTINUOUS
10
3.32947
20
5.49474
11
3.34094
21
5.50229
0
LINE
8
BLACK
6
CONTINUOUS
10
3.34094
20
5.50229
11
3.35322
21
5.50845
0
LINE
8
BLACK
6
CONTINUOUS
10
3.35322
20
5.50845
11
3.36613
21
5.51315
0
LINE
8
BLACK
6
CONTINUOUS
10
3.36613
20
5.51315
11
3.37949
21
5.51632
0
LINE
8
BLACK
6
CONTINUOUS
10
3.37949
20
5.51632
11
3.39313
21
5.51791
0
LINE
8
BLACK
6
CONTINUOUS
10
3.39313
20
5.51791
11
3.40687
21
5.51791
0
LINE
8
BLACK
6
CONTINUOUS
10
3.40687
20
5.51791
11
3.42051
21
5.51632
0
CIRCLE
8
BLACK
10
0.492
20
0.142
40
0.00688976
0
CIRCLE
8
BLACK
10
0.492
20
0.242
40
0.00688976
0
CIRCLE
8
BLACK
10
0.592
20
0.142
40
0.00688976
0
CIRCLE
8
BLACK
10
0.592
20
0.242
40
0.00688976
0
CIRCLE
8
BLACK
10
0.692
20
0.142
40
0.00688976
0
CIRCLE
8
BLACK
10
0.692
20
0.242
40
0.00688976
0
CIRCLE
8
BLACK
10
0.792
20
0.142
40
0.00688976
0
CIRCLE
8
BLACK
10
0.792
20
0.242
40
0.00688976
0
CIRCLE
8
BLACK
10
1.322
20
0.142
40
0.00688976
0
CIRCLE
8
BLACK
10
1.322
20
0.242
40
0.00688976
0
CIRCLE
8
BLACK
10
1.456
20
1.72
40
0.00688976
0
CIRCLE
8
BLACK
10
1.456
20
1.82
40
0.00688976
0
CIRCLE
8
BLACK
10
1.42
20
0.142
40
0.00688976
0
CIRCLE
8
BLACK
10
1.42
20
0.242
40
0.00688976
0
CIRCLE
8
BLACK
10
1.52
20
0.142
40
0.00688976
0
CIRCLE
8
BLACK
10
1.52
20
0.242
40
0.00688976
0
CIRCLE
8
BLACK
10
1.122
20
0.142
40
0.00688976
0
CIRCLE
8
BLACK
10
1.122
20
0.242
40
0.00688976
0
CIRCLE
8
BLACK
10
0.2
20
5.4
40
0.00688976
0
CIRCLE
8
BLACK
10
1.08373
20
4.20094
40
0.00688976
0
CIRCLE
8
BLACK
10
3.4
20
0.2
40
0.00688976
0
CIRCLE
8
BLACK
10
1.08373
20
1.80094
40
0.00688976
0
CIRCLE
8
BLACK
10
2.28373
20
4.20094
40
0.00688976
0
CIRCLE
8
BLACK
10
3.4
20
5.4
40
0.00688976
0
CIRCLE
8
BLACK
10
2.28373
20
1.80094
40
0.00688976
0
CIRCLE
8
BLACK
10
0.2
20
0.2
40
0.00688976
0
CIRCLE
8
BLACK
10
1.422
20
2.744
40
0.00688976
0
CIRCLE
8
BLACK
10
1.522
20
2.744
40
0.00688976
0
CIRCLE
8
BLACK
10
1.622
20
2.744
40
0.00688976
0
CIRCLE
8
BLACK
10
1.722
20
2.744
40
0.00688976
0
CIRCLE
8
BLACK
10
1.822
20
2.744
40
0.00688976
0
CIRCLE
8
BLACK
10
1.922
20
2.744
40
0.00688976
0
CIRCLE
8
BLACK
10
2.022
20
2.744
40
0.00688976
0
CIRCLE
8
BLACK
10
2.122
20
2.744
40
0.00688976
0
CIRCLE
8
BLACK
10
1.424
20
3.392
40
0.00688976
0
CIRCLE
8
BLACK
10
1.524
20
3.392
40
0.00688976
0
CIRCLE
8
BLACK
10
1.624
20
3.392
40
0.00688976
0
CIRCLE
8
BLACK
10
1.924
20
3.392
40
0.00688976
0
CIRCLE
8
BLACK
10
1.724
20
3.392
40
0.00688976
0
CIRCLE
8
BLACK
10
2.024
20
3.392
40
0.00688976
0
CIRCLE
8
BLACK
10
1.824
20
3.392
40
0.00688976
0
CIRCLE
8
BLACK
10
2.124
20
3.392
40
0.00688976
0
CIRCLE
8
BLACK
10
1.02
20
3.942
40
0.00688976
0
CIRCLE
8
BLACK
10
1.12
20
3.942
40
0.00688976
0
CIRCLE
8
BLACK
10
1.02
20
3.842
40
0.00688976
0
CIRCLE
8
BLACK
10
1.12
20
3.842
40
0.00688976
0
CIRCLE
8
BLACK
10
1.02
20
3.742
40
0.00688976
0
CIRCLE
8
BLACK
10
1.12
20
3.742
40
0.00688976
0
CIRCLE
8
BLACK
10
1.02
20
3.642
40
0.00688976
0
CIRCLE
8
BLACK
10
1.12
20
3.642
40
0.00688976
0
CIRCLE
8
BLACK
10
1.556
20
1.72
40
0.00688976
0
CIRCLE
8
BLACK
10
1.556
20
1.82
40
0.00688976
0
CIRCLE
8
BLACK
10
1.222
20
0.142
40
0.00688976
0
CIRCLE
8
BLACK
10
1.222
20
0.242
40
0.00688976
0
CIRCLE
8
BLACK
10
1.656
20
1.72
40
0.00688976
0
CIRCLE
8
BLACK
10
1.656
20
1.82
40
0.00688976
0
CIRCLE
8
BLACK
10
1.756
20
1.72
40
0.00688976
0
CIRCLE
8
BLACK
10
1.756
20
1.82
40
0.00688976
0
CIRCLE
8
BLACK
10
1.916
20
1.72
40
0.00688976
0
CIRCLE
8
BLACK
10
1.916
20
1.82
40
0.00688976
0
CIRCLE
8
BLACK
10
0.996
20
3.438
40
0.00688976
0
CIRCLE
8
BLACK
10
0.996
20
3.138
40
0.00688976
0
CIRCLE
8
BLACK
10
0.996
20
3.338
40
0.00688976
0
CIRCLE
8
BLACK
10
0.996
20
3.238
40
0.00688976
0
CIRCLE
8
BLACK
10
0.996
20
2.938
40
0.00688976
0
CIRCLE
8
BLACK
10
0.996
20
3.038
40
0.00688976
0
CIRCLE
8
BLACK
10
0.996
20
2.838
40
0.00688976
0
CIRCLE
8
BLACK
10
0.996
20
2.738
40
0.00688976
0
CIRCLE
8
BLACK
10
1.75
20
1.5
40
0.00688976
0
CIRCLE
8
BLACK
10
1.85
20
1.5
40
0.00688976
0
CIRCLE
8
BLACK
10
1.75
20
4.1
40
0.00688976
0
CIRCLE
8
BLACK
10
1.85
20
4.1
40
0.00688976
0
CIRCLE
8
BLACK
10
1.396
20
0.692
40
0.00688976
0
CIRCLE
8
BLACK
10
1.596
20
0.692
40
0.00688976
0
CIRCLE
8
BLACK
10
1.796
20
0.692
40
0.00688976
0
CIRCLE
8
BLACK
10
1.996
20
0.692
40
0.00688976
0
CIRCLE
8
BLACK
10
2.196
20
0.692
40
0.00688976
0
CIRCLE
8
BLACK
10
2.196
20
4.95184
40
0.00688976
0
CIRCLE
8
BLACK
10
1.996
20
4.95184
40
0.00688976
0
CIRCLE
8
BLACK
10
1.796
20
4.95184
40
0.00688976
0
CIRCLE
8
BLACK
10
1.596
20
4.95184
40
0.00688976
0
CIRCLE
8
BLACK
10
1.396
20
4.95184
40
0.00688976
0
CIRCLE
8
BLACK
10
1.704
20
1.018
40
0.00688976
0
CIRCLE
8
BLACK
10
1.396
20
1.008
40
0.00688976
0
CIRCLE
8
BLACK
10
0.97
20
2.17
40
0.00688976
0
CIRCLE
8
BLACK
10
1.354
20
2.328
40
0.00688976
0
CIRCLE
8
BLACK
10
1.702
20
1.018
40
0.015748
0
CIRCLE
8
BLACK
10
1.396
20
1.008
40
0.015748
  0
ENDSEC
  0
EOF
