  0
SECTION
  2
HEADER
  9
$ANGBASE
  50
0.0
  9
$ANGDIR
  70
1
  9
$MEASUREMENT
  70
0
  0
ENDSEC
  0
SECTION
  2
TABLES
  0
TABLE
  2
LTYPE
  70
4
  0
LTYPE
  5
40F
  2
CONTINUOUS
  70
0
  3
Solid line
  72
65
  73
0
  40
0.0
  0
LTYPE
  5
410
  2
DASHDOT
 70
0
  3
Dash Dot ____ _ ____ _
 72
65
 73
4
 40
2.0
 49
1.25
 49
-0.25
 49
0.25
 49
-0.25
  0
LTYPE
  5
411
  2
DASHED
 70
0
  3
Dashed __ __ __ __ __
 72
65
 73
2
 40
0.75
 49
0.5
 49
-0.25
  0
LTYPE
  5
43B
  2
DOTTED
 70
0
  3
Dotted .  .  .  .
 72
65
 73
2
 40
0.2
 49
0.0
 49
-0.2
  0
ENDTAB
  0
TABLE
  2
STYLE
  70
4
  0
STYLE
  2
KICAD
  70
0
  40
0
  41
1
  42
1
  50
0
  71
0
  3
isocp.shx
  0
STYLE
  2
KICADB
  70
0
  40
0
  41
1
  42
1
  50
0
  71
0
  3
isocp.shx
  0
STYLE
  2
KICADI
  70
0
  40
0
  41
1
  42
1
  50
15
  71
0
  3
isocp.shx
  0
STYLE
  2
KICADBI
  70
0
  40
0
  41
1
  42
1
  50
15
  71
0
  3
isocp.shx
  0
ENDTAB
  0
TABLE
  2
LAYER
  70
1
  0
LAYER
  2
BLACK
  70
0
  62
7
  6
CONTINUOUS
  0
ENDTAB
  0
ENDSEC
  0
SECTION
  2
ENTITIES
0
LINE
8
BLACK
6
CONTINUOUS
10
1.69508
20
1.2832
11
1.69577
21
1.28131
0
LINE
8
BLACK
6
CONTINUOUS
10
1.69577
20
1.28131
11
1.69577
21
1.24489
0
LINE
8
BLACK
6
CONTINUOUS
10
1.69577
20
1.24489
11
1.71157
21
1.24489
0
LINE
8
BLACK
6
CONTINUOUS
10
1.71157
20
1.24489
11
1.71258
21
1.24471
0
LINE
8
BLACK
6
CONTINUOUS
10
1.71258
20
1.24471
11
1.71412
21
1.24341
0
LINE
8
BLACK
6
CONTINUOUS
10
1.71412
20
1.24341
11
1.71448
21
1.24142
0
LINE
8
BLACK
6
CONTINUOUS
10
1.71448
20
1.24142
11
1.71347
21
1.23967
0
LINE
8
BLACK
6
CONTINUOUS
10
1.71347
20
1.23967
11
1.71157
21
1.23898
0
LINE
8
BLACK
6
CONTINUOUS
10
1.71157
20
1.23898
11
1.69282
21
1.23898
0
LINE
8
BLACK
6
CONTINUOUS
10
1.69282
20
1.23898
11
1.69244
21
1.23905
0
LINE
8
BLACK
6
CONTINUOUS
10
1.69244
20
1.23905
11
1.69231
21
1.23903
0
LINE
8
BLACK
6
CONTINUOUS
10
1.69231
20
1.23903
11
1.69219
21
1.23909
0
LINE
8
BLACK
6
CONTINUOUS
10
1.69219
20
1.23909
11
1.69181
21
1.23916
0
LINE
8
BLACK
6
CONTINUOUS
10
1.69181
20
1.23916
11
1.69122
21
1.23965
0
LINE
8
BLACK
6
CONTINUOUS
10
1.69122
20
1.23965
11
1.69056
21
1.24004
0
LINE
8
BLACK
6
CONTINUOUS
10
1.69056
20
1.24004
11
1.69047
21
1.24029
0
LINE
8
BLACK
6
CONTINUOUS
10
1.69047
20
1.24029
11
1.69026
21
1.24046
0
LINE
8
BLACK
6
CONTINUOUS
10
1.69026
20
1.24046
11
1.69013
21
1.24122
0
LINE
8
BLACK
6
CONTINUOUS
10
1.69013
20
1.24122
11
1.68987
21
1.24194
0
LINE
8
BLACK
6
CONTINUOUS
10
1.68987
20
1.24194
11
1.68987
21
1.28131
0
LINE
8
BLACK
6
CONTINUOUS
10
1.68987
20
1.28131
11
1.69004
21
1.28232
0
LINE
8
BLACK
6
CONTINUOUS
10
1.69004
20
1.28232
11
1.69134
21
1.28386
0
LINE
8
BLACK
6
CONTINUOUS
10
1.69134
20
1.28386
11
1.69333
21
1.28421
0
LINE
8
BLACK
6
CONTINUOUS
10
1.69333
20
1.28421
11
1.69508
21
1.2832
0
LINE
8
BLACK
6
CONTINUOUS
10
1.78757
20
1.28408
11
1.7877
21
1.28397
0
LINE
8
BLACK
6
CONTINUOUS
10
1.7877
20
1.28397
11
1.78788
21
1.28395
0
LINE
8
BLACK
6
CONTINUOUS
10
1.78788
20
1.28395
11
1.79163
21
1.28207
0
LINE
8
BLACK
6
CONTINUOUS
10
1.79163
20
1.28207
11
1.79234
21
1.28155
0
LINE
8
BLACK
6
CONTINUOUS
10
1.79234
20
1.28155
11
1.7924
21
1.28152
0
LINE
8
BLACK
6
CONTINUOUS
10
1.7924
20
1.28152
11
1.79427
21
1.27964
0
LINE
8
BLACK
6
CONTINUOUS
10
1.79427
20
1.27964
11
1.79478
21
1.27892
0
LINE
8
BLACK
6
CONTINUOUS
10
1.79478
20
1.27892
11
1.79482
21
1.27888
0
LINE
8
BLACK
6
CONTINUOUS
10
1.79482
20
1.27888
11
1.7967
21
1.27513
0
LINE
8
BLACK
6
CONTINUOUS
10
1.7967
20
1.27513
11
1.79699
21
1.27414
0
LINE
8
BLACK
6
CONTINUOUS
10
1.79699
20
1.27414
11
1.79695
21
1.27397
0
LINE
8
BLACK
6
CONTINUOUS
10
1.79695
20
1.27397
11
1.79701
21
1.27381
0
LINE
8
BLACK
6
CONTINUOUS
10
1.79701
20
1.27381
11
1.79701
21
1.27193
0
LINE
8
BLACK
6
CONTINUOUS
10
1.79701
20
1.27193
11
1.79683
21
1.27092
0
LINE
8
BLACK
6
CONTINUOUS
10
1.79683
20
1.27092
11
1.79672
21
1.27079
0
LINE
8
BLACK
6
CONTINUOUS
10
1.79672
20
1.27079
11
1.7967
21
1.27061
0
LINE
8
BLACK
6
CONTINUOUS
10
1.7967
20
1.27061
11
1.79482
21
1.26686
0
LINE
8
BLACK
6
CONTINUOUS
10
1.79482
20
1.26686
11
1.7943
21
1.26615
0
LINE
8
BLACK
6
CONTINUOUS
10
1.7943
20
1.26615
11
1.79427
21
1.2661
0
LINE
8
BLACK
6
CONTINUOUS
10
1.79427
20
1.2661
11
1.79261
21
1.26443
0
LINE
8
BLACK
6
CONTINUOUS
10
1.79261
20
1.26443
11
1.79427
21
1.26277
0
LINE
8
BLACK
6
CONTINUOUS
10
1.79427
20
1.26277
11
1.79478
21
1.26205
0
LINE
8
BLACK
6
CONTINUOUS
10
1.79478
20
1.26205
11
1.79482
21
1.262
0
LINE
8
BLACK
6
CONTINUOUS
10
1.79482
20
1.262
11
1.7967
21
1.25825
0
LINE
8
BLACK
6
CONTINUOUS
10
1.7967
20
1.25825
11
1.79699
21
1.25727
0
LINE
8
BLACK
6
CONTINUOUS
10
1.79699
20
1.25727
11
1.79695
21
1.2571
0
LINE
8
BLACK
6
CONTINUOUS
10
1.79695
20
1.2571
11
1.79701
21
1.25693
0
LINE
8
BLACK
6
CONTINUOUS
10
1.79701
20
1.25693
11
1.79701
21
1.24944
0
LINE
8
BLACK
6
CONTINUOUS
10
1.79701
20
1.24944
11
1.79683
21
1.24843
0
LINE
8
BLACK
6
CONTINUOUS
10
1.79683
20
1.24843
11
1.79672
21
1.24829
0
LINE
8
BLACK
6
CONTINUOUS
10
1.79672
20
1.24829
11
1.7967
21
1.24811
0
LINE
8
BLACK
6
CONTINUOUS
10
1.7967
20
1.24811
11
1.79482
21
1.24437
0
LINE
8
BLACK
6
CONTINUOUS
10
1.79482
20
1.24437
11
1.7943
21
1.24366
0
LINE
8
BLACK
6
CONTINUOUS
10
1.7943
20
1.24366
11
1.79427
21
1.2436
0
LINE
8
BLACK
6
CONTINUOUS
10
1.79427
20
1.2436
11
1.7924
21
1.24172
0
LINE
8
BLACK
6
CONTINUOUS
10
1.7924
20
1.24172
11
1.79167
21
1.24122
0
LINE
8
BLACK
6
CONTINUOUS
10
1.79167
20
1.24122
11
1.79163
21
1.24117
0
LINE
8
BLACK
6
CONTINUOUS
10
1.79163
20
1.24117
11
1.78788
21
1.2393
0
LINE
8
BLACK
6
CONTINUOUS
10
1.78788
20
1.2393
11
1.7869
21
1.239
0
LINE
8
BLACK
6
CONTINUOUS
10
1.7869
20
1.239
11
1.78672
21
1.23904
0
LINE
8
BLACK
6
CONTINUOUS
10
1.78672
20
1.23904
11
1.78656
21
1.23898
0
LINE
8
BLACK
6
CONTINUOUS
10
1.78656
20
1.23898
11
1.77906
21
1.23898
0
LINE
8
BLACK
6
CONTINUOUS
10
1.77906
20
1.23898
11
1.77805
21
1.23916
0
LINE
8
BLACK
6
CONTINUOUS
10
1.77805
20
1.23916
11
1.77791
21
1.23927
0
LINE
8
BLACK
6
CONTINUOUS
10
1.77791
20
1.23927
11
1.77774
21
1.2393
0
LINE
8
BLACK
6
CONTINUOUS
10
1.77774
20
1.2393
11
1.77399
21
1.24117
0
LINE
8
BLACK
6
CONTINUOUS
10
1.77399
20
1.24117
11
1.77328
21
1.2417
0
LINE
8
BLACK
6
CONTINUOUS
10
1.77328
20
1.2417
11
1.77322
21
1.24172
0
LINE
8
BLACK
6
CONTINUOUS
10
1.77322
20
1.24172
11
1.77135
21
1.2436
0
LINE
8
BLACK
6
CONTINUOUS
10
1.77135
20
1.2436
11
1.77084
21
1.24432
0
LINE
8
BLACK
6
CONTINUOUS
10
1.77084
20
1.24432
11
1.77079
21
1.24437
0
LINE
8
BLACK
6
CONTINUOUS
10
1.77079
20
1.24437
11
1.76892
21
1.24811
0
LINE
8
BLACK
6
CONTINUOUS
10
1.76892
20
1.24811
11
1.76863
21
1.2491
0
LINE
8
BLACK
6
CONTINUOUS
10
1.76863
20
1.2491
11
1.76867
21
1.24927
0
LINE
8
BLACK
6
CONTINUOUS
10
1.76867
20
1.24927
11
1.76861
21
1.24944
0
LINE
8
BLACK
6
CONTINUOUS
10
1.76861
20
1.24944
11
1.76861
21
1.25693
0
LINE
8
BLACK
6
CONTINUOUS
10
1.76861
20
1.25693
11
1.76879
21
1.25794
0
LINE
8
BLACK
6
CONTINUOUS
10
1.76879
20
1.25794
11
1.7689
21
1.25808
0
LINE
8
BLACK
6
CONTINUOUS
10
1.7689
20
1.25808
11
1.76892
21
1.25825
0
LINE
8
BLACK
6
CONTINUOUS
10
1.76892
20
1.25825
11
1.77079
21
1.262
0
LINE
8
BLACK
6
CONTINUOUS
10
1.77079
20
1.262
11
1.77132
21
1.26271
0
LINE
8
BLACK
6
CONTINUOUS
10
1.77132
20
1.26271
11
1.77135
21
1.26277
0
LINE
8
BLACK
6
CONTINUOUS
10
1.77135
20
1.26277
11
1.77301
21
1.26443
0
LINE
8
BLACK
6
CONTINUOUS
10
1.77301
20
1.26443
11
1.77135
21
1.2661
0
LINE
8
BLACK
6
CONTINUOUS
10
1.77135
20
1.2661
11
1.77084
21
1.26682
0
LINE
8
BLACK
6
CONTINUOUS
10
1.77084
20
1.26682
11
1.77079
21
1.26686
0
LINE
8
BLACK
6
CONTINUOUS
10
1.77079
20
1.26686
11
1.76892
21
1.27061
0
LINE
8
BLACK
6
CONTINUOUS
10
1.76892
20
1.27061
11
1.76863
21
1.27159
0
LINE
8
BLACK
6
CONTINUOUS
10
1.76863
20
1.27159
11
1.76867
21
1.27177
0
LINE
8
BLACK
6
CONTINUOUS
10
1.76867
20
1.27177
11
1.76861
21
1.27193
0
LINE
8
BLACK
6
CONTINUOUS
10
1.76861
20
1.27193
11
1.76861
21
1.27381
0
LINE
8
BLACK
6
CONTINUOUS
10
1.76861
20
1.27381
11
1.76879
21
1.27482
0
LINE
8
BLACK
6
CONTINUOUS
10
1.76879
20
1.27482
11
1.7689
21
1.27495
0
LINE
8
BLACK
6
CONTINUOUS
10
1.7689
20
1.27495
11
1.76892
21
1.27513
0
LINE
8
BLACK
6
CONTINUOUS
10
1.76892
20
1.27513
11
1.77079
21
1.27888
0
LINE
8
BLACK
6
CONTINUOUS
10
1.77079
20
1.27888
11
1.77132
21
1.27959
0
LINE
8
BLACK
6
CONTINUOUS
10
1.77132
20
1.27959
11
1.77135
21
1.27964
0
LINE
8
BLACK
6
CONTINUOUS
10
1.77135
20
1.27964
11
1.77322
21
1.28152
0
LINE
8
BLACK
6
CONTINUOUS
10
1.77322
20
1.28152
11
1.77394
21
1.28203
0
LINE
8
BLACK
6
CONTINUOUS
10
1.77394
20
1.28203
11
1.77399
21
1.28207
0
LINE
8
BLACK
6
CONTINUOUS
10
1.77399
20
1.28207
11
1.77774
21
1.28395
0
LINE
8
BLACK
6
CONTINUOUS
10
1.77774
20
1.28395
11
1.77872
21
1.28424
0
LINE
8
BLACK
6
CONTINUOUS
10
1.77872
20
1.28424
11
1.77889
21
1.2842
0
LINE
8
BLACK
6
CONTINUOUS
10
1.77889
20
1.2842
11
1.77906
21
1.28426
0
LINE
8
BLACK
6
CONTINUOUS
10
1.77906
20
1.28426
11
1.78656
21
1.28426
0
LINE
8
BLACK
6
CONTINUOUS
10
1.78656
20
1.28426
11
1.78757
21
1.28408
0
LINE
8
BLACK
6
CONTINUOUS
10
1.77706
20
1.26013
11
1.77586
21
1.25893
0
LINE
8
BLACK
6
CONTINUOUS
10
1.77586
20
1.25893
11
1.77451
21
1.25624
0
LINE
8
BLACK
6
CONTINUOUS
10
1.77451
20
1.25624
11
1.77451
21
1.25013
0
LINE
8
BLACK
6
CONTINUOUS
10
1.77451
20
1.25013
11
1.77586
21
1.24743
0
LINE
8
BLACK
6
CONTINUOUS
10
1.77586
20
1.24743
11
1.77706
21
1.24624
0
LINE
8
BLACK
6
CONTINUOUS
10
1.77706
20
1.24624
11
1.77976
21
1.24489
0
LINE
8
BLACK
6
CONTINUOUS
10
1.77976
20
1.24489
11
1.78586
21
1.24489
0
LINE
8
BLACK
6
CONTINUOUS
10
1.78586
20
1.24489
11
1.78856
21
1.24624
0
LINE
8
BLACK
6
CONTINUOUS
10
1.78856
20
1.24624
11
1.78976
21
1.24743
0
LINE
8
BLACK
6
CONTINUOUS
10
1.78976
20
1.24743
11
1.7911
21
1.25013
0
LINE
8
BLACK
6
CONTINUOUS
10
1.7911
20
1.25013
11
1.7911
21
1.25624
0
LINE
8
BLACK
6
CONTINUOUS
10
1.7911
20
1.25624
11
1.78976
21
1.25893
0
LINE
8
BLACK
6
CONTINUOUS
10
1.78976
20
1.25893
11
1.78856
21
1.26013
0
LINE
8
BLACK
6
CONTINUOUS
10
1.78856
20
1.26013
11
1.78586
21
1.26148
0
LINE
8
BLACK
6
CONTINUOUS
10
1.78586
20
1.26148
11
1.77976
21
1.26148
0
LINE
8
BLACK
6
CONTINUOUS
10
1.77976
20
1.26148
11
1.77706
21
1.26013
0
LINE
8
BLACK
6
CONTINUOUS
10
1.77706
20
1.277
11
1.77586
21
1.27581
0
LINE
8
BLACK
6
CONTINUOUS
10
1.77586
20
1.27581
11
1.77451
21
1.27311
0
LINE
8
BLACK
6
CONTINUOUS
10
1.77451
20
1.27311
11
1.77451
21
1.27263
0
LINE
8
BLACK
6
CONTINUOUS
10
1.77451
20
1.27263
11
1.77586
21
1.26993
0
LINE
8
BLACK
6
CONTINUOUS
10
1.77586
20
1.26993
11
1.77706
21
1.26873
0
LINE
8
BLACK
6
CONTINUOUS
10
1.77706
20
1.26873
11
1.77976
21
1.26739
0
LINE
8
BLACK
6
CONTINUOUS
10
1.77976
20
1.26739
11
1.78586
21
1.26739
0
LINE
8
BLACK
6
CONTINUOUS
10
1.78586
20
1.26739
11
1.78856
21
1.26873
0
LINE
8
BLACK
6
CONTINUOUS
10
1.78856
20
1.26873
11
1.78976
21
1.26993
0
LINE
8
BLACK
6
CONTINUOUS
10
1.78976
20
1.26993
11
1.7911
21
1.27263
0
LINE
8
BLACK
6
CONTINUOUS
10
1.7911
20
1.27263
11
1.7911
21
1.27311
0
LINE
8
BLACK
6
CONTINUOUS
10
1.7911
20
1.27311
11
1.78976
21
1.27581
0
LINE
8
BLACK
6
CONTINUOUS
10
1.78976
20
1.27581
11
1.78856
21
1.277
0
LINE
8
BLACK
6
CONTINUOUS
10
1.78856
20
1.277
11
1.78586
21
1.27835
0
LINE
8
BLACK
6
CONTINUOUS
10
1.78586
20
1.27835
11
1.77976
21
1.27835
0
LINE
8
BLACK
6
CONTINUOUS
10
1.77976
20
1.27835
11
1.77706
21
1.277
0
LINE
8
BLACK
6
CONTINUOUS
10
1.82065
20
1.28418
11
1.82082
21
1.28421
0
LINE
8
BLACK
6
CONTINUOUS
10
1.82082
20
1.28421
11
1.82156
21
1.28379
0
LINE
8
BLACK
6
CONTINUOUS
10
1.82156
20
1.28379
11
1.82234
21
1.28344
0
LINE
8
BLACK
6
CONTINUOUS
10
1.82234
20
1.28344
11
1.82242
21
1.28329
0
LINE
8
BLACK
6
CONTINUOUS
10
1.82242
20
1.28329
11
1.82257
21
1.2832
0
LINE
8
BLACK
6
CONTINUOUS
10
1.82257
20
1.2832
11
1.82286
21
1.2824
0
LINE
8
BLACK
6
CONTINUOUS
10
1.82286
20
1.2824
11
1.82324
21
1.28163
0
LINE
8
BLACK
6
CONTINUOUS
10
1.82324
20
1.28163
11
1.8232
21
1.28147
0
LINE
8
BLACK
6
CONTINUOUS
10
1.8232
20
1.28147
11
1.82326
21
1.28131
0
LINE
8
BLACK
6
CONTINUOUS
10
1.82326
20
1.28131
11
1.82326
21
1.24489
0
LINE
8
BLACK
6
CONTINUOUS
10
1.82326
20
1.24489
11
1.83155
21
1.24489
0
LINE
8
BLACK
6
CONTINUOUS
10
1.83155
20
1.24489
11
1.83256
21
1.24471
0
LINE
8
BLACK
6
CONTINUOUS
10
1.83256
20
1.24471
11
1.83411
21
1.24341
0
LINE
8
BLACK
6
CONTINUOUS
10
1.83411
20
1.24341
11
1.83446
21
1.24142
0
LINE
8
BLACK
6
CONTINUOUS
10
1.83446
20
1.24142
11
1.83345
21
1.23967
0
LINE
8
BLACK
6
CONTINUOUS
10
1.83345
20
1.23967
11
1.83155
21
1.23898
0
LINE
8
BLACK
6
CONTINUOUS
10
1.83155
20
1.23898
11
1.80906
21
1.23898
0
LINE
8
BLACK
6
CONTINUOUS
10
1.80906
20
1.23898
11
1.80805
21
1.23916
0
LINE
8
BLACK
6
CONTINUOUS
10
1.80805
20
1.23916
11
1.8065
21
1.24046
0
LINE
8
BLACK
6
CONTINUOUS
10
1.8065
20
1.24046
11
1.80615
21
1.24245
0
LINE
8
BLACK
6
CONTINUOUS
10
1.80615
20
1.24245
11
1.80716
21
1.2442
0
LINE
8
BLACK
6
CONTINUOUS
10
1.80716
20
1.2442
11
1.80906
21
1.24489
0
LINE
8
BLACK
6
CONTINUOUS
10
1.80906
20
1.24489
11
1.81735
21
1.24489
0
LINE
8
BLACK
6
CONTINUOUS
10
1.81735
20
1.24489
11
1.81735
21
1.2723
0
LINE
8
BLACK
6
CONTINUOUS
10
1.81735
20
1.2723
11
1.81489
21
1.26984
0
LINE
8
BLACK
6
CONTINUOUS
10
1.81489
20
1.26984
11
1.81417
21
1.26934
0
LINE
8
BLACK
6
CONTINUOUS
10
1.81417
20
1.26934
11
1.81413
21
1.26929
0
LINE
8
BLACK
6
CONTINUOUS
10
1.81413
20
1.26929
11
1.81038
21
1.26742
0
LINE
8
BLACK
6
CONTINUOUS
10
1.81038
20
1.26742
11
1.80939
21
1.26712
0
LINE
8
BLACK
6
CONTINUOUS
10
1.80939
20
1.26712
11
1.80743
21
1.26759
0
LINE
8
BLACK
6
CONTINUOUS
10
1.80743
20
1.26759
11
1.80622
21
1.26922
0
LINE
8
BLACK
6
CONTINUOUS
10
1.80622
20
1.26922
11
1.80635
21
1.27123
0
LINE
8
BLACK
6
CONTINUOUS
10
1.80635
20
1.27123
11
1.80773
21
1.2727
0
LINE
8
BLACK
6
CONTINUOUS
10
1.80773
20
1.2727
11
1.81106
21
1.27436
0
LINE
8
BLACK
6
CONTINUOUS
10
1.81106
20
1.27436
11
1.81426
21
1.27756
0
LINE
8
BLACK
6
CONTINUOUS
10
1.81426
20
1.27756
11
1.81785
21
1.28294
0
LINE
8
BLACK
6
CONTINUOUS
10
1.81785
20
1.28294
11
1.81856
21
1.28369
0
LINE
8
BLACK
6
CONTINUOUS
10
1.81856
20
1.28369
11
1.81872
21
1.28373
0
LINE
8
BLACK
6
CONTINUOUS
10
1.81872
20
1.28373
11
1.81883
21
1.28386
0
LINE
8
BLACK
6
CONTINUOUS
10
1.81883
20
1.28386
11
1.81967
21
1.28401
0
LINE
8
BLACK
6
CONTINUOUS
10
1.81967
20
1.28401
11
1.82049
21
1.28425
0
LINE
8
BLACK
6
CONTINUOUS
10
1.82049
20
1.28425
11
1.82065
21
1.28418
0
LINE
8
BLACK
6
CONTINUOUS
10
1.86948
20
1.28418
11
1.86962
21
1.2842
0
LINE
8
BLACK
6
CONTINUOUS
10
1.86962
20
1.2842
11
1.86973
21
1.28414
0
LINE
8
BLACK
6
CONTINUOUS
10
1.86973
20
1.28414
11
1.87006
21
1.28408
0
LINE
8
BLACK
6
CONTINUOUS
10
1.87006
20
1.28408
11
1.87067
21
1.28357
0
LINE
8
BLACK
6
CONTINUOUS
10
1.87067
20
1.28357
11
1.87135
21
1.28316
0
LINE
8
BLACK
6
CONTINUOUS
10
1.87135
20
1.28316
11
1.87142
21
1.28293
0
LINE
8
BLACK
6
CONTINUOUS
10
1.87142
20
1.28293
11
1.8716
21
1.28278
0
LINE
8
BLACK
6
CONTINUOUS
10
1.8716
20
1.28278
11
1.87174
21
1.282
0
LINE
8
BLACK
6
CONTINUOUS
10
1.87174
20
1.282
11
1.872
21
1.28125
0
LINE
8
BLACK
6
CONTINUOUS
10
1.872
20
1.28125
11
1.87191
21
1.28103
0
LINE
8
BLACK
6
CONTINUOUS
10
1.87191
20
1.28103
11
1.87196
21
1.28079
0
LINE
8
BLACK
6
CONTINUOUS
10
1.87196
20
1.28079
11
1.87156
21
1.2801
0
LINE
8
BLACK
6
CONTINUOUS
10
1.87156
20
1.2801
11
1.87127
21
1.27936
0
LINE
8
BLACK
6
CONTINUOUS
10
1.87127
20
1.27936
11
1.86231
21
1.26913
0
LINE
8
BLACK
6
CONTINUOUS
10
1.86231
20
1.26913
11
1.86256
21
1.26908
0
LINE
8
BLACK
6
CONTINUOUS
10
1.86256
20
1.26908
11
1.86269
21
1.26897
0
LINE
8
BLACK
6
CONTINUOUS
10
1.86269
20
1.26897
11
1.86287
21
1.26895
0
LINE
8
BLACK
6
CONTINUOUS
10
1.86287
20
1.26895
11
1.86662
21
1.26707
0
LINE
8
BLACK
6
CONTINUOUS
10
1.86662
20
1.26707
11
1.86733
21
1.26655
0
LINE
8
BLACK
6
CONTINUOUS
10
1.86733
20
1.26655
11
1.86739
21
1.26652
0
LINE
8
BLACK
6
CONTINUOUS
10
1.86739
20
1.26652
11
1.86926
21
1.26465
0
LINE
8
BLACK
6
CONTINUOUS
10
1.86926
20
1.26465
11
1.86977
21
1.26392
0
LINE
8
BLACK
6
CONTINUOUS
10
1.86977
20
1.26392
11
1.86981
21
1.26388
0
LINE
8
BLACK
6
CONTINUOUS
10
1.86981
20
1.26388
11
1.87169
21
1.26013
0
LINE
8
BLACK
6
CONTINUOUS
10
1.87169
20
1.26013
11
1.87198
21
1.25915
0
LINE
8
BLACK
6
CONTINUOUS
10
1.87198
20
1.25915
11
1.87194
21
1.25897
0
LINE
8
BLACK
6
CONTINUOUS
10
1.87194
20
1.25897
11
1.872
21
1.25881
0
LINE
8
BLACK
6
CONTINUOUS
10
1.872
20
1.25881
11
1.872
21
1.24944
0
LINE
8
BLACK
6
CONTINUOUS
10
1.872
20
1.24944
11
1.87182
21
1.24843
0
LINE
8
BLACK
6
CONTINUOUS
10
1.87182
20
1.24843
11
1.87171
21
1.24829
0
LINE
8
BLACK
6
CONTINUOUS
10
1.87171
20
1.24829
11
1.87169
21
1.24811
0
LINE
8
BLACK
6
CONTINUOUS
10
1.87169
20
1.24811
11
1.86981
21
1.24437
0
LINE
8
BLACK
6
CONTINUOUS
10
1.86981
20
1.24437
11
1.86929
21
1.24366
0
LINE
8
BLACK
6
CONTINUOUS
10
1.86929
20
1.24366
11
1.86926
21
1.2436
0
LINE
8
BLACK
6
CONTINUOUS
10
1.86926
20
1.2436
11
1.86739
21
1.24172
0
LINE
8
BLACK
6
CONTINUOUS
10
1.86739
20
1.24172
11
1.86666
21
1.24122
0
LINE
8
BLACK
6
CONTINUOUS
10
1.86666
20
1.24122
11
1.86662
21
1.24117
0
LINE
8
BLACK
6
CONTINUOUS
10
1.86662
20
1.24117
11
1.86287
21
1.2393
0
LINE
8
BLACK
6
CONTINUOUS
10
1.86287
20
1.2393
11
1.86189
21
1.239
0
LINE
8
BLACK
6
CONTINUOUS
10
1.86189
20
1.239
11
1.86171
21
1.23904
0
LINE
8
BLACK
6
CONTINUOUS
10
1.86171
20
1.23904
11
1.86155
21
1.23898
0
LINE
8
BLACK
6
CONTINUOUS
10
1.86155
20
1.23898
11
1.8503
21
1.23898
0
LINE
8
BLACK
6
CONTINUOUS
10
1.8503
20
1.23898
11
1.84929
21
1.23916
0
LINE
8
BLACK
6
CONTINUOUS
10
1.84929
20
1.23916
11
1.84915
21
1.23927
0
LINE
8
BLACK
6
CONTINUOUS
10
1.84915
20
1.23927
11
1.84898
21
1.2393
0
LINE
8
BLACK
6
CONTINUOUS
10
1.84898
20
1.2393
11
1.84523
21
1.24117
0
LINE
8
BLACK
6
CONTINUOUS
10
1.84523
20
1.24117
11
1.84452
21
1.2417
0
LINE
8
BLACK
6
CONTINUOUS
10
1.84452
20
1.2417
11
1.84446
21
1.24172
0
LINE
8
BLACK
6
CONTINUOUS
10
1.84446
20
1.24172
11
1.84259
21
1.2436
0
LINE
8
BLACK
6
CONTINUOUS
10
1.84259
20
1.2436
11
1.842
21
1.24444
0
LINE
8
BLACK
6
CONTINUOUS
10
1.842
20
1.24444
11
1.84182
21
1.24645
0
LINE
8
BLACK
6
CONTINUOUS
10
1.84182
20
1.24645
11
1.84298
21
1.2481
0
LINE
8
BLACK
6
CONTINUOUS
10
1.84298
20
1.2481
11
1.84493
21
1.24863
0
LINE
8
BLACK
6
CONTINUOUS
10
1.84493
20
1.24863
11
1.84676
21
1.24777
0
LINE
8
BLACK
6
CONTINUOUS
10
1.84676
20
1.24777
11
1.8483
21
1.24624
0
LINE
8
BLACK
6
CONTINUOUS
10
1.8483
20
1.24624
11
1.851
21
1.24489
0
LINE
8
BLACK
6
CONTINUOUS
10
1.851
20
1.24489
11
1.86085
21
1.24489
0
LINE
8
BLACK
6
CONTINUOUS
10
1.86085
20
1.24489
11
1.86355
21
1.24624
0
LINE
8
BLACK
6
CONTINUOUS
10
1.86355
20
1.24624
11
1.86475
21
1.24743
0
LINE
8
BLACK
6
CONTINUOUS
10
1.86475
20
1.24743
11
1.86609
21
1.25013
0
LINE
8
BLACK
6
CONTINUOUS
10
1.86609
20
1.25013
11
1.86609
21
1.25811
0
LINE
8
BLACK
6
CONTINUOUS
10
1.86609
20
1.25811
11
1.86475
21
1.26081
0
LINE
8
BLACK
6
CONTINUOUS
10
1.86475
20
1.26081
11
1.86355
21
1.26201
0
LINE
8
BLACK
6
CONTINUOUS
10
1.86355
20
1.26201
11
1.86085
21
1.26336
0
LINE
8
BLACK
6
CONTINUOUS
10
1.86085
20
1.26336
11
1.85592
21
1.26336
0
LINE
8
BLACK
6
CONTINUOUS
10
1.85592
20
1.26336
11
1.85549
21
1.26343
0
LINE
8
BLACK
6
CONTINUOUS
10
1.85549
20
1.26343
11
1.85535
21
1.26341
0
LINE
8
BLACK
6
CONTINUOUS
10
1.85535
20
1.26341
11
1.85525
21
1.26347
0
LINE
8
BLACK
6
CONTINUOUS
10
1.85525
20
1.26347
11
1.85491
21
1.26353
0
LINE
8
BLACK
6
CONTINUOUS
10
1.85491
20
1.26353
11
1.8543
21
1.26405
0
LINE
8
BLACK
6
CONTINUOUS
10
1.8543
20
1.26405
11
1.85362
21
1.26446
0
LINE
8
BLACK
6
CONTINUOUS
10
1.85362
20
1.26446
11
1.85355
21
1.26468
0
LINE
8
BLACK
6
CONTINUOUS
10
1.85355
20
1.26468
11
1.85337
21
1.26483
0
LINE
8
BLACK
6
CONTINUOUS
10
1.85337
20
1.26483
11
1.85323
21
1.26562
0
LINE
8
BLACK
6
CONTINUOUS
10
1.85323
20
1.26562
11
1.85297
21
1.26637
0
LINE
8
BLACK
6
CONTINUOUS
10
1.85297
20
1.26637
11
1.85306
21
1.26659
0
LINE
8
BLACK
6
CONTINUOUS
10
1.85306
20
1.26659
11
1.85302
21
1.26682
0
LINE
8
BLACK
6
CONTINUOUS
10
1.85302
20
1.26682
11
1.85341
21
1.26751
0
LINE
8
BLACK
6
CONTINUOUS
10
1.85341
20
1.26751
11
1.8537
21
1.26825
0
LINE
8
BLACK
6
CONTINUOUS
10
1.8537
20
1.26825
11
1.86254
21
1.27835
0
LINE
8
BLACK
6
CONTINUOUS
10
1.86254
20
1.27835
11
1.84468
21
1.27835
0
LINE
8
BLACK
6
CONTINUOUS
10
1.84468
20
1.27835
11
1.84367
21
1.27853
0
LINE
8
BLACK
6
CONTINUOUS
10
1.84367
20
1.27853
11
1.84212
21
1.27983
0
LINE
8
BLACK
6
CONTINUOUS
10
1.84212
20
1.27983
11
1.84177
21
1.28182
0
LINE
8
BLACK
6
CONTINUOUS
10
1.84177
20
1.28182
11
1.84278
21
1.28357
0
LINE
8
BLACK
6
CONTINUOUS
10
1.84278
20
1.28357
11
1.84468
21
1.28426
0
LINE
8
BLACK
6
CONTINUOUS
10
1.84468
20
1.28426
11
1.86905
21
1.28426
0
LINE
8
BLACK
6
CONTINUOUS
10
1.86905
20
1.28426
11
1.86948
21
1.28418
0
LINE
8
BLACK
6
CONTINUOUS
10
1.91491
20
1.28411
11
1.91498
21
1.28411
0
LINE
8
BLACK
6
CONTINUOUS
10
1.91498
20
1.28411
11
1.9206
21
1.28223
0
LINE
8
BLACK
6
CONTINUOUS
10
1.9206
20
1.28223
11
1.9215
21
1.28174
0
LINE
8
BLACK
6
CONTINUOUS
10
1.9215
20
1.28174
11
1.92159
21
1.28159
0
LINE
8
BLACK
6
CONTINUOUS
10
1.92159
20
1.28159
11
1.92175
21
1.28152
0
LINE
8
BLACK
6
CONTINUOUS
10
1.92175
20
1.28152
11
1.9255
21
1.27777
0
LINE
8
BLACK
6
CONTINUOUS
10
1.9255
20
1.27777
11
1.92601
21
1.27705
0
LINE
8
BLACK
6
CONTINUOUS
10
1.92601
20
1.27705
11
1.92606
21
1.277
0
LINE
8
BLACK
6
CONTINUOUS
10
1.92606
20
1.277
11
1.92793
21
1.27325
0
LINE
8
BLACK
6
CONTINUOUS
10
1.92793
20
1.27325
11
1.92808
21
1.27276
0
LINE
8
BLACK
6
CONTINUOUS
10
1.92808
20
1.27276
11
1.92816
21
1.27265
0
LINE
8
BLACK
6
CONTINUOUS
10
1.92816
20
1.27265
11
1.93003
21
1.26515
0
LINE
8
BLACK
6
CONTINUOUS
10
1.93003
20
1.26515
11
1.93007
21
1.26456
0
LINE
8
BLACK
6
CONTINUOUS
10
1.93007
20
1.26456
11
1.93012
21
1.26443
0
LINE
8
BLACK
6
CONTINUOUS
10
1.93012
20
1.26443
11
1.93012
21
1.25881
0
LINE
8
BLACK
6
CONTINUOUS
10
1.93012
20
1.25881
11
1.93002
21
1.25823
0
LINE
8
BLACK
6
CONTINUOUS
10
1.93002
20
1.25823
11
1.93003
21
1.25809
0
LINE
8
BLACK
6
CONTINUOUS
10
1.93003
20
1.25809
11
1.92816
21
1.25059
0
LINE
8
BLACK
6
CONTINUOUS
10
1.92816
20
1.25059
11
1.92795
21
1.25013
0
LINE
8
BLACK
6
CONTINUOUS
10
1.92795
20
1.25013
11
1.92793
21
1.24999
0
LINE
8
BLACK
6
CONTINUOUS
10
1.92793
20
1.24999
11
1.92606
21
1.24624
0
LINE
8
BLACK
6
CONTINUOUS
10
1.92606
20
1.24624
11
1.92553
21
1.24553
0
LINE
8
BLACK
6
CONTINUOUS
10
1.92553
20
1.24553
11
1.9255
21
1.24547
0
LINE
8
BLACK
6
CONTINUOUS
10
1.9255
20
1.24547
11
1.92175
21
1.24172
0
LINE
8
BLACK
6
CONTINUOUS
10
1.92175
20
1.24172
11
1.92091
21
1.24113
0
LINE
8
BLACK
6
CONTINUOUS
10
1.92091
20
1.24113
11
1.92074
21
1.24112
0
LINE
8
BLACK
6
CONTINUOUS
10
1.92074
20
1.24112
11
1.9206
21
1.24101
0
LINE
8
BLACK
6
CONTINUOUS
10
1.9206
20
1.24101
11
1.91498
21
1.23913
0
LINE
8
BLACK
6
CONTINUOUS
10
1.91498
20
1.23913
11
1.9141
21
1.23901
0
LINE
8
BLACK
6
CONTINUOUS
10
1.9141
20
1.23901
11
1.91404
21
1.23898
0
LINE
8
BLACK
6
CONTINUOUS
10
1.91404
20
1.23898
11
1.90467
21
1.23898
0
LINE
8
BLACK
6
CONTINUOUS
10
1.90467
20
1.23898
11
1.90428
21
1.23905
0
LINE
8
BLACK
6
CONTINUOUS
10
1.90428
20
1.23905
11
1.90416
21
1.23903
0
LINE
8
BLACK
6
CONTINUOUS
10
1.90416
20
1.23903
11
1.90404
21
1.23909
0
LINE
8
BLACK
6
CONTINUOUS
10
1.90404
20
1.23909
11
1.90366
21
1.23916
0
LINE
8
BLACK
6
CONTINUOUS
10
1.90366
20
1.23916
11
1.90307
21
1.23965
0
LINE
8
BLACK
6
CONTINUOUS
10
1.90307
20
1.23965
11
1.90241
21
1.24004
0
LINE
8
BLACK
6
CONTINUOUS
10
1.90241
20
1.24004
11
1.90232
21
1.24029
0
LINE
8
BLACK
6
CONTINUOUS
10
1.90232
20
1.24029
11
1.90211
21
1.24046
0
LINE
8
BLACK
6
CONTINUOUS
10
1.90211
20
1.24046
11
1.90198
21
1.24122
0
LINE
8
BLACK
6
CONTINUOUS
10
1.90198
20
1.24122
11
1.90172
21
1.24194
0
LINE
8
BLACK
6
CONTINUOUS
10
1.90172
20
1.24194
11
1.90172
21
1.28131
0
LINE
8
BLACK
6
CONTINUOUS
10
1.90172
20
1.28131
11
1.90178
21
1.28169
0
LINE
8
BLACK
6
CONTINUOUS
10
1.90178
20
1.28169
11
1.90176
21
1.28182
0
LINE
8
BLACK
6
CONTINUOUS
10
1.90176
20
1.28182
11
1.90183
21
1.28193
0
LINE
8
BLACK
6
CONTINUOUS
10
1.90183
20
1.28193
11
1.90189
21
1.28232
0
LINE
8
BLACK
6
CONTINUOUS
10
1.90189
20
1.28232
11
1.90239
21
1.2829
0
LINE
8
BLACK
6
CONTINUOUS
10
1.90239
20
1.2829
11
1.90277
21
1.28357
0
LINE
8
BLACK
6
CONTINUOUS
10
1.90277
20
1.28357
11
1.90302
21
1.28366
0
LINE
8
BLACK
6
CONTINUOUS
10
1.90302
20
1.28366
11
1.90319
21
1.28386
0
LINE
8
BLACK
6
CONTINUOUS
10
1.90319
20
1.28386
11
1.90395
21
1.284
0
LINE
8
BLACK
6
CONTINUOUS
10
1.90395
20
1.284
11
1.90467
21
1.28426
0
LINE
8
BLACK
6
CONTINUOUS
10
1.90467
20
1.28426
11
1.91404
21
1.28426
0
LINE
8
BLACK
6
CONTINUOUS
10
1.91404
20
1.28426
11
1.91491
21
1.28411
0
LINE
8
BLACK
6
CONTINUOUS
10
1.90762
20
1.24489
11
1.91356
21
1.24489
0
LINE
8
BLACK
6
CONTINUOUS
10
1.91356
20
1.24489
11
1.91807
21
1.24639
0
LINE
8
BLACK
6
CONTINUOUS
10
1.91807
20
1.24639
11
1.92099
21
1.24931
0
LINE
8
BLACK
6
CONTINUOUS
10
1.92099
20
1.24931
11
1.9225
21
1.25234
0
LINE
8
BLACK
6
CONTINUOUS
10
1.9225
20
1.25234
11
1.92421
21
1.25917
0
LINE
8
BLACK
6
CONTINUOUS
10
1.92421
20
1.25917
11
1.92421
21
1.26407
0
LINE
8
BLACK
6
CONTINUOUS
10
1.92421
20
1.26407
11
1.9225
21
1.2709
0
LINE
8
BLACK
6
CONTINUOUS
10
1.9225
20
1.2709
11
1.92099
21
1.27393
0
LINE
8
BLACK
6
CONTINUOUS
10
1.92099
20
1.27393
11
1.91807
21
1.27685
0
LINE
8
BLACK
6
CONTINUOUS
10
1.91807
20
1.27685
11
1.91356
21
1.27835
0
LINE
8
BLACK
6
CONTINUOUS
10
1.91356
20
1.27835
11
1.90762
21
1.27835
0
LINE
8
BLACK
6
CONTINUOUS
10
1.90762
20
1.27835
11
1.90762
21
1.24489
0
LINE
8
BLACK
6
CONTINUOUS
10
1.88818
20
1.2832
11
1.88887
21
1.28131
0
LINE
8
BLACK
6
CONTINUOUS
10
1.88887
20
1.28131
11
1.88887
21
1.24194
0
LINE
8
BLACK
6
CONTINUOUS
10
1.88887
20
1.24194
11
1.8887
21
1.24093
0
LINE
8
BLACK
6
CONTINUOUS
10
1.8887
20
1.24093
11
1.8874
21
1.23938
0
LINE
8
BLACK
6
CONTINUOUS
10
1.8874
20
1.23938
11
1.88541
21
1.23903
0
LINE
8
BLACK
6
CONTINUOUS
10
1.88541
20
1.23903
11
1.88366
21
1.24004
0
LINE
8
BLACK
6
CONTINUOUS
10
1.88366
20
1.24004
11
1.88297
21
1.24194
0
LINE
8
BLACK
6
CONTINUOUS
10
1.88297
20
1.24194
11
1.88297
21
1.28131
0
LINE
8
BLACK
6
CONTINUOUS
10
1.88297
20
1.28131
11
1.88315
21
1.28232
0
LINE
8
BLACK
6
CONTINUOUS
10
1.88315
20
1.28232
11
1.88444
21
1.28386
0
LINE
8
BLACK
6
CONTINUOUS
10
1.88444
20
1.28386
11
1.88643
21
1.28421
0
LINE
8
BLACK
6
CONTINUOUS
10
1.88643
20
1.28421
11
1.88818
21
1.2832
0
LINE
8
BLACK
6
CONTINUOUS
10
1.7557
20
1.25971
11
1.75724
21
1.25841
0
LINE
8
BLACK
6
CONTINUOUS
10
1.75724
20
1.25841
11
1.75759
21
1.25642
0
LINE
8
BLACK
6
CONTINUOUS
10
1.75759
20
1.25642
11
1.75658
21
1.25467
0
LINE
8
BLACK
6
CONTINUOUS
10
1.75658
20
1.25467
11
1.75469
21
1.25398
0
LINE
8
BLACK
6
CONTINUOUS
10
1.75469
20
1.25398
11
1.72469
21
1.25398
0
LINE
8
BLACK
6
CONTINUOUS
10
1.72469
20
1.25398
11
1.72368
21
1.25416
0
LINE
8
BLACK
6
CONTINUOUS
10
1.72368
20
1.25416
11
1.72213
21
1.25546
0
LINE
8
BLACK
6
CONTINUOUS
10
1.72213
20
1.25546
11
1.72178
21
1.25745
0
LINE
8
BLACK
6
CONTINUOUS
10
1.72178
20
1.25745
11
1.72279
21
1.2592
0
LINE
8
BLACK
6
CONTINUOUS
10
1.72279
20
1.2592
11
1.72469
21
1.25989
0
LINE
8
BLACK
6
CONTINUOUS
10
1.72469
20
1.25989
11
1.75469
21
1.25989
0
LINE
8
BLACK
6
CONTINUOUS
10
1.75469
20
1.25989
11
1.7557
21
1.25971
0
LINE
8
BLACK
6
CONTINUOUS
10
1.62783
20
2.92668
11
1.62789
21
2.92669
0
LINE
8
BLACK
6
CONTINUOUS
10
1.62789
20
2.92669
11
1.63352
21
2.92481
0
LINE
8
BLACK
6
CONTINUOUS
10
1.63352
20
2.92481
11
1.63442
21
2.92432
0
LINE
8
BLACK
6
CONTINUOUS
10
1.63442
20
2.92432
11
1.63548
21
2.9226
0
LINE
8
BLACK
6
CONTINUOUS
10
1.63548
20
2.9226
11
1.63518
21
2.9206
0
LINE
8
BLACK
6
CONTINUOUS
10
1.63518
20
2.9206
11
1.63367
21
2.91926
0
LINE
8
BLACK
6
CONTINUOUS
10
1.63367
20
2.91926
11
1.63165
21
2.91921
0
LINE
8
BLACK
6
CONTINUOUS
10
1.63165
20
2.91921
11
1.62648
21
2.92093
0
LINE
8
BLACK
6
CONTINUOUS
10
1.62648
20
2.92093
11
1.61828
21
2.92093
0
LINE
8
BLACK
6
CONTINUOUS
10
1.61828
20
2.92093
11
1.61559
21
2.91958
0
LINE
8
BLACK
6
CONTINUOUS
10
1.61559
20
2.91958
11
1.61439
21
2.91839
0
LINE
8
BLACK
6
CONTINUOUS
10
1.61439
20
2.91839
11
1.61304
21
2.91569
0
LINE
8
BLACK
6
CONTINUOUS
10
1.61304
20
2.91569
11
1.61304
21
2.91333
0
LINE
8
BLACK
6
CONTINUOUS
10
1.61304
20
2.91333
11
1.61439
21
2.91064
0
LINE
8
BLACK
6
CONTINUOUS
10
1.61439
20
2.91064
11
1.61559
21
2.90944
0
LINE
8
BLACK
6
CONTINUOUS
10
1.61559
20
2.90944
11
1.61862
21
2.90792
0
LINE
8
BLACK
6
CONTINUOUS
10
1.61862
20
2.90792
11
1.6258
21
2.90613
0
LINE
8
BLACK
6
CONTINUOUS
10
1.6258
20
2.90613
11
1.62627
21
2.90592
0
LINE
8
BLACK
6
CONTINUOUS
10
1.62627
20
2.90592
11
1.62641
21
2.9059
0
LINE
8
BLACK
6
CONTINUOUS
10
1.62641
20
2.9059
11
1.63016
21
2.90403
0
LINE
8
BLACK
6
CONTINUOUS
10
1.63016
20
2.90403
11
1.63086
21
2.9035
0
LINE
8
BLACK
6
CONTINUOUS
10
1.63086
20
2.9035
11
1.63092
21
2.90348
0
LINE
8
BLACK
6
CONTINUOUS
10
1.63092
20
2.90348
11
1.6328
21
2.9016
0
LINE
8
BLACK
6
CONTINUOUS
10
1.6328
20
2.9016
11
1.6333
21
2.90088
0
LINE
8
BLACK
6
CONTINUOUS
10
1.6333
20
2.90088
11
1.63335
21
2.90083
0
LINE
8
BLACK
6
CONTINUOUS
10
1.63335
20
2.90083
11
1.63523
21
2.89708
0
LINE
8
BLACK
6
CONTINUOUS
10
1.63523
20
2.89708
11
1.63552
21
2.8961
0
LINE
8
BLACK
6
CONTINUOUS
10
1.63552
20
2.8961
11
1.63548
21
2.89593
0
LINE
8
BLACK
6
CONTINUOUS
10
1.63548
20
2.89593
11
1.63554
21
2.89576
0
LINE
8
BLACK
6
CONTINUOUS
10
1.63554
20
2.89576
11
1.63554
21
2.89201
0
LINE
8
BLACK
6
CONTINUOUS
10
1.63554
20
2.89201
11
1.63536
21
2.891
0
LINE
8
BLACK
6
CONTINUOUS
10
1.63536
20
2.891
11
1.63525
21
2.89087
0
LINE
8
BLACK
6
CONTINUOUS
10
1.63525
20
2.89087
11
1.63523
21
2.89069
0
LINE
8
BLACK
6
CONTINUOUS
10
1.63523
20
2.89069
11
1.63335
21
2.88694
0
LINE
8
BLACK
6
CONTINUOUS
10
1.63335
20
2.88694
11
1.63282
21
2.88623
0
LINE
8
BLACK
6
CONTINUOUS
10
1.63282
20
2.88623
11
1.6328
21
2.88618
0
LINE
8
BLACK
6
CONTINUOUS
10
1.6328
20
2.88618
11
1.63092
21
2.8843
0
LINE
8
BLACK
6
CONTINUOUS
10
1.63092
20
2.8843
11
1.6302
21
2.8838
0
LINE
8
BLACK
6
CONTINUOUS
10
1.6302
20
2.8838
11
1.63016
21
2.88375
0
LINE
8
BLACK
6
CONTINUOUS
10
1.63016
20
2.88375
11
1.62641
21
2.88187
0
LINE
8
BLACK
6
CONTINUOUS
10
1.62641
20
2.88187
11
1.62542
21
2.88158
0
LINE
8
BLACK
6
CONTINUOUS
10
1.62542
20
2.88158
11
1.62525
21
2.88162
0
LINE
8
BLACK
6
CONTINUOUS
10
1.62525
20
2.88162
11
1.62509
21
2.88156
0
LINE
8
BLACK
6
CONTINUOUS
10
1.62509
20
2.88156
11
1.61571
21
2.88156
0
LINE
8
BLACK
6
CONTINUOUS
10
1.61571
20
2.88156
11
1.61484
21
2.88172
0
LINE
8
BLACK
6
CONTINUOUS
10
1.61484
20
2.88172
11
1.61478
21
2.88171
0
LINE
8
BLACK
6
CONTINUOUS
10
1.61478
20
2.88171
11
1.60915
21
2.88359
0
LINE
8
BLACK
6
CONTINUOUS
10
1.60915
20
2.88359
11
1.60825
21
2.88408
0
LINE
8
BLACK
6
CONTINUOUS
10
1.60825
20
2.88408
11
1.60719
21
2.8858
0
LINE
8
BLACK
6
CONTINUOUS
10
1.60719
20
2.8858
11
1.60749
21
2.8878
0
LINE
8
BLACK
6
CONTINUOUS
10
1.60749
20
2.8878
11
1.609
21
2.88914
0
LINE
8
BLACK
6
CONTINUOUS
10
1.609
20
2.88914
11
1.61102
21
2.88919
0
LINE
8
BLACK
6
CONTINUOUS
10
1.61102
20
2.88919
11
1.61619
21
2.88747
0
LINE
8
BLACK
6
CONTINUOUS
10
1.61619
20
2.88747
11
1.62439
21
2.88747
0
LINE
8
BLACK
6
CONTINUOUS
10
1.62439
20
2.88747
11
1.62709
21
2.88882
0
LINE
8
BLACK
6
CONTINUOUS
10
1.62709
20
2.88882
11
1.62828
21
2.89001
0
LINE
8
BLACK
6
CONTINUOUS
10
1.62828
20
2.89001
11
1.62963
21
2.89271
0
LINE
8
BLACK
6
CONTINUOUS
10
1.62963
20
2.89271
11
1.62963
21
2.89507
0
LINE
8
BLACK
6
CONTINUOUS
10
1.62963
20
2.89507
11
1.62828
21
2.89776
0
LINE
8
BLACK
6
CONTINUOUS
10
1.62828
20
2.89776
11
1.62709
21
2.89896
0
LINE
8
BLACK
6
CONTINUOUS
10
1.62709
20
2.89896
11
1.62405
21
2.90048
0
LINE
8
BLACK
6
CONTINUOUS
10
1.62405
20
2.90048
11
1.61687
21
2.90227
0
LINE
8
BLACK
6
CONTINUOUS
10
1.61687
20
2.90227
11
1.6164
21
2.90248
0
LINE
8
BLACK
6
CONTINUOUS
10
1.6164
20
2.90248
11
1.61627
21
2.9025
0
LINE
8
BLACK
6
CONTINUOUS
10
1.61627
20
2.9025
11
1.61252
21
2.90437
0
LINE
8
BLACK
6
CONTINUOUS
10
1.61252
20
2.90437
11
1.61181
21
2.9049
0
LINE
8
BLACK
6
CONTINUOUS
10
1.61181
20
2.9049
11
1.61175
21
2.90492
0
LINE
8
BLACK
6
CONTINUOUS
10
1.61175
20
2.90492
11
1.60987
21
2.9068
0
LINE
8
BLACK
6
CONTINUOUS
10
1.60987
20
2.9068
11
1.60937
21
2.90752
0
LINE
8
BLACK
6
CONTINUOUS
10
1.60937
20
2.90752
11
1.60932
21
2.90757
0
LINE
8
BLACK
6
CONTINUOUS
10
1.60932
20
2.90757
11
1.60745
21
2.91132
0
LINE
8
BLACK
6
CONTINUOUS
10
1.60745
20
2.91132
11
1.60715
21
2.9123
0
LINE
8
BLACK
6
CONTINUOUS
10
1.60715
20
2.9123
11
1.60719
21
2.91247
0
LINE
8
BLACK
6
CONTINUOUS
10
1.60719
20
2.91247
11
1.60713
21
2.91264
0
LINE
8
BLACK
6
CONTINUOUS
10
1.60713
20
2.91264
11
1.60713
21
2.91639
0
LINE
8
BLACK
6
CONTINUOUS
10
1.60713
20
2.91639
11
1.60731
21
2.9174
0
LINE
8
BLACK
6
CONTINUOUS
10
1.60731
20
2.9174
11
1.60743
21
2.91753
0
LINE
8
BLACK
6
CONTINUOUS
10
1.60743
20
2.91753
11
1.60745
21
2.91771
0
LINE
8
BLACK
6
CONTINUOUS
10
1.60745
20
2.91771
11
1.60932
21
2.92146
0
LINE
8
BLACK
6
CONTINUOUS
10
1.60932
20
2.92146
11
1.60985
21
2.92217
0
LINE
8
BLACK
6
CONTINUOUS
10
1.60985
20
2.92217
11
1.60987
21
2.92222
0
LINE
8
BLACK
6
CONTINUOUS
10
1.60987
20
2.92222
11
1.61175
21
2.9241
0
LINE
8
BLACK
6
CONTINUOUS
10
1.61175
20
2.9241
11
1.61247
21
2.9246
0
LINE
8
BLACK
6
CONTINUOUS
10
1.61247
20
2.9246
11
1.61252
21
2.92465
0
LINE
8
BLACK
6
CONTINUOUS
10
1.61252
20
2.92465
11
1.61627
21
2.92653
0
LINE
8
BLACK
6
CONTINUOUS
10
1.61627
20
2.92653
11
1.61725
21
2.92682
0
LINE
8
BLACK
6
CONTINUOUS
10
1.61725
20
2.92682
11
1.61742
21
2.92678
0
LINE
8
BLACK
6
CONTINUOUS
10
1.61742
20
2.92678
11
1.61759
21
2.92684
0
LINE
8
BLACK
6
CONTINUOUS
10
1.61759
20
2.92684
11
1.62696
21
2.92684
0
LINE
8
BLACK
6
CONTINUOUS
10
1.62696
20
2.92684
11
1.62783
21
2.92668
0
LINE
8
BLACK
6
CONTINUOUS
10
1.74795
20
2.92666
11
1.74809
21
2.92655
0
LINE
8
BLACK
6
CONTINUOUS
10
1.74809
20
2.92655
11
1.74827
21
2.92653
0
LINE
8
BLACK
6
CONTINUOUS
10
1.74827
20
2.92653
11
1.75201
21
2.92465
0
LINE
8
BLACK
6
CONTINUOUS
10
1.75201
20
2.92465
11
1.75272
21
2.92413
0
LINE
8
BLACK
6
CONTINUOUS
10
1.75272
20
2.92413
11
1.75278
21
2.9241
0
LINE
8
BLACK
6
CONTINUOUS
10
1.75278
20
2.9241
11
1.75466
21
2.92222
0
LINE
8
BLACK
6
CONTINUOUS
10
1.75466
20
2.92222
11
1.75516
21
2.9215
0
LINE
8
BLACK
6
CONTINUOUS
10
1.75516
20
2.9215
11
1.75521
21
2.92146
0
LINE
8
BLACK
6
CONTINUOUS
10
1.75521
20
2.92146
11
1.75708
21
2.91771
0
LINE
8
BLACK
6
CONTINUOUS
10
1.75708
20
2.91771
11
1.75723
21
2.91722
0
LINE
8
BLACK
6
CONTINUOUS
10
1.75723
20
2.91722
11
1.75731
21
2.9171
0
LINE
8
BLACK
6
CONTINUOUS
10
1.75731
20
2.9171
11
1.75918
21
2.9096
0
LINE
8
BLACK
6
CONTINUOUS
10
1.75918
20
2.9096
11
1.75922
21
2.90902
0
LINE
8
BLACK
6
CONTINUOUS
10
1.75922
20
2.90902
11
1.75927
21
2.90889
0
LINE
8
BLACK
6
CONTINUOUS
10
1.75927
20
2.90889
11
1.75927
21
2.89951
0
LINE
8
BLACK
6
CONTINUOUS
10
1.75927
20
2.89951
11
1.75917
21
2.89893
0
LINE
8
BLACK
6
CONTINUOUS
10
1.75917
20
2.89893
11
1.75918
21
2.8988
0
LINE
8
BLACK
6
CONTINUOUS
10
1.75918
20
2.8988
11
1.75731
21
2.8913
0
LINE
8
BLACK
6
CONTINUOUS
10
1.75731
20
2.8913
11
1.7571
21
2.89083
0
LINE
8
BLACK
6
CONTINUOUS
10
1.7571
20
2.89083
11
1.75708
21
2.89069
0
LINE
8
BLACK
6
CONTINUOUS
10
1.75708
20
2.89069
11
1.75521
21
2.88694
0
LINE
8
BLACK
6
CONTINUOUS
10
1.75521
20
2.88694
11
1.75468
21
2.88623
0
LINE
8
BLACK
6
CONTINUOUS
10
1.75468
20
2.88623
11
1.75466
21
2.88618
0
LINE
8
BLACK
6
CONTINUOUS
10
1.75466
20
2.88618
11
1.75278
21
2.8843
0
LINE
8
BLACK
6
CONTINUOUS
10
1.75278
20
2.8843
11
1.75206
21
2.8838
0
LINE
8
BLACK
6
CONTINUOUS
10
1.75206
20
2.8838
11
1.75201
21
2.88375
0
LINE
8
BLACK
6
CONTINUOUS
10
1.75201
20
2.88375
11
1.74827
21
2.88187
0
LINE
8
BLACK
6
CONTINUOUS
10
1.74827
20
2.88187
11
1.74728
21
2.88158
0
LINE
8
BLACK
6
CONTINUOUS
10
1.74728
20
2.88158
11
1.74711
21
2.88162
0
LINE
8
BLACK
6
CONTINUOUS
10
1.74711
20
2.88162
11
1.74694
21
2.88156
0
LINE
8
BLACK
6
CONTINUOUS
10
1.74694
20
2.88156
11
1.7432
21
2.88156
0
LINE
8
BLACK
6
CONTINUOUS
10
1.7432
20
2.88156
11
1.74219
21
2.88174
0
LINE
8
BLACK
6
CONTINUOUS
10
1.74219
20
2.88174
11
1.74205
21
2.88185
0
LINE
8
BLACK
6
CONTINUOUS
10
1.74205
20
2.88185
11
1.74187
21
2.88187
0
LINE
8
BLACK
6
CONTINUOUS
10
1.74187
20
2.88187
11
1.73813
21
2.88375
0
LINE
8
BLACK
6
CONTINUOUS
10
1.73813
20
2.88375
11
1.73742
21
2.88427
0
LINE
8
BLACK
6
CONTINUOUS
10
1.73742
20
2.88427
11
1.73736
21
2.8843
0
LINE
8
BLACK
6
CONTINUOUS
10
1.73736
20
2.8843
11
1.73548
21
2.88618
0
LINE
8
BLACK
6
CONTINUOUS
10
1.73548
20
2.88618
11
1.73498
21
2.8869
0
LINE
8
BLACK
6
CONTINUOUS
10
1.73498
20
2.8869
11
1.73493
21
2.88694
0
LINE
8
BLACK
6
CONTINUOUS
10
1.73493
20
2.88694
11
1.73306
21
2.89069
0
LINE
8
BLACK
6
CONTINUOUS
10
1.73306
20
2.89069
11
1.73291
21
2.89118
0
LINE
8
BLACK
6
CONTINUOUS
10
1.73291
20
2.89118
11
1.73283
21
2.8913
0
LINE
8
BLACK
6
CONTINUOUS
10
1.73283
20
2.8913
11
1.73096
21
2.8988
0
LINE
8
BLACK
6
CONTINUOUS
10
1.73096
20
2.8988
11
1.73092
21
2.89938
0
LINE
8
BLACK
6
CONTINUOUS
10
1.73092
20
2.89938
11
1.73087
21
2.89951
0
LINE
8
BLACK
6
CONTINUOUS
10
1.73087
20
2.89951
11
1.73087
21
2.90889
0
LINE
8
BLACK
6
CONTINUOUS
10
1.73087
20
2.90889
11
1.73097
21
2.90947
0
LINE
8
BLACK
6
CONTINUOUS
10
1.73097
20
2.90947
11
1.73096
21
2.9096
0
LINE
8
BLACK
6
CONTINUOUS
10
1.73096
20
2.9096
11
1.73283
21
2.9171
0
LINE
8
BLACK
6
CONTINUOUS
10
1.73283
20
2.9171
11
1.73304
21
2.91757
0
LINE
8
BLACK
6
CONTINUOUS
10
1.73304
20
2.91757
11
1.73306
21
2.91771
0
LINE
8
BLACK
6
CONTINUOUS
10
1.73306
20
2.91771
11
1.73493
21
2.92146
0
LINE
8
BLACK
6
CONTINUOUS
10
1.73493
20
2.92146
11
1.73546
21
2.92217
0
LINE
8
BLACK
6
CONTINUOUS
10
1.73546
20
2.92217
11
1.73548
21
2.92222
0
LINE
8
BLACK
6
CONTINUOUS
10
1.73548
20
2.92222
11
1.73736
21
2.9241
0
LINE
8
BLACK
6
CONTINUOUS
10
1.73736
20
2.9241
11
1.73808
21
2.9246
0
LINE
8
BLACK
6
CONTINUOUS
10
1.73808
20
2.9246
11
1.73813
21
2.92465
0
LINE
8
BLACK
6
CONTINUOUS
10
1.73813
20
2.92465
11
1.74187
21
2.92653
0
LINE
8
BLACK
6
CONTINUOUS
10
1.74187
20
2.92653
11
1.74286
21
2.92682
0
LINE
8
BLACK
6
CONTINUOUS
10
1.74286
20
2.92682
11
1.74303
21
2.92678
0
LINE
8
BLACK
6
CONTINUOUS
10
1.74303
20
2.92678
11
1.7432
21
2.92684
0
LINE
8
BLACK
6
CONTINUOUS
10
1.7432
20
2.92684
11
1.74694
21
2.92684
0
LINE
8
BLACK
6
CONTINUOUS
10
1.74694
20
2.92684
11
1.74795
21
2.92666
0
LINE
8
BLACK
6
CONTINUOUS
10
1.74119
20
2.91958
11
1.74
21
2.91839
0
LINE
8
BLACK
6
CONTINUOUS
10
1.74
20
2.91839
11
1.73848
21
2.91536
0
LINE
8
BLACK
6
CONTINUOUS
10
1.73848
20
2.91536
11
1.73677
21
2.90852
0
LINE
8
BLACK
6
CONTINUOUS
10
1.73677
20
2.90852
11
1.73677
21
2.89988
0
LINE
8
BLACK
6
CONTINUOUS
10
1.73677
20
2.89988
11
1.73848
21
2.89304
0
LINE
8
BLACK
6
CONTINUOUS
10
1.73848
20
2.89304
11
1.74
21
2.89001
0
LINE
8
BLACK
6
CONTINUOUS
10
1.74
20
2.89001
11
1.74119
21
2.88882
0
LINE
8
BLACK
6
CONTINUOUS
10
1.74119
20
2.88882
11
1.74389
21
2.88747
0
LINE
8
BLACK
6
CONTINUOUS
10
1.74389
20
2.88747
11
1.74625
21
2.88747
0
LINE
8
BLACK
6
CONTINUOUS
10
1.74625
20
2.88747
11
1.74895
21
2.88882
0
LINE
8
BLACK
6
CONTINUOUS
10
1.74895
20
2.88882
11
1.75014
21
2.89001
0
LINE
8
BLACK
6
CONTINUOUS
10
1.75014
20
2.89001
11
1.75166
21
2.89304
0
LINE
8
BLACK
6
CONTINUOUS
10
1.75166
20
2.89304
11
1.75337
21
2.89988
0
LINE
8
BLACK
6
CONTINUOUS
10
1.75337
20
2.89988
11
1.75337
21
2.90852
0
LINE
8
BLACK
6
CONTINUOUS
10
1.75337
20
2.90852
11
1.75166
21
2.91536
0
LINE
8
BLACK
6
CONTINUOUS
10
1.75166
20
2.91536
11
1.75014
21
2.91839
0
LINE
8
BLACK
6
CONTINUOUS
10
1.75014
20
2.91839
11
1.74895
21
2.91958
0
LINE
8
BLACK
6
CONTINUOUS
10
1.74895
20
2.91958
11
1.74625
21
2.92093
0
LINE
8
BLACK
6
CONTINUOUS
10
1.74625
20
2.92093
11
1.74389
21
2.92093
0
LINE
8
BLACK
6
CONTINUOUS
10
1.74389
20
2.92093
11
1.74119
21
2.91958
0
LINE
8
BLACK
6
CONTINUOUS
10
1.78545
20
2.92666
11
1.78559
21
2.92655
0
LINE
8
BLACK
6
CONTINUOUS
10
1.78559
20
2.92655
11
1.78576
21
2.92653
0
LINE
8
BLACK
6
CONTINUOUS
10
1.78576
20
2.92653
11
1.78951
21
2.92465
0
LINE
8
BLACK
6
CONTINUOUS
10
1.78951
20
2.92465
11
1.79022
21
2.92413
0
LINE
8
BLACK
6
CONTINUOUS
10
1.79022
20
2.92413
11
1.79028
21
2.9241
0
LINE
8
BLACK
6
CONTINUOUS
10
1.79028
20
2.9241
11
1.79215
21
2.92222
0
LINE
8
BLACK
6
CONTINUOUS
10
1.79215
20
2.92222
11
1.79266
21
2.9215
0
LINE
8
BLACK
6
CONTINUOUS
10
1.79266
20
2.9215
11
1.79271
21
2.92146
0
LINE
8
BLACK
6
CONTINUOUS
10
1.79271
20
2.92146
11
1.79458
21
2.91771
0
LINE
8
BLACK
6
CONTINUOUS
10
1.79458
20
2.91771
11
1.79473
21
2.91722
0
LINE
8
BLACK
6
CONTINUOUS
10
1.79473
20
2.91722
11
1.7948
21
2.9171
0
LINE
8
BLACK
6
CONTINUOUS
10
1.7948
20
2.9171
11
1.79668
21
2.9096
0
LINE
8
BLACK
6
CONTINUOUS
10
1.79668
20
2.9096
11
1.79672
21
2.90902
0
LINE
8
BLACK
6
CONTINUOUS
10
1.79672
20
2.90902
11
1.79677
21
2.90889
0
LINE
8
BLACK
6
CONTINUOUS
10
1.79677
20
2.90889
11
1.79677
21
2.89951
0
LINE
8
BLACK
6
CONTINUOUS
10
1.79677
20
2.89951
11
1.79666
21
2.89893
0
LINE
8
BLACK
6
CONTINUOUS
10
1.79666
20
2.89893
11
1.79668
21
2.8988
0
LINE
8
BLACK
6
CONTINUOUS
10
1.79668
20
2.8988
11
1.7948
21
2.8913
0
LINE
8
BLACK
6
CONTINUOUS
10
1.7948
20
2.8913
11
1.7946
21
2.89083
0
LINE
8
BLACK
6
CONTINUOUS
10
1.7946
20
2.89083
11
1.79458
21
2.89069
0
LINE
8
BLACK
6
CONTINUOUS
10
1.79458
20
2.89069
11
1.79271
21
2.88694
0
LINE
8
BLACK
6
CONTINUOUS
10
1.79271
20
2.88694
11
1.79218
21
2.88623
0
LINE
8
BLACK
6
CONTINUOUS
10
1.79218
20
2.88623
11
1.79215
21
2.88618
0
LINE
8
BLACK
6
CONTINUOUS
10
1.79215
20
2.88618
11
1.79028
21
2.8843
0
LINE
8
BLACK
6
CONTINUOUS
10
1.79028
20
2.8843
11
1.78955
21
2.8838
0
LINE
8
BLACK
6
CONTINUOUS
10
1.78955
20
2.8838
11
1.78951
21
2.88375
0
LINE
8
BLACK
6
CONTINUOUS
10
1.78951
20
2.88375
11
1.78576
21
2.88187
0
LINE
8
BLACK
6
CONTINUOUS
10
1.78576
20
2.88187
11
1.78478
21
2.88158
0
LINE
8
BLACK
6
CONTINUOUS
10
1.78478
20
2.88158
11
1.78461
21
2.88162
0
LINE
8
BLACK
6
CONTINUOUS
10
1.78461
20
2.88162
11
1.78444
21
2.88156
0
LINE
8
BLACK
6
CONTINUOUS
10
1.78444
20
2.88156
11
1.78069
21
2.88156
0
LINE
8
BLACK
6
CONTINUOUS
10
1.78069
20
2.88156
11
1.77968
21
2.88174
0
LINE
8
BLACK
6
CONTINUOUS
10
1.77968
20
2.88174
11
1.77955
21
2.88185
0
LINE
8
BLACK
6
CONTINUOUS
10
1.77955
20
2.88185
11
1.77937
21
2.88187
0
LINE
8
BLACK
6
CONTINUOUS
10
1.77937
20
2.88187
11
1.77562
21
2.88375
0
LINE
8
BLACK
6
CONTINUOUS
10
1.77562
20
2.88375
11
1.77491
21
2.88427
0
LINE
8
BLACK
6
CONTINUOUS
10
1.77491
20
2.88427
11
1.77485
21
2.8843
0
LINE
8
BLACK
6
CONTINUOUS
10
1.77485
20
2.8843
11
1.77298
21
2.88618
0
LINE
8
BLACK
6
CONTINUOUS
10
1.77298
20
2.88618
11
1.77247
21
2.8869
0
LINE
8
BLACK
6
CONTINUOUS
10
1.77247
20
2.8869
11
1.77243
21
2.88694
0
LINE
8
BLACK
6
CONTINUOUS
10
1.77243
20
2.88694
11
1.77055
21
2.89069
0
LINE
8
BLACK
6
CONTINUOUS
10
1.77055
20
2.89069
11
1.77041
21
2.89118
0
LINE
8
BLACK
6
CONTINUOUS
10
1.77041
20
2.89118
11
1.77033
21
2.8913
0
LINE
8
BLACK
6
CONTINUOUS
10
1.77033
20
2.8913
11
1.76845
21
2.8988
0
LINE
8
BLACK
6
CONTINUOUS
10
1.76845
20
2.8988
11
1.76841
21
2.89938
0
LINE
8
BLACK
6
CONTINUOUS
10
1.76841
20
2.89938
11
1.76836
21
2.89951
0
LINE
8
BLACK
6
CONTINUOUS
10
1.76836
20
2.89951
11
1.76836
21
2.90889
0
LINE
8
BLACK
6
CONTINUOUS
10
1.76836
20
2.90889
11
1.76847
21
2.90947
0
LINE
8
BLACK
6
CONTINUOUS
10
1.76847
20
2.90947
11
1.76845
21
2.9096
0
LINE
8
BLACK
6
CONTINUOUS
10
1.76845
20
2.9096
11
1.77033
21
2.9171
0
LINE
8
BLACK
6
CONTINUOUS
10
1.77033
20
2.9171
11
1.77053
21
2.91757
0
LINE
8
BLACK
6
CONTINUOUS
10
1.77053
20
2.91757
11
1.77055
21
2.91771
0
LINE
8
BLACK
6
CONTINUOUS
10
1.77055
20
2.91771
11
1.77243
21
2.92146
0
LINE
8
BLACK
6
CONTINUOUS
10
1.77243
20
2.92146
11
1.77295
21
2.92217
0
LINE
8
BLACK
6
CONTINUOUS
10
1.77295
20
2.92217
11
1.77298
21
2.92222
0
LINE
8
BLACK
6
CONTINUOUS
10
1.77298
20
2.92222
11
1.77485
21
2.9241
0
LINE
8
BLACK
6
CONTINUOUS
10
1.77485
20
2.9241
11
1.77558
21
2.9246
0
LINE
8
BLACK
6
CONTINUOUS
10
1.77558
20
2.9246
11
1.77562
21
2.92465
0
LINE
8
BLACK
6
CONTINUOUS
10
1.77562
20
2.92465
11
1.77937
21
2.92653
0
LINE
8
BLACK
6
CONTINUOUS
10
1.77937
20
2.92653
11
1.78035
21
2.92682
0
LINE
8
BLACK
6
CONTINUOUS
10
1.78035
20
2.92682
11
1.78052
21
2.92678
0
LINE
8
BLACK
6
CONTINUOUS
10
1.78052
20
2.92678
11
1.78069
21
2.92684
0
LINE
8
BLACK
6
CONTINUOUS
10
1.78069
20
2.92684
11
1.78444
21
2.92684
0
LINE
8
BLACK
6
CONTINUOUS
10
1.78444
20
2.92684
11
1.78545
21
2.92666
0
LINE
8
BLACK
6
CONTINUOUS
10
1.77869
20
2.91958
11
1.77749
21
2.91839
0
LINE
8
BLACK
6
CONTINUOUS
10
1.77749
20
2.91839
11
1.77598
21
2.91536
0
LINE
8
BLACK
6
CONTINUOUS
10
1.77598
20
2.91536
11
1.77427
21
2.90852
0
LINE
8
BLACK
6
CONTINUOUS
10
1.77427
20
2.90852
11
1.77427
21
2.89988
0
LINE
8
BLACK
6
CONTINUOUS
10
1.77427
20
2.89988
11
1.77598
21
2.89304
0
LINE
8
BLACK
6
CONTINUOUS
10
1.77598
20
2.89304
11
1.77749
21
2.89001
0
LINE
8
BLACK
6
CONTINUOUS
10
1.77749
20
2.89001
11
1.77869
21
2.88882
0
LINE
8
BLACK
6
CONTINUOUS
10
1.77869
20
2.88882
11
1.78139
21
2.88747
0
LINE
8
BLACK
6
CONTINUOUS
10
1.78139
20
2.88747
11
1.78374
21
2.88747
0
LINE
8
BLACK
6
CONTINUOUS
10
1.78374
20
2.88747
11
1.78644
21
2.88882
0
LINE
8
BLACK
6
CONTINUOUS
10
1.78644
20
2.88882
11
1.78764
21
2.89001
0
LINE
8
BLACK
6
CONTINUOUS
10
1.78764
20
2.89001
11
1.78915
21
2.89304
0
LINE
8
BLACK
6
CONTINUOUS
10
1.78915
20
2.89304
11
1.79086
21
2.89988
0
LINE
8
BLACK
6
CONTINUOUS
10
1.79086
20
2.89988
11
1.79086
21
2.90852
0
LINE
8
BLACK
6
CONTINUOUS
10
1.79086
20
2.90852
11
1.78915
21
2.91536
0
LINE
8
BLACK
6
CONTINUOUS
10
1.78915
20
2.91536
11
1.78764
21
2.91839
0
LINE
8
BLACK
6
CONTINUOUS
10
1.78764
20
2.91839
11
1.78644
21
2.91958
0
LINE
8
BLACK
6
CONTINUOUS
10
1.78644
20
2.91958
11
1.78374
21
2.92093
0
LINE
8
BLACK
6
CONTINUOUS
10
1.78374
20
2.92093
11
1.78139
21
2.92093
0
LINE
8
BLACK
6
CONTINUOUS
10
1.78139
20
2.92093
11
1.77869
21
2.91958
0
LINE
8
BLACK
6
CONTINUOUS
10
1.82041
20
2.92676
11
1.82057
21
2.92679
0
LINE
8
BLACK
6
CONTINUOUS
10
1.82057
20
2.92679
11
1.82132
21
2.92636
0
LINE
8
BLACK
6
CONTINUOUS
10
1.82132
20
2.92636
11
1.8221
21
2.92602
0
LINE
8
BLACK
6
CONTINUOUS
10
1.8221
20
2.92602
11
1.82218
21
2.92587
0
LINE
8
BLACK
6
CONTINUOUS
10
1.82218
20
2.92587
11
1.82232
21
2.92578
0
LINE
8
BLACK
6
CONTINUOUS
10
1.82232
20
2.92578
11
1.82262
21
2.92498
0
LINE
8
BLACK
6
CONTINUOUS
10
1.82262
20
2.92498
11
1.823
21
2.92421
0
LINE
8
BLACK
6
CONTINUOUS
10
1.823
20
2.92421
11
1.82296
21
2.92404
0
LINE
8
BLACK
6
CONTINUOUS
10
1.82296
20
2.92404
11
1.82301
21
2.92389
0
LINE
8
BLACK
6
CONTINUOUS
10
1.82301
20
2.92389
11
1.82301
21
2.88747
0
LINE
8
BLACK
6
CONTINUOUS
10
1.82301
20
2.88747
11
1.83131
21
2.88747
0
LINE
8
BLACK
6
CONTINUOUS
10
1.83131
20
2.88747
11
1.83232
21
2.88729
0
LINE
8
BLACK
6
CONTINUOUS
10
1.83232
20
2.88729
11
1.83387
21
2.88599
0
LINE
8
BLACK
6
CONTINUOUS
10
1.83387
20
2.88599
11
1.83422
21
2.884
0
LINE
8
BLACK
6
CONTINUOUS
10
1.83422
20
2.884
11
1.83321
21
2.88225
0
LINE
8
BLACK
6
CONTINUOUS
10
1.83321
20
2.88225
11
1.83131
21
2.88156
0
LINE
8
BLACK
6
CONTINUOUS
10
1.83131
20
2.88156
11
1.80881
21
2.88156
0
LINE
8
BLACK
6
CONTINUOUS
10
1.80881
20
2.88156
11
1.8078
21
2.88174
0
LINE
8
BLACK
6
CONTINUOUS
10
1.8078
20
2.88174
11
1.80625
21
2.88304
0
LINE
8
BLACK
6
CONTINUOUS
10
1.80625
20
2.88304
11
1.8059
21
2.88503
0
LINE
8
BLACK
6
CONTINUOUS
10
1.8059
20
2.88503
11
1.80691
21
2.88678
0
LINE
8
BLACK
6
CONTINUOUS
10
1.80691
20
2.88678
11
1.80881
21
2.88747
0
LINE
8
BLACK
6
CONTINUOUS
10
1.80881
20
2.88747
11
1.81711
21
2.88747
0
LINE
8
BLACK
6
CONTINUOUS
10
1.81711
20
2.88747
11
1.81711
21
2.91488
0
LINE
8
BLACK
6
CONTINUOUS
10
1.81711
20
2.91488
11
1.81465
21
2.91242
0
LINE
8
BLACK
6
CONTINUOUS
10
1.81465
20
2.91242
11
1.81393
21
2.91192
0
LINE
8
BLACK
6
CONTINUOUS
10
1.81393
20
2.91192
11
1.81388
21
2.91187
0
LINE
8
BLACK
6
CONTINUOUS
10
1.81388
20
2.91187
11
1.81013
21
2.91
0
LINE
8
BLACK
6
CONTINUOUS
10
1.81013
20
2.91
11
1.80915
21
2.9097
0
LINE
8
BLACK
6
CONTINUOUS
10
1.80915
20
2.9097
11
1.80719
21
2.91017
0
LINE
8
BLACK
6
CONTINUOUS
10
1.80719
20
2.91017
11
1.80598
21
2.91179
0
LINE
8
BLACK
6
CONTINUOUS
10
1.80598
20
2.91179
11
1.8061
21
2.91381
0
LINE
8
BLACK
6
CONTINUOUS
10
1.8061
20
2.91381
11
1.80749
21
2.91528
0
LINE
8
BLACK
6
CONTINUOUS
10
1.80749
20
2.91528
11
1.81081
21
2.91694
0
LINE
8
BLACK
6
CONTINUOUS
10
1.81081
20
2.91694
11
1.81402
21
2.92014
0
LINE
8
BLACK
6
CONTINUOUS
10
1.81402
20
2.92014
11
1.8176
21
2.92552
0
LINE
8
BLACK
6
CONTINUOUS
10
1.8176
20
2.92552
11
1.81831
21
2.92626
0
LINE
8
BLACK
6
CONTINUOUS
10
1.81831
20
2.92626
11
1.81848
21
2.92631
0
LINE
8
BLACK
6
CONTINUOUS
10
1.81848
20
2.92631
11
1.81858
21
2.92644
0
LINE
8
BLACK
6
CONTINUOUS
10
1.81858
20
2.92644
11
1.81943
21
2.92659
0
LINE
8
BLACK
6
CONTINUOUS
10
1.81943
20
2.92659
11
1.82025
21
2.92683
0
LINE
8
BLACK
6
CONTINUOUS
10
1.82025
20
2.92683
11
1.82041
21
2.92676
0
LINE
8
BLACK
6
CONTINUOUS
10
1.8579
20
2.92676
11
1.85807
21
2.92679
0
LINE
8
BLACK
6
CONTINUOUS
10
1.85807
20
2.92679
11
1.85881
21
2.92636
0
LINE
8
BLACK
6
CONTINUOUS
10
1.85881
20
2.92636
11
1.8596
21
2.92602
0
LINE
8
BLACK
6
CONTINUOUS
10
1.8596
20
2.92602
11
1.85967
21
2.92587
0
LINE
8
BLACK
6
CONTINUOUS
10
1.85967
20
2.92587
11
1.85982
21
2.92578
0
LINE
8
BLACK
6
CONTINUOUS
10
1.85982
20
2.92578
11
1.86011
21
2.92498
0
LINE
8
BLACK
6
CONTINUOUS
10
1.86011
20
2.92498
11
1.86049
21
2.92421
0
LINE
8
BLACK
6
CONTINUOUS
10
1.86049
20
2.92421
11
1.86045
21
2.92404
0
LINE
8
BLACK
6
CONTINUOUS
10
1.86045
20
2.92404
11
1.86051
21
2.92389
0
LINE
8
BLACK
6
CONTINUOUS
10
1.86051
20
2.92389
11
1.86051
21
2.88747
0
LINE
8
BLACK
6
CONTINUOUS
10
1.86051
20
2.88747
11
1.8688
21
2.88747
0
LINE
8
BLACK
6
CONTINUOUS
10
1.8688
20
2.88747
11
1.86981
21
2.88729
0
LINE
8
BLACK
6
CONTINUOUS
10
1.86981
20
2.88729
11
1.87136
21
2.88599
0
LINE
8
BLACK
6
CONTINUOUS
10
1.87136
20
2.88599
11
1.87171
21
2.884
0
LINE
8
BLACK
6
CONTINUOUS
10
1.87171
20
2.884
11
1.8707
21
2.88225
0
LINE
8
BLACK
6
CONTINUOUS
10
1.8707
20
2.88225
11
1.8688
21
2.88156
0
LINE
8
BLACK
6
CONTINUOUS
10
1.8688
20
2.88156
11
1.84631
21
2.88156
0
LINE
8
BLACK
6
CONTINUOUS
10
1.84631
20
2.88156
11
1.8453
21
2.88174
0
LINE
8
BLACK
6
CONTINUOUS
10
1.8453
20
2.88174
11
1.84375
21
2.88304
0
LINE
8
BLACK
6
CONTINUOUS
10
1.84375
20
2.88304
11
1.8434
21
2.88503
0
LINE
8
BLACK
6
CONTINUOUS
10
1.8434
20
2.88503
11
1.84441
21
2.88678
0
LINE
8
BLACK
6
CONTINUOUS
10
1.84441
20
2.88678
11
1.84631
21
2.88747
0
LINE
8
BLACK
6
CONTINUOUS
10
1.84631
20
2.88747
11
1.8546
21
2.88747
0
LINE
8
BLACK
6
CONTINUOUS
10
1.8546
20
2.88747
11
1.8546
21
2.91488
0
LINE
8
BLACK
6
CONTINUOUS
10
1.8546
20
2.91488
11
1.85214
21
2.91242
0
LINE
8
BLACK
6
CONTINUOUS
10
1.85214
20
2.91242
11
1.85142
21
2.91192
0
LINE
8
BLACK
6
CONTINUOUS
10
1.85142
20
2.91192
11
1.85138
21
2.91187
0
LINE
8
BLACK
6
CONTINUOUS
10
1.85138
20
2.91187
11
1.84763
21
2.91
0
LINE
8
BLACK
6
CONTINUOUS
10
1.84763
20
2.91
11
1.84665
21
2.9097
0
LINE
8
BLACK
6
CONTINUOUS
10
1.84665
20
2.9097
11
1.84468
21
2.91017
0
LINE
8
BLACK
6
CONTINUOUS
10
1.84468
20
2.91017
11
1.84348
21
2.91179
0
LINE
8
BLACK
6
CONTINUOUS
10
1.84348
20
2.91179
11
1.8436
21
2.91381
0
LINE
8
BLACK
6
CONTINUOUS
10
1.8436
20
2.91381
11
1.84499
21
2.91528
0
LINE
8
BLACK
6
CONTINUOUS
10
1.84499
20
2.91528
11
1.84831
21
2.91694
0
LINE
8
BLACK
6
CONTINUOUS
10
1.84831
20
2.91694
11
1.85151
21
2.92014
0
LINE
8
BLACK
6
CONTINUOUS
10
1.85151
20
2.92014
11
1.8551
21
2.92552
0
LINE
8
BLACK
6
CONTINUOUS
10
1.8551
20
2.92552
11
1.85581
21
2.92626
0
LINE
8
BLACK
6
CONTINUOUS
10
1.85581
20
2.92626
11
1.85597
21
2.92631
0
LINE
8
BLACK
6
CONTINUOUS
10
1.85597
20
2.92631
11
1.85608
21
2.92644
0
LINE
8
BLACK
6
CONTINUOUS
10
1.85608
20
2.92644
11
1.85692
21
2.92659
0
LINE
8
BLACK
6
CONTINUOUS
10
1.85692
20
2.92659
11
1.85775
21
2.92683
0
LINE
8
BLACK
6
CONTINUOUS
10
1.85775
20
2.92683
11
1.8579
21
2.92676
0
LINE
8
BLACK
6
CONTINUOUS
10
1.89592
20
2.92668
11
1.89599
21
2.92669
0
LINE
8
BLACK
6
CONTINUOUS
10
1.89599
20
2.92669
11
1.90161
21
2.92481
0
LINE
8
BLACK
6
CONTINUOUS
10
1.90161
20
2.92481
11
1.90251
21
2.92432
0
LINE
8
BLACK
6
CONTINUOUS
10
1.90251
20
2.92432
11
1.9026
21
2.92417
0
LINE
8
BLACK
6
CONTINUOUS
10
1.9026
20
2.92417
11
1.90276
21
2.9241
0
LINE
8
BLACK
6
CONTINUOUS
10
1.90276
20
2.9241
11
1.90651
21
2.92035
0
LINE
8
BLACK
6
CONTINUOUS
10
1.90651
20
2.92035
11
1.90702
21
2.91963
0
LINE
8
BLACK
6
CONTINUOUS
10
1.90702
20
2.91963
11
1.90707
21
2.91958
0
LINE
8
BLACK
6
CONTINUOUS
10
1.90707
20
2.91958
11
1.90894
21
2.91583
0
LINE
8
BLACK
6
CONTINUOUS
10
1.90894
20
2.91583
11
1.90909
21
2.91534
0
LINE
8
BLACK
6
CONTINUOUS
10
1.90909
20
2.91534
11
1.90916
21
2.91523
0
LINE
8
BLACK
6
CONTINUOUS
10
1.90916
20
2.91523
11
1.91104
21
2.90773
0
LINE
8
BLACK
6
CONTINUOUS
10
1.91104
20
2.90773
11
1.91108
21
2.90714
0
LINE
8
BLACK
6
CONTINUOUS
10
1.91108
20
2.90714
11
1.91113
21
2.90701
0
LINE
8
BLACK
6
CONTINUOUS
10
1.91113
20
2.90701
11
1.91113
21
2.90139
0
LINE
8
BLACK
6
CONTINUOUS
10
1.91113
20
2.90139
11
1.91103
21
2.90081
0
LINE
8
BLACK
6
CONTINUOUS
10
1.91103
20
2.90081
11
1.91104
21
2.90067
0
LINE
8
BLACK
6
CONTINUOUS
10
1.91104
20
2.90067
11
1.90916
21
2.89317
0
LINE
8
BLACK
6
CONTINUOUS
10
1.90916
20
2.89317
11
1.90896
21
2.89271
0
LINE
8
BLACK
6
CONTINUOUS
10
1.90896
20
2.89271
11
1.90894
21
2.89257
0
LINE
8
BLACK
6
CONTINUOUS
10
1.90894
20
2.89257
11
1.90707
21
2.88882
0
LINE
8
BLACK
6
CONTINUOUS
10
1.90707
20
2.88882
11
1.90654
21
2.88811
0
LINE
8
BLACK
6
CONTINUOUS
10
1.90654
20
2.88811
11
1.90651
21
2.88805
0
LINE
8
BLACK
6
CONTINUOUS
10
1.90651
20
2.88805
11
1.90276
21
2.8843
0
LINE
8
BLACK
6
CONTINUOUS
10
1.90276
20
2.8843
11
1.90192
21
2.88371
0
LINE
8
BLACK
6
CONTINUOUS
10
1.90192
20
2.88371
11
1.90175
21
2.8837
0
LINE
8
BLACK
6
CONTINUOUS
10
1.90175
20
2.8837
11
1.90161
21
2.88359
0
LINE
8
BLACK
6
CONTINUOUS
10
1.90161
20
2.88359
11
1.89599
21
2.88171
0
LINE
8
BLACK
6
CONTINUOUS
10
1.89599
20
2.88171
11
1.89511
21
2.88158
0
LINE
8
BLACK
6
CONTINUOUS
10
1.89511
20
2.88158
11
1.89505
21
2.88156
0
LINE
8
BLACK
6
CONTINUOUS
10
1.89505
20
2.88156
11
1.88568
21
2.88156
0
LINE
8
BLACK
6
CONTINUOUS
10
1.88568
20
2.88156
11
1.88529
21
2.88163
0
LINE
8
BLACK
6
CONTINUOUS
10
1.88529
20
2.88163
11
1.88516
21
2.88161
0
LINE
8
BLACK
6
CONTINUOUS
10
1.88516
20
2.88161
11
1.88505
21
2.88167
0
LINE
8
BLACK
6
CONTINUOUS
10
1.88505
20
2.88167
11
1.88467
21
2.88174
0
LINE
8
BLACK
6
CONTINUOUS
10
1.88467
20
2.88174
11
1.88408
21
2.88223
0
LINE
8
BLACK
6
CONTINUOUS
10
1.88408
20
2.88223
11
1.88342
21
2.88262
0
LINE
8
BLACK
6
CONTINUOUS
10
1.88342
20
2.88262
11
1.88332
21
2.88287
0
LINE
8
BLACK
6
CONTINUOUS
10
1.88332
20
2.88287
11
1.88312
21
2.88304
0
LINE
8
BLACK
6
CONTINUOUS
10
1.88312
20
2.88304
11
1.88299
21
2.88379
0
LINE
8
BLACK
6
CONTINUOUS
10
1.88299
20
2.88379
11
1.88272
21
2.88451
0
LINE
8
BLACK
6
CONTINUOUS
10
1.88272
20
2.88451
11
1.88272
21
2.92389
0
LINE
8
BLACK
6
CONTINUOUS
10
1.88272
20
2.92389
11
1.88279
21
2.92427
0
LINE
8
BLACK
6
CONTINUOUS
10
1.88279
20
2.92427
11
1.88277
21
2.9244
0
LINE
8
BLACK
6
CONTINUOUS
10
1.88277
20
2.9244
11
1.88284
21
2.92451
0
LINE
8
BLACK
6
CONTINUOUS
10
1.88284
20
2.92451
11
1.8829
21
2.92489
0
LINE
8
BLACK
6
CONTINUOUS
10
1.8829
20
2.92489
11
1.8834
21
2.92548
0
LINE
8
BLACK
6
CONTINUOUS
10
1.8834
20
2.92548
11
1.88378
21
2.92615
0
LINE
8
BLACK
6
CONTINUOUS
10
1.88378
20
2.92615
11
1.88403
21
2.92624
0
LINE
8
BLACK
6
CONTINUOUS
10
1.88403
20
2.92624
11
1.8842
21
2.92644
0
LINE
8
BLACK
6
CONTINUOUS
10
1.8842
20
2.92644
11
1.88496
21
2.92658
0
LINE
8
BLACK
6
CONTINUOUS
10
1.88496
20
2.92658
11
1.88568
21
2.92684
0
LINE
8
BLACK
6
CONTINUOUS
10
1.88568
20
2.92684
11
1.89505
21
2.92684
0
LINE
8
BLACK
6
CONTINUOUS
10
1.89505
20
2.92684
11
1.89592
21
2.92668
0
LINE
8
BLACK
6
CONTINUOUS
10
1.88863
20
2.88747
11
1.89457
21
2.88747
0
LINE
8
BLACK
6
CONTINUOUS
10
1.89457
20
2.88747
11
1.89908
21
2.88897
0
LINE
8
BLACK
6
CONTINUOUS
10
1.89908
20
2.88897
11
1.902
21
2.89189
0
LINE
8
BLACK
6
CONTINUOUS
10
1.902
20
2.89189
11
1.90351
21
2.89492
0
LINE
8
BLACK
6
CONTINUOUS
10
1.90351
20
2.89492
11
1.90522
21
2.90175
0
LINE
8
BLACK
6
CONTINUOUS
10
1.90522
20
2.90175
11
1.90522
21
2.90665
0
LINE
8
BLACK
6
CONTINUOUS
10
1.90522
20
2.90665
11
1.90351
21
2.91348
0
LINE
8
BLACK
6
CONTINUOUS
10
1.90351
20
2.91348
11
1.902
21
2.91651
0
LINE
8
BLACK
6
CONTINUOUS
10
1.902
20
2.91651
11
1.89908
21
2.91943
0
LINE
8
BLACK
6
CONTINUOUS
10
1.89908
20
2.91943
11
1.89457
21
2.92093
0
LINE
8
BLACK
6
CONTINUOUS
10
1.89457
20
2.92093
11
1.88863
21
2.92093
0
LINE
8
BLACK
6
CONTINUOUS
10
1.88863
20
2.92093
11
1.88863
21
2.88747
0
LINE
8
BLACK
6
CONTINUOUS
10
1.94092
20
2.92668
11
1.94098
21
2.92669
0
LINE
8
BLACK
6
CONTINUOUS
10
1.94098
20
2.92669
11
1.9466
21
2.92481
0
LINE
8
BLACK
6
CONTINUOUS
10
1.9466
20
2.92481
11
1.94751
21
2.92432
0
LINE
8
BLACK
6
CONTINUOUS
10
1.94751
20
2.92432
11
1.94856
21
2.9226
0
LINE
8
BLACK
6
CONTINUOUS
10
1.94856
20
2.9226
11
1.94827
21
2.9206
0
LINE
8
BLACK
6
CONTINUOUS
10
1.94827
20
2.9206
11
1.94676
21
2.91926
0
LINE
8
BLACK
6
CONTINUOUS
10
1.94676
20
2.91926
11
1.94474
21
2.91921
0
LINE
8
BLACK
6
CONTINUOUS
10
1.94474
20
2.91921
11
1.93957
21
2.92093
0
LINE
8
BLACK
6
CONTINUOUS
10
1.93957
20
2.92093
11
1.93137
21
2.92093
0
LINE
8
BLACK
6
CONTINUOUS
10
1.93137
20
2.92093
11
1.92867
21
2.91958
0
LINE
8
BLACK
6
CONTINUOUS
10
1.92867
20
2.91958
11
1.92747
21
2.91839
0
LINE
8
BLACK
6
CONTINUOUS
10
1.92747
20
2.91839
11
1.92613
21
2.91569
0
LINE
8
BLACK
6
CONTINUOUS
10
1.92613
20
2.91569
11
1.92613
21
2.91333
0
LINE
8
BLACK
6
CONTINUOUS
10
1.92613
20
2.91333
11
1.92747
21
2.91064
0
LINE
8
BLACK
6
CONTINUOUS
10
1.92747
20
2.91064
11
1.92867
21
2.90944
0
LINE
8
BLACK
6
CONTINUOUS
10
1.92867
20
2.90944
11
1.9317
21
2.90792
0
LINE
8
BLACK
6
CONTINUOUS
10
1.9317
20
2.90792
11
1.93889
21
2.90613
0
LINE
8
BLACK
6
CONTINUOUS
10
1.93889
20
2.90613
11
1.93935
21
2.90592
0
LINE
8
BLACK
6
CONTINUOUS
10
1.93935
20
2.90592
11
1.93949
21
2.9059
0
LINE
8
BLACK
6
CONTINUOUS
10
1.93949
20
2.9059
11
1.94324
21
2.90403
0
LINE
8
BLACK
6
CONTINUOUS
10
1.94324
20
2.90403
11
1.94395
21
2.9035
0
LINE
8
BLACK
6
CONTINUOUS
10
1.94395
20
2.9035
11
1.94401
21
2.90348
0
LINE
8
BLACK
6
CONTINUOUS
10
1.94401
20
2.90348
11
1.94588
21
2.9016
0
LINE
8
BLACK
6
CONTINUOUS
10
1.94588
20
2.9016
11
1.94639
21
2.90088
0
LINE
8
BLACK
6
CONTINUOUS
10
1.94639
20
2.90088
11
1.94644
21
2.90083
0
LINE
8
BLACK
6
CONTINUOUS
10
1.94644
20
2.90083
11
1.94831
21
2.89708
0
LINE
8
BLACK
6
CONTINUOUS
10
1.94831
20
2.89708
11
1.9486
21
2.8961
0
LINE
8
BLACK
6
CONTINUOUS
10
1.9486
20
2.8961
11
1.94856
21
2.89593
0
LINE
8
BLACK
6
CONTINUOUS
10
1.94856
20
2.89593
11
1.94862
21
2.89576
0
LINE
8
BLACK
6
CONTINUOUS
10
1.94862
20
2.89576
11
1.94862
21
2.89201
0
LINE
8
BLACK
6
CONTINUOUS
10
1.94862
20
2.89201
11
1.94844
21
2.891
0
LINE
8
BLACK
6
CONTINUOUS
10
1.94844
20
2.891
11
1.94833
21
2.89087
0
LINE
8
BLACK
6
CONTINUOUS
10
1.94833
20
2.89087
11
1.94831
21
2.89069
0
LINE
8
BLACK
6
CONTINUOUS
10
1.94831
20
2.89069
11
1.94644
21
2.88694
0
LINE
8
BLACK
6
CONTINUOUS
10
1.94644
20
2.88694
11
1.94591
21
2.88623
0
LINE
8
BLACK
6
CONTINUOUS
10
1.94591
20
2.88623
11
1.94588
21
2.88618
0
LINE
8
BLACK
6
CONTINUOUS
10
1.94588
20
2.88618
11
1.94401
21
2.8843
0
LINE
8
BLACK
6
CONTINUOUS
10
1.94401
20
2.8843
11
1.94329
21
2.8838
0
LINE
8
BLACK
6
CONTINUOUS
10
1.94329
20
2.8838
11
1.94324
21
2.88375
0
LINE
8
BLACK
6
CONTINUOUS
10
1.94324
20
2.88375
11
1.93949
21
2.88187
0
LINE
8
BLACK
6
CONTINUOUS
10
1.93949
20
2.88187
11
1.93851
21
2.88158
0
LINE
8
BLACK
6
CONTINUOUS
10
1.93851
20
2.88158
11
1.93834
21
2.88162
0
LINE
8
BLACK
6
CONTINUOUS
10
1.93834
20
2.88162
11
1.93817
21
2.88156
0
LINE
8
BLACK
6
CONTINUOUS
10
1.93817
20
2.88156
11
1.9288
21
2.88156
0
LINE
8
BLACK
6
CONTINUOUS
10
1.9288
20
2.88156
11
1.92793
21
2.88172
0
LINE
8
BLACK
6
CONTINUOUS
10
1.92793
20
2.88172
11
1.92786
21
2.88171
0
LINE
8
BLACK
6
CONTINUOUS
10
1.92786
20
2.88171
11
1.92224
21
2.88359
0
LINE
8
BLACK
6
CONTINUOUS
10
1.92224
20
2.88359
11
1.92134
21
2.88408
0
LINE
8
BLACK
6
CONTINUOUS
10
1.92134
20
2.88408
11
1.92028
21
2.8858
0
LINE
8
BLACK
6
CONTINUOUS
10
1.92028
20
2.8858
11
1.92058
21
2.8878
0
LINE
8
BLACK
6
CONTINUOUS
10
1.92058
20
2.8878
11
1.92209
21
2.88914
0
LINE
8
BLACK
6
CONTINUOUS
10
1.92209
20
2.88914
11
1.92411
21
2.88919
0
LINE
8
BLACK
6
CONTINUOUS
10
1.92411
20
2.88919
11
1.92928
21
2.88747
0
LINE
8
BLACK
6
CONTINUOUS
10
1.92928
20
2.88747
11
1.93747
21
2.88747
0
LINE
8
BLACK
6
CONTINUOUS
10
1.93747
20
2.88747
11
1.94017
21
2.88882
0
LINE
8
BLACK
6
CONTINUOUS
10
1.94017
20
2.88882
11
1.94137
21
2.89001
0
LINE
8
BLACK
6
CONTINUOUS
10
1.94137
20
2.89001
11
1.94272
21
2.89271
0
LINE
8
BLACK
6
CONTINUOUS
10
1.94272
20
2.89271
11
1.94272
21
2.89507
0
LINE
8
BLACK
6
CONTINUOUS
10
1.94272
20
2.89507
11
1.94137
21
2.89776
0
LINE
8
BLACK
6
CONTINUOUS
10
1.94137
20
2.89776
11
1.94017
21
2.89896
0
LINE
8
BLACK
6
CONTINUOUS
10
1.94017
20
2.89896
11
1.93714
21
2.90048
0
LINE
8
BLACK
6
CONTINUOUS
10
1.93714
20
2.90048
11
1.92996
21
2.90227
0
LINE
8
BLACK
6
CONTINUOUS
10
1.92996
20
2.90227
11
1.92949
21
2.90248
0
LINE
8
BLACK
6
CONTINUOUS
10
1.92949
20
2.90248
11
1.92935
21
2.9025
0
LINE
8
BLACK
6
CONTINUOUS
10
1.92935
20
2.9025
11
1.9256
21
2.90437
0
LINE
8
BLACK
6
CONTINUOUS
10
1.9256
20
2.90437
11
1.92489
21
2.9049
0
LINE
8
BLACK
6
CONTINUOUS
10
1.92489
20
2.9049
11
1.92483
21
2.90492
0
LINE
8
BLACK
6
CONTINUOUS
10
1.92483
20
2.90492
11
1.92296
21
2.9068
0
LINE
8
BLACK
6
CONTINUOUS
10
1.92296
20
2.9068
11
1.92245
21
2.90752
0
LINE
8
BLACK
6
CONTINUOUS
10
1.92245
20
2.90752
11
1.92241
21
2.90757
0
LINE
8
BLACK
6
CONTINUOUS
10
1.92241
20
2.90757
11
1.92053
21
2.91132
0
LINE
8
BLACK
6
CONTINUOUS
10
1.92053
20
2.91132
11
1.92024
21
2.9123
0
LINE
8
BLACK
6
CONTINUOUS
10
1.92024
20
2.9123
11
1.92028
21
2.91247
0
LINE
8
BLACK
6
CONTINUOUS
10
1.92028
20
2.91247
11
1.92022
21
2.91264
0
LINE
8
BLACK
6
CONTINUOUS
10
1.92022
20
2.91264
11
1.92022
21
2.91639
0
LINE
8
BLACK
6
CONTINUOUS
10
1.92022
20
2.91639
11
1.9204
21
2.9174
0
LINE
8
BLACK
6
CONTINUOUS
10
1.9204
20
2.9174
11
1.92051
21
2.91753
0
LINE
8
BLACK
6
CONTINUOUS
10
1.92051
20
2.91753
11
1.92053
21
2.91771
0
LINE
8
BLACK
6
CONTINUOUS
10
1.92053
20
2.91771
11
1.92241
21
2.92146
0
LINE
8
BLACK
6
CONTINUOUS
10
1.92241
20
2.92146
11
1.92293
21
2.92217
0
LINE
8
BLACK
6
CONTINUOUS
10
1.92293
20
2.92217
11
1.92296
21
2.92222
0
LINE
8
BLACK
6
CONTINUOUS
10
1.92296
20
2.92222
11
1.92483
21
2.9241
0
LINE
8
BLACK
6
CONTINUOUS
10
1.92483
20
2.9241
11
1.92556
21
2.9246
0
LINE
8
BLACK
6
CONTINUOUS
10
1.92556
20
2.9246
11
1.9256
21
2.92465
0
LINE
8
BLACK
6
CONTINUOUS
10
1.9256
20
2.92465
11
1.92935
21
2.92653
0
LINE
8
BLACK
6
CONTINUOUS
10
1.92935
20
2.92653
11
1.93033
21
2.92682
0
LINE
8
BLACK
6
CONTINUOUS
10
1.93033
20
2.92682
11
1.93051
21
2.92678
0
LINE
8
BLACK
6
CONTINUOUS
10
1.93051
20
2.92678
11
1.93067
21
2.92684
0
LINE
8
BLACK
6
CONTINUOUS
10
1.93067
20
2.92684
11
1.94005
21
2.92684
0
LINE
8
BLACK
6
CONTINUOUS
10
1.94005
20
2.92684
11
1.94092
21
2.92668
0
LINE
8
BLACK
6
CONTINUOUS
10
2.02101
20
2.92676
11
2.02117
21
2.92679
0
LINE
8
BLACK
6
CONTINUOUS
10
2.02117
20
2.92679
11
2.02192
21
2.92636
0
LINE
8
BLACK
6
CONTINUOUS
10
2.02192
20
2.92636
11
2.0227
21
2.92602
0
LINE
8
BLACK
6
CONTINUOUS
10
2.0227
20
2.92602
11
2.02278
21
2.92587
0
LINE
8
BLACK
6
CONTINUOUS
10
2.02278
20
2.92587
11
2.02292
21
2.92578
0
LINE
8
BLACK
6
CONTINUOUS
10
2.02292
20
2.92578
11
2.02322
21
2.92498
0
LINE
8
BLACK
6
CONTINUOUS
10
2.02322
20
2.92498
11
2.0236
21
2.92421
0
LINE
8
BLACK
6
CONTINUOUS
10
2.0236
20
2.92421
11
2.02356
21
2.92404
0
LINE
8
BLACK
6
CONTINUOUS
10
2.02356
20
2.92404
11
2.02361
21
2.92389
0
LINE
8
BLACK
6
CONTINUOUS
10
2.02361
20
2.92389
11
2.02361
21
2.88747
0
LINE
8
BLACK
6
CONTINUOUS
10
2.02361
20
2.88747
11
2.03191
21
2.88747
0
LINE
8
BLACK
6
CONTINUOUS
10
2.03191
20
2.88747
11
2.03292
21
2.88729
0
LINE
8
BLACK
6
CONTINUOUS
10
2.03292
20
2.88729
11
2.03447
21
2.88599
0
LINE
8
BLACK
6
CONTINUOUS
10
2.03447
20
2.88599
11
2.03482
21
2.884
0
LINE
8
BLACK
6
CONTINUOUS
10
2.03482
20
2.884
11
2.03381
21
2.88225
0
LINE
8
BLACK
6
CONTINUOUS
10
2.03381
20
2.88225
11
2.03191
21
2.88156
0
LINE
8
BLACK
6
CONTINUOUS
10
2.03191
20
2.88156
11
2.00941
21
2.88156
0
LINE
8
BLACK
6
CONTINUOUS
10
2.00941
20
2.88156
11
2.0084
21
2.88174
0
LINE
8
BLACK
6
CONTINUOUS
10
2.0084
20
2.88174
11
2.00685
21
2.88304
0
LINE
8
BLACK
6
CONTINUOUS
10
2.00685
20
2.88304
11
2.0065
21
2.88503
0
LINE
8
BLACK
6
CONTINUOUS
10
2.0065
20
2.88503
11
2.00751
21
2.88678
0
LINE
8
BLACK
6
CONTINUOUS
10
2.00751
20
2.88678
11
2.00941
21
2.88747
0
LINE
8
BLACK
6
CONTINUOUS
10
2.00941
20
2.88747
11
2.01771
21
2.88747
0
LINE
8
BLACK
6
CONTINUOUS
10
2.01771
20
2.88747
11
2.01771
21
2.91488
0
LINE
8
BLACK
6
CONTINUOUS
10
2.01771
20
2.91488
11
2.01525
21
2.91242
0
LINE
8
BLACK
6
CONTINUOUS
10
2.01525
20
2.91242
11
2.01453
21
2.91192
0
LINE
8
BLACK
6
CONTINUOUS
10
2.01453
20
2.91192
11
2.01448
21
2.91187
0
LINE
8
BLACK
6
CONTINUOUS
10
2.01448
20
2.91187
11
2.01073
21
2.91
0
LINE
8
BLACK
6
CONTINUOUS
10
2.01073
20
2.91
11
2.00975
21
2.9097
0
LINE
8
BLACK
6
CONTINUOUS
10
2.00975
20
2.9097
11
2.00779
21
2.91017
0
LINE
8
BLACK
6
CONTINUOUS
10
2.00779
20
2.91017
11
2.00658
21
2.91179
0
LINE
8
BLACK
6
CONTINUOUS
10
2.00658
20
2.91179
11
2.0067
21
2.91381
0
LINE
8
BLACK
6
CONTINUOUS
10
2.0067
20
2.91381
11
2.00809
21
2.91528
0
LINE
8
BLACK
6
CONTINUOUS
10
2.00809
20
2.91528
11
2.01141
21
2.91694
0
LINE
8
BLACK
6
CONTINUOUS
10
2.01141
20
2.91694
11
2.01462
21
2.92014
0
LINE
8
BLACK
6
CONTINUOUS
10
2.01462
20
2.92014
11
2.0182
21
2.92552
0
LINE
8
BLACK
6
CONTINUOUS
10
2.0182
20
2.92552
11
2.01891
21
2.92626
0
LINE
8
BLACK
6
CONTINUOUS
10
2.01891
20
2.92626
11
2.01908
21
2.92631
0
LINE
8
BLACK
6
CONTINUOUS
10
2.01908
20
2.92631
11
2.01918
21
2.92644
0
LINE
8
BLACK
6
CONTINUOUS
10
2.01918
20
2.92644
11
2.02003
21
2.92659
0
LINE
8
BLACK
6
CONTINUOUS
10
2.02003
20
2.92659
11
2.02085
21
2.92683
0
LINE
8
BLACK
6
CONTINUOUS
10
2.02085
20
2.92683
11
2.02101
21
2.92676
0
LINE
8
BLACK
6
CONTINUOUS
10
2.0585
20
2.92676
11
2.05867
21
2.92679
0
LINE
8
BLACK
6
CONTINUOUS
10
2.05867
20
2.92679
11
2.05941
21
2.92636
0
LINE
8
BLACK
6
CONTINUOUS
10
2.05941
20
2.92636
11
2.0602
21
2.92602
0
LINE
8
BLACK
6
CONTINUOUS
10
2.0602
20
2.92602
11
2.06027
21
2.92587
0
LINE
8
BLACK
6
CONTINUOUS
10
2.06027
20
2.92587
11
2.06042
21
2.92578
0
LINE
8
BLACK
6
CONTINUOUS
10
2.06042
20
2.92578
11
2.06071
21
2.92498
0
LINE
8
BLACK
6
CONTINUOUS
10
2.06071
20
2.92498
11
2.06109
21
2.92421
0
LINE
8
BLACK
6
CONTINUOUS
10
2.06109
20
2.92421
11
2.06105
21
2.92404
0
LINE
8
BLACK
6
CONTINUOUS
10
2.06105
20
2.92404
11
2.06111
21
2.92389
0
LINE
8
BLACK
6
CONTINUOUS
10
2.06111
20
2.92389
11
2.06111
21
2.88747
0
LINE
8
BLACK
6
CONTINUOUS
10
2.06111
20
2.88747
11
2.0694
21
2.88747
0
LINE
8
BLACK
6
CONTINUOUS
10
2.0694
20
2.88747
11
2.07041
21
2.88729
0
LINE
8
BLACK
6
CONTINUOUS
10
2.07041
20
2.88729
11
2.07196
21
2.88599
0
LINE
8
BLACK
6
CONTINUOUS
10
2.07196
20
2.88599
11
2.07231
21
2.884
0
LINE
8
BLACK
6
CONTINUOUS
10
2.07231
20
2.884
11
2.0713
21
2.88225
0
LINE
8
BLACK
6
CONTINUOUS
10
2.0713
20
2.88225
11
2.0694
21
2.88156
0
LINE
8
BLACK
6
CONTINUOUS
10
2.0694
20
2.88156
11
2.04691
21
2.88156
0
LINE
8
BLACK
6
CONTINUOUS
10
2.04691
20
2.88156
11
2.0459
21
2.88174
0
LINE
8
BLACK
6
CONTINUOUS
10
2.0459
20
2.88174
11
2.04435
21
2.88304
0
LINE
8
BLACK
6
CONTINUOUS
10
2.04435
20
2.88304
11
2.044
21
2.88503
0
LINE
8
BLACK
6
CONTINUOUS
10
2.044
20
2.88503
11
2.04501
21
2.88678
0
LINE
8
BLACK
6
CONTINUOUS
10
2.04501
20
2.88678
11
2.04691
21
2.88747
0
LINE
8
BLACK
6
CONTINUOUS
10
2.04691
20
2.88747
11
2.0552
21
2.88747
0
LINE
8
BLACK
6
CONTINUOUS
10
2.0552
20
2.88747
11
2.0552
21
2.91488
0
LINE
8
BLACK
6
CONTINUOUS
10
2.0552
20
2.91488
11
2.05274
21
2.91242
0
LINE
8
BLACK
6
CONTINUOUS
10
2.05274
20
2.91242
11
2.05202
21
2.91192
0
LINE
8
BLACK
6
CONTINUOUS
10
2.05202
20
2.91192
11
2.05198
21
2.91187
0
LINE
8
BLACK
6
CONTINUOUS
10
2.05198
20
2.91187
11
2.04823
21
2.91
0
LINE
8
BLACK
6
CONTINUOUS
10
2.04823
20
2.91
11
2.04724
21
2.9097
0
LINE
8
BLACK
6
CONTINUOUS
10
2.04724
20
2.9097
11
2.04528
21
2.91017
0
LINE
8
BLACK
6
CONTINUOUS
10
2.04528
20
2.91017
11
2.04408
21
2.91179
0
LINE
8
BLACK
6
CONTINUOUS
10
2.04408
20
2.91179
11
2.0442
21
2.91381
0
LINE
8
BLACK
6
CONTINUOUS
10
2.0442
20
2.91381
11
2.04559
21
2.91528
0
LINE
8
BLACK
6
CONTINUOUS
10
2.04559
20
2.91528
11
2.04891
21
2.91694
0
LINE
8
BLACK
6
CONTINUOUS
10
2.04891
20
2.91694
11
2.05211
21
2.92014
0
LINE
8
BLACK
6
CONTINUOUS
10
2.05211
20
2.92014
11
2.0557
21
2.92552
0
LINE
8
BLACK
6
CONTINUOUS
10
2.0557
20
2.92552
11
2.05641
21
2.92626
0
LINE
8
BLACK
6
CONTINUOUS
10
2.05641
20
2.92626
11
2.05657
21
2.92631
0
LINE
8
BLACK
6
CONTINUOUS
10
2.05657
20
2.92631
11
2.05668
21
2.92644
0
LINE
8
BLACK
6
CONTINUOUS
10
2.05668
20
2.92644
11
2.05752
21
2.92659
0
LINE
8
BLACK
6
CONTINUOUS
10
2.05752
20
2.92659
11
2.05835
21
2.92683
0
LINE
8
BLACK
6
CONTINUOUS
10
2.05835
20
2.92683
11
2.0585
21
2.92676
0
LINE
8
BLACK
6
CONTINUOUS
10
1.56423
20
2.92666
11
1.56577
21
2.92536
0
LINE
8
BLACK
6
CONTINUOUS
10
1.56577
20
2.92536
11
1.56613
21
2.92337
0
LINE
8
BLACK
6
CONTINUOUS
10
1.56613
20
2.92337
11
1.56512
21
2.92162
0
LINE
8
BLACK
6
CONTINUOUS
10
1.56512
20
2.92162
11
1.56322
21
2.92093
0
LINE
8
BLACK
6
CONTINUOUS
10
1.56322
20
2.92093
11
1.54742
21
2.92093
0
LINE
8
BLACK
6
CONTINUOUS
10
1.54742
20
2.92093
11
1.54742
21
2.90809
0
LINE
8
BLACK
6
CONTINUOUS
10
1.54742
20
2.90809
11
1.55759
21
2.90809
0
LINE
8
BLACK
6
CONTINUOUS
10
1.55759
20
2.90809
11
1.5586
21
2.90791
0
LINE
8
BLACK
6
CONTINUOUS
10
1.5586
20
2.90791
11
1.56015
21
2.90661
0
LINE
8
BLACK
6
CONTINUOUS
10
1.56015
20
2.90661
11
1.5605
21
2.90462
0
LINE
8
BLACK
6
CONTINUOUS
10
1.5605
20
2.90462
11
1.55949
21
2.90288
0
LINE
8
BLACK
6
CONTINUOUS
10
1.55949
20
2.90288
11
1.55759
21
2.90218
0
LINE
8
BLACK
6
CONTINUOUS
10
1.55759
20
2.90218
11
1.54742
21
2.90218
0
LINE
8
BLACK
6
CONTINUOUS
10
1.54742
20
2.90218
11
1.54742
21
2.88451
0
LINE
8
BLACK
6
CONTINUOUS
10
1.54742
20
2.88451
11
1.54724
21
2.88351
0
LINE
8
BLACK
6
CONTINUOUS
10
1.54724
20
2.88351
11
1.54595
21
2.88196
0
LINE
8
BLACK
6
CONTINUOUS
10
1.54595
20
2.88196
11
1.54396
21
2.88161
0
LINE
8
BLACK
6
CONTINUOUS
10
1.54396
20
2.88161
11
1.54221
21
2.88262
0
LINE
8
BLACK
6
CONTINUOUS
10
1.54221
20
2.88262
11
1.54152
21
2.88451
0
LINE
8
BLACK
6
CONTINUOUS
10
1.54152
20
2.88451
11
1.54152
21
2.92389
0
LINE
8
BLACK
6
CONTINUOUS
10
1.54152
20
2.92389
11
1.54159
21
2.92427
0
LINE
8
BLACK
6
CONTINUOUS
10
1.54159
20
2.92427
11
1.54156
21
2.9244
0
LINE
8
BLACK
6
CONTINUOUS
10
1.54156
20
2.9244
11
1.54163
21
2.92451
0
LINE
8
BLACK
6
CONTINUOUS
10
1.54163
20
2.92451
11
1.5417
21
2.92489
0
LINE
8
BLACK
6
CONTINUOUS
10
1.5417
20
2.92489
11
1.54219
21
2.92548
0
LINE
8
BLACK
6
CONTINUOUS
10
1.54219
20
2.92548
11
1.54257
21
2.92615
0
LINE
8
BLACK
6
CONTINUOUS
10
1.54257
20
2.92615
11
1.54282
21
2.92624
0
LINE
8
BLACK
6
CONTINUOUS
10
1.54282
20
2.92624
11
1.54299
21
2.92644
0
LINE
8
BLACK
6
CONTINUOUS
10
1.54299
20
2.92644
11
1.54375
21
2.92658
0
LINE
8
BLACK
6
CONTINUOUS
10
1.54375
20
2.92658
11
1.54447
21
2.92684
0
LINE
8
BLACK
6
CONTINUOUS
10
1.54447
20
2.92684
11
1.56322
21
2.92684
0
LINE
8
BLACK
6
CONTINUOUS
10
1.56322
20
2.92684
11
1.56423
21
2.92666
0
LINE
8
BLACK
6
CONTINUOUS
10
1.60083
20
2.92606
11
1.60177
21
2.92427
0
LINE
8
BLACK
6
CONTINUOUS
10
1.60177
20
2.92427
11
1.60133
21
2.9223
0
LINE
8
BLACK
6
CONTINUOUS
10
1.60133
20
2.9223
11
1.58867
21
2.9024
0
LINE
8
BLACK
6
CONTINUOUS
10
1.58867
20
2.9024
11
1.58867
21
2.88451
0
LINE
8
BLACK
6
CONTINUOUS
10
1.58867
20
2.88451
11
1.58849
21
2.88351
0
LINE
8
BLACK
6
CONTINUOUS
10
1.58849
20
2.88351
11
1.58719
21
2.88196
0
LINE
8
BLACK
6
CONTINUOUS
10
1.58719
20
2.88196
11
1.5852
21
2.88161
0
LINE
8
BLACK
6
CONTINUOUS
10
1.5852
20
2.88161
11
1.58345
21
2.88262
0
LINE
8
BLACK
6
CONTINUOUS
10
1.58345
20
2.88262
11
1.58276
21
2.88451
0
LINE
8
BLACK
6
CONTINUOUS
10
1.58276
20
2.88451
11
1.58276
21
2.9024
0
LINE
8
BLACK
6
CONTINUOUS
10
1.58276
20
2.9024
11
1.5701
21
2.9223
0
LINE
8
BLACK
6
CONTINUOUS
10
1.5701
20
2.9223
11
1.56971
21
2.92325
0
LINE
8
BLACK
6
CONTINUOUS
10
1.56971
20
2.92325
11
1.56997
21
2.92525
0
LINE
8
BLACK
6
CONTINUOUS
10
1.56997
20
2.92525
11
1.57146
21
2.92661
0
LINE
8
BLACK
6
CONTINUOUS
10
1.57146
20
2.92661
11
1.57348
21
2.9267
0
LINE
8
BLACK
6
CONTINUOUS
10
1.57348
20
2.9267
11
1.57508
21
2.92547
0
LINE
8
BLACK
6
CONTINUOUS
10
1.57508
20
2.92547
11
1.58571
21
2.90876
0
LINE
8
BLACK
6
CONTINUOUS
10
1.58571
20
2.90876
11
1.59635
21
2.92547
0
LINE
8
BLACK
6
CONTINUOUS
10
1.59635
20
2.92547
11
1.59704
21
2.92623
0
LINE
8
BLACK
6
CONTINUOUS
10
1.59704
20
2.92623
11
1.59897
21
2.92684
0
LINE
8
BLACK
6
CONTINUOUS
10
1.59897
20
2.92684
11
1.60083
21
2.92606
0
LINE
8
BLACK
6
CONTINUOUS
10
1.70711
20
2.92836
11
1.70845
21
2.92685
0
LINE
8
BLACK
6
CONTINUOUS
10
1.70845
20
2.92685
11
1.7085
21
2.92483
0
LINE
8
BLACK
6
CONTINUOUS
10
1.7085
20
2.92483
11
1.70042
21
2.90059
0
LINE
8
BLACK
6
CONTINUOUS
10
1.70042
20
2.90059
11
1.71212
21
2.90059
0
LINE
8
BLACK
6
CONTINUOUS
10
1.71212
20
2.90059
11
1.71212
21
2.91076
0
LINE
8
BLACK
6
CONTINUOUS
10
1.71212
20
2.91076
11
1.7123
21
2.91177
0
LINE
8
BLACK
6
CONTINUOUS
10
1.7123
20
2.91177
11
1.7136
21
2.91332
0
LINE
8
BLACK
6
CONTINUOUS
10
1.7136
20
2.91332
11
1.71559
21
2.91367
0
LINE
8
BLACK
6
CONTINUOUS
10
1.71559
20
2.91367
11
1.71734
21
2.91266
0
LINE
8
BLACK
6
CONTINUOUS
10
1.71734
20
2.91266
11
1.71803
21
2.91076
0
LINE
8
BLACK
6
CONTINUOUS
10
1.71803
20
2.91076
11
1.71803
21
2.90059
0
LINE
8
BLACK
6
CONTINUOUS
10
1.71803
20
2.90059
11
1.7207
21
2.90059
0
LINE
8
BLACK
6
CONTINUOUS
10
1.7207
20
2.90059
11
1.72171
21
2.90041
0
LINE
8
BLACK
6
CONTINUOUS
10
1.72171
20
2.90041
11
1.72326
21
2.89911
0
LINE
8
BLACK
6
CONTINUOUS
10
1.72326
20
2.89911
11
1.72361
21
2.89713
0
LINE
8
BLACK
6
CONTINUOUS
10
1.72361
20
2.89713
11
1.7226
21
2.89538
0
LINE
8
BLACK
6
CONTINUOUS
10
1.7226
20
2.89538
11
1.7207
21
2.89469
0
LINE
8
BLACK
6
CONTINUOUS
10
1.7207
20
2.89469
11
1.71803
21
2.89469
0
LINE
8
BLACK
6
CONTINUOUS
10
1.71803
20
2.89469
11
1.71803
21
2.88451
0
LINE
8
BLACK
6
CONTINUOUS
10
1.71803
20
2.88451
11
1.71785
21
2.88351
0
LINE
8
BLACK
6
CONTINUOUS
10
1.71785
20
2.88351
11
1.71655
21
2.88196
0
LINE
8
BLACK
6
CONTINUOUS
10
1.71655
20
2.88196
11
1.71456
21
2.88161
0
LINE
8
BLACK
6
CONTINUOUS
10
1.71456
20
2.88161
11
1.71281
21
2.88262
0
LINE
8
BLACK
6
CONTINUOUS
10
1.71281
20
2.88262
11
1.71212
21
2.88451
0
LINE
8
BLACK
6
CONTINUOUS
10
1.71212
20
2.88451
11
1.71212
21
2.89469
0
LINE
8
BLACK
6
CONTINUOUS
10
1.71212
20
2.89469
11
1.69633
21
2.89469
0
LINE
8
BLACK
6
CONTINUOUS
10
1.69633
20
2.89469
11
1.69532
21
2.89486
0
LINE
8
BLACK
6
CONTINUOUS
10
1.69532
20
2.89486
11
1.69514
21
2.89501
0
LINE
8
BLACK
6
CONTINUOUS
10
1.69514
20
2.89501
11
1.69492
21
2.89504
0
LINE
8
BLACK
6
CONTINUOUS
10
1.69492
20
2.89504
11
1.69439
21
2.89564
0
LINE
8
BLACK
6
CONTINUOUS
10
1.69439
20
2.89564
11
1.69377
21
2.89616
0
LINE
8
BLACK
6
CONTINUOUS
10
1.69377
20
2.89616
11
1.69373
21
2.89638
0
LINE
8
BLACK
6
CONTINUOUS
10
1.69373
20
2.89638
11
1.69358
21
2.89655
0
LINE
8
BLACK
6
CONTINUOUS
10
1.69358
20
2.89655
11
1.69356
21
2.89736
0
LINE
8
BLACK
6
CONTINUOUS
10
1.69356
20
2.89736
11
1.69342
21
2.89815
0
LINE
8
BLACK
6
CONTINUOUS
10
1.69342
20
2.89815
11
1.69353
21
2.89835
0
LINE
8
BLACK
6
CONTINUOUS
10
1.69353
20
2.89835
11
1.69352
21
2.89857
0
LINE
8
BLACK
6
CONTINUOUS
10
1.69352
20
2.89857
11
1.7029
21
2.92669
0
LINE
8
BLACK
6
CONTINUOUS
10
1.7029
20
2.92669
11
1.70339
21
2.9276
0
LINE
8
BLACK
6
CONTINUOUS
10
1.70339
20
2.9276
11
1.70511
21
2.92865
0
LINE
8
BLACK
6
CONTINUOUS
10
1.70511
20
2.92865
11
1.70711
21
2.92836
0
LINE
8
BLACK
6
CONTINUOUS
10
1.68046
20
2.90229
11
1.68201
21
2.90099
0
LINE
8
BLACK
6
CONTINUOUS
10
1.68201
20
2.90099
11
1.68236
21
2.899
0
LINE
8
BLACK
6
CONTINUOUS
10
1.68236
20
2.899
11
1.68135
21
2.89725
0
LINE
8
BLACK
6
CONTINUOUS
10
1.68135
20
2.89725
11
1.67945
21
2.89656
0
LINE
8
BLACK
6
CONTINUOUS
10
1.67945
20
2.89656
11
1.64946
21
2.89656
0
LINE
8
BLACK
6
CONTINUOUS
10
1.64946
20
2.89656
11
1.64845
21
2.89674
0
LINE
8
BLACK
6
CONTINUOUS
10
1.64845
20
2.89674
11
1.6469
21
2.89804
0
LINE
8
BLACK
6
CONTINUOUS
10
1.6469
20
2.89804
11
1.64655
21
2.90003
0
LINE
8
BLACK
6
CONTINUOUS
10
1.64655
20
2.90003
11
1.64756
21
2.90178
0
LINE
8
BLACK
6
CONTINUOUS
10
1.64756
20
2.90178
11
1.64946
21
2.90247
0
LINE
8
BLACK
6
CONTINUOUS
10
1.64946
20
2.90247
11
1.67945
21
2.90247
0
LINE
8
BLACK
6
CONTINUOUS
10
1.67945
20
2.90247
11
1.68046
21
2.90229
0
LINE
8
BLACK
6
CONTINUOUS
10
1.99355
20
2.90229
11
1.9951
21
2.90099
0
LINE
8
BLACK
6
CONTINUOUS
10
1.9951
20
2.90099
11
1.99545
21
2.899
0
LINE
8
BLACK
6
CONTINUOUS
10
1.99545
20
2.899
11
1.99444
21
2.89725
0
LINE
8
BLACK
6
CONTINUOUS
10
1.99444
20
2.89725
11
1.99254
21
2.89656
0
LINE
8
BLACK
6
CONTINUOUS
10
1.99254
20
2.89656
11
1.96254
21
2.89656
0
LINE
8
BLACK
6
CONTINUOUS
10
1.96254
20
2.89656
11
1.96153
21
2.89674
0
LINE
8
BLACK
6
CONTINUOUS
10
1.96153
20
2.89674
11
1.95999
21
2.89804
0
LINE
8
BLACK
6
CONTINUOUS
10
1.95999
20
2.89804
11
1.95964
21
2.90003
0
LINE
8
BLACK
6
CONTINUOUS
10
1.95964
20
2.90003
11
1.96064
21
2.90178
0
LINE
8
BLACK
6
CONTINUOUS
10
1.96064
20
2.90178
11
1.96254
21
2.90247
0
LINE
8
BLACK
6
CONTINUOUS
10
1.96254
20
2.90247
11
1.99254
21
2.90247
0
LINE
8
BLACK
6
CONTINUOUS
10
1.99254
20
2.90247
11
1.99355
21
2.90229
0
LINE
8
BLACK
6
CONTINUOUS
10
1.69508
20
3.8832
11
1.69577
21
3.88131
0
LINE
8
BLACK
6
CONTINUOUS
10
1.69577
20
3.88131
11
1.69577
21
3.84489
0
LINE
8
BLACK
6
CONTINUOUS
10
1.69577
20
3.84489
11
1.71157
21
3.84489
0
LINE
8
BLACK
6
CONTINUOUS
10
1.71157
20
3.84489
11
1.71258
21
3.84471
0
LINE
8
BLACK
6
CONTINUOUS
10
1.71258
20
3.84471
11
1.71412
21
3.84341
0
LINE
8
BLACK
6
CONTINUOUS
10
1.71412
20
3.84341
11
1.71448
21
3.84142
0
LINE
8
BLACK
6
CONTINUOUS
10
1.71448
20
3.84142
11
1.71347
21
3.83967
0
LINE
8
BLACK
6
CONTINUOUS
10
1.71347
20
3.83967
11
1.71157
21
3.83898
0
LINE
8
BLACK
6
CONTINUOUS
10
1.71157
20
3.83898
11
1.69282
21
3.83898
0
LINE
8
BLACK
6
CONTINUOUS
10
1.69282
20
3.83898
11
1.69244
21
3.83905
0
LINE
8
BLACK
6
CONTINUOUS
10
1.69244
20
3.83905
11
1.69231
21
3.83903
0
LINE
8
BLACK
6
CONTINUOUS
10
1.69231
20
3.83903
11
1.69219
21
3.83909
0
LINE
8
BLACK
6
CONTINUOUS
10
1.69219
20
3.83909
11
1.69181
21
3.83916
0
LINE
8
BLACK
6
CONTINUOUS
10
1.69181
20
3.83916
11
1.69122
21
3.83965
0
LINE
8
BLACK
6
CONTINUOUS
10
1.69122
20
3.83965
11
1.69056
21
3.84004
0
LINE
8
BLACK
6
CONTINUOUS
10
1.69056
20
3.84004
11
1.69047
21
3.84029
0
LINE
8
BLACK
6
CONTINUOUS
10
1.69047
20
3.84029
11
1.69026
21
3.84046
0
LINE
8
BLACK
6
CONTINUOUS
10
1.69026
20
3.84046
11
1.69013
21
3.84122
0
LINE
8
BLACK
6
CONTINUOUS
10
1.69013
20
3.84122
11
1.68987
21
3.84194
0
LINE
8
BLACK
6
CONTINUOUS
10
1.68987
20
3.84194
11
1.68987
21
3.88131
0
LINE
8
BLACK
6
CONTINUOUS
10
1.68987
20
3.88131
11
1.69004
21
3.88232
0
LINE
8
BLACK
6
CONTINUOUS
10
1.69004
20
3.88232
11
1.69134
21
3.88386
0
LINE
8
BLACK
6
CONTINUOUS
10
1.69134
20
3.88386
11
1.69333
21
3.88421
0
LINE
8
BLACK
6
CONTINUOUS
10
1.69333
20
3.88421
11
1.69508
21
3.8832
0
LINE
8
BLACK
6
CONTINUOUS
10
1.78757
20
3.88408
11
1.7877
21
3.88397
0
LINE
8
BLACK
6
CONTINUOUS
10
1.7877
20
3.88397
11
1.78788
21
3.88395
0
LINE
8
BLACK
6
CONTINUOUS
10
1.78788
20
3.88395
11
1.79163
21
3.88207
0
LINE
8
BLACK
6
CONTINUOUS
10
1.79163
20
3.88207
11
1.79234
21
3.88155
0
LINE
8
BLACK
6
CONTINUOUS
10
1.79234
20
3.88155
11
1.7924
21
3.88152
0
LINE
8
BLACK
6
CONTINUOUS
10
1.7924
20
3.88152
11
1.79427
21
3.87964
0
LINE
8
BLACK
6
CONTINUOUS
10
1.79427
20
3.87964
11
1.79478
21
3.87892
0
LINE
8
BLACK
6
CONTINUOUS
10
1.79478
20
3.87892
11
1.79482
21
3.87888
0
LINE
8
BLACK
6
CONTINUOUS
10
1.79482
20
3.87888
11
1.7967
21
3.87513
0
LINE
8
BLACK
6
CONTINUOUS
10
1.7967
20
3.87513
11
1.79699
21
3.87414
0
LINE
8
BLACK
6
CONTINUOUS
10
1.79699
20
3.87414
11
1.79695
21
3.87397
0
LINE
8
BLACK
6
CONTINUOUS
10
1.79695
20
3.87397
11
1.79701
21
3.87381
0
LINE
8
BLACK
6
CONTINUOUS
10
1.79701
20
3.87381
11
1.79701
21
3.87193
0
LINE
8
BLACK
6
CONTINUOUS
10
1.79701
20
3.87193
11
1.79683
21
3.87092
0
LINE
8
BLACK
6
CONTINUOUS
10
1.79683
20
3.87092
11
1.79672
21
3.87079
0
LINE
8
BLACK
6
CONTINUOUS
10
1.79672
20
3.87079
11
1.7967
21
3.87061
0
LINE
8
BLACK
6
CONTINUOUS
10
1.7967
20
3.87061
11
1.79482
21
3.86686
0
LINE
8
BLACK
6
CONTINUOUS
10
1.79482
20
3.86686
11
1.7943
21
3.86615
0
LINE
8
BLACK
6
CONTINUOUS
10
1.7943
20
3.86615
11
1.79427
21
3.8661
0
LINE
8
BLACK
6
CONTINUOUS
10
1.79427
20
3.8661
11
1.79261
21
3.86443
0
LINE
8
BLACK
6
CONTINUOUS
10
1.79261
20
3.86443
11
1.79427
21
3.86277
0
LINE
8
BLACK
6
CONTINUOUS
10
1.79427
20
3.86277
11
1.79478
21
3.86205
0
LINE
8
BLACK
6
CONTINUOUS
10
1.79478
20
3.86205
11
1.79482
21
3.862
0
LINE
8
BLACK
6
CONTINUOUS
10
1.79482
20
3.862
11
1.7967
21
3.85825
0
LINE
8
BLACK
6
CONTINUOUS
10
1.7967
20
3.85825
11
1.79699
21
3.85727
0
LINE
8
BLACK
6
CONTINUOUS
10
1.79699
20
3.85727
11
1.79695
21
3.8571
0
LINE
8
BLACK
6
CONTINUOUS
10
1.79695
20
3.8571
11
1.79701
21
3.85693
0
LINE
8
BLACK
6
CONTINUOUS
10
1.79701
20
3.85693
11
1.79701
21
3.84944
0
LINE
8
BLACK
6
CONTINUOUS
10
1.79701
20
3.84944
11
1.79683
21
3.84843
0
LINE
8
BLACK
6
CONTINUOUS
10
1.79683
20
3.84843
11
1.79672
21
3.84829
0
LINE
8
BLACK
6
CONTINUOUS
10
1.79672
20
3.84829
11
1.7967
21
3.84811
0
LINE
8
BLACK
6
CONTINUOUS
10
1.7967
20
3.84811
11
1.79482
21
3.84437
0
LINE
8
BLACK
6
CONTINUOUS
10
1.79482
20
3.84437
11
1.7943
21
3.84366
0
LINE
8
BLACK
6
CONTINUOUS
10
1.7943
20
3.84366
11
1.79427
21
3.8436
0
LINE
8
BLACK
6
CONTINUOUS
10
1.79427
20
3.8436
11
1.7924
21
3.84172
0
LINE
8
BLACK
6
CONTINUOUS
10
1.7924
20
3.84172
11
1.79167
21
3.84122
0
LINE
8
BLACK
6
CONTINUOUS
10
1.79167
20
3.84122
11
1.79163
21
3.84117
0
LINE
8
BLACK
6
CONTINUOUS
10
1.79163
20
3.84117
11
1.78788
21
3.8393
0
LINE
8
BLACK
6
CONTINUOUS
10
1.78788
20
3.8393
11
1.7869
21
3.839
0
LINE
8
BLACK
6
CONTINUOUS
10
1.7869
20
3.839
11
1.78672
21
3.83904
0
LINE
8
BLACK
6
CONTINUOUS
10
1.78672
20
3.83904
11
1.78656
21
3.83898
0
LINE
8
BLACK
6
CONTINUOUS
10
1.78656
20
3.83898
11
1.77906
21
3.83898
0
LINE
8
BLACK
6
CONTINUOUS
10
1.77906
20
3.83898
11
1.77805
21
3.83916
0
LINE
8
BLACK
6
CONTINUOUS
10
1.77805
20
3.83916
11
1.77791
21
3.83927
0
LINE
8
BLACK
6
CONTINUOUS
10
1.77791
20
3.83927
11
1.77774
21
3.8393
0
LINE
8
BLACK
6
CONTINUOUS
10
1.77774
20
3.8393
11
1.77399
21
3.84117
0
LINE
8
BLACK
6
CONTINUOUS
10
1.77399
20
3.84117
11
1.77328
21
3.8417
0
LINE
8
BLACK
6
CONTINUOUS
10
1.77328
20
3.8417
11
1.77322
21
3.84172
0
LINE
8
BLACK
6
CONTINUOUS
10
1.77322
20
3.84172
11
1.77135
21
3.8436
0
LINE
8
BLACK
6
CONTINUOUS
10
1.77135
20
3.8436
11
1.77084
21
3.84432
0
LINE
8
BLACK
6
CONTINUOUS
10
1.77084
20
3.84432
11
1.77079
21
3.84437
0
LINE
8
BLACK
6
CONTINUOUS
10
1.77079
20
3.84437
11
1.76892
21
3.84811
0
LINE
8
BLACK
6
CONTINUOUS
10
1.76892
20
3.84811
11
1.76863
21
3.8491
0
LINE
8
BLACK
6
CONTINUOUS
10
1.76863
20
3.8491
11
1.76867
21
3.84927
0
LINE
8
BLACK
6
CONTINUOUS
10
1.76867
20
3.84927
11
1.76861
21
3.84944
0
LINE
8
BLACK
6
CONTINUOUS
10
1.76861
20
3.84944
11
1.76861
21
3.85693
0
LINE
8
BLACK
6
CONTINUOUS
10
1.76861
20
3.85693
11
1.76879
21
3.85794
0
LINE
8
BLACK
6
CONTINUOUS
10
1.76879
20
3.85794
11
1.7689
21
3.85808
0
LINE
8
BLACK
6
CONTINUOUS
10
1.7689
20
3.85808
11
1.76892
21
3.85825
0
LINE
8
BLACK
6
CONTINUOUS
10
1.76892
20
3.85825
11
1.77079
21
3.862
0
LINE
8
BLACK
6
CONTINUOUS
10
1.77079
20
3.862
11
1.77132
21
3.86271
0
LINE
8
BLACK
6
CONTINUOUS
10
1.77132
20
3.86271
11
1.77135
21
3.86277
0
LINE
8
BLACK
6
CONTINUOUS
10
1.77135
20
3.86277
11
1.77301
21
3.86443
0
LINE
8
BLACK
6
CONTINUOUS
10
1.77301
20
3.86443
11
1.77135
21
3.8661
0
LINE
8
BLACK
6
CONTINUOUS
10
1.77135
20
3.8661
11
1.77084
21
3.86682
0
LINE
8
BLACK
6
CONTINUOUS
10
1.77084
20
3.86682
11
1.77079
21
3.86686
0
LINE
8
BLACK
6
CONTINUOUS
10
1.77079
20
3.86686
11
1.76892
21
3.87061
0
LINE
8
BLACK
6
CONTINUOUS
10
1.76892
20
3.87061
11
1.76863
21
3.87159
0
LINE
8
BLACK
6
CONTINUOUS
10
1.76863
20
3.87159
11
1.76867
21
3.87177
0
LINE
8
BLACK
6
CONTINUOUS
10
1.76867
20
3.87177
11
1.76861
21
3.87193
0
LINE
8
BLACK
6
CONTINUOUS
10
1.76861
20
3.87193
11
1.76861
21
3.87381
0
LINE
8
BLACK
6
CONTINUOUS
10
1.76861
20
3.87381
11
1.76879
21
3.87482
0
LINE
8
BLACK
6
CONTINUOUS
10
1.76879
20
3.87482
11
1.7689
21
3.87495
0
LINE
8
BLACK
6
CONTINUOUS
10
1.7689
20
3.87495
11
1.76892
21
3.87513
0
LINE
8
BLACK
6
CONTINUOUS
10
1.76892
20
3.87513
11
1.77079
21
3.87888
0
LINE
8
BLACK
6
CONTINUOUS
10
1.77079
20
3.87888
11
1.77132
21
3.87959
0
LINE
8
BLACK
6
CONTINUOUS
10
1.77132
20
3.87959
11
1.77135
21
3.87964
0
LINE
8
BLACK
6
CONTINUOUS
10
1.77135
20
3.87964
11
1.77322
21
3.88152
0
LINE
8
BLACK
6
CONTINUOUS
10
1.77322
20
3.88152
11
1.77394
21
3.88203
0
LINE
8
BLACK
6
CONTINUOUS
10
1.77394
20
3.88203
11
1.77399
21
3.88207
0
LINE
8
BLACK
6
CONTINUOUS
10
1.77399
20
3.88207
11
1.77774
21
3.88395
0
LINE
8
BLACK
6
CONTINUOUS
10
1.77774
20
3.88395
11
1.77872
21
3.88424
0
LINE
8
BLACK
6
CONTINUOUS
10
1.77872
20
3.88424
11
1.77889
21
3.8842
0
LINE
8
BLACK
6
CONTINUOUS
10
1.77889
20
3.8842
11
1.77906
21
3.88426
0
LINE
8
BLACK
6
CONTINUOUS
10
1.77906
20
3.88426
11
1.78656
21
3.88426
0
LINE
8
BLACK
6
CONTINUOUS
10
1.78656
20
3.88426
11
1.78757
21
3.88408
0
LINE
8
BLACK
6
CONTINUOUS
10
1.77706
20
3.86013
11
1.77586
21
3.85893
0
LINE
8
BLACK
6
CONTINUOUS
10
1.77586
20
3.85893
11
1.77451
21
3.85624
0
LINE
8
BLACK
6
CONTINUOUS
10
1.77451
20
3.85624
11
1.77451
21
3.85013
0
LINE
8
BLACK
6
CONTINUOUS
10
1.77451
20
3.85013
11
1.77586
21
3.84743
0
LINE
8
BLACK
6
CONTINUOUS
10
1.77586
20
3.84743
11
1.77706
21
3.84624
0
LINE
8
BLACK
6
CONTINUOUS
10
1.77706
20
3.84624
11
1.77976
21
3.84489
0
LINE
8
BLACK
6
CONTINUOUS
10
1.77976
20
3.84489
11
1.78586
21
3.84489
0
LINE
8
BLACK
6
CONTINUOUS
10
1.78586
20
3.84489
11
1.78856
21
3.84624
0
LINE
8
BLACK
6
CONTINUOUS
10
1.78856
20
3.84624
11
1.78976
21
3.84743
0
LINE
8
BLACK
6
CONTINUOUS
10
1.78976
20
3.84743
11
1.7911
21
3.85013
0
LINE
8
BLACK
6
CONTINUOUS
10
1.7911
20
3.85013
11
1.7911
21
3.85624
0
LINE
8
BLACK
6
CONTINUOUS
10
1.7911
20
3.85624
11
1.78976
21
3.85893
0
LINE
8
BLACK
6
CONTINUOUS
10
1.78976
20
3.85893
11
1.78856
21
3.86013
0
LINE
8
BLACK
6
CONTINUOUS
10
1.78856
20
3.86013
11
1.78586
21
3.86148
0
LINE
8
BLACK
6
CONTINUOUS
10
1.78586
20
3.86148
11
1.77976
21
3.86148
0
LINE
8
BLACK
6
CONTINUOUS
10
1.77976
20
3.86148
11
1.77706
21
3.86013
0
LINE
8
BLACK
6
CONTINUOUS
10
1.77706
20
3.877
11
1.77586
21
3.87581
0
LINE
8
BLACK
6
CONTINUOUS
10
1.77586
20
3.87581
11
1.77451
21
3.87311
0
LINE
8
BLACK
6
CONTINUOUS
10
1.77451
20
3.87311
11
1.77451
21
3.87263
0
LINE
8
BLACK
6
CONTINUOUS
10
1.77451
20
3.87263
11
1.77586
21
3.86993
0
LINE
8
BLACK
6
CONTINUOUS
10
1.77586
20
3.86993
11
1.77706
21
3.86873
0
LINE
8
BLACK
6
CONTINUOUS
10
1.77706
20
3.86873
11
1.77976
21
3.86739
0
LINE
8
BLACK
6
CONTINUOUS
10
1.77976
20
3.86739
11
1.78586
21
3.86739
0
LINE
8
BLACK
6
CONTINUOUS
10
1.78586
20
3.86739
11
1.78856
21
3.86873
0
LINE
8
BLACK
6
CONTINUOUS
10
1.78856
20
3.86873
11
1.78976
21
3.86993
0
LINE
8
BLACK
6
CONTINUOUS
10
1.78976
20
3.86993
11
1.7911
21
3.87263
0
LINE
8
BLACK
6
CONTINUOUS
10
1.7911
20
3.87263
11
1.7911
21
3.87311
0
LINE
8
BLACK
6
CONTINUOUS
10
1.7911
20
3.87311
11
1.78976
21
3.87581
0
LINE
8
BLACK
6
CONTINUOUS
10
1.78976
20
3.87581
11
1.78856
21
3.877
0
LINE
8
BLACK
6
CONTINUOUS
10
1.78856
20
3.877
11
1.78586
21
3.87835
0
LINE
8
BLACK
6
CONTINUOUS
10
1.78586
20
3.87835
11
1.77976
21
3.87835
0
LINE
8
BLACK
6
CONTINUOUS
10
1.77976
20
3.87835
11
1.77706
21
3.877
0
LINE
8
BLACK
6
CONTINUOUS
10
1.82065
20
3.88418
11
1.82082
21
3.88421
0
LINE
8
BLACK
6
CONTINUOUS
10
1.82082
20
3.88421
11
1.82156
21
3.88379
0
LINE
8
BLACK
6
CONTINUOUS
10
1.82156
20
3.88379
11
1.82234
21
3.88344
0
LINE
8
BLACK
6
CONTINUOUS
10
1.82234
20
3.88344
11
1.82242
21
3.88329
0
LINE
8
BLACK
6
CONTINUOUS
10
1.82242
20
3.88329
11
1.82257
21
3.8832
0
LINE
8
BLACK
6
CONTINUOUS
10
1.82257
20
3.8832
11
1.82286
21
3.8824
0
LINE
8
BLACK
6
CONTINUOUS
10
1.82286
20
3.8824
11
1.82324
21
3.88163
0
LINE
8
BLACK
6
CONTINUOUS
10
1.82324
20
3.88163
11
1.8232
21
3.88147
0
LINE
8
BLACK
6
CONTINUOUS
10
1.8232
20
3.88147
11
1.82326
21
3.88131
0
LINE
8
BLACK
6
CONTINUOUS
10
1.82326
20
3.88131
11
1.82326
21
3.84489
0
LINE
8
BLACK
6
CONTINUOUS
10
1.82326
20
3.84489
11
1.83155
21
3.84489
0
LINE
8
BLACK
6
CONTINUOUS
10
1.83155
20
3.84489
11
1.83256
21
3.84471
0
LINE
8
BLACK
6
CONTINUOUS
10
1.83256
20
3.84471
11
1.83411
21
3.84341
0
LINE
8
BLACK
6
CONTINUOUS
10
1.83411
20
3.84341
11
1.83446
21
3.84142
0
LINE
8
BLACK
6
CONTINUOUS
10
1.83446
20
3.84142
11
1.83345
21
3.83967
0
LINE
8
BLACK
6
CONTINUOUS
10
1.83345
20
3.83967
11
1.83155
21
3.83898
0
LINE
8
BLACK
6
CONTINUOUS
10
1.83155
20
3.83898
11
1.80906
21
3.83898
0
LINE
8
BLACK
6
CONTINUOUS
10
1.80906
20
3.83898
11
1.80805
21
3.83916
0
LINE
8
BLACK
6
CONTINUOUS
10
1.80805
20
3.83916
11
1.8065
21
3.84046
0
LINE
8
BLACK
6
CONTINUOUS
10
1.8065
20
3.84046
11
1.80615
21
3.84245
0
LINE
8
BLACK
6
CONTINUOUS
10
1.80615
20
3.84245
11
1.80716
21
3.8442
0
LINE
8
BLACK
6
CONTINUOUS
10
1.80716
20
3.8442
11
1.80906
21
3.84489
0
LINE
8
BLACK
6
CONTINUOUS
10
1.80906
20
3.84489
11
1.81735
21
3.84489
0
LINE
8
BLACK
6
CONTINUOUS
10
1.81735
20
3.84489
11
1.81735
21
3.8723
0
LINE
8
BLACK
6
CONTINUOUS
10
1.81735
20
3.8723
11
1.81489
21
3.86984
0
LINE
8
BLACK
6
CONTINUOUS
10
1.81489
20
3.86984
11
1.81417
21
3.86934
0
LINE
8
BLACK
6
CONTINUOUS
10
1.81417
20
3.86934
11
1.81413
21
3.86929
0
LINE
8
BLACK
6
CONTINUOUS
10
1.81413
20
3.86929
11
1.81038
21
3.86742
0
LINE
8
BLACK
6
CONTINUOUS
10
1.81038
20
3.86742
11
1.80939
21
3.86712
0
LINE
8
BLACK
6
CONTINUOUS
10
1.80939
20
3.86712
11
1.80743
21
3.86759
0
LINE
8
BLACK
6
CONTINUOUS
10
1.80743
20
3.86759
11
1.80622
21
3.86922
0
LINE
8
BLACK
6
CONTINUOUS
10
1.80622
20
3.86922
11
1.80635
21
3.87123
0
LINE
8
BLACK
6
CONTINUOUS
10
1.80635
20
3.87123
11
1.80773
21
3.8727
0
LINE
8
BLACK
6
CONTINUOUS
10
1.80773
20
3.8727
11
1.81106
21
3.87436
0
LINE
8
BLACK
6
CONTINUOUS
10
1.81106
20
3.87436
11
1.81426
21
3.87756
0
LINE
8
BLACK
6
CONTINUOUS
10
1.81426
20
3.87756
11
1.81785
21
3.88294
0
LINE
8
BLACK
6
CONTINUOUS
10
1.81785
20
3.88294
11
1.81856
21
3.88369
0
LINE
8
BLACK
6
CONTINUOUS
10
1.81856
20
3.88369
11
1.81872
21
3.88373
0
LINE
8
BLACK
6
CONTINUOUS
10
1.81872
20
3.88373
11
1.81883
21
3.88386
0
LINE
8
BLACK
6
CONTINUOUS
10
1.81883
20
3.88386
11
1.81967
21
3.88401
0
LINE
8
BLACK
6
CONTINUOUS
10
1.81967
20
3.88401
11
1.82049
21
3.88425
0
LINE
8
BLACK
6
CONTINUOUS
10
1.82049
20
3.88425
11
1.82065
21
3.88418
0
LINE
8
BLACK
6
CONTINUOUS
10
1.86948
20
3.88418
11
1.86962
21
3.8842
0
LINE
8
BLACK
6
CONTINUOUS
10
1.86962
20
3.8842
11
1.86973
21
3.88414
0
LINE
8
BLACK
6
CONTINUOUS
10
1.86973
20
3.88414
11
1.87006
21
3.88408
0
LINE
8
BLACK
6
CONTINUOUS
10
1.87006
20
3.88408
11
1.87067
21
3.88357
0
LINE
8
BLACK
6
CONTINUOUS
10
1.87067
20
3.88357
11
1.87135
21
3.88316
0
LINE
8
BLACK
6
CONTINUOUS
10
1.87135
20
3.88316
11
1.87142
21
3.88293
0
LINE
8
BLACK
6
CONTINUOUS
10
1.87142
20
3.88293
11
1.8716
21
3.88278
0
LINE
8
BLACK
6
CONTINUOUS
10
1.8716
20
3.88278
11
1.87174
21
3.882
0
LINE
8
BLACK
6
CONTINUOUS
10
1.87174
20
3.882
11
1.872
21
3.88125
0
LINE
8
BLACK
6
CONTINUOUS
10
1.872
20
3.88125
11
1.87191
21
3.88103
0
LINE
8
BLACK
6
CONTINUOUS
10
1.87191
20
3.88103
11
1.87196
21
3.88079
0
LINE
8
BLACK
6
CONTINUOUS
10
1.87196
20
3.88079
11
1.87156
21
3.8801
0
LINE
8
BLACK
6
CONTINUOUS
10
1.87156
20
3.8801
11
1.87127
21
3.87936
0
LINE
8
BLACK
6
CONTINUOUS
10
1.87127
20
3.87936
11
1.86231
21
3.86913
0
LINE
8
BLACK
6
CONTINUOUS
10
1.86231
20
3.86913
11
1.86256
21
3.86908
0
LINE
8
BLACK
6
CONTINUOUS
10
1.86256
20
3.86908
11
1.86269
21
3.86897
0
LINE
8
BLACK
6
CONTINUOUS
10
1.86269
20
3.86897
11
1.86287
21
3.86895
0
LINE
8
BLACK
6
CONTINUOUS
10
1.86287
20
3.86895
11
1.86662
21
3.86707
0
LINE
8
BLACK
6
CONTINUOUS
10
1.86662
20
3.86707
11
1.86733
21
3.86655
0
LINE
8
BLACK
6
CONTINUOUS
10
1.86733
20
3.86655
11
1.86739
21
3.86652
0
LINE
8
BLACK
6
CONTINUOUS
10
1.86739
20
3.86652
11
1.86926
21
3.86465
0
LINE
8
BLACK
6
CONTINUOUS
10
1.86926
20
3.86465
11
1.86977
21
3.86392
0
LINE
8
BLACK
6
CONTINUOUS
10
1.86977
20
3.86392
11
1.86981
21
3.86388
0
LINE
8
BLACK
6
CONTINUOUS
10
1.86981
20
3.86388
11
1.87169
21
3.86013
0
LINE
8
BLACK
6
CONTINUOUS
10
1.87169
20
3.86013
11
1.87198
21
3.85915
0
LINE
8
BLACK
6
CONTINUOUS
10
1.87198
20
3.85915
11
1.87194
21
3.85898
0
LINE
8
BLACK
6
CONTINUOUS
10
1.87194
20
3.85898
11
1.872
21
3.85881
0
LINE
8
BLACK
6
CONTINUOUS
10
1.872
20
3.85881
11
1.872
21
3.84944
0
LINE
8
BLACK
6
CONTINUOUS
10
1.872
20
3.84944
11
1.87182
21
3.84843
0
LINE
8
BLACK
6
CONTINUOUS
10
1.87182
20
3.84843
11
1.87171
21
3.84829
0
LINE
8
BLACK
6
CONTINUOUS
10
1.87171
20
3.84829
11
1.87169
21
3.84811
0
LINE
8
BLACK
6
CONTINUOUS
10
1.87169
20
3.84811
11
1.86981
21
3.84437
0
LINE
8
BLACK
6
CONTINUOUS
10
1.86981
20
3.84437
11
1.86929
21
3.84366
0
LINE
8
BLACK
6
CONTINUOUS
10
1.86929
20
3.84366
11
1.86926
21
3.8436
0
LINE
8
BLACK
6
CONTINUOUS
10
1.86926
20
3.8436
11
1.86739
21
3.84172
0
LINE
8
BLACK
6
CONTINUOUS
10
1.86739
20
3.84172
11
1.86666
21
3.84122
0
LINE
8
BLACK
6
CONTINUOUS
10
1.86666
20
3.84122
11
1.86662
21
3.84117
0
LINE
8
BLACK
6
CONTINUOUS
10
1.86662
20
3.84117
11
1.86287
21
3.8393
0
LINE
8
BLACK
6
CONTINUOUS
10
1.86287
20
3.8393
11
1.86189
21
3.839
0
LINE
8
BLACK
6
CONTINUOUS
10
1.86189
20
3.839
11
1.86171
21
3.83904
0
LINE
8
BLACK
6
CONTINUOUS
10
1.86171
20
3.83904
11
1.86155
21
3.83898
0
LINE
8
BLACK
6
CONTINUOUS
10
1.86155
20
3.83898
11
1.8503
21
3.83898
0
LINE
8
BLACK
6
CONTINUOUS
10
1.8503
20
3.83898
11
1.84929
21
3.83916
0
LINE
8
BLACK
6
CONTINUOUS
10
1.84929
20
3.83916
11
1.84915
21
3.83927
0
LINE
8
BLACK
6
CONTINUOUS
10
1.84915
20
3.83927
11
1.84898
21
3.8393
0
LINE
8
BLACK
6
CONTINUOUS
10
1.84898
20
3.8393
11
1.84523
21
3.84117
0
LINE
8
BLACK
6
CONTINUOUS
10
1.84523
20
3.84117
11
1.84452
21
3.8417
0
LINE
8
BLACK
6
CONTINUOUS
10
1.84452
20
3.8417
11
1.84446
21
3.84172
0
LINE
8
BLACK
6
CONTINUOUS
10
1.84446
20
3.84172
11
1.84259
21
3.8436
0
LINE
8
BLACK
6
CONTINUOUS
10
1.84259
20
3.8436
11
1.842
21
3.84444
0
LINE
8
BLACK
6
CONTINUOUS
10
1.842
20
3.84444
11
1.84182
21
3.84645
0
LINE
8
BLACK
6
CONTINUOUS
10
1.84182
20
3.84645
11
1.84298
21
3.8481
0
LINE
8
BLACK
6
CONTINUOUS
10
1.84298
20
3.8481
11
1.84493
21
3.84863
0
LINE
8
BLACK
6
CONTINUOUS
10
1.84493
20
3.84863
11
1.84676
21
3.84777
0
LINE
8
BLACK
6
CONTINUOUS
10
1.84676
20
3.84777
11
1.8483
21
3.84624
0
LINE
8
BLACK
6
CONTINUOUS
10
1.8483
20
3.84624
11
1.851
21
3.84489
0
LINE
8
BLACK
6
CONTINUOUS
10
1.851
20
3.84489
11
1.86085
21
3.84489
0
LINE
8
BLACK
6
CONTINUOUS
10
1.86085
20
3.84489
11
1.86355
21
3.84624
0
LINE
8
BLACK
6
CONTINUOUS
10
1.86355
20
3.84624
11
1.86475
21
3.84743
0
LINE
8
BLACK
6
CONTINUOUS
10
1.86475
20
3.84743
11
1.86609
21
3.85013
0
LINE
8
BLACK
6
CONTINUOUS
10
1.86609
20
3.85013
11
1.86609
21
3.85811
0
LINE
8
BLACK
6
CONTINUOUS
10
1.86609
20
3.85811
11
1.86475
21
3.86081
0
LINE
8
BLACK
6
CONTINUOUS
10
1.86475
20
3.86081
11
1.86355
21
3.86201
0
LINE
8
BLACK
6
CONTINUOUS
10
1.86355
20
3.86201
11
1.86085
21
3.86336
0
LINE
8
BLACK
6
CONTINUOUS
10
1.86085
20
3.86336
11
1.85592
21
3.86336
0
LINE
8
BLACK
6
CONTINUOUS
10
1.85592
20
3.86336
11
1.85549
21
3.86343
0
LINE
8
BLACK
6
CONTINUOUS
10
1.85549
20
3.86343
11
1.85535
21
3.86341
0
LINE
8
BLACK
6
CONTINUOUS
10
1.85535
20
3.86341
11
1.85525
21
3.86347
0
LINE
8
BLACK
6
CONTINUOUS
10
1.85525
20
3.86347
11
1.85491
21
3.86353
0
LINE
8
BLACK
6
CONTINUOUS
10
1.85491
20
3.86353
11
1.8543
21
3.86405
0
LINE
8
BLACK
6
CONTINUOUS
10
1.8543
20
3.86405
11
1.85362
21
3.86446
0
LINE
8
BLACK
6
CONTINUOUS
10
1.85362
20
3.86446
11
1.85355
21
3.86468
0
LINE
8
BLACK
6
CONTINUOUS
10
1.85355
20
3.86468
11
1.85337
21
3.86483
0
LINE
8
BLACK
6
CONTINUOUS
10
1.85337
20
3.86483
11
1.85323
21
3.86562
0
LINE
8
BLACK
6
CONTINUOUS
10
1.85323
20
3.86562
11
1.85297
21
3.86637
0
LINE
8
BLACK
6
CONTINUOUS
10
1.85297
20
3.86637
11
1.85306
21
3.86659
0
LINE
8
BLACK
6
CONTINUOUS
10
1.85306
20
3.86659
11
1.85302
21
3.86682
0
LINE
8
BLACK
6
CONTINUOUS
10
1.85302
20
3.86682
11
1.85341
21
3.86751
0
LINE
8
BLACK
6
CONTINUOUS
10
1.85341
20
3.86751
11
1.8537
21
3.86825
0
LINE
8
BLACK
6
CONTINUOUS
10
1.8537
20
3.86825
11
1.86254
21
3.87835
0
LINE
8
BLACK
6
CONTINUOUS
10
1.86254
20
3.87835
11
1.84468
21
3.87835
0
LINE
8
BLACK
6
CONTINUOUS
10
1.84468
20
3.87835
11
1.84367
21
3.87853
0
LINE
8
BLACK
6
CONTINUOUS
10
1.84367
20
3.87853
11
1.84212
21
3.87983
0
LINE
8
BLACK
6
CONTINUOUS
10
1.84212
20
3.87983
11
1.84177
21
3.88182
0
LINE
8
BLACK
6
CONTINUOUS
10
1.84177
20
3.88182
11
1.84278
21
3.88357
0
LINE
8
BLACK
6
CONTINUOUS
10
1.84278
20
3.88357
11
1.84468
21
3.88426
0
LINE
8
BLACK
6
CONTINUOUS
10
1.84468
20
3.88426
11
1.86905
21
3.88426
0
LINE
8
BLACK
6
CONTINUOUS
10
1.86905
20
3.88426
11
1.86948
21
3.88418
0
LINE
8
BLACK
6
CONTINUOUS
10
1.91491
20
3.88411
11
1.91498
21
3.88411
0
LINE
8
BLACK
6
CONTINUOUS
10
1.91498
20
3.88411
11
1.9206
21
3.88223
0
LINE
8
BLACK
6
CONTINUOUS
10
1.9206
20
3.88223
11
1.9215
21
3.88174
0
LINE
8
BLACK
6
CONTINUOUS
10
1.9215
20
3.88174
11
1.92159
21
3.88159
0
LINE
8
BLACK
6
CONTINUOUS
10
1.92159
20
3.88159
11
1.92175
21
3.88152
0
LINE
8
BLACK
6
CONTINUOUS
10
1.92175
20
3.88152
11
1.9255
21
3.87777
0
LINE
8
BLACK
6
CONTINUOUS
10
1.9255
20
3.87777
11
1.92601
21
3.87705
0
LINE
8
BLACK
6
CONTINUOUS
10
1.92601
20
3.87705
11
1.92606
21
3.877
0
LINE
8
BLACK
6
CONTINUOUS
10
1.92606
20
3.877
11
1.92793
21
3.87325
0
LINE
8
BLACK
6
CONTINUOUS
10
1.92793
20
3.87325
11
1.92808
21
3.87276
0
LINE
8
BLACK
6
CONTINUOUS
10
1.92808
20
3.87276
11
1.92816
21
3.87265
0
LINE
8
BLACK
6
CONTINUOUS
10
1.92816
20
3.87265
11
1.93003
21
3.86515
0
LINE
8
BLACK
6
CONTINUOUS
10
1.93003
20
3.86515
11
1.93007
21
3.86456
0
LINE
8
BLACK
6
CONTINUOUS
10
1.93007
20
3.86456
11
1.93012
21
3.86443
0
LINE
8
BLACK
6
CONTINUOUS
10
1.93012
20
3.86443
11
1.93012
21
3.85881
0
LINE
8
BLACK
6
CONTINUOUS
10
1.93012
20
3.85881
11
1.93002
21
3.85823
0
LINE
8
BLACK
6
CONTINUOUS
10
1.93002
20
3.85823
11
1.93003
21
3.85809
0
LINE
8
BLACK
6
CONTINUOUS
10
1.93003
20
3.85809
11
1.92816
21
3.85059
0
LINE
8
BLACK
6
CONTINUOUS
10
1.92816
20
3.85059
11
1.92795
21
3.85013
0
LINE
8
BLACK
6
CONTINUOUS
10
1.92795
20
3.85013
11
1.92793
21
3.84999
0
LINE
8
BLACK
6
CONTINUOUS
10
1.92793
20
3.84999
11
1.92606
21
3.84624
0
LINE
8
BLACK
6
CONTINUOUS
10
1.92606
20
3.84624
11
1.92553
21
3.84553
0
LINE
8
BLACK
6
CONTINUOUS
10
1.92553
20
3.84553
11
1.9255
21
3.84547
0
LINE
8
BLACK
6
CONTINUOUS
10
1.9255
20
3.84547
11
1.92175
21
3.84172
0
LINE
8
BLACK
6
CONTINUOUS
10
1.92175
20
3.84172
11
1.92091
21
3.84113
0
LINE
8
BLACK
6
CONTINUOUS
10
1.92091
20
3.84113
11
1.92074
21
3.84112
0
LINE
8
BLACK
6
CONTINUOUS
10
1.92074
20
3.84112
11
1.9206
21
3.84101
0
LINE
8
BLACK
6
CONTINUOUS
10
1.9206
20
3.84101
11
1.91498
21
3.83913
0
LINE
8
BLACK
6
CONTINUOUS
10
1.91498
20
3.83913
11
1.9141
21
3.83901
0
LINE
8
BLACK
6
CONTINUOUS
10
1.9141
20
3.83901
11
1.91404
21
3.83898
0
LINE
8
BLACK
6
CONTINUOUS
10
1.91404
20
3.83898
11
1.90467
21
3.83898
0
LINE
8
BLACK
6
CONTINUOUS
10
1.90467
20
3.83898
11
1.90428
21
3.83905
0
LINE
8
BLACK
6
CONTINUOUS
10
1.90428
20
3.83905
11
1.90416
21
3.83903
0
LINE
8
BLACK
6
CONTINUOUS
10
1.90416
20
3.83903
11
1.90404
21
3.83909
0
LINE
8
BLACK
6
CONTINUOUS
10
1.90404
20
3.83909
11
1.90366
21
3.83916
0
LINE
8
BLACK
6
CONTINUOUS
10
1.90366
20
3.83916
11
1.90307
21
3.83965
0
LINE
8
BLACK
6
CONTINUOUS
10
1.90307
20
3.83965
11
1.90241
21
3.84004
0
LINE
8
BLACK
6
CONTINUOUS
10
1.90241
20
3.84004
11
1.90232
21
3.84029
0
LINE
8
BLACK
6
CONTINUOUS
10
1.90232
20
3.84029
11
1.90211
21
3.84046
0
LINE
8
BLACK
6
CONTINUOUS
10
1.90211
20
3.84046
11
1.90198
21
3.84122
0
LINE
8
BLACK
6
CONTINUOUS
10
1.90198
20
3.84122
11
1.90172
21
3.84194
0
LINE
8
BLACK
6
CONTINUOUS
10
1.90172
20
3.84194
11
1.90172
21
3.88131
0
LINE
8
BLACK
6
CONTINUOUS
10
1.90172
20
3.88131
11
1.90178
21
3.88169
0
LINE
8
BLACK
6
CONTINUOUS
10
1.90178
20
3.88169
11
1.90176
21
3.88182
0
LINE
8
BLACK
6
CONTINUOUS
10
1.90176
20
3.88182
11
1.90183
21
3.88193
0
LINE
8
BLACK
6
CONTINUOUS
10
1.90183
20
3.88193
11
1.90189
21
3.88232
0
LINE
8
BLACK
6
CONTINUOUS
10
1.90189
20
3.88232
11
1.90239
21
3.8829
0
LINE
8
BLACK
6
CONTINUOUS
10
1.90239
20
3.8829
11
1.90277
21
3.88357
0
LINE
8
BLACK
6
CONTINUOUS
10
1.90277
20
3.88357
11
1.90302
21
3.88366
0
LINE
8
BLACK
6
CONTINUOUS
10
1.90302
20
3.88366
11
1.90319
21
3.88386
0
LINE
8
BLACK
6
CONTINUOUS
10
1.90319
20
3.88386
11
1.90395
21
3.884
0
LINE
8
BLACK
6
CONTINUOUS
10
1.90395
20
3.884
11
1.90467
21
3.88426
0
LINE
8
BLACK
6
CONTINUOUS
10
1.90467
20
3.88426
11
1.91404
21
3.88426
0
LINE
8
BLACK
6
CONTINUOUS
10
1.91404
20
3.88426
11
1.91491
21
3.88411
0
LINE
8
BLACK
6
CONTINUOUS
10
1.90762
20
3.84489
11
1.91356
21
3.84489
0
LINE
8
BLACK
6
CONTINUOUS
10
1.91356
20
3.84489
11
1.91807
21
3.84639
0
LINE
8
BLACK
6
CONTINUOUS
10
1.91807
20
3.84639
11
1.92099
21
3.84931
0
LINE
8
BLACK
6
CONTINUOUS
10
1.92099
20
3.84931
11
1.9225
21
3.85234
0
LINE
8
BLACK
6
CONTINUOUS
10
1.9225
20
3.85234
11
1.92421
21
3.85917
0
LINE
8
BLACK
6
CONTINUOUS
10
1.92421
20
3.85917
11
1.92421
21
3.86407
0
LINE
8
BLACK
6
CONTINUOUS
10
1.92421
20
3.86407
11
1.9225
21
3.8709
0
LINE
8
BLACK
6
CONTINUOUS
10
1.9225
20
3.8709
11
1.92099
21
3.87393
0
LINE
8
BLACK
6
CONTINUOUS
10
1.92099
20
3.87393
11
1.91807
21
3.87685
0
LINE
8
BLACK
6
CONTINUOUS
10
1.91807
20
3.87685
11
1.91356
21
3.87835
0
LINE
8
BLACK
6
CONTINUOUS
10
1.91356
20
3.87835
11
1.90762
21
3.87835
0
LINE
8
BLACK
6
CONTINUOUS
10
1.90762
20
3.87835
11
1.90762
21
3.84489
0
LINE
8
BLACK
6
CONTINUOUS
10
1.88818
20
3.8832
11
1.88887
21
3.88131
0
LINE
8
BLACK
6
CONTINUOUS
10
1.88887
20
3.88131
11
1.88887
21
3.84194
0
LINE
8
BLACK
6
CONTINUOUS
10
1.88887
20
3.84194
11
1.8887
21
3.84093
0
LINE
8
BLACK
6
CONTINUOUS
10
1.8887
20
3.84093
11
1.8874
21
3.83938
0
LINE
8
BLACK
6
CONTINUOUS
10
1.8874
20
3.83938
11
1.88541
21
3.83903
0
LINE
8
BLACK
6
CONTINUOUS
10
1.88541
20
3.83903
11
1.88366
21
3.84004
0
LINE
8
BLACK
6
CONTINUOUS
10
1.88366
20
3.84004
11
1.88297
21
3.84194
0
LINE
8
BLACK
6
CONTINUOUS
10
1.88297
20
3.84194
11
1.88297
21
3.88131
0
LINE
8
BLACK
6
CONTINUOUS
10
1.88297
20
3.88131
11
1.88315
21
3.88232
0
LINE
8
BLACK
6
CONTINUOUS
10
1.88315
20
3.88232
11
1.88444
21
3.88386
0
LINE
8
BLACK
6
CONTINUOUS
10
1.88444
20
3.88386
11
1.88643
21
3.88421
0
LINE
8
BLACK
6
CONTINUOUS
10
1.88643
20
3.88421
11
1.88818
21
3.8832
0
LINE
8
BLACK
6
CONTINUOUS
10
1.7557
20
3.85971
11
1.75724
21
3.85841
0
LINE
8
BLACK
6
CONTINUOUS
10
1.75724
20
3.85841
11
1.75759
21
3.85642
0
LINE
8
BLACK
6
CONTINUOUS
10
1.75759
20
3.85642
11
1.75658
21
3.85467
0
LINE
8
BLACK
6
CONTINUOUS
10
1.75658
20
3.85467
11
1.75469
21
3.85398
0
LINE
8
BLACK
6
CONTINUOUS
10
1.75469
20
3.85398
11
1.72469
21
3.85398
0
LINE
8
BLACK
6
CONTINUOUS
10
1.72469
20
3.85398
11
1.72368
21
3.85416
0
LINE
8
BLACK
6
CONTINUOUS
10
1.72368
20
3.85416
11
1.72213
21
3.85546
0
LINE
8
BLACK
6
CONTINUOUS
10
1.72213
20
3.85546
11
1.72178
21
3.85745
0
LINE
8
BLACK
6
CONTINUOUS
10
1.72178
20
3.85745
11
1.72279
21
3.8592
0
LINE
8
BLACK
6
CONTINUOUS
10
1.72279
20
3.8592
11
1.72469
21
3.85989
0
LINE
8
BLACK
6
CONTINUOUS
10
1.72469
20
3.85989
11
1.75469
21
3.85989
0
LINE
8
BLACK
6
CONTINUOUS
10
1.75469
20
3.85989
11
1.7557
21
3.85971
  0
ENDSEC
  0
EOF
