  0
SECTION
  2
HEADER
  9
$ANGBASE
  50
0.0
  9
$ANGDIR
  70
1
  9
$MEASUREMENT
  70
0
  0
ENDSEC
  0
SECTION
  2
TABLES
  0
TABLE
  2
LTYPE
  70
4
  0
LTYPE
  5
40F
  2
CONTINUOUS
  70
0
  3
Solid line
  72
65
  73
0
  40
0.0
  0
LTYPE
  5
410
  2
DASHDOT
 70
0
  3
Dash Dot ____ _ ____ _
 72
65
 73
4
 40
2.0
 49
1.25
 49
-0.25
 49
0.25
 49
-0.25
  0
LTYPE
  5
411
  2
DASHED
 70
0
  3
Dashed __ __ __ __ __
 72
65
 73
2
 40
0.75
 49
0.5
 49
-0.25
  0
LTYPE
  5
43B
  2
DOTTED
 70
0
  3
Dotted .  .  .  .
 72
65
 73
2
 40
0.2
 49
0.0
 49
-0.2
  0
ENDTAB
  0
TABLE
  2
STYLE
  70
4
  0
STYLE
  2
KICAD
  70
0
  40
0
  41
1
  42
1
  50
0
  71
0
  3
isocp.shx
  0
STYLE
  2
KICADB
  70
0
  40
0
  41
1
  42
1
  50
0
  71
0
  3
isocp.shx
  0
STYLE
  2
KICADI
  70
0
  40
0
  41
1
  42
1
  50
15
  71
0
  3
isocp.shx
  0
STYLE
  2
KICADBI
  70
0
  40
0
  41
1
  42
1
  50
15
  71
0
  3
isocp.shx
  0
ENDTAB
  0
TABLE
  2
LAYER
  70
1
  0
LAYER
  2
BLACK
  70
0
  62
7
  6
CONTINUOUS
  0
ENDTAB
  0
ENDSEC
  0
SECTION
  2
ENTITIES
0
LINE
8
BLACK
6
CONTINUOUS
10
0.214106
20
0.325192
11
0.228034
21
0.322826
0
LINE
8
BLACK
6
CONTINUOUS
10
0.228034
20
0.322826
11
0.24161
21
0.318914
0
LINE
8
BLACK
6
CONTINUOUS
10
0.24161
20
0.318914
11
0.254663
21
0.313508
0
LINE
8
BLACK
6
CONTINUOUS
10
0.254663
20
0.313508
11
0.267028
21
0.306674
0
LINE
8
BLACK
6
CONTINUOUS
10
0.267028
20
0.306674
11
0.27855
21
0.298498
0
LINE
8
BLACK
6
CONTINUOUS
10
0.27855
20
0.298498
11
0.289084
21
0.289084
0
LINE
8
BLACK
6
CONTINUOUS
10
0.289084
20
0.289084
11
0.298498
21
0.27855
0
LINE
8
BLACK
6
CONTINUOUS
10
0.298498
20
0.27855
11
0.306674
21
0.267028
0
LINE
8
BLACK
6
CONTINUOUS
10
0.306674
20
0.267028
11
0.313508
21
0.254663
0
LINE
8
BLACK
6
CONTINUOUS
10
0.313508
20
0.254663
11
0.318914
21
0.24161
0
LINE
8
BLACK
6
CONTINUOUS
10
0.318914
20
0.24161
11
0.322826
21
0.228034
0
LINE
8
BLACK
6
CONTINUOUS
10
0.322826
20
0.228034
11
0.325192
21
0.214106
0
LINE
8
BLACK
6
CONTINUOUS
10
0.325192
20
0.214106
11
0.325984
21
0.2
0
LINE
8
BLACK
6
CONTINUOUS
10
0.325984
20
0.2
11
0.325192
21
0.185894
0
LINE
8
BLACK
6
CONTINUOUS
10
0.325192
20
0.185894
11
0.322826
21
0.171966
0
LINE
8
BLACK
6
CONTINUOUS
10
0.322826
20
0.171966
11
0.318914
21
0.15839
0
LINE
8
BLACK
6
CONTINUOUS
10
0.318914
20
0.15839
11
0.313508
21
0.145337
0
LINE
8
BLACK
6
CONTINUOUS
10
0.313508
20
0.145337
11
0.306674
21
0.132972
0
LINE
8
BLACK
6
CONTINUOUS
10
0.306674
20
0.132972
11
0.298498
21
0.12145
0
LINE
8
BLACK
6
CONTINUOUS
10
0.298498
20
0.12145
11
0.289084
21
0.110916
0
LINE
8
BLACK
6
CONTINUOUS
10
0.289084
20
0.110916
11
0.27855
21
0.101502
0
LINE
8
BLACK
6
CONTINUOUS
10
0.27855
20
0.101502
11
0.267028
21
0.0933261
0
LINE
8
BLACK
6
CONTINUOUS
10
0.267028
20
0.0933261
11
0.254663
21
0.0864921
0
LINE
8
BLACK
6
CONTINUOUS
10
0.254663
20
0.0864921
11
0.24161
21
0.0810856
0
LINE
8
BLACK
6
CONTINUOUS
10
0.24161
20
0.0810856
11
0.228034
21
0.0771744
0
LINE
8
BLACK
6
CONTINUOUS
10
0.228034
20
0.0771744
11
0.214106
21
0.0748079
0
LINE
8
BLACK
6
CONTINUOUS
10
0.214106
20
0.0748079
11
0.2
21
0.0740157
0
LINE
8
BLACK
6
CONTINUOUS
10
0.2
20
0.0740157
11
0.185894
21
0.0748079
0
LINE
8
BLACK
6
CONTINUOUS
10
0.185894
20
0.0748079
11
0.171966
21
0.0771744
0
LINE
8
BLACK
6
CONTINUOUS
10
0.171966
20
0.0771744
11
0.15839
21
0.0810856
0
LINE
8
BLACK
6
CONTINUOUS
10
0.15839
20
0.0810856
11
0.145337
21
0.0864921
0
LINE
8
BLACK
6
CONTINUOUS
10
0.145337
20
0.0864921
11
0.132972
21
0.0933261
0
LINE
8
BLACK
6
CONTINUOUS
10
0.132972
20
0.0933261
11
0.12145
21
0.101502
0
LINE
8
BLACK
6
CONTINUOUS
10
0.12145
20
0.101502
11
0.110916
21
0.110916
0
LINE
8
BLACK
6
CONTINUOUS
10
0.110916
20
0.110916
11
0.101502
21
0.12145
0
LINE
8
BLACK
6
CONTINUOUS
10
0.101502
20
0.12145
11
0.0933261
21
0.132972
0
LINE
8
BLACK
6
CONTINUOUS
10
0.0933261
20
0.132972
11
0.0864921
21
0.145337
0
LINE
8
BLACK
6
CONTINUOUS
10
0.0864921
20
0.145337
11
0.0810856
21
0.15839
0
LINE
8
BLACK
6
CONTINUOUS
10
0.0810856
20
0.15839
11
0.0771744
21
0.171966
0
LINE
8
BLACK
6
CONTINUOUS
10
0.0771744
20
0.171966
11
0.0748079
21
0.185894
0
LINE
8
BLACK
6
CONTINUOUS
10
0.0748079
20
0.185894
11
0.0740157
21
0.2
0
LINE
8
BLACK
6
CONTINUOUS
10
0.0740157
20
0.2
11
0.0748079
21
0.214106
0
LINE
8
BLACK
6
CONTINUOUS
10
0.0748079
20
0.214106
11
0.0771744
21
0.228034
0
LINE
8
BLACK
6
CONTINUOUS
10
0.0771744
20
0.228034
11
0.0810856
21
0.24161
0
LINE
8
BLACK
6
CONTINUOUS
10
0.0810856
20
0.24161
11
0.0864921
21
0.254663
0
LINE
8
BLACK
6
CONTINUOUS
10
0.0864921
20
0.254663
11
0.0933261
21
0.267028
0
LINE
8
BLACK
6
CONTINUOUS
10
0.0933261
20
0.267028
11
0.101502
21
0.27855
0
LINE
8
BLACK
6
CONTINUOUS
10
0.101502
20
0.27855
11
0.110916
21
0.289084
0
LINE
8
BLACK
6
CONTINUOUS
10
0.110916
20
0.289084
11
0.12145
21
0.298498
0
LINE
8
BLACK
6
CONTINUOUS
10
0.12145
20
0.298498
11
0.132972
21
0.306674
0
LINE
8
BLACK
6
CONTINUOUS
10
0.132972
20
0.306674
11
0.145337
21
0.313508
0
LINE
8
BLACK
6
CONTINUOUS
10
0.145337
20
0.313508
11
0.15839
21
0.318914
0
LINE
8
BLACK
6
CONTINUOUS
10
0.15839
20
0.318914
11
0.171966
21
0.322826
0
LINE
8
BLACK
6
CONTINUOUS
10
0.171966
20
0.322826
11
0.185894
21
0.325192
0
LINE
8
BLACK
6
CONTINUOUS
10
0.185894
20
0.325192
11
0.2
21
0.325984
0
LINE
8
BLACK
6
CONTINUOUS
10
0.2
20
0.325984
11
0.214106
21
0.325192
0
LINE
8
BLACK
6
CONTINUOUS
10
3.41411
20
0.325192
11
3.42803
21
0.322826
0
LINE
8
BLACK
6
CONTINUOUS
10
3.42803
20
0.322826
11
3.44161
21
0.318914
0
LINE
8
BLACK
6
CONTINUOUS
10
3.44161
20
0.318914
11
3.45466
21
0.313508
0
LINE
8
BLACK
6
CONTINUOUS
10
3.45466
20
0.313508
11
3.46703
21
0.306674
0
LINE
8
BLACK
6
CONTINUOUS
10
3.46703
20
0.306674
11
3.47855
21
0.298498
0
LINE
8
BLACK
6
CONTINUOUS
10
3.47855
20
0.298498
11
3.48908
21
0.289084
0
LINE
8
BLACK
6
CONTINUOUS
10
3.48908
20
0.289084
11
3.4985
21
0.27855
0
LINE
8
BLACK
6
CONTINUOUS
10
3.4985
20
0.27855
11
3.50667
21
0.267028
0
LINE
8
BLACK
6
CONTINUOUS
10
3.50667
20
0.267028
11
3.51351
21
0.254663
0
LINE
8
BLACK
6
CONTINUOUS
10
3.51351
20
0.254663
11
3.51891
21
0.24161
0
LINE
8
BLACK
6
CONTINUOUS
10
3.51891
20
0.24161
11
3.52283
21
0.228034
0
LINE
8
BLACK
6
CONTINUOUS
10
3.52283
20
0.228034
11
3.52519
21
0.214106
0
LINE
8
BLACK
6
CONTINUOUS
10
3.52519
20
0.214106
11
3.52598
21
0.2
0
LINE
8
BLACK
6
CONTINUOUS
10
3.52598
20
0.2
11
3.52519
21
0.185894
0
LINE
8
BLACK
6
CONTINUOUS
10
3.52519
20
0.185894
11
3.52283
21
0.171966
0
LINE
8
BLACK
6
CONTINUOUS
10
3.52283
20
0.171966
11
3.51891
21
0.15839
0
LINE
8
BLACK
6
CONTINUOUS
10
3.51891
20
0.15839
11
3.51351
21
0.145337
0
LINE
8
BLACK
6
CONTINUOUS
10
3.51351
20
0.145337
11
3.50667
21
0.132972
0
LINE
8
BLACK
6
CONTINUOUS
10
3.50667
20
0.132972
11
3.4985
21
0.12145
0
LINE
8
BLACK
6
CONTINUOUS
10
3.4985
20
0.12145
11
3.48908
21
0.110916
0
LINE
8
BLACK
6
CONTINUOUS
10
3.48908
20
0.110916
11
3.47855
21
0.101502
0
LINE
8
BLACK
6
CONTINUOUS
10
3.47855
20
0.101502
11
3.46703
21
0.0933261
0
LINE
8
BLACK
6
CONTINUOUS
10
3.46703
20
0.0933261
11
3.45466
21
0.0864921
0
LINE
8
BLACK
6
CONTINUOUS
10
3.45466
20
0.0864921
11
3.44161
21
0.0810856
0
LINE
8
BLACK
6
CONTINUOUS
10
3.44161
20
0.0810856
11
3.42803
21
0.0771744
0
LINE
8
BLACK
6
CONTINUOUS
10
3.42803
20
0.0771744
11
3.41411
21
0.0748079
0
LINE
8
BLACK
6
CONTINUOUS
10
3.41411
20
0.0748079
11
3.4
21
0.0740157
0
LINE
8
BLACK
6
CONTINUOUS
10
3.4
20
0.0740157
11
3.38589
21
0.0748079
0
LINE
8
BLACK
6
CONTINUOUS
10
3.38589
20
0.0748079
11
3.37197
21
0.0771744
0
LINE
8
BLACK
6
CONTINUOUS
10
3.37197
20
0.0771744
11
3.35839
21
0.0810856
0
LINE
8
BLACK
6
CONTINUOUS
10
3.35839
20
0.0810856
11
3.34534
21
0.0864921
0
LINE
8
BLACK
6
CONTINUOUS
10
3.34534
20
0.0864921
11
3.33297
21
0.0933261
0
LINE
8
BLACK
6
CONTINUOUS
10
3.33297
20
0.0933261
11
3.32145
21
0.101502
0
LINE
8
BLACK
6
CONTINUOUS
10
3.32145
20
0.101502
11
3.31092
21
0.110916
0
LINE
8
BLACK
6
CONTINUOUS
10
3.31092
20
0.110916
11
3.3015
21
0.12145
0
LINE
8
BLACK
6
CONTINUOUS
10
3.3015
20
0.12145
11
3.29333
21
0.132972
0
LINE
8
BLACK
6
CONTINUOUS
10
3.29333
20
0.132972
11
3.28649
21
0.145337
0
LINE
8
BLACK
6
CONTINUOUS
10
3.28649
20
0.145337
11
3.28109
21
0.15839
0
LINE
8
BLACK
6
CONTINUOUS
10
3.28109
20
0.15839
11
3.27717
21
0.171966
0
LINE
8
BLACK
6
CONTINUOUS
10
3.27717
20
0.171966
11
3.27481
21
0.185894
0
LINE
8
BLACK
6
CONTINUOUS
10
3.27481
20
0.185894
11
3.27402
21
0.2
0
LINE
8
BLACK
6
CONTINUOUS
10
3.27402
20
0.2
11
3.27481
21
0.214106
0
LINE
8
BLACK
6
CONTINUOUS
10
3.27481
20
0.214106
11
3.27717
21
0.228034
0
LINE
8
BLACK
6
CONTINUOUS
10
3.27717
20
0.228034
11
3.28109
21
0.24161
0
LINE
8
BLACK
6
CONTINUOUS
10
3.28109
20
0.24161
11
3.28649
21
0.254663
0
LINE
8
BLACK
6
CONTINUOUS
10
3.28649
20
0.254663
11
3.29333
21
0.267028
0
LINE
8
BLACK
6
CONTINUOUS
10
3.29333
20
0.267028
11
3.3015
21
0.27855
0
LINE
8
BLACK
6
CONTINUOUS
10
3.3015
20
0.27855
11
3.31092
21
0.289084
0
LINE
8
BLACK
6
CONTINUOUS
10
3.31092
20
0.289084
11
3.32145
21
0.298498
0
LINE
8
BLACK
6
CONTINUOUS
10
3.32145
20
0.298498
11
3.33297
21
0.306674
0
LINE
8
BLACK
6
CONTINUOUS
10
3.33297
20
0.306674
11
3.34534
21
0.313508
0
LINE
8
BLACK
6
CONTINUOUS
10
3.34534
20
0.313508
11
3.35839
21
0.318914
0
LINE
8
BLACK
6
CONTINUOUS
10
3.35839
20
0.318914
11
3.37197
21
0.322826
0
LINE
8
BLACK
6
CONTINUOUS
10
3.37197
20
0.322826
11
3.38589
21
0.325192
0
LINE
8
BLACK
6
CONTINUOUS
10
3.38589
20
0.325192
11
3.4
21
0.325984
0
LINE
8
BLACK
6
CONTINUOUS
10
3.4
20
0.325984
11
3.41411
21
0.325192
0
LINE
8
BLACK
6
CONTINUOUS
10
0.525013
20
0.179275
11
0.527568
21
0.177568
0
LINE
8
BLACK
6
CONTINUOUS
10
0.527568
20
0.177568
11
0.529275
21
0.175013
0
LINE
8
BLACK
6
CONTINUOUS
10
0.529275
20
0.175013
11
0.529874
21
0.172
0
LINE
8
BLACK
6
CONTINUOUS
10
0.529874
20
0.172
11
0.529874
21
0.112
0
LINE
8
BLACK
6
CONTINUOUS
10
0.529874
20
0.112
11
0.529275
21
0.108987
0
LINE
8
BLACK
6
CONTINUOUS
10
0.529275
20
0.108987
11
0.527568
21
0.106432
0
LINE
8
BLACK
6
CONTINUOUS
10
0.527568
20
0.106432
11
0.525013
21
0.104725
0
LINE
8
BLACK
6
CONTINUOUS
10
0.525013
20
0.104725
11
0.522
21
0.104126
0
LINE
8
BLACK
6
CONTINUOUS
10
0.522
20
0.104126
11
0.462
21
0.104126
0
LINE
8
BLACK
6
CONTINUOUS
10
0.462
20
0.104126
11
0.458987
21
0.104725
0
LINE
8
BLACK
6
CONTINUOUS
10
0.458987
20
0.104725
11
0.456432
21
0.106432
0
LINE
8
BLACK
6
CONTINUOUS
10
0.456432
20
0.106432
11
0.454725
21
0.108987
0
LINE
8
BLACK
6
CONTINUOUS
10
0.454725
20
0.108987
11
0.454126
21
0.112
0
LINE
8
BLACK
6
CONTINUOUS
10
0.454126
20
0.112
11
0.454126
21
0.172
0
LINE
8
BLACK
6
CONTINUOUS
10
0.454126
20
0.172
11
0.454725
21
0.175013
0
LINE
8
BLACK
6
CONTINUOUS
10
0.454725
20
0.175013
11
0.456432
21
0.177568
0
LINE
8
BLACK
6
CONTINUOUS
10
0.456432
20
0.177568
11
0.458987
21
0.179275
0
LINE
8
BLACK
6
CONTINUOUS
10
0.458987
20
0.179275
11
0.462
21
0.179874
0
LINE
8
BLACK
6
CONTINUOUS
10
0.462
20
0.179874
11
0.522
21
0.179874
0
LINE
8
BLACK
6
CONTINUOUS
10
0.522
20
0.179874
11
0.525013
21
0.179275
0
LINE
8
BLACK
6
CONTINUOUS
10
0.625013
20
0.179275
11
0.627568
21
0.177568
0
LINE
8
BLACK
6
CONTINUOUS
10
0.627568
20
0.177568
11
0.629275
21
0.175013
0
LINE
8
BLACK
6
CONTINUOUS
10
0.629275
20
0.175013
11
0.629874
21
0.172
0
LINE
8
BLACK
6
CONTINUOUS
10
0.629874
20
0.172
11
0.629874
21
0.112
0
LINE
8
BLACK
6
CONTINUOUS
10
0.629874
20
0.112
11
0.629275
21
0.108987
0
LINE
8
BLACK
6
CONTINUOUS
10
0.629275
20
0.108987
11
0.627568
21
0.106432
0
LINE
8
BLACK
6
CONTINUOUS
10
0.627568
20
0.106432
11
0.625013
21
0.104725
0
LINE
8
BLACK
6
CONTINUOUS
10
0.625013
20
0.104725
11
0.622
21
0.104126
0
LINE
8
BLACK
6
CONTINUOUS
10
0.622
20
0.104126
11
0.562
21
0.104126
0
LINE
8
BLACK
6
CONTINUOUS
10
0.562
20
0.104126
11
0.558987
21
0.104725
0
LINE
8
BLACK
6
CONTINUOUS
10
0.558987
20
0.104725
11
0.556432
21
0.106432
0
LINE
8
BLACK
6
CONTINUOUS
10
0.556432
20
0.106432
11
0.554725
21
0.108987
0
LINE
8
BLACK
6
CONTINUOUS
10
0.554725
20
0.108987
11
0.554126
21
0.112
0
LINE
8
BLACK
6
CONTINUOUS
10
0.554126
20
0.112
11
0.554126
21
0.172
0
LINE
8
BLACK
6
CONTINUOUS
10
0.554126
20
0.172
11
0.554725
21
0.175013
0
LINE
8
BLACK
6
CONTINUOUS
10
0.554725
20
0.175013
11
0.556432
21
0.177568
0
LINE
8
BLACK
6
CONTINUOUS
10
0.556432
20
0.177568
11
0.558987
21
0.179275
0
LINE
8
BLACK
6
CONTINUOUS
10
0.558987
20
0.179275
11
0.562
21
0.179874
0
LINE
8
BLACK
6
CONTINUOUS
10
0.562
20
0.179874
11
0.622
21
0.179874
0
LINE
8
BLACK
6
CONTINUOUS
10
0.622
20
0.179874
11
0.625013
21
0.179275
0
LINE
8
BLACK
6
CONTINUOUS
10
0.725013
20
0.179275
11
0.727568
21
0.177568
0
LINE
8
BLACK
6
CONTINUOUS
10
0.727568
20
0.177568
11
0.729275
21
0.175013
0
LINE
8
BLACK
6
CONTINUOUS
10
0.729275
20
0.175013
11
0.729874
21
0.172
0
LINE
8
BLACK
6
CONTINUOUS
10
0.729874
20
0.172
11
0.729874
21
0.112
0
LINE
8
BLACK
6
CONTINUOUS
10
0.729874
20
0.112
11
0.729275
21
0.108987
0
LINE
8
BLACK
6
CONTINUOUS
10
0.729275
20
0.108987
11
0.727568
21
0.106432
0
LINE
8
BLACK
6
CONTINUOUS
10
0.727568
20
0.106432
11
0.725013
21
0.104725
0
LINE
8
BLACK
6
CONTINUOUS
10
0.725013
20
0.104725
11
0.722
21
0.104126
0
LINE
8
BLACK
6
CONTINUOUS
10
0.722
20
0.104126
11
0.662
21
0.104126
0
LINE
8
BLACK
6
CONTINUOUS
10
0.662
20
0.104126
11
0.658987
21
0.104725
0
LINE
8
BLACK
6
CONTINUOUS
10
0.658987
20
0.104725
11
0.656432
21
0.106432
0
LINE
8
BLACK
6
CONTINUOUS
10
0.656432
20
0.106432
11
0.654725
21
0.108987
0
LINE
8
BLACK
6
CONTINUOUS
10
0.654725
20
0.108987
11
0.654126
21
0.112
0
LINE
8
BLACK
6
CONTINUOUS
10
0.654126
20
0.112
11
0.654126
21
0.172
0
LINE
8
BLACK
6
CONTINUOUS
10
0.654126
20
0.172
11
0.654725
21
0.175013
0
LINE
8
BLACK
6
CONTINUOUS
10
0.654725
20
0.175013
11
0.656432
21
0.177568
0
LINE
8
BLACK
6
CONTINUOUS
10
0.656432
20
0.177568
11
0.658987
21
0.179275
0
LINE
8
BLACK
6
CONTINUOUS
10
0.658987
20
0.179275
11
0.662
21
0.179874
0
LINE
8
BLACK
6
CONTINUOUS
10
0.662
20
0.179874
11
0.722
21
0.179874
0
LINE
8
BLACK
6
CONTINUOUS
10
0.722
20
0.179874
11
0.725013
21
0.179275
0
LINE
8
BLACK
6
CONTINUOUS
10
0.825013
20
0.179275
11
0.827568
21
0.177568
0
LINE
8
BLACK
6
CONTINUOUS
10
0.827568
20
0.177568
11
0.829275
21
0.175013
0
LINE
8
BLACK
6
CONTINUOUS
10
0.829275
20
0.175013
11
0.829874
21
0.172
0
LINE
8
BLACK
6
CONTINUOUS
10
0.829874
20
0.172
11
0.829874
21
0.112
0
LINE
8
BLACK
6
CONTINUOUS
10
0.829874
20
0.112
11
0.829275
21
0.108987
0
LINE
8
BLACK
6
CONTINUOUS
10
0.829275
20
0.108987
11
0.827568
21
0.106432
0
LINE
8
BLACK
6
CONTINUOUS
10
0.827568
20
0.106432
11
0.825013
21
0.104725
0
LINE
8
BLACK
6
CONTINUOUS
10
0.825013
20
0.104725
11
0.822
21
0.104126
0
LINE
8
BLACK
6
CONTINUOUS
10
0.822
20
0.104126
11
0.762
21
0.104126
0
LINE
8
BLACK
6
CONTINUOUS
10
0.762
20
0.104126
11
0.758987
21
0.104725
0
LINE
8
BLACK
6
CONTINUOUS
10
0.758987
20
0.104725
11
0.756432
21
0.106432
0
LINE
8
BLACK
6
CONTINUOUS
10
0.756432
20
0.106432
11
0.754725
21
0.108987
0
LINE
8
BLACK
6
CONTINUOUS
10
0.754725
20
0.108987
11
0.754126
21
0.112
0
LINE
8
BLACK
6
CONTINUOUS
10
0.754126
20
0.112
11
0.754126
21
0.172
0
LINE
8
BLACK
6
CONTINUOUS
10
0.754126
20
0.172
11
0.754725
21
0.175013
0
LINE
8
BLACK
6
CONTINUOUS
10
0.754725
20
0.175013
11
0.756432
21
0.177568
0
LINE
8
BLACK
6
CONTINUOUS
10
0.756432
20
0.177568
11
0.758987
21
0.179275
0
LINE
8
BLACK
6
CONTINUOUS
10
0.758987
20
0.179275
11
0.762
21
0.179874
0
LINE
8
BLACK
6
CONTINUOUS
10
0.762
20
0.179874
11
0.822
21
0.179874
0
LINE
8
BLACK
6
CONTINUOUS
10
0.822
20
0.179874
11
0.825013
21
0.179275
0
LINE
8
BLACK
6
CONTINUOUS
10
1.15501
20
0.179275
11
1.15757
21
0.177568
0
LINE
8
BLACK
6
CONTINUOUS
10
1.15757
20
0.177568
11
1.15927
21
0.175013
0
LINE
8
BLACK
6
CONTINUOUS
10
1.15927
20
0.175013
11
1.15987
21
0.172
0
LINE
8
BLACK
6
CONTINUOUS
10
1.15987
20
0.172
11
1.15987
21
0.112
0
LINE
8
BLACK
6
CONTINUOUS
10
1.15987
20
0.112
11
1.15927
21
0.108987
0
LINE
8
BLACK
6
CONTINUOUS
10
1.15927
20
0.108987
11
1.15757
21
0.106432
0
LINE
8
BLACK
6
CONTINUOUS
10
1.15757
20
0.106432
11
1.15501
21
0.104725
0
LINE
8
BLACK
6
CONTINUOUS
10
1.15501
20
0.104725
11
1.152
21
0.104126
0
LINE
8
BLACK
6
CONTINUOUS
10
1.152
20
0.104126
11
1.092
21
0.104126
0
LINE
8
BLACK
6
CONTINUOUS
10
1.092
20
0.104126
11
1.08899
21
0.104725
0
LINE
8
BLACK
6
CONTINUOUS
10
1.08899
20
0.104725
11
1.08643
21
0.106432
0
LINE
8
BLACK
6
CONTINUOUS
10
1.08643
20
0.106432
11
1.08473
21
0.108987
0
LINE
8
BLACK
6
CONTINUOUS
10
1.08473
20
0.108987
11
1.08413
21
0.112
0
LINE
8
BLACK
6
CONTINUOUS
10
1.08413
20
0.112
11
1.08413
21
0.172
0
LINE
8
BLACK
6
CONTINUOUS
10
1.08413
20
0.172
11
1.08473
21
0.175013
0
LINE
8
BLACK
6
CONTINUOUS
10
1.08473
20
0.175013
11
1.08643
21
0.177568
0
LINE
8
BLACK
6
CONTINUOUS
10
1.08643
20
0.177568
11
1.08899
21
0.179275
0
LINE
8
BLACK
6
CONTINUOUS
10
1.08899
20
0.179275
11
1.092
21
0.179874
0
LINE
8
BLACK
6
CONTINUOUS
10
1.092
20
0.179874
11
1.152
21
0.179874
0
LINE
8
BLACK
6
CONTINUOUS
10
1.152
20
0.179874
11
1.15501
21
0.179275
0
LINE
8
BLACK
6
CONTINUOUS
10
1.25501
20
0.179275
11
1.25757
21
0.177568
0
LINE
8
BLACK
6
CONTINUOUS
10
1.25757
20
0.177568
11
1.25927
21
0.175013
0
LINE
8
BLACK
6
CONTINUOUS
10
1.25927
20
0.175013
11
1.25987
21
0.172
0
LINE
8
BLACK
6
CONTINUOUS
10
1.25987
20
0.172
11
1.25987
21
0.112
0
LINE
8
BLACK
6
CONTINUOUS
10
1.25987
20
0.112
11
1.25927
21
0.108987
0
LINE
8
BLACK
6
CONTINUOUS
10
1.25927
20
0.108987
11
1.25757
21
0.106432
0
LINE
8
BLACK
6
CONTINUOUS
10
1.25757
20
0.106432
11
1.25501
21
0.104725
0
LINE
8
BLACK
6
CONTINUOUS
10
1.25501
20
0.104725
11
1.252
21
0.104126
0
LINE
8
BLACK
6
CONTINUOUS
10
1.252
20
0.104126
11
1.192
21
0.104126
0
LINE
8
BLACK
6
CONTINUOUS
10
1.192
20
0.104126
11
1.18899
21
0.104725
0
LINE
8
BLACK
6
CONTINUOUS
10
1.18899
20
0.104725
11
1.18643
21
0.106432
0
LINE
8
BLACK
6
CONTINUOUS
10
1.18643
20
0.106432
11
1.18473
21
0.108987
0
LINE
8
BLACK
6
CONTINUOUS
10
1.18473
20
0.108987
11
1.18413
21
0.112
0
LINE
8
BLACK
6
CONTINUOUS
10
1.18413
20
0.112
11
1.18413
21
0.172
0
LINE
8
BLACK
6
CONTINUOUS
10
1.18413
20
0.172
11
1.18473
21
0.175013
0
LINE
8
BLACK
6
CONTINUOUS
10
1.18473
20
0.175013
11
1.18643
21
0.177568
0
LINE
8
BLACK
6
CONTINUOUS
10
1.18643
20
0.177568
11
1.18899
21
0.179275
0
LINE
8
BLACK
6
CONTINUOUS
10
1.18899
20
0.179275
11
1.192
21
0.179874
0
LINE
8
BLACK
6
CONTINUOUS
10
1.192
20
0.179874
11
1.252
21
0.179874
0
LINE
8
BLACK
6
CONTINUOUS
10
1.252
20
0.179874
11
1.25501
21
0.179275
0
LINE
8
BLACK
6
CONTINUOUS
10
1.35501
20
0.179275
11
1.35757
21
0.177568
0
LINE
8
BLACK
6
CONTINUOUS
10
1.35757
20
0.177568
11
1.35927
21
0.175013
0
LINE
8
BLACK
6
CONTINUOUS
10
1.35927
20
0.175013
11
1.35987
21
0.172
0
LINE
8
BLACK
6
CONTINUOUS
10
1.35987
20
0.172
11
1.35987
21
0.112
0
LINE
8
BLACK
6
CONTINUOUS
10
1.35987
20
0.112
11
1.35927
21
0.108987
0
LINE
8
BLACK
6
CONTINUOUS
10
1.35927
20
0.108987
11
1.35757
21
0.106432
0
LINE
8
BLACK
6
CONTINUOUS
10
1.35757
20
0.106432
11
1.35501
21
0.104725
0
LINE
8
BLACK
6
CONTINUOUS
10
1.35501
20
0.104725
11
1.352
21
0.104126
0
LINE
8
BLACK
6
CONTINUOUS
10
1.352
20
0.104126
11
1.292
21
0.104126
0
LINE
8
BLACK
6
CONTINUOUS
10
1.292
20
0.104126
11
1.28899
21
0.104725
0
LINE
8
BLACK
6
CONTINUOUS
10
1.28899
20
0.104725
11
1.28643
21
0.106432
0
LINE
8
BLACK
6
CONTINUOUS
10
1.28643
20
0.106432
11
1.28473
21
0.108987
0
LINE
8
BLACK
6
CONTINUOUS
10
1.28473
20
0.108987
11
1.28413
21
0.112
0
LINE
8
BLACK
6
CONTINUOUS
10
1.28413
20
0.112
11
1.28413
21
0.172
0
LINE
8
BLACK
6
CONTINUOUS
10
1.28413
20
0.172
11
1.28473
21
0.175013
0
LINE
8
BLACK
6
CONTINUOUS
10
1.28473
20
0.175013
11
1.28643
21
0.177568
0
LINE
8
BLACK
6
CONTINUOUS
10
1.28643
20
0.177568
11
1.28899
21
0.179275
0
LINE
8
BLACK
6
CONTINUOUS
10
1.28899
20
0.179275
11
1.292
21
0.179874
0
LINE
8
BLACK
6
CONTINUOUS
10
1.292
20
0.179874
11
1.352
21
0.179874
0
LINE
8
BLACK
6
CONTINUOUS
10
1.352
20
0.179874
11
1.35501
21
0.179275
0
LINE
8
BLACK
6
CONTINUOUS
10
1.45301
20
0.179275
11
1.45557
21
0.177568
0
LINE
8
BLACK
6
CONTINUOUS
10
1.45557
20
0.177568
11
1.45727
21
0.175013
0
LINE
8
BLACK
6
CONTINUOUS
10
1.45727
20
0.175013
11
1.45787
21
0.172
0
LINE
8
BLACK
6
CONTINUOUS
10
1.45787
20
0.172
11
1.45787
21
0.112
0
LINE
8
BLACK
6
CONTINUOUS
10
1.45787
20
0.112
11
1.45727
21
0.108987
0
LINE
8
BLACK
6
CONTINUOUS
10
1.45727
20
0.108987
11
1.45557
21
0.106432
0
LINE
8
BLACK
6
CONTINUOUS
10
1.45557
20
0.106432
11
1.45301
21
0.104725
0
LINE
8
BLACK
6
CONTINUOUS
10
1.45301
20
0.104725
11
1.45
21
0.104126
0
LINE
8
BLACK
6
CONTINUOUS
10
1.45
20
0.104126
11
1.39
21
0.104126
0
LINE
8
BLACK
6
CONTINUOUS
10
1.39
20
0.104126
11
1.38699
21
0.104725
0
LINE
8
BLACK
6
CONTINUOUS
10
1.38699
20
0.104725
11
1.38443
21
0.106432
0
LINE
8
BLACK
6
CONTINUOUS
10
1.38443
20
0.106432
11
1.38273
21
0.108987
0
LINE
8
BLACK
6
CONTINUOUS
10
1.38273
20
0.108987
11
1.38213
21
0.112
0
LINE
8
BLACK
6
CONTINUOUS
10
1.38213
20
0.112
11
1.38213
21
0.172
0
LINE
8
BLACK
6
CONTINUOUS
10
1.38213
20
0.172
11
1.38273
21
0.175013
0
LINE
8
BLACK
6
CONTINUOUS
10
1.38273
20
0.175013
11
1.38443
21
0.177568
0
LINE
8
BLACK
6
CONTINUOUS
10
1.38443
20
0.177568
11
1.38699
21
0.179275
0
LINE
8
BLACK
6
CONTINUOUS
10
1.38699
20
0.179275
11
1.39
21
0.179874
0
LINE
8
BLACK
6
CONTINUOUS
10
1.39
20
0.179874
11
1.45
21
0.179874
0
LINE
8
BLACK
6
CONTINUOUS
10
1.45
20
0.179874
11
1.45301
21
0.179275
0
LINE
8
BLACK
6
CONTINUOUS
10
1.55301
20
0.179275
11
1.55557
21
0.177568
0
LINE
8
BLACK
6
CONTINUOUS
10
1.55557
20
0.177568
11
1.55727
21
0.175013
0
LINE
8
BLACK
6
CONTINUOUS
10
1.55727
20
0.175013
11
1.55787
21
0.172
0
LINE
8
BLACK
6
CONTINUOUS
10
1.55787
20
0.172
11
1.55787
21
0.112
0
LINE
8
BLACK
6
CONTINUOUS
10
1.55787
20
0.112
11
1.55727
21
0.108987
0
LINE
8
BLACK
6
CONTINUOUS
10
1.55727
20
0.108987
11
1.55557
21
0.106432
0
LINE
8
BLACK
6
CONTINUOUS
10
1.55557
20
0.106432
11
1.55301
21
0.104725
0
LINE
8
BLACK
6
CONTINUOUS
10
1.55301
20
0.104725
11
1.55
21
0.104126
0
LINE
8
BLACK
6
CONTINUOUS
10
1.55
20
0.104126
11
1.49
21
0.104126
0
LINE
8
BLACK
6
CONTINUOUS
10
1.49
20
0.104126
11
1.48699
21
0.104725
0
LINE
8
BLACK
6
CONTINUOUS
10
1.48699
20
0.104725
11
1.48443
21
0.106432
0
LINE
8
BLACK
6
CONTINUOUS
10
1.48443
20
0.106432
11
1.48273
21
0.108987
0
LINE
8
BLACK
6
CONTINUOUS
10
1.48273
20
0.108987
11
1.48213
21
0.112
0
LINE
8
BLACK
6
CONTINUOUS
10
1.48213
20
0.112
11
1.48213
21
0.172
0
LINE
8
BLACK
6
CONTINUOUS
10
1.48213
20
0.172
11
1.48273
21
0.175013
0
LINE
8
BLACK
6
CONTINUOUS
10
1.48273
20
0.175013
11
1.48443
21
0.177568
0
LINE
8
BLACK
6
CONTINUOUS
10
1.48443
20
0.177568
11
1.48699
21
0.179275
0
LINE
8
BLACK
6
CONTINUOUS
10
1.48699
20
0.179275
11
1.49
21
0.179874
0
LINE
8
BLACK
6
CONTINUOUS
10
1.49
20
0.179874
11
1.55
21
0.179874
0
LINE
8
BLACK
6
CONTINUOUS
10
1.55
20
0.179874
11
1.55301
21
0.179275
0
LINE
8
BLACK
6
CONTINUOUS
10
0.525013
20
0.279275
11
0.527568
21
0.277568
0
LINE
8
BLACK
6
CONTINUOUS
10
0.527568
20
0.277568
11
0.529275
21
0.275013
0
LINE
8
BLACK
6
CONTINUOUS
10
0.529275
20
0.275013
11
0.529874
21
0.272
0
LINE
8
BLACK
6
CONTINUOUS
10
0.529874
20
0.272
11
0.529874
21
0.212
0
LINE
8
BLACK
6
CONTINUOUS
10
0.529874
20
0.212
11
0.529275
21
0.208987
0
LINE
8
BLACK
6
CONTINUOUS
10
0.529275
20
0.208987
11
0.527568
21
0.206432
0
LINE
8
BLACK
6
CONTINUOUS
10
0.527568
20
0.206432
11
0.525013
21
0.204725
0
LINE
8
BLACK
6
CONTINUOUS
10
0.525013
20
0.204725
11
0.522
21
0.204126
0
LINE
8
BLACK
6
CONTINUOUS
10
0.522
20
0.204126
11
0.462
21
0.204126
0
LINE
8
BLACK
6
CONTINUOUS
10
0.462
20
0.204126
11
0.458987
21
0.204725
0
LINE
8
BLACK
6
CONTINUOUS
10
0.458987
20
0.204725
11
0.456432
21
0.206432
0
LINE
8
BLACK
6
CONTINUOUS
10
0.456432
20
0.206432
11
0.454725
21
0.208987
0
LINE
8
BLACK
6
CONTINUOUS
10
0.454725
20
0.208987
11
0.454126
21
0.212
0
LINE
8
BLACK
6
CONTINUOUS
10
0.454126
20
0.212
11
0.454126
21
0.272
0
LINE
8
BLACK
6
CONTINUOUS
10
0.454126
20
0.272
11
0.454725
21
0.275013
0
LINE
8
BLACK
6
CONTINUOUS
10
0.454725
20
0.275013
11
0.456432
21
0.277568
0
LINE
8
BLACK
6
CONTINUOUS
10
0.456432
20
0.277568
11
0.458987
21
0.279275
0
LINE
8
BLACK
6
CONTINUOUS
10
0.458987
20
0.279275
11
0.462
21
0.279874
0
LINE
8
BLACK
6
CONTINUOUS
10
0.462
20
0.279874
11
0.522
21
0.279874
0
LINE
8
BLACK
6
CONTINUOUS
10
0.522
20
0.279874
11
0.525013
21
0.279275
0
LINE
8
BLACK
6
CONTINUOUS
10
0.625013
20
0.279275
11
0.627568
21
0.277568
0
LINE
8
BLACK
6
CONTINUOUS
10
0.627568
20
0.277568
11
0.629275
21
0.275013
0
LINE
8
BLACK
6
CONTINUOUS
10
0.629275
20
0.275013
11
0.629874
21
0.272
0
LINE
8
BLACK
6
CONTINUOUS
10
0.629874
20
0.272
11
0.629874
21
0.212
0
LINE
8
BLACK
6
CONTINUOUS
10
0.629874
20
0.212
11
0.629275
21
0.208987
0
LINE
8
BLACK
6
CONTINUOUS
10
0.629275
20
0.208987
11
0.627568
21
0.206432
0
LINE
8
BLACK
6
CONTINUOUS
10
0.627568
20
0.206432
11
0.625013
21
0.204725
0
LINE
8
BLACK
6
CONTINUOUS
10
0.625013
20
0.204725
11
0.622
21
0.204126
0
LINE
8
BLACK
6
CONTINUOUS
10
0.622
20
0.204126
11
0.562
21
0.204126
0
LINE
8
BLACK
6
CONTINUOUS
10
0.562
20
0.204126
11
0.558987
21
0.204725
0
LINE
8
BLACK
6
CONTINUOUS
10
0.558987
20
0.204725
11
0.556432
21
0.206432
0
LINE
8
BLACK
6
CONTINUOUS
10
0.556432
20
0.206432
11
0.554725
21
0.208987
0
LINE
8
BLACK
6
CONTINUOUS
10
0.554725
20
0.208987
11
0.554126
21
0.212
0
LINE
8
BLACK
6
CONTINUOUS
10
0.554126
20
0.212
11
0.554126
21
0.272
0
LINE
8
BLACK
6
CONTINUOUS
10
0.554126
20
0.272
11
0.554725
21
0.275013
0
LINE
8
BLACK
6
CONTINUOUS
10
0.554725
20
0.275013
11
0.556432
21
0.277568
0
LINE
8
BLACK
6
CONTINUOUS
10
0.556432
20
0.277568
11
0.558987
21
0.279275
0
LINE
8
BLACK
6
CONTINUOUS
10
0.558987
20
0.279275
11
0.562
21
0.279874
0
LINE
8
BLACK
6
CONTINUOUS
10
0.562
20
0.279874
11
0.622
21
0.279874
0
LINE
8
BLACK
6
CONTINUOUS
10
0.622
20
0.279874
11
0.625013
21
0.279275
0
LINE
8
BLACK
6
CONTINUOUS
10
0.725013
20
0.279275
11
0.727568
21
0.277568
0
LINE
8
BLACK
6
CONTINUOUS
10
0.727568
20
0.277568
11
0.729275
21
0.275013
0
LINE
8
BLACK
6
CONTINUOUS
10
0.729275
20
0.275013
11
0.729874
21
0.272
0
LINE
8
BLACK
6
CONTINUOUS
10
0.729874
20
0.272
11
0.729874
21
0.212
0
LINE
8
BLACK
6
CONTINUOUS
10
0.729874
20
0.212
11
0.729275
21
0.208987
0
LINE
8
BLACK
6
CONTINUOUS
10
0.729275
20
0.208987
11
0.727568
21
0.206432
0
LINE
8
BLACK
6
CONTINUOUS
10
0.727568
20
0.206432
11
0.725013
21
0.204725
0
LINE
8
BLACK
6
CONTINUOUS
10
0.725013
20
0.204725
11
0.722
21
0.204126
0
LINE
8
BLACK
6
CONTINUOUS
10
0.722
20
0.204126
11
0.662
21
0.204126
0
LINE
8
BLACK
6
CONTINUOUS
10
0.662
20
0.204126
11
0.658987
21
0.204725
0
LINE
8
BLACK
6
CONTINUOUS
10
0.658987
20
0.204725
11
0.656432
21
0.206432
0
LINE
8
BLACK
6
CONTINUOUS
10
0.656432
20
0.206432
11
0.654725
21
0.208987
0
LINE
8
BLACK
6
CONTINUOUS
10
0.654725
20
0.208987
11
0.654126
21
0.212
0
LINE
8
BLACK
6
CONTINUOUS
10
0.654126
20
0.212
11
0.654126
21
0.272
0
LINE
8
BLACK
6
CONTINUOUS
10
0.654126
20
0.272
11
0.654725
21
0.275013
0
LINE
8
BLACK
6
CONTINUOUS
10
0.654725
20
0.275013
11
0.656432
21
0.277568
0
LINE
8
BLACK
6
CONTINUOUS
10
0.656432
20
0.277568
11
0.658987
21
0.279275
0
LINE
8
BLACK
6
CONTINUOUS
10
0.658987
20
0.279275
11
0.662
21
0.279874
0
LINE
8
BLACK
6
CONTINUOUS
10
0.662
20
0.279874
11
0.722
21
0.279874
0
LINE
8
BLACK
6
CONTINUOUS
10
0.722
20
0.279874
11
0.725013
21
0.279275
0
LINE
8
BLACK
6
CONTINUOUS
10
0.825013
20
0.279275
11
0.827568
21
0.277568
0
LINE
8
BLACK
6
CONTINUOUS
10
0.827568
20
0.277568
11
0.829275
21
0.275013
0
LINE
8
BLACK
6
CONTINUOUS
10
0.829275
20
0.275013
11
0.829874
21
0.272
0
LINE
8
BLACK
6
CONTINUOUS
10
0.829874
20
0.272
11
0.829874
21
0.212
0
LINE
8
BLACK
6
CONTINUOUS
10
0.829874
20
0.212
11
0.829275
21
0.208987
0
LINE
8
BLACK
6
CONTINUOUS
10
0.829275
20
0.208987
11
0.827568
21
0.206432
0
LINE
8
BLACK
6
CONTINUOUS
10
0.827568
20
0.206432
11
0.825013
21
0.204725
0
LINE
8
BLACK
6
CONTINUOUS
10
0.825013
20
0.204725
11
0.822
21
0.204126
0
LINE
8
BLACK
6
CONTINUOUS
10
0.822
20
0.204126
11
0.762
21
0.204126
0
LINE
8
BLACK
6
CONTINUOUS
10
0.762
20
0.204126
11
0.758987
21
0.204725
0
LINE
8
BLACK
6
CONTINUOUS
10
0.758987
20
0.204725
11
0.756432
21
0.206432
0
LINE
8
BLACK
6
CONTINUOUS
10
0.756432
20
0.206432
11
0.754725
21
0.208987
0
LINE
8
BLACK
6
CONTINUOUS
10
0.754725
20
0.208987
11
0.754126
21
0.212
0
LINE
8
BLACK
6
CONTINUOUS
10
0.754126
20
0.212
11
0.754126
21
0.272
0
LINE
8
BLACK
6
CONTINUOUS
10
0.754126
20
0.272
11
0.754725
21
0.275013
0
LINE
8
BLACK
6
CONTINUOUS
10
0.754725
20
0.275013
11
0.756432
21
0.277568
0
LINE
8
BLACK
6
CONTINUOUS
10
0.756432
20
0.277568
11
0.758987
21
0.279275
0
LINE
8
BLACK
6
CONTINUOUS
10
0.758987
20
0.279275
11
0.762
21
0.279874
0
LINE
8
BLACK
6
CONTINUOUS
10
0.762
20
0.279874
11
0.822
21
0.279874
0
LINE
8
BLACK
6
CONTINUOUS
10
0.822
20
0.279874
11
0.825013
21
0.279275
0
LINE
8
BLACK
6
CONTINUOUS
10
1.15501
20
0.279275
11
1.15757
21
0.277568
0
LINE
8
BLACK
6
CONTINUOUS
10
1.15757
20
0.277568
11
1.15927
21
0.275013
0
LINE
8
BLACK
6
CONTINUOUS
10
1.15927
20
0.275013
11
1.15987
21
0.272
0
LINE
8
BLACK
6
CONTINUOUS
10
1.15987
20
0.272
11
1.15987
21
0.212
0
LINE
8
BLACK
6
CONTINUOUS
10
1.15987
20
0.212
11
1.15927
21
0.208987
0
LINE
8
BLACK
6
CONTINUOUS
10
1.15927
20
0.208987
11
1.15757
21
0.206432
0
LINE
8
BLACK
6
CONTINUOUS
10
1.15757
20
0.206432
11
1.15501
21
0.204725
0
LINE
8
BLACK
6
CONTINUOUS
10
1.15501
20
0.204725
11
1.152
21
0.204126
0
LINE
8
BLACK
6
CONTINUOUS
10
1.152
20
0.204126
11
1.092
21
0.204126
0
LINE
8
BLACK
6
CONTINUOUS
10
1.092
20
0.204126
11
1.08899
21
0.204725
0
LINE
8
BLACK
6
CONTINUOUS
10
1.08899
20
0.204725
11
1.08643
21
0.206432
0
LINE
8
BLACK
6
CONTINUOUS
10
1.08643
20
0.206432
11
1.08473
21
0.208987
0
LINE
8
BLACK
6
CONTINUOUS
10
1.08473
20
0.208987
11
1.08413
21
0.212
0
LINE
8
BLACK
6
CONTINUOUS
10
1.08413
20
0.212
11
1.08413
21
0.272
0
LINE
8
BLACK
6
CONTINUOUS
10
1.08413
20
0.272
11
1.08473
21
0.275013
0
LINE
8
BLACK
6
CONTINUOUS
10
1.08473
20
0.275013
11
1.08643
21
0.277568
0
LINE
8
BLACK
6
CONTINUOUS
10
1.08643
20
0.277568
11
1.08899
21
0.279275
0
LINE
8
BLACK
6
CONTINUOUS
10
1.08899
20
0.279275
11
1.092
21
0.279874
0
LINE
8
BLACK
6
CONTINUOUS
10
1.092
20
0.279874
11
1.152
21
0.279874
0
LINE
8
BLACK
6
CONTINUOUS
10
1.152
20
0.279874
11
1.15501
21
0.279275
0
LINE
8
BLACK
6
CONTINUOUS
10
1.25501
20
0.279275
11
1.25757
21
0.277568
0
LINE
8
BLACK
6
CONTINUOUS
10
1.25757
20
0.277568
11
1.25927
21
0.275013
0
LINE
8
BLACK
6
CONTINUOUS
10
1.25927
20
0.275013
11
1.25987
21
0.272
0
LINE
8
BLACK
6
CONTINUOUS
10
1.25987
20
0.272
11
1.25987
21
0.212
0
LINE
8
BLACK
6
CONTINUOUS
10
1.25987
20
0.212
11
1.25927
21
0.208987
0
LINE
8
BLACK
6
CONTINUOUS
10
1.25927
20
0.208987
11
1.25757
21
0.206432
0
LINE
8
BLACK
6
CONTINUOUS
10
1.25757
20
0.206432
11
1.25501
21
0.204725
0
LINE
8
BLACK
6
CONTINUOUS
10
1.25501
20
0.204725
11
1.252
21
0.204126
0
LINE
8
BLACK
6
CONTINUOUS
10
1.252
20
0.204126
11
1.192
21
0.204126
0
LINE
8
BLACK
6
CONTINUOUS
10
1.192
20
0.204126
11
1.18899
21
0.204725
0
LINE
8
BLACK
6
CONTINUOUS
10
1.18899
20
0.204725
11
1.18643
21
0.206432
0
LINE
8
BLACK
6
CONTINUOUS
10
1.18643
20
0.206432
11
1.18473
21
0.208987
0
LINE
8
BLACK
6
CONTINUOUS
10
1.18473
20
0.208987
11
1.18413
21
0.212
0
LINE
8
BLACK
6
CONTINUOUS
10
1.18413
20
0.212
11
1.18413
21
0.272
0
LINE
8
BLACK
6
CONTINUOUS
10
1.18413
20
0.272
11
1.18473
21
0.275013
0
LINE
8
BLACK
6
CONTINUOUS
10
1.18473
20
0.275013
11
1.18643
21
0.277568
0
LINE
8
BLACK
6
CONTINUOUS
10
1.18643
20
0.277568
11
1.18899
21
0.279275
0
LINE
8
BLACK
6
CONTINUOUS
10
1.18899
20
0.279275
11
1.192
21
0.279874
0
LINE
8
BLACK
6
CONTINUOUS
10
1.192
20
0.279874
11
1.252
21
0.279874
0
LINE
8
BLACK
6
CONTINUOUS
10
1.252
20
0.279874
11
1.25501
21
0.279275
0
LINE
8
BLACK
6
CONTINUOUS
10
1.35501
20
0.279275
11
1.35757
21
0.277568
0
LINE
8
BLACK
6
CONTINUOUS
10
1.35757
20
0.277568
11
1.35927
21
0.275013
0
LINE
8
BLACK
6
CONTINUOUS
10
1.35927
20
0.275013
11
1.35987
21
0.272
0
LINE
8
BLACK
6
CONTINUOUS
10
1.35987
20
0.272
11
1.35987
21
0.212
0
LINE
8
BLACK
6
CONTINUOUS
10
1.35987
20
0.212
11
1.35927
21
0.208987
0
LINE
8
BLACK
6
CONTINUOUS
10
1.35927
20
0.208987
11
1.35757
21
0.206432
0
LINE
8
BLACK
6
CONTINUOUS
10
1.35757
20
0.206432
11
1.35501
21
0.204725
0
LINE
8
BLACK
6
CONTINUOUS
10
1.35501
20
0.204725
11
1.352
21
0.204126
0
LINE
8
BLACK
6
CONTINUOUS
10
1.352
20
0.204126
11
1.292
21
0.204126
0
LINE
8
BLACK
6
CONTINUOUS
10
1.292
20
0.204126
11
1.28899
21
0.204725
0
LINE
8
BLACK
6
CONTINUOUS
10
1.28899
20
0.204725
11
1.28643
21
0.206432
0
LINE
8
BLACK
6
CONTINUOUS
10
1.28643
20
0.206432
11
1.28473
21
0.208987
0
LINE
8
BLACK
6
CONTINUOUS
10
1.28473
20
0.208987
11
1.28413
21
0.212
0
LINE
8
BLACK
6
CONTINUOUS
10
1.28413
20
0.212
11
1.28413
21
0.272
0
LINE
8
BLACK
6
CONTINUOUS
10
1.28413
20
0.272
11
1.28473
21
0.275013
0
LINE
8
BLACK
6
CONTINUOUS
10
1.28473
20
0.275013
11
1.28643
21
0.277568
0
LINE
8
BLACK
6
CONTINUOUS
10
1.28643
20
0.277568
11
1.28899
21
0.279275
0
LINE
8
BLACK
6
CONTINUOUS
10
1.28899
20
0.279275
11
1.292
21
0.279874
0
LINE
8
BLACK
6
CONTINUOUS
10
1.292
20
0.279874
11
1.352
21
0.279874
0
LINE
8
BLACK
6
CONTINUOUS
10
1.352
20
0.279874
11
1.35501
21
0.279275
0
LINE
8
BLACK
6
CONTINUOUS
10
1.45301
20
0.279275
11
1.45557
21
0.277568
0
LINE
8
BLACK
6
CONTINUOUS
10
1.45557
20
0.277568
11
1.45727
21
0.275013
0
LINE
8
BLACK
6
CONTINUOUS
10
1.45727
20
0.275013
11
1.45787
21
0.272
0
LINE
8
BLACK
6
CONTINUOUS
10
1.45787
20
0.272
11
1.45787
21
0.212
0
LINE
8
BLACK
6
CONTINUOUS
10
1.45787
20
0.212
11
1.45727
21
0.208987
0
LINE
8
BLACK
6
CONTINUOUS
10
1.45727
20
0.208987
11
1.45557
21
0.206432
0
LINE
8
BLACK
6
CONTINUOUS
10
1.45557
20
0.206432
11
1.45301
21
0.204725
0
LINE
8
BLACK
6
CONTINUOUS
10
1.45301
20
0.204725
11
1.45
21
0.204126
0
LINE
8
BLACK
6
CONTINUOUS
10
1.45
20
0.204126
11
1.39
21
0.204126
0
LINE
8
BLACK
6
CONTINUOUS
10
1.39
20
0.204126
11
1.38699
21
0.204725
0
LINE
8
BLACK
6
CONTINUOUS
10
1.38699
20
0.204725
11
1.38443
21
0.206432
0
LINE
8
BLACK
6
CONTINUOUS
10
1.38443
20
0.206432
11
1.38273
21
0.208987
0
LINE
8
BLACK
6
CONTINUOUS
10
1.38273
20
0.208987
11
1.38213
21
0.212
0
LINE
8
BLACK
6
CONTINUOUS
10
1.38213
20
0.212
11
1.38213
21
0.272
0
LINE
8
BLACK
6
CONTINUOUS
10
1.38213
20
0.272
11
1.38273
21
0.275013
0
LINE
8
BLACK
6
CONTINUOUS
10
1.38273
20
0.275013
11
1.38443
21
0.277568
0
LINE
8
BLACK
6
CONTINUOUS
10
1.38443
20
0.277568
11
1.38699
21
0.279275
0
LINE
8
BLACK
6
CONTINUOUS
10
1.38699
20
0.279275
11
1.39
21
0.279874
0
LINE
8
BLACK
6
CONTINUOUS
10
1.39
20
0.279874
11
1.45
21
0.279874
0
LINE
8
BLACK
6
CONTINUOUS
10
1.45
20
0.279874
11
1.45301
21
0.279275
0
LINE
8
BLACK
6
CONTINUOUS
10
1.55301
20
0.279275
11
1.55557
21
0.277568
0
LINE
8
BLACK
6
CONTINUOUS
10
1.55557
20
0.277568
11
1.55727
21
0.275013
0
LINE
8
BLACK
6
CONTINUOUS
10
1.55727
20
0.275013
11
1.55787
21
0.272
0
LINE
8
BLACK
6
CONTINUOUS
10
1.55787
20
0.272
11
1.55787
21
0.212
0
LINE
8
BLACK
6
CONTINUOUS
10
1.55787
20
0.212
11
1.55727
21
0.208987
0
LINE
8
BLACK
6
CONTINUOUS
10
1.55727
20
0.208987
11
1.55557
21
0.206432
0
LINE
8
BLACK
6
CONTINUOUS
10
1.55557
20
0.206432
11
1.55301
21
0.204725
0
LINE
8
BLACK
6
CONTINUOUS
10
1.55301
20
0.204725
11
1.55
21
0.204126
0
LINE
8
BLACK
6
CONTINUOUS
10
1.55
20
0.204126
11
1.49
21
0.204126
0
LINE
8
BLACK
6
CONTINUOUS
10
1.49
20
0.204126
11
1.48699
21
0.204725
0
LINE
8
BLACK
6
CONTINUOUS
10
1.48699
20
0.204725
11
1.48443
21
0.206432
0
LINE
8
BLACK
6
CONTINUOUS
10
1.48443
20
0.206432
11
1.48273
21
0.208987
0
LINE
8
BLACK
6
CONTINUOUS
10
1.48273
20
0.208987
11
1.48213
21
0.212
0
LINE
8
BLACK
6
CONTINUOUS
10
1.48213
20
0.212
11
1.48213
21
0.272
0
LINE
8
BLACK
6
CONTINUOUS
10
1.48213
20
0.272
11
1.48273
21
0.275013
0
LINE
8
BLACK
6
CONTINUOUS
10
1.48273
20
0.275013
11
1.48443
21
0.277568
0
LINE
8
BLACK
6
CONTINUOUS
10
1.48443
20
0.277568
11
1.48699
21
0.279275
0
LINE
8
BLACK
6
CONTINUOUS
10
1.48699
20
0.279275
11
1.49
21
0.279874
0
LINE
8
BLACK
6
CONTINUOUS
10
1.49
20
0.279874
11
1.55
21
0.279874
0
LINE
8
BLACK
6
CONTINUOUS
10
1.55
20
0.279874
11
1.55301
21
0.279275
0
LINE
8
BLACK
6
CONTINUOUS
10
1.40893
20
0.737441
11
1.41706
21
0.734291
0
LINE
8
BLACK
6
CONTINUOUS
10
1.41706
20
0.734291
11
1.42447
21
0.729702
0
LINE
8
BLACK
6
CONTINUOUS
10
1.42447
20
0.729702
11
1.43091
21
0.723828
0
LINE
8
BLACK
6
CONTINUOUS
10
1.43091
20
0.723828
11
1.43617
21
0.716871
0
LINE
8
BLACK
6
CONTINUOUS
10
1.43617
20
0.716871
11
1.44005
21
0.709067
0
LINE
8
BLACK
6
CONTINUOUS
10
1.44005
20
0.709067
11
1.44244
21
0.700681
0
LINE
8
BLACK
6
CONTINUOUS
10
1.44244
20
0.700681
11
1.44324
21
0.692
0
LINE
8
BLACK
6
CONTINUOUS
10
1.44324
20
0.692
11
1.44244
21
0.683319
0
LINE
8
BLACK
6
CONTINUOUS
10
1.44244
20
0.683319
11
1.44005
21
0.674933
0
LINE
8
BLACK
6
CONTINUOUS
10
1.44005
20
0.674933
11
1.43617
21
0.667129
0
LINE
8
BLACK
6
CONTINUOUS
10
1.43617
20
0.667129
11
1.43091
21
0.660172
0
LINE
8
BLACK
6
CONTINUOUS
10
1.43091
20
0.660172
11
1.42447
21
0.654298
0
LINE
8
BLACK
6
CONTINUOUS
10
1.42447
20
0.654298
11
1.41706
21
0.649709
0
LINE
8
BLACK
6
CONTINUOUS
10
1.41706
20
0.649709
11
1.40893
21
0.646559
0
LINE
8
BLACK
6
CONTINUOUS
10
1.40893
20
0.646559
11
1.40036
21
0.644957
0
LINE
8
BLACK
6
CONTINUOUS
10
1.40036
20
0.644957
11
1.39164
21
0.644957
0
LINE
8
BLACK
6
CONTINUOUS
10
1.39164
20
0.644957
11
1.38307
21
0.646559
0
LINE
8
BLACK
6
CONTINUOUS
10
1.38307
20
0.646559
11
1.37494
21
0.649709
0
LINE
8
BLACK
6
CONTINUOUS
10
1.37494
20
0.649709
11
1.36753
21
0.654298
0
LINE
8
BLACK
6
CONTINUOUS
10
1.36753
20
0.654298
11
1.36109
21
0.660172
0
LINE
8
BLACK
6
CONTINUOUS
10
1.36109
20
0.660172
11
1.35583
21
0.667129
0
LINE
8
BLACK
6
CONTINUOUS
10
1.35583
20
0.667129
11
1.35195
21
0.674933
0
LINE
8
BLACK
6
CONTINUOUS
10
1.35195
20
0.674933
11
1.34956
21
0.683319
0
LINE
8
BLACK
6
CONTINUOUS
10
1.34956
20
0.683319
11
1.34876
21
0.692
0
LINE
8
BLACK
6
CONTINUOUS
10
1.34876
20
0.692
11
1.34956
21
0.700681
0
LINE
8
BLACK
6
CONTINUOUS
10
1.34956
20
0.700681
11
1.35195
21
0.709067
0
LINE
8
BLACK
6
CONTINUOUS
10
1.35195
20
0.709067
11
1.35583
21
0.716871
0
LINE
8
BLACK
6
CONTINUOUS
10
1.35583
20
0.716871
11
1.36109
21
0.723828
0
LINE
8
BLACK
6
CONTINUOUS
10
1.36109
20
0.723828
11
1.36753
21
0.729702
0
LINE
8
BLACK
6
CONTINUOUS
10
1.36753
20
0.729702
11
1.37494
21
0.734291
0
LINE
8
BLACK
6
CONTINUOUS
10
1.37494
20
0.734291
11
1.38307
21
0.737441
0
LINE
8
BLACK
6
CONTINUOUS
10
1.38307
20
0.737441
11
1.39164
21
0.739043
0
LINE
8
BLACK
6
CONTINUOUS
10
1.39164
20
0.739043
11
1.40036
21
0.739043
0
LINE
8
BLACK
6
CONTINUOUS
10
1.40036
20
0.739043
11
1.40893
21
0.737441
0
LINE
8
BLACK
6
CONTINUOUS
10
1.60893
20
0.737441
11
1.61706
21
0.734291
0
LINE
8
BLACK
6
CONTINUOUS
10
1.61706
20
0.734291
11
1.62447
21
0.729702
0
LINE
8
BLACK
6
CONTINUOUS
10
1.62447
20
0.729702
11
1.63091
21
0.723828
0
LINE
8
BLACK
6
CONTINUOUS
10
1.63091
20
0.723828
11
1.63617
21
0.716871
0
LINE
8
BLACK
6
CONTINUOUS
10
1.63617
20
0.716871
11
1.64005
21
0.709067
0
LINE
8
BLACK
6
CONTINUOUS
10
1.64005
20
0.709067
11
1.64244
21
0.700681
0
LINE
8
BLACK
6
CONTINUOUS
10
1.64244
20
0.700681
11
1.64324
21
0.692
0
LINE
8
BLACK
6
CONTINUOUS
10
1.64324
20
0.692
11
1.64244
21
0.683319
0
LINE
8
BLACK
6
CONTINUOUS
10
1.64244
20
0.683319
11
1.64005
21
0.674933
0
LINE
8
BLACK
6
CONTINUOUS
10
1.64005
20
0.674933
11
1.63617
21
0.667129
0
LINE
8
BLACK
6
CONTINUOUS
10
1.63617
20
0.667129
11
1.63091
21
0.660172
0
LINE
8
BLACK
6
CONTINUOUS
10
1.63091
20
0.660172
11
1.62447
21
0.654298
0
LINE
8
BLACK
6
CONTINUOUS
10
1.62447
20
0.654298
11
1.61706
21
0.649709
0
LINE
8
BLACK
6
CONTINUOUS
10
1.61706
20
0.649709
11
1.60893
21
0.646559
0
LINE
8
BLACK
6
CONTINUOUS
10
1.60893
20
0.646559
11
1.60036
21
0.644957
0
LINE
8
BLACK
6
CONTINUOUS
10
1.60036
20
0.644957
11
1.59164
21
0.644957
0
LINE
8
BLACK
6
CONTINUOUS
10
1.59164
20
0.644957
11
1.58307
21
0.646559
0
LINE
8
BLACK
6
CONTINUOUS
10
1.58307
20
0.646559
11
1.57494
21
0.649709
0
LINE
8
BLACK
6
CONTINUOUS
10
1.57494
20
0.649709
11
1.56753
21
0.654298
0
LINE
8
BLACK
6
CONTINUOUS
10
1.56753
20
0.654298
11
1.56109
21
0.660172
0
LINE
8
BLACK
6
CONTINUOUS
10
1.56109
20
0.660172
11
1.55583
21
0.667129
0
LINE
8
BLACK
6
CONTINUOUS
10
1.55583
20
0.667129
11
1.55195
21
0.674933
0
LINE
8
BLACK
6
CONTINUOUS
10
1.55195
20
0.674933
11
1.54956
21
0.683319
0
LINE
8
BLACK
6
CONTINUOUS
10
1.54956
20
0.683319
11
1.54876
21
0.692
0
LINE
8
BLACK
6
CONTINUOUS
10
1.54876
20
0.692
11
1.54956
21
0.700681
0
LINE
8
BLACK
6
CONTINUOUS
10
1.54956
20
0.700681
11
1.55195
21
0.709067
0
LINE
8
BLACK
6
CONTINUOUS
10
1.55195
20
0.709067
11
1.55583
21
0.716871
0
LINE
8
BLACK
6
CONTINUOUS
10
1.55583
20
0.716871
11
1.56109
21
0.723828
0
LINE
8
BLACK
6
CONTINUOUS
10
1.56109
20
0.723828
11
1.56753
21
0.729702
0
LINE
8
BLACK
6
CONTINUOUS
10
1.56753
20
0.729702
11
1.57494
21
0.734291
0
LINE
8
BLACK
6
CONTINUOUS
10
1.57494
20
0.734291
11
1.58307
21
0.737441
0
LINE
8
BLACK
6
CONTINUOUS
10
1.58307
20
0.737441
11
1.59164
21
0.739043
0
LINE
8
BLACK
6
CONTINUOUS
10
1.59164
20
0.739043
11
1.60036
21
0.739043
0
LINE
8
BLACK
6
CONTINUOUS
10
1.60036
20
0.739043
11
1.60893
21
0.737441
0
LINE
8
BLACK
6
CONTINUOUS
10
1.80893
20
0.737441
11
1.81706
21
0.734291
0
LINE
8
BLACK
6
CONTINUOUS
10
1.81706
20
0.734291
11
1.82447
21
0.729702
0
LINE
8
BLACK
6
CONTINUOUS
10
1.82447
20
0.729702
11
1.83091
21
0.723828
0
LINE
8
BLACK
6
CONTINUOUS
10
1.83091
20
0.723828
11
1.83617
21
0.716871
0
LINE
8
BLACK
6
CONTINUOUS
10
1.83617
20
0.716871
11
1.84005
21
0.709067
0
LINE
8
BLACK
6
CONTINUOUS
10
1.84005
20
0.709067
11
1.84244
21
0.700681
0
LINE
8
BLACK
6
CONTINUOUS
10
1.84244
20
0.700681
11
1.84324
21
0.692
0
LINE
8
BLACK
6
CONTINUOUS
10
1.84324
20
0.692
11
1.84244
21
0.683319
0
LINE
8
BLACK
6
CONTINUOUS
10
1.84244
20
0.683319
11
1.84005
21
0.674933
0
LINE
8
BLACK
6
CONTINUOUS
10
1.84005
20
0.674933
11
1.83617
21
0.667129
0
LINE
8
BLACK
6
CONTINUOUS
10
1.83617
20
0.667129
11
1.83091
21
0.660172
0
LINE
8
BLACK
6
CONTINUOUS
10
1.83091
20
0.660172
11
1.82447
21
0.654298
0
LINE
8
BLACK
6
CONTINUOUS
10
1.82447
20
0.654298
11
1.81706
21
0.649709
0
LINE
8
BLACK
6
CONTINUOUS
10
1.81706
20
0.649709
11
1.80893
21
0.646559
0
LINE
8
BLACK
6
CONTINUOUS
10
1.80893
20
0.646559
11
1.80036
21
0.644957
0
LINE
8
BLACK
6
CONTINUOUS
10
1.80036
20
0.644957
11
1.79164
21
0.644957
0
LINE
8
BLACK
6
CONTINUOUS
10
1.79164
20
0.644957
11
1.78307
21
0.646559
0
LINE
8
BLACK
6
CONTINUOUS
10
1.78307
20
0.646559
11
1.77494
21
0.649709
0
LINE
8
BLACK
6
CONTINUOUS
10
1.77494
20
0.649709
11
1.76753
21
0.654298
0
LINE
8
BLACK
6
CONTINUOUS
10
1.76753
20
0.654298
11
1.76109
21
0.660172
0
LINE
8
BLACK
6
CONTINUOUS
10
1.76109
20
0.660172
11
1.75583
21
0.667129
0
LINE
8
BLACK
6
CONTINUOUS
10
1.75583
20
0.667129
11
1.75195
21
0.674933
0
LINE
8
BLACK
6
CONTINUOUS
10
1.75195
20
0.674933
11
1.74956
21
0.683319
0
LINE
8
BLACK
6
CONTINUOUS
10
1.74956
20
0.683319
11
1.74876
21
0.692
0
LINE
8
BLACK
6
CONTINUOUS
10
1.74876
20
0.692
11
1.74956
21
0.700681
0
LINE
8
BLACK
6
CONTINUOUS
10
1.74956
20
0.700681
11
1.75195
21
0.709067
0
LINE
8
BLACK
6
CONTINUOUS
10
1.75195
20
0.709067
11
1.75583
21
0.716871
0
LINE
8
BLACK
6
CONTINUOUS
10
1.75583
20
0.716871
11
1.76109
21
0.723828
0
LINE
8
BLACK
6
CONTINUOUS
10
1.76109
20
0.723828
11
1.76753
21
0.729702
0
LINE
8
BLACK
6
CONTINUOUS
10
1.76753
20
0.729702
11
1.77494
21
0.734291
0
LINE
8
BLACK
6
CONTINUOUS
10
1.77494
20
0.734291
11
1.78307
21
0.737441
0
LINE
8
BLACK
6
CONTINUOUS
10
1.78307
20
0.737441
11
1.79164
21
0.739043
0
LINE
8
BLACK
6
CONTINUOUS
10
1.79164
20
0.739043
11
1.80036
21
0.739043
0
LINE
8
BLACK
6
CONTINUOUS
10
1.80036
20
0.739043
11
1.80893
21
0.737441
0
LINE
8
BLACK
6
CONTINUOUS
10
2.00893
20
0.737441
11
2.01706
21
0.734291
0
LINE
8
BLACK
6
CONTINUOUS
10
2.01706
20
0.734291
11
2.02447
21
0.729702
0
LINE
8
BLACK
6
CONTINUOUS
10
2.02447
20
0.729702
11
2.03091
21
0.723828
0
LINE
8
BLACK
6
CONTINUOUS
10
2.03091
20
0.723828
11
2.03617
21
0.716871
0
LINE
8
BLACK
6
CONTINUOUS
10
2.03617
20
0.716871
11
2.04005
21
0.709067
0
LINE
8
BLACK
6
CONTINUOUS
10
2.04005
20
0.709067
11
2.04244
21
0.700681
0
LINE
8
BLACK
6
CONTINUOUS
10
2.04244
20
0.700681
11
2.04324
21
0.692
0
LINE
8
BLACK
6
CONTINUOUS
10
2.04324
20
0.692
11
2.04244
21
0.683319
0
LINE
8
BLACK
6
CONTINUOUS
10
2.04244
20
0.683319
11
2.04005
21
0.674933
0
LINE
8
BLACK
6
CONTINUOUS
10
2.04005
20
0.674933
11
2.03617
21
0.667129
0
LINE
8
BLACK
6
CONTINUOUS
10
2.03617
20
0.667129
11
2.03091
21
0.660172
0
LINE
8
BLACK
6
CONTINUOUS
10
2.03091
20
0.660172
11
2.02447
21
0.654298
0
LINE
8
BLACK
6
CONTINUOUS
10
2.02447
20
0.654298
11
2.01706
21
0.649709
0
LINE
8
BLACK
6
CONTINUOUS
10
2.01706
20
0.649709
11
2.00893
21
0.646559
0
LINE
8
BLACK
6
CONTINUOUS
10
2.00893
20
0.646559
11
2.00036
21
0.644957
0
LINE
8
BLACK
6
CONTINUOUS
10
2.00036
20
0.644957
11
1.99164
21
0.644957
0
LINE
8
BLACK
6
CONTINUOUS
10
1.99164
20
0.644957
11
1.98307
21
0.646559
0
LINE
8
BLACK
6
CONTINUOUS
10
1.98307
20
0.646559
11
1.97494
21
0.649709
0
LINE
8
BLACK
6
CONTINUOUS
10
1.97494
20
0.649709
11
1.96753
21
0.654298
0
LINE
8
BLACK
6
CONTINUOUS
10
1.96753
20
0.654298
11
1.96109
21
0.660172
0
LINE
8
BLACK
6
CONTINUOUS
10
1.96109
20
0.660172
11
1.95583
21
0.667129
0
LINE
8
BLACK
6
CONTINUOUS
10
1.95583
20
0.667129
11
1.95195
21
0.674933
0
LINE
8
BLACK
6
CONTINUOUS
10
1.95195
20
0.674933
11
1.94956
21
0.683319
0
LINE
8
BLACK
6
CONTINUOUS
10
1.94956
20
0.683319
11
1.94876
21
0.692
0
LINE
8
BLACK
6
CONTINUOUS
10
1.94876
20
0.692
11
1.94956
21
0.700681
0
LINE
8
BLACK
6
CONTINUOUS
10
1.94956
20
0.700681
11
1.95195
21
0.709067
0
LINE
8
BLACK
6
CONTINUOUS
10
1.95195
20
0.709067
11
1.95583
21
0.716871
0
LINE
8
BLACK
6
CONTINUOUS
10
1.95583
20
0.716871
11
1.96109
21
0.723828
0
LINE
8
BLACK
6
CONTINUOUS
10
1.96109
20
0.723828
11
1.96753
21
0.729702
0
LINE
8
BLACK
6
CONTINUOUS
10
1.96753
20
0.729702
11
1.97494
21
0.734291
0
LINE
8
BLACK
6
CONTINUOUS
10
1.97494
20
0.734291
11
1.98307
21
0.737441
0
LINE
8
BLACK
6
CONTINUOUS
10
1.98307
20
0.737441
11
1.99164
21
0.739043
0
LINE
8
BLACK
6
CONTINUOUS
10
1.99164
20
0.739043
11
2.00036
21
0.739043
0
LINE
8
BLACK
6
CONTINUOUS
10
2.00036
20
0.739043
11
2.00893
21
0.737441
0
LINE
8
BLACK
6
CONTINUOUS
10
2.20893
20
0.737441
11
2.21706
21
0.734291
0
LINE
8
BLACK
6
CONTINUOUS
10
2.21706
20
0.734291
11
2.22447
21
0.729702
0
LINE
8
BLACK
6
CONTINUOUS
10
2.22447
20
0.729702
11
2.23091
21
0.723828
0
LINE
8
BLACK
6
CONTINUOUS
10
2.23091
20
0.723828
11
2.23617
21
0.716871
0
LINE
8
BLACK
6
CONTINUOUS
10
2.23617
20
0.716871
11
2.24005
21
0.709067
0
LINE
8
BLACK
6
CONTINUOUS
10
2.24005
20
0.709067
11
2.24244
21
0.700681
0
LINE
8
BLACK
6
CONTINUOUS
10
2.24244
20
0.700681
11
2.24324
21
0.692
0
LINE
8
BLACK
6
CONTINUOUS
10
2.24324
20
0.692
11
2.24244
21
0.683319
0
LINE
8
BLACK
6
CONTINUOUS
10
2.24244
20
0.683319
11
2.24005
21
0.674933
0
LINE
8
BLACK
6
CONTINUOUS
10
2.24005
20
0.674933
11
2.23617
21
0.667129
0
LINE
8
BLACK
6
CONTINUOUS
10
2.23617
20
0.667129
11
2.23091
21
0.660172
0
LINE
8
BLACK
6
CONTINUOUS
10
2.23091
20
0.660172
11
2.22447
21
0.654298
0
LINE
8
BLACK
6
CONTINUOUS
10
2.22447
20
0.654298
11
2.21706
21
0.649709
0
LINE
8
BLACK
6
CONTINUOUS
10
2.21706
20
0.649709
11
2.20893
21
0.646559
0
LINE
8
BLACK
6
CONTINUOUS
10
2.20893
20
0.646559
11
2.20036
21
0.644957
0
LINE
8
BLACK
6
CONTINUOUS
10
2.20036
20
0.644957
11
2.19164
21
0.644957
0
LINE
8
BLACK
6
CONTINUOUS
10
2.19164
20
0.644957
11
2.18307
21
0.646559
0
LINE
8
BLACK
6
CONTINUOUS
10
2.18307
20
0.646559
11
2.17494
21
0.649709
0
LINE
8
BLACK
6
CONTINUOUS
10
2.17494
20
0.649709
11
2.16753
21
0.654298
0
LINE
8
BLACK
6
CONTINUOUS
10
2.16753
20
0.654298
11
2.16109
21
0.660172
0
LINE
8
BLACK
6
CONTINUOUS
10
2.16109
20
0.660172
11
2.15583
21
0.667129
0
LINE
8
BLACK
6
CONTINUOUS
10
2.15583
20
0.667129
11
2.15195
21
0.674933
0
LINE
8
BLACK
6
CONTINUOUS
10
2.15195
20
0.674933
11
2.14956
21
0.683319
0
LINE
8
BLACK
6
CONTINUOUS
10
2.14956
20
0.683319
11
2.14876
21
0.692
0
LINE
8
BLACK
6
CONTINUOUS
10
2.14876
20
0.692
11
2.14956
21
0.700681
0
LINE
8
BLACK
6
CONTINUOUS
10
2.14956
20
0.700681
11
2.15195
21
0.709067
0
LINE
8
BLACK
6
CONTINUOUS
10
2.15195
20
0.709067
11
2.15583
21
0.716871
0
LINE
8
BLACK
6
CONTINUOUS
10
2.15583
20
0.716871
11
2.16109
21
0.723828
0
LINE
8
BLACK
6
CONTINUOUS
10
2.16109
20
0.723828
11
2.16753
21
0.729702
0
LINE
8
BLACK
6
CONTINUOUS
10
2.16753
20
0.729702
11
2.17494
21
0.734291
0
LINE
8
BLACK
6
CONTINUOUS
10
2.17494
20
0.734291
11
2.18307
21
0.737441
0
LINE
8
BLACK
6
CONTINUOUS
10
2.18307
20
0.737441
11
2.19164
21
0.739043
0
LINE
8
BLACK
6
CONTINUOUS
10
2.19164
20
0.739043
11
2.20036
21
0.739043
0
LINE
8
BLACK
6
CONTINUOUS
10
2.20036
20
0.739043
11
2.20893
21
0.737441
0
LINE
8
BLACK
6
CONTINUOUS
10
1.40339
20
1.04515
11
1.41049
21
1.04299
0
LINE
8
BLACK
6
CONTINUOUS
10
1.41049
20
1.04299
11
1.41704
21
1.03949
0
LINE
8
BLACK
6
CONTINUOUS
10
1.41704
20
1.03949
11
1.42278
21
1.03478
0
LINE
8
BLACK
6
CONTINUOUS
10
1.42278
20
1.03478
11
1.42749
21
1.02904
0
LINE
8
BLACK
6
CONTINUOUS
10
1.42749
20
1.02904
11
1.43099
21
1.02249
0
LINE
8
BLACK
6
CONTINUOUS
10
1.43099
20
1.02249
11
1.43315
21
1.01539
0
LINE
8
BLACK
6
CONTINUOUS
10
1.43315
20
1.01539
11
1.43387
21
1.008
0
LINE
8
BLACK
6
CONTINUOUS
10
1.43387
20
1.008
11
1.43315
21
1.00061
0
LINE
8
BLACK
6
CONTINUOUS
10
1.43315
20
1.00061
11
1.43099
21
0.993506
0
LINE
8
BLACK
6
CONTINUOUS
10
1.43099
20
0.993506
11
1.42749
21
0.986958
0
LINE
8
BLACK
6
CONTINUOUS
10
1.42749
20
0.986958
11
1.42278
21
0.981219
0
LINE
8
BLACK
6
CONTINUOUS
10
1.42278
20
0.981219
11
1.41704
21
0.976509
0
LINE
8
BLACK
6
CONTINUOUS
10
1.41704
20
0.976509
11
1.41049
21
0.973009
0
LINE
8
BLACK
6
CONTINUOUS
10
1.41049
20
0.973009
11
1.40339
21
0.970854
0
LINE
8
BLACK
6
CONTINUOUS
10
1.40339
20
0.970854
11
1.396
21
0.970126
0
LINE
8
BLACK
6
CONTINUOUS
10
1.396
20
0.970126
11
1.38861
21
0.970854
0
LINE
8
BLACK
6
CONTINUOUS
10
1.38861
20
0.970854
11
1.38151
21
0.973009
0
LINE
8
BLACK
6
CONTINUOUS
10
1.38151
20
0.973009
11
1.37496
21
0.976509
0
LINE
8
BLACK
6
CONTINUOUS
10
1.37496
20
0.976509
11
1.36922
21
0.981219
0
LINE
8
BLACK
6
CONTINUOUS
10
1.36922
20
0.981219
11
1.36451
21
0.986958
0
LINE
8
BLACK
6
CONTINUOUS
10
1.36451
20
0.986958
11
1.36101
21
0.993506
0
LINE
8
BLACK
6
CONTINUOUS
10
1.36101
20
0.993506
11
1.35885
21
1.00061
0
LINE
8
BLACK
6
CONTINUOUS
10
1.35885
20
1.00061
11
1.35813
21
1.008
0
LINE
8
BLACK
6
CONTINUOUS
10
1.35813
20
1.008
11
1.35885
21
1.01539
0
LINE
8
BLACK
6
CONTINUOUS
10
1.35885
20
1.01539
11
1.36101
21
1.02249
0
LINE
8
BLACK
6
CONTINUOUS
10
1.36101
20
1.02249
11
1.36451
21
1.02904
0
LINE
8
BLACK
6
CONTINUOUS
10
1.36451
20
1.02904
11
1.36922
21
1.03478
0
LINE
8
BLACK
6
CONTINUOUS
10
1.36922
20
1.03478
11
1.37496
21
1.03949
0
LINE
8
BLACK
6
CONTINUOUS
10
1.37496
20
1.03949
11
1.38151
21
1.04299
0
LINE
8
BLACK
6
CONTINUOUS
10
1.38151
20
1.04299
11
1.38861
21
1.04515
0
LINE
8
BLACK
6
CONTINUOUS
10
1.38861
20
1.04515
11
1.396
21
1.04587
0
LINE
8
BLACK
6
CONTINUOUS
10
1.396
20
1.04587
11
1.40339
21
1.04515
0
LINE
8
BLACK
6
CONTINUOUS
10
1.71139
20
1.05515
11
1.71849
21
1.05299
0
LINE
8
BLACK
6
CONTINUOUS
10
1.71849
20
1.05299
11
1.72504
21
1.04949
0
LINE
8
BLACK
6
CONTINUOUS
10
1.72504
20
1.04949
11
1.73078
21
1.04478
0
LINE
8
BLACK
6
CONTINUOUS
10
1.73078
20
1.04478
11
1.73549
21
1.03904
0
LINE
8
BLACK
6
CONTINUOUS
10
1.73549
20
1.03904
11
1.73899
21
1.03249
0
LINE
8
BLACK
6
CONTINUOUS
10
1.73899
20
1.03249
11
1.74115
21
1.02539
0
LINE
8
BLACK
6
CONTINUOUS
10
1.74115
20
1.02539
11
1.74187
21
1.018
0
LINE
8
BLACK
6
CONTINUOUS
10
1.74187
20
1.018
11
1.74115
21
1.01061
0
LINE
8
BLACK
6
CONTINUOUS
10
1.74115
20
1.01061
11
1.73899
21
1.00351
0
LINE
8
BLACK
6
CONTINUOUS
10
1.73899
20
1.00351
11
1.73549
21
0.996958
0
LINE
8
BLACK
6
CONTINUOUS
10
1.73549
20
0.996958
11
1.73078
21
0.991219
0
LINE
8
BLACK
6
CONTINUOUS
10
1.73078
20
0.991219
11
1.72504
21
0.986509
0
LINE
8
BLACK
6
CONTINUOUS
10
1.72504
20
0.986509
11
1.71849
21
0.983009
0
LINE
8
BLACK
6
CONTINUOUS
10
1.71849
20
0.983009
11
1.71139
21
0.980854
0
LINE
8
BLACK
6
CONTINUOUS
10
1.71139
20
0.980854
11
1.704
21
0.980126
0
LINE
8
BLACK
6
CONTINUOUS
10
1.704
20
0.980126
11
1.69661
21
0.980854
0
LINE
8
BLACK
6
CONTINUOUS
10
1.69661
20
0.980854
11
1.68951
21
0.983009
0
LINE
8
BLACK
6
CONTINUOUS
10
1.68951
20
0.983009
11
1.68296
21
0.986509
0
LINE
8
BLACK
6
CONTINUOUS
10
1.68296
20
0.986509
11
1.67722
21
0.991219
0
LINE
8
BLACK
6
CONTINUOUS
10
1.67722
20
0.991219
11
1.67251
21
0.996958
0
LINE
8
BLACK
6
CONTINUOUS
10
1.67251
20
0.996958
11
1.66901
21
1.00351
0
LINE
8
BLACK
6
CONTINUOUS
10
1.66901
20
1.00351
11
1.66685
21
1.01061
0
LINE
8
BLACK
6
CONTINUOUS
10
1.66685
20
1.01061
11
1.66613
21
1.018
0
LINE
8
BLACK
6
CONTINUOUS
10
1.66613
20
1.018
11
1.66685
21
1.02539
0
LINE
8
BLACK
6
CONTINUOUS
10
1.66685
20
1.02539
11
1.66901
21
1.03249
0
LINE
8
BLACK
6
CONTINUOUS
10
1.66901
20
1.03249
11
1.67251
21
1.03904
0
LINE
8
BLACK
6
CONTINUOUS
10
1.67251
20
1.03904
11
1.67722
21
1.04478
0
LINE
8
BLACK
6
CONTINUOUS
10
1.67722
20
1.04478
11
1.68296
21
1.04949
0
LINE
8
BLACK
6
CONTINUOUS
10
1.68296
20
1.04949
11
1.68951
21
1.05299
0
LINE
8
BLACK
6
CONTINUOUS
10
1.68951
20
1.05299
11
1.69661
21
1.05515
0
LINE
8
BLACK
6
CONTINUOUS
10
1.69661
20
1.05515
11
1.704
21
1.05587
0
LINE
8
BLACK
6
CONTINUOUS
10
1.704
20
1.05587
11
1.71139
21
1.05515
0
LINE
8
BLACK
6
CONTINUOUS
10
1.78845
20
1.54271
11
1.791
21
1.541
0
LINE
8
BLACK
6
CONTINUOUS
10
1.791
20
1.541
11
1.79271
21
1.53845
0
LINE
8
BLACK
6
CONTINUOUS
10
1.79271
20
1.53845
11
1.79331
21
1.53543
0
LINE
8
BLACK
6
CONTINUOUS
10
1.79331
20
1.53543
11
1.79331
21
1.46457
0
LINE
8
BLACK
6
CONTINUOUS
10
1.79331
20
1.46457
11
1.79271
21
1.46155
0
LINE
8
BLACK
6
CONTINUOUS
10
1.79271
20
1.46155
11
1.791
21
1.459
0
LINE
8
BLACK
6
CONTINUOUS
10
1.791
20
1.459
11
1.78845
21
1.45729
0
LINE
8
BLACK
6
CONTINUOUS
10
1.78845
20
1.45729
11
1.78543
21
1.45669
0
LINE
8
BLACK
6
CONTINUOUS
10
1.78543
20
1.45669
11
1.71457
21
1.45669
0
LINE
8
BLACK
6
CONTINUOUS
10
1.71457
20
1.45669
11
1.71155
21
1.45729
0
LINE
8
BLACK
6
CONTINUOUS
10
1.71155
20
1.45729
11
1.709
21
1.459
0
LINE
8
BLACK
6
CONTINUOUS
10
1.709
20
1.459
11
1.70729
21
1.46155
0
LINE
8
BLACK
6
CONTINUOUS
10
1.70729
20
1.46155
11
1.70669
21
1.46457
0
LINE
8
BLACK
6
CONTINUOUS
10
1.70669
20
1.46457
11
1.70669
21
1.53543
0
LINE
8
BLACK
6
CONTINUOUS
10
1.70669
20
1.53543
11
1.70729
21
1.53845
0
LINE
8
BLACK
6
CONTINUOUS
10
1.70729
20
1.53845
11
1.709
21
1.541
0
LINE
8
BLACK
6
CONTINUOUS
10
1.709
20
1.541
11
1.71155
21
1.54271
0
LINE
8
BLACK
6
CONTINUOUS
10
1.71155
20
1.54271
11
1.71457
21
1.54331
0
LINE
8
BLACK
6
CONTINUOUS
10
1.71457
20
1.54331
11
1.78543
21
1.54331
0
LINE
8
BLACK
6
CONTINUOUS
10
1.78543
20
1.54331
11
1.78845
21
1.54271
0
LINE
8
BLACK
6
CONTINUOUS
10
1.86185
20
1.54165
11
1.8693
21
1.53877
0
LINE
8
BLACK
6
CONTINUOUS
10
1.8693
20
1.53877
11
1.8761
21
1.53456
0
LINE
8
BLACK
6
CONTINUOUS
10
1.8761
20
1.53456
11
1.882
21
1.52918
0
LINE
8
BLACK
6
CONTINUOUS
10
1.882
20
1.52918
11
1.88682
21
1.5228
0
LINE
8
BLACK
6
CONTINUOUS
10
1.88682
20
1.5228
11
1.89038
21
1.51564
0
LINE
8
BLACK
6
CONTINUOUS
10
1.89038
20
1.51564
11
1.89257
21
1.50796
0
LINE
8
BLACK
6
CONTINUOUS
10
1.89257
20
1.50796
11
1.89331
21
1.5
0
LINE
8
BLACK
6
CONTINUOUS
10
1.89331
20
1.5
11
1.89257
21
1.49204
0
LINE
8
BLACK
6
CONTINUOUS
10
1.89257
20
1.49204
11
1.89038
21
1.48436
0
LINE
8
BLACK
6
CONTINUOUS
10
1.89038
20
1.48436
11
1.88682
21
1.4772
0
LINE
8
BLACK
6
CONTINUOUS
10
1.88682
20
1.4772
11
1.882
21
1.47082
0
LINE
8
BLACK
6
CONTINUOUS
10
1.882
20
1.47082
11
1.8761
21
1.46544
0
LINE
8
BLACK
6
CONTINUOUS
10
1.8761
20
1.46544
11
1.8693
21
1.46123
0
LINE
8
BLACK
6
CONTINUOUS
10
1.8693
20
1.46123
11
1.86185
21
1.45835
0
LINE
8
BLACK
6
CONTINUOUS
10
1.86185
20
1.45835
11
1.854
21
1.45688
0
LINE
8
BLACK
6
CONTINUOUS
10
1.854
20
1.45688
11
1.846
21
1.45688
0
LINE
8
BLACK
6
CONTINUOUS
10
1.846
20
1.45688
11
1.83815
21
1.45835
0
LINE
8
BLACK
6
CONTINUOUS
10
1.83815
20
1.45835
11
1.8307
21
1.46123
0
LINE
8
BLACK
6
CONTINUOUS
10
1.8307
20
1.46123
11
1.8239
21
1.46544
0
LINE
8
BLACK
6
CONTINUOUS
10
1.8239
20
1.46544
11
1.818
21
1.47082
0
LINE
8
BLACK
6
CONTINUOUS
10
1.818
20
1.47082
11
1.81318
21
1.4772
0
LINE
8
BLACK
6
CONTINUOUS
10
1.81318
20
1.4772
11
1.80962
21
1.48436
0
LINE
8
BLACK
6
CONTINUOUS
10
1.80962
20
1.48436
11
1.80743
21
1.49204
0
LINE
8
BLACK
6
CONTINUOUS
10
1.80743
20
1.49204
11
1.80669
21
1.5
0
LINE
8
BLACK
6
CONTINUOUS
10
1.80669
20
1.5
11
1.80743
21
1.50796
0
LINE
8
BLACK
6
CONTINUOUS
10
1.80743
20
1.50796
11
1.80962
21
1.51564
0
LINE
8
BLACK
6
CONTINUOUS
10
1.80962
20
1.51564
11
1.81318
21
1.5228
0
LINE
8
BLACK
6
CONTINUOUS
10
1.81318
20
1.5228
11
1.818
21
1.52918
0
LINE
8
BLACK
6
CONTINUOUS
10
1.818
20
1.52918
11
1.8239
21
1.53456
0
LINE
8
BLACK
6
CONTINUOUS
10
1.8239
20
1.53456
11
1.8307
21
1.53877
0
LINE
8
BLACK
6
CONTINUOUS
10
1.8307
20
1.53877
11
1.83815
21
1.54165
0
LINE
8
BLACK
6
CONTINUOUS
10
1.83815
20
1.54165
11
1.846
21
1.54312
0
LINE
8
BLACK
6
CONTINUOUS
10
1.846
20
1.54312
11
1.854
21
1.54312
0
LINE
8
BLACK
6
CONTINUOUS
10
1.854
20
1.54312
11
1.86185
21
1.54165
0
LINE
8
BLACK
6
CONTINUOUS
10
1.09784
20
1.92614
11
1.11177
21
1.92377
0
LINE
8
BLACK
6
CONTINUOUS
10
1.11177
20
1.92377
11
1.12534
21
1.91986
0
LINE
8
BLACK
6
CONTINUOUS
10
1.12534
20
1.91986
11
1.13839
21
1.91445
0
LINE
8
BLACK
6
CONTINUOUS
10
1.13839
20
1.91445
11
1.15076
21
1.90762
0
LINE
8
BLACK
6
CONTINUOUS
10
1.15076
20
1.90762
11
1.16228
21
1.89944
0
LINE
8
BLACK
6
CONTINUOUS
10
1.16228
20
1.89944
11
1.17282
21
1.89003
0
LINE
8
BLACK
6
CONTINUOUS
10
1.17282
20
1.89003
11
1.18223
21
1.87949
0
LINE
8
BLACK
6
CONTINUOUS
10
1.18223
20
1.87949
11
1.19041
21
1.86797
0
LINE
8
BLACK
6
CONTINUOUS
10
1.19041
20
1.86797
11
1.19724
21
1.85561
0
LINE
8
BLACK
6
CONTINUOUS
10
1.19724
20
1.85561
11
1.20265
21
1.84255
0
LINE
8
BLACK
6
CONTINUOUS
10
1.20265
20
1.84255
11
1.20656
21
1.82898
0
LINE
8
BLACK
6
CONTINUOUS
10
1.20656
20
1.82898
11
1.20892
21
1.81505
0
LINE
8
BLACK
6
CONTINUOUS
10
1.20892
20
1.81505
11
1.20972
21
1.80094
0
LINE
8
BLACK
6
CONTINUOUS
10
1.20972
20
1.80094
11
1.20892
21
1.78684
0
LINE
8
BLACK
6
CONTINUOUS
10
1.20892
20
1.78684
11
1.20656
21
1.77291
0
LINE
8
BLACK
6
CONTINUOUS
10
1.20656
20
1.77291
11
1.20265
21
1.75933
0
LINE
8
BLACK
6
CONTINUOUS
10
1.20265
20
1.75933
11
1.19724
21
1.74628
0
LINE
8
BLACK
6
CONTINUOUS
10
1.19724
20
1.74628
11
1.19041
21
1.73392
0
LINE
8
BLACK
6
CONTINUOUS
10
1.19041
20
1.73392
11
1.18223
21
1.72239
0
LINE
8
BLACK
6
CONTINUOUS
10
1.18223
20
1.72239
11
1.17282
21
1.71186
0
LINE
8
BLACK
6
CONTINUOUS
10
1.17282
20
1.71186
11
1.16228
21
1.70245
0
LINE
8
BLACK
6
CONTINUOUS
10
1.16228
20
1.70245
11
1.15076
21
1.69427
0
LINE
8
BLACK
6
CONTINUOUS
10
1.15076
20
1.69427
11
1.13839
21
1.68744
0
LINE
8
BLACK
6
CONTINUOUS
10
1.13839
20
1.68744
11
1.12534
21
1.68203
0
LINE
8
BLACK
6
CONTINUOUS
10
1.12534
20
1.68203
11
1.11177
21
1.67812
0
LINE
8
BLACK
6
CONTINUOUS
10
1.11177
20
1.67812
11
1.09784
21
1.67575
0
LINE
8
BLACK
6
CONTINUOUS
10
1.09784
20
1.67575
11
1.08373
21
1.67496
0
LINE
8
BLACK
6
CONTINUOUS
10
1.08373
20
1.67496
11
1.06963
21
1.67575
0
LINE
8
BLACK
6
CONTINUOUS
10
1.06963
20
1.67575
11
1.0557
21
1.67812
0
LINE
8
BLACK
6
CONTINUOUS
10
1.0557
20
1.67812
11
1.04212
21
1.68203
0
LINE
8
BLACK
6
CONTINUOUS
10
1.04212
20
1.68203
11
1.02907
21
1.68744
0
LINE
8
BLACK
6
CONTINUOUS
10
1.02907
20
1.68744
11
1.0167
21
1.69427
0
LINE
8
BLACK
6
CONTINUOUS
10
1.0167
20
1.69427
11
1.00518
21
1.70245
0
LINE
8
BLACK
6
CONTINUOUS
10
1.00518
20
1.70245
11
0.994648
21
1.71186
0
LINE
8
BLACK
6
CONTINUOUS
10
0.994648
20
1.71186
11
0.985234
21
1.72239
0
LINE
8
BLACK
6
CONTINUOUS
10
0.985234
20
1.72239
11
0.977058
21
1.73392
0
LINE
8
BLACK
6
CONTINUOUS
10
0.977058
20
1.73392
11
0.970224
21
1.74628
0
LINE
8
BLACK
6
CONTINUOUS
10
0.970224
20
1.74628
11
0.964818
21
1.75933
0
LINE
8
BLACK
6
CONTINUOUS
10
0.964818
20
1.75933
11
0.960907
21
1.77291
0
LINE
8
BLACK
6
CONTINUOUS
10
0.960907
20
1.77291
11
0.95854
21
1.78684
0
LINE
8
BLACK
6
CONTINUOUS
10
0.95854
20
1.78684
11
0.957748
21
1.80094
0
LINE
8
BLACK
6
CONTINUOUS
10
0.957748
20
1.80094
11
0.95854
21
1.81505
0
LINE
8
BLACK
6
CONTINUOUS
10
0.95854
20
1.81505
11
0.960907
21
1.82898
0
LINE
8
BLACK
6
CONTINUOUS
10
0.960907
20
1.82898
11
0.964818
21
1.84255
0
LINE
8
BLACK
6
CONTINUOUS
10
0.964818
20
1.84255
11
0.970224
21
1.85561
0
LINE
8
BLACK
6
CONTINUOUS
10
0.970224
20
1.85561
11
0.977058
21
1.86797
0
LINE
8
BLACK
6
CONTINUOUS
10
0.977058
20
1.86797
11
0.985234
21
1.87949
0
LINE
8
BLACK
6
CONTINUOUS
10
0.985234
20
1.87949
11
0.994648
21
1.89003
0
LINE
8
BLACK
6
CONTINUOUS
10
0.994648
20
1.89003
11
1.00518
21
1.89944
0
LINE
8
BLACK
6
CONTINUOUS
10
1.00518
20
1.89944
11
1.0167
21
1.90762
0
LINE
8
BLACK
6
CONTINUOUS
10
1.0167
20
1.90762
11
1.02907
21
1.91445
0
LINE
8
BLACK
6
CONTINUOUS
10
1.02907
20
1.91445
11
1.04212
21
1.91986
0
LINE
8
BLACK
6
CONTINUOUS
10
1.04212
20
1.91986
11
1.0557
21
1.92377
0
LINE
8
BLACK
6
CONTINUOUS
10
1.0557
20
1.92377
11
1.06963
21
1.92614
0
LINE
8
BLACK
6
CONTINUOUS
10
1.06963
20
1.92614
11
1.08373
21
1.92693
0
LINE
8
BLACK
6
CONTINUOUS
10
1.08373
20
1.92693
11
1.09784
21
1.92614
0
LINE
8
BLACK
6
CONTINUOUS
10
2.29784
20
1.92614
11
2.31177
21
1.92377
0
LINE
8
BLACK
6
CONTINUOUS
10
2.31177
20
1.92377
11
2.32534
21
1.91986
0
LINE
8
BLACK
6
CONTINUOUS
10
2.32534
20
1.91986
11
2.33839
21
1.91445
0
LINE
8
BLACK
6
CONTINUOUS
10
2.33839
20
1.91445
11
2.35076
21
1.90762
0
LINE
8
BLACK
6
CONTINUOUS
10
2.35076
20
1.90762
11
2.36228
21
1.89944
0
LINE
8
BLACK
6
CONTINUOUS
10
2.36228
20
1.89944
11
2.37282
21
1.89003
0
LINE
8
BLACK
6
CONTINUOUS
10
2.37282
20
1.89003
11
2.38223
21
1.87949
0
LINE
8
BLACK
6
CONTINUOUS
10
2.38223
20
1.87949
11
2.39041
21
1.86797
0
LINE
8
BLACK
6
CONTINUOUS
10
2.39041
20
1.86797
11
2.39724
21
1.85561
0
LINE
8
BLACK
6
CONTINUOUS
10
2.39724
20
1.85561
11
2.40265
21
1.84255
0
LINE
8
BLACK
6
CONTINUOUS
10
2.40265
20
1.84255
11
2.40656
21
1.82898
0
LINE
8
BLACK
6
CONTINUOUS
10
2.40656
20
1.82898
11
2.40892
21
1.81505
0
LINE
8
BLACK
6
CONTINUOUS
10
2.40892
20
1.81505
11
2.40972
21
1.80094
0
LINE
8
BLACK
6
CONTINUOUS
10
2.40972
20
1.80094
11
2.40892
21
1.78684
0
LINE
8
BLACK
6
CONTINUOUS
10
2.40892
20
1.78684
11
2.40656
21
1.77291
0
LINE
8
BLACK
6
CONTINUOUS
10
2.40656
20
1.77291
11
2.40265
21
1.75933
0
LINE
8
BLACK
6
CONTINUOUS
10
2.40265
20
1.75933
11
2.39724
21
1.74628
0
LINE
8
BLACK
6
CONTINUOUS
10
2.39724
20
1.74628
11
2.39041
21
1.73392
0
LINE
8
BLACK
6
CONTINUOUS
10
2.39041
20
1.73392
11
2.38223
21
1.72239
0
LINE
8
BLACK
6
CONTINUOUS
10
2.38223
20
1.72239
11
2.37282
21
1.71186
0
LINE
8
BLACK
6
CONTINUOUS
10
2.37282
20
1.71186
11
2.36228
21
1.70245
0
LINE
8
BLACK
6
CONTINUOUS
10
2.36228
20
1.70245
11
2.35076
21
1.69427
0
LINE
8
BLACK
6
CONTINUOUS
10
2.35076
20
1.69427
11
2.33839
21
1.68744
0
LINE
8
BLACK
6
CONTINUOUS
10
2.33839
20
1.68744
11
2.32534
21
1.68203
0
LINE
8
BLACK
6
CONTINUOUS
10
2.32534
20
1.68203
11
2.31177
21
1.67812
0
LINE
8
BLACK
6
CONTINUOUS
10
2.31177
20
1.67812
11
2.29784
21
1.67575
0
LINE
8
BLACK
6
CONTINUOUS
10
2.29784
20
1.67575
11
2.28373
21
1.67496
0
LINE
8
BLACK
6
CONTINUOUS
10
2.28373
20
1.67496
11
2.26963
21
1.67575
0
LINE
8
BLACK
6
CONTINUOUS
10
2.26963
20
1.67575
11
2.2557
21
1.67812
0
LINE
8
BLACK
6
CONTINUOUS
10
2.2557
20
1.67812
11
2.24212
21
1.68203
0
LINE
8
BLACK
6
CONTINUOUS
10
2.24212
20
1.68203
11
2.22907
21
1.68744
0
LINE
8
BLACK
6
CONTINUOUS
10
2.22907
20
1.68744
11
2.2167
21
1.69427
0
LINE
8
BLACK
6
CONTINUOUS
10
2.2167
20
1.69427
11
2.20518
21
1.70245
0
LINE
8
BLACK
6
CONTINUOUS
10
2.20518
20
1.70245
11
2.19465
21
1.71186
0
LINE
8
BLACK
6
CONTINUOUS
10
2.19465
20
1.71186
11
2.18523
21
1.72239
0
LINE
8
BLACK
6
CONTINUOUS
10
2.18523
20
1.72239
11
2.17706
21
1.73392
0
LINE
8
BLACK
6
CONTINUOUS
10
2.17706
20
1.73392
11
2.17022
21
1.74628
0
LINE
8
BLACK
6
CONTINUOUS
10
2.17022
20
1.74628
11
2.16482
21
1.75933
0
LINE
8
BLACK
6
CONTINUOUS
10
2.16482
20
1.75933
11
2.16091
21
1.77291
0
LINE
8
BLACK
6
CONTINUOUS
10
2.16091
20
1.77291
11
2.15854
21
1.78684
0
LINE
8
BLACK
6
CONTINUOUS
10
2.15854
20
1.78684
11
2.15775
21
1.80094
0
LINE
8
BLACK
6
CONTINUOUS
10
2.15775
20
1.80094
11
2.15854
21
1.81505
0
LINE
8
BLACK
6
CONTINUOUS
10
2.15854
20
1.81505
11
2.16091
21
1.82898
0
LINE
8
BLACK
6
CONTINUOUS
10
2.16091
20
1.82898
11
2.16482
21
1.84255
0
LINE
8
BLACK
6
CONTINUOUS
10
2.16482
20
1.84255
11
2.17022
21
1.85561
0
LINE
8
BLACK
6
CONTINUOUS
10
2.17022
20
1.85561
11
2.17706
21
1.86797
0
LINE
8
BLACK
6
CONTINUOUS
10
2.17706
20
1.86797
11
2.18523
21
1.87949
0
LINE
8
BLACK
6
CONTINUOUS
10
2.18523
20
1.87949
11
2.19465
21
1.89003
0
LINE
8
BLACK
6
CONTINUOUS
10
2.19465
20
1.89003
11
2.20518
21
1.89944
0
LINE
8
BLACK
6
CONTINUOUS
10
2.20518
20
1.89944
11
2.2167
21
1.90762
0
LINE
8
BLACK
6
CONTINUOUS
10
2.2167
20
1.90762
11
2.22907
21
1.91445
0
LINE
8
BLACK
6
CONTINUOUS
10
2.22907
20
1.91445
11
2.24212
21
1.91986
0
LINE
8
BLACK
6
CONTINUOUS
10
2.24212
20
1.91986
11
2.2557
21
1.92377
0
LINE
8
BLACK
6
CONTINUOUS
10
2.2557
20
1.92377
11
2.26963
21
1.92614
0
LINE
8
BLACK
6
CONTINUOUS
10
2.26963
20
1.92614
11
2.28373
21
1.92693
0
LINE
8
BLACK
6
CONTINUOUS
10
2.28373
20
1.92693
11
2.29784
21
1.92614
0
LINE
8
BLACK
6
CONTINUOUS
10
1.48901
20
1.75727
11
1.49157
21
1.75557
0
LINE
8
BLACK
6
CONTINUOUS
10
1.49157
20
1.75557
11
1.49327
21
1.75301
0
LINE
8
BLACK
6
CONTINUOUS
10
1.49327
20
1.75301
11
1.49387
21
1.75
0
LINE
8
BLACK
6
CONTINUOUS
10
1.49387
20
1.75
11
1.49387
21
1.69
0
LINE
8
BLACK
6
CONTINUOUS
10
1.49387
20
1.69
11
1.49327
21
1.68699
0
LINE
8
BLACK
6
CONTINUOUS
10
1.49327
20
1.68699
11
1.49157
21
1.68443
0
LINE
8
BLACK
6
CONTINUOUS
10
1.49157
20
1.68443
11
1.48901
21
1.68273
0
LINE
8
BLACK
6
CONTINUOUS
10
1.48901
20
1.68273
11
1.486
21
1.68213
0
LINE
8
BLACK
6
CONTINUOUS
10
1.486
20
1.68213
11
1.426
21
1.68213
0
LINE
8
BLACK
6
CONTINUOUS
10
1.426
20
1.68213
11
1.42299
21
1.68273
0
LINE
8
BLACK
6
CONTINUOUS
10
1.42299
20
1.68273
11
1.42043
21
1.68443
0
LINE
8
BLACK
6
CONTINUOUS
10
1.42043
20
1.68443
11
1.41873
21
1.68699
0
LINE
8
BLACK
6
CONTINUOUS
10
1.41873
20
1.68699
11
1.41813
21
1.69
0
LINE
8
BLACK
6
CONTINUOUS
10
1.41813
20
1.69
11
1.41813
21
1.75
0
LINE
8
BLACK
6
CONTINUOUS
10
1.41813
20
1.75
11
1.41873
21
1.75301
0
LINE
8
BLACK
6
CONTINUOUS
10
1.41873
20
1.75301
11
1.42043
21
1.75557
0
LINE
8
BLACK
6
CONTINUOUS
10
1.42043
20
1.75557
11
1.42299
21
1.75727
0
LINE
8
BLACK
6
CONTINUOUS
10
1.42299
20
1.75727
11
1.426
21
1.75787
0
LINE
8
BLACK
6
CONTINUOUS
10
1.426
20
1.75787
11
1.486
21
1.75787
0
LINE
8
BLACK
6
CONTINUOUS
10
1.486
20
1.75787
11
1.48901
21
1.75727
0
LINE
8
BLACK
6
CONTINUOUS
10
1.58901
20
1.75727
11
1.59157
21
1.75557
0
LINE
8
BLACK
6
CONTINUOUS
10
1.59157
20
1.75557
11
1.59327
21
1.75301
0
LINE
8
BLACK
6
CONTINUOUS
10
1.59327
20
1.75301
11
1.59387
21
1.75
0
LINE
8
BLACK
6
CONTINUOUS
10
1.59387
20
1.75
11
1.59387
21
1.69
0
LINE
8
BLACK
6
CONTINUOUS
10
1.59387
20
1.69
11
1.59327
21
1.68699
0
LINE
8
BLACK
6
CONTINUOUS
10
1.59327
20
1.68699
11
1.59157
21
1.68443
0
LINE
8
BLACK
6
CONTINUOUS
10
1.59157
20
1.68443
11
1.58901
21
1.68273
0
LINE
8
BLACK
6
CONTINUOUS
10
1.58901
20
1.68273
11
1.586
21
1.68213
0
LINE
8
BLACK
6
CONTINUOUS
10
1.586
20
1.68213
11
1.526
21
1.68213
0
LINE
8
BLACK
6
CONTINUOUS
10
1.526
20
1.68213
11
1.52299
21
1.68273
0
LINE
8
BLACK
6
CONTINUOUS
10
1.52299
20
1.68273
11
1.52043
21
1.68443
0
LINE
8
BLACK
6
CONTINUOUS
10
1.52043
20
1.68443
11
1.51873
21
1.68699
0
LINE
8
BLACK
6
CONTINUOUS
10
1.51873
20
1.68699
11
1.51813
21
1.69
0
LINE
8
BLACK
6
CONTINUOUS
10
1.51813
20
1.69
11
1.51813
21
1.75
0
LINE
8
BLACK
6
CONTINUOUS
10
1.51813
20
1.75
11
1.51873
21
1.75301
0
LINE
8
BLACK
6
CONTINUOUS
10
1.51873
20
1.75301
11
1.52043
21
1.75557
0
LINE
8
BLACK
6
CONTINUOUS
10
1.52043
20
1.75557
11
1.52299
21
1.75727
0
LINE
8
BLACK
6
CONTINUOUS
10
1.52299
20
1.75727
11
1.526
21
1.75787
0
LINE
8
BLACK
6
CONTINUOUS
10
1.526
20
1.75787
11
1.586
21
1.75787
0
LINE
8
BLACK
6
CONTINUOUS
10
1.586
20
1.75787
11
1.58901
21
1.75727
0
LINE
8
BLACK
6
CONTINUOUS
10
1.68901
20
1.75727
11
1.69157
21
1.75557
0
LINE
8
BLACK
6
CONTINUOUS
10
1.69157
20
1.75557
11
1.69327
21
1.75301
0
LINE
8
BLACK
6
CONTINUOUS
10
1.69327
20
1.75301
11
1.69387
21
1.75
0
LINE
8
BLACK
6
CONTINUOUS
10
1.69387
20
1.75
11
1.69387
21
1.69
0
LINE
8
BLACK
6
CONTINUOUS
10
1.69387
20
1.69
11
1.69327
21
1.68699
0
LINE
8
BLACK
6
CONTINUOUS
10
1.69327
20
1.68699
11
1.69157
21
1.68443
0
LINE
8
BLACK
6
CONTINUOUS
10
1.69157
20
1.68443
11
1.68901
21
1.68273
0
LINE
8
BLACK
6
CONTINUOUS
10
1.68901
20
1.68273
11
1.686
21
1.68213
0
LINE
8
BLACK
6
CONTINUOUS
10
1.686
20
1.68213
11
1.626
21
1.68213
0
LINE
8
BLACK
6
CONTINUOUS
10
1.626
20
1.68213
11
1.62299
21
1.68273
0
LINE
8
BLACK
6
CONTINUOUS
10
1.62299
20
1.68273
11
1.62043
21
1.68443
0
LINE
8
BLACK
6
CONTINUOUS
10
1.62043
20
1.68443
11
1.61873
21
1.68699
0
LINE
8
BLACK
6
CONTINUOUS
10
1.61873
20
1.68699
11
1.61813
21
1.69
0
LINE
8
BLACK
6
CONTINUOUS
10
1.61813
20
1.69
11
1.61813
21
1.75
0
LINE
8
BLACK
6
CONTINUOUS
10
1.61813
20
1.75
11
1.61873
21
1.75301
0
LINE
8
BLACK
6
CONTINUOUS
10
1.61873
20
1.75301
11
1.62043
21
1.75557
0
LINE
8
BLACK
6
CONTINUOUS
10
1.62043
20
1.75557
11
1.62299
21
1.75727
0
LINE
8
BLACK
6
CONTINUOUS
10
1.62299
20
1.75727
11
1.626
21
1.75787
0
LINE
8
BLACK
6
CONTINUOUS
10
1.626
20
1.75787
11
1.686
21
1.75787
0
LINE
8
BLACK
6
CONTINUOUS
10
1.686
20
1.75787
11
1.68901
21
1.75727
0
LINE
8
BLACK
6
CONTINUOUS
10
1.78901
20
1.75727
11
1.79157
21
1.75557
0
LINE
8
BLACK
6
CONTINUOUS
10
1.79157
20
1.75557
11
1.79327
21
1.75301
0
LINE
8
BLACK
6
CONTINUOUS
10
1.79327
20
1.75301
11
1.79387
21
1.75
0
LINE
8
BLACK
6
CONTINUOUS
10
1.79387
20
1.75
11
1.79387
21
1.69
0
LINE
8
BLACK
6
CONTINUOUS
10
1.79387
20
1.69
11
1.79327
21
1.68699
0
LINE
8
BLACK
6
CONTINUOUS
10
1.79327
20
1.68699
11
1.79157
21
1.68443
0
LINE
8
BLACK
6
CONTINUOUS
10
1.79157
20
1.68443
11
1.78901
21
1.68273
0
LINE
8
BLACK
6
CONTINUOUS
10
1.78901
20
1.68273
11
1.786
21
1.68213
0
LINE
8
BLACK
6
CONTINUOUS
10
1.786
20
1.68213
11
1.726
21
1.68213
0
LINE
8
BLACK
6
CONTINUOUS
10
1.726
20
1.68213
11
1.72299
21
1.68273
0
LINE
8
BLACK
6
CONTINUOUS
10
1.72299
20
1.68273
11
1.72043
21
1.68443
0
LINE
8
BLACK
6
CONTINUOUS
10
1.72043
20
1.68443
11
1.71873
21
1.68699
0
LINE
8
BLACK
6
CONTINUOUS
10
1.71873
20
1.68699
11
1.71813
21
1.69
0
LINE
8
BLACK
6
CONTINUOUS
10
1.71813
20
1.69
11
1.71813
21
1.75
0
LINE
8
BLACK
6
CONTINUOUS
10
1.71813
20
1.75
11
1.71873
21
1.75301
0
LINE
8
BLACK
6
CONTINUOUS
10
1.71873
20
1.75301
11
1.72043
21
1.75557
0
LINE
8
BLACK
6
CONTINUOUS
10
1.72043
20
1.75557
11
1.72299
21
1.75727
0
LINE
8
BLACK
6
CONTINUOUS
10
1.72299
20
1.75727
11
1.726
21
1.75787
0
LINE
8
BLACK
6
CONTINUOUS
10
1.726
20
1.75787
11
1.786
21
1.75787
0
LINE
8
BLACK
6
CONTINUOUS
10
1.786
20
1.75787
11
1.78901
21
1.75727
0
LINE
8
BLACK
6
CONTINUOUS
10
1.94901
20
1.75727
11
1.95157
21
1.75557
0
LINE
8
BLACK
6
CONTINUOUS
10
1.95157
20
1.75557
11
1.95327
21
1.75301
0
LINE
8
BLACK
6
CONTINUOUS
10
1.95327
20
1.75301
11
1.95387
21
1.75
0
LINE
8
BLACK
6
CONTINUOUS
10
1.95387
20
1.75
11
1.95387
21
1.69
0
LINE
8
BLACK
6
CONTINUOUS
10
1.95387
20
1.69
11
1.95327
21
1.68699
0
LINE
8
BLACK
6
CONTINUOUS
10
1.95327
20
1.68699
11
1.95157
21
1.68443
0
LINE
8
BLACK
6
CONTINUOUS
10
1.95157
20
1.68443
11
1.94901
21
1.68273
0
LINE
8
BLACK
6
CONTINUOUS
10
1.94901
20
1.68273
11
1.946
21
1.68213
0
LINE
8
BLACK
6
CONTINUOUS
10
1.946
20
1.68213
11
1.886
21
1.68213
0
LINE
8
BLACK
6
CONTINUOUS
10
1.886
20
1.68213
11
1.88299
21
1.68273
0
LINE
8
BLACK
6
CONTINUOUS
10
1.88299
20
1.68273
11
1.88043
21
1.68443
0
LINE
8
BLACK
6
CONTINUOUS
10
1.88043
20
1.68443
11
1.87873
21
1.68699
0
LINE
8
BLACK
6
CONTINUOUS
10
1.87873
20
1.68699
11
1.87813
21
1.69
0
LINE
8
BLACK
6
CONTINUOUS
10
1.87813
20
1.69
11
1.87813
21
1.75
0
LINE
8
BLACK
6
CONTINUOUS
10
1.87813
20
1.75
11
1.87873
21
1.75301
0
LINE
8
BLACK
6
CONTINUOUS
10
1.87873
20
1.75301
11
1.88043
21
1.75557
0
LINE
8
BLACK
6
CONTINUOUS
10
1.88043
20
1.75557
11
1.88299
21
1.75727
0
LINE
8
BLACK
6
CONTINUOUS
10
1.88299
20
1.75727
11
1.886
21
1.75787
0
LINE
8
BLACK
6
CONTINUOUS
10
1.886
20
1.75787
11
1.946
21
1.75787
0
LINE
8
BLACK
6
CONTINUOUS
10
1.946
20
1.75787
11
1.94901
21
1.75727
0
LINE
8
BLACK
6
CONTINUOUS
10
1.48901
20
1.85727
11
1.49157
21
1.85557
0
LINE
8
BLACK
6
CONTINUOUS
10
1.49157
20
1.85557
11
1.49327
21
1.85301
0
LINE
8
BLACK
6
CONTINUOUS
10
1.49327
20
1.85301
11
1.49387
21
1.85
0
LINE
8
BLACK
6
CONTINUOUS
10
1.49387
20
1.85
11
1.49387
21
1.79
0
LINE
8
BLACK
6
CONTINUOUS
10
1.49387
20
1.79
11
1.49327
21
1.78699
0
LINE
8
BLACK
6
CONTINUOUS
10
1.49327
20
1.78699
11
1.49157
21
1.78443
0
LINE
8
BLACK
6
CONTINUOUS
10
1.49157
20
1.78443
11
1.48901
21
1.78273
0
LINE
8
BLACK
6
CONTINUOUS
10
1.48901
20
1.78273
11
1.486
21
1.78213
0
LINE
8
BLACK
6
CONTINUOUS
10
1.486
20
1.78213
11
1.426
21
1.78213
0
LINE
8
BLACK
6
CONTINUOUS
10
1.426
20
1.78213
11
1.42299
21
1.78273
0
LINE
8
BLACK
6
CONTINUOUS
10
1.42299
20
1.78273
11
1.42043
21
1.78443
0
LINE
8
BLACK
6
CONTINUOUS
10
1.42043
20
1.78443
11
1.41873
21
1.78699
0
LINE
8
BLACK
6
CONTINUOUS
10
1.41873
20
1.78699
11
1.41813
21
1.79
0
LINE
8
BLACK
6
CONTINUOUS
10
1.41813
20
1.79
11
1.41813
21
1.85
0
LINE
8
BLACK
6
CONTINUOUS
10
1.41813
20
1.85
11
1.41873
21
1.85301
0
LINE
8
BLACK
6
CONTINUOUS
10
1.41873
20
1.85301
11
1.42043
21
1.85557
0
LINE
8
BLACK
6
CONTINUOUS
10
1.42043
20
1.85557
11
1.42299
21
1.85727
0
LINE
8
BLACK
6
CONTINUOUS
10
1.42299
20
1.85727
11
1.426
21
1.85787
0
LINE
8
BLACK
6
CONTINUOUS
10
1.426
20
1.85787
11
1.486
21
1.85787
0
LINE
8
BLACK
6
CONTINUOUS
10
1.486
20
1.85787
11
1.48901
21
1.85727
0
LINE
8
BLACK
6
CONTINUOUS
10
1.58901
20
1.85727
11
1.59157
21
1.85557
0
LINE
8
BLACK
6
CONTINUOUS
10
1.59157
20
1.85557
11
1.59327
21
1.85301
0
LINE
8
BLACK
6
CONTINUOUS
10
1.59327
20
1.85301
11
1.59387
21
1.85
0
LINE
8
BLACK
6
CONTINUOUS
10
1.59387
20
1.85
11
1.59387
21
1.79
0
LINE
8
BLACK
6
CONTINUOUS
10
1.59387
20
1.79
11
1.59327
21
1.78699
0
LINE
8
BLACK
6
CONTINUOUS
10
1.59327
20
1.78699
11
1.59157
21
1.78443
0
LINE
8
BLACK
6
CONTINUOUS
10
1.59157
20
1.78443
11
1.58901
21
1.78273
0
LINE
8
BLACK
6
CONTINUOUS
10
1.58901
20
1.78273
11
1.586
21
1.78213
0
LINE
8
BLACK
6
CONTINUOUS
10
1.586
20
1.78213
11
1.526
21
1.78213
0
LINE
8
BLACK
6
CONTINUOUS
10
1.526
20
1.78213
11
1.52299
21
1.78273
0
LINE
8
BLACK
6
CONTINUOUS
10
1.52299
20
1.78273
11
1.52043
21
1.78443
0
LINE
8
BLACK
6
CONTINUOUS
10
1.52043
20
1.78443
11
1.51873
21
1.78699
0
LINE
8
BLACK
6
CONTINUOUS
10
1.51873
20
1.78699
11
1.51813
21
1.79
0
LINE
8
BLACK
6
CONTINUOUS
10
1.51813
20
1.79
11
1.51813
21
1.85
0
LINE
8
BLACK
6
CONTINUOUS
10
1.51813
20
1.85
11
1.51873
21
1.85301
0
LINE
8
BLACK
6
CONTINUOUS
10
1.51873
20
1.85301
11
1.52043
21
1.85557
0
LINE
8
BLACK
6
CONTINUOUS
10
1.52043
20
1.85557
11
1.52299
21
1.85727
0
LINE
8
BLACK
6
CONTINUOUS
10
1.52299
20
1.85727
11
1.526
21
1.85787
0
LINE
8
BLACK
6
CONTINUOUS
10
1.526
20
1.85787
11
1.586
21
1.85787
0
LINE
8
BLACK
6
CONTINUOUS
10
1.586
20
1.85787
11
1.58901
21
1.85727
0
LINE
8
BLACK
6
CONTINUOUS
10
1.68901
20
1.85727
11
1.69157
21
1.85557
0
LINE
8
BLACK
6
CONTINUOUS
10
1.69157
20
1.85557
11
1.69327
21
1.85301
0
LINE
8
BLACK
6
CONTINUOUS
10
1.69327
20
1.85301
11
1.69387
21
1.85
0
LINE
8
BLACK
6
CONTINUOUS
10
1.69387
20
1.85
11
1.69387
21
1.79
0
LINE
8
BLACK
6
CONTINUOUS
10
1.69387
20
1.79
11
1.69327
21
1.78699
0
LINE
8
BLACK
6
CONTINUOUS
10
1.69327
20
1.78699
11
1.69157
21
1.78443
0
LINE
8
BLACK
6
CONTINUOUS
10
1.69157
20
1.78443
11
1.68901
21
1.78273
0
LINE
8
BLACK
6
CONTINUOUS
10
1.68901
20
1.78273
11
1.686
21
1.78213
0
LINE
8
BLACK
6
CONTINUOUS
10
1.686
20
1.78213
11
1.626
21
1.78213
0
LINE
8
BLACK
6
CONTINUOUS
10
1.626
20
1.78213
11
1.62299
21
1.78273
0
LINE
8
BLACK
6
CONTINUOUS
10
1.62299
20
1.78273
11
1.62043
21
1.78443
0
LINE
8
BLACK
6
CONTINUOUS
10
1.62043
20
1.78443
11
1.61873
21
1.78699
0
LINE
8
BLACK
6
CONTINUOUS
10
1.61873
20
1.78699
11
1.61813
21
1.79
0
LINE
8
BLACK
6
CONTINUOUS
10
1.61813
20
1.79
11
1.61813
21
1.85
0
LINE
8
BLACK
6
CONTINUOUS
10
1.61813
20
1.85
11
1.61873
21
1.85301
0
LINE
8
BLACK
6
CONTINUOUS
10
1.61873
20
1.85301
11
1.62043
21
1.85557
0
LINE
8
BLACK
6
CONTINUOUS
10
1.62043
20
1.85557
11
1.62299
21
1.85727
0
LINE
8
BLACK
6
CONTINUOUS
10
1.62299
20
1.85727
11
1.626
21
1.85787
0
LINE
8
BLACK
6
CONTINUOUS
10
1.626
20
1.85787
11
1.686
21
1.85787
0
LINE
8
BLACK
6
CONTINUOUS
10
1.686
20
1.85787
11
1.68901
21
1.85727
0
LINE
8
BLACK
6
CONTINUOUS
10
1.78901
20
1.85727
11
1.79157
21
1.85557
0
LINE
8
BLACK
6
CONTINUOUS
10
1.79157
20
1.85557
11
1.79327
21
1.85301
0
LINE
8
BLACK
6
CONTINUOUS
10
1.79327
20
1.85301
11
1.79387
21
1.85
0
LINE
8
BLACK
6
CONTINUOUS
10
1.79387
20
1.85
11
1.79387
21
1.79
0
LINE
8
BLACK
6
CONTINUOUS
10
1.79387
20
1.79
11
1.79327
21
1.78699
0
LINE
8
BLACK
6
CONTINUOUS
10
1.79327
20
1.78699
11
1.79157
21
1.78443
0
LINE
8
BLACK
6
CONTINUOUS
10
1.79157
20
1.78443
11
1.78901
21
1.78273
0
LINE
8
BLACK
6
CONTINUOUS
10
1.78901
20
1.78273
11
1.786
21
1.78213
0
LINE
8
BLACK
6
CONTINUOUS
10
1.786
20
1.78213
11
1.726
21
1.78213
0
LINE
8
BLACK
6
CONTINUOUS
10
1.726
20
1.78213
11
1.72299
21
1.78273
0
LINE
8
BLACK
6
CONTINUOUS
10
1.72299
20
1.78273
11
1.72043
21
1.78443
0
LINE
8
BLACK
6
CONTINUOUS
10
1.72043
20
1.78443
11
1.71873
21
1.78699
0
LINE
8
BLACK
6
CONTINUOUS
10
1.71873
20
1.78699
11
1.71813
21
1.79
0
LINE
8
BLACK
6
CONTINUOUS
10
1.71813
20
1.79
11
1.71813
21
1.85
0
LINE
8
BLACK
6
CONTINUOUS
10
1.71813
20
1.85
11
1.71873
21
1.85301
0
LINE
8
BLACK
6
CONTINUOUS
10
1.71873
20
1.85301
11
1.72043
21
1.85557
0
LINE
8
BLACK
6
CONTINUOUS
10
1.72043
20
1.85557
11
1.72299
21
1.85727
0
LINE
8
BLACK
6
CONTINUOUS
10
1.72299
20
1.85727
11
1.726
21
1.85787
0
LINE
8
BLACK
6
CONTINUOUS
10
1.726
20
1.85787
11
1.786
21
1.85787
0
LINE
8
BLACK
6
CONTINUOUS
10
1.786
20
1.85787
11
1.78901
21
1.85727
0
LINE
8
BLACK
6
CONTINUOUS
10
1.94901
20
1.85727
11
1.95157
21
1.85557
0
LINE
8
BLACK
6
CONTINUOUS
10
1.95157
20
1.85557
11
1.95327
21
1.85301
0
LINE
8
BLACK
6
CONTINUOUS
10
1.95327
20
1.85301
11
1.95387
21
1.85
0
LINE
8
BLACK
6
CONTINUOUS
10
1.95387
20
1.85
11
1.95387
21
1.79
0
LINE
8
BLACK
6
CONTINUOUS
10
1.95387
20
1.79
11
1.95327
21
1.78699
0
LINE
8
BLACK
6
CONTINUOUS
10
1.95327
20
1.78699
11
1.95157
21
1.78443
0
LINE
8
BLACK
6
CONTINUOUS
10
1.95157
20
1.78443
11
1.94901
21
1.78273
0
LINE
8
BLACK
6
CONTINUOUS
10
1.94901
20
1.78273
11
1.946
21
1.78213
0
LINE
8
BLACK
6
CONTINUOUS
10
1.946
20
1.78213
11
1.886
21
1.78213
0
LINE
8
BLACK
6
CONTINUOUS
10
1.886
20
1.78213
11
1.88299
21
1.78273
0
LINE
8
BLACK
6
CONTINUOUS
10
1.88299
20
1.78273
11
1.88043
21
1.78443
0
LINE
8
BLACK
6
CONTINUOUS
10
1.88043
20
1.78443
11
1.87873
21
1.78699
0
LINE
8
BLACK
6
CONTINUOUS
10
1.87873
20
1.78699
11
1.87813
21
1.79
0
LINE
8
BLACK
6
CONTINUOUS
10
1.87813
20
1.79
11
1.87813
21
1.85
0
LINE
8
BLACK
6
CONTINUOUS
10
1.87813
20
1.85
11
1.87873
21
1.85301
0
LINE
8
BLACK
6
CONTINUOUS
10
1.87873
20
1.85301
11
1.88043
21
1.85557
0
LINE
8
BLACK
6
CONTINUOUS
10
1.88043
20
1.85557
11
1.88299
21
1.85727
0
LINE
8
BLACK
6
CONTINUOUS
10
1.88299
20
1.85727
11
1.886
21
1.85787
0
LINE
8
BLACK
6
CONTINUOUS
10
1.886
20
1.85787
11
1.946
21
1.85787
0
LINE
8
BLACK
6
CONTINUOUS
10
1.946
20
1.85787
11
1.94901
21
1.85727
0
LINE
8
BLACK
6
CONTINUOUS
10
0.977389
20
2.20715
11
0.984494
21
2.20499
0
LINE
8
BLACK
6
CONTINUOUS
10
0.984494
20
2.20499
11
0.991042
21
2.20149
0
LINE
8
BLACK
6
CONTINUOUS
10
0.991042
20
2.20149
11
0.996781
21
2.19678
0
LINE
8
BLACK
6
CONTINUOUS
10
0.996781
20
2.19678
11
1.00149
21
2.19104
0
LINE
8
BLACK
6
CONTINUOUS
10
1.00149
20
2.19104
11
1.00499
21
2.18449
0
LINE
8
BLACK
6
CONTINUOUS
10
1.00499
20
2.18449
11
1.00715
21
2.17739
0
LINE
8
BLACK
6
CONTINUOUS
10
1.00715
20
2.17739
11
1.00787
21
2.17
0
LINE
8
BLACK
6
CONTINUOUS
10
1.00787
20
2.17
11
1.00715
21
2.16261
0
LINE
8
BLACK
6
CONTINUOUS
10
1.00715
20
2.16261
11
1.00499
21
2.15551
0
LINE
8
BLACK
6
CONTINUOUS
10
1.00499
20
2.15551
11
1.00149
21
2.14896
0
LINE
8
BLACK
6
CONTINUOUS
10
1.00149
20
2.14896
11
0.996781
21
2.14322
0
LINE
8
BLACK
6
CONTINUOUS
10
0.996781
20
2.14322
11
0.991042
21
2.13851
0
LINE
8
BLACK
6
CONTINUOUS
10
0.991042
20
2.13851
11
0.984494
21
2.13501
0
LINE
8
BLACK
6
CONTINUOUS
10
0.984494
20
2.13501
11
0.977389
21
2.13285
0
LINE
8
BLACK
6
CONTINUOUS
10
0.977389
20
2.13285
11
0.97
21
2.13213
0
LINE
8
BLACK
6
CONTINUOUS
10
0.97
20
2.13213
11
0.962611
21
2.13285
0
LINE
8
BLACK
6
CONTINUOUS
10
0.962611
20
2.13285
11
0.955506
21
2.13501
0
LINE
8
BLACK
6
CONTINUOUS
10
0.955506
20
2.13501
11
0.948958
21
2.13851
0
LINE
8
BLACK
6
CONTINUOUS
10
0.948958
20
2.13851
11
0.943219
21
2.14322
0
LINE
8
BLACK
6
CONTINUOUS
10
0.943219
20
2.14322
11
0.938509
21
2.14896
0
LINE
8
BLACK
6
CONTINUOUS
10
0.938509
20
2.14896
11
0.935009
21
2.15551
0
LINE
8
BLACK
6
CONTINUOUS
10
0.935009
20
2.15551
11
0.932854
21
2.16261
0
LINE
8
BLACK
6
CONTINUOUS
10
0.932854
20
2.16261
11
0.932126
21
2.17
0
LINE
8
BLACK
6
CONTINUOUS
10
0.932126
20
2.17
11
0.932854
21
2.17739
0
LINE
8
BLACK
6
CONTINUOUS
10
0.932854
20
2.17739
11
0.935009
21
2.18449
0
LINE
8
BLACK
6
CONTINUOUS
10
0.935009
20
2.18449
11
0.938509
21
2.19104
0
LINE
8
BLACK
6
CONTINUOUS
10
0.938509
20
2.19104
11
0.943219
21
2.19678
0
LINE
8
BLACK
6
CONTINUOUS
10
0.943219
20
2.19678
11
0.948958
21
2.20149
0
LINE
8
BLACK
6
CONTINUOUS
10
0.948958
20
2.20149
11
0.955506
21
2.20499
0
LINE
8
BLACK
6
CONTINUOUS
10
0.955506
20
2.20499
11
0.962611
21
2.20715
0
LINE
8
BLACK
6
CONTINUOUS
10
0.962611
20
2.20715
11
0.97
21
2.20787
0
LINE
8
BLACK
6
CONTINUOUS
10
0.97
20
2.20787
11
0.977389
21
2.20715
0
LINE
8
BLACK
6
CONTINUOUS
10
1.36139
20
2.36515
11
1.36849
21
2.36299
0
LINE
8
BLACK
6
CONTINUOUS
10
1.36849
20
2.36299
11
1.37504
21
2.35949
0
LINE
8
BLACK
6
CONTINUOUS
10
1.37504
20
2.35949
11
1.38078
21
2.35478
0
LINE
8
BLACK
6
CONTINUOUS
10
1.38078
20
2.35478
11
1.38549
21
2.34904
0
LINE
8
BLACK
6
CONTINUOUS
10
1.38549
20
2.34904
11
1.38899
21
2.34249
0
LINE
8
BLACK
6
CONTINUOUS
10
1.38899
20
2.34249
11
1.39115
21
2.33539
0
LINE
8
BLACK
6
CONTINUOUS
10
1.39115
20
2.33539
11
1.39187
21
2.328
0
LINE
8
BLACK
6
CONTINUOUS
10
1.39187
20
2.328
11
1.39115
21
2.32061
0
LINE
8
BLACK
6
CONTINUOUS
10
1.39115
20
2.32061
11
1.38899
21
2.31351
0
LINE
8
BLACK
6
CONTINUOUS
10
1.38899
20
2.31351
11
1.38549
21
2.30696
0
LINE
8
BLACK
6
CONTINUOUS
10
1.38549
20
2.30696
11
1.38078
21
2.30122
0
LINE
8
BLACK
6
CONTINUOUS
10
1.38078
20
2.30122
11
1.37504
21
2.29651
0
LINE
8
BLACK
6
CONTINUOUS
10
1.37504
20
2.29651
11
1.36849
21
2.29301
0
LINE
8
BLACK
6
CONTINUOUS
10
1.36849
20
2.29301
11
1.36139
21
2.29085
0
LINE
8
BLACK
6
CONTINUOUS
10
1.36139
20
2.29085
11
1.354
21
2.29013
0
LINE
8
BLACK
6
CONTINUOUS
10
1.354
20
2.29013
11
1.34661
21
2.29085
0
LINE
8
BLACK
6
CONTINUOUS
10
1.34661
20
2.29085
11
1.33951
21
2.29301
0
LINE
8
BLACK
6
CONTINUOUS
10
1.33951
20
2.29301
11
1.33296
21
2.29651
0
LINE
8
BLACK
6
CONTINUOUS
10
1.33296
20
2.29651
11
1.32722
21
2.30122
0
LINE
8
BLACK
6
CONTINUOUS
10
1.32722
20
2.30122
11
1.32251
21
2.30696
0
LINE
8
BLACK
6
CONTINUOUS
10
1.32251
20
2.30696
11
1.31901
21
2.31351
0
LINE
8
BLACK
6
CONTINUOUS
10
1.31901
20
2.31351
11
1.31685
21
2.32061
0
LINE
8
BLACK
6
CONTINUOUS
10
1.31685
20
2.32061
11
1.31613
21
2.328
0
LINE
8
BLACK
6
CONTINUOUS
10
1.31613
20
2.328
11
1.31685
21
2.33539
0
LINE
8
BLACK
6
CONTINUOUS
10
1.31685
20
2.33539
11
1.31901
21
2.34249
0
LINE
8
BLACK
6
CONTINUOUS
10
1.31901
20
2.34249
11
1.32251
21
2.34904
0
LINE
8
BLACK
6
CONTINUOUS
10
1.32251
20
2.34904
11
1.32722
21
2.35478
0
LINE
8
BLACK
6
CONTINUOUS
10
1.32722
20
2.35478
11
1.33296
21
2.35949
0
LINE
8
BLACK
6
CONTINUOUS
10
1.33296
20
2.35949
11
1.33951
21
2.36299
0
LINE
8
BLACK
6
CONTINUOUS
10
1.33951
20
2.36299
11
1.34661
21
2.36515
0
LINE
8
BLACK
6
CONTINUOUS
10
1.34661
20
2.36515
11
1.354
21
2.36587
0
LINE
8
BLACK
6
CONTINUOUS
10
1.354
20
2.36587
11
1.36139
21
2.36515
0
LINE
8
BLACK
6
CONTINUOUS
10
1.02901
20
2.77527
11
1.03157
21
2.77357
0
LINE
8
BLACK
6
CONTINUOUS
10
1.03157
20
2.77357
11
1.03327
21
2.77101
0
LINE
8
BLACK
6
CONTINUOUS
10
1.03327
20
2.77101
11
1.03387
21
2.768
0
LINE
8
BLACK
6
CONTINUOUS
10
1.03387
20
2.768
11
1.03387
21
2.708
0
LINE
8
BLACK
6
CONTINUOUS
10
1.03387
20
2.708
11
1.03327
21
2.70499
0
LINE
8
BLACK
6
CONTINUOUS
10
1.03327
20
2.70499
11
1.03157
21
2.70243
0
LINE
8
BLACK
6
CONTINUOUS
10
1.03157
20
2.70243
11
1.02901
21
2.70073
0
LINE
8
BLACK
6
CONTINUOUS
10
1.02901
20
2.70073
11
1.026
21
2.70013
0
LINE
8
BLACK
6
CONTINUOUS
10
1.026
20
2.70013
11
0.966
21
2.70013
0
LINE
8
BLACK
6
CONTINUOUS
10
0.966
20
2.70013
11
0.962987
21
2.70073
0
LINE
8
BLACK
6
CONTINUOUS
10
0.962987
20
2.70073
11
0.960432
21
2.70243
0
LINE
8
BLACK
6
CONTINUOUS
10
0.960432
20
2.70243
11
0.958725
21
2.70499
0
LINE
8
BLACK
6
CONTINUOUS
10
0.958725
20
2.70499
11
0.958126
21
2.708
0
LINE
8
BLACK
6
CONTINUOUS
10
0.958126
20
2.708
11
0.958126
21
2.768
0
LINE
8
BLACK
6
CONTINUOUS
10
0.958126
20
2.768
11
0.958725
21
2.77101
0
LINE
8
BLACK
6
CONTINUOUS
10
0.958725
20
2.77101
11
0.960432
21
2.77357
0
LINE
8
BLACK
6
CONTINUOUS
10
0.960432
20
2.77357
11
0.962987
21
2.77527
0
LINE
8
BLACK
6
CONTINUOUS
10
0.962987
20
2.77527
11
0.966
21
2.77587
0
LINE
8
BLACK
6
CONTINUOUS
10
0.966
20
2.77587
11
1.026
21
2.77587
0
LINE
8
BLACK
6
CONTINUOUS
10
1.026
20
2.77587
11
1.02901
21
2.77527
0
LINE
8
BLACK
6
CONTINUOUS
10
1.45501
20
2.78127
11
1.45757
21
2.77957
0
LINE
8
BLACK
6
CONTINUOUS
10
1.45757
20
2.77957
11
1.45927
21
2.77701
0
LINE
8
BLACK
6
CONTINUOUS
10
1.45927
20
2.77701
11
1.45987
21
2.774
0
LINE
8
BLACK
6
CONTINUOUS
10
1.45987
20
2.774
11
1.45987
21
2.714
0
LINE
8
BLACK
6
CONTINUOUS
10
1.45987
20
2.714
11
1.45927
21
2.71099
0
LINE
8
BLACK
6
CONTINUOUS
10
1.45927
20
2.71099
11
1.45757
21
2.70843
0
LINE
8
BLACK
6
CONTINUOUS
10
1.45757
20
2.70843
11
1.45501
21
2.70673
0
LINE
8
BLACK
6
CONTINUOUS
10
1.45501
20
2.70673
11
1.452
21
2.70613
0
LINE
8
BLACK
6
CONTINUOUS
10
1.452
20
2.70613
11
1.392
21
2.70613
0
LINE
8
BLACK
6
CONTINUOUS
10
1.392
20
2.70613
11
1.38899
21
2.70673
0
LINE
8
BLACK
6
CONTINUOUS
10
1.38899
20
2.70673
11
1.38643
21
2.70843
0
LINE
8
BLACK
6
CONTINUOUS
10
1.38643
20
2.70843
11
1.38473
21
2.71099
0
LINE
8
BLACK
6
CONTINUOUS
10
1.38473
20
2.71099
11
1.38413
21
2.714
0
LINE
8
BLACK
6
CONTINUOUS
10
1.38413
20
2.714
11
1.38413
21
2.774
0
LINE
8
BLACK
6
CONTINUOUS
10
1.38413
20
2.774
11
1.38473
21
2.77701
0
LINE
8
BLACK
6
CONTINUOUS
10
1.38473
20
2.77701
11
1.38643
21
2.77957
0
LINE
8
BLACK
6
CONTINUOUS
10
1.38643
20
2.77957
11
1.38899
21
2.78127
0
LINE
8
BLACK
6
CONTINUOUS
10
1.38899
20
2.78127
11
1.392
21
2.78187
0
LINE
8
BLACK
6
CONTINUOUS
10
1.392
20
2.78187
11
1.452
21
2.78187
0
LINE
8
BLACK
6
CONTINUOUS
10
1.452
20
2.78187
11
1.45501
21
2.78127
0
LINE
8
BLACK
6
CONTINUOUS
10
1.55501
20
2.78127
11
1.55757
21
2.77957
0
LINE
8
BLACK
6
CONTINUOUS
10
1.55757
20
2.77957
11
1.55927
21
2.77701
0
LINE
8
BLACK
6
CONTINUOUS
10
1.55927
20
2.77701
11
1.55987
21
2.774
0
LINE
8
BLACK
6
CONTINUOUS
10
1.55987
20
2.774
11
1.55987
21
2.714
0
LINE
8
BLACK
6
CONTINUOUS
10
1.55987
20
2.714
11
1.55927
21
2.71099
0
LINE
8
BLACK
6
CONTINUOUS
10
1.55927
20
2.71099
11
1.55757
21
2.70843
0
LINE
8
BLACK
6
CONTINUOUS
10
1.55757
20
2.70843
11
1.55501
21
2.70673
0
LINE
8
BLACK
6
CONTINUOUS
10
1.55501
20
2.70673
11
1.552
21
2.70613
0
LINE
8
BLACK
6
CONTINUOUS
10
1.552
20
2.70613
11
1.492
21
2.70613
0
LINE
8
BLACK
6
CONTINUOUS
10
1.492
20
2.70613
11
1.48899
21
2.70673
0
LINE
8
BLACK
6
CONTINUOUS
10
1.48899
20
2.70673
11
1.48643
21
2.70843
0
LINE
8
BLACK
6
CONTINUOUS
10
1.48643
20
2.70843
11
1.48473
21
2.71099
0
LINE
8
BLACK
6
CONTINUOUS
10
1.48473
20
2.71099
11
1.48413
21
2.714
0
LINE
8
BLACK
6
CONTINUOUS
10
1.48413
20
2.714
11
1.48413
21
2.774
0
LINE
8
BLACK
6
CONTINUOUS
10
1.48413
20
2.774
11
1.48473
21
2.77701
0
LINE
8
BLACK
6
CONTINUOUS
10
1.48473
20
2.77701
11
1.48643
21
2.77957
0
LINE
8
BLACK
6
CONTINUOUS
10
1.48643
20
2.77957
11
1.48899
21
2.78127
0
LINE
8
BLACK
6
CONTINUOUS
10
1.48899
20
2.78127
11
1.492
21
2.78187
0
LINE
8
BLACK
6
CONTINUOUS
10
1.492
20
2.78187
11
1.552
21
2.78187
0
LINE
8
BLACK
6
CONTINUOUS
10
1.552
20
2.78187
11
1.55501
21
2.78127
0
LINE
8
BLACK
6
CONTINUOUS
10
1.65501
20
2.78127
11
1.65757
21
2.77957
0
LINE
8
BLACK
6
CONTINUOUS
10
1.65757
20
2.77957
11
1.65927
21
2.77701
0
LINE
8
BLACK
6
CONTINUOUS
10
1.65927
20
2.77701
11
1.65987
21
2.774
0
LINE
8
BLACK
6
CONTINUOUS
10
1.65987
20
2.774
11
1.65987
21
2.714
0
LINE
8
BLACK
6
CONTINUOUS
10
1.65987
20
2.714
11
1.65927
21
2.71099
0
LINE
8
BLACK
6
CONTINUOUS
10
1.65927
20
2.71099
11
1.65757
21
2.70843
0
LINE
8
BLACK
6
CONTINUOUS
10
1.65757
20
2.70843
11
1.65501
21
2.70673
0
LINE
8
BLACK
6
CONTINUOUS
10
1.65501
20
2.70673
11
1.652
21
2.70613
0
LINE
8
BLACK
6
CONTINUOUS
10
1.652
20
2.70613
11
1.592
21
2.70613
0
LINE
8
BLACK
6
CONTINUOUS
10
1.592
20
2.70613
11
1.58899
21
2.70673
0
LINE
8
BLACK
6
CONTINUOUS
10
1.58899
20
2.70673
11
1.58643
21
2.70843
0
LINE
8
BLACK
6
CONTINUOUS
10
1.58643
20
2.70843
11
1.58473
21
2.71099
0
LINE
8
BLACK
6
CONTINUOUS
10
1.58473
20
2.71099
11
1.58413
21
2.714
0
LINE
8
BLACK
6
CONTINUOUS
10
1.58413
20
2.714
11
1.58413
21
2.774
0
LINE
8
BLACK
6
CONTINUOUS
10
1.58413
20
2.774
11
1.58473
21
2.77701
0
LINE
8
BLACK
6
CONTINUOUS
10
1.58473
20
2.77701
11
1.58643
21
2.77957
0
LINE
8
BLACK
6
CONTINUOUS
10
1.58643
20
2.77957
11
1.58899
21
2.78127
0
LINE
8
BLACK
6
CONTINUOUS
10
1.58899
20
2.78127
11
1.592
21
2.78187
0
LINE
8
BLACK
6
CONTINUOUS
10
1.592
20
2.78187
11
1.652
21
2.78187
0
LINE
8
BLACK
6
CONTINUOUS
10
1.652
20
2.78187
11
1.65501
21
2.78127
0
LINE
8
BLACK
6
CONTINUOUS
10
1.75501
20
2.78127
11
1.75757
21
2.77957
0
LINE
8
BLACK
6
CONTINUOUS
10
1.75757
20
2.77957
11
1.75927
21
2.77701
0
LINE
8
BLACK
6
CONTINUOUS
10
1.75927
20
2.77701
11
1.75987
21
2.774
0
LINE
8
BLACK
6
CONTINUOUS
10
1.75987
20
2.774
11
1.75987
21
2.714
0
LINE
8
BLACK
6
CONTINUOUS
10
1.75987
20
2.714
11
1.75927
21
2.71099
0
LINE
8
BLACK
6
CONTINUOUS
10
1.75927
20
2.71099
11
1.75757
21
2.70843
0
LINE
8
BLACK
6
CONTINUOUS
10
1.75757
20
2.70843
11
1.75501
21
2.70673
0
LINE
8
BLACK
6
CONTINUOUS
10
1.75501
20
2.70673
11
1.752
21
2.70613
0
LINE
8
BLACK
6
CONTINUOUS
10
1.752
20
2.70613
11
1.692
21
2.70613
0
LINE
8
BLACK
6
CONTINUOUS
10
1.692
20
2.70613
11
1.68899
21
2.70673
0
LINE
8
BLACK
6
CONTINUOUS
10
1.68899
20
2.70673
11
1.68643
21
2.70843
0
LINE
8
BLACK
6
CONTINUOUS
10
1.68643
20
2.70843
11
1.68473
21
2.71099
0
LINE
8
BLACK
6
CONTINUOUS
10
1.68473
20
2.71099
11
1.68413
21
2.714
0
LINE
8
BLACK
6
CONTINUOUS
10
1.68413
20
2.714
11
1.68413
21
2.774
0
LINE
8
BLACK
6
CONTINUOUS
10
1.68413
20
2.774
11
1.68473
21
2.77701
0
LINE
8
BLACK
6
CONTINUOUS
10
1.68473
20
2.77701
11
1.68643
21
2.77957
0
LINE
8
BLACK
6
CONTINUOUS
10
1.68643
20
2.77957
11
1.68899
21
2.78127
0
LINE
8
BLACK
6
CONTINUOUS
10
1.68899
20
2.78127
11
1.692
21
2.78187
0
LINE
8
BLACK
6
CONTINUOUS
10
1.692
20
2.78187
11
1.752
21
2.78187
0
LINE
8
BLACK
6
CONTINUOUS
10
1.752
20
2.78187
11
1.75501
21
2.78127
0
LINE
8
BLACK
6
CONTINUOUS
10
1.85501
20
2.78127
11
1.85757
21
2.77957
0
LINE
8
BLACK
6
CONTINUOUS
10
1.85757
20
2.77957
11
1.85927
21
2.77701
0
LINE
8
BLACK
6
CONTINUOUS
10
1.85927
20
2.77701
11
1.85987
21
2.774
0
LINE
8
BLACK
6
CONTINUOUS
10
1.85987
20
2.774
11
1.85987
21
2.714
0
LINE
8
BLACK
6
CONTINUOUS
10
1.85987
20
2.714
11
1.85927
21
2.71099
0
LINE
8
BLACK
6
CONTINUOUS
10
1.85927
20
2.71099
11
1.85757
21
2.70843
0
LINE
8
BLACK
6
CONTINUOUS
10
1.85757
20
2.70843
11
1.85501
21
2.70673
0
LINE
8
BLACK
6
CONTINUOUS
10
1.85501
20
2.70673
11
1.852
21
2.70613
0
LINE
8
BLACK
6
CONTINUOUS
10
1.852
20
2.70613
11
1.792
21
2.70613
0
LINE
8
BLACK
6
CONTINUOUS
10
1.792
20
2.70613
11
1.78899
21
2.70673
0
LINE
8
BLACK
6
CONTINUOUS
10
1.78899
20
2.70673
11
1.78643
21
2.70843
0
LINE
8
BLACK
6
CONTINUOUS
10
1.78643
20
2.70843
11
1.78473
21
2.71099
0
LINE
8
BLACK
6
CONTINUOUS
10
1.78473
20
2.71099
11
1.78413
21
2.714
0
LINE
8
BLACK
6
CONTINUOUS
10
1.78413
20
2.714
11
1.78413
21
2.774
0
LINE
8
BLACK
6
CONTINUOUS
10
1.78413
20
2.774
11
1.78473
21
2.77701
0
LINE
8
BLACK
6
CONTINUOUS
10
1.78473
20
2.77701
11
1.78643
21
2.77957
0
LINE
8
BLACK
6
CONTINUOUS
10
1.78643
20
2.77957
11
1.78899
21
2.78127
0
LINE
8
BLACK
6
CONTINUOUS
10
1.78899
20
2.78127
11
1.792
21
2.78187
0
LINE
8
BLACK
6
CONTINUOUS
10
1.792
20
2.78187
11
1.852
21
2.78187
0
LINE
8
BLACK
6
CONTINUOUS
10
1.852
20
2.78187
11
1.85501
21
2.78127
0
LINE
8
BLACK
6
CONTINUOUS
10
1.95501
20
2.78127
11
1.95757
21
2.77957
0
LINE
8
BLACK
6
CONTINUOUS
10
1.95757
20
2.77957
11
1.95927
21
2.77701
0
LINE
8
BLACK
6
CONTINUOUS
10
1.95927
20
2.77701
11
1.95987
21
2.774
0
LINE
8
BLACK
6
CONTINUOUS
10
1.95987
20
2.774
11
1.95987
21
2.714
0
LINE
8
BLACK
6
CONTINUOUS
10
1.95987
20
2.714
11
1.95927
21
2.71099
0
LINE
8
BLACK
6
CONTINUOUS
10
1.95927
20
2.71099
11
1.95757
21
2.70843
0
LINE
8
BLACK
6
CONTINUOUS
10
1.95757
20
2.70843
11
1.95501
21
2.70673
0
LINE
8
BLACK
6
CONTINUOUS
10
1.95501
20
2.70673
11
1.952
21
2.70613
0
LINE
8
BLACK
6
CONTINUOUS
10
1.952
20
2.70613
11
1.892
21
2.70613
0
LINE
8
BLACK
6
CONTINUOUS
10
1.892
20
2.70613
11
1.88899
21
2.70673
0
LINE
8
BLACK
6
CONTINUOUS
10
1.88899
20
2.70673
11
1.88643
21
2.70843
0
LINE
8
BLACK
6
CONTINUOUS
10
1.88643
20
2.70843
11
1.88473
21
2.71099
0
LINE
8
BLACK
6
CONTINUOUS
10
1.88473
20
2.71099
11
1.88413
21
2.714
0
LINE
8
BLACK
6
CONTINUOUS
10
1.88413
20
2.714
11
1.88413
21
2.774
0
LINE
8
BLACK
6
CONTINUOUS
10
1.88413
20
2.774
11
1.88473
21
2.77701
0
LINE
8
BLACK
6
CONTINUOUS
10
1.88473
20
2.77701
11
1.88643
21
2.77957
0
LINE
8
BLACK
6
CONTINUOUS
10
1.88643
20
2.77957
11
1.88899
21
2.78127
0
LINE
8
BLACK
6
CONTINUOUS
10
1.88899
20
2.78127
11
1.892
21
2.78187
0
LINE
8
BLACK
6
CONTINUOUS
10
1.892
20
2.78187
11
1.952
21
2.78187
0
LINE
8
BLACK
6
CONTINUOUS
10
1.952
20
2.78187
11
1.95501
21
2.78127
0
LINE
8
BLACK
6
CONTINUOUS
10
2.05501
20
2.78127
11
2.05757
21
2.77957
0
LINE
8
BLACK
6
CONTINUOUS
10
2.05757
20
2.77957
11
2.05927
21
2.77701
0
LINE
8
BLACK
6
CONTINUOUS
10
2.05927
20
2.77701
11
2.05987
21
2.774
0
LINE
8
BLACK
6
CONTINUOUS
10
2.05987
20
2.774
11
2.05987
21
2.714
0
LINE
8
BLACK
6
CONTINUOUS
10
2.05987
20
2.714
11
2.05927
21
2.71099
0
LINE
8
BLACK
6
CONTINUOUS
10
2.05927
20
2.71099
11
2.05757
21
2.70843
0
LINE
8
BLACK
6
CONTINUOUS
10
2.05757
20
2.70843
11
2.05501
21
2.70673
0
LINE
8
BLACK
6
CONTINUOUS
10
2.05501
20
2.70673
11
2.052
21
2.70613
0
LINE
8
BLACK
6
CONTINUOUS
10
2.052
20
2.70613
11
1.992
21
2.70613
0
LINE
8
BLACK
6
CONTINUOUS
10
1.992
20
2.70613
11
1.98899
21
2.70673
0
LINE
8
BLACK
6
CONTINUOUS
10
1.98899
20
2.70673
11
1.98643
21
2.70843
0
LINE
8
BLACK
6
CONTINUOUS
10
1.98643
20
2.70843
11
1.98473
21
2.71099
0
LINE
8
BLACK
6
CONTINUOUS
10
1.98473
20
2.71099
11
1.98413
21
2.714
0
LINE
8
BLACK
6
CONTINUOUS
10
1.98413
20
2.714
11
1.98413
21
2.774
0
LINE
8
BLACK
6
CONTINUOUS
10
1.98413
20
2.774
11
1.98473
21
2.77701
0
LINE
8
BLACK
6
CONTINUOUS
10
1.98473
20
2.77701
11
1.98643
21
2.77957
0
LINE
8
BLACK
6
CONTINUOUS
10
1.98643
20
2.77957
11
1.98899
21
2.78127
0
LINE
8
BLACK
6
CONTINUOUS
10
1.98899
20
2.78127
11
1.992
21
2.78187
0
LINE
8
BLACK
6
CONTINUOUS
10
1.992
20
2.78187
11
2.052
21
2.78187
0
LINE
8
BLACK
6
CONTINUOUS
10
2.052
20
2.78187
11
2.05501
21
2.78127
0
LINE
8
BLACK
6
CONTINUOUS
10
2.15501
20
2.78127
11
2.15757
21
2.77957
0
LINE
8
BLACK
6
CONTINUOUS
10
2.15757
20
2.77957
11
2.15927
21
2.77701
0
LINE
8
BLACK
6
CONTINUOUS
10
2.15927
20
2.77701
11
2.15987
21
2.774
0
LINE
8
BLACK
6
CONTINUOUS
10
2.15987
20
2.774
11
2.15987
21
2.714
0
LINE
8
BLACK
6
CONTINUOUS
10
2.15987
20
2.714
11
2.15927
21
2.71099
0
LINE
8
BLACK
6
CONTINUOUS
10
2.15927
20
2.71099
11
2.15757
21
2.70843
0
LINE
8
BLACK
6
CONTINUOUS
10
2.15757
20
2.70843
11
2.15501
21
2.70673
0
LINE
8
BLACK
6
CONTINUOUS
10
2.15501
20
2.70673
11
2.152
21
2.70613
0
LINE
8
BLACK
6
CONTINUOUS
10
2.152
20
2.70613
11
2.092
21
2.70613
0
LINE
8
BLACK
6
CONTINUOUS
10
2.092
20
2.70613
11
2.08899
21
2.70673
0
LINE
8
BLACK
6
CONTINUOUS
10
2.08899
20
2.70673
11
2.08643
21
2.70843
0
LINE
8
BLACK
6
CONTINUOUS
10
2.08643
20
2.70843
11
2.08473
21
2.71099
0
LINE
8
BLACK
6
CONTINUOUS
10
2.08473
20
2.71099
11
2.08413
21
2.714
0
LINE
8
BLACK
6
CONTINUOUS
10
2.08413
20
2.714
11
2.08413
21
2.774
0
LINE
8
BLACK
6
CONTINUOUS
10
2.08413
20
2.774
11
2.08473
21
2.77701
0
LINE
8
BLACK
6
CONTINUOUS
10
2.08473
20
2.77701
11
2.08643
21
2.77957
0
LINE
8
BLACK
6
CONTINUOUS
10
2.08643
20
2.77957
11
2.08899
21
2.78127
0
LINE
8
BLACK
6
CONTINUOUS
10
2.08899
20
2.78127
11
2.092
21
2.78187
0
LINE
8
BLACK
6
CONTINUOUS
10
2.092
20
2.78187
11
2.152
21
2.78187
0
LINE
8
BLACK
6
CONTINUOUS
10
2.152
20
2.78187
11
2.15501
21
2.78127
0
LINE
8
BLACK
6
CONTINUOUS
10
1.02901
20
2.87527
11
1.03157
21
2.87357
0
LINE
8
BLACK
6
CONTINUOUS
10
1.03157
20
2.87357
11
1.03327
21
2.87101
0
LINE
8
BLACK
6
CONTINUOUS
10
1.03327
20
2.87101
11
1.03387
21
2.868
0
LINE
8
BLACK
6
CONTINUOUS
10
1.03387
20
2.868
11
1.03387
21
2.808
0
LINE
8
BLACK
6
CONTINUOUS
10
1.03387
20
2.808
11
1.03327
21
2.80499
0
LINE
8
BLACK
6
CONTINUOUS
10
1.03327
20
2.80499
11
1.03157
21
2.80243
0
LINE
8
BLACK
6
CONTINUOUS
10
1.03157
20
2.80243
11
1.02901
21
2.80073
0
LINE
8
BLACK
6
CONTINUOUS
10
1.02901
20
2.80073
11
1.026
21
2.80013
0
LINE
8
BLACK
6
CONTINUOUS
10
1.026
20
2.80013
11
0.966
21
2.80013
0
LINE
8
BLACK
6
CONTINUOUS
10
0.966
20
2.80013
11
0.962987
21
2.80073
0
LINE
8
BLACK
6
CONTINUOUS
10
0.962987
20
2.80073
11
0.960432
21
2.80243
0
LINE
8
BLACK
6
CONTINUOUS
10
0.960432
20
2.80243
11
0.958725
21
2.80499
0
LINE
8
BLACK
6
CONTINUOUS
10
0.958725
20
2.80499
11
0.958126
21
2.808
0
LINE
8
BLACK
6
CONTINUOUS
10
0.958126
20
2.808
11
0.958126
21
2.868
0
LINE
8
BLACK
6
CONTINUOUS
10
0.958126
20
2.868
11
0.958725
21
2.87101
0
LINE
8
BLACK
6
CONTINUOUS
10
0.958725
20
2.87101
11
0.960432
21
2.87357
0
LINE
8
BLACK
6
CONTINUOUS
10
0.960432
20
2.87357
11
0.962987
21
2.87527
0
LINE
8
BLACK
6
CONTINUOUS
10
0.962987
20
2.87527
11
0.966
21
2.87587
0
LINE
8
BLACK
6
CONTINUOUS
10
0.966
20
2.87587
11
1.026
21
2.87587
0
LINE
8
BLACK
6
CONTINUOUS
10
1.026
20
2.87587
11
1.02901
21
2.87527
0
LINE
8
BLACK
6
CONTINUOUS
10
1.02901
20
2.97527
11
1.03157
21
2.97357
0
LINE
8
BLACK
6
CONTINUOUS
10
1.03157
20
2.97357
11
1.03327
21
2.97101
0
LINE
8
BLACK
6
CONTINUOUS
10
1.03327
20
2.97101
11
1.03387
21
2.968
0
LINE
8
BLACK
6
CONTINUOUS
10
1.03387
20
2.968
11
1.03387
21
2.908
0
LINE
8
BLACK
6
CONTINUOUS
10
1.03387
20
2.908
11
1.03327
21
2.90499
0
LINE
8
BLACK
6
CONTINUOUS
10
1.03327
20
2.90499
11
1.03157
21
2.90243
0
LINE
8
BLACK
6
CONTINUOUS
10
1.03157
20
2.90243
11
1.02901
21
2.90073
0
LINE
8
BLACK
6
CONTINUOUS
10
1.02901
20
2.90073
11
1.026
21
2.90013
0
LINE
8
BLACK
6
CONTINUOUS
10
1.026
20
2.90013
11
0.966
21
2.90013
0
LINE
8
BLACK
6
CONTINUOUS
10
0.966
20
2.90013
11
0.962987
21
2.90073
0
LINE
8
BLACK
6
CONTINUOUS
10
0.962987
20
2.90073
11
0.960432
21
2.90243
0
LINE
8
BLACK
6
CONTINUOUS
10
0.960432
20
2.90243
11
0.958725
21
2.90499
0
LINE
8
BLACK
6
CONTINUOUS
10
0.958725
20
2.90499
11
0.958126
21
2.908
0
LINE
8
BLACK
6
CONTINUOUS
10
0.958126
20
2.908
11
0.958126
21
2.968
0
LINE
8
BLACK
6
CONTINUOUS
10
0.958126
20
2.968
11
0.958725
21
2.97101
0
LINE
8
BLACK
6
CONTINUOUS
10
0.958725
20
2.97101
11
0.960432
21
2.97357
0
LINE
8
BLACK
6
CONTINUOUS
10
0.960432
20
2.97357
11
0.962987
21
2.97527
0
LINE
8
BLACK
6
CONTINUOUS
10
0.962987
20
2.97527
11
0.966
21
2.97587
0
LINE
8
BLACK
6
CONTINUOUS
10
0.966
20
2.97587
11
1.026
21
2.97587
0
LINE
8
BLACK
6
CONTINUOUS
10
1.026
20
2.97587
11
1.02901
21
2.97527
0
LINE
8
BLACK
6
CONTINUOUS
10
1.02901
20
3.07527
11
1.03157
21
3.07357
0
LINE
8
BLACK
6
CONTINUOUS
10
1.03157
20
3.07357
11
1.03327
21
3.07101
0
LINE
8
BLACK
6
CONTINUOUS
10
1.03327
20
3.07101
11
1.03387
21
3.068
0
LINE
8
BLACK
6
CONTINUOUS
10
1.03387
20
3.068
11
1.03387
21
3.008
0
LINE
8
BLACK
6
CONTINUOUS
10
1.03387
20
3.008
11
1.03327
21
3.00499
0
LINE
8
BLACK
6
CONTINUOUS
10
1.03327
20
3.00499
11
1.03157
21
3.00243
0
LINE
8
BLACK
6
CONTINUOUS
10
1.03157
20
3.00243
11
1.02901
21
3.00073
0
LINE
8
BLACK
6
CONTINUOUS
10
1.02901
20
3.00073
11
1.026
21
3.00013
0
LINE
8
BLACK
6
CONTINUOUS
10
1.026
20
3.00013
11
0.966
21
3.00013
0
LINE
8
BLACK
6
CONTINUOUS
10
0.966
20
3.00013
11
0.962987
21
3.00073
0
LINE
8
BLACK
6
CONTINUOUS
10
0.962987
20
3.00073
11
0.960432
21
3.00243
0
LINE
8
BLACK
6
CONTINUOUS
10
0.960432
20
3.00243
11
0.958725
21
3.00499
0
LINE
8
BLACK
6
CONTINUOUS
10
0.958725
20
3.00499
11
0.958126
21
3.008
0
LINE
8
BLACK
6
CONTINUOUS
10
0.958126
20
3.008
11
0.958126
21
3.068
0
LINE
8
BLACK
6
CONTINUOUS
10
0.958126
20
3.068
11
0.958725
21
3.07101
0
LINE
8
BLACK
6
CONTINUOUS
10
0.958725
20
3.07101
11
0.960432
21
3.07357
0
LINE
8
BLACK
6
CONTINUOUS
10
0.960432
20
3.07357
11
0.962987
21
3.07527
0
LINE
8
BLACK
6
CONTINUOUS
10
0.962987
20
3.07527
11
0.966
21
3.07587
0
LINE
8
BLACK
6
CONTINUOUS
10
0.966
20
3.07587
11
1.026
21
3.07587
0
LINE
8
BLACK
6
CONTINUOUS
10
1.026
20
3.07587
11
1.02901
21
3.07527
0
LINE
8
BLACK
6
CONTINUOUS
10
1.02901
20
3.17527
11
1.03157
21
3.17357
0
LINE
8
BLACK
6
CONTINUOUS
10
1.03157
20
3.17357
11
1.03327
21
3.17101
0
LINE
8
BLACK
6
CONTINUOUS
10
1.03327
20
3.17101
11
1.03387
21
3.168
0
LINE
8
BLACK
6
CONTINUOUS
10
1.03387
20
3.168
11
1.03387
21
3.108
0
LINE
8
BLACK
6
CONTINUOUS
10
1.03387
20
3.108
11
1.03327
21
3.10499
0
LINE
8
BLACK
6
CONTINUOUS
10
1.03327
20
3.10499
11
1.03157
21
3.10243
0
LINE
8
BLACK
6
CONTINUOUS
10
1.03157
20
3.10243
11
1.02901
21
3.10073
0
LINE
8
BLACK
6
CONTINUOUS
10
1.02901
20
3.10073
11
1.026
21
3.10013
0
LINE
8
BLACK
6
CONTINUOUS
10
1.026
20
3.10013
11
0.966
21
3.10013
0
LINE
8
BLACK
6
CONTINUOUS
10
0.966
20
3.10013
11
0.962987
21
3.10073
0
LINE
8
BLACK
6
CONTINUOUS
10
0.962987
20
3.10073
11
0.960432
21
3.10243
0
LINE
8
BLACK
6
CONTINUOUS
10
0.960432
20
3.10243
11
0.958725
21
3.10499
0
LINE
8
BLACK
6
CONTINUOUS
10
0.958725
20
3.10499
11
0.958126
21
3.108
0
LINE
8
BLACK
6
CONTINUOUS
10
0.958126
20
3.108
11
0.958126
21
3.168
0
LINE
8
BLACK
6
CONTINUOUS
10
0.958126
20
3.168
11
0.958725
21
3.17101
0
LINE
8
BLACK
6
CONTINUOUS
10
0.958725
20
3.17101
11
0.960432
21
3.17357
0
LINE
8
BLACK
6
CONTINUOUS
10
0.960432
20
3.17357
11
0.962987
21
3.17527
0
LINE
8
BLACK
6
CONTINUOUS
10
0.962987
20
3.17527
11
0.966
21
3.17587
0
LINE
8
BLACK
6
CONTINUOUS
10
0.966
20
3.17587
11
1.026
21
3.17587
0
LINE
8
BLACK
6
CONTINUOUS
10
1.026
20
3.17587
11
1.02901
21
3.17527
0
LINE
8
BLACK
6
CONTINUOUS
10
1.02901
20
3.27527
11
1.03157
21
3.27357
0
LINE
8
BLACK
6
CONTINUOUS
10
1.03157
20
3.27357
11
1.03327
21
3.27101
0
LINE
8
BLACK
6
CONTINUOUS
10
1.03327
20
3.27101
11
1.03387
21
3.268
0
LINE
8
BLACK
6
CONTINUOUS
10
1.03387
20
3.268
11
1.03387
21
3.208
0
LINE
8
BLACK
6
CONTINUOUS
10
1.03387
20
3.208
11
1.03327
21
3.20499
0
LINE
8
BLACK
6
CONTINUOUS
10
1.03327
20
3.20499
11
1.03157
21
3.20243
0
LINE
8
BLACK
6
CONTINUOUS
10
1.03157
20
3.20243
11
1.02901
21
3.20073
0
LINE
8
BLACK
6
CONTINUOUS
10
1.02901
20
3.20073
11
1.026
21
3.20013
0
LINE
8
BLACK
6
CONTINUOUS
10
1.026
20
3.20013
11
0.966
21
3.20013
0
LINE
8
BLACK
6
CONTINUOUS
10
0.966
20
3.20013
11
0.962987
21
3.20073
0
LINE
8
BLACK
6
CONTINUOUS
10
0.962987
20
3.20073
11
0.960432
21
3.20243
0
LINE
8
BLACK
6
CONTINUOUS
10
0.960432
20
3.20243
11
0.958725
21
3.20499
0
LINE
8
BLACK
6
CONTINUOUS
10
0.958725
20
3.20499
11
0.958126
21
3.208
0
LINE
8
BLACK
6
CONTINUOUS
10
0.958126
20
3.208
11
0.958126
21
3.268
0
LINE
8
BLACK
6
CONTINUOUS
10
0.958126
20
3.268
11
0.958725
21
3.27101
0
LINE
8
BLACK
6
CONTINUOUS
10
0.958725
20
3.27101
11
0.960432
21
3.27357
0
LINE
8
BLACK
6
CONTINUOUS
10
0.960432
20
3.27357
11
0.962987
21
3.27527
0
LINE
8
BLACK
6
CONTINUOUS
10
0.962987
20
3.27527
11
0.966
21
3.27587
0
LINE
8
BLACK
6
CONTINUOUS
10
0.966
20
3.27587
11
1.026
21
3.27587
0
LINE
8
BLACK
6
CONTINUOUS
10
1.026
20
3.27587
11
1.02901
21
3.27527
0
LINE
8
BLACK
6
CONTINUOUS
10
1.02901
20
3.37527
11
1.03157
21
3.37357
0
LINE
8
BLACK
6
CONTINUOUS
10
1.03157
20
3.37357
11
1.03327
21
3.37101
0
LINE
8
BLACK
6
CONTINUOUS
10
1.03327
20
3.37101
11
1.03387
21
3.368
0
LINE
8
BLACK
6
CONTINUOUS
10
1.03387
20
3.368
11
1.03387
21
3.308
0
LINE
8
BLACK
6
CONTINUOUS
10
1.03387
20
3.308
11
1.03327
21
3.30499
0
LINE
8
BLACK
6
CONTINUOUS
10
1.03327
20
3.30499
11
1.03157
21
3.30243
0
LINE
8
BLACK
6
CONTINUOUS
10
1.03157
20
3.30243
11
1.02901
21
3.30073
0
LINE
8
BLACK
6
CONTINUOUS
10
1.02901
20
3.30073
11
1.026
21
3.30013
0
LINE
8
BLACK
6
CONTINUOUS
10
1.026
20
3.30013
11
0.966
21
3.30013
0
LINE
8
BLACK
6
CONTINUOUS
10
0.966
20
3.30013
11
0.962987
21
3.30073
0
LINE
8
BLACK
6
CONTINUOUS
10
0.962987
20
3.30073
11
0.960432
21
3.30243
0
LINE
8
BLACK
6
CONTINUOUS
10
0.960432
20
3.30243
11
0.958725
21
3.30499
0
LINE
8
BLACK
6
CONTINUOUS
10
0.958725
20
3.30499
11
0.958126
21
3.308
0
LINE
8
BLACK
6
CONTINUOUS
10
0.958126
20
3.308
11
0.958126
21
3.368
0
LINE
8
BLACK
6
CONTINUOUS
10
0.958126
20
3.368
11
0.958725
21
3.37101
0
LINE
8
BLACK
6
CONTINUOUS
10
0.958725
20
3.37101
11
0.960432
21
3.37357
0
LINE
8
BLACK
6
CONTINUOUS
10
0.960432
20
3.37357
11
0.962987
21
3.37527
0
LINE
8
BLACK
6
CONTINUOUS
10
0.962987
20
3.37527
11
0.966
21
3.37587
0
LINE
8
BLACK
6
CONTINUOUS
10
0.966
20
3.37587
11
1.026
21
3.37587
0
LINE
8
BLACK
6
CONTINUOUS
10
1.026
20
3.37587
11
1.02901
21
3.37527
0
LINE
8
BLACK
6
CONTINUOUS
10
1.45701
20
3.42927
11
1.45957
21
3.42757
0
LINE
8
BLACK
6
CONTINUOUS
10
1.45957
20
3.42757
11
1.46127
21
3.42501
0
LINE
8
BLACK
6
CONTINUOUS
10
1.46127
20
3.42501
11
1.46187
21
3.422
0
LINE
8
BLACK
6
CONTINUOUS
10
1.46187
20
3.422
11
1.46187
21
3.362
0
LINE
8
BLACK
6
CONTINUOUS
10
1.46187
20
3.362
11
1.46127
21
3.35899
0
LINE
8
BLACK
6
CONTINUOUS
10
1.46127
20
3.35899
11
1.45957
21
3.35643
0
LINE
8
BLACK
6
CONTINUOUS
10
1.45957
20
3.35643
11
1.45701
21
3.35473
0
LINE
8
BLACK
6
CONTINUOUS
10
1.45701
20
3.35473
11
1.454
21
3.35413
0
LINE
8
BLACK
6
CONTINUOUS
10
1.454
20
3.35413
11
1.394
21
3.35413
0
LINE
8
BLACK
6
CONTINUOUS
10
1.394
20
3.35413
11
1.39099
21
3.35473
0
LINE
8
BLACK
6
CONTINUOUS
10
1.39099
20
3.35473
11
1.38843
21
3.35643
0
LINE
8
BLACK
6
CONTINUOUS
10
1.38843
20
3.35643
11
1.38673
21
3.35899
0
LINE
8
BLACK
6
CONTINUOUS
10
1.38673
20
3.35899
11
1.38613
21
3.362
0
LINE
8
BLACK
6
CONTINUOUS
10
1.38613
20
3.362
11
1.38613
21
3.422
0
LINE
8
BLACK
6
CONTINUOUS
10
1.38613
20
3.422
11
1.38673
21
3.42501
0
LINE
8
BLACK
6
CONTINUOUS
10
1.38673
20
3.42501
11
1.38843
21
3.42757
0
LINE
8
BLACK
6
CONTINUOUS
10
1.38843
20
3.42757
11
1.39099
21
3.42927
0
LINE
8
BLACK
6
CONTINUOUS
10
1.39099
20
3.42927
11
1.394
21
3.42987
0
LINE
8
BLACK
6
CONTINUOUS
10
1.394
20
3.42987
11
1.454
21
3.42987
0
LINE
8
BLACK
6
CONTINUOUS
10
1.454
20
3.42987
11
1.45701
21
3.42927
0
LINE
8
BLACK
6
CONTINUOUS
10
1.55701
20
3.42927
11
1.55957
21
3.42757
0
LINE
8
BLACK
6
CONTINUOUS
10
1.55957
20
3.42757
11
1.56127
21
3.42501
0
LINE
8
BLACK
6
CONTINUOUS
10
1.56127
20
3.42501
11
1.56187
21
3.422
0
LINE
8
BLACK
6
CONTINUOUS
10
1.56187
20
3.422
11
1.56187
21
3.362
0
LINE
8
BLACK
6
CONTINUOUS
10
1.56187
20
3.362
11
1.56127
21
3.35899
0
LINE
8
BLACK
6
CONTINUOUS
10
1.56127
20
3.35899
11
1.55957
21
3.35643
0
LINE
8
BLACK
6
CONTINUOUS
10
1.55957
20
3.35643
11
1.55701
21
3.35473
0
LINE
8
BLACK
6
CONTINUOUS
10
1.55701
20
3.35473
11
1.554
21
3.35413
0
LINE
8
BLACK
6
CONTINUOUS
10
1.554
20
3.35413
11
1.494
21
3.35413
0
LINE
8
BLACK
6
CONTINUOUS
10
1.494
20
3.35413
11
1.49099
21
3.35473
0
LINE
8
BLACK
6
CONTINUOUS
10
1.49099
20
3.35473
11
1.48843
21
3.35643
0
LINE
8
BLACK
6
CONTINUOUS
10
1.48843
20
3.35643
11
1.48673
21
3.35899
0
LINE
8
BLACK
6
CONTINUOUS
10
1.48673
20
3.35899
11
1.48613
21
3.362
0
LINE
8
BLACK
6
CONTINUOUS
10
1.48613
20
3.362
11
1.48613
21
3.422
0
LINE
8
BLACK
6
CONTINUOUS
10
1.48613
20
3.422
11
1.48673
21
3.42501
0
LINE
8
BLACK
6
CONTINUOUS
10
1.48673
20
3.42501
11
1.48843
21
3.42757
0
LINE
8
BLACK
6
CONTINUOUS
10
1.48843
20
3.42757
11
1.49099
21
3.42927
0
LINE
8
BLACK
6
CONTINUOUS
10
1.49099
20
3.42927
11
1.494
21
3.42987
0
LINE
8
BLACK
6
CONTINUOUS
10
1.494
20
3.42987
11
1.554
21
3.42987
0
LINE
8
BLACK
6
CONTINUOUS
10
1.554
20
3.42987
11
1.55701
21
3.42927
0
LINE
8
BLACK
6
CONTINUOUS
10
1.65701
20
3.42927
11
1.65957
21
3.42757
0
LINE
8
BLACK
6
CONTINUOUS
10
1.65957
20
3.42757
11
1.66127
21
3.42501
0
LINE
8
BLACK
6
CONTINUOUS
10
1.66127
20
3.42501
11
1.66187
21
3.422
0
LINE
8
BLACK
6
CONTINUOUS
10
1.66187
20
3.422
11
1.66187
21
3.362
0
LINE
8
BLACK
6
CONTINUOUS
10
1.66187
20
3.362
11
1.66127
21
3.35899
0
LINE
8
BLACK
6
CONTINUOUS
10
1.66127
20
3.35899
11
1.65957
21
3.35643
0
LINE
8
BLACK
6
CONTINUOUS
10
1.65957
20
3.35643
11
1.65701
21
3.35473
0
LINE
8
BLACK
6
CONTINUOUS
10
1.65701
20
3.35473
11
1.654
21
3.35413
0
LINE
8
BLACK
6
CONTINUOUS
10
1.654
20
3.35413
11
1.594
21
3.35413
0
LINE
8
BLACK
6
CONTINUOUS
10
1.594
20
3.35413
11
1.59099
21
3.35473
0
LINE
8
BLACK
6
CONTINUOUS
10
1.59099
20
3.35473
11
1.58843
21
3.35643
0
LINE
8
BLACK
6
CONTINUOUS
10
1.58843
20
3.35643
11
1.58673
21
3.35899
0
LINE
8
BLACK
6
CONTINUOUS
10
1.58673
20
3.35899
11
1.58613
21
3.362
0
LINE
8
BLACK
6
CONTINUOUS
10
1.58613
20
3.362
11
1.58613
21
3.422
0
LINE
8
BLACK
6
CONTINUOUS
10
1.58613
20
3.422
11
1.58673
21
3.42501
0
LINE
8
BLACK
6
CONTINUOUS
10
1.58673
20
3.42501
11
1.58843
21
3.42757
0
LINE
8
BLACK
6
CONTINUOUS
10
1.58843
20
3.42757
11
1.59099
21
3.42927
0
LINE
8
BLACK
6
CONTINUOUS
10
1.59099
20
3.42927
11
1.594
21
3.42987
0
LINE
8
BLACK
6
CONTINUOUS
10
1.594
20
3.42987
11
1.654
21
3.42987
0
LINE
8
BLACK
6
CONTINUOUS
10
1.654
20
3.42987
11
1.65701
21
3.42927
0
LINE
8
BLACK
6
CONTINUOUS
10
1.75701
20
3.42927
11
1.75957
21
3.42757
0
LINE
8
BLACK
6
CONTINUOUS
10
1.75957
20
3.42757
11
1.76127
21
3.42501
0
LINE
8
BLACK
6
CONTINUOUS
10
1.76127
20
3.42501
11
1.76187
21
3.422
0
LINE
8
BLACK
6
CONTINUOUS
10
1.76187
20
3.422
11
1.76187
21
3.362
0
LINE
8
BLACK
6
CONTINUOUS
10
1.76187
20
3.362
11
1.76127
21
3.35899
0
LINE
8
BLACK
6
CONTINUOUS
10
1.76127
20
3.35899
11
1.75957
21
3.35643
0
LINE
8
BLACK
6
CONTINUOUS
10
1.75957
20
3.35643
11
1.75701
21
3.35473
0
LINE
8
BLACK
6
CONTINUOUS
10
1.75701
20
3.35473
11
1.754
21
3.35413
0
LINE
8
BLACK
6
CONTINUOUS
10
1.754
20
3.35413
11
1.694
21
3.35413
0
LINE
8
BLACK
6
CONTINUOUS
10
1.694
20
3.35413
11
1.69099
21
3.35473
0
LINE
8
BLACK
6
CONTINUOUS
10
1.69099
20
3.35473
11
1.68843
21
3.35643
0
LINE
8
BLACK
6
CONTINUOUS
10
1.68843
20
3.35643
11
1.68673
21
3.35899
0
LINE
8
BLACK
6
CONTINUOUS
10
1.68673
20
3.35899
11
1.68613
21
3.362
0
LINE
8
BLACK
6
CONTINUOUS
10
1.68613
20
3.362
11
1.68613
21
3.422
0
LINE
8
BLACK
6
CONTINUOUS
10
1.68613
20
3.422
11
1.68673
21
3.42501
0
LINE
8
BLACK
6
CONTINUOUS
10
1.68673
20
3.42501
11
1.68843
21
3.42757
0
LINE
8
BLACK
6
CONTINUOUS
10
1.68843
20
3.42757
11
1.69099
21
3.42927
0
LINE
8
BLACK
6
CONTINUOUS
10
1.69099
20
3.42927
11
1.694
21
3.42987
0
LINE
8
BLACK
6
CONTINUOUS
10
1.694
20
3.42987
11
1.754
21
3.42987
0
LINE
8
BLACK
6
CONTINUOUS
10
1.754
20
3.42987
11
1.75701
21
3.42927
0
LINE
8
BLACK
6
CONTINUOUS
10
1.85701
20
3.42927
11
1.85957
21
3.42757
0
LINE
8
BLACK
6
CONTINUOUS
10
1.85957
20
3.42757
11
1.86127
21
3.42501
0
LINE
8
BLACK
6
CONTINUOUS
10
1.86127
20
3.42501
11
1.86187
21
3.422
0
LINE
8
BLACK
6
CONTINUOUS
10
1.86187
20
3.422
11
1.86187
21
3.362
0
LINE
8
BLACK
6
CONTINUOUS
10
1.86187
20
3.362
11
1.86127
21
3.35899
0
LINE
8
BLACK
6
CONTINUOUS
10
1.86127
20
3.35899
11
1.85957
21
3.35643
0
LINE
8
BLACK
6
CONTINUOUS
10
1.85957
20
3.35643
11
1.85701
21
3.35473
0
LINE
8
BLACK
6
CONTINUOUS
10
1.85701
20
3.35473
11
1.854
21
3.35413
0
LINE
8
BLACK
6
CONTINUOUS
10
1.854
20
3.35413
11
1.794
21
3.35413
0
LINE
8
BLACK
6
CONTINUOUS
10
1.794
20
3.35413
11
1.79099
21
3.35473
0
LINE
8
BLACK
6
CONTINUOUS
10
1.79099
20
3.35473
11
1.78843
21
3.35643
0
LINE
8
BLACK
6
CONTINUOUS
10
1.78843
20
3.35643
11
1.78673
21
3.35899
0
LINE
8
BLACK
6
CONTINUOUS
10
1.78673
20
3.35899
11
1.78613
21
3.362
0
LINE
8
BLACK
6
CONTINUOUS
10
1.78613
20
3.362
11
1.78613
21
3.422
0
LINE
8
BLACK
6
CONTINUOUS
10
1.78613
20
3.422
11
1.78673
21
3.42501
0
LINE
8
BLACK
6
CONTINUOUS
10
1.78673
20
3.42501
11
1.78843
21
3.42757
0
LINE
8
BLACK
6
CONTINUOUS
10
1.78843
20
3.42757
11
1.79099
21
3.42927
0
LINE
8
BLACK
6
CONTINUOUS
10
1.79099
20
3.42927
11
1.794
21
3.42987
0
LINE
8
BLACK
6
CONTINUOUS
10
1.794
20
3.42987
11
1.854
21
3.42987
0
LINE
8
BLACK
6
CONTINUOUS
10
1.854
20
3.42987
11
1.85701
21
3.42927
0
LINE
8
BLACK
6
CONTINUOUS
10
1.95701
20
3.42927
11
1.95957
21
3.42757
0
LINE
8
BLACK
6
CONTINUOUS
10
1.95957
20
3.42757
11
1.96127
21
3.42501
0
LINE
8
BLACK
6
CONTINUOUS
10
1.96127
20
3.42501
11
1.96187
21
3.422
0
LINE
8
BLACK
6
CONTINUOUS
10
1.96187
20
3.422
11
1.96187
21
3.362
0
LINE
8
BLACK
6
CONTINUOUS
10
1.96187
20
3.362
11
1.96127
21
3.35899
0
LINE
8
BLACK
6
CONTINUOUS
10
1.96127
20
3.35899
11
1.95957
21
3.35643
0
LINE
8
BLACK
6
CONTINUOUS
10
1.95957
20
3.35643
11
1.95701
21
3.35473
0
LINE
8
BLACK
6
CONTINUOUS
10
1.95701
20
3.35473
11
1.954
21
3.35413
0
LINE
8
BLACK
6
CONTINUOUS
10
1.954
20
3.35413
11
1.894
21
3.35413
0
LINE
8
BLACK
6
CONTINUOUS
10
1.894
20
3.35413
11
1.89099
21
3.35473
0
LINE
8
BLACK
6
CONTINUOUS
10
1.89099
20
3.35473
11
1.88843
21
3.35643
0
LINE
8
BLACK
6
CONTINUOUS
10
1.88843
20
3.35643
11
1.88673
21
3.35899
0
LINE
8
BLACK
6
CONTINUOUS
10
1.88673
20
3.35899
11
1.88613
21
3.362
0
LINE
8
BLACK
6
CONTINUOUS
10
1.88613
20
3.362
11
1.88613
21
3.422
0
LINE
8
BLACK
6
CONTINUOUS
10
1.88613
20
3.422
11
1.88673
21
3.42501
0
LINE
8
BLACK
6
CONTINUOUS
10
1.88673
20
3.42501
11
1.88843
21
3.42757
0
LINE
8
BLACK
6
CONTINUOUS
10
1.88843
20
3.42757
11
1.89099
21
3.42927
0
LINE
8
BLACK
6
CONTINUOUS
10
1.89099
20
3.42927
11
1.894
21
3.42987
0
LINE
8
BLACK
6
CONTINUOUS
10
1.894
20
3.42987
11
1.954
21
3.42987
0
LINE
8
BLACK
6
CONTINUOUS
10
1.954
20
3.42987
11
1.95701
21
3.42927
0
LINE
8
BLACK
6
CONTINUOUS
10
2.05701
20
3.42927
11
2.05957
21
3.42757
0
LINE
8
BLACK
6
CONTINUOUS
10
2.05957
20
3.42757
11
2.06127
21
3.42501
0
LINE
8
BLACK
6
CONTINUOUS
10
2.06127
20
3.42501
11
2.06187
21
3.422
0
LINE
8
BLACK
6
CONTINUOUS
10
2.06187
20
3.422
11
2.06187
21
3.362
0
LINE
8
BLACK
6
CONTINUOUS
10
2.06187
20
3.362
11
2.06127
21
3.35899
0
LINE
8
BLACK
6
CONTINUOUS
10
2.06127
20
3.35899
11
2.05957
21
3.35643
0
LINE
8
BLACK
6
CONTINUOUS
10
2.05957
20
3.35643
11
2.05701
21
3.35473
0
LINE
8
BLACK
6
CONTINUOUS
10
2.05701
20
3.35473
11
2.054
21
3.35413
0
LINE
8
BLACK
6
CONTINUOUS
10
2.054
20
3.35413
11
1.994
21
3.35413
0
LINE
8
BLACK
6
CONTINUOUS
10
1.994
20
3.35413
11
1.99099
21
3.35473
0
LINE
8
BLACK
6
CONTINUOUS
10
1.99099
20
3.35473
11
1.98843
21
3.35643
0
LINE
8
BLACK
6
CONTINUOUS
10
1.98843
20
3.35643
11
1.98673
21
3.35899
0
LINE
8
BLACK
6
CONTINUOUS
10
1.98673
20
3.35899
11
1.98613
21
3.362
0
LINE
8
BLACK
6
CONTINUOUS
10
1.98613
20
3.362
11
1.98613
21
3.422
0
LINE
8
BLACK
6
CONTINUOUS
10
1.98613
20
3.422
11
1.98673
21
3.42501
0
LINE
8
BLACK
6
CONTINUOUS
10
1.98673
20
3.42501
11
1.98843
21
3.42757
0
LINE
8
BLACK
6
CONTINUOUS
10
1.98843
20
3.42757
11
1.99099
21
3.42927
0
LINE
8
BLACK
6
CONTINUOUS
10
1.99099
20
3.42927
11
1.994
21
3.42987
0
LINE
8
BLACK
6
CONTINUOUS
10
1.994
20
3.42987
11
2.054
21
3.42987
0
LINE
8
BLACK
6
CONTINUOUS
10
2.054
20
3.42987
11
2.05701
21
3.42927
0
LINE
8
BLACK
6
CONTINUOUS
10
2.15701
20
3.42927
11
2.15957
21
3.42757
0
LINE
8
BLACK
6
CONTINUOUS
10
2.15957
20
3.42757
11
2.16127
21
3.42501
0
LINE
8
BLACK
6
CONTINUOUS
10
2.16127
20
3.42501
11
2.16187
21
3.422
0
LINE
8
BLACK
6
CONTINUOUS
10
2.16187
20
3.422
11
2.16187
21
3.362
0
LINE
8
BLACK
6
CONTINUOUS
10
2.16187
20
3.362
11
2.16127
21
3.35899
0
LINE
8
BLACK
6
CONTINUOUS
10
2.16127
20
3.35899
11
2.15957
21
3.35643
0
LINE
8
BLACK
6
CONTINUOUS
10
2.15957
20
3.35643
11
2.15701
21
3.35473
0
LINE
8
BLACK
6
CONTINUOUS
10
2.15701
20
3.35473
11
2.154
21
3.35413
0
LINE
8
BLACK
6
CONTINUOUS
10
2.154
20
3.35413
11
2.094
21
3.35413
0
LINE
8
BLACK
6
CONTINUOUS
10
2.094
20
3.35413
11
2.09099
21
3.35473
0
LINE
8
BLACK
6
CONTINUOUS
10
2.09099
20
3.35473
11
2.08843
21
3.35643
0
LINE
8
BLACK
6
CONTINUOUS
10
2.08843
20
3.35643
11
2.08673
21
3.35899
0
LINE
8
BLACK
6
CONTINUOUS
10
2.08673
20
3.35899
11
2.08613
21
3.362
0
LINE
8
BLACK
6
CONTINUOUS
10
2.08613
20
3.362
11
2.08613
21
3.422
0
LINE
8
BLACK
6
CONTINUOUS
10
2.08613
20
3.422
11
2.08673
21
3.42501
0
LINE
8
BLACK
6
CONTINUOUS
10
2.08673
20
3.42501
11
2.08843
21
3.42757
0
LINE
8
BLACK
6
CONTINUOUS
10
2.08843
20
3.42757
11
2.09099
21
3.42927
0
LINE
8
BLACK
6
CONTINUOUS
10
2.09099
20
3.42927
11
2.094
21
3.42987
0
LINE
8
BLACK
6
CONTINUOUS
10
2.094
20
3.42987
11
2.154
21
3.42987
0
LINE
8
BLACK
6
CONTINUOUS
10
2.154
20
3.42987
11
2.15701
21
3.42927
0
LINE
8
BLACK
6
CONTINUOUS
10
1.02901
20
3.47527
11
1.03157
21
3.47357
0
LINE
8
BLACK
6
CONTINUOUS
10
1.03157
20
3.47357
11
1.03327
21
3.47101
0
LINE
8
BLACK
6
CONTINUOUS
10
1.03327
20
3.47101
11
1.03387
21
3.468
0
LINE
8
BLACK
6
CONTINUOUS
10
1.03387
20
3.468
11
1.03387
21
3.408
0
LINE
8
BLACK
6
CONTINUOUS
10
1.03387
20
3.408
11
1.03327
21
3.40499
0
LINE
8
BLACK
6
CONTINUOUS
10
1.03327
20
3.40499
11
1.03157
21
3.40243
0
LINE
8
BLACK
6
CONTINUOUS
10
1.03157
20
3.40243
11
1.02901
21
3.40073
0
LINE
8
BLACK
6
CONTINUOUS
10
1.02901
20
3.40073
11
1.026
21
3.40013
0
LINE
8
BLACK
6
CONTINUOUS
10
1.026
20
3.40013
11
0.966
21
3.40013
0
LINE
8
BLACK
6
CONTINUOUS
10
0.966
20
3.40013
11
0.962987
21
3.40073
0
LINE
8
BLACK
6
CONTINUOUS
10
0.962987
20
3.40073
11
0.960432
21
3.40243
0
LINE
8
BLACK
6
CONTINUOUS
10
0.960432
20
3.40243
11
0.958725
21
3.40499
0
LINE
8
BLACK
6
CONTINUOUS
10
0.958725
20
3.40499
11
0.958126
21
3.408
0
LINE
8
BLACK
6
CONTINUOUS
10
0.958126
20
3.408
11
0.958126
21
3.468
0
LINE
8
BLACK
6
CONTINUOUS
10
0.958126
20
3.468
11
0.958725
21
3.47101
0
LINE
8
BLACK
6
CONTINUOUS
10
0.958725
20
3.47101
11
0.960432
21
3.47357
0
LINE
8
BLACK
6
CONTINUOUS
10
0.960432
20
3.47357
11
0.962987
21
3.47527
0
LINE
8
BLACK
6
CONTINUOUS
10
0.962987
20
3.47527
11
0.966
21
3.47587
0
LINE
8
BLACK
6
CONTINUOUS
10
0.966
20
3.47587
11
1.026
21
3.47587
0
LINE
8
BLACK
6
CONTINUOUS
10
1.026
20
3.47587
11
1.02901
21
3.47527
0
LINE
8
BLACK
6
CONTINUOUS
10
1.05301
20
3.67927
11
1.05557
21
3.67757
0
LINE
8
BLACK
6
CONTINUOUS
10
1.05557
20
3.67757
11
1.05727
21
3.67501
0
LINE
8
BLACK
6
CONTINUOUS
10
1.05727
20
3.67501
11
1.05787
21
3.672
0
LINE
8
BLACK
6
CONTINUOUS
10
1.05787
20
3.672
11
1.05787
21
3.612
0
LINE
8
BLACK
6
CONTINUOUS
10
1.05787
20
3.612
11
1.05727
21
3.60899
0
LINE
8
BLACK
6
CONTINUOUS
10
1.05727
20
3.60899
11
1.05557
21
3.60643
0
LINE
8
BLACK
6
CONTINUOUS
10
1.05557
20
3.60643
11
1.05301
21
3.60473
0
LINE
8
BLACK
6
CONTINUOUS
10
1.05301
20
3.60473
11
1.05
21
3.60413
0
LINE
8
BLACK
6
CONTINUOUS
10
1.05
20
3.60413
11
0.99
21
3.60413
0
LINE
8
BLACK
6
CONTINUOUS
10
0.99
20
3.60413
11
0.986987
21
3.60473
0
LINE
8
BLACK
6
CONTINUOUS
10
0.986987
20
3.60473
11
0.984432
21
3.60643
0
LINE
8
BLACK
6
CONTINUOUS
10
0.984432
20
3.60643
11
0.982725
21
3.60899
0
LINE
8
BLACK
6
CONTINUOUS
10
0.982725
20
3.60899
11
0.982126
21
3.612
0
LINE
8
BLACK
6
CONTINUOUS
10
0.982126
20
3.612
11
0.982126
21
3.672
0
LINE
8
BLACK
6
CONTINUOUS
10
0.982126
20
3.672
11
0.982725
21
3.67501
0
LINE
8
BLACK
6
CONTINUOUS
10
0.982725
20
3.67501
11
0.984432
21
3.67757
0
LINE
8
BLACK
6
CONTINUOUS
10
0.984432
20
3.67757
11
0.986987
21
3.67927
0
LINE
8
BLACK
6
CONTINUOUS
10
0.986987
20
3.67927
11
0.99
21
3.67987
0
LINE
8
BLACK
6
CONTINUOUS
10
0.99
20
3.67987
11
1.05
21
3.67987
0
LINE
8
BLACK
6
CONTINUOUS
10
1.05
20
3.67987
11
1.05301
21
3.67927
0
LINE
8
BLACK
6
CONTINUOUS
10
1.15301
20
3.67927
11
1.15557
21
3.67757
0
LINE
8
BLACK
6
CONTINUOUS
10
1.15557
20
3.67757
11
1.15727
21
3.67501
0
LINE
8
BLACK
6
CONTINUOUS
10
1.15727
20
3.67501
11
1.15787
21
3.672
0
LINE
8
BLACK
6
CONTINUOUS
10
1.15787
20
3.672
11
1.15787
21
3.612
0
LINE
8
BLACK
6
CONTINUOUS
10
1.15787
20
3.612
11
1.15727
21
3.60899
0
LINE
8
BLACK
6
CONTINUOUS
10
1.15727
20
3.60899
11
1.15557
21
3.60643
0
LINE
8
BLACK
6
CONTINUOUS
10
1.15557
20
3.60643
11
1.15301
21
3.60473
0
LINE
8
BLACK
6
CONTINUOUS
10
1.15301
20
3.60473
11
1.15
21
3.60413
0
LINE
8
BLACK
6
CONTINUOUS
10
1.15
20
3.60413
11
1.09
21
3.60413
0
LINE
8
BLACK
6
CONTINUOUS
10
1.09
20
3.60413
11
1.08699
21
3.60473
0
LINE
8
BLACK
6
CONTINUOUS
10
1.08699
20
3.60473
11
1.08443
21
3.60643
0
LINE
8
BLACK
6
CONTINUOUS
10
1.08443
20
3.60643
11
1.08273
21
3.60899
0
LINE
8
BLACK
6
CONTINUOUS
10
1.08273
20
3.60899
11
1.08213
21
3.612
0
LINE
8
BLACK
6
CONTINUOUS
10
1.08213
20
3.612
11
1.08213
21
3.672
0
LINE
8
BLACK
6
CONTINUOUS
10
1.08213
20
3.672
11
1.08273
21
3.67501
0
LINE
8
BLACK
6
CONTINUOUS
10
1.08273
20
3.67501
11
1.08443
21
3.67757
0
LINE
8
BLACK
6
CONTINUOUS
10
1.08443
20
3.67757
11
1.08699
21
3.67927
0
LINE
8
BLACK
6
CONTINUOUS
10
1.08699
20
3.67927
11
1.09
21
3.67987
0
LINE
8
BLACK
6
CONTINUOUS
10
1.09
20
3.67987
11
1.15
21
3.67987
0
LINE
8
BLACK
6
CONTINUOUS
10
1.15
20
3.67987
11
1.15301
21
3.67927
0
LINE
8
BLACK
6
CONTINUOUS
10
1.05301
20
3.77927
11
1.05557
21
3.77757
0
LINE
8
BLACK
6
CONTINUOUS
10
1.05557
20
3.77757
11
1.05727
21
3.77501
0
LINE
8
BLACK
6
CONTINUOUS
10
1.05727
20
3.77501
11
1.05787
21
3.772
0
LINE
8
BLACK
6
CONTINUOUS
10
1.05787
20
3.772
11
1.05787
21
3.712
0
LINE
8
BLACK
6
CONTINUOUS
10
1.05787
20
3.712
11
1.05727
21
3.70899
0
LINE
8
BLACK
6
CONTINUOUS
10
1.05727
20
3.70899
11
1.05557
21
3.70643
0
LINE
8
BLACK
6
CONTINUOUS
10
1.05557
20
3.70643
11
1.05301
21
3.70473
0
LINE
8
BLACK
6
CONTINUOUS
10
1.05301
20
3.70473
11
1.05
21
3.70413
0
LINE
8
BLACK
6
CONTINUOUS
10
1.05
20
3.70413
11
0.99
21
3.70413
0
LINE
8
BLACK
6
CONTINUOUS
10
0.99
20
3.70413
11
0.986987
21
3.70473
0
LINE
8
BLACK
6
CONTINUOUS
10
0.986987
20
3.70473
11
0.984432
21
3.70643
0
LINE
8
BLACK
6
CONTINUOUS
10
0.984432
20
3.70643
11
0.982725
21
3.70899
0
LINE
8
BLACK
6
CONTINUOUS
10
0.982725
20
3.70899
11
0.982126
21
3.712
0
LINE
8
BLACK
6
CONTINUOUS
10
0.982126
20
3.712
11
0.982126
21
3.772
0
LINE
8
BLACK
6
CONTINUOUS
10
0.982126
20
3.772
11
0.982725
21
3.77501
0
LINE
8
BLACK
6
CONTINUOUS
10
0.982725
20
3.77501
11
0.984432
21
3.77757
0
LINE
8
BLACK
6
CONTINUOUS
10
0.984432
20
3.77757
11
0.986987
21
3.77927
0
LINE
8
BLACK
6
CONTINUOUS
10
0.986987
20
3.77927
11
0.99
21
3.77987
0
LINE
8
BLACK
6
CONTINUOUS
10
0.99
20
3.77987
11
1.05
21
3.77987
0
LINE
8
BLACK
6
CONTINUOUS
10
1.05
20
3.77987
11
1.05301
21
3.77927
0
LINE
8
BLACK
6
CONTINUOUS
10
1.15301
20
3.77927
11
1.15557
21
3.77757
0
LINE
8
BLACK
6
CONTINUOUS
10
1.15557
20
3.77757
11
1.15727
21
3.77501
0
LINE
8
BLACK
6
CONTINUOUS
10
1.15727
20
3.77501
11
1.15787
21
3.772
0
LINE
8
BLACK
6
CONTINUOUS
10
1.15787
20
3.772
11
1.15787
21
3.712
0
LINE
8
BLACK
6
CONTINUOUS
10
1.15787
20
3.712
11
1.15727
21
3.70899
0
LINE
8
BLACK
6
CONTINUOUS
10
1.15727
20
3.70899
11
1.15557
21
3.70643
0
LINE
8
BLACK
6
CONTINUOUS
10
1.15557
20
3.70643
11
1.15301
21
3.70473
0
LINE
8
BLACK
6
CONTINUOUS
10
1.15301
20
3.70473
11
1.15
21
3.70413
0
LINE
8
BLACK
6
CONTINUOUS
10
1.15
20
3.70413
11
1.09
21
3.70413
0
LINE
8
BLACK
6
CONTINUOUS
10
1.09
20
3.70413
11
1.08699
21
3.70473
0
LINE
8
BLACK
6
CONTINUOUS
10
1.08699
20
3.70473
11
1.08443
21
3.70643
0
LINE
8
BLACK
6
CONTINUOUS
10
1.08443
20
3.70643
11
1.08273
21
3.70899
0
LINE
8
BLACK
6
CONTINUOUS
10
1.08273
20
3.70899
11
1.08213
21
3.712
0
LINE
8
BLACK
6
CONTINUOUS
10
1.08213
20
3.712
11
1.08213
21
3.772
0
LINE
8
BLACK
6
CONTINUOUS
10
1.08213
20
3.772
11
1.08273
21
3.77501
0
LINE
8
BLACK
6
CONTINUOUS
10
1.08273
20
3.77501
11
1.08443
21
3.77757
0
LINE
8
BLACK
6
CONTINUOUS
10
1.08443
20
3.77757
11
1.08699
21
3.77927
0
LINE
8
BLACK
6
CONTINUOUS
10
1.08699
20
3.77927
11
1.09
21
3.77987
0
LINE
8
BLACK
6
CONTINUOUS
10
1.09
20
3.77987
11
1.15
21
3.77987
0
LINE
8
BLACK
6
CONTINUOUS
10
1.15
20
3.77987
11
1.15301
21
3.77927
0
LINE
8
BLACK
6
CONTINUOUS
10
1.05301
20
3.87927
11
1.05557
21
3.87757
0
LINE
8
BLACK
6
CONTINUOUS
10
1.05557
20
3.87757
11
1.05727
21
3.87501
0
LINE
8
BLACK
6
CONTINUOUS
10
1.05727
20
3.87501
11
1.05787
21
3.872
0
LINE
8
BLACK
6
CONTINUOUS
10
1.05787
20
3.872
11
1.05787
21
3.812
0
LINE
8
BLACK
6
CONTINUOUS
10
1.05787
20
3.812
11
1.05727
21
3.80899
0
LINE
8
BLACK
6
CONTINUOUS
10
1.05727
20
3.80899
11
1.05557
21
3.80643
0
LINE
8
BLACK
6
CONTINUOUS
10
1.05557
20
3.80643
11
1.05301
21
3.80473
0
LINE
8
BLACK
6
CONTINUOUS
10
1.05301
20
3.80473
11
1.05
21
3.80413
0
LINE
8
BLACK
6
CONTINUOUS
10
1.05
20
3.80413
11
0.99
21
3.80413
0
LINE
8
BLACK
6
CONTINUOUS
10
0.99
20
3.80413
11
0.986987
21
3.80473
0
LINE
8
BLACK
6
CONTINUOUS
10
0.986987
20
3.80473
11
0.984432
21
3.80643
0
LINE
8
BLACK
6
CONTINUOUS
10
0.984432
20
3.80643
11
0.982725
21
3.80899
0
LINE
8
BLACK
6
CONTINUOUS
10
0.982725
20
3.80899
11
0.982126
21
3.812
0
LINE
8
BLACK
6
CONTINUOUS
10
0.982126
20
3.812
11
0.982126
21
3.872
0
LINE
8
BLACK
6
CONTINUOUS
10
0.982126
20
3.872
11
0.982725
21
3.87501
0
LINE
8
BLACK
6
CONTINUOUS
10
0.982725
20
3.87501
11
0.984432
21
3.87757
0
LINE
8
BLACK
6
CONTINUOUS
10
0.984432
20
3.87757
11
0.986987
21
3.87927
0
LINE
8
BLACK
6
CONTINUOUS
10
0.986987
20
3.87927
11
0.99
21
3.87987
0
LINE
8
BLACK
6
CONTINUOUS
10
0.99
20
3.87987
11
1.05
21
3.87987
0
LINE
8
BLACK
6
CONTINUOUS
10
1.05
20
3.87987
11
1.05301
21
3.87927
0
LINE
8
BLACK
6
CONTINUOUS
10
1.15301
20
3.87927
11
1.15557
21
3.87757
0
LINE
8
BLACK
6
CONTINUOUS
10
1.15557
20
3.87757
11
1.15727
21
3.87501
0
LINE
8
BLACK
6
CONTINUOUS
10
1.15727
20
3.87501
11
1.15787
21
3.872
0
LINE
8
BLACK
6
CONTINUOUS
10
1.15787
20
3.872
11
1.15787
21
3.812
0
LINE
8
BLACK
6
CONTINUOUS
10
1.15787
20
3.812
11
1.15727
21
3.80899
0
LINE
8
BLACK
6
CONTINUOUS
10
1.15727
20
3.80899
11
1.15557
21
3.80643
0
LINE
8
BLACK
6
CONTINUOUS
10
1.15557
20
3.80643
11
1.15301
21
3.80473
0
LINE
8
BLACK
6
CONTINUOUS
10
1.15301
20
3.80473
11
1.15
21
3.80413
0
LINE
8
BLACK
6
CONTINUOUS
10
1.15
20
3.80413
11
1.09
21
3.80413
0
LINE
8
BLACK
6
CONTINUOUS
10
1.09
20
3.80413
11
1.08699
21
3.80473
0
LINE
8
BLACK
6
CONTINUOUS
10
1.08699
20
3.80473
11
1.08443
21
3.80643
0
LINE
8
BLACK
6
CONTINUOUS
10
1.08443
20
3.80643
11
1.08273
21
3.80899
0
LINE
8
BLACK
6
CONTINUOUS
10
1.08273
20
3.80899
11
1.08213
21
3.812
0
LINE
8
BLACK
6
CONTINUOUS
10
1.08213
20
3.812
11
1.08213
21
3.872
0
LINE
8
BLACK
6
CONTINUOUS
10
1.08213
20
3.872
11
1.08273
21
3.87501
0
LINE
8
BLACK
6
CONTINUOUS
10
1.08273
20
3.87501
11
1.08443
21
3.87757
0
LINE
8
BLACK
6
CONTINUOUS
10
1.08443
20
3.87757
11
1.08699
21
3.87927
0
LINE
8
BLACK
6
CONTINUOUS
10
1.08699
20
3.87927
11
1.09
21
3.87987
0
LINE
8
BLACK
6
CONTINUOUS
10
1.09
20
3.87987
11
1.15
21
3.87987
0
LINE
8
BLACK
6
CONTINUOUS
10
1.15
20
3.87987
11
1.15301
21
3.87927
0
LINE
8
BLACK
6
CONTINUOUS
10
1.05301
20
3.97927
11
1.05557
21
3.97757
0
LINE
8
BLACK
6
CONTINUOUS
10
1.05557
20
3.97757
11
1.05727
21
3.97501
0
LINE
8
BLACK
6
CONTINUOUS
10
1.05727
20
3.97501
11
1.05787
21
3.972
0
LINE
8
BLACK
6
CONTINUOUS
10
1.05787
20
3.972
11
1.05787
21
3.912
0
LINE
8
BLACK
6
CONTINUOUS
10
1.05787
20
3.912
11
1.05727
21
3.90899
0
LINE
8
BLACK
6
CONTINUOUS
10
1.05727
20
3.90899
11
1.05557
21
3.90643
0
LINE
8
BLACK
6
CONTINUOUS
10
1.05557
20
3.90643
11
1.05301
21
3.90473
0
LINE
8
BLACK
6
CONTINUOUS
10
1.05301
20
3.90473
11
1.05
21
3.90413
0
LINE
8
BLACK
6
CONTINUOUS
10
1.05
20
3.90413
11
0.99
21
3.90413
0
LINE
8
BLACK
6
CONTINUOUS
10
0.99
20
3.90413
11
0.986987
21
3.90473
0
LINE
8
BLACK
6
CONTINUOUS
10
0.986987
20
3.90473
11
0.984432
21
3.90643
0
LINE
8
BLACK
6
CONTINUOUS
10
0.984432
20
3.90643
11
0.982725
21
3.90899
0
LINE
8
BLACK
6
CONTINUOUS
10
0.982725
20
3.90899
11
0.982126
21
3.912
0
LINE
8
BLACK
6
CONTINUOUS
10
0.982126
20
3.912
11
0.982126
21
3.972
0
LINE
8
BLACK
6
CONTINUOUS
10
0.982126
20
3.972
11
0.982725
21
3.97501
0
LINE
8
BLACK
6
CONTINUOUS
10
0.982725
20
3.97501
11
0.984432
21
3.97757
0
LINE
8
BLACK
6
CONTINUOUS
10
0.984432
20
3.97757
11
0.986987
21
3.97927
0
LINE
8
BLACK
6
CONTINUOUS
10
0.986987
20
3.97927
11
0.99
21
3.97987
0
LINE
8
BLACK
6
CONTINUOUS
10
0.99
20
3.97987
11
1.05
21
3.97987
0
LINE
8
BLACK
6
CONTINUOUS
10
1.05
20
3.97987
11
1.05301
21
3.97927
0
LINE
8
BLACK
6
CONTINUOUS
10
1.15301
20
3.97927
11
1.15557
21
3.97757
0
LINE
8
BLACK
6
CONTINUOUS
10
1.15557
20
3.97757
11
1.15727
21
3.97501
0
LINE
8
BLACK
6
CONTINUOUS
10
1.15727
20
3.97501
11
1.15787
21
3.972
0
LINE
8
BLACK
6
CONTINUOUS
10
1.15787
20
3.972
11
1.15787
21
3.912
0
LINE
8
BLACK
6
CONTINUOUS
10
1.15787
20
3.912
11
1.15727
21
3.90899
0
LINE
8
BLACK
6
CONTINUOUS
10
1.15727
20
3.90899
11
1.15557
21
3.90643
0
LINE
8
BLACK
6
CONTINUOUS
10
1.15557
20
3.90643
11
1.15301
21
3.90473
0
LINE
8
BLACK
6
CONTINUOUS
10
1.15301
20
3.90473
11
1.15
21
3.90413
0
LINE
8
BLACK
6
CONTINUOUS
10
1.15
20
3.90413
11
1.09
21
3.90413
0
LINE
8
BLACK
6
CONTINUOUS
10
1.09
20
3.90413
11
1.08699
21
3.90473
0
LINE
8
BLACK
6
CONTINUOUS
10
1.08699
20
3.90473
11
1.08443
21
3.90643
0
LINE
8
BLACK
6
CONTINUOUS
10
1.08443
20
3.90643
11
1.08273
21
3.90899
0
LINE
8
BLACK
6
CONTINUOUS
10
1.08273
20
3.90899
11
1.08213
21
3.912
0
LINE
8
BLACK
6
CONTINUOUS
10
1.08213
20
3.912
11
1.08213
21
3.972
0
LINE
8
BLACK
6
CONTINUOUS
10
1.08213
20
3.972
11
1.08273
21
3.97501
0
LINE
8
BLACK
6
CONTINUOUS
10
1.08273
20
3.97501
11
1.08443
21
3.97757
0
LINE
8
BLACK
6
CONTINUOUS
10
1.08443
20
3.97757
11
1.08699
21
3.97927
0
LINE
8
BLACK
6
CONTINUOUS
10
1.08699
20
3.97927
11
1.09
21
3.97987
0
LINE
8
BLACK
6
CONTINUOUS
10
1.09
20
3.97987
11
1.15
21
3.97987
0
LINE
8
BLACK
6
CONTINUOUS
10
1.15
20
3.97987
11
1.15301
21
3.97927
0
LINE
8
BLACK
6
CONTINUOUS
10
1.78845
20
4.14271
11
1.791
21
4.141
0
LINE
8
BLACK
6
CONTINUOUS
10
1.791
20
4.141
11
1.79271
21
4.13845
0
LINE
8
BLACK
6
CONTINUOUS
10
1.79271
20
4.13845
11
1.79331
21
4.13543
0
LINE
8
BLACK
6
CONTINUOUS
10
1.79331
20
4.13543
11
1.79331
21
4.06457
0
LINE
8
BLACK
6
CONTINUOUS
10
1.79331
20
4.06457
11
1.79271
21
4.06155
0
LINE
8
BLACK
6
CONTINUOUS
10
1.79271
20
4.06155
11
1.791
21
4.059
0
LINE
8
BLACK
6
CONTINUOUS
10
1.791
20
4.059
11
1.78845
21
4.05729
0
LINE
8
BLACK
6
CONTINUOUS
10
1.78845
20
4.05729
11
1.78543
21
4.05669
0
LINE
8
BLACK
6
CONTINUOUS
10
1.78543
20
4.05669
11
1.71457
21
4.05669
0
LINE
8
BLACK
6
CONTINUOUS
10
1.71457
20
4.05669
11
1.71155
21
4.05729
0
LINE
8
BLACK
6
CONTINUOUS
10
1.71155
20
4.05729
11
1.709
21
4.059
0
LINE
8
BLACK
6
CONTINUOUS
10
1.709
20
4.059
11
1.70729
21
4.06155
0
LINE
8
BLACK
6
CONTINUOUS
10
1.70729
20
4.06155
11
1.70669
21
4.06457
0
LINE
8
BLACK
6
CONTINUOUS
10
1.70669
20
4.06457
11
1.70669
21
4.13543
0
LINE
8
BLACK
6
CONTINUOUS
10
1.70669
20
4.13543
11
1.70729
21
4.13845
0
LINE
8
BLACK
6
CONTINUOUS
10
1.70729
20
4.13845
11
1.709
21
4.141
0
LINE
8
BLACK
6
CONTINUOUS
10
1.709
20
4.141
11
1.71155
21
4.14271
0
LINE
8
BLACK
6
CONTINUOUS
10
1.71155
20
4.14271
11
1.71457
21
4.14331
0
LINE
8
BLACK
6
CONTINUOUS
10
1.71457
20
4.14331
11
1.78543
21
4.14331
0
LINE
8
BLACK
6
CONTINUOUS
10
1.78543
20
4.14331
11
1.78845
21
4.14271
0
LINE
8
BLACK
6
CONTINUOUS
10
1.86185
20
4.14165
11
1.8693
21
4.13877
0
LINE
8
BLACK
6
CONTINUOUS
10
1.8693
20
4.13877
11
1.8761
21
4.13456
0
LINE
8
BLACK
6
CONTINUOUS
10
1.8761
20
4.13456
11
1.882
21
4.12918
0
LINE
8
BLACK
6
CONTINUOUS
10
1.882
20
4.12918
11
1.88682
21
4.1228
0
LINE
8
BLACK
6
CONTINUOUS
10
1.88682
20
4.1228
11
1.89038
21
4.11564
0
LINE
8
BLACK
6
CONTINUOUS
10
1.89038
20
4.11564
11
1.89257
21
4.10796
0
LINE
8
BLACK
6
CONTINUOUS
10
1.89257
20
4.10796
11
1.89331
21
4.1
0
LINE
8
BLACK
6
CONTINUOUS
10
1.89331
20
4.1
11
1.89257
21
4.09204
0
LINE
8
BLACK
6
CONTINUOUS
10
1.89257
20
4.09204
11
1.89038
21
4.08436
0
LINE
8
BLACK
6
CONTINUOUS
10
1.89038
20
4.08436
11
1.88682
21
4.0772
0
LINE
8
BLACK
6
CONTINUOUS
10
1.88682
20
4.0772
11
1.882
21
4.07082
0
LINE
8
BLACK
6
CONTINUOUS
10
1.882
20
4.07082
11
1.8761
21
4.06544
0
LINE
8
BLACK
6
CONTINUOUS
10
1.8761
20
4.06544
11
1.8693
21
4.06123
0
LINE
8
BLACK
6
CONTINUOUS
10
1.8693
20
4.06123
11
1.86185
21
4.05835
0
LINE
8
BLACK
6
CONTINUOUS
10
1.86185
20
4.05835
11
1.854
21
4.05688
0
LINE
8
BLACK
6
CONTINUOUS
10
1.854
20
4.05688
11
1.846
21
4.05688
0
LINE
8
BLACK
6
CONTINUOUS
10
1.846
20
4.05688
11
1.83815
21
4.05835
0
LINE
8
BLACK
6
CONTINUOUS
10
1.83815
20
4.05835
11
1.8307
21
4.06123
0
LINE
8
BLACK
6
CONTINUOUS
10
1.8307
20
4.06123
11
1.8239
21
4.06544
0
LINE
8
BLACK
6
CONTINUOUS
10
1.8239
20
4.06544
11
1.818
21
4.07082
0
LINE
8
BLACK
6
CONTINUOUS
10
1.818
20
4.07082
11
1.81318
21
4.0772
0
LINE
8
BLACK
6
CONTINUOUS
10
1.81318
20
4.0772
11
1.80962
21
4.08436
0
LINE
8
BLACK
6
CONTINUOUS
10
1.80962
20
4.08436
11
1.80743
21
4.09204
0
LINE
8
BLACK
6
CONTINUOUS
10
1.80743
20
4.09204
11
1.80669
21
4.1
0
LINE
8
BLACK
6
CONTINUOUS
10
1.80669
20
4.1
11
1.80743
21
4.10796
0
LINE
8
BLACK
6
CONTINUOUS
10
1.80743
20
4.10796
11
1.80962
21
4.11564
0
LINE
8
BLACK
6
CONTINUOUS
10
1.80962
20
4.11564
11
1.81318
21
4.1228
0
LINE
8
BLACK
6
CONTINUOUS
10
1.81318
20
4.1228
11
1.818
21
4.12918
0
LINE
8
BLACK
6
CONTINUOUS
10
1.818
20
4.12918
11
1.8239
21
4.13456
0
LINE
8
BLACK
6
CONTINUOUS
10
1.8239
20
4.13456
11
1.8307
21
4.13877
0
LINE
8
BLACK
6
CONTINUOUS
10
1.8307
20
4.13877
11
1.83815
21
4.14165
0
LINE
8
BLACK
6
CONTINUOUS
10
1.83815
20
4.14165
11
1.846
21
4.14312
0
LINE
8
BLACK
6
CONTINUOUS
10
1.846
20
4.14312
11
1.854
21
4.14312
0
LINE
8
BLACK
6
CONTINUOUS
10
1.854
20
4.14312
11
1.86185
21
4.14165
0
LINE
8
BLACK
6
CONTINUOUS
10
1.09784
20
4.32614
11
1.11177
21
4.32377
0
LINE
8
BLACK
6
CONTINUOUS
10
1.11177
20
4.32377
11
1.12534
21
4.31986
0
LINE
8
BLACK
6
CONTINUOUS
10
1.12534
20
4.31986
11
1.13839
21
4.31445
0
LINE
8
BLACK
6
CONTINUOUS
10
1.13839
20
4.31445
11
1.15076
21
4.30762
0
LINE
8
BLACK
6
CONTINUOUS
10
1.15076
20
4.30762
11
1.16228
21
4.29944
0
LINE
8
BLACK
6
CONTINUOUS
10
1.16228
20
4.29944
11
1.17282
21
4.29003
0
LINE
8
BLACK
6
CONTINUOUS
10
1.17282
20
4.29003
11
1.18223
21
4.27949
0
LINE
8
BLACK
6
CONTINUOUS
10
1.18223
20
4.27949
11
1.19041
21
4.26797
0
LINE
8
BLACK
6
CONTINUOUS
10
1.19041
20
4.26797
11
1.19724
21
4.25561
0
LINE
8
BLACK
6
CONTINUOUS
10
1.19724
20
4.25561
11
1.20265
21
4.24255
0
LINE
8
BLACK
6
CONTINUOUS
10
1.20265
20
4.24255
11
1.20656
21
4.22898
0
LINE
8
BLACK
6
CONTINUOUS
10
1.20656
20
4.22898
11
1.20892
21
4.21505
0
LINE
8
BLACK
6
CONTINUOUS
10
1.20892
20
4.21505
11
1.20972
21
4.20094
0
LINE
8
BLACK
6
CONTINUOUS
10
1.20972
20
4.20094
11
1.20892
21
4.18684
0
LINE
8
BLACK
6
CONTINUOUS
10
1.20892
20
4.18684
11
1.20656
21
4.17291
0
LINE
8
BLACK
6
CONTINUOUS
10
1.20656
20
4.17291
11
1.20265
21
4.15933
0
LINE
8
BLACK
6
CONTINUOUS
10
1.20265
20
4.15933
11
1.19724
21
4.14628
0
LINE
8
BLACK
6
CONTINUOUS
10
1.19724
20
4.14628
11
1.19041
21
4.13392
0
LINE
8
BLACK
6
CONTINUOUS
10
1.19041
20
4.13392
11
1.18223
21
4.1224
0
LINE
8
BLACK
6
CONTINUOUS
10
1.18223
20
4.1224
11
1.17282
21
4.11186
0
LINE
8
BLACK
6
CONTINUOUS
10
1.17282
20
4.11186
11
1.16228
21
4.10245
0
LINE
8
BLACK
6
CONTINUOUS
10
1.16228
20
4.10245
11
1.15076
21
4.09427
0
LINE
8
BLACK
6
CONTINUOUS
10
1.15076
20
4.09427
11
1.13839
21
4.08744
0
LINE
8
BLACK
6
CONTINUOUS
10
1.13839
20
4.08744
11
1.12534
21
4.08203
0
LINE
8
BLACK
6
CONTINUOUS
10
1.12534
20
4.08203
11
1.11177
21
4.07812
0
LINE
8
BLACK
6
CONTINUOUS
10
1.11177
20
4.07812
11
1.09784
21
4.07575
0
LINE
8
BLACK
6
CONTINUOUS
10
1.09784
20
4.07575
11
1.08373
21
4.07496
0
LINE
8
BLACK
6
CONTINUOUS
10
1.08373
20
4.07496
11
1.06963
21
4.07575
0
LINE
8
BLACK
6
CONTINUOUS
10
1.06963
20
4.07575
11
1.0557
21
4.07812
0
LINE
8
BLACK
6
CONTINUOUS
10
1.0557
20
4.07812
11
1.04212
21
4.08203
0
LINE
8
BLACK
6
CONTINUOUS
10
1.04212
20
4.08203
11
1.02907
21
4.08744
0
LINE
8
BLACK
6
CONTINUOUS
10
1.02907
20
4.08744
11
1.0167
21
4.09427
0
LINE
8
BLACK
6
CONTINUOUS
10
1.0167
20
4.09427
11
1.00518
21
4.10245
0
LINE
8
BLACK
6
CONTINUOUS
10
1.00518
20
4.10245
11
0.994648
21
4.11186
0
LINE
8
BLACK
6
CONTINUOUS
10
0.994648
20
4.11186
11
0.985234
21
4.1224
0
LINE
8
BLACK
6
CONTINUOUS
10
0.985234
20
4.1224
11
0.977058
21
4.13392
0
LINE
8
BLACK
6
CONTINUOUS
10
0.977058
20
4.13392
11
0.970224
21
4.14628
0
LINE
8
BLACK
6
CONTINUOUS
10
0.970224
20
4.14628
11
0.964818
21
4.15933
0
LINE
8
BLACK
6
CONTINUOUS
10
0.964818
20
4.15933
11
0.960907
21
4.17291
0
LINE
8
BLACK
6
CONTINUOUS
10
0.960907
20
4.17291
11
0.95854
21
4.18684
0
LINE
8
BLACK
6
CONTINUOUS
10
0.95854
20
4.18684
11
0.957748
21
4.20094
0
LINE
8
BLACK
6
CONTINUOUS
10
0.957748
20
4.20094
11
0.95854
21
4.21505
0
LINE
8
BLACK
6
CONTINUOUS
10
0.95854
20
4.21505
11
0.960907
21
4.22898
0
LINE
8
BLACK
6
CONTINUOUS
10
0.960907
20
4.22898
11
0.964818
21
4.24255
0
LINE
8
BLACK
6
CONTINUOUS
10
0.964818
20
4.24255
11
0.970224
21
4.25561
0
LINE
8
BLACK
6
CONTINUOUS
10
0.970224
20
4.25561
11
0.977058
21
4.26797
0
LINE
8
BLACK
6
CONTINUOUS
10
0.977058
20
4.26797
11
0.985234
21
4.27949
0
LINE
8
BLACK
6
CONTINUOUS
10
0.985234
20
4.27949
11
0.994648
21
4.29003
0
LINE
8
BLACK
6
CONTINUOUS
10
0.994648
20
4.29003
11
1.00518
21
4.29944
0
LINE
8
BLACK
6
CONTINUOUS
10
1.00518
20
4.29944
11
1.0167
21
4.30762
0
LINE
8
BLACK
6
CONTINUOUS
10
1.0167
20
4.30762
11
1.02907
21
4.31445
0
LINE
8
BLACK
6
CONTINUOUS
10
1.02907
20
4.31445
11
1.04212
21
4.31986
0
LINE
8
BLACK
6
CONTINUOUS
10
1.04212
20
4.31986
11
1.0557
21
4.32377
0
LINE
8
BLACK
6
CONTINUOUS
10
1.0557
20
4.32377
11
1.06963
21
4.32614
0
LINE
8
BLACK
6
CONTINUOUS
10
1.06963
20
4.32614
11
1.08373
21
4.32693
0
LINE
8
BLACK
6
CONTINUOUS
10
1.08373
20
4.32693
11
1.09784
21
4.32614
0
LINE
8
BLACK
6
CONTINUOUS
10
2.29784
20
4.32614
11
2.31177
21
4.32377
0
LINE
8
BLACK
6
CONTINUOUS
10
2.31177
20
4.32377
11
2.32534
21
4.31986
0
LINE
8
BLACK
6
CONTINUOUS
10
2.32534
20
4.31986
11
2.33839
21
4.31445
0
LINE
8
BLACK
6
CONTINUOUS
10
2.33839
20
4.31445
11
2.35076
21
4.30762
0
LINE
8
BLACK
6
CONTINUOUS
10
2.35076
20
4.30762
11
2.36228
21
4.29944
0
LINE
8
BLACK
6
CONTINUOUS
10
2.36228
20
4.29944
11
2.37282
21
4.29003
0
LINE
8
BLACK
6
CONTINUOUS
10
2.37282
20
4.29003
11
2.38223
21
4.27949
0
LINE
8
BLACK
6
CONTINUOUS
10
2.38223
20
4.27949
11
2.39041
21
4.26797
0
LINE
8
BLACK
6
CONTINUOUS
10
2.39041
20
4.26797
11
2.39724
21
4.25561
0
LINE
8
BLACK
6
CONTINUOUS
10
2.39724
20
4.25561
11
2.40265
21
4.24255
0
LINE
8
BLACK
6
CONTINUOUS
10
2.40265
20
4.24255
11
2.40656
21
4.22898
0
LINE
8
BLACK
6
CONTINUOUS
10
2.40656
20
4.22898
11
2.40892
21
4.21505
0
LINE
8
BLACK
6
CONTINUOUS
10
2.40892
20
4.21505
11
2.40972
21
4.20094
0
LINE
8
BLACK
6
CONTINUOUS
10
2.40972
20
4.20094
11
2.40892
21
4.18684
0
LINE
8
BLACK
6
CONTINUOUS
10
2.40892
20
4.18684
11
2.40656
21
4.17291
0
LINE
8
BLACK
6
CONTINUOUS
10
2.40656
20
4.17291
11
2.40265
21
4.15933
0
LINE
8
BLACK
6
CONTINUOUS
10
2.40265
20
4.15933
11
2.39724
21
4.14628
0
LINE
8
BLACK
6
CONTINUOUS
10
2.39724
20
4.14628
11
2.39041
21
4.13392
0
LINE
8
BLACK
6
CONTINUOUS
10
2.39041
20
4.13392
11
2.38223
21
4.1224
0
LINE
8
BLACK
6
CONTINUOUS
10
2.38223
20
4.1224
11
2.37282
21
4.11186
0
LINE
8
BLACK
6
CONTINUOUS
10
2.37282
20
4.11186
11
2.36228
21
4.10245
0
LINE
8
BLACK
6
CONTINUOUS
10
2.36228
20
4.10245
11
2.35076
21
4.09427
0
LINE
8
BLACK
6
CONTINUOUS
10
2.35076
20
4.09427
11
2.33839
21
4.08744
0
LINE
8
BLACK
6
CONTINUOUS
10
2.33839
20
4.08744
11
2.32534
21
4.08203
0
LINE
8
BLACK
6
CONTINUOUS
10
2.32534
20
4.08203
11
2.31177
21
4.07812
0
LINE
8
BLACK
6
CONTINUOUS
10
2.31177
20
4.07812
11
2.29784
21
4.07575
0
LINE
8
BLACK
6
CONTINUOUS
10
2.29784
20
4.07575
11
2.28373
21
4.07496
0
LINE
8
BLACK
6
CONTINUOUS
10
2.28373
20
4.07496
11
2.26963
21
4.07575
0
LINE
8
BLACK
6
CONTINUOUS
10
2.26963
20
4.07575
11
2.2557
21
4.07812
0
LINE
8
BLACK
6
CONTINUOUS
10
2.2557
20
4.07812
11
2.24212
21
4.08203
0
LINE
8
BLACK
6
CONTINUOUS
10
2.24212
20
4.08203
11
2.22907
21
4.08744
0
LINE
8
BLACK
6
CONTINUOUS
10
2.22907
20
4.08744
11
2.2167
21
4.09427
0
LINE
8
BLACK
6
CONTINUOUS
10
2.2167
20
4.09427
11
2.20518
21
4.10245
0
LINE
8
BLACK
6
CONTINUOUS
10
2.20518
20
4.10245
11
2.19465
21
4.11186
0
LINE
8
BLACK
6
CONTINUOUS
10
2.19465
20
4.11186
11
2.18523
21
4.1224
0
LINE
8
BLACK
6
CONTINUOUS
10
2.18523
20
4.1224
11
2.17706
21
4.13392
0
LINE
8
BLACK
6
CONTINUOUS
10
2.17706
20
4.13392
11
2.17022
21
4.14628
0
LINE
8
BLACK
6
CONTINUOUS
10
2.17022
20
4.14628
11
2.16482
21
4.15933
0
LINE
8
BLACK
6
CONTINUOUS
10
2.16482
20
4.15933
11
2.16091
21
4.17291
0
LINE
8
BLACK
6
CONTINUOUS
10
2.16091
20
4.17291
11
2.15854
21
4.18684
0
LINE
8
BLACK
6
CONTINUOUS
10
2.15854
20
4.18684
11
2.15775
21
4.20094
0
LINE
8
BLACK
6
CONTINUOUS
10
2.15775
20
4.20094
11
2.15854
21
4.21505
0
LINE
8
BLACK
6
CONTINUOUS
10
2.15854
20
4.21505
11
2.16091
21
4.22898
0
LINE
8
BLACK
6
CONTINUOUS
10
2.16091
20
4.22898
11
2.16482
21
4.24255
0
LINE
8
BLACK
6
CONTINUOUS
10
2.16482
20
4.24255
11
2.17022
21
4.25561
0
LINE
8
BLACK
6
CONTINUOUS
10
2.17022
20
4.25561
11
2.17706
21
4.26797
0
LINE
8
BLACK
6
CONTINUOUS
10
2.17706
20
4.26797
11
2.18523
21
4.27949
0
LINE
8
BLACK
6
CONTINUOUS
10
2.18523
20
4.27949
11
2.19465
21
4.29003
0
LINE
8
BLACK
6
CONTINUOUS
10
2.19465
20
4.29003
11
2.20518
21
4.29944
0
LINE
8
BLACK
6
CONTINUOUS
10
2.20518
20
4.29944
11
2.2167
21
4.30762
0
LINE
8
BLACK
6
CONTINUOUS
10
2.2167
20
4.30762
11
2.22907
21
4.31445
0
LINE
8
BLACK
6
CONTINUOUS
10
2.22907
20
4.31445
11
2.24212
21
4.31986
0
LINE
8
BLACK
6
CONTINUOUS
10
2.24212
20
4.31986
11
2.2557
21
4.32377
0
LINE
8
BLACK
6
CONTINUOUS
10
2.2557
20
4.32377
11
2.26963
21
4.32614
0
LINE
8
BLACK
6
CONTINUOUS
10
2.26963
20
4.32614
11
2.28373
21
4.32693
0
LINE
8
BLACK
6
CONTINUOUS
10
2.28373
20
4.32693
11
2.29784
21
4.32614
0
LINE
8
BLACK
6
CONTINUOUS
10
1.40893
20
4.99728
11
1.41706
21
4.99413
0
LINE
8
BLACK
6
CONTINUOUS
10
1.41706
20
4.99413
11
1.42447
21
4.98954
0
LINE
8
BLACK
6
CONTINUOUS
10
1.42447
20
4.98954
11
1.43091
21
4.98367
0
LINE
8
BLACK
6
CONTINUOUS
10
1.43091
20
4.98367
11
1.43617
21
4.97671
0
LINE
8
BLACK
6
CONTINUOUS
10
1.43617
20
4.97671
11
1.44005
21
4.96891
0
LINE
8
BLACK
6
CONTINUOUS
10
1.44005
20
4.96891
11
1.44244
21
4.96052
0
LINE
8
BLACK
6
CONTINUOUS
10
1.44244
20
4.96052
11
1.44324
21
4.95184
0
LINE
8
BLACK
6
CONTINUOUS
10
1.44324
20
4.95184
11
1.44244
21
4.94316
0
LINE
8
BLACK
6
CONTINUOUS
10
1.44244
20
4.94316
11
1.44005
21
4.93478
0
LINE
8
BLACK
6
CONTINUOUS
10
1.44005
20
4.93478
11
1.43617
21
4.92697
0
LINE
8
BLACK
6
CONTINUOUS
10
1.43617
20
4.92697
11
1.43091
21
4.92001
0
LINE
8
BLACK
6
CONTINUOUS
10
1.43091
20
4.92001
11
1.42447
21
4.91414
0
LINE
8
BLACK
6
CONTINUOUS
10
1.42447
20
4.91414
11
1.41706
21
4.90955
0
LINE
8
BLACK
6
CONTINUOUS
10
1.41706
20
4.90955
11
1.40893
21
4.9064
0
LINE
8
BLACK
6
CONTINUOUS
10
1.40893
20
4.9064
11
1.40036
21
4.9048
0
LINE
8
BLACK
6
CONTINUOUS
10
1.40036
20
4.9048
11
1.39164
21
4.9048
0
LINE
8
BLACK
6
CONTINUOUS
10
1.39164
20
4.9048
11
1.38307
21
4.9064
0
LINE
8
BLACK
6
CONTINUOUS
10
1.38307
20
4.9064
11
1.37494
21
4.90955
0
LINE
8
BLACK
6
CONTINUOUS
10
1.37494
20
4.90955
11
1.36753
21
4.91414
0
LINE
8
BLACK
6
CONTINUOUS
10
1.36753
20
4.91414
11
1.36109
21
4.92001
0
LINE
8
BLACK
6
CONTINUOUS
10
1.36109
20
4.92001
11
1.35583
21
4.92697
0
LINE
8
BLACK
6
CONTINUOUS
10
1.35583
20
4.92697
11
1.35195
21
4.93478
0
LINE
8
BLACK
6
CONTINUOUS
10
1.35195
20
4.93478
11
1.34956
21
4.94316
0
LINE
8
BLACK
6
CONTINUOUS
10
1.34956
20
4.94316
11
1.34876
21
4.95184
0
LINE
8
BLACK
6
CONTINUOUS
10
1.34876
20
4.95184
11
1.34956
21
4.96052
0
LINE
8
BLACK
6
CONTINUOUS
10
1.34956
20
4.96052
11
1.35195
21
4.96891
0
LINE
8
BLACK
6
CONTINUOUS
10
1.35195
20
4.96891
11
1.35583
21
4.97671
0
LINE
8
BLACK
6
CONTINUOUS
10
1.35583
20
4.97671
11
1.36109
21
4.98367
0
LINE
8
BLACK
6
CONTINUOUS
10
1.36109
20
4.98367
11
1.36753
21
4.98954
0
LINE
8
BLACK
6
CONTINUOUS
10
1.36753
20
4.98954
11
1.37494
21
4.99413
0
LINE
8
BLACK
6
CONTINUOUS
10
1.37494
20
4.99413
11
1.38307
21
4.99728
0
LINE
8
BLACK
6
CONTINUOUS
10
1.38307
20
4.99728
11
1.39164
21
4.99889
0
LINE
8
BLACK
6
CONTINUOUS
10
1.39164
20
4.99889
11
1.40036
21
4.99889
0
LINE
8
BLACK
6
CONTINUOUS
10
1.40036
20
4.99889
11
1.40893
21
4.99728
0
LINE
8
BLACK
6
CONTINUOUS
10
1.60893
20
4.99728
11
1.61706
21
4.99413
0
LINE
8
BLACK
6
CONTINUOUS
10
1.61706
20
4.99413
11
1.62447
21
4.98954
0
LINE
8
BLACK
6
CONTINUOUS
10
1.62447
20
4.98954
11
1.63091
21
4.98367
0
LINE
8
BLACK
6
CONTINUOUS
10
1.63091
20
4.98367
11
1.63617
21
4.97671
0
LINE
8
BLACK
6
CONTINUOUS
10
1.63617
20
4.97671
11
1.64005
21
4.96891
0
LINE
8
BLACK
6
CONTINUOUS
10
1.64005
20
4.96891
11
1.64244
21
4.96052
0
LINE
8
BLACK
6
CONTINUOUS
10
1.64244
20
4.96052
11
1.64324
21
4.95184
0
LINE
8
BLACK
6
CONTINUOUS
10
1.64324
20
4.95184
11
1.64244
21
4.94316
0
LINE
8
BLACK
6
CONTINUOUS
10
1.64244
20
4.94316
11
1.64005
21
4.93478
0
LINE
8
BLACK
6
CONTINUOUS
10
1.64005
20
4.93478
11
1.63617
21
4.92697
0
LINE
8
BLACK
6
CONTINUOUS
10
1.63617
20
4.92697
11
1.63091
21
4.92001
0
LINE
8
BLACK
6
CONTINUOUS
10
1.63091
20
4.92001
11
1.62447
21
4.91414
0
LINE
8
BLACK
6
CONTINUOUS
10
1.62447
20
4.91414
11
1.61706
21
4.90955
0
LINE
8
BLACK
6
CONTINUOUS
10
1.61706
20
4.90955
11
1.60893
21
4.9064
0
LINE
8
BLACK
6
CONTINUOUS
10
1.60893
20
4.9064
11
1.60036
21
4.9048
0
LINE
8
BLACK
6
CONTINUOUS
10
1.60036
20
4.9048
11
1.59164
21
4.9048
0
LINE
8
BLACK
6
CONTINUOUS
10
1.59164
20
4.9048
11
1.58307
21
4.9064
0
LINE
8
BLACK
6
CONTINUOUS
10
1.58307
20
4.9064
11
1.57494
21
4.90955
0
LINE
8
BLACK
6
CONTINUOUS
10
1.57494
20
4.90955
11
1.56753
21
4.91414
0
LINE
8
BLACK
6
CONTINUOUS
10
1.56753
20
4.91414
11
1.56109
21
4.92001
0
LINE
8
BLACK
6
CONTINUOUS
10
1.56109
20
4.92001
11
1.55583
21
4.92697
0
LINE
8
BLACK
6
CONTINUOUS
10
1.55583
20
4.92697
11
1.55195
21
4.93478
0
LINE
8
BLACK
6
CONTINUOUS
10
1.55195
20
4.93478
11
1.54956
21
4.94316
0
LINE
8
BLACK
6
CONTINUOUS
10
1.54956
20
4.94316
11
1.54876
21
4.95184
0
LINE
8
BLACK
6
CONTINUOUS
10
1.54876
20
4.95184
11
1.54956
21
4.96052
0
LINE
8
BLACK
6
CONTINUOUS
10
1.54956
20
4.96052
11
1.55195
21
4.96891
0
LINE
8
BLACK
6
CONTINUOUS
10
1.55195
20
4.96891
11
1.55583
21
4.97671
0
LINE
8
BLACK
6
CONTINUOUS
10
1.55583
20
4.97671
11
1.56109
21
4.98367
0
LINE
8
BLACK
6
CONTINUOUS
10
1.56109
20
4.98367
11
1.56753
21
4.98954
0
LINE
8
BLACK
6
CONTINUOUS
10
1.56753
20
4.98954
11
1.57494
21
4.99413
0
LINE
8
BLACK
6
CONTINUOUS
10
1.57494
20
4.99413
11
1.58307
21
4.99728
0
LINE
8
BLACK
6
CONTINUOUS
10
1.58307
20
4.99728
11
1.59164
21
4.99889
0
LINE
8
BLACK
6
CONTINUOUS
10
1.59164
20
4.99889
11
1.60036
21
4.99889
0
LINE
8
BLACK
6
CONTINUOUS
10
1.60036
20
4.99889
11
1.60893
21
4.99728
0
LINE
8
BLACK
6
CONTINUOUS
10
1.80893
20
4.99728
11
1.81706
21
4.99413
0
LINE
8
BLACK
6
CONTINUOUS
10
1.81706
20
4.99413
11
1.82447
21
4.98954
0
LINE
8
BLACK
6
CONTINUOUS
10
1.82447
20
4.98954
11
1.83091
21
4.98367
0
LINE
8
BLACK
6
CONTINUOUS
10
1.83091
20
4.98367
11
1.83617
21
4.97671
0
LINE
8
BLACK
6
CONTINUOUS
10
1.83617
20
4.97671
11
1.84005
21
4.96891
0
LINE
8
BLACK
6
CONTINUOUS
10
1.84005
20
4.96891
11
1.84244
21
4.96052
0
LINE
8
BLACK
6
CONTINUOUS
10
1.84244
20
4.96052
11
1.84324
21
4.95184
0
LINE
8
BLACK
6
CONTINUOUS
10
1.84324
20
4.95184
11
1.84244
21
4.94316
0
LINE
8
BLACK
6
CONTINUOUS
10
1.84244
20
4.94316
11
1.84005
21
4.93478
0
LINE
8
BLACK
6
CONTINUOUS
10
1.84005
20
4.93478
11
1.83617
21
4.92697
0
LINE
8
BLACK
6
CONTINUOUS
10
1.83617
20
4.92697
11
1.83091
21
4.92001
0
LINE
8
BLACK
6
CONTINUOUS
10
1.83091
20
4.92001
11
1.82447
21
4.91414
0
LINE
8
BLACK
6
CONTINUOUS
10
1.82447
20
4.91414
11
1.81706
21
4.90955
0
LINE
8
BLACK
6
CONTINUOUS
10
1.81706
20
4.90955
11
1.80893
21
4.9064
0
LINE
8
BLACK
6
CONTINUOUS
10
1.80893
20
4.9064
11
1.80036
21
4.9048
0
LINE
8
BLACK
6
CONTINUOUS
10
1.80036
20
4.9048
11
1.79164
21
4.9048
0
LINE
8
BLACK
6
CONTINUOUS
10
1.79164
20
4.9048
11
1.78307
21
4.9064
0
LINE
8
BLACK
6
CONTINUOUS
10
1.78307
20
4.9064
11
1.77494
21
4.90955
0
LINE
8
BLACK
6
CONTINUOUS
10
1.77494
20
4.90955
11
1.76753
21
4.91414
0
LINE
8
BLACK
6
CONTINUOUS
10
1.76753
20
4.91414
11
1.76109
21
4.92001
0
LINE
8
BLACK
6
CONTINUOUS
10
1.76109
20
4.92001
11
1.75583
21
4.92697
0
LINE
8
BLACK
6
CONTINUOUS
10
1.75583
20
4.92697
11
1.75195
21
4.93478
0
LINE
8
BLACK
6
CONTINUOUS
10
1.75195
20
4.93478
11
1.74956
21
4.94316
0
LINE
8
BLACK
6
CONTINUOUS
10
1.74956
20
4.94316
11
1.74876
21
4.95184
0
LINE
8
BLACK
6
CONTINUOUS
10
1.74876
20
4.95184
11
1.74956
21
4.96052
0
LINE
8
BLACK
6
CONTINUOUS
10
1.74956
20
4.96052
11
1.75195
21
4.96891
0
LINE
8
BLACK
6
CONTINUOUS
10
1.75195
20
4.96891
11
1.75583
21
4.97671
0
LINE
8
BLACK
6
CONTINUOUS
10
1.75583
20
4.97671
11
1.76109
21
4.98367
0
LINE
8
BLACK
6
CONTINUOUS
10
1.76109
20
4.98367
11
1.76753
21
4.98954
0
LINE
8
BLACK
6
CONTINUOUS
10
1.76753
20
4.98954
11
1.77494
21
4.99413
0
LINE
8
BLACK
6
CONTINUOUS
10
1.77494
20
4.99413
11
1.78307
21
4.99728
0
LINE
8
BLACK
6
CONTINUOUS
10
1.78307
20
4.99728
11
1.79164
21
4.99889
0
LINE
8
BLACK
6
CONTINUOUS
10
1.79164
20
4.99889
11
1.80036
21
4.99889
0
LINE
8
BLACK
6
CONTINUOUS
10
1.80036
20
4.99889
11
1.80893
21
4.99728
0
LINE
8
BLACK
6
CONTINUOUS
10
2.00893
20
4.99728
11
2.01706
21
4.99413
0
LINE
8
BLACK
6
CONTINUOUS
10
2.01706
20
4.99413
11
2.02447
21
4.98954
0
LINE
8
BLACK
6
CONTINUOUS
10
2.02447
20
4.98954
11
2.03091
21
4.98367
0
LINE
8
BLACK
6
CONTINUOUS
10
2.03091
20
4.98367
11
2.03617
21
4.97671
0
LINE
8
BLACK
6
CONTINUOUS
10
2.03617
20
4.97671
11
2.04005
21
4.96891
0
LINE
8
BLACK
6
CONTINUOUS
10
2.04005
20
4.96891
11
2.04244
21
4.96052
0
LINE
8
BLACK
6
CONTINUOUS
10
2.04244
20
4.96052
11
2.04324
21
4.95184
0
LINE
8
BLACK
6
CONTINUOUS
10
2.04324
20
4.95184
11
2.04244
21
4.94316
0
LINE
8
BLACK
6
CONTINUOUS
10
2.04244
20
4.94316
11
2.04005
21
4.93478
0
LINE
8
BLACK
6
CONTINUOUS
10
2.04005
20
4.93478
11
2.03617
21
4.92697
0
LINE
8
BLACK
6
CONTINUOUS
10
2.03617
20
4.92697
11
2.03091
21
4.92001
0
LINE
8
BLACK
6
CONTINUOUS
10
2.03091
20
4.92001
11
2.02447
21
4.91414
0
LINE
8
BLACK
6
CONTINUOUS
10
2.02447
20
4.91414
11
2.01706
21
4.90955
0
LINE
8
BLACK
6
CONTINUOUS
10
2.01706
20
4.90955
11
2.00893
21
4.9064
0
LINE
8
BLACK
6
CONTINUOUS
10
2.00893
20
4.9064
11
2.00036
21
4.9048
0
LINE
8
BLACK
6
CONTINUOUS
10
2.00036
20
4.9048
11
1.99164
21
4.9048
0
LINE
8
BLACK
6
CONTINUOUS
10
1.99164
20
4.9048
11
1.98307
21
4.9064
0
LINE
8
BLACK
6
CONTINUOUS
10
1.98307
20
4.9064
11
1.97494
21
4.90955
0
LINE
8
BLACK
6
CONTINUOUS
10
1.97494
20
4.90955
11
1.96753
21
4.91414
0
LINE
8
BLACK
6
CONTINUOUS
10
1.96753
20
4.91414
11
1.96109
21
4.92001
0
LINE
8
BLACK
6
CONTINUOUS
10
1.96109
20
4.92001
11
1.95583
21
4.92697
0
LINE
8
BLACK
6
CONTINUOUS
10
1.95583
20
4.92697
11
1.95195
21
4.93478
0
LINE
8
BLACK
6
CONTINUOUS
10
1.95195
20
4.93478
11
1.94956
21
4.94316
0
LINE
8
BLACK
6
CONTINUOUS
10
1.94956
20
4.94316
11
1.94876
21
4.95184
0
LINE
8
BLACK
6
CONTINUOUS
10
1.94876
20
4.95184
11
1.94956
21
4.96052
0
LINE
8
BLACK
6
CONTINUOUS
10
1.94956
20
4.96052
11
1.95195
21
4.96891
0
LINE
8
BLACK
6
CONTINUOUS
10
1.95195
20
4.96891
11
1.95583
21
4.97671
0
LINE
8
BLACK
6
CONTINUOUS
10
1.95583
20
4.97671
11
1.96109
21
4.98367
0
LINE
8
BLACK
6
CONTINUOUS
10
1.96109
20
4.98367
11
1.96753
21
4.98954
0
LINE
8
BLACK
6
CONTINUOUS
10
1.96753
20
4.98954
11
1.97494
21
4.99413
0
LINE
8
BLACK
6
CONTINUOUS
10
1.97494
20
4.99413
11
1.98307
21
4.99728
0
LINE
8
BLACK
6
CONTINUOUS
10
1.98307
20
4.99728
11
1.99164
21
4.99889
0
LINE
8
BLACK
6
CONTINUOUS
10
1.99164
20
4.99889
11
2.00036
21
4.99889
0
LINE
8
BLACK
6
CONTINUOUS
10
2.00036
20
4.99889
11
2.00893
21
4.99728
0
LINE
8
BLACK
6
CONTINUOUS
10
2.20893
20
4.99728
11
2.21706
21
4.99413
0
LINE
8
BLACK
6
CONTINUOUS
10
2.21706
20
4.99413
11
2.22447
21
4.98954
0
LINE
8
BLACK
6
CONTINUOUS
10
2.22447
20
4.98954
11
2.23091
21
4.98367
0
LINE
8
BLACK
6
CONTINUOUS
10
2.23091
20
4.98367
11
2.23617
21
4.97671
0
LINE
8
BLACK
6
CONTINUOUS
10
2.23617
20
4.97671
11
2.24005
21
4.96891
0
LINE
8
BLACK
6
CONTINUOUS
10
2.24005
20
4.96891
11
2.24244
21
4.96052
0
LINE
8
BLACK
6
CONTINUOUS
10
2.24244
20
4.96052
11
2.24324
21
4.95184
0
LINE
8
BLACK
6
CONTINUOUS
10
2.24324
20
4.95184
11
2.24244
21
4.94316
0
LINE
8
BLACK
6
CONTINUOUS
10
2.24244
20
4.94316
11
2.24005
21
4.93478
0
LINE
8
BLACK
6
CONTINUOUS
10
2.24005
20
4.93478
11
2.23617
21
4.92697
0
LINE
8
BLACK
6
CONTINUOUS
10
2.23617
20
4.92697
11
2.23091
21
4.92001
0
LINE
8
BLACK
6
CONTINUOUS
10
2.23091
20
4.92001
11
2.22447
21
4.91414
0
LINE
8
BLACK
6
CONTINUOUS
10
2.22447
20
4.91414
11
2.21706
21
4.90955
0
LINE
8
BLACK
6
CONTINUOUS
10
2.21706
20
4.90955
11
2.20893
21
4.9064
0
LINE
8
BLACK
6
CONTINUOUS
10
2.20893
20
4.9064
11
2.20036
21
4.9048
0
LINE
8
BLACK
6
CONTINUOUS
10
2.20036
20
4.9048
11
2.19164
21
4.9048
0
LINE
8
BLACK
6
CONTINUOUS
10
2.19164
20
4.9048
11
2.18307
21
4.9064
0
LINE
8
BLACK
6
CONTINUOUS
10
2.18307
20
4.9064
11
2.17494
21
4.90955
0
LINE
8
BLACK
6
CONTINUOUS
10
2.17494
20
4.90955
11
2.16753
21
4.91414
0
LINE
8
BLACK
6
CONTINUOUS
10
2.16753
20
4.91414
11
2.16109
21
4.92001
0
LINE
8
BLACK
6
CONTINUOUS
10
2.16109
20
4.92001
11
2.15583
21
4.92697
0
LINE
8
BLACK
6
CONTINUOUS
10
2.15583
20
4.92697
11
2.15195
21
4.93478
0
LINE
8
BLACK
6
CONTINUOUS
10
2.15195
20
4.93478
11
2.14956
21
4.94316
0
LINE
8
BLACK
6
CONTINUOUS
10
2.14956
20
4.94316
11
2.14876
21
4.95184
0
LINE
8
BLACK
6
CONTINUOUS
10
2.14876
20
4.95184
11
2.14956
21
4.96052
0
LINE
8
BLACK
6
CONTINUOUS
10
2.14956
20
4.96052
11
2.15195
21
4.96891
0
LINE
8
BLACK
6
CONTINUOUS
10
2.15195
20
4.96891
11
2.15583
21
4.97671
0
LINE
8
BLACK
6
CONTINUOUS
10
2.15583
20
4.97671
11
2.16109
21
4.98367
0
LINE
8
BLACK
6
CONTINUOUS
10
2.16109
20
4.98367
11
2.16753
21
4.98954
0
LINE
8
BLACK
6
CONTINUOUS
10
2.16753
20
4.98954
11
2.17494
21
4.99413
0
LINE
8
BLACK
6
CONTINUOUS
10
2.17494
20
4.99413
11
2.18307
21
4.99728
0
LINE
8
BLACK
6
CONTINUOUS
10
2.18307
20
4.99728
11
2.19164
21
4.99889
0
LINE
8
BLACK
6
CONTINUOUS
10
2.19164
20
4.99889
11
2.20036
21
4.99889
0
LINE
8
BLACK
6
CONTINUOUS
10
2.20036
20
4.99889
11
2.20893
21
4.99728
0
LINE
8
BLACK
6
CONTINUOUS
10
0.214106
20
5.52519
11
0.228034
21
5.52283
0
LINE
8
BLACK
6
CONTINUOUS
10
0.228034
20
5.52283
11
0.24161
21
5.51891
0
LINE
8
BLACK
6
CONTINUOUS
10
0.24161
20
5.51891
11
0.254663
21
5.51351
0
LINE
8
BLACK
6
CONTINUOUS
10
0.254663
20
5.51351
11
0.267028
21
5.50667
0
LINE
8
BLACK
6
CONTINUOUS
10
0.267028
20
5.50667
11
0.27855
21
5.4985
0
LINE
8
BLACK
6
CONTINUOUS
10
0.27855
20
5.4985
11
0.289084
21
5.48908
0
LINE
8
BLACK
6
CONTINUOUS
10
0.289084
20
5.48908
11
0.298498
21
5.47855
0
LINE
8
BLACK
6
CONTINUOUS
10
0.298498
20
5.47855
11
0.306674
21
5.46703
0
LINE
8
BLACK
6
CONTINUOUS
10
0.306674
20
5.46703
11
0.313508
21
5.45466
0
LINE
8
BLACK
6
CONTINUOUS
10
0.313508
20
5.45466
11
0.318914
21
5.44161
0
LINE
8
BLACK
6
CONTINUOUS
10
0.318914
20
5.44161
11
0.322826
21
5.42803
0
LINE
8
BLACK
6
CONTINUOUS
10
0.322826
20
5.42803
11
0.325192
21
5.41411
0
LINE
8
BLACK
6
CONTINUOUS
10
0.325192
20
5.41411
11
0.325984
21
5.4
0
LINE
8
BLACK
6
CONTINUOUS
10
0.325984
20
5.4
11
0.325192
21
5.38589
0
LINE
8
BLACK
6
CONTINUOUS
10
0.325192
20
5.38589
11
0.322826
21
5.37197
0
LINE
8
BLACK
6
CONTINUOUS
10
0.322826
20
5.37197
11
0.318914
21
5.35839
0
LINE
8
BLACK
6
CONTINUOUS
10
0.318914
20
5.35839
11
0.313508
21
5.34534
0
LINE
8
BLACK
6
CONTINUOUS
10
0.313508
20
5.34534
11
0.306674
21
5.33297
0
LINE
8
BLACK
6
CONTINUOUS
10
0.306674
20
5.33297
11
0.298498
21
5.32145
0
LINE
8
BLACK
6
CONTINUOUS
10
0.298498
20
5.32145
11
0.289084
21
5.31092
0
LINE
8
BLACK
6
CONTINUOUS
10
0.289084
20
5.31092
11
0.27855
21
5.3015
0
LINE
8
BLACK
6
CONTINUOUS
10
0.27855
20
5.3015
11
0.267028
21
5.29333
0
LINE
8
BLACK
6
CONTINUOUS
10
0.267028
20
5.29333
11
0.254663
21
5.28649
0
LINE
8
BLACK
6
CONTINUOUS
10
0.254663
20
5.28649
11
0.24161
21
5.28109
0
LINE
8
BLACK
6
CONTINUOUS
10
0.24161
20
5.28109
11
0.228034
21
5.27717
0
LINE
8
BLACK
6
CONTINUOUS
10
0.228034
20
5.27717
11
0.214106
21
5.27481
0
LINE
8
BLACK
6
CONTINUOUS
10
0.214106
20
5.27481
11
0.2
21
5.27402
0
LINE
8
BLACK
6
CONTINUOUS
10
0.2
20
5.27402
11
0.185894
21
5.27481
0
LINE
8
BLACK
6
CONTINUOUS
10
0.185894
20
5.27481
11
0.171966
21
5.27717
0
LINE
8
BLACK
6
CONTINUOUS
10
0.171966
20
5.27717
11
0.15839
21
5.28109
0
LINE
8
BLACK
6
CONTINUOUS
10
0.15839
20
5.28109
11
0.145337
21
5.28649
0
LINE
8
BLACK
6
CONTINUOUS
10
0.145337
20
5.28649
11
0.132972
21
5.29333
0
LINE
8
BLACK
6
CONTINUOUS
10
0.132972
20
5.29333
11
0.12145
21
5.3015
0
LINE
8
BLACK
6
CONTINUOUS
10
0.12145
20
5.3015
11
0.110916
21
5.31092
0
LINE
8
BLACK
6
CONTINUOUS
10
0.110916
20
5.31092
11
0.101502
21
5.32145
0
LINE
8
BLACK
6
CONTINUOUS
10
0.101502
20
5.32145
11
0.0933261
21
5.33297
0
LINE
8
BLACK
6
CONTINUOUS
10
0.0933261
20
5.33297
11
0.0864921
21
5.34534
0
LINE
8
BLACK
6
CONTINUOUS
10
0.0864921
20
5.34534
11
0.0810856
21
5.35839
0
LINE
8
BLACK
6
CONTINUOUS
10
0.0810856
20
5.35839
11
0.0771744
21
5.37197
0
LINE
8
BLACK
6
CONTINUOUS
10
0.0771744
20
5.37197
11
0.0748079
21
5.38589
0
LINE
8
BLACK
6
CONTINUOUS
10
0.0748079
20
5.38589
11
0.0740157
21
5.4
0
LINE
8
BLACK
6
CONTINUOUS
10
0.0740157
20
5.4
11
0.0748079
21
5.41411
0
LINE
8
BLACK
6
CONTINUOUS
10
0.0748079
20
5.41411
11
0.0771744
21
5.42803
0
LINE
8
BLACK
6
CONTINUOUS
10
0.0771744
20
5.42803
11
0.0810856
21
5.44161
0
LINE
8
BLACK
6
CONTINUOUS
10
0.0810856
20
5.44161
11
0.0864921
21
5.45466
0
LINE
8
BLACK
6
CONTINUOUS
10
0.0864921
20
5.45466
11
0.0933261
21
5.46703
0
LINE
8
BLACK
6
CONTINUOUS
10
0.0933261
20
5.46703
11
0.101502
21
5.47855
0
LINE
8
BLACK
6
CONTINUOUS
10
0.101502
20
5.47855
11
0.110916
21
5.48908
0
LINE
8
BLACK
6
CONTINUOUS
10
0.110916
20
5.48908
11
0.12145
21
5.4985
0
LINE
8
BLACK
6
CONTINUOUS
10
0.12145
20
5.4985
11
0.132972
21
5.50667
0
LINE
8
BLACK
6
CONTINUOUS
10
0.132972
20
5.50667
11
0.145337
21
5.51351
0
LINE
8
BLACK
6
CONTINUOUS
10
0.145337
20
5.51351
11
0.15839
21
5.51891
0
LINE
8
BLACK
6
CONTINUOUS
10
0.15839
20
5.51891
11
0.171966
21
5.52283
0
LINE
8
BLACK
6
CONTINUOUS
10
0.171966
20
5.52283
11
0.185894
21
5.52519
0
LINE
8
BLACK
6
CONTINUOUS
10
0.185894
20
5.52519
11
0.2
21
5.52598
0
LINE
8
BLACK
6
CONTINUOUS
10
0.2
20
5.52598
11
0.214106
21
5.52519
0
LINE
8
BLACK
6
CONTINUOUS
10
3.41411
20
5.52519
11
3.42803
21
5.52283
0
LINE
8
BLACK
6
CONTINUOUS
10
3.42803
20
5.52283
11
3.44161
21
5.51891
0
LINE
8
BLACK
6
CONTINUOUS
10
3.44161
20
5.51891
11
3.45466
21
5.51351
0
LINE
8
BLACK
6
CONTINUOUS
10
3.45466
20
5.51351
11
3.46703
21
5.50667
0
LINE
8
BLACK
6
CONTINUOUS
10
3.46703
20
5.50667
11
3.47855
21
5.4985
0
LINE
8
BLACK
6
CONTINUOUS
10
3.47855
20
5.4985
11
3.48908
21
5.48908
0
LINE
8
BLACK
6
CONTINUOUS
10
3.48908
20
5.48908
11
3.4985
21
5.47855
0
LINE
8
BLACK
6
CONTINUOUS
10
3.4985
20
5.47855
11
3.50667
21
5.46703
0
LINE
8
BLACK
6
CONTINUOUS
10
3.50667
20
5.46703
11
3.51351
21
5.45466
0
LINE
8
BLACK
6
CONTINUOUS
10
3.51351
20
5.45466
11
3.51891
21
5.44161
0
LINE
8
BLACK
6
CONTINUOUS
10
3.51891
20
5.44161
11
3.52283
21
5.42803
0
LINE
8
BLACK
6
CONTINUOUS
10
3.52283
20
5.42803
11
3.52519
21
5.41411
0
LINE
8
BLACK
6
CONTINUOUS
10
3.52519
20
5.41411
11
3.52598
21
5.4
0
LINE
8
BLACK
6
CONTINUOUS
10
3.52598
20
5.4
11
3.52519
21
5.38589
0
LINE
8
BLACK
6
CONTINUOUS
10
3.52519
20
5.38589
11
3.52283
21
5.37197
0
LINE
8
BLACK
6
CONTINUOUS
10
3.52283
20
5.37197
11
3.51891
21
5.35839
0
LINE
8
BLACK
6
CONTINUOUS
10
3.51891
20
5.35839
11
3.51351
21
5.34534
0
LINE
8
BLACK
6
CONTINUOUS
10
3.51351
20
5.34534
11
3.50667
21
5.33297
0
LINE
8
BLACK
6
CONTINUOUS
10
3.50667
20
5.33297
11
3.4985
21
5.32145
0
LINE
8
BLACK
6
CONTINUOUS
10
3.4985
20
5.32145
11
3.48908
21
5.31092
0
LINE
8
BLACK
6
CONTINUOUS
10
3.48908
20
5.31092
11
3.47855
21
5.3015
0
LINE
8
BLACK
6
CONTINUOUS
10
3.47855
20
5.3015
11
3.46703
21
5.29333
0
LINE
8
BLACK
6
CONTINUOUS
10
3.46703
20
5.29333
11
3.45466
21
5.28649
0
LINE
8
BLACK
6
CONTINUOUS
10
3.45466
20
5.28649
11
3.44161
21
5.28109
0
LINE
8
BLACK
6
CONTINUOUS
10
3.44161
20
5.28109
11
3.42803
21
5.27717
0
LINE
8
BLACK
6
CONTINUOUS
10
3.42803
20
5.27717
11
3.41411
21
5.27481
0
LINE
8
BLACK
6
CONTINUOUS
10
3.41411
20
5.27481
11
3.4
21
5.27402
0
LINE
8
BLACK
6
CONTINUOUS
10
3.4
20
5.27402
11
3.38589
21
5.27481
0
LINE
8
BLACK
6
CONTINUOUS
10
3.38589
20
5.27481
11
3.37197
21
5.27717
0
LINE
8
BLACK
6
CONTINUOUS
10
3.37197
20
5.27717
11
3.35839
21
5.28109
0
LINE
8
BLACK
6
CONTINUOUS
10
3.35839
20
5.28109
11
3.34534
21
5.28649
0
LINE
8
BLACK
6
CONTINUOUS
10
3.34534
20
5.28649
11
3.33297
21
5.29333
0
LINE
8
BLACK
6
CONTINUOUS
10
3.33297
20
5.29333
11
3.32145
21
5.3015
0
LINE
8
BLACK
6
CONTINUOUS
10
3.32145
20
5.3015
11
3.31092
21
5.31092
0
LINE
8
BLACK
6
CONTINUOUS
10
3.31092
20
5.31092
11
3.3015
21
5.32145
0
LINE
8
BLACK
6
CONTINUOUS
10
3.3015
20
5.32145
11
3.29333
21
5.33297
0
LINE
8
BLACK
6
CONTINUOUS
10
3.29333
20
5.33297
11
3.28649
21
5.34534
0
LINE
8
BLACK
6
CONTINUOUS
10
3.28649
20
5.34534
11
3.28109
21
5.35839
0
LINE
8
BLACK
6
CONTINUOUS
10
3.28109
20
5.35839
11
3.27717
21
5.37197
0
LINE
8
BLACK
6
CONTINUOUS
10
3.27717
20
5.37197
11
3.27481
21
5.38589
0
LINE
8
BLACK
6
CONTINUOUS
10
3.27481
20
5.38589
11
3.27402
21
5.4
0
LINE
8
BLACK
6
CONTINUOUS
10
3.27402
20
5.4
11
3.27481
21
5.41411
0
LINE
8
BLACK
6
CONTINUOUS
10
3.27481
20
5.41411
11
3.27717
21
5.42803
0
LINE
8
BLACK
6
CONTINUOUS
10
3.27717
20
5.42803
11
3.28109
21
5.44161
0
LINE
8
BLACK
6
CONTINUOUS
10
3.28109
20
5.44161
11
3.28649
21
5.45466
0
LINE
8
BLACK
6
CONTINUOUS
10
3.28649
20
5.45466
11
3.29333
21
5.46703
0
LINE
8
BLACK
6
CONTINUOUS
10
3.29333
20
5.46703
11
3.3015
21
5.47855
0
LINE
8
BLACK
6
CONTINUOUS
10
3.3015
20
5.47855
11
3.31092
21
5.48908
0
LINE
8
BLACK
6
CONTINUOUS
10
3.31092
20
5.48908
11
3.32145
21
5.4985
0
LINE
8
BLACK
6
CONTINUOUS
10
3.32145
20
5.4985
11
3.33297
21
5.50667
0
LINE
8
BLACK
6
CONTINUOUS
10
3.33297
20
5.50667
11
3.34534
21
5.51351
0
LINE
8
BLACK
6
CONTINUOUS
10
3.34534
20
5.51351
11
3.35839
21
5.51891
0
LINE
8
BLACK
6
CONTINUOUS
10
3.35839
20
5.51891
11
3.37197
21
5.52283
0
LINE
8
BLACK
6
CONTINUOUS
10
3.37197
20
5.52283
11
3.38589
21
5.52519
0
LINE
8
BLACK
6
CONTINUOUS
10
3.38589
20
5.52519
11
3.4
21
5.52598
0
LINE
8
BLACK
6
CONTINUOUS
10
3.4
20
5.52598
11
3.41411
21
5.52519
  0
ENDSEC
  0
EOF
