  0
SECTION
  2
HEADER
  9
$ANGBASE
  50
0.0
  9
$ANGDIR
  70
1
  9
$MEASUREMENT
  70
0
  0
ENDSEC
  0
SECTION
  2
TABLES
  0
TABLE
  2
LTYPE
  70
4
  0
LTYPE
  5
40F
  2
CONTINUOUS
  70
0
  3
Solid line
  72
65
  73
0
  40
0.0
  0
LTYPE
  5
410
  2
DASHDOT
 70
0
  3
Dash Dot ____ _ ____ _
 72
65
 73
4
 40
2.0
 49
1.25
 49
-0.25
 49
0.25
 49
-0.25
  0
LTYPE
  5
411
  2
DASHED
 70
0
  3
Dashed __ __ __ __ __
 72
65
 73
2
 40
0.75
 49
0.5
 49
-0.25
  0
LTYPE
  5
43B
  2
DOTTED
 70
0
  3
Dotted .  .  .  .
 72
65
 73
2
 40
0.2
 49
0.0
 49
-0.2
  0
ENDTAB
  0
TABLE
  2
STYLE
  70
4
  0
STYLE
  2
KICAD
  70
0
  40
0
  41
1
  42
1
  50
0
  71
0
  3
isocp.shx
  0
STYLE
  2
KICADB
  70
0
  40
0
  41
1
  42
1
  50
0
  71
0
  3
isocp.shx
  0
STYLE
  2
KICADI
  70
0
  40
0
  41
1
  42
1
  50
15
  71
0
  3
isocp.shx
  0
STYLE
  2
KICADBI
  70
0
  40
0
  41
1
  42
1
  50
15
  71
0
  3
isocp.shx
  0
ENDTAB
  0
TABLE
  2
LAYER
  70
1
  0
LAYER
  2
BLACK
  70
0
  62
7
  6
CONTINUOUS
  0
ENDTAB
  0
ENDSEC
  0
SECTION
  2
ENTITIES
0
LINE
8
BLACK
6
CONTINUOUS
10
0.9815
20
0.139
11
0.9265
21
0.139
0
LINE
8
BLACK
6
CONTINUOUS
10
0.9265
20
0.139
11
0.9265
21
0.174
0
LINE
8
BLACK
6
CONTINUOUS
10
0.9265
20
0.174
11
0.9815
21
0.174
0
LINE
8
BLACK
6
CONTINUOUS
10
0.9815
20
0.174
11
0.9815
21
0.139
0
LINE
8
BLACK
6
CONTINUOUS
10
0.9815
20
0.214
11
0.9265
21
0.214
0
LINE
8
BLACK
6
CONTINUOUS
10
0.9265
20
0.214
11
0.9265
21
0.249
0
LINE
8
BLACK
6
CONTINUOUS
10
0.9265
20
0.249
11
0.9815
21
0.249
0
LINE
8
BLACK
6
CONTINUOUS
10
0.9815
20
0.249
11
0.9815
21
0.214
0
LINE
8
BLACK
6
CONTINUOUS
10
1.2647
20
0.36255
11
1.2135
21
0.36255
0
LINE
8
BLACK
6
CONTINUOUS
10
1.2135
20
0.36255
11
1.2135
21
0.42945
0
LINE
8
BLACK
6
CONTINUOUS
10
1.2135
20
0.42945
11
1.2647
21
0.42945
0
LINE
8
BLACK
6
CONTINUOUS
10
1.2647
20
0.42945
11
1.2647
21
0.36255
0
LINE
8
BLACK
6
CONTINUOUS
10
1.4025
20
0.36255
11
1.3513
21
0.36255
0
LINE
8
BLACK
6
CONTINUOUS
10
1.3513
20
0.36255
11
1.3513
21
0.42945
0
LINE
8
BLACK
6
CONTINUOUS
10
1.3513
20
0.42945
11
1.4025
21
0.42945
0
LINE
8
BLACK
6
CONTINUOUS
10
1.4025
20
0.42945
11
1.4025
21
0.36255
0
LINE
8
BLACK
6
CONTINUOUS
10
0.5485
20
0.39055
11
0.4501
21
0.39055
0
LINE
8
BLACK
6
CONTINUOUS
10
0.4501
20
0.39055
11
0.4501
21
0.46145
0
LINE
8
BLACK
6
CONTINUOUS
10
0.4501
20
0.46145
11
0.5485
21
0.46145
0
LINE
8
BLACK
6
CONTINUOUS
10
0.5485
20
0.46145
11
0.5485
21
0.39055
0
LINE
8
BLACK
6
CONTINUOUS
10
0.7059
20
0.39055
11
0.6075
21
0.39055
0
LINE
8
BLACK
6
CONTINUOUS
10
0.6075
20
0.39055
11
0.6075
21
0.46145
0
LINE
8
BLACK
6
CONTINUOUS
10
0.6075
20
0.46145
11
0.7059
21
0.46145
0
LINE
8
BLACK
6
CONTINUOUS
10
0.7059
20
0.46145
11
0.7059
21
0.39055
0
LINE
8
BLACK
6
CONTINUOUS
10
1.684
20
0.775
11
1.604
21
0.775
0
LINE
8
BLACK
6
CONTINUOUS
10
1.604
20
0.775
11
1.604
21
0.835
0
LINE
8
BLACK
6
CONTINUOUS
10
1.604
20
0.835
11
1.684
21
0.835
0
LINE
8
BLACK
6
CONTINUOUS
10
1.684
20
0.835
11
1.684
21
0.775
0
LINE
8
BLACK
6
CONTINUOUS
10
1.684
20
0.905
11
1.604
21
0.905
0
LINE
8
BLACK
6
CONTINUOUS
10
1.604
20
0.905
11
1.604
21
0.965
0
LINE
8
BLACK
6
CONTINUOUS
10
1.604
20
0.965
11
1.684
21
0.965
0
LINE
8
BLACK
6
CONTINUOUS
10
1.684
20
0.965
11
1.684
21
0.905
0
LINE
8
BLACK
6
CONTINUOUS
10
1.4395
20
1.463
11
1.3845
21
1.463
0
LINE
8
BLACK
6
CONTINUOUS
10
1.3845
20
1.463
11
1.3845
21
1.498
0
LINE
8
BLACK
6
CONTINUOUS
10
1.3845
20
1.498
11
1.4395
21
1.498
0
LINE
8
BLACK
6
CONTINUOUS
10
1.4395
20
1.498
11
1.4395
21
1.463
0
LINE
8
BLACK
6
CONTINUOUS
10
1.4395
20
1.538
11
1.3845
21
1.538
0
LINE
8
BLACK
6
CONTINUOUS
10
1.3845
20
1.538
11
1.3845
21
1.573
0
LINE
8
BLACK
6
CONTINUOUS
10
1.3845
20
1.573
11
1.4395
21
1.573
0
LINE
8
BLACK
6
CONTINUOUS
10
1.4395
20
1.573
11
1.4395
21
1.538
0
LINE
8
BLACK
6
CONTINUOUS
10
1.476
20
1.9105
11
1.441
21
1.9105
0
LINE
8
BLACK
6
CONTINUOUS
10
1.441
20
1.9105
11
1.441
21
1.9655
0
LINE
8
BLACK
6
CONTINUOUS
10
1.441
20
1.9655
11
1.476
21
1.9655
0
LINE
8
BLACK
6
CONTINUOUS
10
1.476
20
1.9655
11
1.476
21
1.9105
0
LINE
8
BLACK
6
CONTINUOUS
10
1.551
20
1.9105
11
1.516
21
1.9105
0
LINE
8
BLACK
6
CONTINUOUS
10
1.516
20
1.9105
11
1.516
21
1.9655
0
LINE
8
BLACK
6
CONTINUOUS
10
1.516
20
1.9655
11
1.551
21
1.9655
0
LINE
8
BLACK
6
CONTINUOUS
10
1.551
20
1.9655
11
1.551
21
1.9105
0
LINE
8
BLACK
6
CONTINUOUS
10
1.614
20
1.9705
11
1.579
21
1.9705
0
LINE
8
BLACK
6
CONTINUOUS
10
1.579
20
1.9705
11
1.579
21
2.0255
0
LINE
8
BLACK
6
CONTINUOUS
10
1.579
20
2.0255
11
1.614
21
2.0255
0
LINE
8
BLACK
6
CONTINUOUS
10
1.614
20
2.0255
11
1.614
21
1.9705
0
LINE
8
BLACK
6
CONTINUOUS
10
1.689
20
1.9705
11
1.654
21
1.9705
0
LINE
8
BLACK
6
CONTINUOUS
10
1.654
20
1.9705
11
1.654
21
2.0255
0
LINE
8
BLACK
6
CONTINUOUS
10
1.654
20
2.0255
11
1.689
21
2.0255
0
LINE
8
BLACK
6
CONTINUOUS
10
1.689
20
2.0255
11
1.689
21
1.9705
0
LINE
8
BLACK
6
CONTINUOUS
10
1.7845
20
1.9725
11
1.7495
21
1.9725
0
LINE
8
BLACK
6
CONTINUOUS
10
1.7495
20
1.9725
11
1.7495
21
2.0275
0
LINE
8
BLACK
6
CONTINUOUS
10
1.7495
20
2.0275
11
1.7845
21
2.0275
0
LINE
8
BLACK
6
CONTINUOUS
10
1.7845
20
2.0275
11
1.7845
21
1.9725
0
LINE
8
BLACK
6
CONTINUOUS
10
1.8595
20
1.9725
11
1.8245
21
1.9725
0
LINE
8
BLACK
6
CONTINUOUS
10
1.8245
20
1.9725
11
1.8245
21
2.0275
0
LINE
8
BLACK
6
CONTINUOUS
10
1.8245
20
2.0275
11
1.8595
21
2.0275
0
LINE
8
BLACK
6
CONTINUOUS
10
1.8595
20
2.0275
11
1.8595
21
1.9725
0
LINE
8
BLACK
6
CONTINUOUS
10
1.0942
20
2.0268
11
0.9938
21
2.0268
0
LINE
8
BLACK
6
CONTINUOUS
10
0.9938
20
2.0268
11
0.9938
21
2.1252
0
LINE
8
BLACK
6
CONTINUOUS
10
0.9938
20
2.1252
11
1.0942
21
2.1252
0
LINE
8
BLACK
6
CONTINUOUS
10
1.0942
20
2.1252
11
1.0942
21
2.0268
0
LINE
8
BLACK
6
CONTINUOUS
10
1.293
20
2.0268
11
1.1926
21
2.0268
0
LINE
8
BLACK
6
CONTINUOUS
10
1.1926
20
2.0268
11
1.1926
21
2.1252
0
LINE
8
BLACK
6
CONTINUOUS
10
1.1926
20
2.1252
11
1.293
21
2.1252
0
LINE
8
BLACK
6
CONTINUOUS
10
1.293
20
2.1252
11
1.293
21
2.0268
0
LINE
8
BLACK
6
CONTINUOUS
10
1.52656
20
2.1823
11
1.50884
21
2.1823
0
LINE
8
BLACK
6
CONTINUOUS
10
1.50884
20
2.1823
11
1.50884
21
2.2453
0
LINE
8
BLACK
6
CONTINUOUS
10
1.50884
20
2.2453
11
1.52656
21
2.2453
0
LINE
8
BLACK
6
CONTINUOUS
10
1.52656
20
2.2453
11
1.52656
21
2.1823
0
LINE
8
BLACK
6
CONTINUOUS
10
1.55216
20
2.1823
11
1.53444
21
2.1823
0
LINE
8
BLACK
6
CONTINUOUS
10
1.53444
20
2.1823
11
1.53444
21
2.2453
0
LINE
8
BLACK
6
CONTINUOUS
10
1.53444
20
2.2453
11
1.55216
21
2.2453
0
LINE
8
BLACK
6
CONTINUOUS
10
1.55216
20
2.2453
11
1.55216
21
2.1823
0
LINE
8
BLACK
6
CONTINUOUS
10
1.57776
20
2.1823
11
1.56004
21
2.1823
0
LINE
8
BLACK
6
CONTINUOUS
10
1.56004
20
2.1823
11
1.56004
21
2.2453
0
LINE
8
BLACK
6
CONTINUOUS
10
1.56004
20
2.2453
11
1.57776
21
2.2453
0
LINE
8
BLACK
6
CONTINUOUS
10
1.57776
20
2.2453
11
1.57776
21
2.1823
0
LINE
8
BLACK
6
CONTINUOUS
10
1.60336
20
2.1823
11
1.58564
21
2.1823
0
LINE
8
BLACK
6
CONTINUOUS
10
1.58564
20
2.1823
11
1.58564
21
2.2453
0
LINE
8
BLACK
6
CONTINUOUS
10
1.58564
20
2.2453
11
1.60336
21
2.2453
0
LINE
8
BLACK
6
CONTINUOUS
10
1.60336
20
2.2453
11
1.60336
21
2.1823
0
LINE
8
BLACK
6
CONTINUOUS
10
1.62896
20
2.1823
11
1.61124
21
2.1823
0
LINE
8
BLACK
6
CONTINUOUS
10
1.61124
20
2.1823
11
1.61124
21
2.2453
0
LINE
8
BLACK
6
CONTINUOUS
10
1.61124
20
2.2453
11
1.62896
21
2.2453
0
LINE
8
BLACK
6
CONTINUOUS
10
1.62896
20
2.2453
11
1.62896
21
2.1823
0
LINE
8
BLACK
6
CONTINUOUS
10
1.65456
20
2.1823
11
1.63684
21
2.1823
0
LINE
8
BLACK
6
CONTINUOUS
10
1.63684
20
2.1823
11
1.63684
21
2.2453
0
LINE
8
BLACK
6
CONTINUOUS
10
1.63684
20
2.2453
11
1.65456
21
2.2453
0
LINE
8
BLACK
6
CONTINUOUS
10
1.65456
20
2.2453
11
1.65456
21
2.1823
0
LINE
8
BLACK
6
CONTINUOUS
10
1.68016
20
2.1823
11
1.66244
21
2.1823
0
LINE
8
BLACK
6
CONTINUOUS
10
1.66244
20
2.1823
11
1.66244
21
2.2453
0
LINE
8
BLACK
6
CONTINUOUS
10
1.66244
20
2.2453
11
1.68016
21
2.2453
0
LINE
8
BLACK
6
CONTINUOUS
10
1.68016
20
2.2453
11
1.68016
21
2.1823
0
LINE
8
BLACK
6
CONTINUOUS
10
1.70556
20
2.1823
11
1.68784
21
2.1823
0
LINE
8
BLACK
6
CONTINUOUS
10
1.68784
20
2.1823
11
1.68784
21
2.2453
0
LINE
8
BLACK
6
CONTINUOUS
10
1.68784
20
2.2453
11
1.70556
21
2.2453
0
LINE
8
BLACK
6
CONTINUOUS
10
1.70556
20
2.2453
11
1.70556
21
2.1823
0
LINE
8
BLACK
6
CONTINUOUS
10
1.73116
20
2.1823
11
1.71344
21
2.1823
0
LINE
8
BLACK
6
CONTINUOUS
10
1.71344
20
2.1823
11
1.71344
21
2.2453
0
LINE
8
BLACK
6
CONTINUOUS
10
1.71344
20
2.2453
11
1.73116
21
2.2453
0
LINE
8
BLACK
6
CONTINUOUS
10
1.73116
20
2.2453
11
1.73116
21
2.1823
0
LINE
8
BLACK
6
CONTINUOUS
10
1.75676
20
2.1823
11
1.73904
21
2.1823
0
LINE
8
BLACK
6
CONTINUOUS
10
1.73904
20
2.1823
11
1.73904
21
2.2453
0
LINE
8
BLACK
6
CONTINUOUS
10
1.73904
20
2.2453
11
1.75676
21
2.2453
0
LINE
8
BLACK
6
CONTINUOUS
10
1.75676
20
2.2453
11
1.75676
21
2.1823
0
LINE
8
BLACK
6
CONTINUOUS
10
1.78236
20
2.1823
11
1.76464
21
2.1823
0
LINE
8
BLACK
6
CONTINUOUS
10
1.76464
20
2.1823
11
1.76464
21
2.2453
0
LINE
8
BLACK
6
CONTINUOUS
10
1.76464
20
2.2453
11
1.78236
21
2.2453
0
LINE
8
BLACK
6
CONTINUOUS
10
1.78236
20
2.2453
11
1.78236
21
2.1823
0
LINE
8
BLACK
6
CONTINUOUS
10
1.80796
20
2.1823
11
1.79024
21
2.1823
0
LINE
8
BLACK
6
CONTINUOUS
10
1.79024
20
2.1823
11
1.79024
21
2.2453
0
LINE
8
BLACK
6
CONTINUOUS
10
1.79024
20
2.2453
11
1.80796
21
2.2453
0
LINE
8
BLACK
6
CONTINUOUS
10
1.80796
20
2.2453
11
1.80796
21
2.1823
0
LINE
8
BLACK
6
CONTINUOUS
10
1.83356
20
2.1823
11
1.81584
21
2.1823
0
LINE
8
BLACK
6
CONTINUOUS
10
1.81584
20
2.1823
11
1.81584
21
2.2453
0
LINE
8
BLACK
6
CONTINUOUS
10
1.81584
20
2.2453
11
1.83356
21
2.2453
0
LINE
8
BLACK
6
CONTINUOUS
10
1.83356
20
2.2453
11
1.83356
21
2.1823
0
LINE
8
BLACK
6
CONTINUOUS
10
1.85916
20
2.1823
11
1.84144
21
2.1823
0
LINE
8
BLACK
6
CONTINUOUS
10
1.84144
20
2.1823
11
1.84144
21
2.2453
0
LINE
8
BLACK
6
CONTINUOUS
10
1.84144
20
2.2453
11
1.85916
21
2.2453
0
LINE
8
BLACK
6
CONTINUOUS
10
1.85916
20
2.2453
11
1.85916
21
2.1823
0
LINE
8
BLACK
6
CONTINUOUS
10
1.178
20
2.1845
11
1.143
21
2.1845
0
LINE
8
BLACK
6
CONTINUOUS
10
1.143
20
2.1845
11
1.143
21
2.2395
0
LINE
8
BLACK
6
CONTINUOUS
10
1.143
20
2.2395
11
1.178
21
2.2395
0
LINE
8
BLACK
6
CONTINUOUS
10
1.178
20
2.2395
11
1.178
21
2.1845
0
LINE
8
BLACK
6
CONTINUOUS
10
1.253
20
2.1845
11
1.218
21
2.1845
0
LINE
8
BLACK
6
CONTINUOUS
10
1.218
20
2.1845
11
1.218
21
2.2395
0
LINE
8
BLACK
6
CONTINUOUS
10
1.218
20
2.2395
11
1.253
21
2.2395
0
LINE
8
BLACK
6
CONTINUOUS
10
1.253
20
2.2395
11
1.253
21
2.1845
0
LINE
8
BLACK
6
CONTINUOUS
10
1.3655
20
2.193
11
1.3105
21
2.193
0
LINE
8
BLACK
6
CONTINUOUS
10
1.3105
20
2.193
11
1.3105
21
2.228
0
LINE
8
BLACK
6
CONTINUOUS
10
1.3105
20
2.228
11
1.3655
21
2.228
0
LINE
8
BLACK
6
CONTINUOUS
10
1.3655
20
2.228
11
1.3655
21
2.193
0
LINE
8
BLACK
6
CONTINUOUS
10
1.4435
20
2.193
11
1.3885
21
2.193
0
LINE
8
BLACK
6
CONTINUOUS
10
1.3885
20
2.193
11
1.3885
21
2.228
0
LINE
8
BLACK
6
CONTINUOUS
10
1.3885
20
2.228
11
1.4435
21
2.228
0
LINE
8
BLACK
6
CONTINUOUS
10
1.4435
20
2.228
11
1.4435
21
2.193
0
LINE
8
BLACK
6
CONTINUOUS
10
1.14
20
2.2645
11
1.105
21
2.2645
0
LINE
8
BLACK
6
CONTINUOUS
10
1.105
20
2.2645
11
1.105
21
2.3195
0
LINE
8
BLACK
6
CONTINUOUS
10
1.105
20
2.3195
11
1.14
21
2.3195
0
LINE
8
BLACK
6
CONTINUOUS
10
1.14
20
2.3195
11
1.14
21
2.2645
0
LINE
8
BLACK
6
CONTINUOUS
10
1.215
20
2.2645
11
1.18
21
2.2645
0
LINE
8
BLACK
6
CONTINUOUS
10
1.18
20
2.2645
11
1.18
21
2.3195
0
LINE
8
BLACK
6
CONTINUOUS
10
1.18
20
2.3195
11
1.215
21
2.3195
0
LINE
8
BLACK
6
CONTINUOUS
10
1.215
20
2.3195
11
1.215
21
2.2645
0
LINE
8
BLACK
6
CONTINUOUS
10
1.3655
20
2.268
11
1.3105
21
2.268
0
LINE
8
BLACK
6
CONTINUOUS
10
1.3105
20
2.268
11
1.3105
21
2.303
0
LINE
8
BLACK
6
CONTINUOUS
10
1.3105
20
2.303
11
1.3655
21
2.303
0
LINE
8
BLACK
6
CONTINUOUS
10
1.3655
20
2.303
11
1.3655
21
2.268
0
LINE
8
BLACK
6
CONTINUOUS
10
1.4435
20
2.268
11
1.3885
21
2.268
0
LINE
8
BLACK
6
CONTINUOUS
10
1.3885
20
2.268
11
1.3885
21
2.303
0
LINE
8
BLACK
6
CONTINUOUS
10
1.3885
20
2.303
11
1.4435
21
2.303
0
LINE
8
BLACK
6
CONTINUOUS
10
1.4435
20
2.303
11
1.4435
21
2.268
0
LINE
8
BLACK
6
CONTINUOUS
10
1.4435
20
2.329
11
1.3885
21
2.329
0
LINE
8
BLACK
6
CONTINUOUS
10
1.3885
20
2.329
11
1.3885
21
2.364
0
LINE
8
BLACK
6
CONTINUOUS
10
1.3885
20
2.364
11
1.4435
21
2.364
0
LINE
8
BLACK
6
CONTINUOUS
10
1.4435
20
2.364
11
1.4435
21
2.329
0
LINE
8
BLACK
6
CONTINUOUS
10
1.176
20
2.3425
11
1.141
21
2.3425
0
LINE
8
BLACK
6
CONTINUOUS
10
1.141
20
2.3425
11
1.141
21
2.3975
0
LINE
8
BLACK
6
CONTINUOUS
10
1.141
20
2.3975
11
1.176
21
2.3975
0
LINE
8
BLACK
6
CONTINUOUS
10
1.176
20
2.3975
11
1.176
21
2.3425
0
LINE
8
BLACK
6
CONTINUOUS
10
1.251
20
2.3425
11
1.216
21
2.3425
0
LINE
8
BLACK
6
CONTINUOUS
10
1.216
20
2.3425
11
1.216
21
2.3975
0
LINE
8
BLACK
6
CONTINUOUS
10
1.216
20
2.3975
11
1.251
21
2.3975
0
LINE
8
BLACK
6
CONTINUOUS
10
1.251
20
2.3975
11
1.251
21
2.3425
0
LINE
8
BLACK
6
CONTINUOUS
10
1.52656
20
2.4027
11
1.50884
21
2.4027
0
LINE
8
BLACK
6
CONTINUOUS
10
1.50884
20
2.4027
11
1.50884
21
2.4657
0
LINE
8
BLACK
6
CONTINUOUS
10
1.50884
20
2.4657
11
1.52656
21
2.4657
0
LINE
8
BLACK
6
CONTINUOUS
10
1.52656
20
2.4657
11
1.52656
21
2.4027
0
LINE
8
BLACK
6
CONTINUOUS
10
1.55216
20
2.4027
11
1.53444
21
2.4027
0
LINE
8
BLACK
6
CONTINUOUS
10
1.53444
20
2.4027
11
1.53444
21
2.4657
0
LINE
8
BLACK
6
CONTINUOUS
10
1.53444
20
2.4657
11
1.55216
21
2.4657
0
LINE
8
BLACK
6
CONTINUOUS
10
1.55216
20
2.4657
11
1.55216
21
2.4027
0
LINE
8
BLACK
6
CONTINUOUS
10
1.57776
20
2.4027
11
1.56004
21
2.4027
0
LINE
8
BLACK
6
CONTINUOUS
10
1.56004
20
2.4027
11
1.56004
21
2.4657
0
LINE
8
BLACK
6
CONTINUOUS
10
1.56004
20
2.4657
11
1.57776
21
2.4657
0
LINE
8
BLACK
6
CONTINUOUS
10
1.57776
20
2.4657
11
1.57776
21
2.4027
0
LINE
8
BLACK
6
CONTINUOUS
10
1.60336
20
2.4027
11
1.58564
21
2.4027
0
LINE
8
BLACK
6
CONTINUOUS
10
1.58564
20
2.4027
11
1.58564
21
2.4657
0
LINE
8
BLACK
6
CONTINUOUS
10
1.58564
20
2.4657
11
1.60336
21
2.4657
0
LINE
8
BLACK
6
CONTINUOUS
10
1.60336
20
2.4657
11
1.60336
21
2.4027
0
LINE
8
BLACK
6
CONTINUOUS
10
1.62896
20
2.4027
11
1.61124
21
2.4027
0
LINE
8
BLACK
6
CONTINUOUS
10
1.61124
20
2.4027
11
1.61124
21
2.4657
0
LINE
8
BLACK
6
CONTINUOUS
10
1.61124
20
2.4657
11
1.62896
21
2.4657
0
LINE
8
BLACK
6
CONTINUOUS
10
1.62896
20
2.4657
11
1.62896
21
2.4027
0
LINE
8
BLACK
6
CONTINUOUS
10
1.65456
20
2.4027
11
1.63684
21
2.4027
0
LINE
8
BLACK
6
CONTINUOUS
10
1.63684
20
2.4027
11
1.63684
21
2.4657
0
LINE
8
BLACK
6
CONTINUOUS
10
1.63684
20
2.4657
11
1.65456
21
2.4657
0
LINE
8
BLACK
6
CONTINUOUS
10
1.65456
20
2.4657
11
1.65456
21
2.4027
0
LINE
8
BLACK
6
CONTINUOUS
10
1.68016
20
2.4027
11
1.66244
21
2.4027
0
LINE
8
BLACK
6
CONTINUOUS
10
1.66244
20
2.4027
11
1.66244
21
2.4657
0
LINE
8
BLACK
6
CONTINUOUS
10
1.66244
20
2.4657
11
1.68016
21
2.4657
0
LINE
8
BLACK
6
CONTINUOUS
10
1.68016
20
2.4657
11
1.68016
21
2.4027
0
LINE
8
BLACK
6
CONTINUOUS
10
1.70556
20
2.4027
11
1.68784
21
2.4027
0
LINE
8
BLACK
6
CONTINUOUS
10
1.68784
20
2.4027
11
1.68784
21
2.4657
0
LINE
8
BLACK
6
CONTINUOUS
10
1.68784
20
2.4657
11
1.70556
21
2.4657
0
LINE
8
BLACK
6
CONTINUOUS
10
1.70556
20
2.4657
11
1.70556
21
2.4027
0
LINE
8
BLACK
6
CONTINUOUS
10
1.73116
20
2.4027
11
1.71344
21
2.4027
0
LINE
8
BLACK
6
CONTINUOUS
10
1.71344
20
2.4027
11
1.71344
21
2.4657
0
LINE
8
BLACK
6
CONTINUOUS
10
1.71344
20
2.4657
11
1.73116
21
2.4657
0
LINE
8
BLACK
6
CONTINUOUS
10
1.73116
20
2.4657
11
1.73116
21
2.4027
0
LINE
8
BLACK
6
CONTINUOUS
10
1.75676
20
2.4027
11
1.73904
21
2.4027
0
LINE
8
BLACK
6
CONTINUOUS
10
1.73904
20
2.4027
11
1.73904
21
2.4657
0
LINE
8
BLACK
6
CONTINUOUS
10
1.73904
20
2.4657
11
1.75676
21
2.4657
0
LINE
8
BLACK
6
CONTINUOUS
10
1.75676
20
2.4657
11
1.75676
21
2.4027
0
LINE
8
BLACK
6
CONTINUOUS
10
1.78236
20
2.4027
11
1.76464
21
2.4027
0
LINE
8
BLACK
6
CONTINUOUS
10
1.76464
20
2.4027
11
1.76464
21
2.4657
0
LINE
8
BLACK
6
CONTINUOUS
10
1.76464
20
2.4657
11
1.78236
21
2.4657
0
LINE
8
BLACK
6
CONTINUOUS
10
1.78236
20
2.4657
11
1.78236
21
2.4027
0
LINE
8
BLACK
6
CONTINUOUS
10
1.80796
20
2.4027
11
1.79024
21
2.4027
0
LINE
8
BLACK
6
CONTINUOUS
10
1.79024
20
2.4027
11
1.79024
21
2.4657
0
LINE
8
BLACK
6
CONTINUOUS
10
1.79024
20
2.4657
11
1.80796
21
2.4657
0
LINE
8
BLACK
6
CONTINUOUS
10
1.80796
20
2.4657
11
1.80796
21
2.4027
0
LINE
8
BLACK
6
CONTINUOUS
10
1.83356
20
2.4027
11
1.81584
21
2.4027
0
LINE
8
BLACK
6
CONTINUOUS
10
1.81584
20
2.4027
11
1.81584
21
2.4657
0
LINE
8
BLACK
6
CONTINUOUS
10
1.81584
20
2.4657
11
1.83356
21
2.4657
0
LINE
8
BLACK
6
CONTINUOUS
10
1.83356
20
2.4657
11
1.83356
21
2.4027
0
LINE
8
BLACK
6
CONTINUOUS
10
1.85916
20
2.4027
11
1.84144
21
2.4027
0
LINE
8
BLACK
6
CONTINUOUS
10
1.84144
20
2.4027
11
1.84144
21
2.4657
0
LINE
8
BLACK
6
CONTINUOUS
10
1.84144
20
2.4657
11
1.85916
21
2.4657
0
LINE
8
BLACK
6
CONTINUOUS
10
1.85916
20
2.4657
11
1.85916
21
2.4027
0
LINE
8
BLACK
6
CONTINUOUS
10
1.4435
20
2.404
11
1.3885
21
2.404
0
LINE
8
BLACK
6
CONTINUOUS
10
1.3885
20
2.404
11
1.3885
21
2.439
0
LINE
8
BLACK
6
CONTINUOUS
10
1.3885
20
2.439
11
1.4435
21
2.439
0
LINE
8
BLACK
6
CONTINUOUS
10
1.4435
20
2.439
11
1.4435
21
2.404
0
LINE
8
BLACK
6
CONTINUOUS
10
1.1385
20
2.4225
11
1.1035
21
2.4225
0
LINE
8
BLACK
6
CONTINUOUS
10
1.1035
20
2.4225
11
1.1035
21
2.4775
0
LINE
8
BLACK
6
CONTINUOUS
10
1.1035
20
2.4775
11
1.1385
21
2.4775
0
LINE
8
BLACK
6
CONTINUOUS
10
1.1385
20
2.4775
11
1.1385
21
2.4225
0
LINE
8
BLACK
6
CONTINUOUS
10
1.2135
20
2.4225
11
1.1785
21
2.4225
0
LINE
8
BLACK
6
CONTINUOUS
10
1.1785
20
2.4225
11
1.1785
21
2.4775
0
LINE
8
BLACK
6
CONTINUOUS
10
1.1785
20
2.4775
11
1.2135
21
2.4775
0
LINE
8
BLACK
6
CONTINUOUS
10
1.2135
20
2.4775
11
1.2135
21
2.4225
0
LINE
8
BLACK
6
CONTINUOUS
10
1.176
20
2.5025
11
1.141
21
2.5025
0
LINE
8
BLACK
6
CONTINUOUS
10
1.141
20
2.5025
11
1.141
21
2.5575
0
LINE
8
BLACK
6
CONTINUOUS
10
1.141
20
2.5575
11
1.176
21
2.5575
0
LINE
8
BLACK
6
CONTINUOUS
10
1.176
20
2.5575
11
1.176
21
2.5025
0
LINE
8
BLACK
6
CONTINUOUS
10
1.251
20
2.5025
11
1.216
21
2.5025
0
LINE
8
BLACK
6
CONTINUOUS
10
1.216
20
2.5025
11
1.216
21
2.5575
0
LINE
8
BLACK
6
CONTINUOUS
10
1.216
20
2.5575
11
1.251
21
2.5575
0
LINE
8
BLACK
6
CONTINUOUS
10
1.251
20
2.5575
11
1.251
21
2.5025
0
LINE
8
BLACK
6
CONTINUOUS
10
1.1365
20
2.5825
11
1.1015
21
2.5825
0
LINE
8
BLACK
6
CONTINUOUS
10
1.1015
20
2.5825
11
1.1015
21
2.6375
0
LINE
8
BLACK
6
CONTINUOUS
10
1.1015
20
2.6375
11
1.1365
21
2.6375
0
LINE
8
BLACK
6
CONTINUOUS
10
1.1365
20
2.6375
11
1.1365
21
2.5825
0
LINE
8
BLACK
6
CONTINUOUS
10
1.2115
20
2.5825
11
1.1765
21
2.5825
0
LINE
8
BLACK
6
CONTINUOUS
10
1.1765
20
2.5825
11
1.1765
21
2.6375
0
LINE
8
BLACK
6
CONTINUOUS
10
1.1765
20
2.6375
11
1.2115
21
2.6375
0
LINE
8
BLACK
6
CONTINUOUS
10
1.2115
20
2.6375
11
1.2115
21
2.5825
0
LINE
8
BLACK
6
CONTINUOUS
10
1.178
20
2.6625
11
1.143
21
2.6625
0
LINE
8
BLACK
6
CONTINUOUS
10
1.143
20
2.6625
11
1.143
21
2.7175
0
LINE
8
BLACK
6
CONTINUOUS
10
1.143
20
2.7175
11
1.178
21
2.7175
0
LINE
8
BLACK
6
CONTINUOUS
10
1.178
20
2.7175
11
1.178
21
2.6625
0
LINE
8
BLACK
6
CONTINUOUS
10
1.253
20
2.6625
11
1.218
21
2.6625
0
LINE
8
BLACK
6
CONTINUOUS
10
1.218
20
2.6625
11
1.218
21
2.7175
0
LINE
8
BLACK
6
CONTINUOUS
10
1.218
20
2.7175
11
1.253
21
2.7175
0
LINE
8
BLACK
6
CONTINUOUS
10
1.253
20
2.7175
11
1.253
21
2.6625
0
LINE
8
BLACK
6
CONTINUOUS
10
1.138
20
2.7405
11
1.103
21
2.7405
0
LINE
8
BLACK
6
CONTINUOUS
10
1.103
20
2.7405
11
1.103
21
2.7955
0
LINE
8
BLACK
6
CONTINUOUS
10
1.103
20
2.7955
11
1.138
21
2.7955
0
LINE
8
BLACK
6
CONTINUOUS
10
1.138
20
2.7955
11
1.138
21
2.7405
0
LINE
8
BLACK
6
CONTINUOUS
10
1.213
20
2.7405
11
1.178
21
2.7405
0
LINE
8
BLACK
6
CONTINUOUS
10
1.178
20
2.7405
11
1.178
21
2.7955
0
LINE
8
BLACK
6
CONTINUOUS
10
1.178
20
2.7955
11
1.213
21
2.7955
0
LINE
8
BLACK
6
CONTINUOUS
10
1.213
20
2.7955
11
1.213
21
2.7405
0
LINE
8
BLACK
6
CONTINUOUS
10
1.174
20
2.8185
11
1.139
21
2.8185
0
LINE
8
BLACK
6
CONTINUOUS
10
1.139
20
2.8185
11
1.139
21
2.8735
0
LINE
8
BLACK
6
CONTINUOUS
10
1.139
20
2.8735
11
1.174
21
2.8735
0
LINE
8
BLACK
6
CONTINUOUS
10
1.174
20
2.8735
11
1.174
21
2.8185
0
LINE
8
BLACK
6
CONTINUOUS
10
1.249
20
2.8185
11
1.214
21
2.8185
0
LINE
8
BLACK
6
CONTINUOUS
10
1.214
20
2.8185
11
1.214
21
2.8735
0
LINE
8
BLACK
6
CONTINUOUS
10
1.214
20
2.8735
11
1.249
21
2.8735
0
LINE
8
BLACK
6
CONTINUOUS
10
1.249
20
2.8735
11
1.249
21
2.8185
0
LINE
8
BLACK
6
CONTINUOUS
10
1.9535
20
2.973
11
1.966
21
2.973
0
LINE
8
BLACK
6
CONTINUOUS
10
1.966
20
2.973
11
1.966
21
2.913
0
LINE
8
BLACK
6
CONTINUOUS
10
1.966
20
2.913
11
1.886
21
2.913
0
LINE
8
BLACK
6
CONTINUOUS
10
1.886
20
2.913
11
1.886
21
2.973
0
LINE
8
BLACK
6
CONTINUOUS
10
1.886
20
2.973
11
1.8985
21
2.973
0
LINE
8
BLACK
6
CONTINUOUS
10
1.8985
20
2.973
11
1.8985
21
2.994
0
LINE
8
BLACK
6
CONTINUOUS
10
1.8985
20
2.994
11
1.9535
21
2.994
0
LINE
8
BLACK
6
CONTINUOUS
10
1.9535
20
2.994
11
1.9535
21
2.973
0
LINE
8
BLACK
6
CONTINUOUS
10
2.0995
20
2.973
11
2.112
21
2.973
0
LINE
8
BLACK
6
CONTINUOUS
10
2.112
20
2.973
11
2.112
21
2.913
0
LINE
8
BLACK
6
CONTINUOUS
10
2.112
20
2.913
11
2.032
21
2.913
0
LINE
8
BLACK
6
CONTINUOUS
10
2.032
20
2.913
11
2.032
21
2.973
0
LINE
8
BLACK
6
CONTINUOUS
10
2.032
20
2.973
11
2.0445
21
2.973
0
LINE
8
BLACK
6
CONTINUOUS
10
2.0445
20
2.973
11
2.0445
21
2.994
0
LINE
8
BLACK
6
CONTINUOUS
10
2.0445
20
2.994
11
2.0995
21
2.994
0
LINE
8
BLACK
6
CONTINUOUS
10
2.0995
20
2.994
11
2.0995
21
2.973
0
LINE
8
BLACK
6
CONTINUOUS
10
2.2375
20
2.973
11
2.25
21
2.973
0
LINE
8
BLACK
6
CONTINUOUS
10
2.25
20
2.973
11
2.25
21
2.913
0
LINE
8
BLACK
6
CONTINUOUS
10
2.25
20
2.913
11
2.17
21
2.913
0
LINE
8
BLACK
6
CONTINUOUS
10
2.17
20
2.913
11
2.17
21
2.973
0
LINE
8
BLACK
6
CONTINUOUS
10
2.17
20
2.973
11
2.1825
21
2.973
0
LINE
8
BLACK
6
CONTINUOUS
10
2.1825
20
2.973
11
2.1825
21
2.994
0
LINE
8
BLACK
6
CONTINUOUS
10
2.1825
20
2.994
11
2.2375
21
2.994
0
LINE
8
BLACK
6
CONTINUOUS
10
2.2375
20
2.994
11
2.2375
21
2.973
0
LINE
8
BLACK
6
CONTINUOUS
10
2.3795
20
2.973
11
2.392
21
2.973
0
LINE
8
BLACK
6
CONTINUOUS
10
2.392
20
2.973
11
2.392
21
2.913
0
LINE
8
BLACK
6
CONTINUOUS
10
2.392
20
2.913
11
2.312
21
2.913
0
LINE
8
BLACK
6
CONTINUOUS
10
2.312
20
2.913
11
2.312
21
2.973
0
LINE
8
BLACK
6
CONTINUOUS
10
2.312
20
2.973
11
2.3245
21
2.973
0
LINE
8
BLACK
6
CONTINUOUS
10
2.3245
20
2.973
11
2.3245
21
2.994
0
LINE
8
BLACK
6
CONTINUOUS
10
2.3245
20
2.994
11
2.3795
21
2.994
0
LINE
8
BLACK
6
CONTINUOUS
10
2.3795
20
2.994
11
2.3795
21
2.973
0
LINE
8
BLACK
6
CONTINUOUS
10
1.3715
20
2.977
11
1.384
21
2.977
0
LINE
8
BLACK
6
CONTINUOUS
10
1.384
20
2.977
11
1.384
21
2.917
0
LINE
8
BLACK
6
CONTINUOUS
10
1.384
20
2.917
11
1.304
21
2.917
0
LINE
8
BLACK
6
CONTINUOUS
10
1.304
20
2.917
11
1.304
21
2.977
0
LINE
8
BLACK
6
CONTINUOUS
10
1.304
20
2.977
11
1.3165
21
2.977
0
LINE
8
BLACK
6
CONTINUOUS
10
1.3165
20
2.977
11
1.3165
21
2.9945
0
LINE
8
BLACK
6
CONTINUOUS
10
1.3165
20
2.9945
11
1.3715
21
2.9945
0
LINE
8
BLACK
6
CONTINUOUS
10
1.3715
20
2.9945
11
1.3715
21
2.977
0
LINE
8
BLACK
6
CONTINUOUS
10
1.5195
20
2.977
11
1.532
21
2.977
0
LINE
8
BLACK
6
CONTINUOUS
10
1.532
20
2.977
11
1.532
21
2.917
0
LINE
8
BLACK
6
CONTINUOUS
10
1.532
20
2.917
11
1.452
21
2.917
0
LINE
8
BLACK
6
CONTINUOUS
10
1.452
20
2.917
11
1.452
21
2.977
0
LINE
8
BLACK
6
CONTINUOUS
10
1.452
20
2.977
11
1.4645
21
2.977
0
LINE
8
BLACK
6
CONTINUOUS
10
1.4645
20
2.977
11
1.4645
21
2.994
0
LINE
8
BLACK
6
CONTINUOUS
10
1.4645
20
2.994
11
1.5195
21
2.994
0
LINE
8
BLACK
6
CONTINUOUS
10
1.5195
20
2.994
11
1.5195
21
2.977
0
LINE
8
BLACK
6
CONTINUOUS
10
1.6635
20
2.977
11
1.676
21
2.977
0
LINE
8
BLACK
6
CONTINUOUS
10
1.676
20
2.977
11
1.676
21
2.917
0
LINE
8
BLACK
6
CONTINUOUS
10
1.676
20
2.917
11
1.596
21
2.917
0
LINE
8
BLACK
6
CONTINUOUS
10
1.596
20
2.917
11
1.596
21
2.977
0
LINE
8
BLACK
6
CONTINUOUS
10
1.596
20
2.977
11
1.6085
21
2.977
0
LINE
8
BLACK
6
CONTINUOUS
10
1.6085
20
2.977
11
1.6085
21
2.994
0
LINE
8
BLACK
6
CONTINUOUS
10
1.6085
20
2.994
11
1.6635
21
2.994
0
LINE
8
BLACK
6
CONTINUOUS
10
1.6635
20
2.994
11
1.6635
21
2.977
0
LINE
8
BLACK
6
CONTINUOUS
10
1.8095
20
2.977
11
1.822
21
2.977
0
LINE
8
BLACK
6
CONTINUOUS
10
1.822
20
2.977
11
1.822
21
2.917
0
LINE
8
BLACK
6
CONTINUOUS
10
1.822
20
2.917
11
1.742
21
2.917
0
LINE
8
BLACK
6
CONTINUOUS
10
1.742
20
2.917
11
1.742
21
2.977
0
LINE
8
BLACK
6
CONTINUOUS
10
1.742
20
2.977
11
1.7545
21
2.977
0
LINE
8
BLACK
6
CONTINUOUS
10
1.7545
20
2.977
11
1.7545
21
2.994
0
LINE
8
BLACK
6
CONTINUOUS
10
1.7545
20
2.994
11
1.8095
21
2.994
0
LINE
8
BLACK
6
CONTINUOUS
10
1.8095
20
2.994
11
1.8095
21
2.977
0
LINE
8
BLACK
6
CONTINUOUS
10
1.532
20
3.047
11
1.5195
21
3.047
0
LINE
8
BLACK
6
CONTINUOUS
10
1.5195
20
3.047
11
1.5195
21
3.034
0
LINE
8
BLACK
6
CONTINUOUS
10
1.5195
20
3.034
11
1.4645
21
3.034
0
LINE
8
BLACK
6
CONTINUOUS
10
1.4645
20
3.034
11
1.4645
21
3.047
0
LINE
8
BLACK
6
CONTINUOUS
10
1.4645
20
3.047
11
1.452
21
3.047
0
LINE
8
BLACK
6
CONTINUOUS
10
1.452
20
3.047
11
1.452
21
3.107
0
LINE
8
BLACK
6
CONTINUOUS
10
1.452
20
3.107
11
1.532
21
3.107
0
LINE
8
BLACK
6
CONTINUOUS
10
1.532
20
3.107
11
1.532
21
3.047
0
LINE
8
BLACK
6
CONTINUOUS
10
1.676
20
3.047
11
1.6635
21
3.047
0
LINE
8
BLACK
6
CONTINUOUS
10
1.6635
20
3.047
11
1.6635
21
3.034
0
LINE
8
BLACK
6
CONTINUOUS
10
1.6635
20
3.034
11
1.6085
21
3.034
0
LINE
8
BLACK
6
CONTINUOUS
10
1.6085
20
3.034
11
1.6085
21
3.047
0
LINE
8
BLACK
6
CONTINUOUS
10
1.6085
20
3.047
11
1.596
21
3.047
0
LINE
8
BLACK
6
CONTINUOUS
10
1.596
20
3.047
11
1.596
21
3.107
0
LINE
8
BLACK
6
CONTINUOUS
10
1.596
20
3.107
11
1.676
21
3.107
0
LINE
8
BLACK
6
CONTINUOUS
10
1.676
20
3.107
11
1.676
21
3.047
0
LINE
8
BLACK
6
CONTINUOUS
10
1.822
20
3.047
11
1.8095
21
3.047
0
LINE
8
BLACK
6
CONTINUOUS
10
1.8095
20
3.047
11
1.8095
21
3.034
0
LINE
8
BLACK
6
CONTINUOUS
10
1.8095
20
3.034
11
1.7545
21
3.034
0
LINE
8
BLACK
6
CONTINUOUS
10
1.7545
20
3.034
11
1.7545
21
3.047
0
LINE
8
BLACK
6
CONTINUOUS
10
1.7545
20
3.047
11
1.742
21
3.047
0
LINE
8
BLACK
6
CONTINUOUS
10
1.742
20
3.047
11
1.742
21
3.107
0
LINE
8
BLACK
6
CONTINUOUS
10
1.742
20
3.107
11
1.822
21
3.107
0
LINE
8
BLACK
6
CONTINUOUS
10
1.822
20
3.107
11
1.822
21
3.047
0
LINE
8
BLACK
6
CONTINUOUS
10
1.966
20
3.043
11
1.9535
21
3.043
0
LINE
8
BLACK
6
CONTINUOUS
10
1.9535
20
3.043
11
1.9535
21
3.034
0
LINE
8
BLACK
6
CONTINUOUS
10
1.9535
20
3.034
11
1.8985
21
3.034
0
LINE
8
BLACK
6
CONTINUOUS
10
1.8985
20
3.034
11
1.8985
21
3.043
0
LINE
8
BLACK
6
CONTINUOUS
10
1.8985
20
3.043
11
1.886
21
3.043
0
LINE
8
BLACK
6
CONTINUOUS
10
1.886
20
3.043
11
1.886
21
3.103
0
LINE
8
BLACK
6
CONTINUOUS
10
1.886
20
3.103
11
1.966
21
3.103
0
LINE
8
BLACK
6
CONTINUOUS
10
1.966
20
3.103
11
1.966
21
3.043
0
LINE
8
BLACK
6
CONTINUOUS
10
2.112
20
3.043
11
2.0995
21
3.043
0
LINE
8
BLACK
6
CONTINUOUS
10
2.0995
20
3.043
11
2.0995
21
3.034
0
LINE
8
BLACK
6
CONTINUOUS
10
2.0995
20
3.034
11
2.0445
21
3.034
0
LINE
8
BLACK
6
CONTINUOUS
10
2.0445
20
3.034
11
2.0445
21
3.043
0
LINE
8
BLACK
6
CONTINUOUS
10
2.0445
20
3.043
11
2.032
21
3.043
0
LINE
8
BLACK
6
CONTINUOUS
10
2.032
20
3.043
11
2.032
21
3.103
0
LINE
8
BLACK
6
CONTINUOUS
10
2.032
20
3.103
11
2.112
21
3.103
0
LINE
8
BLACK
6
CONTINUOUS
10
2.112
20
3.103
11
2.112
21
3.043
0
LINE
8
BLACK
6
CONTINUOUS
10
2.25
20
3.043
11
2.2375
21
3.043
0
LINE
8
BLACK
6
CONTINUOUS
10
2.2375
20
3.043
11
2.2375
21
3.034
0
LINE
8
BLACK
6
CONTINUOUS
10
2.2375
20
3.034
11
2.1825
21
3.034
0
LINE
8
BLACK
6
CONTINUOUS
10
2.1825
20
3.034
11
2.1825
21
3.043
0
LINE
8
BLACK
6
CONTINUOUS
10
2.1825
20
3.043
11
2.17
21
3.043
0
LINE
8
BLACK
6
CONTINUOUS
10
2.17
20
3.043
11
2.17
21
3.103
0
LINE
8
BLACK
6
CONTINUOUS
10
2.17
20
3.103
11
2.25
21
3.103
0
LINE
8
BLACK
6
CONTINUOUS
10
2.25
20
3.103
11
2.25
21
3.043
0
LINE
8
BLACK
6
CONTINUOUS
10
2.392
20
3.043
11
2.3795
21
3.043
0
LINE
8
BLACK
6
CONTINUOUS
10
2.3795
20
3.043
11
2.3795
21
3.034
0
LINE
8
BLACK
6
CONTINUOUS
10
2.3795
20
3.034
11
2.3245
21
3.034
0
LINE
8
BLACK
6
CONTINUOUS
10
2.3245
20
3.034
11
2.3245
21
3.043
0
LINE
8
BLACK
6
CONTINUOUS
10
2.3245
20
3.043
11
2.312
21
3.043
0
LINE
8
BLACK
6
CONTINUOUS
10
2.312
20
3.043
11
2.312
21
3.103
0
LINE
8
BLACK
6
CONTINUOUS
10
2.312
20
3.103
11
2.392
21
3.103
0
LINE
8
BLACK
6
CONTINUOUS
10
2.392
20
3.103
11
2.392
21
3.043
0
LINE
8
BLACK
6
CONTINUOUS
10
1.384
20
3.047
11
1.3715
21
3.047
0
LINE
8
BLACK
6
CONTINUOUS
10
1.3715
20
3.047
11
1.3715
21
3.0345
0
LINE
8
BLACK
6
CONTINUOUS
10
1.3715
20
3.0345
11
1.3165
21
3.0345
0
LINE
8
BLACK
6
CONTINUOUS
10
1.3165
20
3.0345
11
1.3165
21
3.047
0
LINE
8
BLACK
6
CONTINUOUS
10
1.3165
20
3.047
11
1.304
21
3.047
0
LINE
8
BLACK
6
CONTINUOUS
10
1.304
20
3.047
11
1.304
21
3.107
0
LINE
8
BLACK
6
CONTINUOUS
10
1.304
20
3.107
11
1.384
21
3.107
0
LINE
8
BLACK
6
CONTINUOUS
10
1.384
20
3.107
11
1.384
21
3.047
0
LINE
8
BLACK
6
CONTINUOUS
10
1.3232
20
3.6964
11
1.2248
21
3.6964
0
LINE
8
BLACK
6
CONTINUOUS
10
1.2248
20
3.6964
11
1.2248
21
3.7968
0
LINE
8
BLACK
6
CONTINUOUS
10
1.2248
20
3.7968
11
1.3232
21
3.7968
0
LINE
8
BLACK
6
CONTINUOUS
10
1.3232
20
3.7968
11
1.3232
21
3.6964
0
LINE
8
BLACK
6
CONTINUOUS
10
1.3232
20
3.8952
11
1.2248
21
3.8952
0
LINE
8
BLACK
6
CONTINUOUS
10
1.2248
20
3.8952
11
1.2248
21
3.9956
0
LINE
8
BLACK
6
CONTINUOUS
10
1.2248
20
3.9956
11
1.3232
21
3.9956
0
LINE
8
BLACK
6
CONTINUOUS
10
1.3232
20
3.9956
11
1.3232
21
3.8952
  0
ENDSEC
  0
EOF
