  0
SECTION
  2
HEADER
  9
$ANGBASE
  50
0.0
  9
$ANGDIR
  70
1
  9
$MEASUREMENT
  70
0
  0
ENDSEC
  0
SECTION
  2
TABLES
  0
TABLE
  2
LTYPE
  70
4
  0
LTYPE
  5
40F
  2
CONTINUOUS
  70
0
  3
Solid line
  72
65
  73
0
  40
0.0
  0
LTYPE
  5
410
  2
DASHDOT
 70
0
  3
Dash Dot ____ _ ____ _
 72
65
 73
4
 40
2.0
 49
1.25
 49
-0.25
 49
0.25
 49
-0.25
  0
LTYPE
  5
411
  2
DASHED
 70
0
  3
Dashed __ __ __ __ __
 72
65
 73
2
 40
0.75
 49
0.5
 49
-0.25
  0
LTYPE
  5
43B
  2
DOTTED
 70
0
  3
Dotted .  .  .  .
 72
65
 73
2
 40
0.2
 49
0.0
 49
-0.2
  0
ENDTAB
  0
TABLE
  2
STYLE
  70
4
  0
STYLE
  2
KICAD
  70
0
  40
0
  41
1
  42
1
  50
0
  71
0
  3
isocp.shx
  0
STYLE
  2
KICADB
  70
0
  40
0
  41
1
  42
1
  50
0
  71
0
  3
isocp.shx
  0
STYLE
  2
KICADI
  70
0
  40
0
  41
1
  42
1
  50
15
  71
0
  3
isocp.shx
  0
STYLE
  2
KICADBI
  70
0
  40
0
  41
1
  42
1
  50
15
  71
0
  3
isocp.shx
  0
ENDTAB
  0
TABLE
  2
LAYER
  70
1
  0
LAYER
  2
BLACK
  70
0
  62
7
  6
CONTINUOUS
  0
ENDTAB
  0
ENDSEC
  0
SECTION
  2
ENTITIES
0
LINE
8
BLACK
6
CONTINUOUS
10
1.59156
20
1.54944
11
1.59646
21
1.56673
0
LINE
8
BLACK
6
CONTINUOUS
10
1.59646
20
1.56673
11
1.60279
21
1.58355
0
LINE
8
BLACK
6
CONTINUOUS
10
1.60279
20
1.58355
11
1.61051
21
1.59977
0
LINE
8
BLACK
6
CONTINUOUS
10
1.61051
20
1.59977
11
1.61957
21
1.61529
0
LINE
8
BLACK
6
CONTINUOUS
10
1.61957
20
1.61529
11
1.6299
21
1.62999
0
LINE
8
BLACK
6
CONTINUOUS
10
1.6299
20
1.62999
11
1.64144
21
1.64377
0
LINE
8
BLACK
6
CONTINUOUS
10
1.64144
20
1.64377
11
1.65409
21
1.65653
0
LINE
8
BLACK
6
CONTINUOUS
10
1.65409
20
1.65653
11
1.66777
21
1.66818
0
LINE
8
BLACK
6
CONTINUOUS
10
1.66777
20
1.66818
11
1.68238
21
1.67864
0
LINE
8
BLACK
6
CONTINUOUS
10
1.68238
20
1.67864
11
1.69782
21
1.68783
0
LINE
8
BLACK
6
CONTINUOUS
10
1.69782
20
1.68783
11
1.71397
21
1.6957
0
LINE
8
BLACK
6
CONTINUOUS
10
1.71397
20
1.6957
11
1.73073
21
1.70217
0
LINE
8
BLACK
6
CONTINUOUS
10
1.73073
20
1.70217
11
1.74798
21
1.70722
0
LINE
8
BLACK
6
CONTINUOUS
10
1.74798
20
1.70722
11
1.76559
21
1.71079
0
LINE
8
BLACK
6
CONTINUOUS
10
1.76559
20
1.71079
11
1.78344
21
1.71287
0
LINE
8
BLACK
6
CONTINUOUS
10
1.78344
20
1.71287
11
1.8014
21
1.71344
0
LINE
8
BLACK
6
CONTINUOUS
10
1.8014
20
1.71344
11
1.81934
21
1.7125
0
LINE
8
BLACK
6
CONTINUOUS
10
1.81934
20
1.7125
11
1.83714
21
1.71006
0
LINE
8
BLACK
6
CONTINUOUS
10
1.83714
20
1.71006
11
1.85468
21
1.70612
0
LINE
8
BLACK
6
CONTINUOUS
10
1.85468
20
1.70612
11
1.87182
21
1.70073
0
LINE
8
BLACK
6
CONTINUOUS
10
1.87182
20
1.70073
11
1.88844
21
1.69391
0
LINE
8
BLACK
6
CONTINUOUS
10
1.88844
20
1.69391
11
1.90443
21
1.68572
0
LINE
8
BLACK
6
CONTINUOUS
10
1.90443
20
1.68572
11
1.91968
21
1.67621
0
LINE
8
BLACK
6
CONTINUOUS
10
1.91968
20
1.67621
11
1.93408
21
1.66545
0
LINE
8
BLACK
6
CONTINUOUS
10
1.93408
20
1.66545
11
1.94751
21
1.65352
0
LINE
8
BLACK
6
CONTINUOUS
10
1.94751
20
1.65352
11
1.9599
21
1.64051
0
LINE
8
BLACK
6
CONTINUOUS
10
1.9599
20
1.64051
11
1.97115
21
1.6265
0
LINE
8
BLACK
6
CONTINUOUS
10
1.97115
20
1.6265
11
1.98118
21
1.61159
0
LINE
8
BLACK
6
CONTINUOUS
10
1.98118
20
1.61159
11
1.98992
21
1.59589
0
LINE
8
BLACK
6
CONTINUOUS
10
1.98992
20
1.59589
11
1.99731
21
1.57951
0
LINE
8
BLACK
6
CONTINUOUS
10
1.99731
20
1.57951
11
2.00329
21
1.56256
0
LINE
8
BLACK
6
CONTINUOUS
10
2.00329
20
1.56256
11
2.00783
21
1.54518
0
LINE
8
BLACK
6
CONTINUOUS
10
2.00783
20
1.54518
11
2.01089
21
1.52747
0
LINE
8
BLACK
6
CONTINUOUS
10
2.01089
20
1.52747
11
2.01245
21
1.50957
0
LINE
8
BLACK
6
CONTINUOUS
10
2.01245
20
1.50957
11
2.0125
21
1.4916
0
LINE
8
BLACK
6
CONTINUOUS
10
2.0125
20
1.4916
11
2.01104
21
1.47369
0
LINE
8
BLACK
6
CONTINUOUS
10
2.01104
20
1.47369
11
2.00808
21
1.45597
0
LINE
8
BLACK
6
CONTINUOUS
10
2.00808
20
1.45597
11
2.00363
21
1.43856
0
LINE
8
BLACK
6
CONTINUOUS
10
2.00363
20
1.43856
11
1.99774
21
1.42158
0
LINE
8
BLACK
6
CONTINUOUS
10
1.99774
20
1.42158
11
1.99044
21
1.40516
0
LINE
8
BLACK
6
CONTINUOUS
10
1.99044
20
1.40516
11
1.98179
21
1.38942
0
LINE
8
BLACK
6
CONTINUOUS
10
1.98179
20
1.38942
11
1.97184
21
1.37445
0
LINE
8
BLACK
6
CONTINUOUS
10
1.97184
20
1.37445
11
1.96067
21
1.36038
0
LINE
8
BLACK
6
CONTINUOUS
10
1.96067
20
1.36038
11
1.94836
21
1.34729
0
LINE
8
BLACK
6
CONTINUOUS
10
1.94836
20
1.34729
11
1.93498
21
1.33529
0
LINE
8
BLACK
6
CONTINUOUS
10
1.93498
20
1.33529
11
1.92065
21
1.32445
0
LINE
8
BLACK
6
CONTINUOUS
10
1.92065
20
1.32445
11
1.90545
21
1.31486
0
LINE
8
BLACK
6
CONTINUOUS
10
1.90545
20
1.31486
11
1.88951
21
1.30658
0
LINE
8
BLACK
6
CONTINUOUS
10
1.88951
20
1.30658
11
1.87292
21
1.29967
0
LINE
8
BLACK
6
CONTINUOUS
10
1.87292
20
1.29967
11
1.85581
21
1.29418
0
LINE
8
BLACK
6
CONTINUOUS
10
1.85581
20
1.29418
11
1.8383
21
1.29015
0
LINE
8
BLACK
6
CONTINUOUS
10
1.8383
20
1.29015
11
1.82051
21
1.28761
0
LINE
8
BLACK
6
CONTINUOUS
10
1.82051
20
1.28761
11
1.80257
21
1.28657
0
LINE
8
BLACK
6
CONTINUOUS
10
1.80257
20
1.28657
11
1.78461
21
1.28705
0
LINE
8
BLACK
6
CONTINUOUS
10
1.78461
20
1.28705
11
1.76675
21
1.28903
0
LINE
8
BLACK
6
CONTINUOUS
10
1.76675
20
1.28903
11
1.74912
21
1.29251
0
LINE
8
BLACK
6
CONTINUOUS
10
1.74912
20
1.29251
11
1.73185
21
1.29745
0
LINE
8
BLACK
6
CONTINUOUS
10
1.73185
20
1.29745
11
1.71505
21
1.30384
0
LINE
8
BLACK
6
CONTINUOUS
10
1.71505
20
1.30384
11
1.69885
21
1.31161
0
LINE
8
BLACK
6
CONTINUOUS
10
1.69885
20
1.31161
11
1.68336
21
1.32072
0
LINE
8
BLACK
6
CONTINUOUS
10
1.68336
20
1.32072
11
1.66869
21
1.3311
0
LINE
8
BLACK
6
CONTINUOUS
10
1.66869
20
1.3311
11
1.65495
21
1.34267
0
LINE
8
BLACK
6
CONTINUOUS
10
1.65495
20
1.34267
11
1.64223
21
1.35537
0
LINE
8
BLACK
6
CONTINUOUS
10
1.64223
20
1.35537
11
1.63062
21
1.36908
0
LINE
8
BLACK
6
CONTINUOUS
10
1.63062
20
1.36908
11
1.62021
21
1.38373
0
LINE
8
BLACK
6
CONTINUOUS
10
1.62021
20
1.38373
11
1.61106
21
1.39919
0
LINE
8
BLACK
6
CONTINUOUS
10
1.61106
20
1.39919
11
1.60325
21
1.41537
0
LINE
8
BLACK
6
CONTINUOUS
10
1.60325
20
1.41537
11
1.59683
21
1.43216
0
LINE
8
BLACK
6
CONTINUOUS
10
1.59683
20
1.43216
11
1.59184
21
1.44942
0
LINE
8
BLACK
6
CONTINUOUS
10
1.59184
20
1.44942
11
1.59188
21
1.45003
0
LINE
8
BLACK
6
CONTINUOUS
10
1.59188
20
1.45003
11
1.59191
21
1.45006
0
LINE
8
BLACK
6
CONTINUOUS
10
1.59191
20
1.45006
11
1.59182
21
1.45009
0
LINE
8
BLACK
6
CONTINUOUS
10
1.59182
20
1.45009
11
1.59154
21
1.45079
0
LINE
8
BLACK
6
CONTINUOUS
10
1.59154
20
1.45079
11
1.59154
21
1.54921
0
LINE
8
BLACK
6
CONTINUOUS
10
1.59154
20
1.54921
11
1.59157
21
1.5493
0
LINE
8
BLACK
6
CONTINUOUS
10
1.59157
20
1.5493
11
1.59156
21
1.54944
0
LINE
8
BLACK
6
CONTINUOUS
10
1.77848
20
1.71066
11
1.76058
21
1.70812
0
LINE
8
BLACK
6
CONTINUOUS
10
1.76058
20
1.70812
11
1.74296
21
1.70406
0
LINE
8
BLACK
6
CONTINUOUS
10
1.74296
20
1.70406
11
1.72575
21
1.69852
0
LINE
8
BLACK
6
CONTINUOUS
10
1.72575
20
1.69852
11
1.70907
21
1.69153
0
LINE
8
BLACK
6
CONTINUOUS
10
1.70907
20
1.69153
11
1.69306
21
1.68313
0
LINE
8
BLACK
6
CONTINUOUS
10
1.69306
20
1.68313
11
1.67781
21
1.67341
0
LINE
8
BLACK
6
CONTINUOUS
10
1.67781
20
1.67341
11
1.66346
21
1.66241
0
LINE
8
BLACK
6
CONTINUOUS
10
1.66346
20
1.66241
11
1.65009
21
1.65024
0
LINE
8
BLACK
6
CONTINUOUS
10
1.65009
20
1.65024
11
1.63782
21
1.63696
0
LINE
8
BLACK
6
CONTINUOUS
10
1.63782
20
1.63696
11
1.62672
21
1.62269
0
LINE
8
BLACK
6
CONTINUOUS
10
1.62672
20
1.62269
11
1.61688
21
1.60752
0
LINE
8
BLACK
6
CONTINUOUS
10
1.61688
20
1.60752
11
1.60837
21
1.59157
0
LINE
8
BLACK
6
CONTINUOUS
10
1.60837
20
1.59157
11
1.60125
21
1.57495
0
LINE
8
BLACK
6
CONTINUOUS
10
1.60125
20
1.57495
11
1.59557
21
1.55778
0
LINE
8
BLACK
6
CONTINUOUS
10
1.59557
20
1.55778
11
1.5935
21
1.5491
0
LINE
8
BLACK
6
CONTINUOUS
10
1.5935
20
1.5491
11
1.5935
21
1.45079
0
LINE
8
BLACK
6
CONTINUOUS
10
1.5935
20
1.45079
11
1.59336
21
1.45043
0
LINE
8
BLACK
6
CONTINUOUS
10
1.59336
20
1.45043
11
1.59343
21
1.4504
0
LINE
8
BLACK
6
CONTINUOUS
10
1.59343
20
1.4504
11
1.59375
21
1.44988
0
LINE
8
BLACK
6
CONTINUOUS
10
1.59375
20
1.44988
11
1.59589
21
1.4411
0
LINE
8
BLACK
6
CONTINUOUS
10
1.59589
20
1.4411
11
1.60166
21
1.42397
0
LINE
8
BLACK
6
CONTINUOUS
10
1.60166
20
1.42397
11
1.60887
21
1.40738
0
LINE
8
BLACK
6
CONTINUOUS
10
1.60887
20
1.40738
11
1.61747
21
1.39148
0
LINE
8
BLACK
6
CONTINUOUS
10
1.61747
20
1.39148
11
1.62739
21
1.37636
0
LINE
8
BLACK
6
CONTINUOUS
10
1.62739
20
1.37636
11
1.63857
21
1.36215
0
LINE
8
BLACK
6
CONTINUOUS
10
1.63857
20
1.36215
11
1.65092
21
1.34895
0
LINE
8
BLACK
6
CONTINUOUS
10
1.65092
20
1.34895
11
1.66435
21
1.33684
0
LINE
8
BLACK
6
CONTINUOUS
10
1.66435
20
1.33684
11
1.67877
21
1.32593
0
LINE
8
BLACK
6
CONTINUOUS
10
1.67877
20
1.32593
11
1.69406
21
1.31629
0
LINE
8
BLACK
6
CONTINUOUS
10
1.69406
20
1.31629
11
1.71013
21
1.30798
0
LINE
8
BLACK
6
CONTINUOUS
10
1.71013
20
1.30798
11
1.72684
21
1.30108
0
LINE
8
BLACK
6
CONTINUOUS
10
1.72684
20
1.30108
11
1.74408
21
1.29563
0
LINE
8
BLACK
6
CONTINUOUS
10
1.74408
20
1.29563
11
1.76172
21
1.29167
0
LINE
8
BLACK
6
CONTINUOUS
10
1.76172
20
1.29167
11
1.77964
21
1.28923
0
LINE
8
BLACK
6
CONTINUOUS
10
1.77964
20
1.28923
11
1.79769
21
1.28833
0
LINE
8
BLACK
6
CONTINUOUS
10
1.79769
20
1.28833
11
1.81576
21
1.28897
0
LINE
8
BLACK
6
CONTINUOUS
10
1.81576
20
1.28897
11
1.83371
21
1.29115
0
LINE
8
BLACK
6
CONTINUOUS
10
1.83371
20
1.29115
11
1.85141
21
1.29486
0
LINE
8
BLACK
6
CONTINUOUS
10
1.85141
20
1.29486
11
1.86873
21
1.30006
0
LINE
8
BLACK
6
CONTINUOUS
10
1.86873
20
1.30006
11
1.88554
21
1.30672
0
LINE
8
BLACK
6
CONTINUOUS
10
1.88554
20
1.30672
11
1.90172
21
1.3148
0
LINE
8
BLACK
6
CONTINUOUS
10
1.90172
20
1.3148
11
1.91715
21
1.32422
0
LINE
8
BLACK
6
CONTINUOUS
10
1.91715
20
1.32422
11
1.93172
21
1.33493
0
LINE
8
BLACK
6
CONTINUOUS
10
1.93172
20
1.33493
11
1.94532
21
1.34684
0
LINE
8
BLACK
6
CONTINUOUS
10
1.94532
20
1.34684
11
1.95786
21
1.35986
0
LINE
8
BLACK
6
CONTINUOUS
10
1.95786
20
1.35986
11
1.96924
21
1.37391
0
LINE
8
BLACK
6
CONTINUOUS
10
1.96924
20
1.37391
11
1.97938
21
1.38888
0
LINE
8
BLACK
6
CONTINUOUS
10
1.97938
20
1.38888
11
1.98821
21
1.40466
0
LINE
8
BLACK
6
CONTINUOUS
10
1.98821
20
1.40466
11
1.99565
21
1.42114
0
LINE
8
BLACK
6
CONTINUOUS
10
1.99565
20
1.42114
11
2.00167
21
1.43819
0
LINE
8
BLACK
6
CONTINUOUS
10
2.00167
20
1.43819
11
2.0062
21
1.4557
0
LINE
8
BLACK
6
CONTINUOUS
10
2.0062
20
1.4557
11
2.00923
21
1.47352
0
LINE
8
BLACK
6
CONTINUOUS
10
2.00923
20
1.47352
11
2.01072
21
1.49154
0
LINE
8
BLACK
6
CONTINUOUS
10
2.01072
20
1.49154
11
2.01067
21
1.50962
0
LINE
8
BLACK
6
CONTINUOUS
10
2.01067
20
1.50962
11
2.00908
21
1.52763
0
LINE
8
BLACK
6
CONTINUOUS
10
2.00908
20
1.52763
11
2.00595
21
1.54544
0
LINE
8
BLACK
6
CONTINUOUS
10
2.00595
20
1.54544
11
2.00132
21
1.56292
0
LINE
8
BLACK
6
CONTINUOUS
10
2.00132
20
1.56292
11
1.99522
21
1.57994
0
LINE
8
BLACK
6
CONTINUOUS
10
1.99522
20
1.57994
11
1.98768
21
1.59637
0
LINE
8
BLACK
6
CONTINUOUS
10
1.98768
20
1.59637
11
1.97877
21
1.61211
0
LINE
8
BLACK
6
CONTINUOUS
10
1.97877
20
1.61211
11
1.96854
21
1.62702
0
LINE
8
BLACK
6
CONTINUOUS
10
1.96854
20
1.62702
11
1.95709
21
1.64101
0
LINE
8
BLACK
6
CONTINUOUS
10
1.95709
20
1.64101
11
1.94448
21
1.65397
0
LINE
8
BLACK
6
CONTINUOUS
10
1.94448
20
1.65397
11
1.93081
21
1.6658
0
LINE
8
BLACK
6
CONTINUOUS
10
1.93081
20
1.6658
11
1.91618
21
1.67643
0
LINE
8
BLACK
6
CONTINUOUS
10
1.91618
20
1.67643
11
1.9007
21
1.68576
0
LINE
8
BLACK
6
CONTINUOUS
10
1.9007
20
1.68576
11
1.88447
21
1.69375
0
LINE
8
BLACK
6
CONTINUOUS
10
1.88447
20
1.69375
11
1.86763
21
1.70032
0
LINE
8
BLACK
6
CONTINUOUS
10
1.86763
20
1.70032
11
1.85028
21
1.70542
0
LINE
8
BLACK
6
CONTINUOUS
10
1.85028
20
1.70542
11
1.83256
21
1.70903
0
LINE
8
BLACK
6
CONTINUOUS
10
1.83256
20
1.70903
11
1.8146
21
1.71112
0
LINE
8
BLACK
6
CONTINUOUS
10
1.8146
20
1.71112
11
1.79653
21
1.71166
0
LINE
8
BLACK
6
CONTINUOUS
10
1.79653
20
1.71166
11
1.77848
21
1.71066
0
LINE
8
BLACK
6
CONTINUOUS
10
1.59156
20
4.14944
11
1.59646
21
4.16673
0
LINE
8
BLACK
6
CONTINUOUS
10
1.59646
20
4.16673
11
1.60279
21
4.18355
0
LINE
8
BLACK
6
CONTINUOUS
10
1.60279
20
4.18355
11
1.61051
21
4.19977
0
LINE
8
BLACK
6
CONTINUOUS
10
1.61051
20
4.19977
11
1.61957
21
4.21529
0
LINE
8
BLACK
6
CONTINUOUS
10
1.61957
20
4.21529
11
1.6299
21
4.22999
0
LINE
8
BLACK
6
CONTINUOUS
10
1.6299
20
4.22999
11
1.64144
21
4.24377
0
LINE
8
BLACK
6
CONTINUOUS
10
1.64144
20
4.24377
11
1.65409
21
4.25653
0
LINE
8
BLACK
6
CONTINUOUS
10
1.65409
20
4.25653
11
1.66777
21
4.26818
0
LINE
8
BLACK
6
CONTINUOUS
10
1.66777
20
4.26818
11
1.68238
21
4.27864
0
LINE
8
BLACK
6
CONTINUOUS
10
1.68238
20
4.27864
11
1.69782
21
4.28783
0
LINE
8
BLACK
6
CONTINUOUS
10
1.69782
20
4.28783
11
1.71397
21
4.2957
0
LINE
8
BLACK
6
CONTINUOUS
10
1.71397
20
4.2957
11
1.73073
21
4.30217
0
LINE
8
BLACK
6
CONTINUOUS
10
1.73073
20
4.30217
11
1.74798
21
4.30722
0
LINE
8
BLACK
6
CONTINUOUS
10
1.74798
20
4.30722
11
1.76559
21
4.31079
0
LINE
8
BLACK
6
CONTINUOUS
10
1.76559
20
4.31079
11
1.78344
21
4.31287
0
LINE
8
BLACK
6
CONTINUOUS
10
1.78344
20
4.31287
11
1.8014
21
4.31344
0
LINE
8
BLACK
6
CONTINUOUS
10
1.8014
20
4.31344
11
1.81934
21
4.3125
0
LINE
8
BLACK
6
CONTINUOUS
10
1.81934
20
4.3125
11
1.83714
21
4.31006
0
LINE
8
BLACK
6
CONTINUOUS
10
1.83714
20
4.31006
11
1.85468
21
4.30612
0
LINE
8
BLACK
6
CONTINUOUS
10
1.85468
20
4.30612
11
1.87182
21
4.30073
0
LINE
8
BLACK
6
CONTINUOUS
10
1.87182
20
4.30073
11
1.88844
21
4.29391
0
LINE
8
BLACK
6
CONTINUOUS
10
1.88844
20
4.29391
11
1.90443
21
4.28572
0
LINE
8
BLACK
6
CONTINUOUS
10
1.90443
20
4.28572
11
1.91968
21
4.27621
0
LINE
8
BLACK
6
CONTINUOUS
10
1.91968
20
4.27621
11
1.93408
21
4.26545
0
LINE
8
BLACK
6
CONTINUOUS
10
1.93408
20
4.26545
11
1.94751
21
4.25352
0
LINE
8
BLACK
6
CONTINUOUS
10
1.94751
20
4.25352
11
1.9599
21
4.24051
0
LINE
8
BLACK
6
CONTINUOUS
10
1.9599
20
4.24051
11
1.97115
21
4.2265
0
LINE
8
BLACK
6
CONTINUOUS
10
1.97115
20
4.2265
11
1.98118
21
4.21159
0
LINE
8
BLACK
6
CONTINUOUS
10
1.98118
20
4.21159
11
1.98992
21
4.19589
0
LINE
8
BLACK
6
CONTINUOUS
10
1.98992
20
4.19589
11
1.99731
21
4.17951
0
LINE
8
BLACK
6
CONTINUOUS
10
1.99731
20
4.17951
11
2.00329
21
4.16256
0
LINE
8
BLACK
6
CONTINUOUS
10
2.00329
20
4.16256
11
2.00783
21
4.14518
0
LINE
8
BLACK
6
CONTINUOUS
10
2.00783
20
4.14518
11
2.01089
21
4.12747
0
LINE
8
BLACK
6
CONTINUOUS
10
2.01089
20
4.12747
11
2.01245
21
4.10957
0
LINE
8
BLACK
6
CONTINUOUS
10
2.01245
20
4.10957
11
2.0125
21
4.0916
0
LINE
8
BLACK
6
CONTINUOUS
10
2.0125
20
4.0916
11
2.01104
21
4.07369
0
LINE
8
BLACK
6
CONTINUOUS
10
2.01104
20
4.07369
11
2.00808
21
4.05597
0
LINE
8
BLACK
6
CONTINUOUS
10
2.00808
20
4.05597
11
2.00363
21
4.03856
0
LINE
8
BLACK
6
CONTINUOUS
10
2.00363
20
4.03856
11
1.99774
21
4.02158
0
LINE
8
BLACK
6
CONTINUOUS
10
1.99774
20
4.02158
11
1.99044
21
4.00516
0
LINE
8
BLACK
6
CONTINUOUS
10
1.99044
20
4.00516
11
1.98179
21
3.98942
0
LINE
8
BLACK
6
CONTINUOUS
10
1.98179
20
3.98942
11
1.97184
21
3.97445
0
LINE
8
BLACK
6
CONTINUOUS
10
1.97184
20
3.97445
11
1.96067
21
3.96038
0
LINE
8
BLACK
6
CONTINUOUS
10
1.96067
20
3.96038
11
1.94836
21
3.94729
0
LINE
8
BLACK
6
CONTINUOUS
10
1.94836
20
3.94729
11
1.93498
21
3.93529
0
LINE
8
BLACK
6
CONTINUOUS
10
1.93498
20
3.93529
11
1.92065
21
3.92445
0
LINE
8
BLACK
6
CONTINUOUS
10
1.92065
20
3.92445
11
1.90545
21
3.91486
0
LINE
8
BLACK
6
CONTINUOUS
10
1.90545
20
3.91486
11
1.88951
21
3.90658
0
LINE
8
BLACK
6
CONTINUOUS
10
1.88951
20
3.90658
11
1.87292
21
3.89967
0
LINE
8
BLACK
6
CONTINUOUS
10
1.87292
20
3.89967
11
1.85581
21
3.89418
0
LINE
8
BLACK
6
CONTINUOUS
10
1.85581
20
3.89418
11
1.8383
21
3.89015
0
LINE
8
BLACK
6
CONTINUOUS
10
1.8383
20
3.89015
11
1.82051
21
3.88761
0
LINE
8
BLACK
6
CONTINUOUS
10
1.82051
20
3.88761
11
1.80257
21
3.88657
0
LINE
8
BLACK
6
CONTINUOUS
10
1.80257
20
3.88657
11
1.78461
21
3.88705
0
LINE
8
BLACK
6
CONTINUOUS
10
1.78461
20
3.88705
11
1.76675
21
3.88903
0
LINE
8
BLACK
6
CONTINUOUS
10
1.76675
20
3.88903
11
1.74912
21
3.89251
0
LINE
8
BLACK
6
CONTINUOUS
10
1.74912
20
3.89251
11
1.73185
21
3.89745
0
LINE
8
BLACK
6
CONTINUOUS
10
1.73185
20
3.89745
11
1.71505
21
3.90384
0
LINE
8
BLACK
6
CONTINUOUS
10
1.71505
20
3.90384
11
1.69885
21
3.91161
0
LINE
8
BLACK
6
CONTINUOUS
10
1.69885
20
3.91161
11
1.68336
21
3.92072
0
LINE
8
BLACK
6
CONTINUOUS
10
1.68336
20
3.92072
11
1.66869
21
3.9311
0
LINE
8
BLACK
6
CONTINUOUS
10
1.66869
20
3.9311
11
1.65495
21
3.94267
0
LINE
8
BLACK
6
CONTINUOUS
10
1.65495
20
3.94267
11
1.64223
21
3.95537
0
LINE
8
BLACK
6
CONTINUOUS
10
1.64223
20
3.95537
11
1.63062
21
3.96908
0
LINE
8
BLACK
6
CONTINUOUS
10
1.63062
20
3.96908
11
1.62021
21
3.98373
0
LINE
8
BLACK
6
CONTINUOUS
10
1.62021
20
3.98373
11
1.61106
21
3.99919
0
LINE
8
BLACK
6
CONTINUOUS
10
1.61106
20
3.99919
11
1.60325
21
4.01537
0
LINE
8
BLACK
6
CONTINUOUS
10
1.60325
20
4.01537
11
1.59683
21
4.03216
0
LINE
8
BLACK
6
CONTINUOUS
10
1.59683
20
4.03216
11
1.59184
21
4.04942
0
LINE
8
BLACK
6
CONTINUOUS
10
1.59184
20
4.04942
11
1.59188
21
4.05003
0
LINE
8
BLACK
6
CONTINUOUS
10
1.59188
20
4.05003
11
1.59191
21
4.05006
0
LINE
8
BLACK
6
CONTINUOUS
10
1.59191
20
4.05006
11
1.59182
21
4.05009
0
LINE
8
BLACK
6
CONTINUOUS
10
1.59182
20
4.05009
11
1.59154
21
4.05079
0
LINE
8
BLACK
6
CONTINUOUS
10
1.59154
20
4.05079
11
1.59154
21
4.14921
0
LINE
8
BLACK
6
CONTINUOUS
10
1.59154
20
4.14921
11
1.59157
21
4.1493
0
LINE
8
BLACK
6
CONTINUOUS
10
1.59157
20
4.1493
11
1.59156
21
4.14944
0
LINE
8
BLACK
6
CONTINUOUS
10
1.77848
20
4.31066
11
1.76058
21
4.30812
0
LINE
8
BLACK
6
CONTINUOUS
10
1.76058
20
4.30812
11
1.74296
21
4.30406
0
LINE
8
BLACK
6
CONTINUOUS
10
1.74296
20
4.30406
11
1.72575
21
4.29852
0
LINE
8
BLACK
6
CONTINUOUS
10
1.72575
20
4.29852
11
1.70907
21
4.29153
0
LINE
8
BLACK
6
CONTINUOUS
10
1.70907
20
4.29153
11
1.69306
21
4.28313
0
LINE
8
BLACK
6
CONTINUOUS
10
1.69306
20
4.28313
11
1.67781
21
4.27341
0
LINE
8
BLACK
6
CONTINUOUS
10
1.67781
20
4.27341
11
1.66346
21
4.26241
0
LINE
8
BLACK
6
CONTINUOUS
10
1.66346
20
4.26241
11
1.65009
21
4.25024
0
LINE
8
BLACK
6
CONTINUOUS
10
1.65009
20
4.25024
11
1.63782
21
4.23696
0
LINE
8
BLACK
6
CONTINUOUS
10
1.63782
20
4.23696
11
1.62672
21
4.22269
0
LINE
8
BLACK
6
CONTINUOUS
10
1.62672
20
4.22269
11
1.61688
21
4.20752
0
LINE
8
BLACK
6
CONTINUOUS
10
1.61688
20
4.20752
11
1.60837
21
4.19157
0
LINE
8
BLACK
6
CONTINUOUS
10
1.60837
20
4.19157
11
1.60125
21
4.17495
0
LINE
8
BLACK
6
CONTINUOUS
10
1.60125
20
4.17495
11
1.59557
21
4.15778
0
LINE
8
BLACK
6
CONTINUOUS
10
1.59557
20
4.15778
11
1.5935
21
4.1491
0
LINE
8
BLACK
6
CONTINUOUS
10
1.5935
20
4.1491
11
1.5935
21
4.05079
0
LINE
8
BLACK
6
CONTINUOUS
10
1.5935
20
4.05079
11
1.59336
21
4.05043
0
LINE
8
BLACK
6
CONTINUOUS
10
1.59336
20
4.05043
11
1.59343
21
4.0504
0
LINE
8
BLACK
6
CONTINUOUS
10
1.59343
20
4.0504
11
1.59375
21
4.04988
0
LINE
8
BLACK
6
CONTINUOUS
10
1.59375
20
4.04988
11
1.59589
21
4.0411
0
LINE
8
BLACK
6
CONTINUOUS
10
1.59589
20
4.0411
11
1.60166
21
4.02397
0
LINE
8
BLACK
6
CONTINUOUS
10
1.60166
20
4.02397
11
1.60887
21
4.00738
0
LINE
8
BLACK
6
CONTINUOUS
10
1.60887
20
4.00738
11
1.61747
21
3.99148
0
LINE
8
BLACK
6
CONTINUOUS
10
1.61747
20
3.99148
11
1.62739
21
3.97636
0
LINE
8
BLACK
6
CONTINUOUS
10
1.62739
20
3.97636
11
1.63857
21
3.96215
0
LINE
8
BLACK
6
CONTINUOUS
10
1.63857
20
3.96215
11
1.65092
21
3.94895
0
LINE
8
BLACK
6
CONTINUOUS
10
1.65092
20
3.94895
11
1.66435
21
3.93684
0
LINE
8
BLACK
6
CONTINUOUS
10
1.66435
20
3.93684
11
1.67877
21
3.92593
0
LINE
8
BLACK
6
CONTINUOUS
10
1.67877
20
3.92593
11
1.69406
21
3.91629
0
LINE
8
BLACK
6
CONTINUOUS
10
1.69406
20
3.91629
11
1.71013
21
3.90798
0
LINE
8
BLACK
6
CONTINUOUS
10
1.71013
20
3.90798
11
1.72684
21
3.90108
0
LINE
8
BLACK
6
CONTINUOUS
10
1.72684
20
3.90108
11
1.74408
21
3.89563
0
LINE
8
BLACK
6
CONTINUOUS
10
1.74408
20
3.89563
11
1.76172
21
3.89167
0
LINE
8
BLACK
6
CONTINUOUS
10
1.76172
20
3.89167
11
1.77964
21
3.88923
0
LINE
8
BLACK
6
CONTINUOUS
10
1.77964
20
3.88923
11
1.79769
21
3.88833
0
LINE
8
BLACK
6
CONTINUOUS
10
1.79769
20
3.88833
11
1.81576
21
3.88897
0
LINE
8
BLACK
6
CONTINUOUS
10
1.81576
20
3.88897
11
1.83371
21
3.89115
0
LINE
8
BLACK
6
CONTINUOUS
10
1.83371
20
3.89115
11
1.85141
21
3.89486
0
LINE
8
BLACK
6
CONTINUOUS
10
1.85141
20
3.89486
11
1.86873
21
3.90006
0
LINE
8
BLACK
6
CONTINUOUS
10
1.86873
20
3.90006
11
1.88554
21
3.90672
0
LINE
8
BLACK
6
CONTINUOUS
10
1.88554
20
3.90672
11
1.90172
21
3.9148
0
LINE
8
BLACK
6
CONTINUOUS
10
1.90172
20
3.9148
11
1.91715
21
3.92422
0
LINE
8
BLACK
6
CONTINUOUS
10
1.91715
20
3.92422
11
1.93172
21
3.93493
0
LINE
8
BLACK
6
CONTINUOUS
10
1.93172
20
3.93493
11
1.94532
21
3.94684
0
LINE
8
BLACK
6
CONTINUOUS
10
1.94532
20
3.94684
11
1.95786
21
3.95986
0
LINE
8
BLACK
6
CONTINUOUS
10
1.95786
20
3.95986
11
1.96924
21
3.97391
0
LINE
8
BLACK
6
CONTINUOUS
10
1.96924
20
3.97391
11
1.97938
21
3.98888
0
LINE
8
BLACK
6
CONTINUOUS
10
1.97938
20
3.98888
11
1.98821
21
4.00466
0
LINE
8
BLACK
6
CONTINUOUS
10
1.98821
20
4.00466
11
1.99565
21
4.02114
0
LINE
8
BLACK
6
CONTINUOUS
10
1.99565
20
4.02114
11
2.00167
21
4.03819
0
LINE
8
BLACK
6
CONTINUOUS
10
2.00167
20
4.03819
11
2.0062
21
4.0557
0
LINE
8
BLACK
6
CONTINUOUS
10
2.0062
20
4.0557
11
2.00923
21
4.07352
0
LINE
8
BLACK
6
CONTINUOUS
10
2.00923
20
4.07352
11
2.01072
21
4.09154
0
LINE
8
BLACK
6
CONTINUOUS
10
2.01072
20
4.09154
11
2.01067
21
4.10962
0
LINE
8
BLACK
6
CONTINUOUS
10
2.01067
20
4.10962
11
2.00908
21
4.12763
0
LINE
8
BLACK
6
CONTINUOUS
10
2.00908
20
4.12763
11
2.00595
21
4.14544
0
LINE
8
BLACK
6
CONTINUOUS
10
2.00595
20
4.14544
11
2.00132
21
4.16292
0
LINE
8
BLACK
6
CONTINUOUS
10
2.00132
20
4.16292
11
1.99522
21
4.17994
0
LINE
8
BLACK
6
CONTINUOUS
10
1.99522
20
4.17994
11
1.98768
21
4.19637
0
LINE
8
BLACK
6
CONTINUOUS
10
1.98768
20
4.19637
11
1.97877
21
4.21211
0
LINE
8
BLACK
6
CONTINUOUS
10
1.97877
20
4.21211
11
1.96854
21
4.22702
0
LINE
8
BLACK
6
CONTINUOUS
10
1.96854
20
4.22702
11
1.95709
21
4.24101
0
LINE
8
BLACK
6
CONTINUOUS
10
1.95709
20
4.24101
11
1.94448
21
4.25397
0
LINE
8
BLACK
6
CONTINUOUS
10
1.94448
20
4.25397
11
1.93081
21
4.2658
0
LINE
8
BLACK
6
CONTINUOUS
10
1.93081
20
4.2658
11
1.91618
21
4.27643
0
LINE
8
BLACK
6
CONTINUOUS
10
1.91618
20
4.27643
11
1.9007
21
4.28576
0
LINE
8
BLACK
6
CONTINUOUS
10
1.9007
20
4.28576
11
1.88447
21
4.29375
0
LINE
8
BLACK
6
CONTINUOUS
10
1.88447
20
4.29375
11
1.86763
21
4.30032
0
LINE
8
BLACK
6
CONTINUOUS
10
1.86763
20
4.30032
11
1.85028
21
4.30542
0
LINE
8
BLACK
6
CONTINUOUS
10
1.85028
20
4.30542
11
1.83256
21
4.30903
0
LINE
8
BLACK
6
CONTINUOUS
10
1.83256
20
4.30903
11
1.8146
21
4.31112
0
LINE
8
BLACK
6
CONTINUOUS
10
1.8146
20
4.31112
11
1.79653
21
4.31166
0
LINE
8
BLACK
6
CONTINUOUS
10
1.79653
20
4.31166
11
1.77848
21
4.31066
  0
ENDSEC
  0
EOF
