  0
SECTION
  2
HEADER
  9
$ANGBASE
  50
0.0
  9
$ANGDIR
  70
1
  9
$MEASUREMENT
  70
0
  0
ENDSEC
  0
SECTION
  2
TABLES
  0
TABLE
  2
LTYPE
  70
4
  0
LTYPE
  5
40F
  2
CONTINUOUS
  70
0
  3
Solid line
  72
65
  73
0
  40
0.0
  0
LTYPE
  5
410
  2
DASHDOT
 70
0
  3
Dash Dot ____ _ ____ _
 72
65
 73
4
 40
2.0
 49
1.25
 49
-0.25
 49
0.25
 49
-0.25
  0
LTYPE
  5
411
  2
DASHED
 70
0
  3
Dashed __ __ __ __ __
 72
65
 73
2
 40
0.75
 49
0.5
 49
-0.25
  0
LTYPE
  5
43B
  2
DOTTED
 70
0
  3
Dotted .  .  .  .
 72
65
 73
2
 40
0.2
 49
0.0
 49
-0.2
  0
ENDTAB
  0
TABLE
  2
STYLE
  70
4
  0
STYLE
  2
KICAD
  70
0
  40
0
  41
1
  42
1
  50
0
  71
0
  3
isocp.shx
  0
STYLE
  2
KICADB
  70
0
  40
0
  41
1
  42
1
  50
0
  71
0
  3
isocp.shx
  0
STYLE
  2
KICADI
  70
0
  40
0
  41
1
  42
1
  50
15
  71
0
  3
isocp.shx
  0
STYLE
  2
KICADBI
  70
0
  40
0
  41
1
  42
1
  50
15
  71
0
  3
isocp.shx
  0
ENDTAB
  0
TABLE
  2
LAYER
  70
1
  0
LAYER
  2
BLACK
  70
0
  62
7
  6
CONTINUOUS
  0
ENDTAB
  0
ENDSEC
  0
SECTION
  2
ENTITIES
0
LINE
8
BLACK
6
CONTINUOUS
10
0.22051
20
0.316316
11
0.233874
21
0.313148
0
LINE
8
BLACK
6
CONTINUOUS
10
0.233874
20
0.313148
11
0.246781
21
0.308451
0
LINE
8
BLACK
6
CONTINUOUS
10
0.246781
20
0.308451
11
0.259055
21
0.302286
0
LINE
8
BLACK
6
CONTINUOUS
10
0.259055
20
0.302286
11
0.270531
21
0.294739
0
LINE
8
BLACK
6
CONTINUOUS
10
0.270531
20
0.294739
11
0.281052
21
0.28591
0
LINE
8
BLACK
6
CONTINUOUS
10
0.281052
20
0.28591
11
0.290478
21
0.27592
0
LINE
8
BLACK
6
CONTINUOUS
10
0.290478
20
0.27592
11
0.29868
21
0.264903
0
LINE
8
BLACK
6
CONTINUOUS
10
0.29868
20
0.264903
11
0.305547
21
0.253008
0
LINE
8
BLACK
6
CONTINUOUS
10
0.305547
20
0.253008
11
0.310987
21
0.240396
0
LINE
8
BLACK
6
CONTINUOUS
10
0.310987
20
0.240396
11
0.314927
21
0.227238
0
LINE
8
BLACK
6
CONTINUOUS
10
0.314927
20
0.227238
11
0.317312
21
0.213712
0
LINE
8
BLACK
6
CONTINUOUS
10
0.317312
20
0.213712
11
0.31811
21
0.2
0
LINE
8
BLACK
6
CONTINUOUS
10
0.31811
20
0.2
11
0.317312
21
0.186288
0
LINE
8
BLACK
6
CONTINUOUS
10
0.317312
20
0.186288
11
0.314927
21
0.172762
0
LINE
8
BLACK
6
CONTINUOUS
10
0.314927
20
0.172762
11
0.310987
21
0.159604
0
LINE
8
BLACK
6
CONTINUOUS
10
0.310987
20
0.159604
11
0.305547
21
0.146992
0
LINE
8
BLACK
6
CONTINUOUS
10
0.305547
20
0.146992
11
0.29868
21
0.135097
0
LINE
8
BLACK
6
CONTINUOUS
10
0.29868
20
0.135097
11
0.290478
21
0.12408
0
LINE
8
BLACK
6
CONTINUOUS
10
0.290478
20
0.12408
11
0.281052
21
0.11409
0
LINE
8
BLACK
6
CONTINUOUS
10
0.281052
20
0.11409
11
0.270531
21
0.105261
0
LINE
8
BLACK
6
CONTINUOUS
10
0.270531
20
0.105261
11
0.259055
21
0.0977135
0
LINE
8
BLACK
6
CONTINUOUS
10
0.259055
20
0.0977135
11
0.246781
21
0.0915493
0
LINE
8
BLACK
6
CONTINUOUS
10
0.246781
20
0.0915493
11
0.233874
21
0.0868516
0
LINE
8
BLACK
6
CONTINUOUS
10
0.233874
20
0.0868516
11
0.22051
21
0.0836841
0
LINE
8
BLACK
6
CONTINUOUS
10
0.22051
20
0.0836841
11
0.206867
21
0.0820896
0
LINE
8
BLACK
6
CONTINUOUS
10
0.206867
20
0.0820896
11
0.193133
21
0.0820896
0
LINE
8
BLACK
6
CONTINUOUS
10
0.193133
20
0.0820896
11
0.17949
21
0.0836841
0
LINE
8
BLACK
6
CONTINUOUS
10
0.17949
20
0.0836841
11
0.166126
21
0.0868516
0
LINE
8
BLACK
6
CONTINUOUS
10
0.166126
20
0.0868516
11
0.153219
21
0.0915493
0
LINE
8
BLACK
6
CONTINUOUS
10
0.153219
20
0.0915493
11
0.140945
21
0.0977135
0
LINE
8
BLACK
6
CONTINUOUS
10
0.140945
20
0.0977135
11
0.129469
21
0.105261
0
LINE
8
BLACK
6
CONTINUOUS
10
0.129469
20
0.105261
11
0.118948
21
0.11409
0
LINE
8
BLACK
6
CONTINUOUS
10
0.118948
20
0.11409
11
0.109522
21
0.12408
0
LINE
8
BLACK
6
CONTINUOUS
10
0.109522
20
0.12408
11
0.10132
21
0.135097
0
LINE
8
BLACK
6
CONTINUOUS
10
0.10132
20
0.135097
11
0.0944528
21
0.146992
0
LINE
8
BLACK
6
CONTINUOUS
10
0.0944528
20
0.146992
11
0.0890127
21
0.159604
0
LINE
8
BLACK
6
CONTINUOUS
10
0.0890127
20
0.159604
11
0.0850734
21
0.172762
0
LINE
8
BLACK
6
CONTINUOUS
10
0.0850734
20
0.172762
11
0.0826884
21
0.186288
0
LINE
8
BLACK
6
CONTINUOUS
10
0.0826884
20
0.186288
11
0.0818898
21
0.2
0
LINE
8
BLACK
6
CONTINUOUS
10
0.0818898
20
0.2
11
0.0826884
21
0.213712
0
LINE
8
BLACK
6
CONTINUOUS
10
0.0826884
20
0.213712
11
0.0850734
21
0.227238
0
LINE
8
BLACK
6
CONTINUOUS
10
0.0850734
20
0.227238
11
0.0890127
21
0.240396
0
LINE
8
BLACK
6
CONTINUOUS
10
0.0890127
20
0.240396
11
0.0944528
21
0.253008
0
LINE
8
BLACK
6
CONTINUOUS
10
0.0944528
20
0.253008
11
0.10132
21
0.264903
0
LINE
8
BLACK
6
CONTINUOUS
10
0.10132
20
0.264903
11
0.109522
21
0.27592
0
LINE
8
BLACK
6
CONTINUOUS
10
0.109522
20
0.27592
11
0.118948
21
0.28591
0
LINE
8
BLACK
6
CONTINUOUS
10
0.118948
20
0.28591
11
0.129469
21
0.294739
0
LINE
8
BLACK
6
CONTINUOUS
10
0.129469
20
0.294739
11
0.140945
21
0.302286
0
LINE
8
BLACK
6
CONTINUOUS
10
0.140945
20
0.302286
11
0.153219
21
0.308451
0
LINE
8
BLACK
6
CONTINUOUS
10
0.153219
20
0.308451
11
0.166126
21
0.313148
0
LINE
8
BLACK
6
CONTINUOUS
10
0.166126
20
0.313148
11
0.17949
21
0.316316
0
LINE
8
BLACK
6
CONTINUOUS
10
0.17949
20
0.316316
11
0.193133
21
0.31791
0
LINE
8
BLACK
6
CONTINUOUS
10
0.193133
20
0.31791
11
0.206867
21
0.31791
0
LINE
8
BLACK
6
CONTINUOUS
10
0.206867
20
0.31791
11
0.22051
21
0.316316
0
LINE
8
BLACK
6
CONTINUOUS
10
3.42051
20
0.316316
11
3.43387
21
0.313148
0
LINE
8
BLACK
6
CONTINUOUS
10
3.43387
20
0.313148
11
3.44678
21
0.308451
0
LINE
8
BLACK
6
CONTINUOUS
10
3.44678
20
0.308451
11
3.45906
21
0.302286
0
LINE
8
BLACK
6
CONTINUOUS
10
3.45906
20
0.302286
11
3.47053
21
0.294739
0
LINE
8
BLACK
6
CONTINUOUS
10
3.47053
20
0.294739
11
3.48105
21
0.28591
0
LINE
8
BLACK
6
CONTINUOUS
10
3.48105
20
0.28591
11
3.49048
21
0.27592
0
LINE
8
BLACK
6
CONTINUOUS
10
3.49048
20
0.27592
11
3.49868
21
0.264903
0
LINE
8
BLACK
6
CONTINUOUS
10
3.49868
20
0.264903
11
3.50555
21
0.253008
0
LINE
8
BLACK
6
CONTINUOUS
10
3.50555
20
0.253008
11
3.51099
21
0.240396
0
LINE
8
BLACK
6
CONTINUOUS
10
3.51099
20
0.240396
11
3.51493
21
0.227238
0
LINE
8
BLACK
6
CONTINUOUS
10
3.51493
20
0.227238
11
3.51731
21
0.213712
0
LINE
8
BLACK
6
CONTINUOUS
10
3.51731
20
0.213712
11
3.51811
21
0.2
0
LINE
8
BLACK
6
CONTINUOUS
10
3.51811
20
0.2
11
3.51731
21
0.186288
0
LINE
8
BLACK
6
CONTINUOUS
10
3.51731
20
0.186288
11
3.51493
21
0.172762
0
LINE
8
BLACK
6
CONTINUOUS
10
3.51493
20
0.172762
11
3.51099
21
0.159604
0
LINE
8
BLACK
6
CONTINUOUS
10
3.51099
20
0.159604
11
3.50555
21
0.146992
0
LINE
8
BLACK
6
CONTINUOUS
10
3.50555
20
0.146992
11
3.49868
21
0.135097
0
LINE
8
BLACK
6
CONTINUOUS
10
3.49868
20
0.135097
11
3.49048
21
0.12408
0
LINE
8
BLACK
6
CONTINUOUS
10
3.49048
20
0.12408
11
3.48105
21
0.11409
0
LINE
8
BLACK
6
CONTINUOUS
10
3.48105
20
0.11409
11
3.47053
21
0.105261
0
LINE
8
BLACK
6
CONTINUOUS
10
3.47053
20
0.105261
11
3.45906
21
0.0977135
0
LINE
8
BLACK
6
CONTINUOUS
10
3.45906
20
0.0977135
11
3.44678
21
0.0915493
0
LINE
8
BLACK
6
CONTINUOUS
10
3.44678
20
0.0915493
11
3.43387
21
0.0868516
0
LINE
8
BLACK
6
CONTINUOUS
10
3.43387
20
0.0868516
11
3.42051
21
0.0836841
0
LINE
8
BLACK
6
CONTINUOUS
10
3.42051
20
0.0836841
11
3.40687
21
0.0820896
0
LINE
8
BLACK
6
CONTINUOUS
10
3.40687
20
0.0820896
11
3.39313
21
0.0820896
0
LINE
8
BLACK
6
CONTINUOUS
10
3.39313
20
0.0820896
11
3.37949
21
0.0836841
0
LINE
8
BLACK
6
CONTINUOUS
10
3.37949
20
0.0836841
11
3.36613
21
0.0868516
0
LINE
8
BLACK
6
CONTINUOUS
10
3.36613
20
0.0868516
11
3.35322
21
0.0915493
0
LINE
8
BLACK
6
CONTINUOUS
10
3.35322
20
0.0915493
11
3.34094
21
0.0977135
0
LINE
8
BLACK
6
CONTINUOUS
10
3.34094
20
0.0977135
11
3.32947
21
0.105261
0
LINE
8
BLACK
6
CONTINUOUS
10
3.32947
20
0.105261
11
3.31895
21
0.11409
0
LINE
8
BLACK
6
CONTINUOUS
10
3.31895
20
0.11409
11
3.30952
21
0.12408
0
LINE
8
BLACK
6
CONTINUOUS
10
3.30952
20
0.12408
11
3.30132
21
0.135097
0
LINE
8
BLACK
6
CONTINUOUS
10
3.30132
20
0.135097
11
3.29445
21
0.146992
0
LINE
8
BLACK
6
CONTINUOUS
10
3.29445
20
0.146992
11
3.28901
21
0.159604
0
LINE
8
BLACK
6
CONTINUOUS
10
3.28901
20
0.159604
11
3.28507
21
0.172762
0
LINE
8
BLACK
6
CONTINUOUS
10
3.28507
20
0.172762
11
3.28269
21
0.186288
0
LINE
8
BLACK
6
CONTINUOUS
10
3.28269
20
0.186288
11
3.28189
21
0.2
0
LINE
8
BLACK
6
CONTINUOUS
10
3.28189
20
0.2
11
3.28269
21
0.213712
0
LINE
8
BLACK
6
CONTINUOUS
10
3.28269
20
0.213712
11
3.28507
21
0.227238
0
LINE
8
BLACK
6
CONTINUOUS
10
3.28507
20
0.227238
11
3.28901
21
0.240396
0
LINE
8
BLACK
6
CONTINUOUS
10
3.28901
20
0.240396
11
3.29445
21
0.253008
0
LINE
8
BLACK
6
CONTINUOUS
10
3.29445
20
0.253008
11
3.30132
21
0.264903
0
LINE
8
BLACK
6
CONTINUOUS
10
3.30132
20
0.264903
11
3.30952
21
0.27592
0
LINE
8
BLACK
6
CONTINUOUS
10
3.30952
20
0.27592
11
3.31895
21
0.28591
0
LINE
8
BLACK
6
CONTINUOUS
10
3.31895
20
0.28591
11
3.32947
21
0.294739
0
LINE
8
BLACK
6
CONTINUOUS
10
3.32947
20
0.294739
11
3.34094
21
0.302286
0
LINE
8
BLACK
6
CONTINUOUS
10
3.34094
20
0.302286
11
3.35322
21
0.308451
0
LINE
8
BLACK
6
CONTINUOUS
10
3.35322
20
0.308451
11
3.36613
21
0.313148
0
LINE
8
BLACK
6
CONTINUOUS
10
3.36613
20
0.313148
11
3.37949
21
0.316316
0
LINE
8
BLACK
6
CONTINUOUS
10
3.37949
20
0.316316
11
3.39313
21
0.31791
0
LINE
8
BLACK
6
CONTINUOUS
10
3.39313
20
0.31791
11
3.40687
21
0.31791
0
LINE
8
BLACK
6
CONTINUOUS
10
3.40687
20
0.31791
11
3.42051
21
0.316316
0
LINE
8
BLACK
6
CONTINUOUS
10
1.3145
20
0.424468
11
1.32067
21
0.422308
0
LINE
8
BLACK
6
CONTINUOUS
10
1.32067
20
0.422308
11
1.32621
21
0.418829
0
LINE
8
BLACK
6
CONTINUOUS
10
1.32621
20
0.418829
11
1.33083
21
0.414206
0
LINE
8
BLACK
6
CONTINUOUS
10
1.33083
20
0.414206
11
1.33431
21
0.408669
0
LINE
8
BLACK
6
CONTINUOUS
10
1.33431
20
0.408669
11
1.33647
21
0.402498
0
LINE
8
BLACK
6
CONTINUOUS
10
1.33647
20
0.402498
11
1.3372
21
0.396
0
LINE
8
BLACK
6
CONTINUOUS
10
1.3372
20
0.396
11
1.33647
21
0.389502
0
LINE
8
BLACK
6
CONTINUOUS
10
1.33647
20
0.389502
11
1.33431
21
0.383331
0
LINE
8
BLACK
6
CONTINUOUS
10
1.33431
20
0.383331
11
1.33083
21
0.377794
0
LINE
8
BLACK
6
CONTINUOUS
10
1.33083
20
0.377794
11
1.32621
21
0.373171
0
LINE
8
BLACK
6
CONTINUOUS
10
1.32621
20
0.373171
11
1.32067
21
0.369692
0
LINE
8
BLACK
6
CONTINUOUS
10
1.32067
20
0.369692
11
1.3145
21
0.367532
0
LINE
8
BLACK
6
CONTINUOUS
10
1.3145
20
0.367532
11
1.308
21
0.3668
0
LINE
8
BLACK
6
CONTINUOUS
10
1.308
20
0.3668
11
1.3015
21
0.367532
0
LINE
8
BLACK
6
CONTINUOUS
10
1.3015
20
0.367532
11
1.29533
21
0.369692
0
LINE
8
BLACK
6
CONTINUOUS
10
1.29533
20
0.369692
11
1.28979
21
0.373171
0
LINE
8
BLACK
6
CONTINUOUS
10
1.28979
20
0.373171
11
1.28517
21
0.377794
0
LINE
8
BLACK
6
CONTINUOUS
10
1.28517
20
0.377794
11
1.28169
21
0.383331
0
LINE
8
BLACK
6
CONTINUOUS
10
1.28169
20
0.383331
11
1.27953
21
0.389502
0
LINE
8
BLACK
6
CONTINUOUS
10
1.27953
20
0.389502
11
1.2788
21
0.396
0
LINE
8
BLACK
6
CONTINUOUS
10
1.2788
20
0.396
11
1.27953
21
0.402498
0
LINE
8
BLACK
6
CONTINUOUS
10
1.27953
20
0.402498
11
1.28169
21
0.408669
0
LINE
8
BLACK
6
CONTINUOUS
10
1.28169
20
0.408669
11
1.28517
21
0.414206
0
LINE
8
BLACK
6
CONTINUOUS
10
1.28517
20
0.414206
11
1.28979
21
0.418829
0
LINE
8
BLACK
6
CONTINUOUS
10
1.28979
20
0.418829
11
1.29533
21
0.422308
0
LINE
8
BLACK
6
CONTINUOUS
10
1.29533
20
0.422308
11
1.3015
21
0.424468
0
LINE
8
BLACK
6
CONTINUOUS
10
1.3015
20
0.424468
11
1.308
21
0.4252
0
LINE
8
BLACK
6
CONTINUOUS
10
1.308
20
0.4252
11
1.3145
21
0.424468
0
LINE
8
BLACK
6
CONTINUOUS
10
1.30769
20
0.395694
11
1.308
21
0.395567
0
LINE
8
BLACK
6
CONTINUOUS
10
1.308
20
0.395567
11
1.30831
21
0.395694
0
LINE
8
BLACK
6
CONTINUOUS
10
1.30831
20
0.395694
11
1.30843
21
0.396
0
LINE
8
BLACK
6
CONTINUOUS
10
1.30843
20
0.396
11
1.30831
21
0.396306
0
LINE
8
BLACK
6
CONTINUOUS
10
1.30831
20
0.396306
11
1.308
21
0.396433
0
LINE
8
BLACK
6
CONTINUOUS
10
1.308
20
0.396433
11
1.30769
21
0.396306
0
LINE
8
BLACK
6
CONTINUOUS
10
1.30769
20
0.396306
11
1.30757
21
0.396
0
LINE
8
BLACK
6
CONTINUOUS
10
1.30757
20
0.396
11
1.30769
21
0.395694
0
LINE
8
BLACK
6
CONTINUOUS
10
0.582836
20
0.440883
11
0.587198
21
0.438661
0
LINE
8
BLACK
6
CONTINUOUS
10
0.587198
20
0.438661
11
0.590661
21
0.435198
0
LINE
8
BLACK
6
CONTINUOUS
10
0.590661
20
0.435198
11
0.592883
21
0.430836
0
LINE
8
BLACK
6
CONTINUOUS
10
0.592883
20
0.430836
11
0.593649
21
0.426
0
LINE
8
BLACK
6
CONTINUOUS
10
0.593649
20
0.426
11
0.592883
21
0.421164
0
LINE
8
BLACK
6
CONTINUOUS
10
0.592883
20
0.421164
11
0.590661
21
0.416802
0
LINE
8
BLACK
6
CONTINUOUS
10
0.590661
20
0.416802
11
0.587198
21
0.413339
0
LINE
8
BLACK
6
CONTINUOUS
10
0.587198
20
0.413339
11
0.582836
21
0.411117
0
LINE
8
BLACK
6
CONTINUOUS
10
0.582836
20
0.411117
11
0.578
21
0.410351
0
LINE
8
BLACK
6
CONTINUOUS
10
0.578
20
0.410351
11
0.573164
21
0.411117
0
LINE
8
BLACK
6
CONTINUOUS
10
0.573164
20
0.411117
11
0.568802
21
0.413339
0
LINE
8
BLACK
6
CONTINUOUS
10
0.568802
20
0.413339
11
0.565339
21
0.416802
0
LINE
8
BLACK
6
CONTINUOUS
10
0.565339
20
0.416802
11
0.563117
21
0.421164
0
LINE
8
BLACK
6
CONTINUOUS
10
0.563117
20
0.421164
11
0.562351
21
0.426
0
LINE
8
BLACK
6
CONTINUOUS
10
0.562351
20
0.426
11
0.563117
21
0.430836
0
LINE
8
BLACK
6
CONTINUOUS
10
0.563117
20
0.430836
11
0.565339
21
0.435198
0
LINE
8
BLACK
6
CONTINUOUS
10
0.565339
20
0.435198
11
0.568802
21
0.438661
0
LINE
8
BLACK
6
CONTINUOUS
10
0.568802
20
0.438661
11
0.573164
21
0.440883
0
LINE
8
BLACK
6
CONTINUOUS
10
0.573164
20
0.440883
11
0.578
21
0.441649
0
LINE
8
BLACK
6
CONTINUOUS
10
0.578
20
0.441649
11
0.582836
21
0.440883
0
LINE
8
BLACK
6
CONTINUOUS
10
0.577503
20
0.425503
11
0.578
21
0.425297
0
LINE
8
BLACK
6
CONTINUOUS
10
0.578
20
0.425297
11
0.578497
21
0.425503
0
LINE
8
BLACK
6
CONTINUOUS
10
0.578497
20
0.425503
11
0.578703
21
0.426
0
LINE
8
BLACK
6
CONTINUOUS
10
0.578703
20
0.426
11
0.578497
21
0.426497
0
LINE
8
BLACK
6
CONTINUOUS
10
0.578497
20
0.426497
11
0.578
21
0.426703
0
LINE
8
BLACK
6
CONTINUOUS
10
0.578
20
0.426703
11
0.577503
21
0.426497
0
LINE
8
BLACK
6
CONTINUOUS
10
0.577503
20
0.426497
11
0.577297
21
0.426
0
LINE
8
BLACK
6
CONTINUOUS
10
0.577297
20
0.426
11
0.577503
21
0.425503
0
LINE
8
BLACK
6
CONTINUOUS
10
1.10424
20
1.91726
11
1.11761
21
1.91409
0
LINE
8
BLACK
6
CONTINUOUS
10
1.11761
20
1.91409
11
1.13051
21
1.9094
0
LINE
8
BLACK
6
CONTINUOUS
10
1.13051
20
1.9094
11
1.14279
21
1.90323
0
LINE
8
BLACK
6
CONTINUOUS
10
1.14279
20
1.90323
11
1.15426
21
1.89568
0
LINE
8
BLACK
6
CONTINUOUS
10
1.15426
20
1.89568
11
1.16478
21
1.88686
0
LINE
8
BLACK
6
CONTINUOUS
10
1.16478
20
1.88686
11
1.17421
21
1.87686
0
LINE
8
BLACK
6
CONTINUOUS
10
1.17421
20
1.87686
11
1.18241
21
1.86585
0
LINE
8
BLACK
6
CONTINUOUS
10
1.18241
20
1.86585
11
1.18928
21
1.85395
0
LINE
8
BLACK
6
CONTINUOUS
10
1.18928
20
1.85395
11
1.19472
21
1.84134
0
LINE
8
BLACK
6
CONTINUOUS
10
1.19472
20
1.84134
11
1.19866
21
1.82818
0
LINE
8
BLACK
6
CONTINUOUS
10
1.19866
20
1.82818
11
1.20104
21
1.81466
0
LINE
8
BLACK
6
CONTINUOUS
10
1.20104
20
1.81466
11
1.20184
21
1.80094
0
LINE
8
BLACK
6
CONTINUOUS
10
1.20184
20
1.80094
11
1.20104
21
1.78723
0
LINE
8
BLACK
6
CONTINUOUS
10
1.20104
20
1.78723
11
1.19866
21
1.77371
0
LINE
8
BLACK
6
CONTINUOUS
10
1.19866
20
1.77371
11
1.19472
21
1.76055
0
LINE
8
BLACK
6
CONTINUOUS
10
1.19472
20
1.76055
11
1.18928
21
1.74794
0
LINE
8
BLACK
6
CONTINUOUS
10
1.18928
20
1.74794
11
1.18241
21
1.73604
0
LINE
8
BLACK
6
CONTINUOUS
10
1.18241
20
1.73604
11
1.17421
21
1.72503
0
LINE
8
BLACK
6
CONTINUOUS
10
1.17421
20
1.72503
11
1.16478
21
1.71503
0
LINE
8
BLACK
6
CONTINUOUS
10
1.16478
20
1.71503
11
1.15426
21
1.70621
0
LINE
8
BLACK
6
CONTINUOUS
10
1.15426
20
1.70621
11
1.14279
21
1.69866
0
LINE
8
BLACK
6
CONTINUOUS
10
1.14279
20
1.69866
11
1.13051
21
1.69249
0
LINE
8
BLACK
6
CONTINUOUS
10
1.13051
20
1.69249
11
1.11761
21
1.6878
0
LINE
8
BLACK
6
CONTINUOUS
10
1.11761
20
1.6878
11
1.10424
21
1.68463
0
LINE
8
BLACK
6
CONTINUOUS
10
1.10424
20
1.68463
11
1.0906
21
1.68303
0
LINE
8
BLACK
6
CONTINUOUS
10
1.0906
20
1.68303
11
1.07686
21
1.68303
0
LINE
8
BLACK
6
CONTINUOUS
10
1.07686
20
1.68303
11
1.06322
21
1.68463
0
LINE
8
BLACK
6
CONTINUOUS
10
1.06322
20
1.68463
11
1.04986
21
1.6878
0
LINE
8
BLACK
6
CONTINUOUS
10
1.04986
20
1.6878
11
1.03695
21
1.69249
0
LINE
8
BLACK
6
CONTINUOUS
10
1.03695
20
1.69249
11
1.02468
21
1.69866
0
LINE
8
BLACK
6
CONTINUOUS
10
1.02468
20
1.69866
11
1.0132
21
1.70621
0
LINE
8
BLACK
6
CONTINUOUS
10
1.0132
20
1.70621
11
1.00268
21
1.71503
0
LINE
8
BLACK
6
CONTINUOUS
10
1.00268
20
1.71503
11
0.993255
21
1.72503
0
LINE
8
BLACK
6
CONTINUOUS
10
0.993255
20
1.72503
11
0.985053
21
1.73604
0
LINE
8
BLACK
6
CONTINUOUS
10
0.985053
20
1.73604
11
0.978185
21
1.74794
0
LINE
8
BLACK
6
CONTINUOUS
10
0.978185
20
1.74794
11
0.972745
21
1.76055
0
LINE
8
BLACK
6
CONTINUOUS
10
0.972745
20
1.76055
11
0.968806
21
1.77371
0
LINE
8
BLACK
6
CONTINUOUS
10
0.968806
20
1.77371
11
0.966421
21
1.78723
0
LINE
8
BLACK
6
CONTINUOUS
10
0.966421
20
1.78723
11
0.965622
21
1.80094
0
LINE
8
BLACK
6
CONTINUOUS
10
0.965622
20
1.80094
11
0.966421
21
1.81466
0
LINE
8
BLACK
6
CONTINUOUS
10
0.966421
20
1.81466
11
0.968806
21
1.82818
0
LINE
8
BLACK
6
CONTINUOUS
10
0.968806
20
1.82818
11
0.972745
21
1.84134
0
LINE
8
BLACK
6
CONTINUOUS
10
0.972745
20
1.84134
11
0.978185
21
1.85395
0
LINE
8
BLACK
6
CONTINUOUS
10
0.978185
20
1.85395
11
0.985053
21
1.86585
0
LINE
8
BLACK
6
CONTINUOUS
10
0.985053
20
1.86585
11
0.993255
21
1.87686
0
LINE
8
BLACK
6
CONTINUOUS
10
0.993255
20
1.87686
11
1.00268
21
1.88686
0
LINE
8
BLACK
6
CONTINUOUS
10
1.00268
20
1.88686
11
1.0132
21
1.89568
0
LINE
8
BLACK
6
CONTINUOUS
10
1.0132
20
1.89568
11
1.02468
21
1.90323
0
LINE
8
BLACK
6
CONTINUOUS
10
1.02468
20
1.90323
11
1.03695
21
1.9094
0
LINE
8
BLACK
6
CONTINUOUS
10
1.03695
20
1.9094
11
1.04986
21
1.91409
0
LINE
8
BLACK
6
CONTINUOUS
10
1.04986
20
1.91409
11
1.06322
21
1.91726
0
LINE
8
BLACK
6
CONTINUOUS
10
1.06322
20
1.91726
11
1.07686
21
1.91886
0
LINE
8
BLACK
6
CONTINUOUS
10
1.07686
20
1.91886
11
1.0906
21
1.91886
0
LINE
8
BLACK
6
CONTINUOUS
10
1.0906
20
1.91886
11
1.10424
21
1.91726
0
LINE
8
BLACK
6
CONTINUOUS
10
2.30424
20
1.91726
11
2.31761
21
1.91409
0
LINE
8
BLACK
6
CONTINUOUS
10
2.31761
20
1.91409
11
2.33051
21
1.9094
0
LINE
8
BLACK
6
CONTINUOUS
10
2.33051
20
1.9094
11
2.34279
21
1.90323
0
LINE
8
BLACK
6
CONTINUOUS
10
2.34279
20
1.90323
11
2.35426
21
1.89568
0
LINE
8
BLACK
6
CONTINUOUS
10
2.35426
20
1.89568
11
2.36478
21
1.88686
0
LINE
8
BLACK
6
CONTINUOUS
10
2.36478
20
1.88686
11
2.37421
21
1.87686
0
LINE
8
BLACK
6
CONTINUOUS
10
2.37421
20
1.87686
11
2.38241
21
1.86585
0
LINE
8
BLACK
6
CONTINUOUS
10
2.38241
20
1.86585
11
2.38928
21
1.85395
0
LINE
8
BLACK
6
CONTINUOUS
10
2.38928
20
1.85395
11
2.39472
21
1.84134
0
LINE
8
BLACK
6
CONTINUOUS
10
2.39472
20
1.84134
11
2.39866
21
1.82818
0
LINE
8
BLACK
6
CONTINUOUS
10
2.39866
20
1.82818
11
2.40104
21
1.81466
0
LINE
8
BLACK
6
CONTINUOUS
10
2.40104
20
1.81466
11
2.40184
21
1.80094
0
LINE
8
BLACK
6
CONTINUOUS
10
2.40184
20
1.80094
11
2.40104
21
1.78723
0
LINE
8
BLACK
6
CONTINUOUS
10
2.40104
20
1.78723
11
2.39866
21
1.77371
0
LINE
8
BLACK
6
CONTINUOUS
10
2.39866
20
1.77371
11
2.39472
21
1.76055
0
LINE
8
BLACK
6
CONTINUOUS
10
2.39472
20
1.76055
11
2.38928
21
1.74794
0
LINE
8
BLACK
6
CONTINUOUS
10
2.38928
20
1.74794
11
2.38241
21
1.73604
0
LINE
8
BLACK
6
CONTINUOUS
10
2.38241
20
1.73604
11
2.37421
21
1.72503
0
LINE
8
BLACK
6
CONTINUOUS
10
2.37421
20
1.72503
11
2.36478
21
1.71503
0
LINE
8
BLACK
6
CONTINUOUS
10
2.36478
20
1.71503
11
2.35426
21
1.70621
0
LINE
8
BLACK
6
CONTINUOUS
10
2.35426
20
1.70621
11
2.34279
21
1.69866
0
LINE
8
BLACK
6
CONTINUOUS
10
2.34279
20
1.69866
11
2.33051
21
1.69249
0
LINE
8
BLACK
6
CONTINUOUS
10
2.33051
20
1.69249
11
2.31761
21
1.6878
0
LINE
8
BLACK
6
CONTINUOUS
10
2.31761
20
1.6878
11
2.30424
21
1.68463
0
LINE
8
BLACK
6
CONTINUOUS
10
2.30424
20
1.68463
11
2.2906
21
1.68303
0
LINE
8
BLACK
6
CONTINUOUS
10
2.2906
20
1.68303
11
2.27686
21
1.68303
0
LINE
8
BLACK
6
CONTINUOUS
10
2.27686
20
1.68303
11
2.26322
21
1.68463
0
LINE
8
BLACK
6
CONTINUOUS
10
2.26322
20
1.68463
11
2.24986
21
1.6878
0
LINE
8
BLACK
6
CONTINUOUS
10
2.24986
20
1.6878
11
2.23695
21
1.69249
0
LINE
8
BLACK
6
CONTINUOUS
10
2.23695
20
1.69249
11
2.22468
21
1.69866
0
LINE
8
BLACK
6
CONTINUOUS
10
2.22468
20
1.69866
11
2.2132
21
1.70621
0
LINE
8
BLACK
6
CONTINUOUS
10
2.2132
20
1.70621
11
2.20268
21
1.71503
0
LINE
8
BLACK
6
CONTINUOUS
10
2.20268
20
1.71503
11
2.19325
21
1.72503
0
LINE
8
BLACK
6
CONTINUOUS
10
2.19325
20
1.72503
11
2.18505
21
1.73604
0
LINE
8
BLACK
6
CONTINUOUS
10
2.18505
20
1.73604
11
2.17819
21
1.74794
0
LINE
8
BLACK
6
CONTINUOUS
10
2.17819
20
1.74794
11
2.17274
21
1.76055
0
LINE
8
BLACK
6
CONTINUOUS
10
2.17274
20
1.76055
11
2.16881
21
1.77371
0
LINE
8
BLACK
6
CONTINUOUS
10
2.16881
20
1.77371
11
2.16642
21
1.78723
0
LINE
8
BLACK
6
CONTINUOUS
10
2.16642
20
1.78723
11
2.16562
21
1.80094
0
LINE
8
BLACK
6
CONTINUOUS
10
2.16562
20
1.80094
11
2.16642
21
1.81466
0
LINE
8
BLACK
6
CONTINUOUS
10
2.16642
20
1.81466
11
2.16881
21
1.82818
0
LINE
8
BLACK
6
CONTINUOUS
10
2.16881
20
1.82818
11
2.17274
21
1.84134
0
LINE
8
BLACK
6
CONTINUOUS
10
2.17274
20
1.84134
11
2.17819
21
1.85395
0
LINE
8
BLACK
6
CONTINUOUS
10
2.17819
20
1.85395
11
2.18505
21
1.86585
0
LINE
8
BLACK
6
CONTINUOUS
10
2.18505
20
1.86585
11
2.19325
21
1.87686
0
LINE
8
BLACK
6
CONTINUOUS
10
2.19325
20
1.87686
11
2.20268
21
1.88686
0
LINE
8
BLACK
6
CONTINUOUS
10
2.20268
20
1.88686
11
2.2132
21
1.89568
0
LINE
8
BLACK
6
CONTINUOUS
10
2.2132
20
1.89568
11
2.22468
21
1.90323
0
LINE
8
BLACK
6
CONTINUOUS
10
2.22468
20
1.90323
11
2.23695
21
1.9094
0
LINE
8
BLACK
6
CONTINUOUS
10
2.23695
20
1.9094
11
2.24986
21
1.91409
0
LINE
8
BLACK
6
CONTINUOUS
10
2.24986
20
1.91409
11
2.26322
21
1.91726
0
LINE
8
BLACK
6
CONTINUOUS
10
2.26322
20
1.91726
11
2.27686
21
1.91886
0
LINE
8
BLACK
6
CONTINUOUS
10
2.27686
20
1.91886
11
2.2906
21
1.91886
0
LINE
8
BLACK
6
CONTINUOUS
10
2.2906
20
1.91886
11
2.30424
21
1.91726
0
LINE
8
BLACK
6
CONTINUOUS
10
1.10424
20
4.31726
11
1.11761
21
4.31409
0
LINE
8
BLACK
6
CONTINUOUS
10
1.11761
20
4.31409
11
1.13051
21
4.3094
0
LINE
8
BLACK
6
CONTINUOUS
10
1.13051
20
4.3094
11
1.14279
21
4.30323
0
LINE
8
BLACK
6
CONTINUOUS
10
1.14279
20
4.30323
11
1.15426
21
4.29568
0
LINE
8
BLACK
6
CONTINUOUS
10
1.15426
20
4.29568
11
1.16478
21
4.28686
0
LINE
8
BLACK
6
CONTINUOUS
10
1.16478
20
4.28686
11
1.17421
21
4.27686
0
LINE
8
BLACK
6
CONTINUOUS
10
1.17421
20
4.27686
11
1.18241
21
4.26585
0
LINE
8
BLACK
6
CONTINUOUS
10
1.18241
20
4.26585
11
1.18928
21
4.25395
0
LINE
8
BLACK
6
CONTINUOUS
10
1.18928
20
4.25395
11
1.19472
21
4.24134
0
LINE
8
BLACK
6
CONTINUOUS
10
1.19472
20
4.24134
11
1.19866
21
4.22818
0
LINE
8
BLACK
6
CONTINUOUS
10
1.19866
20
4.22818
11
1.20104
21
4.21466
0
LINE
8
BLACK
6
CONTINUOUS
10
1.20104
20
4.21466
11
1.20184
21
4.20094
0
LINE
8
BLACK
6
CONTINUOUS
10
1.20184
20
4.20094
11
1.20104
21
4.18723
0
LINE
8
BLACK
6
CONTINUOUS
10
1.20104
20
4.18723
11
1.19866
21
4.17371
0
LINE
8
BLACK
6
CONTINUOUS
10
1.19866
20
4.17371
11
1.19472
21
4.16055
0
LINE
8
BLACK
6
CONTINUOUS
10
1.19472
20
4.16055
11
1.18928
21
4.14794
0
LINE
8
BLACK
6
CONTINUOUS
10
1.18928
20
4.14794
11
1.18241
21
4.13604
0
LINE
8
BLACK
6
CONTINUOUS
10
1.18241
20
4.13604
11
1.17421
21
4.12503
0
LINE
8
BLACK
6
CONTINUOUS
10
1.17421
20
4.12503
11
1.16478
21
4.11503
0
LINE
8
BLACK
6
CONTINUOUS
10
1.16478
20
4.11503
11
1.15426
21
4.10621
0
LINE
8
BLACK
6
CONTINUOUS
10
1.15426
20
4.10621
11
1.14279
21
4.09866
0
LINE
8
BLACK
6
CONTINUOUS
10
1.14279
20
4.09866
11
1.13051
21
4.09249
0
LINE
8
BLACK
6
CONTINUOUS
10
1.13051
20
4.09249
11
1.11761
21
4.0878
0
LINE
8
BLACK
6
CONTINUOUS
10
1.11761
20
4.0878
11
1.10424
21
4.08463
0
LINE
8
BLACK
6
CONTINUOUS
10
1.10424
20
4.08463
11
1.0906
21
4.08303
0
LINE
8
BLACK
6
CONTINUOUS
10
1.0906
20
4.08303
11
1.07686
21
4.08303
0
LINE
8
BLACK
6
CONTINUOUS
10
1.07686
20
4.08303
11
1.06322
21
4.08463
0
LINE
8
BLACK
6
CONTINUOUS
10
1.06322
20
4.08463
11
1.04986
21
4.0878
0
LINE
8
BLACK
6
CONTINUOUS
10
1.04986
20
4.0878
11
1.03695
21
4.09249
0
LINE
8
BLACK
6
CONTINUOUS
10
1.03695
20
4.09249
11
1.02468
21
4.09866
0
LINE
8
BLACK
6
CONTINUOUS
10
1.02468
20
4.09866
11
1.0132
21
4.10621
0
LINE
8
BLACK
6
CONTINUOUS
10
1.0132
20
4.10621
11
1.00268
21
4.11503
0
LINE
8
BLACK
6
CONTINUOUS
10
1.00268
20
4.11503
11
0.993255
21
4.12503
0
LINE
8
BLACK
6
CONTINUOUS
10
0.993255
20
4.12503
11
0.985053
21
4.13604
0
LINE
8
BLACK
6
CONTINUOUS
10
0.985053
20
4.13604
11
0.978185
21
4.14794
0
LINE
8
BLACK
6
CONTINUOUS
10
0.978185
20
4.14794
11
0.972745
21
4.16055
0
LINE
8
BLACK
6
CONTINUOUS
10
0.972745
20
4.16055
11
0.968806
21
4.17371
0
LINE
8
BLACK
6
CONTINUOUS
10
0.968806
20
4.17371
11
0.966421
21
4.18723
0
LINE
8
BLACK
6
CONTINUOUS
10
0.966421
20
4.18723
11
0.965622
21
4.20094
0
LINE
8
BLACK
6
CONTINUOUS
10
0.965622
20
4.20094
11
0.966421
21
4.21466
0
LINE
8
BLACK
6
CONTINUOUS
10
0.966421
20
4.21466
11
0.968806
21
4.22818
0
LINE
8
BLACK
6
CONTINUOUS
10
0.968806
20
4.22818
11
0.972745
21
4.24134
0
LINE
8
BLACK
6
CONTINUOUS
10
0.972745
20
4.24134
11
0.978185
21
4.25395
0
LINE
8
BLACK
6
CONTINUOUS
10
0.978185
20
4.25395
11
0.985053
21
4.26585
0
LINE
8
BLACK
6
CONTINUOUS
10
0.985053
20
4.26585
11
0.993255
21
4.27686
0
LINE
8
BLACK
6
CONTINUOUS
10
0.993255
20
4.27686
11
1.00268
21
4.28686
0
LINE
8
BLACK
6
CONTINUOUS
10
1.00268
20
4.28686
11
1.0132
21
4.29568
0
LINE
8
BLACK
6
CONTINUOUS
10
1.0132
20
4.29568
11
1.02468
21
4.30323
0
LINE
8
BLACK
6
CONTINUOUS
10
1.02468
20
4.30323
11
1.03695
21
4.3094
0
LINE
8
BLACK
6
CONTINUOUS
10
1.03695
20
4.3094
11
1.04986
21
4.31409
0
LINE
8
BLACK
6
CONTINUOUS
10
1.04986
20
4.31409
11
1.06322
21
4.31726
0
LINE
8
BLACK
6
CONTINUOUS
10
1.06322
20
4.31726
11
1.07686
21
4.31886
0
LINE
8
BLACK
6
CONTINUOUS
10
1.07686
20
4.31886
11
1.0906
21
4.31886
0
LINE
8
BLACK
6
CONTINUOUS
10
1.0906
20
4.31886
11
1.10424
21
4.31726
0
LINE
8
BLACK
6
CONTINUOUS
10
2.30424
20
4.31726
11
2.31761
21
4.31409
0
LINE
8
BLACK
6
CONTINUOUS
10
2.31761
20
4.31409
11
2.33051
21
4.3094
0
LINE
8
BLACK
6
CONTINUOUS
10
2.33051
20
4.3094
11
2.34279
21
4.30323
0
LINE
8
BLACK
6
CONTINUOUS
10
2.34279
20
4.30323
11
2.35426
21
4.29568
0
LINE
8
BLACK
6
CONTINUOUS
10
2.35426
20
4.29568
11
2.36478
21
4.28686
0
LINE
8
BLACK
6
CONTINUOUS
10
2.36478
20
4.28686
11
2.37421
21
4.27686
0
LINE
8
BLACK
6
CONTINUOUS
10
2.37421
20
4.27686
11
2.38241
21
4.26585
0
LINE
8
BLACK
6
CONTINUOUS
10
2.38241
20
4.26585
11
2.38928
21
4.25395
0
LINE
8
BLACK
6
CONTINUOUS
10
2.38928
20
4.25395
11
2.39472
21
4.24134
0
LINE
8
BLACK
6
CONTINUOUS
10
2.39472
20
4.24134
11
2.39866
21
4.22818
0
LINE
8
BLACK
6
CONTINUOUS
10
2.39866
20
4.22818
11
2.40104
21
4.21466
0
LINE
8
BLACK
6
CONTINUOUS
10
2.40104
20
4.21466
11
2.40184
21
4.20094
0
LINE
8
BLACK
6
CONTINUOUS
10
2.40184
20
4.20094
11
2.40104
21
4.18723
0
LINE
8
BLACK
6
CONTINUOUS
10
2.40104
20
4.18723
11
2.39866
21
4.17371
0
LINE
8
BLACK
6
CONTINUOUS
10
2.39866
20
4.17371
11
2.39472
21
4.16055
0
LINE
8
BLACK
6
CONTINUOUS
10
2.39472
20
4.16055
11
2.38928
21
4.14794
0
LINE
8
BLACK
6
CONTINUOUS
10
2.38928
20
4.14794
11
2.38241
21
4.13604
0
LINE
8
BLACK
6
CONTINUOUS
10
2.38241
20
4.13604
11
2.37421
21
4.12503
0
LINE
8
BLACK
6
CONTINUOUS
10
2.37421
20
4.12503
11
2.36478
21
4.11503
0
LINE
8
BLACK
6
CONTINUOUS
10
2.36478
20
4.11503
11
2.35426
21
4.10621
0
LINE
8
BLACK
6
CONTINUOUS
10
2.35426
20
4.10621
11
2.34279
21
4.09866
0
LINE
8
BLACK
6
CONTINUOUS
10
2.34279
20
4.09866
11
2.33051
21
4.09249
0
LINE
8
BLACK
6
CONTINUOUS
10
2.33051
20
4.09249
11
2.31761
21
4.0878
0
LINE
8
BLACK
6
CONTINUOUS
10
2.31761
20
4.0878
11
2.30424
21
4.08463
0
LINE
8
BLACK
6
CONTINUOUS
10
2.30424
20
4.08463
11
2.2906
21
4.08303
0
LINE
8
BLACK
6
CONTINUOUS
10
2.2906
20
4.08303
11
2.27686
21
4.08303
0
LINE
8
BLACK
6
CONTINUOUS
10
2.27686
20
4.08303
11
2.26322
21
4.08463
0
LINE
8
BLACK
6
CONTINUOUS
10
2.26322
20
4.08463
11
2.24986
21
4.0878
0
LINE
8
BLACK
6
CONTINUOUS
10
2.24986
20
4.0878
11
2.23695
21
4.09249
0
LINE
8
BLACK
6
CONTINUOUS
10
2.23695
20
4.09249
11
2.22468
21
4.09866
0
LINE
8
BLACK
6
CONTINUOUS
10
2.22468
20
4.09866
11
2.2132
21
4.10621
0
LINE
8
BLACK
6
CONTINUOUS
10
2.2132
20
4.10621
11
2.20268
21
4.11503
0
LINE
8
BLACK
6
CONTINUOUS
10
2.20268
20
4.11503
11
2.19325
21
4.12503
0
LINE
8
BLACK
6
CONTINUOUS
10
2.19325
20
4.12503
11
2.18505
21
4.13604
0
LINE
8
BLACK
6
CONTINUOUS
10
2.18505
20
4.13604
11
2.17819
21
4.14794
0
LINE
8
BLACK
6
CONTINUOUS
10
2.17819
20
4.14794
11
2.17274
21
4.16055
0
LINE
8
BLACK
6
CONTINUOUS
10
2.17274
20
4.16055
11
2.16881
21
4.17371
0
LINE
8
BLACK
6
CONTINUOUS
10
2.16881
20
4.17371
11
2.16642
21
4.18723
0
LINE
8
BLACK
6
CONTINUOUS
10
2.16642
20
4.18723
11
2.16562
21
4.20094
0
LINE
8
BLACK
6
CONTINUOUS
10
2.16562
20
4.20094
11
2.16642
21
4.21466
0
LINE
8
BLACK
6
CONTINUOUS
10
2.16642
20
4.21466
11
2.16881
21
4.22818
0
LINE
8
BLACK
6
CONTINUOUS
10
2.16881
20
4.22818
11
2.17274
21
4.24134
0
LINE
8
BLACK
6
CONTINUOUS
10
2.17274
20
4.24134
11
2.17819
21
4.25395
0
LINE
8
BLACK
6
CONTINUOUS
10
2.17819
20
4.25395
11
2.18505
21
4.26585
0
LINE
8
BLACK
6
CONTINUOUS
10
2.18505
20
4.26585
11
2.19325
21
4.27686
0
LINE
8
BLACK
6
CONTINUOUS
10
2.19325
20
4.27686
11
2.20268
21
4.28686
0
LINE
8
BLACK
6
CONTINUOUS
10
2.20268
20
4.28686
11
2.2132
21
4.29568
0
LINE
8
BLACK
6
CONTINUOUS
10
2.2132
20
4.29568
11
2.22468
21
4.30323
0
LINE
8
BLACK
6
CONTINUOUS
10
2.22468
20
4.30323
11
2.23695
21
4.3094
0
LINE
8
BLACK
6
CONTINUOUS
10
2.23695
20
4.3094
11
2.24986
21
4.31409
0
LINE
8
BLACK
6
CONTINUOUS
10
2.24986
20
4.31409
11
2.26322
21
4.31726
0
LINE
8
BLACK
6
CONTINUOUS
10
2.26322
20
4.31726
11
2.27686
21
4.31886
0
LINE
8
BLACK
6
CONTINUOUS
10
2.27686
20
4.31886
11
2.2906
21
4.31886
0
LINE
8
BLACK
6
CONTINUOUS
10
2.2906
20
4.31886
11
2.30424
21
4.31726
0
LINE
8
BLACK
6
CONTINUOUS
10
0.22051
20
5.51632
11
0.233874
21
5.51315
0
LINE
8
BLACK
6
CONTINUOUS
10
0.233874
20
5.51315
11
0.246781
21
5.50845
0
LINE
8
BLACK
6
CONTINUOUS
10
0.246781
20
5.50845
11
0.259055
21
5.50229
0
LINE
8
BLACK
6
CONTINUOUS
10
0.259055
20
5.50229
11
0.270531
21
5.49474
0
LINE
8
BLACK
6
CONTINUOUS
10
0.270531
20
5.49474
11
0.281052
21
5.48591
0
LINE
8
BLACK
6
CONTINUOUS
10
0.281052
20
5.48591
11
0.290478
21
5.47592
0
LINE
8
BLACK
6
CONTINUOUS
10
0.290478
20
5.47592
11
0.29868
21
5.4649
0
LINE
8
BLACK
6
CONTINUOUS
10
0.29868
20
5.4649
11
0.305547
21
5.45301
0
LINE
8
BLACK
6
CONTINUOUS
10
0.305547
20
5.45301
11
0.310987
21
5.4404
0
LINE
8
BLACK
6
CONTINUOUS
10
0.310987
20
5.4404
11
0.314927
21
5.42724
0
LINE
8
BLACK
6
CONTINUOUS
10
0.314927
20
5.42724
11
0.317312
21
5.41371
0
LINE
8
BLACK
6
CONTINUOUS
10
0.317312
20
5.41371
11
0.31811
21
5.4
0
LINE
8
BLACK
6
CONTINUOUS
10
0.31811
20
5.4
11
0.317312
21
5.38629
0
LINE
8
BLACK
6
CONTINUOUS
10
0.317312
20
5.38629
11
0.314927
21
5.37276
0
LINE
8
BLACK
6
CONTINUOUS
10
0.314927
20
5.37276
11
0.310987
21
5.3596
0
LINE
8
BLACK
6
CONTINUOUS
10
0.310987
20
5.3596
11
0.305547
21
5.34699
0
LINE
8
BLACK
6
CONTINUOUS
10
0.305547
20
5.34699
11
0.29868
21
5.3351
0
LINE
8
BLACK
6
CONTINUOUS
10
0.29868
20
5.3351
11
0.290478
21
5.32408
0
LINE
8
BLACK
6
CONTINUOUS
10
0.290478
20
5.32408
11
0.281052
21
5.31409
0
LINE
8
BLACK
6
CONTINUOUS
10
0.281052
20
5.31409
11
0.270531
21
5.30526
0
LINE
8
BLACK
6
CONTINUOUS
10
0.270531
20
5.30526
11
0.259055
21
5.29771
0
LINE
8
BLACK
6
CONTINUOUS
10
0.259055
20
5.29771
11
0.246781
21
5.29155
0
LINE
8
BLACK
6
CONTINUOUS
10
0.246781
20
5.29155
11
0.233874
21
5.28685
0
LINE
8
BLACK
6
CONTINUOUS
10
0.233874
20
5.28685
11
0.22051
21
5.28368
0
LINE
8
BLACK
6
CONTINUOUS
10
0.22051
20
5.28368
11
0.206867
21
5.28209
0
LINE
8
BLACK
6
CONTINUOUS
10
0.206867
20
5.28209
11
0.193133
21
5.28209
0
LINE
8
BLACK
6
CONTINUOUS
10
0.193133
20
5.28209
11
0.17949
21
5.28368
0
LINE
8
BLACK
6
CONTINUOUS
10
0.17949
20
5.28368
11
0.166126
21
5.28685
0
LINE
8
BLACK
6
CONTINUOUS
10
0.166126
20
5.28685
11
0.153219
21
5.29155
0
LINE
8
BLACK
6
CONTINUOUS
10
0.153219
20
5.29155
11
0.140945
21
5.29771
0
LINE
8
BLACK
6
CONTINUOUS
10
0.140945
20
5.29771
11
0.129469
21
5.30526
0
LINE
8
BLACK
6
CONTINUOUS
10
0.129469
20
5.30526
11
0.118948
21
5.31409
0
LINE
8
BLACK
6
CONTINUOUS
10
0.118948
20
5.31409
11
0.109522
21
5.32408
0
LINE
8
BLACK
6
CONTINUOUS
10
0.109522
20
5.32408
11
0.10132
21
5.3351
0
LINE
8
BLACK
6
CONTINUOUS
10
0.10132
20
5.3351
11
0.0944528
21
5.34699
0
LINE
8
BLACK
6
CONTINUOUS
10
0.0944528
20
5.34699
11
0.0890127
21
5.3596
0
LINE
8
BLACK
6
CONTINUOUS
10
0.0890127
20
5.3596
11
0.0850734
21
5.37276
0
LINE
8
BLACK
6
CONTINUOUS
10
0.0850734
20
5.37276
11
0.0826884
21
5.38629
0
LINE
8
BLACK
6
CONTINUOUS
10
0.0826884
20
5.38629
11
0.0818898
21
5.4
0
LINE
8
BLACK
6
CONTINUOUS
10
0.0818898
20
5.4
11
0.0826884
21
5.41371
0
LINE
8
BLACK
6
CONTINUOUS
10
0.0826884
20
5.41371
11
0.0850734
21
5.42724
0
LINE
8
BLACK
6
CONTINUOUS
10
0.0850734
20
5.42724
11
0.0890127
21
5.4404
0
LINE
8
BLACK
6
CONTINUOUS
10
0.0890127
20
5.4404
11
0.0944528
21
5.45301
0
LINE
8
BLACK
6
CONTINUOUS
10
0.0944528
20
5.45301
11
0.10132
21
5.4649
0
LINE
8
BLACK
6
CONTINUOUS
10
0.10132
20
5.4649
11
0.109522
21
5.47592
0
LINE
8
BLACK
6
CONTINUOUS
10
0.109522
20
5.47592
11
0.118948
21
5.48591
0
LINE
8
BLACK
6
CONTINUOUS
10
0.118948
20
5.48591
11
0.129469
21
5.49474
0
LINE
8
BLACK
6
CONTINUOUS
10
0.129469
20
5.49474
11
0.140945
21
5.50229
0
LINE
8
BLACK
6
CONTINUOUS
10
0.140945
20
5.50229
11
0.153219
21
5.50845
0
LINE
8
BLACK
6
CONTINUOUS
10
0.153219
20
5.50845
11
0.166126
21
5.51315
0
LINE
8
BLACK
6
CONTINUOUS
10
0.166126
20
5.51315
11
0.17949
21
5.51632
0
LINE
8
BLACK
6
CONTINUOUS
10
0.17949
20
5.51632
11
0.193133
21
5.51791
0
LINE
8
BLACK
6
CONTINUOUS
10
0.193133
20
5.51791
11
0.206867
21
5.51791
0
LINE
8
BLACK
6
CONTINUOUS
10
0.206867
20
5.51791
11
0.22051
21
5.51632
0
LINE
8
BLACK
6
CONTINUOUS
10
3.42051
20
5.51632
11
3.43387
21
5.51315
0
LINE
8
BLACK
6
CONTINUOUS
10
3.43387
20
5.51315
11
3.44678
21
5.50845
0
LINE
8
BLACK
6
CONTINUOUS
10
3.44678
20
5.50845
11
3.45906
21
5.50229
0
LINE
8
BLACK
6
CONTINUOUS
10
3.45906
20
5.50229
11
3.47053
21
5.49474
0
LINE
8
BLACK
6
CONTINUOUS
10
3.47053
20
5.49474
11
3.48105
21
5.48591
0
LINE
8
BLACK
6
CONTINUOUS
10
3.48105
20
5.48591
11
3.49048
21
5.47592
0
LINE
8
BLACK
6
CONTINUOUS
10
3.49048
20
5.47592
11
3.49868
21
5.4649
0
LINE
8
BLACK
6
CONTINUOUS
10
3.49868
20
5.4649
11
3.50555
21
5.45301
0
LINE
8
BLACK
6
CONTINUOUS
10
3.50555
20
5.45301
11
3.51099
21
5.4404
0
LINE
8
BLACK
6
CONTINUOUS
10
3.51099
20
5.4404
11
3.51493
21
5.42724
0
LINE
8
BLACK
6
CONTINUOUS
10
3.51493
20
5.42724
11
3.51731
21
5.41371
0
LINE
8
BLACK
6
CONTINUOUS
10
3.51731
20
5.41371
11
3.51811
21
5.4
0
LINE
8
BLACK
6
CONTINUOUS
10
3.51811
20
5.4
11
3.51731
21
5.38629
0
LINE
8
BLACK
6
CONTINUOUS
10
3.51731
20
5.38629
11
3.51493
21
5.37276
0
LINE
8
BLACK
6
CONTINUOUS
10
3.51493
20
5.37276
11
3.51099
21
5.3596
0
LINE
8
BLACK
6
CONTINUOUS
10
3.51099
20
5.3596
11
3.50555
21
5.34699
0
LINE
8
BLACK
6
CONTINUOUS
10
3.50555
20
5.34699
11
3.49868
21
5.3351
0
LINE
8
BLACK
6
CONTINUOUS
10
3.49868
20
5.3351
11
3.49048
21
5.32408
0
LINE
8
BLACK
6
CONTINUOUS
10
3.49048
20
5.32408
11
3.48105
21
5.31409
0
LINE
8
BLACK
6
CONTINUOUS
10
3.48105
20
5.31409
11
3.47053
21
5.30526
0
LINE
8
BLACK
6
CONTINUOUS
10
3.47053
20
5.30526
11
3.45906
21
5.29771
0
LINE
8
BLACK
6
CONTINUOUS
10
3.45906
20
5.29771
11
3.44678
21
5.29155
0
LINE
8
BLACK
6
CONTINUOUS
10
3.44678
20
5.29155
11
3.43387
21
5.28685
0
LINE
8
BLACK
6
CONTINUOUS
10
3.43387
20
5.28685
11
3.42051
21
5.28368
0
LINE
8
BLACK
6
CONTINUOUS
10
3.42051
20
5.28368
11
3.40687
21
5.28209
0
LINE
8
BLACK
6
CONTINUOUS
10
3.40687
20
5.28209
11
3.39313
21
5.28209
0
LINE
8
BLACK
6
CONTINUOUS
10
3.39313
20
5.28209
11
3.37949
21
5.28368
0
LINE
8
BLACK
6
CONTINUOUS
10
3.37949
20
5.28368
11
3.36613
21
5.28685
0
LINE
8
BLACK
6
CONTINUOUS
10
3.36613
20
5.28685
11
3.35322
21
5.29155
0
LINE
8
BLACK
6
CONTINUOUS
10
3.35322
20
5.29155
11
3.34094
21
5.29771
0
LINE
8
BLACK
6
CONTINUOUS
10
3.34094
20
5.29771
11
3.32947
21
5.30526
0
LINE
8
BLACK
6
CONTINUOUS
10
3.32947
20
5.30526
11
3.31895
21
5.31409
0
LINE
8
BLACK
6
CONTINUOUS
10
3.31895
20
5.31409
11
3.30952
21
5.32408
0
LINE
8
BLACK
6
CONTINUOUS
10
3.30952
20
5.32408
11
3.30132
21
5.3351
0
LINE
8
BLACK
6
CONTINUOUS
10
3.30132
20
5.3351
11
3.29445
21
5.34699
0
LINE
8
BLACK
6
CONTINUOUS
10
3.29445
20
5.34699
11
3.28901
21
5.3596
0
LINE
8
BLACK
6
CONTINUOUS
10
3.28901
20
5.3596
11
3.28507
21
5.37276
0
LINE
8
BLACK
6
CONTINUOUS
10
3.28507
20
5.37276
11
3.28269
21
5.38629
0
LINE
8
BLACK
6
CONTINUOUS
10
3.28269
20
5.38629
11
3.28189
21
5.4
0
LINE
8
BLACK
6
CONTINUOUS
10
3.28189
20
5.4
11
3.28269
21
5.41371
0
LINE
8
BLACK
6
CONTINUOUS
10
3.28269
20
5.41371
11
3.28507
21
5.42724
0
LINE
8
BLACK
6
CONTINUOUS
10
3.28507
20
5.42724
11
3.28901
21
5.4404
0
LINE
8
BLACK
6
CONTINUOUS
10
3.28901
20
5.4404
11
3.29445
21
5.45301
0
LINE
8
BLACK
6
CONTINUOUS
10
3.29445
20
5.45301
11
3.30132
21
5.4649
0
LINE
8
BLACK
6
CONTINUOUS
10
3.30132
20
5.4649
11
3.30952
21
5.47592
0
LINE
8
BLACK
6
CONTINUOUS
10
3.30952
20
5.47592
11
3.31895
21
5.48591
0
LINE
8
BLACK
6
CONTINUOUS
10
3.31895
20
5.48591
11
3.32947
21
5.49474
0
LINE
8
BLACK
6
CONTINUOUS
10
3.32947
20
5.49474
11
3.34094
21
5.50229
0
LINE
8
BLACK
6
CONTINUOUS
10
3.34094
20
5.50229
11
3.35322
21
5.50845
0
LINE
8
BLACK
6
CONTINUOUS
10
3.35322
20
5.50845
11
3.36613
21
5.51315
0
LINE
8
BLACK
6
CONTINUOUS
10
3.36613
20
5.51315
11
3.37949
21
5.51632
0
LINE
8
BLACK
6
CONTINUOUS
10
3.37949
20
5.51632
11
3.39313
21
5.51791
0
LINE
8
BLACK
6
CONTINUOUS
10
3.39313
20
5.51791
11
3.40687
21
5.51791
0
LINE
8
BLACK
6
CONTINUOUS
10
3.40687
20
5.51791
11
3.42051
21
5.51632
  0
ENDSEC
  0
EOF
