<?xml version='1.0' encoding='ASCII' standalone='yes'?>
<svg xmlns:svg="http://www.w3.org/2000/svg" xmlns="http://www.w3.org/2000/svg" xmlns:xlink="http://www.w3.org/1999/xlink" version="1.1" width="297.0022mm" height="210.0072mm" viewBox="0.0000 0.0000 297.0022 210.0072">
<title>SVG Image created as LED7SEG01-F_Fab.svg date 2023/09/17 10:17:49 </title>
  <desc>Image generated by PCBNEW </desc>
<g style="fill:#848484; fill-opacity:1.0000;stroke:#848484; stroke-opacity:1.0000; stroke-linecap:round; stroke-linejoin:round;" transform="translate(0 0) scale(1 1)">
</g>
<g style="fill:#848484; fill-opacity:0.0;  stroke:#848484; stroke-width:0.0000; stroke-opacity:1;  stroke-linecap:round; stroke-linejoin:round;">
</g>
<g style="fill:#848484; fill-opacity:0.01;  stroke:#848484; stroke-width:0.2220; stroke-opacity:1;  stroke-linecap:round; stroke-linejoin:round;">
<text x="148.1607" y="163.6453" textLength="9.8145" font-size="1.9735" lengthAdjust="spacingAndGlyphs" text-anchor="middle" opacity="0.01" style="font-family:monospace">L-813ID</text>
<g class="stroked-text"><desc>L-813ID</desc>
<path d="M151.8257 163.5784 L152.5305 163.5784 "/>
<path d="M152.5305 163.5784 L152.5305 162.0983 "/>
<path d="M151.3323 163.0146 L150.2046 163.0146 "/>
<path d="M149.2884 162.7326 L149.4293 162.6622 "/>
<path d="M149.4293 162.6622 L149.4998 162.5917 "/>
<path d="M149.4998 162.5917 L149.5703 162.4507 "/>
<path d="M149.5703 162.4507 L149.5703 162.3802 "/>
<path d="M149.5703 162.3802 L149.4998 162.2393 "/>
<path d="M149.4998 162.2393 L149.4293 162.1688 "/>
<path d="M149.4293 162.1688 L149.2884 162.0983 "/>
<path d="M149.2884 162.0983 L149.0065 162.0983 "/>
<path d="M149.0065 162.0983 L148.8655 162.1688 "/>
<path d="M148.8655 162.1688 L148.7950 162.2393 "/>
<path d="M148.7950 162.2393 L148.7245 162.3802 "/>
<path d="M148.7245 162.3802 L148.7245 162.4507 "/>
<path d="M148.7245 162.4507 L148.7950 162.5917 "/>
<path d="M148.7950 162.5917 L148.8655 162.6622 "/>
<path d="M148.8655 162.6622 L149.0065 162.7326 "/>
<path d="M149.0065 162.7326 L149.2884 162.7326 "/>
<path d="M149.2884 162.7326 L149.4293 162.8031 "/>
<path d="M149.4293 162.8031 L149.4998 162.8736 "/>
<path d="M149.4998 162.8736 L149.5703 163.0146 "/>
<path d="M149.5703 163.0146 L149.5703 163.2965 "/>
<path d="M149.5703 163.2965 L149.4998 163.4375 "/>
<path d="M149.4998 163.4375 L149.4293 163.5079 "/>
<path d="M149.4293 163.5079 L149.2884 163.5784 "/>
<path d="M149.2884 163.5784 L149.0065 163.5784 "/>
<path d="M149.0065 163.5784 L148.8655 163.5079 "/>
<path d="M148.8655 163.5079 L148.7950 163.4375 "/>
<path d="M148.7950 163.4375 L148.7245 163.2965 "/>
<path d="M148.7245 163.2965 L148.7245 163.0146 "/>
<path d="M148.7245 163.0146 L148.7950 162.8736 "/>
<path d="M148.7950 162.8736 L148.8655 162.8031 "/>
<path d="M148.8655 162.8031 L149.0065 162.7326 "/>
<path d="M147.3149 163.5784 L148.1607 163.5784 "/>
<path d="M147.7378 163.5784 L147.7378 162.0983 "/>
<path d="M147.7378 162.0983 L147.8788 162.3098 "/>
<path d="M147.8788 162.3098 L148.0197 162.4507 "/>
<path d="M148.0197 162.4507 L148.1607 162.5212 "/>
<path d="M146.8215 162.0983 L145.9053 162.0983 "/>
<path d="M145.9053 162.0983 L146.3986 162.6622 "/>
<path d="M146.3986 162.6622 L146.1872 162.6622 "/>
<path d="M146.1872 162.6622 L146.0462 162.7326 "/>
<path d="M146.0462 162.7326 L145.9758 162.8031 "/>
<path d="M145.9758 162.8031 L145.9053 162.9441 "/>
<path d="M145.9053 162.9441 L145.9053 163.2965 "/>
<path d="M145.9053 163.2965 L145.9758 163.4375 "/>
<path d="M145.9758 163.4375 L146.0462 163.5079 "/>
<path d="M146.0462 163.5079 L146.1872 163.5784 "/>
<path d="M146.1872 163.5784 L146.6101 163.5784 "/>
<path d="M146.6101 163.5784 L146.7511 163.5079 "/>
<path d="M146.7511 163.5079 L146.8215 163.4375 "/>
<path d="M145.2710 163.5784 L145.2710 162.0983 "/>
<path d="M144.5661 163.5784 L144.5661 162.0983 "/>
<path d="M144.5661 162.0983 L144.2137 162.0983 "/>
<path d="M144.2137 162.0983 L144.0023 162.1688 "/>
<path d="M144.0023 162.1688 L143.8613 162.3098 "/>
<path d="M143.8613 162.3098 L143.7908 162.4507 "/>
<path d="M143.7908 162.4507 L143.7204 162.7326 "/>
<path d="M143.7204 162.7326 L143.7204 162.9441 "/>
<path d="M143.7204 162.9441 L143.7908 163.2260 "/>
<path d="M143.7908 163.2260 L143.8613 163.3670 "/>
<path d="M143.8613 163.3670 L144.0023 163.5079 "/>
<path d="M144.0023 163.5079 L144.2137 163.5784 "/>
<path d="M144.2137 163.5784 L144.5661 163.5784 "/>
</g><text x="148.1607" y="65.8993" textLength="9.8145" font-size="1.9735" lengthAdjust="spacingAndGlyphs" text-anchor="middle" opacity="0.01" style="font-family:monospace">L-813ID</text>
<g class="stroked-text"><desc>L-813ID</desc>
<path d="M151.8257 65.8324 L152.5305 65.8324 "/>
<path d="M152.5305 65.8324 L152.5305 64.3523 "/>
<path d="M151.3323 65.2686 L150.2046 65.2686 "/>
<path d="M149.2884 64.9866 L149.4293 64.9161 "/>
<path d="M149.4293 64.9161 L149.4998 64.8457 "/>
<path d="M149.4998 64.8457 L149.5703 64.7047 "/>
<path d="M149.5703 64.7047 L149.5703 64.6342 "/>
<path d="M149.5703 64.6342 L149.4998 64.4933 "/>
<path d="M149.4998 64.4933 L149.4293 64.4228 "/>
<path d="M149.4293 64.4228 L149.2884 64.3523 "/>
<path d="M149.2884 64.3523 L149.0065 64.3523 "/>
<path d="M149.0065 64.3523 L148.8655 64.4228 "/>
<path d="M148.8655 64.4228 L148.7950 64.4933 "/>
<path d="M148.7950 64.4933 L148.7245 64.6342 "/>
<path d="M148.7245 64.6342 L148.7245 64.7047 "/>
<path d="M148.7245 64.7047 L148.7950 64.8457 "/>
<path d="M148.7950 64.8457 L148.8655 64.9161 "/>
<path d="M148.8655 64.9161 L149.0065 64.9866 "/>
<path d="M149.0065 64.9866 L149.2884 64.9866 "/>
<path d="M149.2884 64.9866 L149.4293 65.0571 "/>
<path d="M149.4293 65.0571 L149.4998 65.1276 "/>
<path d="M149.4998 65.1276 L149.5703 65.2686 "/>
<path d="M149.5703 65.2686 L149.5703 65.5505 "/>
<path d="M149.5703 65.5505 L149.4998 65.6914 "/>
<path d="M149.4998 65.6914 L149.4293 65.7619 "/>
<path d="M149.4293 65.7619 L149.2884 65.8324 "/>
<path d="M149.2884 65.8324 L149.0065 65.8324 "/>
<path d="M149.0065 65.8324 L148.8655 65.7619 "/>
<path d="M148.8655 65.7619 L148.7950 65.6914 "/>
<path d="M148.7950 65.6914 L148.7245 65.5505 "/>
<path d="M148.7245 65.5505 L148.7245 65.2686 "/>
<path d="M148.7245 65.2686 L148.7950 65.1276 "/>
<path d="M148.7950 65.1276 L148.8655 65.0571 "/>
<path d="M148.8655 65.0571 L149.0065 64.9866 "/>
<path d="M147.3149 65.8324 L148.1607 65.8324 "/>
<path d="M147.7378 65.8324 L147.7378 64.3523 "/>
<path d="M147.7378 64.3523 L147.8788 64.5637 "/>
<path d="M147.8788 64.5637 L148.0197 64.7047 "/>
<path d="M148.0197 64.7047 L148.1607 64.7752 "/>
<path d="M146.8215 64.3523 L145.9053 64.3523 "/>
<path d="M145.9053 64.3523 L146.3986 64.9161 "/>
<path d="M146.3986 64.9161 L146.1872 64.9161 "/>
<path d="M146.1872 64.9161 L146.0462 64.9866 "/>
<path d="M146.0462 64.9866 L145.9758 65.0571 "/>
<path d="M145.9758 65.0571 L145.9053 65.1981 "/>
<path d="M145.9053 65.1981 L145.9053 65.5505 "/>
<path d="M145.9053 65.5505 L145.9758 65.6914 "/>
<path d="M145.9758 65.6914 L146.0462 65.7619 "/>
<path d="M146.0462 65.7619 L146.1872 65.8324 "/>
<path d="M146.1872 65.8324 L146.6101 65.8324 "/>
<path d="M146.6101 65.8324 L146.7511 65.7619 "/>
<path d="M146.7511 65.7619 L146.8215 65.6914 "/>
<path d="M145.2710 65.8324 L145.2710 64.3523 "/>
<path d="M144.5661 65.8324 L144.5661 64.3523 "/>
<path d="M144.5661 64.3523 L144.2137 64.3523 "/>
<path d="M144.2137 64.3523 L144.0023 64.4228 "/>
<path d="M144.0023 64.4228 L143.8613 64.5637 "/>
<path d="M143.8613 64.5637 L143.7908 64.7047 "/>
<path d="M143.7908 64.7047 L143.7204 64.9866 "/>
<path d="M143.7204 64.9866 L143.7204 65.1981 "/>
<path d="M143.7204 65.1981 L143.7908 65.4800 "/>
<path d="M143.7908 65.4800 L143.8613 65.6210 "/>
<path d="M143.8613 65.6210 L144.0023 65.7619 "/>
<path d="M144.0023 65.7619 L144.2137 65.8324 "/>
<path d="M144.2137 65.8324 L144.5661 65.8324 "/>
</g><text x="148.2755" y="101.8932" textLength="20.7391" font-size="1.9735" lengthAdjust="spacingAndGlyphs" text-anchor="middle" opacity="0.01" style="font-family:monospace">FYS-40011DS-11</text>
<g class="stroked-text"><desc>FYS-40011DS-11</desc>
<path d="M157.6143 101.0510 L158.1076 101.0510 "/>
<path d="M158.1076 101.8263 L158.1076 100.3462 "/>
<path d="M158.1076 100.3462 L157.4028 100.3462 "/>
<path d="M156.5571 101.1215 L156.5571 101.8263 "/>
<path d="M157.0504 100.3462 L156.5571 101.1215 "/>
<path d="M156.5571 101.1215 L156.0637 100.3462 "/>
<path d="M155.6408 101.7558 L155.4294 101.8263 "/>
<path d="M155.4294 101.8263 L155.0770 101.8263 "/>
<path d="M155.0770 101.8263 L154.9360 101.7558 "/>
<path d="M154.9360 101.7558 L154.8655 101.6853 "/>
<path d="M154.8655 101.6853 L154.7950 101.5444 "/>
<path d="M154.7950 101.5444 L154.7950 101.4034 "/>
<path d="M154.7950 101.4034 L154.8655 101.2624 "/>
<path d="M154.8655 101.2624 L154.9360 101.1920 "/>
<path d="M154.9360 101.1920 L155.0770 101.1215 "/>
<path d="M155.0770 101.1215 L155.3589 101.0510 "/>
<path d="M155.3589 101.0510 L155.4998 100.9805 "/>
<path d="M155.4998 100.9805 L155.5703 100.9100 "/>
<path d="M155.5703 100.9100 L155.6408 100.7691 "/>
<path d="M155.6408 100.7691 L155.6408 100.6281 "/>
<path d="M155.6408 100.6281 L155.5703 100.4872 "/>
<path d="M155.5703 100.4872 L155.4998 100.4167 "/>
<path d="M155.4998 100.4167 L155.3589 100.3462 "/>
<path d="M155.3589 100.3462 L155.0065 100.3462 "/>
<path d="M155.0065 100.3462 L154.7950 100.4167 "/>
<path d="M154.1607 101.2624 L153.0330 101.2624 "/>
<path d="M151.6939 100.8396 L151.6939 101.8263 "/>
<path d="M152.0463 100.2757 L152.3987 101.3329 "/>
<path d="M152.3987 101.3329 L151.4824 101.3329 "/>
<path d="M150.6366 100.3462 L150.4957 100.3462 "/>
<path d="M150.4957 100.3462 L150.3547 100.4167 "/>
<path d="M150.3547 100.4167 L150.2842 100.4872 "/>
<path d="M150.2842 100.4872 L150.2138 100.6281 "/>
<path d="M150.2138 100.6281 L150.1433 100.9100 "/>
<path d="M150.1433 100.9100 L150.1433 101.2624 "/>
<path d="M150.1433 101.2624 L150.2138 101.5444 "/>
<path d="M150.2138 101.5444 L150.2842 101.6853 "/>
<path d="M150.2842 101.6853 L150.3547 101.7558 "/>
<path d="M150.3547 101.7558 L150.4957 101.8263 "/>
<path d="M150.4957 101.8263 L150.6366 101.8263 "/>
<path d="M150.6366 101.8263 L150.7776 101.7558 "/>
<path d="M150.7776 101.7558 L150.8481 101.6853 "/>
<path d="M150.8481 101.6853 L150.9186 101.5444 "/>
<path d="M150.9186 101.5444 L150.9891 101.2624 "/>
<path d="M150.9891 101.2624 L150.9891 100.9100 "/>
<path d="M150.9891 100.9100 L150.9186 100.6281 "/>
<path d="M150.9186 100.6281 L150.8481 100.4872 "/>
<path d="M150.8481 100.4872 L150.7776 100.4167 "/>
<path d="M150.7776 100.4167 L150.6366 100.3462 "/>
<path d="M149.2270 100.3462 L149.0861 100.3462 "/>
<path d="M149.0861 100.3462 L148.9451 100.4167 "/>
<path d="M148.9451 100.4167 L148.8746 100.4872 "/>
<path d="M148.8746 100.4872 L148.8041 100.6281 "/>
<path d="M148.8041 100.6281 L148.7337 100.9100 "/>
<path d="M148.7337 100.9100 L148.7337 101.2624 "/>
<path d="M148.7337 101.2624 L148.8041 101.5444 "/>
<path d="M148.8041 101.5444 L148.8746 101.6853 "/>
<path d="M148.8746 101.6853 L148.9451 101.7558 "/>
<path d="M148.9451 101.7558 L149.0861 101.8263 "/>
<path d="M149.0861 101.8263 L149.2270 101.8263 "/>
<path d="M149.2270 101.8263 L149.3680 101.7558 "/>
<path d="M149.3680 101.7558 L149.4385 101.6853 "/>
<path d="M149.4385 101.6853 L149.5090 101.5444 "/>
<path d="M149.5090 101.5444 L149.5794 101.2624 "/>
<path d="M149.5794 101.2624 L149.5794 100.9100 "/>
<path d="M149.5794 100.9100 L149.5090 100.6281 "/>
<path d="M149.5090 100.6281 L149.4385 100.4872 "/>
<path d="M149.4385 100.4872 L149.3680 100.4167 "/>
<path d="M149.3680 100.4167 L149.2270 100.3462 "/>
<path d="M147.3240 101.8263 L148.1698 101.8263 "/>
<path d="M147.7469 101.8263 L147.7469 100.3462 "/>
<path d="M147.7469 100.3462 L147.8879 100.5576 "/>
<path d="M147.8879 100.5576 L148.0288 100.6986 "/>
<path d="M148.0288 100.6986 L148.1698 100.7691 "/>
<path d="M145.9144 101.8263 L146.7602 101.8263 "/>
<path d="M146.3373 101.8263 L146.3373 100.3462 "/>
<path d="M146.3373 100.3462 L146.4783 100.5576 "/>
<path d="M146.4783 100.5576 L146.6192 100.6986 "/>
<path d="M146.6192 100.6986 L146.7602 100.7691 "/>
<path d="M145.2801 101.8263 L145.2801 100.3462 "/>
<path d="M145.2801 100.3462 L144.9277 100.3462 "/>
<path d="M144.9277 100.3462 L144.7162 100.4167 "/>
<path d="M144.7162 100.4167 L144.5753 100.5576 "/>
<path d="M144.5753 100.5576 L144.5048 100.6986 "/>
<path d="M144.5048 100.6986 L144.4343 100.9805 "/>
<path d="M144.4343 100.9805 L144.4343 101.1920 "/>
<path d="M144.4343 101.1920 L144.5048 101.4739 "/>
<path d="M144.5048 101.4739 L144.5753 101.6148 "/>
<path d="M144.5753 101.6148 L144.7162 101.7558 "/>
<path d="M144.7162 101.7558 L144.9277 101.8263 "/>
<path d="M144.9277 101.8263 L145.2801 101.8263 "/>
<path d="M143.8705 101.7558 L143.6590 101.8263 "/>
<path d="M143.6590 101.8263 L143.3066 101.8263 "/>
<path d="M143.3066 101.8263 L143.1657 101.7558 "/>
<path d="M143.1657 101.7558 L143.0952 101.6853 "/>
<path d="M143.0952 101.6853 L143.0247 101.5444 "/>
<path d="M143.0247 101.5444 L143.0247 101.4034 "/>
<path d="M143.0247 101.4034 L143.0952 101.2624 "/>
<path d="M143.0952 101.2624 L143.1657 101.1920 "/>
<path d="M143.1657 101.1920 L143.3066 101.1215 "/>
<path d="M143.3066 101.1215 L143.5885 101.0510 "/>
<path d="M143.5885 101.0510 L143.7295 100.9805 "/>
<path d="M143.7295 100.9805 L143.8000 100.9100 "/>
<path d="M143.8000 100.9100 L143.8705 100.7691 "/>
<path d="M143.8705 100.7691 L143.8705 100.6281 "/>
<path d="M143.8705 100.6281 L143.8000 100.4872 "/>
<path d="M143.8000 100.4872 L143.7295 100.4167 "/>
<path d="M143.7295 100.4167 L143.5885 100.3462 "/>
<path d="M143.5885 100.3462 L143.2361 100.3462 "/>
<path d="M143.2361 100.3462 L143.0247 100.4167 "/>
<path d="M142.3904 101.2624 L141.2627 101.2624 "/>
<path d="M139.7826 101.8263 L140.6283 101.8263 "/>
<path d="M140.2054 101.8263 L140.2054 100.3462 "/>
<path d="M140.2054 100.3462 L140.3464 100.5576 "/>
<path d="M140.3464 100.5576 L140.4874 100.6986 "/>
<path d="M140.4874 100.6986 L140.6283 100.7691 "/>
<path d="M138.3729 101.8263 L139.2187 101.8263 "/>
<path d="M138.7958 101.8263 L138.7958 100.3462 "/>
<path d="M138.7958 100.3462 L138.9368 100.5576 "/>
<path d="M138.9368 100.5576 L139.0777 100.6986 "/>
<path d="M139.0777 100.6986 L139.2187 100.7691 "/>
</g><g>
</g>
<g>
</g>
<g>
</g>
<g>
</g>
<g>
</g>
<g>
</g>
<g>
</g>
<g>
</g>
<g>
</g>
<g>
</g>
<g>
</g>
<g>
</g>
<g>
</g>
<g>
</g>
<g>
</g>
<g>
</g>
<g>
</g>
<g>
</g>
<g>
</g>
<g>
</g>
<g>
</g>
<g>
</g>
<g>
</g>
<g>
</g>
<g>
</g>
<g>
</g>
<g>
</g>
<g>
</g>
<g>
</g>
<g>
</g>
<g>
</g>
<g>
</g>
<g>
</g>
<g>
</g>
<g>
</g>
<g>
</g>
<g>
</g>
<g>
</g>
<g>
</g>
<g>
</g>
<g>
</g>
<g>
</g>
<g>
</g>
<g>
</g>
<g>
</g>
<g>
</g>
<g>
</g>
<g>
</g>
<g>
</g>
<g>
</g>
<g>
</g>
<g>
</g>
<g>
</g>
<g>
</g>
<g>
</g>
<g>
</g>
<g>
</g>
<g>
</g>
<g>
</g>
<g>
</g>
<g>
</g>
<g>
</g>
<g>
</g>
<g>
</g>
<g>
</g>
<g>
</g>
<g>
</g>
<g>
</g>
<g>
</g>
<g>
</g>
<g>
</g>
<g>
</g>
<g>
</g>
<g>
</g>
<g>
</g>
<g>
</g>
<g>
</g>
<g>
</g>
<g>
</g>
<g>
</g>
<g>
</g>
<g>
</g>
<g>
</g>
<g>
</g>
<g>
</g>
<g>
</g>
<g>
</g>
<g>
</g>
<g>
</g>
<g>
</g>
<g>
</g>
<g>
</g>
<g>
</g>
</g> 
<svg:g><svg:g><svg:title>SVG Image created as LED7SEG01-Edge_Cuts.svg date 2023/09/17 10:17:49 </svg:title>
  <svg:desc>Image generated by PCBNEW </svg:desc>
<svg:g style="fill:#C2C200; fill-opacity:1.0000;stroke:#C2C200; stroke-opacity:1.0000; stroke-linecap:round; stroke-linejoin:round;" transform="translate(0 0) scale(1 1)">
</svg:g>
<svg:g style="fill:#C2C200; fill-opacity:0.0;  stroke:#C2C200; stroke-width:0.0000; stroke-opacity:1;  stroke-linecap:round; stroke-linejoin:round;">
</svg:g>
<svg:g style="fill:#C2C200; fill-opacity:0.0;  stroke:#C2C200; stroke-width:0.2220; stroke-opacity:1;  stroke-linecap:round; stroke-linejoin:round;">
<svg:path d="M215.7955 209.8926 L215.7955 0.1146 "/>
<svg:path d="M81.2067 209.8926 L215.7955 209.8926 "/>
<svg:path d="M215.7955 0.1146 L81.2067 0.1146 "/>
<svg:path d="M81.2067 0.1146 L81.2067 209.8926 "/>
<svg:g>
</svg:g>
<svg:g>
</svg:g>
<svg:g>
</svg:g>
<svg:g>
</svg:g>
<svg:g>
</svg:g>
<svg:g>
</svg:g>
<svg:g>
</svg:g>
<svg:g>
</svg:g>
<svg:g>
</svg:g>
<svg:g>
</svg:g>
<svg:g>
</svg:g>
<svg:g>
</svg:g>
<svg:g>
</svg:g>
<svg:g>
</svg:g>
<svg:g>
</svg:g>
<svg:g>
</svg:g>
<svg:g>
</svg:g>
<svg:g>
</svg:g>
<svg:g>
</svg:g>
<svg:g>
</svg:g>
<svg:g>
</svg:g>
<svg:g>
</svg:g>
<svg:g>
</svg:g>
<svg:g>
</svg:g>
<svg:g>
</svg:g>
<svg:g>
</svg:g>
<svg:g>
</svg:g>
<svg:g>
</svg:g>
<svg:g>
</svg:g>
<svg:g>
</svg:g>
<svg:g>
</svg:g>
<svg:g>
</svg:g>
<svg:g>
</svg:g>
<svg:g>
</svg:g>
<svg:g>
</svg:g>
<svg:g>
</svg:g>
<svg:g>
</svg:g>
<svg:g>
</svg:g>
<svg:g>
</svg:g>
<svg:g>
</svg:g>
<svg:g>
</svg:g>
<svg:g>
</svg:g>
<svg:g>
</svg:g>
<svg:g>
</svg:g>
<svg:g>
</svg:g>
<svg:g>
</svg:g>
<svg:g>
</svg:g>
<svg:g>
</svg:g>
<svg:g>
</svg:g>
<svg:g>
</svg:g>
<svg:g>
</svg:g>
<svg:g>
</svg:g>
<svg:g>
</svg:g>
<svg:g>
</svg:g>
<svg:g>
</svg:g>
<svg:g>
</svg:g>
<svg:g>
</svg:g>
<svg:g>
</svg:g>
<svg:g>
</svg:g>
<svg:g>
</svg:g>
<svg:g>
</svg:g>
<svg:g>
</svg:g>
<svg:g>
</svg:g>
<svg:g>
</svg:g>
<svg:g>
</svg:g>
<svg:g>
</svg:g>
<svg:g>
</svg:g>
<svg:g>
</svg:g>
<svg:g>
</svg:g>
<svg:g>
</svg:g>
<svg:g>
</svg:g>
<svg:g>
</svg:g>
<svg:g>
</svg:g>
<svg:g>
</svg:g>
<svg:g>
</svg:g>
<svg:g>
</svg:g>
<svg:g>
</svg:g>
<svg:g>
</svg:g>
<svg:g>
</svg:g>
<svg:g>
</svg:g>
<svg:g>
</svg:g>
<svg:g>
</svg:g>
<svg:g>
</svg:g>
<svg:g>
</svg:g>
<svg:g>
</svg:g>
<svg:g>
</svg:g>
<svg:g>
</svg:g>
<svg:g>
</svg:g>
<svg:g>
</svg:g>
<svg:g>
</svg:g>
<svg:g>
</svg:g>
<svg:g>
</svg:g>
<svg:g>
</svg:g>
</svg:g> 
</svg:g></svg:g></svg>
