%TF.GenerationSoftware,KiCad,Pcbnew,7.0.7-7.0.7~ubuntu23.04.1*%
%TF.CreationDate,2023-09-17T10:17:03+00:00*%
%TF.ProjectId,LED7SEG01,4c454437-5345-4473-9031-2e6b69636164,rev?*%
%TF.SameCoordinates,Original*%
%TF.FileFunction,Soldermask,Top*%
%TF.FilePolarity,Negative*%
%FSLAX46Y46*%
G04 Gerber Fmt 4.6, Leading zero omitted, Abs format (unit mm)*
G04 Created by KiCad (PCBNEW 7.0.7-7.0.7~ubuntu23.04.1) date 2023-09-17 10:17:03*
%MOMM*%
%LPD*%
G01*
G04 APERTURE LIST*
G04 Aperture macros list*
%AMRoundRect*
0 Rectangle with rounded corners*
0 $1 Rounding radius*
0 $2 $3 $4 $5 $6 $7 $8 $9 X,Y pos of 4 corners*
0 Add a 4 corners polygon primitive as box body*
4,1,4,$2,$3,$4,$5,$6,$7,$8,$9,$2,$3,0*
0 Add four circle primitives for the rounded corners*
1,1,$1+$1,$2,$3*
1,1,$1+$1,$4,$5*
1,1,$1+$1,$6,$7*
1,1,$1+$1,$8,$9*
0 Add four rect primitives between the rounded corners*
20,1,$1+$1,$2,$3,$4,$5,0*
20,1,$1+$1,$4,$5,$6,$7,0*
20,1,$1+$1,$6,$7,$8,$9,0*
20,1,$1+$1,$8,$9,$2,$3,0*%
G04 Aperture macros list end*
%ADD10RoundRect,0.200000X0.762000X-0.762000X0.762000X0.762000X-0.762000X0.762000X-0.762000X-0.762000X0*%
%ADD11C,6.400000*%
%ADD12RoundRect,0.200000X-0.762000X-0.762000X0.762000X-0.762000X0.762000X0.762000X-0.762000X0.762000X0*%
%ADD13RoundRect,0.200000X0.900000X0.900000X-0.900000X0.900000X-0.900000X-0.900000X0.900000X-0.900000X0*%
%ADD14C,2.200000*%
%ADD15C,2.400000*%
%ADD16C,1.924000*%
G04 APERTURE END LIST*
D10*
%TO.C,J1*%
X12496800Y3606800D03*
X12496800Y6146800D03*
X15036800Y3606800D03*
X15036800Y6146800D03*
X17576800Y3606800D03*
X17576800Y6146800D03*
X20116800Y3606800D03*
X20116800Y6146800D03*
%TD*%
%TO.C,J5*%
X33578800Y3606800D03*
X33578800Y6146800D03*
%TD*%
%TO.C,J6*%
X36982400Y43688000D03*
X36982400Y46228000D03*
%TD*%
%TO.C,J7*%
X36068000Y3606800D03*
X36068000Y6146800D03*
%TD*%
%TO.C,J8*%
X38608000Y3606800D03*
X38608000Y6146800D03*
%TD*%
%TO.C,J9*%
X28498800Y3606800D03*
X28498800Y6146800D03*
%TD*%
D11*
%TO.C,M1*%
X5080000Y137160000D03*
%TD*%
%TO.C,M3*%
X27526800Y106704000D03*
%TD*%
%TO.C,M5*%
X86360000Y5080000D03*
%TD*%
%TO.C,M6*%
X27526800Y45744000D03*
%TD*%
%TO.C,M7*%
X58006800Y106704000D03*
%TD*%
%TO.C,M8*%
X86360000Y137160000D03*
%TD*%
%TO.C,M9*%
X58006800Y45744000D03*
%TD*%
%TO.C,M10*%
X5080000Y5080000D03*
%TD*%
D12*
%TO.C,J11*%
X36118800Y69697600D03*
%TD*%
%TO.C,J12*%
X38658800Y69697600D03*
%TD*%
%TO.C,J13*%
X41198800Y69697600D03*
%TD*%
%TO.C,J14*%
X43738800Y69697600D03*
%TD*%
%TO.C,J15*%
X46278800Y69697600D03*
%TD*%
%TO.C,J16*%
X48818800Y69697600D03*
%TD*%
%TO.C,J17*%
X51358800Y69697600D03*
%TD*%
%TO.C,J18*%
X53898800Y69697600D03*
%TD*%
%TO.C,J19*%
X36169600Y86156800D03*
%TD*%
%TO.C,J20*%
X38709600Y86156800D03*
%TD*%
%TO.C,J21*%
X41249600Y86156800D03*
%TD*%
%TO.C,J22*%
X48869600Y86156800D03*
%TD*%
%TO.C,J23*%
X43789600Y86156800D03*
%TD*%
%TO.C,J24*%
X51409600Y86156800D03*
%TD*%
%TO.C,J25*%
X46329600Y86156800D03*
%TD*%
%TO.C,J26*%
X53949600Y86156800D03*
%TD*%
%TO.C,J27*%
X25908000Y100126800D03*
X28448000Y100126800D03*
X25908000Y97586800D03*
X28448000Y97586800D03*
X25908000Y95046800D03*
X28448000Y95046800D03*
X25908000Y92506800D03*
X28448000Y92506800D03*
%TD*%
D10*
%TO.C,J28*%
X39522400Y43688000D03*
X39522400Y46228000D03*
%TD*%
%TO.C,J29*%
X31038800Y3606800D03*
X31038800Y6146800D03*
%TD*%
%TO.C,J30*%
X42062400Y43688000D03*
X42062400Y46228000D03*
%TD*%
%TO.C,J31*%
X44602400Y43688000D03*
X44602400Y46228000D03*
%TD*%
%TO.C,J36*%
X48666400Y43688000D03*
X48666400Y46228000D03*
%TD*%
D12*
%TO.C,J37*%
X25298400Y87325200D03*
%TD*%
%TO.C,J38*%
X25298400Y79705200D03*
%TD*%
%TO.C,J39*%
X25298400Y84785200D03*
%TD*%
%TO.C,J40*%
X25298400Y82245200D03*
%TD*%
%TO.C,J41*%
X25298400Y74625200D03*
%TD*%
%TO.C,J42*%
X25298400Y77165200D03*
%TD*%
%TO.C,J43*%
X25298400Y72085200D03*
%TD*%
%TO.C,J44*%
X25298400Y69545200D03*
%TD*%
D13*
%TO.C,D3*%
X44450000Y38100000D03*
D14*
X46990000Y38100000D03*
%TD*%
D13*
%TO.C,D4*%
X44450000Y104140000D03*
D14*
X46990000Y104140000D03*
%TD*%
D15*
%TO.C,AFF1*%
X35458400Y17576800D03*
X40538400Y17576800D03*
X45618400Y17576800D03*
X50698400Y17576800D03*
X55778400Y17576800D03*
X55778400Y125776800D03*
X50698400Y125776800D03*
X45618400Y125776800D03*
X40538400Y125776800D03*
X35458400Y125776800D03*
%TD*%
D16*
%TO.C,REF\u002A\u002A*%
X43281600Y25857200D03*
%TD*%
%TO.C,REF\u002A\u002A*%
X35458400Y25603200D03*
%TD*%
%TO.C,J2*%
X24638000Y55118000D03*
%TD*%
%TO.C,J3*%
X34391600Y59131200D03*
%TD*%
M02*
