%TF.GenerationSoftware,KiCad,Pcbnew,7.0.7-7.0.7~ubuntu23.04.1*%
%TF.CreationDate,2023-09-17T10:17:03+00:00*%
%TF.ProjectId,LED7SEG01,4c454437-5345-4473-9031-2e6b69636164,rev?*%
%TF.SameCoordinates,Original*%
%TF.FileFunction,Legend,Top*%
%TF.FilePolarity,Positive*%
%FSLAX46Y46*%
G04 Gerber Fmt 4.6, Leading zero omitted, Abs format (unit mm)*
G04 Created by KiCad (PCBNEW 7.0.7-7.0.7~ubuntu23.04.1) date 2023-09-17 10:17:03*
%MOMM*%
%LPD*%
G01*
G04 APERTURE LIST*
%ADD10C,0.200000*%
%ADD11C,0.300000*%
%ADD12C,0.050000*%
%ADD13C,0.150000*%
%ADD14R,1.524000X1.524000*%
%ADD15R,1.800000X1.800000*%
%ADD16C,1.800000*%
%ADD17C,2.000000*%
%ADD18C,1.524000*%
G04 APERTURE END LIST*
D10*
X63340800Y111530000D02*
X63340800Y40918000D01*
X22700800Y40918000D02*
X22700800Y111530000D01*
X22700800Y111530000D02*
X63340800Y111530000D01*
X63340800Y40918000D02*
X22700800Y40918000D01*
D11*
X55442172Y97554414D02*
X55513600Y97625842D01*
X55513600Y97625842D02*
X55656458Y97697271D01*
X55656458Y97697271D02*
X56013600Y97697271D01*
X56013600Y97697271D02*
X56156458Y97625842D01*
X56156458Y97625842D02*
X56227886Y97554414D01*
X56227886Y97554414D02*
X56299315Y97411557D01*
X56299315Y97411557D02*
X56299315Y97268700D01*
X56299315Y97268700D02*
X56227886Y97054414D01*
X56227886Y97054414D02*
X55370743Y96197271D01*
X55370743Y96197271D02*
X56299315Y96197271D01*
X57227886Y97697271D02*
X57370743Y97697271D01*
X57370743Y97697271D02*
X57513600Y97625842D01*
X57513600Y97625842D02*
X57585029Y97554414D01*
X57585029Y97554414D02*
X57656457Y97411557D01*
X57656457Y97411557D02*
X57727886Y97125842D01*
X57727886Y97125842D02*
X57727886Y96768700D01*
X57727886Y96768700D02*
X57656457Y96482985D01*
X57656457Y96482985D02*
X57585029Y96340128D01*
X57585029Y96340128D02*
X57513600Y96268700D01*
X57513600Y96268700D02*
X57370743Y96197271D01*
X57370743Y96197271D02*
X57227886Y96197271D01*
X57227886Y96197271D02*
X57085029Y96268700D01*
X57085029Y96268700D02*
X57013600Y96340128D01*
X57013600Y96340128D02*
X56942171Y96482985D01*
X56942171Y96482985D02*
X56870743Y96768700D01*
X56870743Y96768700D02*
X56870743Y97125842D01*
X56870743Y97125842D02*
X56942171Y97411557D01*
X56942171Y97411557D02*
X57013600Y97554414D01*
X57013600Y97554414D02*
X57085029Y97625842D01*
X57085029Y97625842D02*
X57227886Y97697271D01*
X59156457Y96197271D02*
X58299314Y96197271D01*
X58727885Y96197271D02*
X58727885Y97697271D01*
X58727885Y97697271D02*
X58585028Y97482985D01*
X58585028Y97482985D02*
X58442171Y97340128D01*
X58442171Y97340128D02*
X58299314Y97268700D01*
X60442171Y97697271D02*
X60156456Y97697271D01*
X60156456Y97697271D02*
X60013599Y97625842D01*
X60013599Y97625842D02*
X59942171Y97554414D01*
X59942171Y97554414D02*
X59799313Y97340128D01*
X59799313Y97340128D02*
X59727885Y97054414D01*
X59727885Y97054414D02*
X59727885Y96482985D01*
X59727885Y96482985D02*
X59799313Y96340128D01*
X59799313Y96340128D02*
X59870742Y96268700D01*
X59870742Y96268700D02*
X60013599Y96197271D01*
X60013599Y96197271D02*
X60299313Y96197271D01*
X60299313Y96197271D02*
X60442171Y96268700D01*
X60442171Y96268700D02*
X60513599Y96340128D01*
X60513599Y96340128D02*
X60585028Y96482985D01*
X60585028Y96482985D02*
X60585028Y96840128D01*
X60585028Y96840128D02*
X60513599Y96982985D01*
X60513599Y96982985D02*
X60442171Y97054414D01*
X60442171Y97054414D02*
X60299313Y97125842D01*
X60299313Y97125842D02*
X60013599Y97125842D01*
X60013599Y97125842D02*
X59870742Y97054414D01*
X59870742Y97054414D02*
X59799313Y96982985D01*
X59799313Y96982985D02*
X59727885Y96840128D01*
X55263600Y100389671D02*
X55263600Y99318242D01*
X55263600Y99318242D02*
X55192171Y99103957D01*
X55192171Y99103957D02*
X55049314Y98961100D01*
X55049314Y98961100D02*
X54835028Y98889671D01*
X54835028Y98889671D02*
X54692171Y98889671D01*
X55906457Y99318242D02*
X56620743Y99318242D01*
X55763600Y98889671D02*
X56263600Y100389671D01*
X56263600Y100389671D02*
X56763600Y98889671D01*
X58120742Y99032528D02*
X58049314Y98961100D01*
X58049314Y98961100D02*
X57835028Y98889671D01*
X57835028Y98889671D02*
X57692171Y98889671D01*
X57692171Y98889671D02*
X57477885Y98961100D01*
X57477885Y98961100D02*
X57335028Y99103957D01*
X57335028Y99103957D02*
X57263599Y99246814D01*
X57263599Y99246814D02*
X57192171Y99532528D01*
X57192171Y99532528D02*
X57192171Y99746814D01*
X57192171Y99746814D02*
X57263599Y100032528D01*
X57263599Y100032528D02*
X57335028Y100175385D01*
X57335028Y100175385D02*
X57477885Y100318242D01*
X57477885Y100318242D02*
X57692171Y100389671D01*
X57692171Y100389671D02*
X57835028Y100389671D01*
X57835028Y100389671D02*
X58049314Y100318242D01*
X58049314Y100318242D02*
X58120742Y100246814D01*
X58763599Y98889671D02*
X58763599Y100389671D01*
X58763599Y99675385D02*
X59620742Y99675385D01*
X59620742Y98889671D02*
X59620742Y100389671D01*
X60620743Y100389671D02*
X60906457Y100389671D01*
X60906457Y100389671D02*
X61049314Y100318242D01*
X61049314Y100318242D02*
X61192171Y100175385D01*
X61192171Y100175385D02*
X61263600Y99889671D01*
X61263600Y99889671D02*
X61263600Y99389671D01*
X61263600Y99389671D02*
X61192171Y99103957D01*
X61192171Y99103957D02*
X61049314Y98961100D01*
X61049314Y98961100D02*
X60906457Y98889671D01*
X60906457Y98889671D02*
X60620743Y98889671D01*
X60620743Y98889671D02*
X60477886Y98961100D01*
X60477886Y98961100D02*
X60335028Y99103957D01*
X60335028Y99103957D02*
X60263600Y99389671D01*
X60263600Y99389671D02*
X60263600Y99889671D01*
X60263600Y99889671D02*
X60335028Y100175385D01*
X60335028Y100175385D02*
X60477886Y100318242D01*
X60477886Y100318242D02*
X60620743Y100389671D01*
X49326743Y56166871D02*
X48612457Y56166871D01*
X48612457Y56166871D02*
X48612457Y57666871D01*
X49826743Y56952585D02*
X50326743Y56952585D01*
X50541029Y56166871D02*
X49826743Y56166871D01*
X49826743Y56166871D02*
X49826743Y57666871D01*
X49826743Y57666871D02*
X50541029Y57666871D01*
X51183886Y56166871D02*
X51183886Y57666871D01*
X51183886Y57666871D02*
X51541029Y57666871D01*
X51541029Y57666871D02*
X51755315Y57595442D01*
X51755315Y57595442D02*
X51898172Y57452585D01*
X51898172Y57452585D02*
X51969601Y57309728D01*
X51969601Y57309728D02*
X52041029Y57024014D01*
X52041029Y57024014D02*
X52041029Y56809728D01*
X52041029Y56809728D02*
X51969601Y56524014D01*
X51969601Y56524014D02*
X51898172Y56381157D01*
X51898172Y56381157D02*
X51755315Y56238300D01*
X51755315Y56238300D02*
X51541029Y56166871D01*
X51541029Y56166871D02*
X51183886Y56166871D01*
X52541029Y57666871D02*
X53541029Y57666871D01*
X53541029Y57666871D02*
X52898172Y56166871D01*
X54041029Y56238300D02*
X54255315Y56166871D01*
X54255315Y56166871D02*
X54612457Y56166871D01*
X54612457Y56166871D02*
X54755315Y56238300D01*
X54755315Y56238300D02*
X54826743Y56309728D01*
X54826743Y56309728D02*
X54898172Y56452585D01*
X54898172Y56452585D02*
X54898172Y56595442D01*
X54898172Y56595442D02*
X54826743Y56738300D01*
X54826743Y56738300D02*
X54755315Y56809728D01*
X54755315Y56809728D02*
X54612457Y56881157D01*
X54612457Y56881157D02*
X54326743Y56952585D01*
X54326743Y56952585D02*
X54183886Y57024014D01*
X54183886Y57024014D02*
X54112457Y57095442D01*
X54112457Y57095442D02*
X54041029Y57238300D01*
X54041029Y57238300D02*
X54041029Y57381157D01*
X54041029Y57381157D02*
X54112457Y57524014D01*
X54112457Y57524014D02*
X54183886Y57595442D01*
X54183886Y57595442D02*
X54326743Y57666871D01*
X54326743Y57666871D02*
X54683886Y57666871D01*
X54683886Y57666871D02*
X54898172Y57595442D01*
X55541028Y56952585D02*
X56041028Y56952585D01*
X56255314Y56166871D02*
X55541028Y56166871D01*
X55541028Y56166871D02*
X55541028Y57666871D01*
X55541028Y57666871D02*
X56255314Y57666871D01*
X57683886Y57595442D02*
X57541029Y57666871D01*
X57541029Y57666871D02*
X57326743Y57666871D01*
X57326743Y57666871D02*
X57112457Y57595442D01*
X57112457Y57595442D02*
X56969600Y57452585D01*
X56969600Y57452585D02*
X56898171Y57309728D01*
X56898171Y57309728D02*
X56826743Y57024014D01*
X56826743Y57024014D02*
X56826743Y56809728D01*
X56826743Y56809728D02*
X56898171Y56524014D01*
X56898171Y56524014D02*
X56969600Y56381157D01*
X56969600Y56381157D02*
X57112457Y56238300D01*
X57112457Y56238300D02*
X57326743Y56166871D01*
X57326743Y56166871D02*
X57469600Y56166871D01*
X57469600Y56166871D02*
X57683886Y56238300D01*
X57683886Y56238300D02*
X57755314Y56309728D01*
X57755314Y56309728D02*
X57755314Y56809728D01*
X57755314Y56809728D02*
X57469600Y56809728D01*
X58683886Y57666871D02*
X58826743Y57666871D01*
X58826743Y57666871D02*
X58969600Y57595442D01*
X58969600Y57595442D02*
X59041029Y57524014D01*
X59041029Y57524014D02*
X59112457Y57381157D01*
X59112457Y57381157D02*
X59183886Y57095442D01*
X59183886Y57095442D02*
X59183886Y56738300D01*
X59183886Y56738300D02*
X59112457Y56452585D01*
X59112457Y56452585D02*
X59041029Y56309728D01*
X59041029Y56309728D02*
X58969600Y56238300D01*
X58969600Y56238300D02*
X58826743Y56166871D01*
X58826743Y56166871D02*
X58683886Y56166871D01*
X58683886Y56166871D02*
X58541029Y56238300D01*
X58541029Y56238300D02*
X58469600Y56309728D01*
X58469600Y56309728D02*
X58398171Y56452585D01*
X58398171Y56452585D02*
X58326743Y56738300D01*
X58326743Y56738300D02*
X58326743Y57095442D01*
X58326743Y57095442D02*
X58398171Y57381157D01*
X58398171Y57381157D02*
X58469600Y57524014D01*
X58469600Y57524014D02*
X58541029Y57595442D01*
X58541029Y57595442D02*
X58683886Y57666871D01*
X60612457Y56166871D02*
X59755314Y56166871D01*
X60183885Y56166871D02*
X60183885Y57666871D01*
X60183885Y57666871D02*
X60041028Y57452585D01*
X60041028Y57452585D02*
X59898171Y57309728D01*
X59898171Y57309728D02*
X59755314Y57238300D01*
X61183885Y56595442D02*
X61898171Y56595442D01*
X61041028Y56166871D02*
X61541028Y57666871D01*
X61541028Y57666871D02*
X62041028Y56166871D01*
X50898171Y58859271D02*
X50898171Y60359271D01*
X50898171Y60359271D02*
X51398171Y59287842D01*
X51398171Y59287842D02*
X51898171Y60359271D01*
X51898171Y60359271D02*
X51898171Y58859271D01*
X53326743Y58859271D02*
X52612457Y58859271D01*
X52612457Y58859271D02*
X52612457Y60359271D01*
X53755315Y59287842D02*
X54469601Y59287842D01*
X53612458Y58859271D02*
X54112458Y60359271D01*
X54112458Y60359271D02*
X54612458Y58859271D01*
X55612457Y59644985D02*
X55826743Y59573557D01*
X55826743Y59573557D02*
X55898172Y59502128D01*
X55898172Y59502128D02*
X55969600Y59359271D01*
X55969600Y59359271D02*
X55969600Y59144985D01*
X55969600Y59144985D02*
X55898172Y59002128D01*
X55898172Y59002128D02*
X55826743Y58930700D01*
X55826743Y58930700D02*
X55683886Y58859271D01*
X55683886Y58859271D02*
X55112457Y58859271D01*
X55112457Y58859271D02*
X55112457Y60359271D01*
X55112457Y60359271D02*
X55612457Y60359271D01*
X55612457Y60359271D02*
X55755315Y60287842D01*
X55755315Y60287842D02*
X55826743Y60216414D01*
X55826743Y60216414D02*
X55898172Y60073557D01*
X55898172Y60073557D02*
X55898172Y59930700D01*
X55898172Y59930700D02*
X55826743Y59787842D01*
X55826743Y59787842D02*
X55755315Y59716414D01*
X55755315Y59716414D02*
X55612457Y59644985D01*
X55612457Y59644985D02*
X55112457Y59644985D01*
X56612457Y59002128D02*
X56683886Y58930700D01*
X56683886Y58930700D02*
X56612457Y58859271D01*
X56612457Y58859271D02*
X56541029Y58930700D01*
X56541029Y58930700D02*
X56612457Y59002128D01*
X56612457Y59002128D02*
X56612457Y58859271D01*
X58183886Y59002128D02*
X58112458Y58930700D01*
X58112458Y58930700D02*
X57898172Y58859271D01*
X57898172Y58859271D02*
X57755315Y58859271D01*
X57755315Y58859271D02*
X57541029Y58930700D01*
X57541029Y58930700D02*
X57398172Y59073557D01*
X57398172Y59073557D02*
X57326743Y59216414D01*
X57326743Y59216414D02*
X57255315Y59502128D01*
X57255315Y59502128D02*
X57255315Y59716414D01*
X57255315Y59716414D02*
X57326743Y60002128D01*
X57326743Y60002128D02*
X57398172Y60144985D01*
X57398172Y60144985D02*
X57541029Y60287842D01*
X57541029Y60287842D02*
X57755315Y60359271D01*
X57755315Y60359271D02*
X57898172Y60359271D01*
X57898172Y60359271D02*
X58112458Y60287842D01*
X58112458Y60287842D02*
X58183886Y60216414D01*
X58683886Y60359271D02*
X59683886Y60359271D01*
X59683886Y60359271D02*
X58683886Y58859271D01*
X58683886Y58859271D02*
X59683886Y58859271D01*
X31477200Y2040871D02*
X31977200Y540871D01*
X31977200Y540871D02*
X32477200Y2040871D01*
X32977199Y540871D02*
X32977199Y2040871D01*
X32977199Y2040871D02*
X33334342Y2040871D01*
X33334342Y2040871D02*
X33548628Y1969442D01*
X33548628Y1969442D02*
X33691485Y1826585D01*
X33691485Y1826585D02*
X33762914Y1683728D01*
X33762914Y1683728D02*
X33834342Y1398014D01*
X33834342Y1398014D02*
X33834342Y1183728D01*
X33834342Y1183728D02*
X33762914Y898014D01*
X33762914Y898014D02*
X33691485Y755157D01*
X33691485Y755157D02*
X33548628Y612300D01*
X33548628Y612300D02*
X33334342Y540871D01*
X33334342Y540871D02*
X32977199Y540871D01*
X34477199Y540871D02*
X34477199Y2040871D01*
X34477199Y2040871D02*
X34834342Y2040871D01*
X34834342Y2040871D02*
X35048628Y1969442D01*
X35048628Y1969442D02*
X35191485Y1826585D01*
X35191485Y1826585D02*
X35262914Y1683728D01*
X35262914Y1683728D02*
X35334342Y1398014D01*
X35334342Y1398014D02*
X35334342Y1183728D01*
X35334342Y1183728D02*
X35262914Y898014D01*
X35262914Y898014D02*
X35191485Y755157D01*
X35191485Y755157D02*
X35048628Y612300D01*
X35048628Y612300D02*
X34834342Y540871D01*
X34834342Y540871D02*
X34477199Y540871D01*
X29166572Y8333900D02*
X29380858Y8262471D01*
X29380858Y8262471D02*
X29738000Y8262471D01*
X29738000Y8262471D02*
X29880858Y8333900D01*
X29880858Y8333900D02*
X29952286Y8405328D01*
X29952286Y8405328D02*
X30023715Y8548185D01*
X30023715Y8548185D02*
X30023715Y8691042D01*
X30023715Y8691042D02*
X29952286Y8833900D01*
X29952286Y8833900D02*
X29880858Y8905328D01*
X29880858Y8905328D02*
X29738000Y8976757D01*
X29738000Y8976757D02*
X29452286Y9048185D01*
X29452286Y9048185D02*
X29309429Y9119614D01*
X29309429Y9119614D02*
X29238000Y9191042D01*
X29238000Y9191042D02*
X29166572Y9333900D01*
X29166572Y9333900D02*
X29166572Y9476757D01*
X29166572Y9476757D02*
X29238000Y9619614D01*
X29238000Y9619614D02*
X29309429Y9691042D01*
X29309429Y9691042D02*
X29452286Y9762471D01*
X29452286Y9762471D02*
X29809429Y9762471D01*
X29809429Y9762471D02*
X30023715Y9691042D01*
X30666571Y8262471D02*
X30666571Y9762471D01*
X30666571Y9762471D02*
X31023714Y9762471D01*
X31023714Y9762471D02*
X31238000Y9691042D01*
X31238000Y9691042D02*
X31380857Y9548185D01*
X31380857Y9548185D02*
X31452286Y9405328D01*
X31452286Y9405328D02*
X31523714Y9119614D01*
X31523714Y9119614D02*
X31523714Y8905328D01*
X31523714Y8905328D02*
X31452286Y8619614D01*
X31452286Y8619614D02*
X31380857Y8476757D01*
X31380857Y8476757D02*
X31238000Y8333900D01*
X31238000Y8333900D02*
X31023714Y8262471D01*
X31023714Y8262471D02*
X30666571Y8262471D01*
X32095143Y8691042D02*
X32809429Y8691042D01*
X31952286Y8262471D02*
X32452286Y9762471D01*
X32452286Y9762471D02*
X32952286Y8262471D01*
X36797128Y62322289D02*
X36797128Y61608003D01*
X36797128Y61608003D02*
X35297128Y61608003D01*
X36011414Y62822289D02*
X36011414Y63322289D01*
X36797128Y63536575D02*
X36797128Y62822289D01*
X36797128Y62822289D02*
X35297128Y62822289D01*
X35297128Y62822289D02*
X35297128Y63536575D01*
X36797128Y64179432D02*
X35297128Y64179432D01*
X35297128Y64179432D02*
X35297128Y64536575D01*
X35297128Y64536575D02*
X35368557Y64750861D01*
X35368557Y64750861D02*
X35511414Y64893718D01*
X35511414Y64893718D02*
X35654271Y64965147D01*
X35654271Y64965147D02*
X35939985Y65036575D01*
X35939985Y65036575D02*
X36154271Y65036575D01*
X36154271Y65036575D02*
X36439985Y64965147D01*
X36439985Y64965147D02*
X36582842Y64893718D01*
X36582842Y64893718D02*
X36725700Y64750861D01*
X36725700Y64750861D02*
X36797128Y64536575D01*
X36797128Y64536575D02*
X36797128Y64179432D01*
X35297128Y65965147D02*
X35297128Y66108004D01*
X35297128Y66108004D02*
X35368557Y66250861D01*
X35368557Y66250861D02*
X35439985Y66322290D01*
X35439985Y66322290D02*
X35582842Y66393718D01*
X35582842Y66393718D02*
X35868557Y66465147D01*
X35868557Y66465147D02*
X36225700Y66465147D01*
X36225700Y66465147D02*
X36511414Y66393718D01*
X36511414Y66393718D02*
X36654271Y66322290D01*
X36654271Y66322290D02*
X36725700Y66250861D01*
X36725700Y66250861D02*
X36797128Y66108004D01*
X36797128Y66108004D02*
X36797128Y65965147D01*
X36797128Y65965147D02*
X36725700Y65822290D01*
X36725700Y65822290D02*
X36654271Y65750861D01*
X36654271Y65750861D02*
X36511414Y65679432D01*
X36511414Y65679432D02*
X36225700Y65608004D01*
X36225700Y65608004D02*
X35868557Y65608004D01*
X35868557Y65608004D02*
X35582842Y65679432D01*
X35582842Y65679432D02*
X35439985Y65750861D01*
X35439985Y65750861D02*
X35368557Y65822290D01*
X35368557Y65822290D02*
X35297128Y65965147D01*
X35297128Y67393718D02*
X35297128Y67536575D01*
X35297128Y67536575D02*
X35368557Y67679432D01*
X35368557Y67679432D02*
X35439985Y67750861D01*
X35439985Y67750861D02*
X35582842Y67822289D01*
X35582842Y67822289D02*
X35868557Y67893718D01*
X35868557Y67893718D02*
X36225700Y67893718D01*
X36225700Y67893718D02*
X36511414Y67822289D01*
X36511414Y67822289D02*
X36654271Y67750861D01*
X36654271Y67750861D02*
X36725700Y67679432D01*
X36725700Y67679432D02*
X36797128Y67536575D01*
X36797128Y67536575D02*
X36797128Y67393718D01*
X36797128Y67393718D02*
X36725700Y67250861D01*
X36725700Y67250861D02*
X36654271Y67179432D01*
X36654271Y67179432D02*
X36511414Y67108003D01*
X36511414Y67108003D02*
X36225700Y67036575D01*
X36225700Y67036575D02*
X35868557Y67036575D01*
X35868557Y67036575D02*
X35582842Y67108003D01*
X35582842Y67108003D02*
X35439985Y67179432D01*
X35439985Y67179432D02*
X35368557Y67250861D01*
X35368557Y67250861D02*
X35297128Y67393718D01*
X43750557Y49193825D02*
X43679128Y49050968D01*
X43679128Y49050968D02*
X43679128Y48836682D01*
X43679128Y48836682D02*
X43750557Y48622396D01*
X43750557Y48622396D02*
X43893414Y48479539D01*
X43893414Y48479539D02*
X44036271Y48408110D01*
X44036271Y48408110D02*
X44321985Y48336682D01*
X44321985Y48336682D02*
X44536271Y48336682D01*
X44536271Y48336682D02*
X44821985Y48408110D01*
X44821985Y48408110D02*
X44964842Y48479539D01*
X44964842Y48479539D02*
X45107700Y48622396D01*
X45107700Y48622396D02*
X45179128Y48836682D01*
X45179128Y48836682D02*
X45179128Y48979539D01*
X45179128Y48979539D02*
X45107700Y49193825D01*
X45107700Y49193825D02*
X45036271Y49265253D01*
X45036271Y49265253D02*
X44536271Y49265253D01*
X44536271Y49265253D02*
X44536271Y48979539D01*
X45179128Y49908110D02*
X43679128Y49908110D01*
X43679128Y49908110D02*
X45179128Y50765253D01*
X45179128Y50765253D02*
X43679128Y50765253D01*
X45179128Y51479539D02*
X43679128Y51479539D01*
X43679128Y51479539D02*
X43679128Y51836682D01*
X43679128Y51836682D02*
X43750557Y52050968D01*
X43750557Y52050968D02*
X43893414Y52193825D01*
X43893414Y52193825D02*
X44036271Y52265254D01*
X44036271Y52265254D02*
X44321985Y52336682D01*
X44321985Y52336682D02*
X44536271Y52336682D01*
X44536271Y52336682D02*
X44821985Y52265254D01*
X44821985Y52265254D02*
X44964842Y52193825D01*
X44964842Y52193825D02*
X45107700Y52050968D01*
X45107700Y52050968D02*
X45179128Y51836682D01*
X45179128Y51836682D02*
X45179128Y51479539D01*
X52087928Y88082910D02*
X50587928Y88082910D01*
X50587928Y88082910D02*
X50587928Y88440053D01*
X50587928Y88440053D02*
X50659357Y88654339D01*
X50659357Y88654339D02*
X50802214Y88797196D01*
X50802214Y88797196D02*
X50945071Y88868625D01*
X50945071Y88868625D02*
X51230785Y88940053D01*
X51230785Y88940053D02*
X51445071Y88940053D01*
X51445071Y88940053D02*
X51730785Y88868625D01*
X51730785Y88868625D02*
X51873642Y88797196D01*
X51873642Y88797196D02*
X52016500Y88654339D01*
X52016500Y88654339D02*
X52087928Y88440053D01*
X52087928Y88440053D02*
X52087928Y88082910D01*
X43682214Y88582910D02*
X43753642Y88797196D01*
X43753642Y88797196D02*
X43825071Y88868625D01*
X43825071Y88868625D02*
X43967928Y88940053D01*
X43967928Y88940053D02*
X44182214Y88940053D01*
X44182214Y88940053D02*
X44325071Y88868625D01*
X44325071Y88868625D02*
X44396500Y88797196D01*
X44396500Y88797196D02*
X44467928Y88654339D01*
X44467928Y88654339D02*
X44467928Y88082910D01*
X44467928Y88082910D02*
X42967928Y88082910D01*
X42967928Y88082910D02*
X42967928Y88582910D01*
X42967928Y88582910D02*
X43039357Y88725768D01*
X43039357Y88725768D02*
X43110785Y88797196D01*
X43110785Y88797196D02*
X43253642Y88868625D01*
X43253642Y88868625D02*
X43396500Y88868625D01*
X43396500Y88868625D02*
X43539357Y88797196D01*
X43539357Y88797196D02*
X43610785Y88725768D01*
X43610785Y88725768D02*
X43682214Y88582910D01*
X43682214Y88582910D02*
X43682214Y88082910D01*
X44417128Y62322289D02*
X44417128Y61608003D01*
X44417128Y61608003D02*
X42917128Y61608003D01*
X43631414Y62822289D02*
X43631414Y63322289D01*
X44417128Y63536575D02*
X44417128Y62822289D01*
X44417128Y62822289D02*
X42917128Y62822289D01*
X42917128Y62822289D02*
X42917128Y63536575D01*
X44417128Y64179432D02*
X42917128Y64179432D01*
X42917128Y64179432D02*
X42917128Y64536575D01*
X42917128Y64536575D02*
X42988557Y64750861D01*
X42988557Y64750861D02*
X43131414Y64893718D01*
X43131414Y64893718D02*
X43274271Y64965147D01*
X43274271Y64965147D02*
X43559985Y65036575D01*
X43559985Y65036575D02*
X43774271Y65036575D01*
X43774271Y65036575D02*
X44059985Y64965147D01*
X44059985Y64965147D02*
X44202842Y64893718D01*
X44202842Y64893718D02*
X44345700Y64750861D01*
X44345700Y64750861D02*
X44417128Y64536575D01*
X44417128Y64536575D02*
X44417128Y64179432D01*
X42917128Y65965147D02*
X42917128Y66108004D01*
X42917128Y66108004D02*
X42988557Y66250861D01*
X42988557Y66250861D02*
X43059985Y66322290D01*
X43059985Y66322290D02*
X43202842Y66393718D01*
X43202842Y66393718D02*
X43488557Y66465147D01*
X43488557Y66465147D02*
X43845700Y66465147D01*
X43845700Y66465147D02*
X44131414Y66393718D01*
X44131414Y66393718D02*
X44274271Y66322290D01*
X44274271Y66322290D02*
X44345700Y66250861D01*
X44345700Y66250861D02*
X44417128Y66108004D01*
X44417128Y66108004D02*
X44417128Y65965147D01*
X44417128Y65965147D02*
X44345700Y65822290D01*
X44345700Y65822290D02*
X44274271Y65750861D01*
X44274271Y65750861D02*
X44131414Y65679432D01*
X44131414Y65679432D02*
X43845700Y65608004D01*
X43845700Y65608004D02*
X43488557Y65608004D01*
X43488557Y65608004D02*
X43202842Y65679432D01*
X43202842Y65679432D02*
X43059985Y65750861D01*
X43059985Y65750861D02*
X42988557Y65822290D01*
X42988557Y65822290D02*
X42917128Y65965147D01*
X42917128Y66965146D02*
X42917128Y67893718D01*
X42917128Y67893718D02*
X43488557Y67393718D01*
X43488557Y67393718D02*
X43488557Y67608003D01*
X43488557Y67608003D02*
X43559985Y67750861D01*
X43559985Y67750861D02*
X43631414Y67822289D01*
X43631414Y67822289D02*
X43774271Y67893718D01*
X43774271Y67893718D02*
X44131414Y67893718D01*
X44131414Y67893718D02*
X44274271Y67822289D01*
X44274271Y67822289D02*
X44345700Y67750861D01*
X44345700Y67750861D02*
X44417128Y67608003D01*
X44417128Y67608003D02*
X44417128Y67179432D01*
X44417128Y67179432D02*
X44345700Y67036575D01*
X44345700Y67036575D02*
X44274271Y66965146D01*
X34333086Y8333900D02*
X34547372Y8262471D01*
X34547372Y8262471D02*
X34904514Y8262471D01*
X34904514Y8262471D02*
X35047372Y8333900D01*
X35047372Y8333900D02*
X35118800Y8405328D01*
X35118800Y8405328D02*
X35190229Y8548185D01*
X35190229Y8548185D02*
X35190229Y8691042D01*
X35190229Y8691042D02*
X35118800Y8833900D01*
X35118800Y8833900D02*
X35047372Y8905328D01*
X35047372Y8905328D02*
X34904514Y8976757D01*
X34904514Y8976757D02*
X34618800Y9048185D01*
X34618800Y9048185D02*
X34475943Y9119614D01*
X34475943Y9119614D02*
X34404514Y9191042D01*
X34404514Y9191042D02*
X34333086Y9333900D01*
X34333086Y9333900D02*
X34333086Y9476757D01*
X34333086Y9476757D02*
X34404514Y9619614D01*
X34404514Y9619614D02*
X34475943Y9691042D01*
X34475943Y9691042D02*
X34618800Y9762471D01*
X34618800Y9762471D02*
X34975943Y9762471D01*
X34975943Y9762471D02*
X35190229Y9691042D01*
X36690228Y8405328D02*
X36618800Y8333900D01*
X36618800Y8333900D02*
X36404514Y8262471D01*
X36404514Y8262471D02*
X36261657Y8262471D01*
X36261657Y8262471D02*
X36047371Y8333900D01*
X36047371Y8333900D02*
X35904514Y8476757D01*
X35904514Y8476757D02*
X35833085Y8619614D01*
X35833085Y8619614D02*
X35761657Y8905328D01*
X35761657Y8905328D02*
X35761657Y9119614D01*
X35761657Y9119614D02*
X35833085Y9405328D01*
X35833085Y9405328D02*
X35904514Y9548185D01*
X35904514Y9548185D02*
X36047371Y9691042D01*
X36047371Y9691042D02*
X36261657Y9762471D01*
X36261657Y9762471D02*
X36404514Y9762471D01*
X36404514Y9762471D02*
X36618800Y9691042D01*
X36618800Y9691042D02*
X36690228Y9619614D01*
X38047371Y8262471D02*
X37333085Y8262471D01*
X37333085Y8262471D02*
X37333085Y9762471D01*
X28148500Y75690743D02*
X28148500Y76833601D01*
X28719928Y76262172D02*
X27577071Y76262172D01*
X28719928Y78333601D02*
X28719928Y77476458D01*
X28719928Y77905029D02*
X27219928Y77905029D01*
X27219928Y77905029D02*
X27434214Y77762172D01*
X27434214Y77762172D02*
X27577071Y77619315D01*
X27577071Y77619315D02*
X27648500Y77476458D01*
X27362785Y78905029D02*
X27291357Y78976457D01*
X27291357Y78976457D02*
X27219928Y79119315D01*
X27219928Y79119315D02*
X27219928Y79476457D01*
X27219928Y79476457D02*
X27291357Y79619315D01*
X27291357Y79619315D02*
X27362785Y79690743D01*
X27362785Y79690743D02*
X27505642Y79762172D01*
X27505642Y79762172D02*
X27648500Y79762172D01*
X27648500Y79762172D02*
X27862785Y79690743D01*
X27862785Y79690743D02*
X28719928Y78833600D01*
X28719928Y78833600D02*
X28719928Y79762172D01*
X27219928Y80190743D02*
X28719928Y80690743D01*
X28719928Y80690743D02*
X27219928Y81190743D01*
X59889771Y6332071D02*
X59889771Y7832071D01*
X59889771Y7832071D02*
X60389771Y6760642D01*
X60389771Y6760642D02*
X60889771Y7832071D01*
X60889771Y7832071D02*
X60889771Y6332071D01*
X62318343Y6332071D02*
X61604057Y6332071D01*
X61604057Y6332071D02*
X61604057Y7832071D01*
X62746915Y6760642D02*
X63461201Y6760642D01*
X62604058Y6332071D02*
X63104058Y7832071D01*
X63104058Y7832071D02*
X63604058Y6332071D01*
X64604057Y7117785D02*
X64818343Y7046357D01*
X64818343Y7046357D02*
X64889772Y6974928D01*
X64889772Y6974928D02*
X64961200Y6832071D01*
X64961200Y6832071D02*
X64961200Y6617785D01*
X64961200Y6617785D02*
X64889772Y6474928D01*
X64889772Y6474928D02*
X64818343Y6403500D01*
X64818343Y6403500D02*
X64675486Y6332071D01*
X64675486Y6332071D02*
X64104057Y6332071D01*
X64104057Y6332071D02*
X64104057Y7832071D01*
X64104057Y7832071D02*
X64604057Y7832071D01*
X64604057Y7832071D02*
X64746915Y7760642D01*
X64746915Y7760642D02*
X64818343Y7689214D01*
X64818343Y7689214D02*
X64889772Y7546357D01*
X64889772Y7546357D02*
X64889772Y7403500D01*
X64889772Y7403500D02*
X64818343Y7260642D01*
X64818343Y7260642D02*
X64746915Y7189214D01*
X64746915Y7189214D02*
X64604057Y7117785D01*
X64604057Y7117785D02*
X64104057Y7117785D01*
X65604057Y6474928D02*
X65675486Y6403500D01*
X65675486Y6403500D02*
X65604057Y6332071D01*
X65604057Y6332071D02*
X65532629Y6403500D01*
X65532629Y6403500D02*
X65604057Y6474928D01*
X65604057Y6474928D02*
X65604057Y6332071D01*
X67175486Y6474928D02*
X67104058Y6403500D01*
X67104058Y6403500D02*
X66889772Y6332071D01*
X66889772Y6332071D02*
X66746915Y6332071D01*
X66746915Y6332071D02*
X66532629Y6403500D01*
X66532629Y6403500D02*
X66389772Y6546357D01*
X66389772Y6546357D02*
X66318343Y6689214D01*
X66318343Y6689214D02*
X66246915Y6974928D01*
X66246915Y6974928D02*
X66246915Y7189214D01*
X66246915Y7189214D02*
X66318343Y7474928D01*
X66318343Y7474928D02*
X66389772Y7617785D01*
X66389772Y7617785D02*
X66532629Y7760642D01*
X66532629Y7760642D02*
X66746915Y7832071D01*
X66746915Y7832071D02*
X66889772Y7832071D01*
X66889772Y7832071D02*
X67104058Y7760642D01*
X67104058Y7760642D02*
X67175486Y7689214D01*
X67675486Y7832071D02*
X68675486Y7832071D01*
X68675486Y7832071D02*
X67675486Y6332071D01*
X67675486Y6332071D02*
X68675486Y6332071D01*
X41499357Y88062282D02*
X41499357Y88776568D01*
X41927928Y87919425D02*
X40427928Y88419425D01*
X40427928Y88419425D02*
X41927928Y88919425D01*
X37589300Y48336682D02*
X37660728Y48550968D01*
X37660728Y48550968D02*
X37660728Y48908110D01*
X37660728Y48908110D02*
X37589300Y49050968D01*
X37589300Y49050968D02*
X37517871Y49122396D01*
X37517871Y49122396D02*
X37375014Y49193825D01*
X37375014Y49193825D02*
X37232157Y49193825D01*
X37232157Y49193825D02*
X37089300Y49122396D01*
X37089300Y49122396D02*
X37017871Y49050968D01*
X37017871Y49050968D02*
X36946442Y48908110D01*
X36946442Y48908110D02*
X36875014Y48622396D01*
X36875014Y48622396D02*
X36803585Y48479539D01*
X36803585Y48479539D02*
X36732157Y48408110D01*
X36732157Y48408110D02*
X36589300Y48336682D01*
X36589300Y48336682D02*
X36446442Y48336682D01*
X36446442Y48336682D02*
X36303585Y48408110D01*
X36303585Y48408110D02*
X36232157Y48479539D01*
X36232157Y48479539D02*
X36160728Y48622396D01*
X36160728Y48622396D02*
X36160728Y48979539D01*
X36160728Y48979539D02*
X36232157Y49193825D01*
X37660728Y49836681D02*
X36160728Y49836681D01*
X36160728Y49836681D02*
X36160728Y50193824D01*
X36160728Y50193824D02*
X36232157Y50408110D01*
X36232157Y50408110D02*
X36375014Y50550967D01*
X36375014Y50550967D02*
X36517871Y50622396D01*
X36517871Y50622396D02*
X36803585Y50693824D01*
X36803585Y50693824D02*
X37017871Y50693824D01*
X37017871Y50693824D02*
X37303585Y50622396D01*
X37303585Y50622396D02*
X37446442Y50550967D01*
X37446442Y50550967D02*
X37589300Y50408110D01*
X37589300Y50408110D02*
X37660728Y50193824D01*
X37660728Y50193824D02*
X37660728Y49836681D01*
X37232157Y51265253D02*
X37232157Y51979539D01*
X37660728Y51122396D02*
X36160728Y51622396D01*
X36160728Y51622396D02*
X37660728Y52122396D01*
X74238172Y4996814D02*
X74309600Y5068242D01*
X74309600Y5068242D02*
X74452458Y5139671D01*
X74452458Y5139671D02*
X74809600Y5139671D01*
X74809600Y5139671D02*
X74952458Y5068242D01*
X74952458Y5068242D02*
X75023886Y4996814D01*
X75023886Y4996814D02*
X75095315Y4853957D01*
X75095315Y4853957D02*
X75095315Y4711100D01*
X75095315Y4711100D02*
X75023886Y4496814D01*
X75023886Y4496814D02*
X74166743Y3639671D01*
X74166743Y3639671D02*
X75095315Y3639671D01*
X76023886Y5139671D02*
X76166743Y5139671D01*
X76166743Y5139671D02*
X76309600Y5068242D01*
X76309600Y5068242D02*
X76381029Y4996814D01*
X76381029Y4996814D02*
X76452457Y4853957D01*
X76452457Y4853957D02*
X76523886Y4568242D01*
X76523886Y4568242D02*
X76523886Y4211100D01*
X76523886Y4211100D02*
X76452457Y3925385D01*
X76452457Y3925385D02*
X76381029Y3782528D01*
X76381029Y3782528D02*
X76309600Y3711100D01*
X76309600Y3711100D02*
X76166743Y3639671D01*
X76166743Y3639671D02*
X76023886Y3639671D01*
X76023886Y3639671D02*
X75881029Y3711100D01*
X75881029Y3711100D02*
X75809600Y3782528D01*
X75809600Y3782528D02*
X75738171Y3925385D01*
X75738171Y3925385D02*
X75666743Y4211100D01*
X75666743Y4211100D02*
X75666743Y4568242D01*
X75666743Y4568242D02*
X75738171Y4853957D01*
X75738171Y4853957D02*
X75809600Y4996814D01*
X75809600Y4996814D02*
X75881029Y5068242D01*
X75881029Y5068242D02*
X76023886Y5139671D01*
X77952457Y3639671D02*
X77095314Y3639671D01*
X77523885Y3639671D02*
X77523885Y5139671D01*
X77523885Y5139671D02*
X77381028Y4925385D01*
X77381028Y4925385D02*
X77238171Y4782528D01*
X77238171Y4782528D02*
X77095314Y4711100D01*
X79238171Y5139671D02*
X78952456Y5139671D01*
X78952456Y5139671D02*
X78809599Y5068242D01*
X78809599Y5068242D02*
X78738171Y4996814D01*
X78738171Y4996814D02*
X78595313Y4782528D01*
X78595313Y4782528D02*
X78523885Y4496814D01*
X78523885Y4496814D02*
X78523885Y3925385D01*
X78523885Y3925385D02*
X78595313Y3782528D01*
X78595313Y3782528D02*
X78666742Y3711100D01*
X78666742Y3711100D02*
X78809599Y3639671D01*
X78809599Y3639671D02*
X79095313Y3639671D01*
X79095313Y3639671D02*
X79238171Y3711100D01*
X79238171Y3711100D02*
X79309599Y3782528D01*
X79309599Y3782528D02*
X79381028Y3925385D01*
X79381028Y3925385D02*
X79381028Y4282528D01*
X79381028Y4282528D02*
X79309599Y4425385D01*
X79309599Y4425385D02*
X79238171Y4496814D01*
X79238171Y4496814D02*
X79095313Y4568242D01*
X79095313Y4568242D02*
X78809599Y4568242D01*
X78809599Y4568242D02*
X78666742Y4496814D01*
X78666742Y4496814D02*
X78595313Y4425385D01*
X78595313Y4425385D02*
X78523885Y4282528D01*
X48344728Y48387482D02*
X48344728Y49458910D01*
X47701871Y48816053D02*
X49630442Y48387482D01*
X48987585Y49316053D02*
X48987585Y48244625D01*
X49630442Y48887482D02*
X47701871Y49316053D01*
X47844728Y50244625D02*
X47844728Y50530339D01*
X47844728Y50530339D02*
X47916157Y50673196D01*
X47916157Y50673196D02*
X48059014Y50816053D01*
X48059014Y50816053D02*
X48344728Y50887482D01*
X48344728Y50887482D02*
X48844728Y50887482D01*
X48844728Y50887482D02*
X49130442Y50816053D01*
X49130442Y50816053D02*
X49273300Y50673196D01*
X49273300Y50673196D02*
X49344728Y50530339D01*
X49344728Y50530339D02*
X49344728Y50244625D01*
X49344728Y50244625D02*
X49273300Y50101768D01*
X49273300Y50101768D02*
X49130442Y49958910D01*
X49130442Y49958910D02*
X48844728Y49887482D01*
X48844728Y49887482D02*
X48344728Y49887482D01*
X48344728Y49887482D02*
X48059014Y49958910D01*
X48059014Y49958910D02*
X47916157Y50101768D01*
X47916157Y50101768D02*
X47844728Y50244625D01*
X48559014Y51530339D02*
X48559014Y52030339D01*
X49344728Y52244625D02*
X49344728Y51530339D01*
X49344728Y51530339D02*
X47844728Y51530339D01*
X47844728Y51530339D02*
X47844728Y52244625D01*
X74059600Y7832071D02*
X74059600Y6760642D01*
X74059600Y6760642D02*
X73988171Y6546357D01*
X73988171Y6546357D02*
X73845314Y6403500D01*
X73845314Y6403500D02*
X73631028Y6332071D01*
X73631028Y6332071D02*
X73488171Y6332071D01*
X74702457Y6760642D02*
X75416743Y6760642D01*
X74559600Y6332071D02*
X75059600Y7832071D01*
X75059600Y7832071D02*
X75559600Y6332071D01*
X76916742Y6474928D02*
X76845314Y6403500D01*
X76845314Y6403500D02*
X76631028Y6332071D01*
X76631028Y6332071D02*
X76488171Y6332071D01*
X76488171Y6332071D02*
X76273885Y6403500D01*
X76273885Y6403500D02*
X76131028Y6546357D01*
X76131028Y6546357D02*
X76059599Y6689214D01*
X76059599Y6689214D02*
X75988171Y6974928D01*
X75988171Y6974928D02*
X75988171Y7189214D01*
X75988171Y7189214D02*
X76059599Y7474928D01*
X76059599Y7474928D02*
X76131028Y7617785D01*
X76131028Y7617785D02*
X76273885Y7760642D01*
X76273885Y7760642D02*
X76488171Y7832071D01*
X76488171Y7832071D02*
X76631028Y7832071D01*
X76631028Y7832071D02*
X76845314Y7760642D01*
X76845314Y7760642D02*
X76916742Y7689214D01*
X77559599Y6332071D02*
X77559599Y7832071D01*
X77559599Y7117785D02*
X78416742Y7117785D01*
X78416742Y6332071D02*
X78416742Y7832071D01*
X79416743Y7832071D02*
X79702457Y7832071D01*
X79702457Y7832071D02*
X79845314Y7760642D01*
X79845314Y7760642D02*
X79988171Y7617785D01*
X79988171Y7617785D02*
X80059600Y7332071D01*
X80059600Y7332071D02*
X80059600Y6832071D01*
X80059600Y6832071D02*
X79988171Y6546357D01*
X79988171Y6546357D02*
X79845314Y6403500D01*
X79845314Y6403500D02*
X79702457Y6332071D01*
X79702457Y6332071D02*
X79416743Y6332071D01*
X79416743Y6332071D02*
X79273886Y6403500D01*
X79273886Y6403500D02*
X79131028Y6546357D01*
X79131028Y6546357D02*
X79059600Y6832071D01*
X79059600Y6832071D02*
X79059600Y7332071D01*
X79059600Y7332071D02*
X79131028Y7617785D01*
X79131028Y7617785D02*
X79273886Y7760642D01*
X79273886Y7760642D02*
X79416743Y7832071D01*
X39337128Y62322289D02*
X39337128Y61608003D01*
X39337128Y61608003D02*
X37837128Y61608003D01*
X38551414Y62822289D02*
X38551414Y63322289D01*
X39337128Y63536575D02*
X39337128Y62822289D01*
X39337128Y62822289D02*
X37837128Y62822289D01*
X37837128Y62822289D02*
X37837128Y63536575D01*
X39337128Y64179432D02*
X37837128Y64179432D01*
X37837128Y64179432D02*
X37837128Y64536575D01*
X37837128Y64536575D02*
X37908557Y64750861D01*
X37908557Y64750861D02*
X38051414Y64893718D01*
X38051414Y64893718D02*
X38194271Y64965147D01*
X38194271Y64965147D02*
X38479985Y65036575D01*
X38479985Y65036575D02*
X38694271Y65036575D01*
X38694271Y65036575D02*
X38979985Y64965147D01*
X38979985Y64965147D02*
X39122842Y64893718D01*
X39122842Y64893718D02*
X39265700Y64750861D01*
X39265700Y64750861D02*
X39337128Y64536575D01*
X39337128Y64536575D02*
X39337128Y64179432D01*
X37837128Y65965147D02*
X37837128Y66108004D01*
X37837128Y66108004D02*
X37908557Y66250861D01*
X37908557Y66250861D02*
X37979985Y66322290D01*
X37979985Y66322290D02*
X38122842Y66393718D01*
X38122842Y66393718D02*
X38408557Y66465147D01*
X38408557Y66465147D02*
X38765700Y66465147D01*
X38765700Y66465147D02*
X39051414Y66393718D01*
X39051414Y66393718D02*
X39194271Y66322290D01*
X39194271Y66322290D02*
X39265700Y66250861D01*
X39265700Y66250861D02*
X39337128Y66108004D01*
X39337128Y66108004D02*
X39337128Y65965147D01*
X39337128Y65965147D02*
X39265700Y65822290D01*
X39265700Y65822290D02*
X39194271Y65750861D01*
X39194271Y65750861D02*
X39051414Y65679432D01*
X39051414Y65679432D02*
X38765700Y65608004D01*
X38765700Y65608004D02*
X38408557Y65608004D01*
X38408557Y65608004D02*
X38122842Y65679432D01*
X38122842Y65679432D02*
X37979985Y65750861D01*
X37979985Y65750861D02*
X37908557Y65822290D01*
X37908557Y65822290D02*
X37837128Y65965147D01*
X39337128Y67893718D02*
X39337128Y67036575D01*
X39337128Y67465146D02*
X37837128Y67465146D01*
X37837128Y67465146D02*
X38051414Y67322289D01*
X38051414Y67322289D02*
X38194271Y67179432D01*
X38194271Y67179432D02*
X38265700Y67036575D01*
X53842214Y88082910D02*
X53842214Y88582910D01*
X54627928Y88797196D02*
X54627928Y88082910D01*
X54627928Y88082910D02*
X53127928Y88082910D01*
X53127928Y88082910D02*
X53127928Y88797196D01*
X38602214Y88582910D02*
X38602214Y88082910D01*
X39387928Y88082910D02*
X37887928Y88082910D01*
X37887928Y88082910D02*
X37887928Y88797196D01*
X46957128Y88082910D02*
X45457128Y88082910D01*
X45457128Y88082910D02*
X45457128Y88440053D01*
X45457128Y88440053D02*
X45528557Y88654339D01*
X45528557Y88654339D02*
X45671414Y88797196D01*
X45671414Y88797196D02*
X45814271Y88868625D01*
X45814271Y88868625D02*
X46099985Y88940053D01*
X46099985Y88940053D02*
X46314271Y88940053D01*
X46314271Y88940053D02*
X46599985Y88868625D01*
X46599985Y88868625D02*
X46742842Y88797196D01*
X46742842Y88797196D02*
X46885700Y88654339D01*
X46885700Y88654339D02*
X46957128Y88440053D01*
X46957128Y88440053D02*
X46957128Y88082910D01*
X46957128Y89582910D02*
X45457128Y89582910D01*
X45457128Y89582910D02*
X45457128Y90154339D01*
X45457128Y90154339D02*
X45528557Y90297196D01*
X45528557Y90297196D02*
X45599985Y90368625D01*
X45599985Y90368625D02*
X45742842Y90440053D01*
X45742842Y90440053D02*
X45957128Y90440053D01*
X45957128Y90440053D02*
X46099985Y90368625D01*
X46099985Y90368625D02*
X46171414Y90297196D01*
X46171414Y90297196D02*
X46242842Y90154339D01*
X46242842Y90154339D02*
X46242842Y89582910D01*
X42561715Y9813271D02*
X43061715Y8313271D01*
X43061715Y8313271D02*
X43561715Y9813271D01*
X44061714Y8313271D02*
X44061714Y9813271D01*
X44061714Y9813271D02*
X44418857Y9813271D01*
X44418857Y9813271D02*
X44633143Y9741842D01*
X44633143Y9741842D02*
X44776000Y9598985D01*
X44776000Y9598985D02*
X44847429Y9456128D01*
X44847429Y9456128D02*
X44918857Y9170414D01*
X44918857Y9170414D02*
X44918857Y8956128D01*
X44918857Y8956128D02*
X44847429Y8670414D01*
X44847429Y8670414D02*
X44776000Y8527557D01*
X44776000Y8527557D02*
X44633143Y8384700D01*
X44633143Y8384700D02*
X44418857Y8313271D01*
X44418857Y8313271D02*
X44061714Y8313271D01*
X45561714Y8313271D02*
X45561714Y9813271D01*
X45561714Y9813271D02*
X45918857Y9813271D01*
X45918857Y9813271D02*
X46133143Y9741842D01*
X46133143Y9741842D02*
X46276000Y9598985D01*
X46276000Y9598985D02*
X46347429Y9456128D01*
X46347429Y9456128D02*
X46418857Y9170414D01*
X46418857Y9170414D02*
X46418857Y8956128D01*
X46418857Y8956128D02*
X46347429Y8670414D01*
X46347429Y8670414D02*
X46276000Y8527557D01*
X46276000Y8527557D02*
X46133143Y8384700D01*
X46133143Y8384700D02*
X45918857Y8313271D01*
X45918857Y8313271D02*
X45561714Y8313271D01*
X48204571Y8313271D02*
X48204571Y9813271D01*
X48204571Y9813271D02*
X48704571Y8741842D01*
X48704571Y8741842D02*
X49204571Y9813271D01*
X49204571Y9813271D02*
X49204571Y8313271D01*
X49847429Y8741842D02*
X50561715Y8741842D01*
X49704572Y8313271D02*
X50204572Y9813271D01*
X50204572Y9813271D02*
X50704572Y8313271D01*
X51061714Y9813271D02*
X52061714Y8313271D01*
X52061714Y9813271D02*
X51061714Y8313271D01*
X54490285Y9813271D02*
X53775999Y9813271D01*
X53775999Y9813271D02*
X53704571Y9098985D01*
X53704571Y9098985D02*
X53775999Y9170414D01*
X53775999Y9170414D02*
X53918857Y9241842D01*
X53918857Y9241842D02*
X54275999Y9241842D01*
X54275999Y9241842D02*
X54418857Y9170414D01*
X54418857Y9170414D02*
X54490285Y9098985D01*
X54490285Y9098985D02*
X54561714Y8956128D01*
X54561714Y8956128D02*
X54561714Y8598985D01*
X54561714Y8598985D02*
X54490285Y8456128D01*
X54490285Y8456128D02*
X54418857Y8384700D01*
X54418857Y8384700D02*
X54275999Y8313271D01*
X54275999Y8313271D02*
X53918857Y8313271D01*
X53918857Y8313271D02*
X53775999Y8384700D01*
X53775999Y8384700D02*
X53704571Y8456128D01*
X54990285Y9813271D02*
X55490285Y8313271D01*
X55490285Y8313271D02*
X55990285Y9813271D01*
X49497128Y62322289D02*
X49497128Y61608003D01*
X49497128Y61608003D02*
X47997128Y61608003D01*
X48711414Y62822289D02*
X48711414Y63322289D01*
X49497128Y63536575D02*
X49497128Y62822289D01*
X49497128Y62822289D02*
X47997128Y62822289D01*
X47997128Y62822289D02*
X47997128Y63536575D01*
X49497128Y64179432D02*
X47997128Y64179432D01*
X47997128Y64179432D02*
X47997128Y64536575D01*
X47997128Y64536575D02*
X48068557Y64750861D01*
X48068557Y64750861D02*
X48211414Y64893718D01*
X48211414Y64893718D02*
X48354271Y64965147D01*
X48354271Y64965147D02*
X48639985Y65036575D01*
X48639985Y65036575D02*
X48854271Y65036575D01*
X48854271Y65036575D02*
X49139985Y64965147D01*
X49139985Y64965147D02*
X49282842Y64893718D01*
X49282842Y64893718D02*
X49425700Y64750861D01*
X49425700Y64750861D02*
X49497128Y64536575D01*
X49497128Y64536575D02*
X49497128Y64179432D01*
X47997128Y65965147D02*
X47997128Y66108004D01*
X47997128Y66108004D02*
X48068557Y66250861D01*
X48068557Y66250861D02*
X48139985Y66322290D01*
X48139985Y66322290D02*
X48282842Y66393718D01*
X48282842Y66393718D02*
X48568557Y66465147D01*
X48568557Y66465147D02*
X48925700Y66465147D01*
X48925700Y66465147D02*
X49211414Y66393718D01*
X49211414Y66393718D02*
X49354271Y66322290D01*
X49354271Y66322290D02*
X49425700Y66250861D01*
X49425700Y66250861D02*
X49497128Y66108004D01*
X49497128Y66108004D02*
X49497128Y65965147D01*
X49497128Y65965147D02*
X49425700Y65822290D01*
X49425700Y65822290D02*
X49354271Y65750861D01*
X49354271Y65750861D02*
X49211414Y65679432D01*
X49211414Y65679432D02*
X48925700Y65608004D01*
X48925700Y65608004D02*
X48568557Y65608004D01*
X48568557Y65608004D02*
X48282842Y65679432D01*
X48282842Y65679432D02*
X48139985Y65750861D01*
X48139985Y65750861D02*
X48068557Y65822290D01*
X48068557Y65822290D02*
X47997128Y65965147D01*
X47997128Y67822289D02*
X47997128Y67108003D01*
X47997128Y67108003D02*
X48711414Y67036575D01*
X48711414Y67036575D02*
X48639985Y67108003D01*
X48639985Y67108003D02*
X48568557Y67250861D01*
X48568557Y67250861D02*
X48568557Y67608003D01*
X48568557Y67608003D02*
X48639985Y67750861D01*
X48639985Y67750861D02*
X48711414Y67822289D01*
X48711414Y67822289D02*
X48854271Y67893718D01*
X48854271Y67893718D02*
X49211414Y67893718D01*
X49211414Y67893718D02*
X49354271Y67822289D01*
X49354271Y67822289D02*
X49425700Y67750861D01*
X49425700Y67750861D02*
X49497128Y67608003D01*
X49497128Y67608003D02*
X49497128Y67250861D01*
X49497128Y67250861D02*
X49425700Y67108003D01*
X49425700Y67108003D02*
X49354271Y67036575D01*
X54577128Y62322289D02*
X54577128Y61608003D01*
X54577128Y61608003D02*
X53077128Y61608003D01*
X53791414Y62822289D02*
X53791414Y63322289D01*
X54577128Y63536575D02*
X54577128Y62822289D01*
X54577128Y62822289D02*
X53077128Y62822289D01*
X53077128Y62822289D02*
X53077128Y63536575D01*
X54577128Y64179432D02*
X53077128Y64179432D01*
X53077128Y64179432D02*
X53077128Y64536575D01*
X53077128Y64536575D02*
X53148557Y64750861D01*
X53148557Y64750861D02*
X53291414Y64893718D01*
X53291414Y64893718D02*
X53434271Y64965147D01*
X53434271Y64965147D02*
X53719985Y65036575D01*
X53719985Y65036575D02*
X53934271Y65036575D01*
X53934271Y65036575D02*
X54219985Y64965147D01*
X54219985Y64965147D02*
X54362842Y64893718D01*
X54362842Y64893718D02*
X54505700Y64750861D01*
X54505700Y64750861D02*
X54577128Y64536575D01*
X54577128Y64536575D02*
X54577128Y64179432D01*
X53077128Y65965147D02*
X53077128Y66108004D01*
X53077128Y66108004D02*
X53148557Y66250861D01*
X53148557Y66250861D02*
X53219985Y66322290D01*
X53219985Y66322290D02*
X53362842Y66393718D01*
X53362842Y66393718D02*
X53648557Y66465147D01*
X53648557Y66465147D02*
X54005700Y66465147D01*
X54005700Y66465147D02*
X54291414Y66393718D01*
X54291414Y66393718D02*
X54434271Y66322290D01*
X54434271Y66322290D02*
X54505700Y66250861D01*
X54505700Y66250861D02*
X54577128Y66108004D01*
X54577128Y66108004D02*
X54577128Y65965147D01*
X54577128Y65965147D02*
X54505700Y65822290D01*
X54505700Y65822290D02*
X54434271Y65750861D01*
X54434271Y65750861D02*
X54291414Y65679432D01*
X54291414Y65679432D02*
X54005700Y65608004D01*
X54005700Y65608004D02*
X53648557Y65608004D01*
X53648557Y65608004D02*
X53362842Y65679432D01*
X53362842Y65679432D02*
X53219985Y65750861D01*
X53219985Y65750861D02*
X53148557Y65822290D01*
X53148557Y65822290D02*
X53077128Y65965147D01*
X53077128Y66965146D02*
X53077128Y67965146D01*
X53077128Y67965146D02*
X54577128Y67322289D01*
X35419357Y88868625D02*
X35347928Y88725768D01*
X35347928Y88725768D02*
X35347928Y88511482D01*
X35347928Y88511482D02*
X35419357Y88297196D01*
X35419357Y88297196D02*
X35562214Y88154339D01*
X35562214Y88154339D02*
X35705071Y88082910D01*
X35705071Y88082910D02*
X35990785Y88011482D01*
X35990785Y88011482D02*
X36205071Y88011482D01*
X36205071Y88011482D02*
X36490785Y88082910D01*
X36490785Y88082910D02*
X36633642Y88154339D01*
X36633642Y88154339D02*
X36776500Y88297196D01*
X36776500Y88297196D02*
X36847928Y88511482D01*
X36847928Y88511482D02*
X36847928Y88654339D01*
X36847928Y88654339D02*
X36776500Y88868625D01*
X36776500Y88868625D02*
X36705071Y88940053D01*
X36705071Y88940053D02*
X36205071Y88940053D01*
X36205071Y88940053D02*
X36205071Y88654339D01*
X40651757Y3835543D02*
X40580328Y3692686D01*
X40580328Y3692686D02*
X40580328Y3478400D01*
X40580328Y3478400D02*
X40651757Y3264114D01*
X40651757Y3264114D02*
X40794614Y3121257D01*
X40794614Y3121257D02*
X40937471Y3049828D01*
X40937471Y3049828D02*
X41223185Y2978400D01*
X41223185Y2978400D02*
X41437471Y2978400D01*
X41437471Y2978400D02*
X41723185Y3049828D01*
X41723185Y3049828D02*
X41866042Y3121257D01*
X41866042Y3121257D02*
X42008900Y3264114D01*
X42008900Y3264114D02*
X42080328Y3478400D01*
X42080328Y3478400D02*
X42080328Y3621257D01*
X42080328Y3621257D02*
X42008900Y3835543D01*
X42008900Y3835543D02*
X41937471Y3906971D01*
X41937471Y3906971D02*
X41437471Y3906971D01*
X41437471Y3906971D02*
X41437471Y3621257D01*
X42080328Y4549828D02*
X40580328Y4549828D01*
X40580328Y4549828D02*
X42080328Y5406971D01*
X42080328Y5406971D02*
X40580328Y5406971D01*
X42080328Y6121257D02*
X40580328Y6121257D01*
X40580328Y6121257D02*
X40580328Y6478400D01*
X40580328Y6478400D02*
X40651757Y6692686D01*
X40651757Y6692686D02*
X40794614Y6835543D01*
X40794614Y6835543D02*
X40937471Y6906972D01*
X40937471Y6906972D02*
X41223185Y6978400D01*
X41223185Y6978400D02*
X41437471Y6978400D01*
X41437471Y6978400D02*
X41723185Y6906972D01*
X41723185Y6906972D02*
X41866042Y6835543D01*
X41866042Y6835543D02*
X42008900Y6692686D01*
X42008900Y6692686D02*
X42080328Y6478400D01*
X42080328Y6478400D02*
X42080328Y6121257D01*
X41877128Y62322289D02*
X41877128Y61608003D01*
X41877128Y61608003D02*
X40377128Y61608003D01*
X41091414Y62822289D02*
X41091414Y63322289D01*
X41877128Y63536575D02*
X41877128Y62822289D01*
X41877128Y62822289D02*
X40377128Y62822289D01*
X40377128Y62822289D02*
X40377128Y63536575D01*
X41877128Y64179432D02*
X40377128Y64179432D01*
X40377128Y64179432D02*
X40377128Y64536575D01*
X40377128Y64536575D02*
X40448557Y64750861D01*
X40448557Y64750861D02*
X40591414Y64893718D01*
X40591414Y64893718D02*
X40734271Y64965147D01*
X40734271Y64965147D02*
X41019985Y65036575D01*
X41019985Y65036575D02*
X41234271Y65036575D01*
X41234271Y65036575D02*
X41519985Y64965147D01*
X41519985Y64965147D02*
X41662842Y64893718D01*
X41662842Y64893718D02*
X41805700Y64750861D01*
X41805700Y64750861D02*
X41877128Y64536575D01*
X41877128Y64536575D02*
X41877128Y64179432D01*
X40377128Y65965147D02*
X40377128Y66108004D01*
X40377128Y66108004D02*
X40448557Y66250861D01*
X40448557Y66250861D02*
X40519985Y66322290D01*
X40519985Y66322290D02*
X40662842Y66393718D01*
X40662842Y66393718D02*
X40948557Y66465147D01*
X40948557Y66465147D02*
X41305700Y66465147D01*
X41305700Y66465147D02*
X41591414Y66393718D01*
X41591414Y66393718D02*
X41734271Y66322290D01*
X41734271Y66322290D02*
X41805700Y66250861D01*
X41805700Y66250861D02*
X41877128Y66108004D01*
X41877128Y66108004D02*
X41877128Y65965147D01*
X41877128Y65965147D02*
X41805700Y65822290D01*
X41805700Y65822290D02*
X41734271Y65750861D01*
X41734271Y65750861D02*
X41591414Y65679432D01*
X41591414Y65679432D02*
X41305700Y65608004D01*
X41305700Y65608004D02*
X40948557Y65608004D01*
X40948557Y65608004D02*
X40662842Y65679432D01*
X40662842Y65679432D02*
X40519985Y65750861D01*
X40519985Y65750861D02*
X40448557Y65822290D01*
X40448557Y65822290D02*
X40377128Y65965147D01*
X40519985Y67036575D02*
X40448557Y67108003D01*
X40448557Y67108003D02*
X40377128Y67250861D01*
X40377128Y67250861D02*
X40377128Y67608003D01*
X40377128Y67608003D02*
X40448557Y67750861D01*
X40448557Y67750861D02*
X40519985Y67822289D01*
X40519985Y67822289D02*
X40662842Y67893718D01*
X40662842Y67893718D02*
X40805700Y67893718D01*
X40805700Y67893718D02*
X41019985Y67822289D01*
X41019985Y67822289D02*
X41877128Y66965146D01*
X41877128Y66965146D02*
X41877128Y67893718D01*
X38649928Y48193825D02*
X40149928Y48693825D01*
X40149928Y48693825D02*
X38649928Y49193825D01*
X40149928Y49693824D02*
X38649928Y49693824D01*
X38649928Y49693824D02*
X38649928Y50050967D01*
X38649928Y50050967D02*
X38721357Y50265253D01*
X38721357Y50265253D02*
X38864214Y50408110D01*
X38864214Y50408110D02*
X39007071Y50479539D01*
X39007071Y50479539D02*
X39292785Y50550967D01*
X39292785Y50550967D02*
X39507071Y50550967D01*
X39507071Y50550967D02*
X39792785Y50479539D01*
X39792785Y50479539D02*
X39935642Y50408110D01*
X39935642Y50408110D02*
X40078500Y50265253D01*
X40078500Y50265253D02*
X40149928Y50050967D01*
X40149928Y50050967D02*
X40149928Y49693824D01*
X40149928Y51193824D02*
X38649928Y51193824D01*
X38649928Y51193824D02*
X38649928Y51550967D01*
X38649928Y51550967D02*
X38721357Y51765253D01*
X38721357Y51765253D02*
X38864214Y51908110D01*
X38864214Y51908110D02*
X39007071Y51979539D01*
X39007071Y51979539D02*
X39292785Y52050967D01*
X39292785Y52050967D02*
X39507071Y52050967D01*
X39507071Y52050967D02*
X39792785Y51979539D01*
X39792785Y51979539D02*
X39935642Y51908110D01*
X39935642Y51908110D02*
X40078500Y51765253D01*
X40078500Y51765253D02*
X40149928Y51550967D01*
X40149928Y51550967D02*
X40149928Y51193824D01*
X58318343Y3639671D02*
X57604057Y3639671D01*
X57604057Y3639671D02*
X57604057Y5139671D01*
X58818343Y4425385D02*
X59318343Y4425385D01*
X59532629Y3639671D02*
X58818343Y3639671D01*
X58818343Y3639671D02*
X58818343Y5139671D01*
X58818343Y5139671D02*
X59532629Y5139671D01*
X60175486Y3639671D02*
X60175486Y5139671D01*
X60175486Y5139671D02*
X60532629Y5139671D01*
X60532629Y5139671D02*
X60746915Y5068242D01*
X60746915Y5068242D02*
X60889772Y4925385D01*
X60889772Y4925385D02*
X60961201Y4782528D01*
X60961201Y4782528D02*
X61032629Y4496814D01*
X61032629Y4496814D02*
X61032629Y4282528D01*
X61032629Y4282528D02*
X60961201Y3996814D01*
X60961201Y3996814D02*
X60889772Y3853957D01*
X60889772Y3853957D02*
X60746915Y3711100D01*
X60746915Y3711100D02*
X60532629Y3639671D01*
X60532629Y3639671D02*
X60175486Y3639671D01*
X61532629Y5139671D02*
X62532629Y5139671D01*
X62532629Y5139671D02*
X61889772Y3639671D01*
X63032629Y3711100D02*
X63246915Y3639671D01*
X63246915Y3639671D02*
X63604057Y3639671D01*
X63604057Y3639671D02*
X63746915Y3711100D01*
X63746915Y3711100D02*
X63818343Y3782528D01*
X63818343Y3782528D02*
X63889772Y3925385D01*
X63889772Y3925385D02*
X63889772Y4068242D01*
X63889772Y4068242D02*
X63818343Y4211100D01*
X63818343Y4211100D02*
X63746915Y4282528D01*
X63746915Y4282528D02*
X63604057Y4353957D01*
X63604057Y4353957D02*
X63318343Y4425385D01*
X63318343Y4425385D02*
X63175486Y4496814D01*
X63175486Y4496814D02*
X63104057Y4568242D01*
X63104057Y4568242D02*
X63032629Y4711100D01*
X63032629Y4711100D02*
X63032629Y4853957D01*
X63032629Y4853957D02*
X63104057Y4996814D01*
X63104057Y4996814D02*
X63175486Y5068242D01*
X63175486Y5068242D02*
X63318343Y5139671D01*
X63318343Y5139671D02*
X63675486Y5139671D01*
X63675486Y5139671D02*
X63889772Y5068242D01*
X64532628Y4425385D02*
X65032628Y4425385D01*
X65246914Y3639671D02*
X64532628Y3639671D01*
X64532628Y3639671D02*
X64532628Y5139671D01*
X64532628Y5139671D02*
X65246914Y5139671D01*
X66675486Y5068242D02*
X66532629Y5139671D01*
X66532629Y5139671D02*
X66318343Y5139671D01*
X66318343Y5139671D02*
X66104057Y5068242D01*
X66104057Y5068242D02*
X65961200Y4925385D01*
X65961200Y4925385D02*
X65889771Y4782528D01*
X65889771Y4782528D02*
X65818343Y4496814D01*
X65818343Y4496814D02*
X65818343Y4282528D01*
X65818343Y4282528D02*
X65889771Y3996814D01*
X65889771Y3996814D02*
X65961200Y3853957D01*
X65961200Y3853957D02*
X66104057Y3711100D01*
X66104057Y3711100D02*
X66318343Y3639671D01*
X66318343Y3639671D02*
X66461200Y3639671D01*
X66461200Y3639671D02*
X66675486Y3711100D01*
X66675486Y3711100D02*
X66746914Y3782528D01*
X66746914Y3782528D02*
X66746914Y4282528D01*
X66746914Y4282528D02*
X66461200Y4282528D01*
X67675486Y5139671D02*
X67818343Y5139671D01*
X67818343Y5139671D02*
X67961200Y5068242D01*
X67961200Y5068242D02*
X68032629Y4996814D01*
X68032629Y4996814D02*
X68104057Y4853957D01*
X68104057Y4853957D02*
X68175486Y4568242D01*
X68175486Y4568242D02*
X68175486Y4211100D01*
X68175486Y4211100D02*
X68104057Y3925385D01*
X68104057Y3925385D02*
X68032629Y3782528D01*
X68032629Y3782528D02*
X67961200Y3711100D01*
X67961200Y3711100D02*
X67818343Y3639671D01*
X67818343Y3639671D02*
X67675486Y3639671D01*
X67675486Y3639671D02*
X67532629Y3711100D01*
X67532629Y3711100D02*
X67461200Y3782528D01*
X67461200Y3782528D02*
X67389771Y3925385D01*
X67389771Y3925385D02*
X67318343Y4211100D01*
X67318343Y4211100D02*
X67318343Y4568242D01*
X67318343Y4568242D02*
X67389771Y4853957D01*
X67389771Y4853957D02*
X67461200Y4996814D01*
X67461200Y4996814D02*
X67532629Y5068242D01*
X67532629Y5068242D02*
X67675486Y5139671D01*
X69604057Y3639671D02*
X68746914Y3639671D01*
X69175485Y3639671D02*
X69175485Y5139671D01*
X69175485Y5139671D02*
X69032628Y4925385D01*
X69032628Y4925385D02*
X68889771Y4782528D01*
X68889771Y4782528D02*
X68746914Y4711100D01*
X70175485Y4068242D02*
X70889771Y4068242D01*
X70032628Y3639671D02*
X70532628Y5139671D01*
X70532628Y5139671D02*
X71032628Y3639671D01*
X42618500Y48285882D02*
X42689928Y48500168D01*
X42689928Y48500168D02*
X42689928Y48857310D01*
X42689928Y48857310D02*
X42618500Y49000168D01*
X42618500Y49000168D02*
X42547071Y49071596D01*
X42547071Y49071596D02*
X42404214Y49143025D01*
X42404214Y49143025D02*
X42261357Y49143025D01*
X42261357Y49143025D02*
X42118500Y49071596D01*
X42118500Y49071596D02*
X42047071Y49000168D01*
X42047071Y49000168D02*
X41975642Y48857310D01*
X41975642Y48857310D02*
X41904214Y48571596D01*
X41904214Y48571596D02*
X41832785Y48428739D01*
X41832785Y48428739D02*
X41761357Y48357310D01*
X41761357Y48357310D02*
X41618500Y48285882D01*
X41618500Y48285882D02*
X41475642Y48285882D01*
X41475642Y48285882D02*
X41332785Y48357310D01*
X41332785Y48357310D02*
X41261357Y48428739D01*
X41261357Y48428739D02*
X41189928Y48571596D01*
X41189928Y48571596D02*
X41189928Y48928739D01*
X41189928Y48928739D02*
X41261357Y49143025D01*
X42547071Y50643024D02*
X42618500Y50571596D01*
X42618500Y50571596D02*
X42689928Y50357310D01*
X42689928Y50357310D02*
X42689928Y50214453D01*
X42689928Y50214453D02*
X42618500Y50000167D01*
X42618500Y50000167D02*
X42475642Y49857310D01*
X42475642Y49857310D02*
X42332785Y49785881D01*
X42332785Y49785881D02*
X42047071Y49714453D01*
X42047071Y49714453D02*
X41832785Y49714453D01*
X41832785Y49714453D02*
X41547071Y49785881D01*
X41547071Y49785881D02*
X41404214Y49857310D01*
X41404214Y49857310D02*
X41261357Y50000167D01*
X41261357Y50000167D02*
X41189928Y50214453D01*
X41189928Y50214453D02*
X41189928Y50357310D01*
X41189928Y50357310D02*
X41261357Y50571596D01*
X41261357Y50571596D02*
X41332785Y50643024D01*
X42689928Y52000167D02*
X42689928Y51285881D01*
X42689928Y51285881D02*
X41189928Y51285881D01*
X52037128Y62322289D02*
X52037128Y61608003D01*
X52037128Y61608003D02*
X50537128Y61608003D01*
X51251414Y62822289D02*
X51251414Y63322289D01*
X52037128Y63536575D02*
X52037128Y62822289D01*
X52037128Y62822289D02*
X50537128Y62822289D01*
X50537128Y62822289D02*
X50537128Y63536575D01*
X52037128Y64179432D02*
X50537128Y64179432D01*
X50537128Y64179432D02*
X50537128Y64536575D01*
X50537128Y64536575D02*
X50608557Y64750861D01*
X50608557Y64750861D02*
X50751414Y64893718D01*
X50751414Y64893718D02*
X50894271Y64965147D01*
X50894271Y64965147D02*
X51179985Y65036575D01*
X51179985Y65036575D02*
X51394271Y65036575D01*
X51394271Y65036575D02*
X51679985Y64965147D01*
X51679985Y64965147D02*
X51822842Y64893718D01*
X51822842Y64893718D02*
X51965700Y64750861D01*
X51965700Y64750861D02*
X52037128Y64536575D01*
X52037128Y64536575D02*
X52037128Y64179432D01*
X50537128Y65965147D02*
X50537128Y66108004D01*
X50537128Y66108004D02*
X50608557Y66250861D01*
X50608557Y66250861D02*
X50679985Y66322290D01*
X50679985Y66322290D02*
X50822842Y66393718D01*
X50822842Y66393718D02*
X51108557Y66465147D01*
X51108557Y66465147D02*
X51465700Y66465147D01*
X51465700Y66465147D02*
X51751414Y66393718D01*
X51751414Y66393718D02*
X51894271Y66322290D01*
X51894271Y66322290D02*
X51965700Y66250861D01*
X51965700Y66250861D02*
X52037128Y66108004D01*
X52037128Y66108004D02*
X52037128Y65965147D01*
X52037128Y65965147D02*
X51965700Y65822290D01*
X51965700Y65822290D02*
X51894271Y65750861D01*
X51894271Y65750861D02*
X51751414Y65679432D01*
X51751414Y65679432D02*
X51465700Y65608004D01*
X51465700Y65608004D02*
X51108557Y65608004D01*
X51108557Y65608004D02*
X50822842Y65679432D01*
X50822842Y65679432D02*
X50679985Y65750861D01*
X50679985Y65750861D02*
X50608557Y65822290D01*
X50608557Y65822290D02*
X50537128Y65965147D01*
X50537128Y67750861D02*
X50537128Y67465146D01*
X50537128Y67465146D02*
X50608557Y67322289D01*
X50608557Y67322289D02*
X50679985Y67250861D01*
X50679985Y67250861D02*
X50894271Y67108003D01*
X50894271Y67108003D02*
X51179985Y67036575D01*
X51179985Y67036575D02*
X51751414Y67036575D01*
X51751414Y67036575D02*
X51894271Y67108003D01*
X51894271Y67108003D02*
X51965700Y67179432D01*
X51965700Y67179432D02*
X52037128Y67322289D01*
X52037128Y67322289D02*
X52037128Y67608003D01*
X52037128Y67608003D02*
X51965700Y67750861D01*
X51965700Y67750861D02*
X51894271Y67822289D01*
X51894271Y67822289D02*
X51751414Y67893718D01*
X51751414Y67893718D02*
X51394271Y67893718D01*
X51394271Y67893718D02*
X51251414Y67822289D01*
X51251414Y67822289D02*
X51179985Y67750861D01*
X51179985Y67750861D02*
X51108557Y67608003D01*
X51108557Y67608003D02*
X51108557Y67322289D01*
X51108557Y67322289D02*
X51179985Y67179432D01*
X51179985Y67179432D02*
X51251414Y67108003D01*
X51251414Y67108003D02*
X51394271Y67036575D01*
X25157757Y3784743D02*
X25086328Y3641886D01*
X25086328Y3641886D02*
X25086328Y3427600D01*
X25086328Y3427600D02*
X25157757Y3213314D01*
X25157757Y3213314D02*
X25300614Y3070457D01*
X25300614Y3070457D02*
X25443471Y2999028D01*
X25443471Y2999028D02*
X25729185Y2927600D01*
X25729185Y2927600D02*
X25943471Y2927600D01*
X25943471Y2927600D02*
X26229185Y2999028D01*
X26229185Y2999028D02*
X26372042Y3070457D01*
X26372042Y3070457D02*
X26514900Y3213314D01*
X26514900Y3213314D02*
X26586328Y3427600D01*
X26586328Y3427600D02*
X26586328Y3570457D01*
X26586328Y3570457D02*
X26514900Y3784743D01*
X26514900Y3784743D02*
X26443471Y3856171D01*
X26443471Y3856171D02*
X25943471Y3856171D01*
X25943471Y3856171D02*
X25943471Y3570457D01*
X26586328Y4499028D02*
X25086328Y4499028D01*
X25086328Y4499028D02*
X26586328Y5356171D01*
X26586328Y5356171D02*
X25086328Y5356171D01*
X26586328Y6070457D02*
X25086328Y6070457D01*
X25086328Y6070457D02*
X25086328Y6427600D01*
X25086328Y6427600D02*
X25157757Y6641886D01*
X25157757Y6641886D02*
X25300614Y6784743D01*
X25300614Y6784743D02*
X25443471Y6856172D01*
X25443471Y6856172D02*
X25729185Y6927600D01*
X25729185Y6927600D02*
X25943471Y6927600D01*
X25943471Y6927600D02*
X26229185Y6856172D01*
X26229185Y6856172D02*
X26372042Y6784743D01*
X26372042Y6784743D02*
X26514900Y6641886D01*
X26514900Y6641886D02*
X26586328Y6427600D01*
X26586328Y6427600D02*
X26586328Y6070457D01*
X49405071Y88940053D02*
X49476500Y88868625D01*
X49476500Y88868625D02*
X49547928Y88654339D01*
X49547928Y88654339D02*
X49547928Y88511482D01*
X49547928Y88511482D02*
X49476500Y88297196D01*
X49476500Y88297196D02*
X49333642Y88154339D01*
X49333642Y88154339D02*
X49190785Y88082910D01*
X49190785Y88082910D02*
X48905071Y88011482D01*
X48905071Y88011482D02*
X48690785Y88011482D01*
X48690785Y88011482D02*
X48405071Y88082910D01*
X48405071Y88082910D02*
X48262214Y88154339D01*
X48262214Y88154339D02*
X48119357Y88297196D01*
X48119357Y88297196D02*
X48047928Y88511482D01*
X48047928Y88511482D02*
X48047928Y88654339D01*
X48047928Y88654339D02*
X48119357Y88868625D01*
X48119357Y88868625D02*
X48190785Y88940053D01*
X35703715Y54466471D02*
X36203715Y52966471D01*
X36203715Y52966471D02*
X36703715Y54466471D01*
X37203714Y52966471D02*
X37203714Y54466471D01*
X37203714Y54466471D02*
X37560857Y54466471D01*
X37560857Y54466471D02*
X37775143Y54395042D01*
X37775143Y54395042D02*
X37918000Y54252185D01*
X37918000Y54252185D02*
X37989429Y54109328D01*
X37989429Y54109328D02*
X38060857Y53823614D01*
X38060857Y53823614D02*
X38060857Y53609328D01*
X38060857Y53609328D02*
X37989429Y53323614D01*
X37989429Y53323614D02*
X37918000Y53180757D01*
X37918000Y53180757D02*
X37775143Y53037900D01*
X37775143Y53037900D02*
X37560857Y52966471D01*
X37560857Y52966471D02*
X37203714Y52966471D01*
X38703714Y52966471D02*
X38703714Y54466471D01*
X38703714Y54466471D02*
X39060857Y54466471D01*
X39060857Y54466471D02*
X39275143Y54395042D01*
X39275143Y54395042D02*
X39418000Y54252185D01*
X39418000Y54252185D02*
X39489429Y54109328D01*
X39489429Y54109328D02*
X39560857Y53823614D01*
X39560857Y53823614D02*
X39560857Y53609328D01*
X39560857Y53609328D02*
X39489429Y53323614D01*
X39489429Y53323614D02*
X39418000Y53180757D01*
X39418000Y53180757D02*
X39275143Y53037900D01*
X39275143Y53037900D02*
X39060857Y52966471D01*
X39060857Y52966471D02*
X38703714Y52966471D01*
X41346571Y52966471D02*
X41346571Y54466471D01*
X41346571Y54466471D02*
X41846571Y53395042D01*
X41846571Y53395042D02*
X42346571Y54466471D01*
X42346571Y54466471D02*
X42346571Y52966471D01*
X42989429Y53395042D02*
X43703715Y53395042D01*
X42846572Y52966471D02*
X43346572Y54466471D01*
X43346572Y54466471D02*
X43846572Y52966471D01*
X44203714Y54466471D02*
X45203714Y52966471D01*
X45203714Y54466471D02*
X44203714Y52966471D01*
X47632285Y54466471D02*
X46917999Y54466471D01*
X46917999Y54466471D02*
X46846571Y53752185D01*
X46846571Y53752185D02*
X46917999Y53823614D01*
X46917999Y53823614D02*
X47060857Y53895042D01*
X47060857Y53895042D02*
X47417999Y53895042D01*
X47417999Y53895042D02*
X47560857Y53823614D01*
X47560857Y53823614D02*
X47632285Y53752185D01*
X47632285Y53752185D02*
X47703714Y53609328D01*
X47703714Y53609328D02*
X47703714Y53252185D01*
X47703714Y53252185D02*
X47632285Y53109328D01*
X47632285Y53109328D02*
X47560857Y53037900D01*
X47560857Y53037900D02*
X47417999Y52966471D01*
X47417999Y52966471D02*
X47060857Y52966471D01*
X47060857Y52966471D02*
X46917999Y53037900D01*
X46917999Y53037900D02*
X46846571Y53109328D01*
X48132285Y54466471D02*
X48632285Y52966471D01*
X48632285Y52966471D02*
X49132285Y54466471D01*
X46957128Y62322289D02*
X46957128Y61608003D01*
X46957128Y61608003D02*
X45457128Y61608003D01*
X46171414Y62822289D02*
X46171414Y63322289D01*
X46957128Y63536575D02*
X46957128Y62822289D01*
X46957128Y62822289D02*
X45457128Y62822289D01*
X45457128Y62822289D02*
X45457128Y63536575D01*
X46957128Y64179432D02*
X45457128Y64179432D01*
X45457128Y64179432D02*
X45457128Y64536575D01*
X45457128Y64536575D02*
X45528557Y64750861D01*
X45528557Y64750861D02*
X45671414Y64893718D01*
X45671414Y64893718D02*
X45814271Y64965147D01*
X45814271Y64965147D02*
X46099985Y65036575D01*
X46099985Y65036575D02*
X46314271Y65036575D01*
X46314271Y65036575D02*
X46599985Y64965147D01*
X46599985Y64965147D02*
X46742842Y64893718D01*
X46742842Y64893718D02*
X46885700Y64750861D01*
X46885700Y64750861D02*
X46957128Y64536575D01*
X46957128Y64536575D02*
X46957128Y64179432D01*
X45457128Y65965147D02*
X45457128Y66108004D01*
X45457128Y66108004D02*
X45528557Y66250861D01*
X45528557Y66250861D02*
X45599985Y66322290D01*
X45599985Y66322290D02*
X45742842Y66393718D01*
X45742842Y66393718D02*
X46028557Y66465147D01*
X46028557Y66465147D02*
X46385700Y66465147D01*
X46385700Y66465147D02*
X46671414Y66393718D01*
X46671414Y66393718D02*
X46814271Y66322290D01*
X46814271Y66322290D02*
X46885700Y66250861D01*
X46885700Y66250861D02*
X46957128Y66108004D01*
X46957128Y66108004D02*
X46957128Y65965147D01*
X46957128Y65965147D02*
X46885700Y65822290D01*
X46885700Y65822290D02*
X46814271Y65750861D01*
X46814271Y65750861D02*
X46671414Y65679432D01*
X46671414Y65679432D02*
X46385700Y65608004D01*
X46385700Y65608004D02*
X46028557Y65608004D01*
X46028557Y65608004D02*
X45742842Y65679432D01*
X45742842Y65679432D02*
X45599985Y65750861D01*
X45599985Y65750861D02*
X45528557Y65822290D01*
X45528557Y65822290D02*
X45457128Y65965147D01*
X45957128Y67750861D02*
X46957128Y67750861D01*
X45385700Y67393718D02*
X46457128Y67036575D01*
X46457128Y67036575D02*
X46457128Y67965146D01*
X31247300Y93775543D02*
X31247300Y94918401D01*
X31818728Y94346972D02*
X30675871Y94346972D01*
X31818728Y96418401D02*
X31818728Y95561258D01*
X31818728Y95989829D02*
X30318728Y95989829D01*
X30318728Y95989829D02*
X30533014Y95846972D01*
X30533014Y95846972D02*
X30675871Y95704115D01*
X30675871Y95704115D02*
X30747300Y95561258D01*
X30461585Y96989829D02*
X30390157Y97061257D01*
X30390157Y97061257D02*
X30318728Y97204115D01*
X30318728Y97204115D02*
X30318728Y97561257D01*
X30318728Y97561257D02*
X30390157Y97704115D01*
X30390157Y97704115D02*
X30461585Y97775543D01*
X30461585Y97775543D02*
X30604442Y97846972D01*
X30604442Y97846972D02*
X30747300Y97846972D01*
X30747300Y97846972D02*
X30961585Y97775543D01*
X30961585Y97775543D02*
X31818728Y96918400D01*
X31818728Y96918400D02*
X31818728Y97846972D01*
X30318728Y98275543D02*
X31818728Y98775543D01*
X31818728Y98775543D02*
X30318728Y99275543D01*
X13613143Y8833900D02*
X14756001Y8833900D01*
X14184572Y8262471D02*
X14184572Y9405328D01*
X16256001Y8262471D02*
X15398858Y8262471D01*
X15827429Y8262471D02*
X15827429Y9762471D01*
X15827429Y9762471D02*
X15684572Y9548185D01*
X15684572Y9548185D02*
X15541715Y9405328D01*
X15541715Y9405328D02*
X15398858Y9333900D01*
X16827429Y9619614D02*
X16898857Y9691042D01*
X16898857Y9691042D02*
X17041715Y9762471D01*
X17041715Y9762471D02*
X17398857Y9762471D01*
X17398857Y9762471D02*
X17541715Y9691042D01*
X17541715Y9691042D02*
X17613143Y9619614D01*
X17613143Y9619614D02*
X17684572Y9476757D01*
X17684572Y9476757D02*
X17684572Y9333900D01*
X17684572Y9333900D02*
X17613143Y9119614D01*
X17613143Y9119614D02*
X16756000Y8262471D01*
X16756000Y8262471D02*
X17684572Y8262471D01*
X18113143Y9762471D02*
X18613143Y8262471D01*
X18613143Y8262471D02*
X19113143Y9762471D01*
D12*
X12725509Y2098657D02*
X12725509Y1812943D01*
X12725509Y1955800D02*
X12225509Y1955800D01*
X12225509Y1955800D02*
X12296938Y1908181D01*
X12296938Y1908181D02*
X12344557Y1860562D01*
X12344557Y1860562D02*
X12368366Y1812943D01*
X24399857Y99898090D02*
X24114143Y99898090D01*
X24257000Y99898090D02*
X24257000Y100398090D01*
X24257000Y100398090D02*
X24209381Y100326661D01*
X24209381Y100326661D02*
X24161762Y100279042D01*
X24161762Y100279042D02*
X24114143Y100255233D01*
D13*
X44880305Y34546380D02*
X44880305Y35546380D01*
X44880305Y35546380D02*
X45118400Y35546380D01*
X45118400Y35546380D02*
X45261257Y35498761D01*
X45261257Y35498761D02*
X45356495Y35403523D01*
X45356495Y35403523D02*
X45404114Y35308285D01*
X45404114Y35308285D02*
X45451733Y35117809D01*
X45451733Y35117809D02*
X45451733Y34974952D01*
X45451733Y34974952D02*
X45404114Y34784476D01*
X45404114Y34784476D02*
X45356495Y34689238D01*
X45356495Y34689238D02*
X45261257Y34594000D01*
X45261257Y34594000D02*
X45118400Y34546380D01*
X45118400Y34546380D02*
X44880305Y34546380D01*
X45785067Y35546380D02*
X46404114Y35546380D01*
X46404114Y35546380D02*
X46070781Y35165428D01*
X46070781Y35165428D02*
X46213638Y35165428D01*
X46213638Y35165428D02*
X46308876Y35117809D01*
X46308876Y35117809D02*
X46356495Y35070190D01*
X46356495Y35070190D02*
X46404114Y34974952D01*
X46404114Y34974952D02*
X46404114Y34736857D01*
X46404114Y34736857D02*
X46356495Y34641619D01*
X46356495Y34641619D02*
X46308876Y34594000D01*
X46308876Y34594000D02*
X46213638Y34546380D01*
X46213638Y34546380D02*
X45927924Y34546380D01*
X45927924Y34546380D02*
X45832686Y34594000D01*
X45832686Y34594000D02*
X45785067Y34641619D01*
X43967448Y40197833D02*
X44729353Y40197833D01*
X46520148Y40223233D02*
X47282053Y40223233D01*
X46901100Y39842280D02*
X46901100Y40604185D01*
X44931105Y100535580D02*
X44931105Y101535580D01*
X44931105Y101535580D02*
X45169200Y101535580D01*
X45169200Y101535580D02*
X45312057Y101487961D01*
X45312057Y101487961D02*
X45407295Y101392723D01*
X45407295Y101392723D02*
X45454914Y101297485D01*
X45454914Y101297485D02*
X45502533Y101107009D01*
X45502533Y101107009D02*
X45502533Y100964152D01*
X45502533Y100964152D02*
X45454914Y100773676D01*
X45454914Y100773676D02*
X45407295Y100678438D01*
X45407295Y100678438D02*
X45312057Y100583200D01*
X45312057Y100583200D02*
X45169200Y100535580D01*
X45169200Y100535580D02*
X44931105Y100535580D01*
X46359676Y101202247D02*
X46359676Y100535580D01*
X46121581Y101583200D02*
X45883486Y100868914D01*
X45883486Y100868914D02*
X46502533Y100868914D01*
X46520148Y106263233D02*
X47282053Y106263233D01*
X46901100Y105882280D02*
X46901100Y106644185D01*
X43967448Y106237833D02*
X44729353Y106237833D01*
%TO.C,J1*%
X11226800Y2336800D02*
X11226800Y7416800D01*
X21386800Y2336800D02*
X11226800Y2336800D01*
X11226800Y7416800D02*
X21386800Y7416800D01*
X21386800Y7416800D02*
X21386800Y2336800D01*
%TO.C,J5*%
X32308800Y2336800D02*
X32308800Y7416800D01*
X34848800Y2336800D02*
X32308800Y2336800D01*
X32308800Y7416800D02*
X34848800Y7416800D01*
X34848800Y7416800D02*
X34848800Y2336800D01*
%TO.C,J6*%
X35712400Y42418000D02*
X35712400Y47498000D01*
X38252400Y42418000D02*
X35712400Y42418000D01*
X35712400Y47498000D02*
X38252400Y47498000D01*
X38252400Y47498000D02*
X38252400Y42418000D01*
%TO.C,J7*%
X34798000Y2336800D02*
X34798000Y7416800D01*
X37338000Y2336800D02*
X34798000Y2336800D01*
X34798000Y7416800D02*
X37338000Y7416800D01*
X37338000Y7416800D02*
X37338000Y2336800D01*
%TO.C,J8*%
X37338000Y2336800D02*
X37338000Y7416800D01*
X39878000Y2336800D02*
X37338000Y2336800D01*
X37338000Y7416800D02*
X39878000Y7416800D01*
X39878000Y7416800D02*
X39878000Y2336800D01*
%TO.C,J9*%
X27228800Y2336800D02*
X27228800Y7416800D01*
X29768800Y2336800D02*
X27228800Y2336800D01*
X27228800Y7416800D02*
X29768800Y7416800D01*
X29768800Y7416800D02*
X29768800Y2336800D01*
%TO.C,J11*%
X34848800Y70967600D02*
X37388800Y70967600D01*
X34848800Y68427600D02*
X34848800Y70967600D01*
X37388800Y70967600D02*
X37388800Y68427600D01*
X37388800Y68427600D02*
X34848800Y68427600D01*
%TO.C,J12*%
X37388800Y70967600D02*
X39928800Y70967600D01*
X37388800Y68427600D02*
X37388800Y70967600D01*
X39928800Y70967600D02*
X39928800Y68427600D01*
X39928800Y68427600D02*
X37388800Y68427600D01*
%TO.C,J13*%
X39928800Y70967600D02*
X42468800Y70967600D01*
X39928800Y68427600D02*
X39928800Y70967600D01*
X42468800Y70967600D02*
X42468800Y68427600D01*
X42468800Y68427600D02*
X39928800Y68427600D01*
%TO.C,J14*%
X42468800Y70967600D02*
X45008800Y70967600D01*
X42468800Y68427600D02*
X42468800Y70967600D01*
X45008800Y70967600D02*
X45008800Y68427600D01*
X45008800Y68427600D02*
X42468800Y68427600D01*
%TO.C,J15*%
X45008800Y70967600D02*
X47548800Y70967600D01*
X45008800Y68427600D02*
X45008800Y70967600D01*
X47548800Y70967600D02*
X47548800Y68427600D01*
X47548800Y68427600D02*
X45008800Y68427600D01*
%TO.C,J16*%
X47548800Y70967600D02*
X50088800Y70967600D01*
X47548800Y68427600D02*
X47548800Y70967600D01*
X50088800Y70967600D02*
X50088800Y68427600D01*
X50088800Y68427600D02*
X47548800Y68427600D01*
%TO.C,J17*%
X50088800Y70967600D02*
X52628800Y70967600D01*
X50088800Y68427600D02*
X50088800Y70967600D01*
X52628800Y70967600D02*
X52628800Y68427600D01*
X52628800Y68427600D02*
X50088800Y68427600D01*
%TO.C,J18*%
X52628800Y70967600D02*
X55168800Y70967600D01*
X52628800Y68427600D02*
X52628800Y70967600D01*
X55168800Y70967600D02*
X55168800Y68427600D01*
X55168800Y68427600D02*
X52628800Y68427600D01*
%TO.C,J19*%
X34899600Y87426800D02*
X37439600Y87426800D01*
X34899600Y84886800D02*
X34899600Y87426800D01*
X37439600Y87426800D02*
X37439600Y84886800D01*
X37439600Y84886800D02*
X34899600Y84886800D01*
%TO.C,J20*%
X37439600Y87426800D02*
X39979600Y87426800D01*
X37439600Y84886800D02*
X37439600Y87426800D01*
X39979600Y87426800D02*
X39979600Y84886800D01*
X39979600Y84886800D02*
X37439600Y84886800D01*
%TO.C,J21*%
X39979600Y87426800D02*
X42519600Y87426800D01*
X39979600Y84886800D02*
X39979600Y87426800D01*
X42519600Y87426800D02*
X42519600Y84886800D01*
X42519600Y84886800D02*
X39979600Y84886800D01*
%TO.C,J22*%
X47599600Y87426800D02*
X50139600Y87426800D01*
X47599600Y84886800D02*
X47599600Y87426800D01*
X50139600Y87426800D02*
X50139600Y84886800D01*
X50139600Y84886800D02*
X47599600Y84886800D01*
%TO.C,J23*%
X42519600Y87426800D02*
X45059600Y87426800D01*
X42519600Y84886800D02*
X42519600Y87426800D01*
X45059600Y87426800D02*
X45059600Y84886800D01*
X45059600Y84886800D02*
X42519600Y84886800D01*
%TO.C,J24*%
X50139600Y87426800D02*
X52679600Y87426800D01*
X50139600Y84886800D02*
X50139600Y87426800D01*
X52679600Y87426800D02*
X52679600Y84886800D01*
X52679600Y84886800D02*
X50139600Y84886800D01*
%TO.C,J25*%
X45059600Y87426800D02*
X47599600Y87426800D01*
X45059600Y84886800D02*
X45059600Y87426800D01*
X47599600Y87426800D02*
X47599600Y84886800D01*
X47599600Y84886800D02*
X45059600Y84886800D01*
%TO.C,J26*%
X52679600Y87426800D02*
X55219600Y87426800D01*
X52679600Y84886800D02*
X52679600Y87426800D01*
X55219600Y87426800D02*
X55219600Y84886800D01*
X55219600Y84886800D02*
X52679600Y84886800D01*
%TO.C,J27*%
X24638000Y101396800D02*
X29718000Y101396800D01*
X24638000Y91236800D02*
X24638000Y101396800D01*
X29718000Y101396800D02*
X29718000Y91236800D01*
X29718000Y91236800D02*
X24638000Y91236800D01*
%TO.C,J28*%
X38252400Y42418000D02*
X38252400Y47498000D01*
X40792400Y42418000D02*
X38252400Y42418000D01*
X38252400Y47498000D02*
X40792400Y47498000D01*
X40792400Y47498000D02*
X40792400Y42418000D01*
%TO.C,J29*%
X29768800Y2336800D02*
X29768800Y7416800D01*
X32308800Y2336800D02*
X29768800Y2336800D01*
X29768800Y7416800D02*
X32308800Y7416800D01*
X32308800Y7416800D02*
X32308800Y2336800D01*
%TO.C,J30*%
X40792400Y42418000D02*
X40792400Y47498000D01*
X43332400Y42418000D02*
X40792400Y42418000D01*
X40792400Y47498000D02*
X43332400Y47498000D01*
X43332400Y47498000D02*
X43332400Y42418000D01*
%TO.C,J31*%
X43332400Y42418000D02*
X43332400Y47498000D01*
X45872400Y42418000D02*
X43332400Y42418000D01*
X43332400Y47498000D02*
X45872400Y47498000D01*
X45872400Y47498000D02*
X45872400Y42418000D01*
%TO.C,J36*%
X47396400Y42418000D02*
X47396400Y47498000D01*
X49936400Y42418000D02*
X47396400Y42418000D01*
X47396400Y47498000D02*
X49936400Y47498000D01*
X49936400Y47498000D02*
X49936400Y42418000D01*
%TO.C,J37*%
X24028400Y88595200D02*
X26568400Y88595200D01*
X24028400Y86055200D02*
X24028400Y88595200D01*
X26568400Y88595200D02*
X26568400Y86055200D01*
X26568400Y86055200D02*
X24028400Y86055200D01*
%TO.C,J38*%
X24028400Y80975200D02*
X26568400Y80975200D01*
X24028400Y78435200D02*
X24028400Y80975200D01*
X26568400Y80975200D02*
X26568400Y78435200D01*
X26568400Y78435200D02*
X24028400Y78435200D01*
%TO.C,J39*%
X24028400Y86055200D02*
X26568400Y86055200D01*
X24028400Y83515200D02*
X24028400Y86055200D01*
X26568400Y86055200D02*
X26568400Y83515200D01*
X26568400Y83515200D02*
X24028400Y83515200D01*
%TO.C,J40*%
X24028400Y83515200D02*
X26568400Y83515200D01*
X24028400Y80975200D02*
X24028400Y83515200D01*
X26568400Y83515200D02*
X26568400Y80975200D01*
X26568400Y80975200D02*
X24028400Y80975200D01*
%TO.C,J41*%
X24028400Y75895200D02*
X26568400Y75895200D01*
X24028400Y73355200D02*
X24028400Y75895200D01*
X26568400Y75895200D02*
X26568400Y73355200D01*
X26568400Y73355200D02*
X24028400Y73355200D01*
%TO.C,J42*%
X24028400Y78435200D02*
X26568400Y78435200D01*
X24028400Y75895200D02*
X24028400Y78435200D01*
X26568400Y78435200D02*
X26568400Y75895200D01*
X26568400Y75895200D02*
X24028400Y75895200D01*
%TO.C,J43*%
X24028400Y73355200D02*
X26568400Y73355200D01*
X24028400Y70815200D02*
X24028400Y73355200D01*
X26568400Y73355200D02*
X26568400Y70815200D01*
X26568400Y70815200D02*
X24028400Y70815200D01*
%TO.C,J44*%
X24028400Y70815200D02*
X26568400Y70815200D01*
X24028400Y68275200D02*
X24028400Y70815200D01*
X26568400Y70815200D02*
X26568400Y68275200D01*
X26568400Y68275200D02*
X24028400Y68275200D01*
%TO.C,D3*%
X40720000Y39330000D02*
X40720000Y36870000D01*
X40723441Y36856101D02*
G75*
G03*
X40720001Y39330000I4996559J1243899D01*
G01*
X50720000Y38100000D02*
G75*
G03*
X50720000Y38100000I-5000000J0D01*
G01*
%TO.C,D4*%
X40720000Y105370000D02*
X40720000Y102910000D01*
X40723441Y102896101D02*
G75*
G03*
X40720001Y105370000I4996559J1243899D01*
G01*
X50720000Y104140000D02*
G75*
G03*
X50720000Y104140000I-5000000J0D01*
G01*
%TO.C,AFF1*%
X618400Y132676800D02*
X90618400Y132676800D01*
X618400Y10676800D02*
X618400Y132676800D01*
X20618400Y24648700D02*
X60618400Y24648700D01*
X25603200Y71676800D02*
X65620900Y71689500D01*
X30594300Y118717600D02*
X20612100Y24636000D01*
X30618400Y118704900D02*
X70618400Y118704900D01*
X70650100Y118692200D02*
X60617100Y24648700D01*
X90618400Y132676800D02*
X90618400Y10676800D01*
X90618400Y10676800D02*
X618400Y10676800D01*
X85974951Y22273800D02*
G75*
G03*
X85974951Y22273800I-6371351J0D01*
G01*
%TD*%
D14*
%TO.C,J1*%
X12496800Y3606800D03*
X12496800Y6146800D03*
X15036800Y3606800D03*
X15036800Y6146800D03*
X17576800Y3606800D03*
X17576800Y6146800D03*
X20116800Y3606800D03*
X20116800Y6146800D03*
%TD*%
%TO.C,J5*%
X33578800Y3606800D03*
X33578800Y6146800D03*
%TD*%
%TO.C,J6*%
X36982400Y43688000D03*
X36982400Y46228000D03*
%TD*%
%TO.C,J7*%
X36068000Y3606800D03*
X36068000Y6146800D03*
%TD*%
%TO.C,J8*%
X38608000Y3606800D03*
X38608000Y6146800D03*
%TD*%
%TO.C,J9*%
X28498800Y3606800D03*
X28498800Y6146800D03*
%TD*%
%TO.C,J11*%
X36118800Y69697600D03*
%TD*%
%TO.C,J12*%
X38658800Y69697600D03*
%TD*%
%TO.C,J13*%
X41198800Y69697600D03*
%TD*%
%TO.C,J14*%
X43738800Y69697600D03*
%TD*%
%TO.C,J15*%
X46278800Y69697600D03*
%TD*%
%TO.C,J16*%
X48818800Y69697600D03*
%TD*%
%TO.C,J17*%
X51358800Y69697600D03*
%TD*%
%TO.C,J18*%
X53898800Y69697600D03*
%TD*%
%TO.C,J19*%
X36169600Y86156800D03*
%TD*%
%TO.C,J20*%
X38709600Y86156800D03*
%TD*%
%TO.C,J21*%
X41249600Y86156800D03*
%TD*%
%TO.C,J22*%
X48869600Y86156800D03*
%TD*%
%TO.C,J23*%
X43789600Y86156800D03*
%TD*%
%TO.C,J24*%
X51409600Y86156800D03*
%TD*%
%TO.C,J25*%
X46329600Y86156800D03*
%TD*%
%TO.C,J26*%
X53949600Y86156800D03*
%TD*%
%TO.C,J27*%
X25908000Y100126800D03*
X28448000Y100126800D03*
X25908000Y97586800D03*
X28448000Y97586800D03*
X25908000Y95046800D03*
X28448000Y95046800D03*
X25908000Y92506800D03*
X28448000Y92506800D03*
%TD*%
%TO.C,J28*%
X39522400Y43688000D03*
X39522400Y46228000D03*
%TD*%
%TO.C,J29*%
X31038800Y3606800D03*
X31038800Y6146800D03*
%TD*%
%TO.C,J30*%
X42062400Y43688000D03*
X42062400Y46228000D03*
%TD*%
%TO.C,J31*%
X44602400Y43688000D03*
X44602400Y46228000D03*
%TD*%
%TO.C,J36*%
X48666400Y43688000D03*
X48666400Y46228000D03*
%TD*%
%TO.C,J37*%
X25298400Y87325200D03*
%TD*%
%TO.C,J38*%
X25298400Y79705200D03*
%TD*%
%TO.C,J39*%
X25298400Y84785200D03*
%TD*%
%TO.C,J40*%
X25298400Y82245200D03*
%TD*%
%TO.C,J41*%
X25298400Y74625200D03*
%TD*%
%TO.C,J42*%
X25298400Y77165200D03*
%TD*%
%TO.C,J43*%
X25298400Y72085200D03*
%TD*%
%TO.C,J44*%
X25298400Y69545200D03*
%TD*%
D15*
%TO.C,D3*%
X44450000Y38100000D03*
D16*
X46990000Y38100000D03*
%TD*%
D15*
%TO.C,D4*%
X44450000Y104140000D03*
D16*
X46990000Y104140000D03*
%TD*%
D17*
%TO.C,AFF1*%
X35458400Y17576800D03*
X40538400Y17576800D03*
X45618400Y17576800D03*
X50698400Y17576800D03*
X55778400Y17576800D03*
X55778400Y125776800D03*
X50698400Y125776800D03*
X45618400Y125776800D03*
X40538400Y125776800D03*
X35458400Y125776800D03*
%TD*%
D18*
%TO.C,REF\u002A\u002A*%
X43281600Y25857200D03*
%TD*%
%TO.C,REF\u002A\u002A*%
X35458400Y25603200D03*
%TD*%
%TO.C,J2*%
X24638000Y55118000D03*
%TD*%
%TO.C,J3*%
X34391600Y59131200D03*
%TD*%
M02*
