%TF.GenerationSoftware,KiCad,Pcbnew,7.0.7-7.0.7~ubuntu23.04.1*%
%TF.CreationDate,2023-09-17T10:17:03+00:00*%
%TF.ProjectId,LED7SEG01,4c454437-5345-4473-9031-2e6b69636164,rev?*%
%TF.SameCoordinates,Original*%
%TF.FileFunction,Copper,L2,Bot*%
%TF.FilePolarity,Positive*%
%FSLAX46Y46*%
G04 Gerber Fmt 4.6, Leading zero omitted, Abs format (unit mm)*
G04 Created by KiCad (PCBNEW 7.0.7-7.0.7~ubuntu23.04.1) date 2023-09-17 10:17:03*
%MOMM*%
%LPD*%
G01*
G04 APERTURE LIST*
%ADD10C,0.300000*%
%TA.AperFunction,NonConductor*%
%ADD11C,0.300000*%
%TD*%
%TA.AperFunction,ComponentPad*%
%ADD12R,1.524000X1.524000*%
%TD*%
%TA.AperFunction,ComponentPad*%
%ADD13C,6.000000*%
%TD*%
%TA.AperFunction,ComponentPad*%
%ADD14R,1.800000X1.800000*%
%TD*%
%TA.AperFunction,ComponentPad*%
%ADD15C,1.800000*%
%TD*%
%TA.AperFunction,ComponentPad*%
%ADD16C,2.000000*%
%TD*%
%TA.AperFunction,ComponentPad*%
%ADD17C,1.524000*%
%TD*%
%TA.AperFunction,SMDPad,CuDef*%
%ADD18R,1.397000X0.889000*%
%TD*%
%TA.AperFunction,SMDPad,CuDef*%
%ADD19R,2.550160X2.499360*%
%TD*%
%TA.AperFunction,SMDPad,CuDef*%
%ADD20R,2.499360X2.550160*%
%TD*%
%TA.AperFunction,SMDPad,CuDef*%
%ADD21R,1.300480X1.699260*%
%TD*%
%TA.AperFunction,SMDPad,CuDef*%
%ADD22R,2.499360X1.800860*%
%TD*%
%TA.AperFunction,SMDPad,CuDef*%
%ADD23R,0.889000X1.397000*%
%TD*%
%TA.AperFunction,SMDPad,CuDef*%
%ADD24R,0.450000X1.600000*%
%TD*%
%TA.AperFunction,SMDPad,CuDef*%
%ADD25R,2.032000X1.524000*%
%TD*%
%TA.AperFunction,ViaPad*%
%ADD26C,1.400000*%
%TD*%
%TA.AperFunction,Conductor*%
%ADD27C,1.000000*%
%TD*%
%TA.AperFunction,Conductor*%
%ADD28C,0.700000*%
%TD*%
%TA.AperFunction,Conductor*%
%ADD29C,0.800000*%
%TD*%
%TA.AperFunction,Conductor*%
%ADD30C,0.400000*%
%TD*%
%TA.AperFunction,Conductor*%
%ADD31C,0.500000*%
%TD*%
%TA.AperFunction,Conductor*%
%ADD32C,0.300000*%
%TD*%
%TA.AperFunction,Conductor*%
%ADD33C,0.250000*%
%TD*%
G04 APERTURE END LIST*
D10*
D11*
X11055027Y125697614D02*
X10983599Y125769042D01*
X10983599Y125769042D02*
X10840742Y125840471D01*
X10840742Y125840471D02*
X10483599Y125840471D01*
X10483599Y125840471D02*
X10340742Y125769042D01*
X10340742Y125769042D02*
X10269313Y125697614D01*
X10269313Y125697614D02*
X10197884Y125554757D01*
X10197884Y125554757D02*
X10197884Y125411900D01*
X10197884Y125411900D02*
X10269313Y125197614D01*
X10269313Y125197614D02*
X11126456Y124340471D01*
X11126456Y124340471D02*
X10197884Y124340471D01*
X9269313Y125840471D02*
X9126456Y125840471D01*
X9126456Y125840471D02*
X8983599Y125769042D01*
X8983599Y125769042D02*
X8912171Y125697614D01*
X8912171Y125697614D02*
X8840742Y125554757D01*
X8840742Y125554757D02*
X8769313Y125269042D01*
X8769313Y125269042D02*
X8769313Y124911900D01*
X8769313Y124911900D02*
X8840742Y124626185D01*
X8840742Y124626185D02*
X8912171Y124483328D01*
X8912171Y124483328D02*
X8983599Y124411900D01*
X8983599Y124411900D02*
X9126456Y124340471D01*
X9126456Y124340471D02*
X9269313Y124340471D01*
X9269313Y124340471D02*
X9412171Y124411900D01*
X9412171Y124411900D02*
X9483599Y124483328D01*
X9483599Y124483328D02*
X9555028Y124626185D01*
X9555028Y124626185D02*
X9626456Y124911900D01*
X9626456Y124911900D02*
X9626456Y125269042D01*
X9626456Y125269042D02*
X9555028Y125554757D01*
X9555028Y125554757D02*
X9483599Y125697614D01*
X9483599Y125697614D02*
X9412171Y125769042D01*
X9412171Y125769042D02*
X9269313Y125840471D01*
X7340742Y124340471D02*
X8197885Y124340471D01*
X7769314Y124340471D02*
X7769314Y125840471D01*
X7769314Y125840471D02*
X7912171Y125626185D01*
X7912171Y125626185D02*
X8055028Y125483328D01*
X8055028Y125483328D02*
X8197885Y125411900D01*
X6055029Y125840471D02*
X6340743Y125840471D01*
X6340743Y125840471D02*
X6483600Y125769042D01*
X6483600Y125769042D02*
X6555029Y125697614D01*
X6555029Y125697614D02*
X6697886Y125483328D01*
X6697886Y125483328D02*
X6769314Y125197614D01*
X6769314Y125197614D02*
X6769314Y124626185D01*
X6769314Y124626185D02*
X6697886Y124483328D01*
X6697886Y124483328D02*
X6626457Y124411900D01*
X6626457Y124411900D02*
X6483600Y124340471D01*
X6483600Y124340471D02*
X6197886Y124340471D01*
X6197886Y124340471D02*
X6055029Y124411900D01*
X6055029Y124411900D02*
X5983600Y124483328D01*
X5983600Y124483328D02*
X5912171Y124626185D01*
X5912171Y124626185D02*
X5912171Y124983328D01*
X5912171Y124983328D02*
X5983600Y125126185D01*
X5983600Y125126185D02*
X6055029Y125197614D01*
X6055029Y125197614D02*
X6197886Y125269042D01*
X6197886Y125269042D02*
X6483600Y125269042D01*
X6483600Y125269042D02*
X6626457Y125197614D01*
X6626457Y125197614D02*
X6697886Y125126185D01*
X6697886Y125126185D02*
X6769314Y124983328D01*
D10*
D11*
X11335199Y128329671D02*
X11335199Y127258242D01*
X11335199Y127258242D02*
X11406628Y127043957D01*
X11406628Y127043957D02*
X11549485Y126901100D01*
X11549485Y126901100D02*
X11763771Y126829671D01*
X11763771Y126829671D02*
X11906628Y126829671D01*
X10692342Y127258242D02*
X9978057Y127258242D01*
X10835199Y126829671D02*
X10335199Y128329671D01*
X10335199Y128329671D02*
X9835199Y126829671D01*
X8478057Y126972528D02*
X8549485Y126901100D01*
X8549485Y126901100D02*
X8763771Y126829671D01*
X8763771Y126829671D02*
X8906628Y126829671D01*
X8906628Y126829671D02*
X9120914Y126901100D01*
X9120914Y126901100D02*
X9263771Y127043957D01*
X9263771Y127043957D02*
X9335200Y127186814D01*
X9335200Y127186814D02*
X9406628Y127472528D01*
X9406628Y127472528D02*
X9406628Y127686814D01*
X9406628Y127686814D02*
X9335200Y127972528D01*
X9335200Y127972528D02*
X9263771Y128115385D01*
X9263771Y128115385D02*
X9120914Y128258242D01*
X9120914Y128258242D02*
X8906628Y128329671D01*
X8906628Y128329671D02*
X8763771Y128329671D01*
X8763771Y128329671D02*
X8549485Y128258242D01*
X8549485Y128258242D02*
X8478057Y128186814D01*
X7835200Y126829671D02*
X7835200Y128329671D01*
X7835200Y127615385D02*
X6978057Y127615385D01*
X6978057Y126829671D02*
X6978057Y128329671D01*
X5978056Y128329671D02*
X5692342Y128329671D01*
X5692342Y128329671D02*
X5549485Y128258242D01*
X5549485Y128258242D02*
X5406628Y128115385D01*
X5406628Y128115385D02*
X5335199Y127829671D01*
X5335199Y127829671D02*
X5335199Y127329671D01*
X5335199Y127329671D02*
X5406628Y127043957D01*
X5406628Y127043957D02*
X5549485Y126901100D01*
X5549485Y126901100D02*
X5692342Y126829671D01*
X5692342Y126829671D02*
X5978056Y126829671D01*
X5978056Y126829671D02*
X6120914Y126901100D01*
X6120914Y126901100D02*
X6263771Y127043957D01*
X6263771Y127043957D02*
X6335199Y127329671D01*
X6335199Y127329671D02*
X6335199Y127829671D01*
X6335199Y127829671D02*
X6263771Y128115385D01*
X6263771Y128115385D02*
X6120914Y128258242D01*
X6120914Y128258242D02*
X5978056Y128329671D01*
D10*
D11*
X84734456Y123578471D02*
X85448742Y123578471D01*
X85448742Y123578471D02*
X85448742Y125078471D01*
X84234456Y124364185D02*
X83734456Y124364185D01*
X83520170Y123578471D02*
X84234456Y123578471D01*
X84234456Y123578471D02*
X84234456Y125078471D01*
X84234456Y125078471D02*
X83520170Y125078471D01*
X82877313Y123578471D02*
X82877313Y125078471D01*
X82877313Y125078471D02*
X82520170Y125078471D01*
X82520170Y125078471D02*
X82305884Y125007042D01*
X82305884Y125007042D02*
X82163027Y124864185D01*
X82163027Y124864185D02*
X82091598Y124721328D01*
X82091598Y124721328D02*
X82020170Y124435614D01*
X82020170Y124435614D02*
X82020170Y124221328D01*
X82020170Y124221328D02*
X82091598Y123935614D01*
X82091598Y123935614D02*
X82163027Y123792757D01*
X82163027Y123792757D02*
X82305884Y123649900D01*
X82305884Y123649900D02*
X82520170Y123578471D01*
X82520170Y123578471D02*
X82877313Y123578471D01*
X81520170Y125078471D02*
X80520170Y125078471D01*
X80520170Y125078471D02*
X81163027Y123578471D01*
X80020170Y123649900D02*
X79805885Y123578471D01*
X79805885Y123578471D02*
X79448742Y123578471D01*
X79448742Y123578471D02*
X79305885Y123649900D01*
X79305885Y123649900D02*
X79234456Y123721328D01*
X79234456Y123721328D02*
X79163027Y123864185D01*
X79163027Y123864185D02*
X79163027Y124007042D01*
X79163027Y124007042D02*
X79234456Y124149900D01*
X79234456Y124149900D02*
X79305885Y124221328D01*
X79305885Y124221328D02*
X79448742Y124292757D01*
X79448742Y124292757D02*
X79734456Y124364185D01*
X79734456Y124364185D02*
X79877313Y124435614D01*
X79877313Y124435614D02*
X79948742Y124507042D01*
X79948742Y124507042D02*
X80020170Y124649900D01*
X80020170Y124649900D02*
X80020170Y124792757D01*
X80020170Y124792757D02*
X79948742Y124935614D01*
X79948742Y124935614D02*
X79877313Y125007042D01*
X79877313Y125007042D02*
X79734456Y125078471D01*
X79734456Y125078471D02*
X79377313Y125078471D01*
X79377313Y125078471D02*
X79163027Y125007042D01*
X78520171Y124364185D02*
X78020171Y124364185D01*
X77805885Y123578471D02*
X78520171Y123578471D01*
X78520171Y123578471D02*
X78520171Y125078471D01*
X78520171Y125078471D02*
X77805885Y125078471D01*
X76377313Y125007042D02*
X76520171Y125078471D01*
X76520171Y125078471D02*
X76734456Y125078471D01*
X76734456Y125078471D02*
X76948742Y125007042D01*
X76948742Y125007042D02*
X77091599Y124864185D01*
X77091599Y124864185D02*
X77163028Y124721328D01*
X77163028Y124721328D02*
X77234456Y124435614D01*
X77234456Y124435614D02*
X77234456Y124221328D01*
X77234456Y124221328D02*
X77163028Y123935614D01*
X77163028Y123935614D02*
X77091599Y123792757D01*
X77091599Y123792757D02*
X76948742Y123649900D01*
X76948742Y123649900D02*
X76734456Y123578471D01*
X76734456Y123578471D02*
X76591599Y123578471D01*
X76591599Y123578471D02*
X76377313Y123649900D01*
X76377313Y123649900D02*
X76305885Y123721328D01*
X76305885Y123721328D02*
X76305885Y124221328D01*
X76305885Y124221328D02*
X76591599Y124221328D01*
X75377313Y125078471D02*
X75234456Y125078471D01*
X75234456Y125078471D02*
X75091599Y125007042D01*
X75091599Y125007042D02*
X75020171Y124935614D01*
X75020171Y124935614D02*
X74948742Y124792757D01*
X74948742Y124792757D02*
X74877313Y124507042D01*
X74877313Y124507042D02*
X74877313Y124149900D01*
X74877313Y124149900D02*
X74948742Y123864185D01*
X74948742Y123864185D02*
X75020171Y123721328D01*
X75020171Y123721328D02*
X75091599Y123649900D01*
X75091599Y123649900D02*
X75234456Y123578471D01*
X75234456Y123578471D02*
X75377313Y123578471D01*
X75377313Y123578471D02*
X75520171Y123649900D01*
X75520171Y123649900D02*
X75591599Y123721328D01*
X75591599Y123721328D02*
X75663028Y123864185D01*
X75663028Y123864185D02*
X75734456Y124149900D01*
X75734456Y124149900D02*
X75734456Y124507042D01*
X75734456Y124507042D02*
X75663028Y124792757D01*
X75663028Y124792757D02*
X75591599Y124935614D01*
X75591599Y124935614D02*
X75520171Y125007042D01*
X75520171Y125007042D02*
X75377313Y125078471D01*
X73448742Y123578471D02*
X74305885Y123578471D01*
X73877314Y123578471D02*
X73877314Y125078471D01*
X73877314Y125078471D02*
X74020171Y124864185D01*
X74020171Y124864185D02*
X74163028Y124721328D01*
X74163028Y124721328D02*
X74305885Y124649900D01*
X72877314Y124007042D02*
X72163029Y124007042D01*
X73020171Y123578471D02*
X72520171Y125078471D01*
X72520171Y125078471D02*
X72020171Y123578471D01*
D10*
D11*
X82959828Y125915271D02*
X82959828Y127415271D01*
X82959828Y127415271D02*
X82459828Y126343842D01*
X82459828Y126343842D02*
X81959828Y127415271D01*
X81959828Y127415271D02*
X81959828Y125915271D01*
X80531256Y125915271D02*
X81245542Y125915271D01*
X81245542Y125915271D02*
X81245542Y127415271D01*
X80102684Y126343842D02*
X79388399Y126343842D01*
X80245541Y125915271D02*
X79745541Y127415271D01*
X79745541Y127415271D02*
X79245541Y125915271D01*
X78245542Y126700985D02*
X78031256Y126629557D01*
X78031256Y126629557D02*
X77959827Y126558128D01*
X77959827Y126558128D02*
X77888399Y126415271D01*
X77888399Y126415271D02*
X77888399Y126200985D01*
X77888399Y126200985D02*
X77959827Y126058128D01*
X77959827Y126058128D02*
X78031256Y125986700D01*
X78031256Y125986700D02*
X78174113Y125915271D01*
X78174113Y125915271D02*
X78745542Y125915271D01*
X78745542Y125915271D02*
X78745542Y127415271D01*
X78745542Y127415271D02*
X78245542Y127415271D01*
X78245542Y127415271D02*
X78102685Y127343842D01*
X78102685Y127343842D02*
X78031256Y127272414D01*
X78031256Y127272414D02*
X77959827Y127129557D01*
X77959827Y127129557D02*
X77959827Y126986700D01*
X77959827Y126986700D02*
X78031256Y126843842D01*
X78031256Y126843842D02*
X78102685Y126772414D01*
X78102685Y126772414D02*
X78245542Y126700985D01*
X78245542Y126700985D02*
X78745542Y126700985D01*
X77245542Y126058128D02*
X77174113Y125986700D01*
X77174113Y125986700D02*
X77245542Y125915271D01*
X77245542Y125915271D02*
X77316970Y125986700D01*
X77316970Y125986700D02*
X77245542Y126058128D01*
X77245542Y126058128D02*
X77245542Y125915271D01*
X75674113Y126058128D02*
X75745541Y125986700D01*
X75745541Y125986700D02*
X75959827Y125915271D01*
X75959827Y125915271D02*
X76102684Y125915271D01*
X76102684Y125915271D02*
X76316970Y125986700D01*
X76316970Y125986700D02*
X76459827Y126129557D01*
X76459827Y126129557D02*
X76531256Y126272414D01*
X76531256Y126272414D02*
X76602684Y126558128D01*
X76602684Y126558128D02*
X76602684Y126772414D01*
X76602684Y126772414D02*
X76531256Y127058128D01*
X76531256Y127058128D02*
X76459827Y127200985D01*
X76459827Y127200985D02*
X76316970Y127343842D01*
X76316970Y127343842D02*
X76102684Y127415271D01*
X76102684Y127415271D02*
X75959827Y127415271D01*
X75959827Y127415271D02*
X75745541Y127343842D01*
X75745541Y127343842D02*
X75674113Y127272414D01*
X75174113Y127415271D02*
X74174113Y127415271D01*
X74174113Y127415271D02*
X75174113Y125915271D01*
X75174113Y125915271D02*
X74174113Y125915271D01*
D12*
%TO.P,J1,1*%
%TO.N,GND*%
X12496800Y3606800D03*
%TO.P,J1,2*%
X12496800Y6146800D03*
%TO.P,J1,3*%
%TO.N,+12V*%
X15036800Y3606800D03*
%TO.P,J1,4*%
X15036800Y6146800D03*
%TO.P,J1,5*%
X17576800Y3606800D03*
%TO.P,J1,6*%
X17576800Y6146800D03*
%TO.P,J1,7*%
%TO.N,GND*%
X20116800Y3606800D03*
%TO.P,J1,8*%
X20116800Y6146800D03*
%TD*%
%TO.P,J5,1*%
%TO.N,VDD*%
X33578800Y3606800D03*
%TO.P,J5,2*%
X33578800Y6146800D03*
%TD*%
%TO.P,J6,1*%
%TO.N,/SDA*%
X36982400Y43688000D03*
%TO.P,J6,2*%
X36982400Y46228000D03*
%TD*%
%TO.P,J7,1*%
%TO.N,/SCL*%
X36068000Y3606800D03*
%TO.P,J7,2*%
X36068000Y6146800D03*
%TD*%
%TO.P,J8,1*%
%TO.N,GND*%
X38608000Y3606800D03*
%TO.P,J8,2*%
X38608000Y6146800D03*
%TD*%
%TO.P,J9,1*%
%TO.N,GND*%
X28498800Y3606800D03*
%TO.P,J9,2*%
X28498800Y6146800D03*
%TD*%
D13*
%TO.P,M1,1*%
%TO.N,GND*%
X5080000Y137160000D03*
%TD*%
%TO.P,M3,1*%
%TO.N,GND*%
X27526800Y106704000D03*
%TD*%
%TO.P,M5,1*%
%TO.N,GND*%
X86360000Y5080000D03*
%TD*%
%TO.P,M6,1*%
%TO.N,GND*%
X27526800Y45744000D03*
%TD*%
%TO.P,M7,1*%
%TO.N,GND*%
X58006800Y106704000D03*
%TD*%
%TO.P,M8,1*%
%TO.N,GND*%
X86360000Y137160000D03*
%TD*%
%TO.P,M9,1*%
%TO.N,GND*%
X58006800Y45744000D03*
%TD*%
%TO.P,M10,1*%
%TO.N,GND*%
X5080000Y5080000D03*
%TD*%
D12*
%TO.P,J11,1*%
%TO.N,/LED00*%
X36118800Y69697600D03*
%TD*%
%TO.P,J12,1*%
%TO.N,/LED01*%
X38658800Y69697600D03*
%TD*%
%TO.P,J13,1*%
%TO.N,/LED02*%
X41198800Y69697600D03*
%TD*%
%TO.P,J14,1*%
%TO.N,/LED03*%
X43738800Y69697600D03*
%TD*%
%TO.P,J15,1*%
%TO.N,/LED04*%
X46278800Y69697600D03*
%TD*%
%TO.P,J16,1*%
%TO.N,/LED05*%
X48818800Y69697600D03*
%TD*%
%TO.P,J17,1*%
%TO.N,/LED06*%
X51358800Y69697600D03*
%TD*%
%TO.P,J18,1*%
%TO.N,/LED07*%
X53898800Y69697600D03*
%TD*%
%TO.P,J19,1*%
%TO.N,/G*%
X36169600Y86156800D03*
%TD*%
%TO.P,J20,1*%
%TO.N,/F*%
X38709600Y86156800D03*
%TD*%
%TO.P,J21,1*%
%TO.N,/A*%
X41249600Y86156800D03*
%TD*%
%TO.P,J22,1*%
%TO.N,/C*%
X48869600Y86156800D03*
%TD*%
%TO.P,J23,1*%
%TO.N,/B*%
X43789600Y86156800D03*
%TD*%
%TO.P,J24,1*%
%TO.N,/D*%
X51409600Y86156800D03*
%TD*%
%TO.P,J25,1*%
%TO.N,/DP*%
X46329600Y86156800D03*
%TD*%
%TO.P,J26,1*%
%TO.N,/E*%
X53949600Y86156800D03*
%TD*%
%TO.P,J27,1*%
%TO.N,GND*%
X25908000Y100126800D03*
%TO.P,J27,2*%
X28448000Y100126800D03*
%TO.P,J27,3*%
%TO.N,+12V*%
X25908000Y97586800D03*
%TO.P,J27,4*%
X28448000Y97586800D03*
%TO.P,J27,5*%
X25908000Y95046800D03*
%TO.P,J27,6*%
X28448000Y95046800D03*
%TO.P,J27,7*%
%TO.N,GND*%
X25908000Y92506800D03*
%TO.P,J27,8*%
X28448000Y92506800D03*
%TD*%
%TO.P,J28,1*%
%TO.N,VDD*%
X39522400Y43688000D03*
%TO.P,J28,2*%
X39522400Y46228000D03*
%TD*%
%TO.P,J29,1*%
%TO.N,Net-(J29-Pad1)*%
X31038800Y3606800D03*
%TO.P,J29,2*%
X31038800Y6146800D03*
%TD*%
%TO.P,J30,1*%
%TO.N,/SCL*%
X42062400Y43688000D03*
%TO.P,J30,2*%
X42062400Y46228000D03*
%TD*%
%TO.P,J31,1*%
%TO.N,GND*%
X44602400Y43688000D03*
%TO.P,J31,2*%
X44602400Y46228000D03*
%TD*%
%TO.P,J36,1*%
%TO.N,/#OE*%
X48666400Y43688000D03*
%TO.P,J36,2*%
X48666400Y46228000D03*
%TD*%
%TO.P,J37,1*%
%TO.N,+12V*%
X25298400Y87325200D03*
%TD*%
%TO.P,J38,1*%
%TO.N,+12V*%
X25298400Y79705200D03*
%TD*%
%TO.P,J39,1*%
%TO.N,+12V*%
X25298400Y84785200D03*
%TD*%
%TO.P,J40,1*%
%TO.N,+12V*%
X25298400Y82245200D03*
%TD*%
%TO.P,J41,1*%
%TO.N,+12V*%
X25298400Y74625200D03*
%TD*%
%TO.P,J42,1*%
%TO.N,+12V*%
X25298400Y77165200D03*
%TD*%
%TO.P,J43,1*%
%TO.N,+12V*%
X25298400Y72085200D03*
%TD*%
%TO.P,J44,1*%
%TO.N,+12V*%
X25298400Y69545200D03*
%TD*%
D14*
%TO.P,D3,1*%
%TO.N,/E*%
X44450000Y38100000D03*
D15*
%TO.P,D3,2*%
%TO.N,+12V*%
X46990000Y38100000D03*
%TD*%
D14*
%TO.P,D4,1*%
%TO.N,/B*%
X44450000Y104140000D03*
D15*
%TO.P,D4,2*%
%TO.N,+12V*%
X46990000Y104140000D03*
%TD*%
D16*
%TO.P,AFF1,1*%
%TO.N,+12V*%
X35458400Y17576800D03*
%TO.P,AFF1,2*%
%TO.N,Net-(AFF1-Pad2)*%
X40538400Y17576800D03*
%TO.P,AFF1,3*%
%TO.N,/D*%
X45618400Y17576800D03*
%TO.P,AFF1,4*%
%TO.N,/C*%
X50698400Y17576800D03*
%TO.P,AFF1,5*%
%TO.N,/DP*%
X55778400Y17576800D03*
%TO.P,AFF1,6*%
%TO.N,/B*%
X55778400Y125776800D03*
%TO.P,AFF1,7*%
%TO.N,/A*%
X50698400Y125776800D03*
%TO.P,AFF1,8*%
%TO.N,+12V*%
X45618400Y125776800D03*
%TO.P,AFF1,9*%
%TO.N,/F*%
X40538400Y125776800D03*
%TO.P,AFF1,10*%
%TO.N,/G*%
X35458400Y125776800D03*
%TD*%
D17*
%TO.P,REF\u002A\u002A,1*%
%TO.N,N/C*%
X43281600Y25857200D03*
%TD*%
%TO.P,REF\u002A\u002A,1*%
%TO.N,N/C*%
X35458400Y25603200D03*
%TD*%
%TO.P,J2,1*%
%TO.N,GND*%
X24638000Y55118000D03*
%TD*%
%TO.P,J3,1*%
%TO.N,GND*%
X34391600Y59131200D03*
%TD*%
D18*
%TO.P,C1,1*%
%TO.N,VDD*%
X33985200Y56146700D03*
%TO.P,C1,2*%
%TO.N,GND*%
X33985200Y58051700D03*
%TD*%
D19*
%TO.P,C2,1*%
%TO.N,VDD*%
X31567120Y52730400D03*
%TO.P,C2,2*%
%TO.N,GND*%
X26517600Y52730400D03*
%TD*%
D20*
%TO.P,C3,1*%
%TO.N,+12V*%
X32359600Y95163640D03*
%TO.P,C3,2*%
%TO.N,GND*%
X32359600Y100213160D03*
%TD*%
D18*
%TO.P,C4,1*%
%TO.N,VDD*%
X35966400Y56146700D03*
%TO.P,C4,2*%
%TO.N,GND*%
X35966400Y58051700D03*
%TD*%
D21*
%TO.P,D1,1*%
%TO.N,GND*%
X31473140Y10058400D03*
%TO.P,D1,2*%
%TO.N,VDD*%
X34973260Y10058400D03*
%TD*%
D22*
%TO.P,D2,1*%
%TO.N,GND*%
X12682220Y10820400D03*
%TO.P,D2,2*%
%TO.N,+12V*%
X16680180Y10820400D03*
%TD*%
D23*
%TO.P,R1,1*%
%TO.N,/A2*%
X30378400Y62230000D03*
%TO.P,R1,2*%
%TO.N,GND*%
X28473400Y62230000D03*
%TD*%
%TO.P,R2,1*%
%TO.N,/A3*%
X30327600Y66294000D03*
%TO.P,R2,2*%
%TO.N,GND*%
X28422600Y66294000D03*
%TD*%
%TO.P,R3,1*%
%TO.N,/A4*%
X30365700Y70307200D03*
%TO.P,R3,2*%
%TO.N,GND*%
X28460700Y70307200D03*
%TD*%
%TO.P,R4,1*%
%TO.N,VDD*%
X38950900Y49225200D03*
%TO.P,R4,2*%
%TO.N,/SDA*%
X37045900Y49225200D03*
%TD*%
%TO.P,R5,1*%
%TO.N,/#OE*%
X44881800Y50800000D03*
%TO.P,R5,2*%
%TO.N,GND*%
X46786800Y50800000D03*
%TD*%
%TO.P,R6,1*%
%TO.N,VDD*%
X40551100Y50749200D03*
%TO.P,R6,2*%
%TO.N,/SCL*%
X42456100Y50749200D03*
%TD*%
D18*
%TO.P,R7,1*%
%TO.N,/G*%
X34137600Y77520800D03*
%TO.P,R7,2*%
%TO.N,/LED00*%
X34137600Y75615800D03*
%TD*%
%TO.P,R8,1*%
%TO.N,/F*%
X37896800Y77508100D03*
%TO.P,R8,2*%
%TO.N,/LED01*%
X37896800Y75603100D03*
%TD*%
%TO.P,R9,1*%
%TO.N,/A*%
X41554400Y77508100D03*
%TO.P,R9,2*%
%TO.N,/LED02*%
X41554400Y75603100D03*
%TD*%
%TO.P,R10,1*%
%TO.N,/C*%
X52628800Y77508100D03*
%TO.P,R10,2*%
%TO.N,/LED05*%
X52628800Y75603100D03*
%TD*%
%TO.P,R11,1*%
%TO.N,/B*%
X45262800Y77508100D03*
%TO.P,R11,2*%
%TO.N,/LED03*%
X45262800Y75603100D03*
%TD*%
%TO.P,R12,1*%
%TO.N,/D*%
X56134000Y77508100D03*
%TO.P,R12,2*%
%TO.N,/LED06*%
X56134000Y75603100D03*
%TD*%
%TO.P,R13,1*%
%TO.N,/DP*%
X48920400Y77508100D03*
%TO.P,R13,2*%
%TO.N,/LED04*%
X48920400Y75603100D03*
%TD*%
%TO.P,R14,1*%
%TO.N,/E*%
X59740800Y77508100D03*
%TO.P,R14,2*%
%TO.N,/LED07*%
X59740800Y75603100D03*
%TD*%
D24*
%TO.P,U1,1*%
%TO.N,/A0*%
X38549580Y61828680D03*
%TO.P,U1,2*%
%TO.N,/A1*%
X39199820Y61828680D03*
%TO.P,U1,3*%
%TO.N,/A2*%
X39850060Y61828680D03*
%TO.P,U1,4*%
%TO.N,/A3*%
X40500300Y61828680D03*
%TO.P,U1,5*%
%TO.N,/A4*%
X41150540Y61828680D03*
%TO.P,U1,6*%
%TO.N,/LED00*%
X41800780Y61828680D03*
%TO.P,U1,7*%
%TO.N,/LED01*%
X42451020Y61828680D03*
%TO.P,U1,8*%
%TO.N,/LED02*%
X43096180Y61828680D03*
%TO.P,U1,9*%
%TO.N,/LED03*%
X43746420Y61828680D03*
%TO.P,U1,10*%
%TO.N,/LED04*%
X44396660Y61828680D03*
%TO.P,U1,11*%
%TO.N,/LED05*%
X45046900Y61828680D03*
%TO.P,U1,12*%
%TO.N,/LED06*%
X45697140Y61828680D03*
%TO.P,U1,13*%
%TO.N,/LED07*%
X46347380Y61828680D03*
%TO.P,U1,14*%
%TO.N,GND*%
X46997620Y61828680D03*
%TO.P,U1,15*%
%TO.N,N/C*%
X46997620Y56230520D03*
%TO.P,U1,16*%
X46347380Y56230520D03*
%TO.P,U1,17*%
X45697140Y56230520D03*
%TO.P,U1,18*%
X45046900Y56230520D03*
%TO.P,U1,19*%
X44396660Y56230520D03*
%TO.P,U1,20*%
X43746420Y56230520D03*
%TO.P,U1,21*%
X43096180Y56230520D03*
%TO.P,U1,22*%
X42451020Y56230520D03*
%TO.P,U1,23*%
%TO.N,/#OE*%
X41800780Y56230520D03*
%TO.P,U1,24*%
%TO.N,GND*%
X41150540Y56230520D03*
%TO.P,U1,25*%
X40500300Y56230520D03*
%TO.P,U1,26*%
%TO.N,/SCL*%
X39850060Y56230520D03*
%TO.P,U1,27*%
%TO.N,/SDA*%
X39199820Y56230520D03*
%TO.P,U1,28*%
%TO.N,VDD*%
X38549580Y56230520D03*
%TD*%
D18*
%TO.P,R23,1*%
%TO.N,/SDA*%
X35864800Y39509700D03*
%TO.P,R23,2*%
%TO.N,Net-(J29-Pad1)*%
X35864800Y37604700D03*
%TD*%
D23*
%TO.P,R25,1*%
%TO.N,VDD*%
X29425900Y64262000D03*
%TO.P,R25,2*%
%TO.N,/A2*%
X31330900Y64262000D03*
%TD*%
%TO.P,R26,1*%
%TO.N,VDD*%
X29476700Y68326000D03*
%TO.P,R26,2*%
%TO.N,/A3*%
X31381700Y68326000D03*
%TD*%
%TO.P,R27,1*%
%TO.N,VDD*%
X29375100Y72288400D03*
%TO.P,R27,2*%
%TO.N,/A4*%
X31280100Y72288400D03*
%TD*%
%TO.P,R28,1*%
%TO.N,VDD*%
X29425900Y60198000D03*
%TO.P,R28,2*%
%TO.N,/A1*%
X31330900Y60198000D03*
%TD*%
%TO.P,R29,1*%
%TO.N,/A1*%
X30416500Y58216800D03*
%TO.P,R29,2*%
%TO.N,GND*%
X28511500Y58216800D03*
%TD*%
%TO.P,R30,1*%
%TO.N,VDD*%
X29476700Y56184800D03*
%TO.P,R30,2*%
%TO.N,/A0*%
X31381700Y56184800D03*
%TD*%
D18*
%TO.P,R31,1*%
%TO.N,/A0*%
X35966400Y61506100D03*
%TO.P,R31,2*%
%TO.N,GND*%
X35966400Y59601100D03*
%TD*%
%TO.P,R32,1*%
%TO.N,+12V*%
X24231600Y5880100D03*
%TO.P,R32,2*%
%TO.N,VDD*%
X24231600Y3975100D03*
%TD*%
D25*
%TO.P,R15,1*%
%TO.N,/G*%
X34137600Y78155800D03*
%TO.P,R15,2*%
%TO.N,/LED00*%
X34137600Y74853800D03*
%TD*%
%TO.P,R16,1*%
%TO.N,/F*%
X37896800Y78155800D03*
%TO.P,R16,2*%
%TO.N,/LED01*%
X37896800Y74853800D03*
%TD*%
%TO.P,R17,1*%
%TO.N,/A*%
X41554400Y78155800D03*
%TO.P,R17,2*%
%TO.N,/LED02*%
X41554400Y74853800D03*
%TD*%
%TO.P,R18,1*%
%TO.N,/C*%
X52628800Y78054200D03*
%TO.P,R18,2*%
%TO.N,/LED05*%
X52628800Y74752200D03*
%TD*%
%TO.P,R19,1*%
%TO.N,/B*%
X45262800Y78155800D03*
%TO.P,R19,2*%
%TO.N,/LED03*%
X45262800Y74853800D03*
%TD*%
%TO.P,R20,1*%
%TO.N,/D*%
X56134000Y78054200D03*
%TO.P,R20,2*%
%TO.N,/LED06*%
X56134000Y74752200D03*
%TD*%
%TO.P,R21,1*%
%TO.N,/DP*%
X48920400Y78054200D03*
%TO.P,R21,2*%
%TO.N,/LED04*%
X48920400Y74752200D03*
%TD*%
%TO.P,R22,1*%
%TO.N,/E*%
X59740800Y78054200D03*
%TO.P,R22,2*%
%TO.N,/LED07*%
X59740800Y74752200D03*
%TD*%
%TO.P,R24,1*%
%TO.N,Net-(AFF1-Pad2)*%
X41757600Y20447000D03*
%TO.P,R24,2*%
%TO.N,/E*%
X41757600Y23749000D03*
%TD*%
D26*
%TO.N,+12V*%
X43230800Y25857200D03*
X35458400Y25603200D03*
%TD*%
D27*
%TO.N,+12V*%
X46990000Y38100000D02*
X46990000Y36827208D01*
X33782000Y128828800D02*
X56743600Y128828800D01*
X28702000Y10820400D02*
X35458400Y17576800D01*
X25298400Y77165200D02*
X25298400Y79705200D01*
D28*
X45516800Y125729600D02*
X45516800Y128778000D01*
D27*
X59334400Y126238000D02*
X59334400Y116484400D01*
X45618400Y128676400D02*
X45618400Y125776800D01*
X27060400Y87325200D02*
X32359600Y92624400D01*
X31950800Y48262400D02*
X32026801Y48262400D01*
X25298400Y69545200D02*
X25298400Y57734362D01*
X25298400Y82245200D02*
X25298400Y84785200D01*
X32359600Y92624400D02*
X32359600Y92888560D01*
X45516800Y128778000D02*
X45618400Y128676400D01*
X32359600Y95189040D02*
X34442400Y97271840D01*
X25908000Y97586800D02*
X28448000Y97586800D01*
X32613600Y109372400D02*
X32613600Y127660400D01*
X42976800Y32814008D02*
X42976800Y26111200D01*
X24231600Y10820400D02*
X28702000Y10820400D01*
X32359600Y92888560D02*
X32359600Y95163640D01*
X15036800Y3606800D02*
X15036800Y6146800D01*
X15036800Y6146800D02*
X17576800Y6146800D01*
X34442400Y107543600D02*
X32613600Y109372400D01*
X25908000Y97586800D02*
X25908000Y95046800D01*
X56743600Y128828800D02*
X59334400Y126238000D01*
X35458400Y25603200D02*
X35153600Y25908000D01*
X32613600Y127660400D02*
X33782000Y128828800D01*
X28999953Y51213247D02*
X31950800Y48262400D01*
D28*
X28448000Y95046800D02*
X25908000Y95046800D01*
D27*
X25908000Y95046800D02*
X32242760Y95046800D01*
X32026801Y48262400D02*
X32026801Y29034799D01*
X25298400Y84785200D02*
X25298400Y87325200D01*
D28*
X33782000Y128828800D02*
X45466000Y128828800D01*
D27*
X32359600Y95163640D02*
X32359600Y95189040D01*
X46990000Y104140000D02*
X59334400Y116484400D01*
X25298400Y57734362D02*
X28999953Y54032809D01*
X25298400Y79705200D02*
X25298400Y82245200D01*
X25298400Y72085200D02*
X25298400Y74625200D01*
X17576800Y9923780D02*
X16680180Y10820400D01*
X24231600Y5880100D02*
X24231600Y10820400D01*
X34442400Y97271840D02*
X34442400Y107543600D01*
D28*
X28448000Y95046800D02*
X32242760Y95046800D01*
D27*
X17576800Y6146800D02*
X17576800Y9923780D01*
X25298400Y87325200D02*
X27060400Y87325200D01*
X42976800Y26111200D02*
X43230800Y25857200D01*
X16680180Y10820400D02*
X24231600Y10820400D01*
X32026801Y29034799D02*
X35153600Y25908000D01*
X32242760Y95046800D02*
X32359600Y95163640D01*
X28999953Y54032809D02*
X28999953Y51213247D01*
X17576800Y3606800D02*
X17576800Y6146800D01*
X25298400Y69545200D02*
X25298400Y72085200D01*
D28*
X45516800Y128778000D02*
X45466000Y128828800D01*
D27*
X28448000Y97586800D02*
X28448000Y95046800D01*
X25298400Y74625200D02*
X25298400Y77165200D01*
D28*
X25298400Y84785200D02*
X25298400Y87833200D01*
X45466000Y128828800D02*
X56743600Y128828800D01*
D27*
X35458400Y17576800D02*
X35458400Y25603200D01*
X17576800Y3606800D02*
X15036800Y3606800D01*
X46990000Y36827208D02*
X42976800Y32814008D01*
D29*
%TO.N,/G*%
X36169600Y125065600D02*
X35458400Y125776800D01*
X36169600Y82600800D02*
X34137600Y80568800D01*
X34137600Y80568800D02*
X34137600Y78155800D01*
X36169600Y86156800D02*
X36169600Y82600800D01*
X36169600Y86156800D02*
X36169600Y125065600D01*
X36169600Y86156800D02*
X36169600Y85623400D01*
%TO.N,/F*%
X38709600Y86156800D02*
X38709600Y78968600D01*
X38709600Y86156800D02*
X38709600Y123948000D01*
X38709600Y78968600D02*
X37896800Y78155800D01*
X38709600Y123948000D02*
X40538400Y125776800D01*
%TO.N,/B*%
X44450000Y104140000D02*
X44450000Y114448400D01*
X55778400Y125776800D02*
X45212000Y115210400D01*
X43789600Y79629000D02*
X45262800Y78155800D01*
X43789600Y86156800D02*
X43789600Y103479600D01*
X44450000Y114448400D02*
X45212000Y115210400D01*
X43789600Y86156800D02*
X43789600Y79629000D01*
X43789600Y103479600D02*
X44450000Y104140000D01*
%TO.N,/A*%
X41249600Y86156800D02*
X41249600Y78460600D01*
X41249600Y86156800D02*
X41249600Y116328000D01*
X41249600Y116328000D02*
X50698400Y125776800D01*
X41249600Y78460600D02*
X41554400Y78155800D01*
D28*
%TO.N,/E*%
X42850000Y38100000D02*
X41808400Y37058400D01*
X44450000Y39700000D02*
X45136000Y40386000D01*
D29*
X65481200Y76352400D02*
X64008000Y77825600D01*
D28*
X63324401Y39550001D02*
X49553199Y39550001D01*
D29*
X59740800Y81927600D02*
X55511600Y86156800D01*
X63779400Y78054200D02*
X59740800Y78054200D01*
D28*
X65481200Y71374000D02*
X65481200Y41706800D01*
X44450000Y38100000D02*
X44450000Y39700000D01*
X45136000Y40386000D02*
X48717200Y40386000D01*
X41808400Y25109400D02*
X41808400Y23964900D01*
D29*
X64008000Y77825600D02*
X63779400Y78054200D01*
X65481200Y71374000D02*
X65481200Y76352400D01*
X55511600Y86156800D02*
X53949600Y86156800D01*
D28*
X49553199Y39550001D02*
X48717200Y40386000D01*
X44450000Y38100000D02*
X42850000Y38100000D01*
X65481200Y41706800D02*
X63324401Y39550001D01*
D29*
X59740800Y78054200D02*
X59740800Y81927600D01*
D28*
X41808400Y37058400D02*
X41808400Y25109400D01*
D29*
%TO.N,/DP*%
X66243200Y92964000D02*
X51574800Y92964000D01*
X46329600Y86156800D02*
X46329600Y80391000D01*
X46329600Y87718800D02*
X46329600Y86156800D01*
X48666400Y78054200D02*
X48920400Y78054200D01*
X55778400Y17576800D02*
X71882000Y33680400D01*
X71882000Y33680400D02*
X71882000Y87325200D01*
X46329600Y80391000D02*
X48666400Y78054200D01*
X71882000Y87325200D02*
X66243200Y92964000D01*
X51574800Y92964000D02*
X46329600Y87718800D01*
%TO.N,/C*%
X52184400Y91033600D02*
X48869600Y87718800D01*
X50698400Y17576800D02*
X50698400Y27330400D01*
X48869600Y81813400D02*
X52536799Y78146201D01*
X48869600Y86156800D02*
X48869600Y81813400D01*
X69392800Y84124800D02*
X62484000Y91033600D01*
X48869600Y87718800D02*
X48869600Y86156800D01*
X58521600Y27330400D02*
X69392800Y38201600D01*
X52536799Y78146201D02*
X52628800Y78146201D01*
X62484000Y91033600D02*
X52184400Y91033600D01*
X50698400Y27330400D02*
X58521600Y27330400D01*
X69392800Y38201600D02*
X69392800Y84124800D01*
%TO.N,/D*%
X51409600Y86156800D02*
X51409600Y87718800D01*
X67614800Y83464400D02*
X67614800Y41043594D01*
X51409600Y84594800D02*
X56134000Y79870400D01*
X53200400Y89509600D02*
X61569600Y89509600D01*
X51409600Y87718800D02*
X53200400Y89509600D01*
X56134000Y79870400D02*
X56134000Y78705001D01*
X45618400Y27432000D02*
X45618400Y17576800D01*
X59032406Y32461200D02*
X50647600Y32461200D01*
X51409600Y86156800D02*
X51409600Y84594800D01*
X61569600Y89509600D02*
X67614800Y83464400D01*
X50647600Y32461200D02*
X45618400Y27432000D01*
X67614800Y41043594D02*
X59032406Y32461200D01*
D30*
%TO.N,VDD*%
X29476700Y60147200D02*
X29425900Y60198000D01*
D28*
X32242760Y52730400D02*
X33870900Y54358540D01*
D30*
X29425900Y64262000D02*
X29425900Y68275200D01*
D28*
X33870900Y56083200D02*
X35902900Y56083200D01*
X24180800Y3606800D02*
X24180800Y2144800D01*
D31*
X38049200Y40952800D02*
X38752400Y41656000D01*
X34493200Y38608000D02*
X34899600Y38608000D01*
X33578800Y6146800D02*
X33578800Y7112000D01*
D28*
X38950900Y49225200D02*
X39027100Y49225200D01*
D30*
X38549580Y56230520D02*
X36050220Y56230520D01*
D31*
X37998400Y38608000D02*
X38049200Y38658800D01*
X39522400Y42426000D02*
X39522400Y43688000D01*
X35610800Y38608000D02*
X34899600Y38608000D01*
D28*
X34239200Y40944800D02*
X34239200Y48784280D01*
D30*
X32217360Y52730400D02*
X29476700Y55471060D01*
D31*
X33578800Y7314310D02*
X33578800Y7112000D01*
X37795200Y38608000D02*
X35610800Y38608000D01*
D28*
X32509460Y52463700D02*
X32242760Y52730400D01*
D30*
X29375100Y72288400D02*
X29375100Y68427600D01*
D31*
X38049200Y13333730D02*
X38049200Y38658800D01*
D30*
X32242760Y52730400D02*
X32217360Y52730400D01*
D28*
X24446000Y1879600D02*
X33313600Y1879600D01*
D31*
X34973260Y10058400D02*
X34973260Y10257790D01*
D28*
X39522400Y46228000D02*
X39522400Y48653700D01*
X33313600Y1879600D02*
X33578800Y2144800D01*
D31*
X34239200Y38862000D02*
X34493200Y38608000D01*
D28*
X34239200Y48784280D02*
X32242760Y50780720D01*
X24180800Y2144800D02*
X24446000Y1879600D01*
D30*
X29425900Y68275200D02*
X29476700Y68326000D01*
D31*
X37795200Y38608000D02*
X37998400Y38608000D01*
X38049200Y38658800D02*
X38049200Y40952800D01*
D30*
X29476700Y55471060D02*
X29476700Y56184800D01*
D28*
X33578800Y2144800D02*
X33578800Y3606800D01*
D31*
X39522400Y43688000D02*
X39522400Y42367200D01*
X34973260Y8708770D02*
X33578800Y7314310D01*
X38752400Y41656000D02*
X39522400Y42426000D01*
X34239200Y40944800D02*
X34239200Y38862000D01*
D30*
X36050220Y56230520D02*
X35966400Y56146700D01*
X29425900Y60198000D02*
X29425900Y64262000D01*
D28*
X32242760Y50780720D02*
X32242760Y52730400D01*
D31*
X34973260Y10058400D02*
X34973260Y8708770D01*
D28*
X35902900Y56083200D02*
X35966400Y56146700D01*
D30*
X29476700Y72237600D02*
X29425900Y72288400D01*
D28*
X39027100Y49225200D02*
X40551100Y50749200D01*
X33578800Y3606800D02*
X33578800Y6146800D01*
X39522400Y43688000D02*
X39522400Y46228000D01*
X39522400Y48653700D02*
X38950900Y49225200D01*
D30*
X29375100Y68427600D02*
X29476700Y68326000D01*
D28*
X33870900Y54358540D02*
X33870900Y56083200D01*
D31*
X34973260Y10257790D02*
X38049200Y13333730D01*
D30*
X29476700Y56184800D02*
X29476700Y60147200D01*
D28*
%TO.N,GND*%
X21282010Y979590D02*
X20116800Y2144800D01*
D32*
X46997620Y61828680D02*
X46997620Y60728680D01*
D31*
X28498800Y6146800D02*
X27236800Y6146800D01*
X62179200Y76555600D02*
X62484000Y76250800D01*
D32*
X46997620Y60728680D02*
X44892140Y58623200D01*
X36964900Y58051700D02*
X37180800Y58267600D01*
D31*
X27236800Y6146800D02*
X25966800Y4876800D01*
D28*
X37442790Y979590D02*
X21282010Y979590D01*
D33*
X40500300Y56230520D02*
X41150540Y56230520D01*
D32*
X44892140Y58623200D02*
X42118280Y58623200D01*
D28*
X38608000Y2144800D02*
X37442790Y979590D01*
X38608000Y3606800D02*
X38608000Y2144800D01*
D31*
X62484000Y76250800D02*
X62484000Y65887600D01*
X25966800Y4876800D02*
X22648800Y4876800D01*
X28460700Y70307200D02*
X28460700Y70561200D01*
D32*
X42118280Y58623200D02*
X41150540Y57655460D01*
D28*
X20116800Y2144800D02*
X20116800Y3606800D01*
D31*
X27127200Y74879200D02*
X28803600Y76555600D01*
X28460700Y70307200D02*
X27516200Y70307200D01*
D32*
X35966400Y58051700D02*
X36964900Y58051700D01*
D31*
X27516200Y70307200D02*
X27127200Y70696200D01*
X27127200Y70696200D02*
X27127200Y74879200D01*
X21378800Y6146800D02*
X20116800Y6146800D01*
D32*
X37180800Y58267600D02*
X40538400Y58267600D01*
D31*
X62484000Y65887600D02*
X58425080Y61828680D01*
X22648800Y4876800D02*
X21378800Y6146800D01*
X28803600Y76555600D02*
X62179200Y76555600D01*
D32*
X40538400Y58267600D02*
X41150540Y57655460D01*
X41150540Y57655460D02*
X41150540Y56230520D01*
D31*
X58425080Y61828680D02*
X47022381Y61828680D01*
D30*
%TO.N,/SDA*%
X39199820Y51379120D02*
X38144400Y50323700D01*
D28*
X36982400Y46228000D02*
X36982400Y49161700D01*
D30*
X37045900Y49479200D02*
X37045900Y49225200D01*
D31*
X36982400Y41571800D02*
X36982400Y43688000D01*
D28*
X36982400Y43688000D02*
X36982400Y46228000D01*
D30*
X39199820Y56230520D02*
X39199820Y51379120D01*
X37890400Y50323700D02*
X37045900Y49479200D01*
D28*
X36982400Y49161700D02*
X37045900Y49225200D01*
D30*
X38144400Y50323700D02*
X37890400Y50323700D01*
D31*
X35864800Y39509700D02*
X35864800Y40454200D01*
X35864800Y40454200D02*
X36982400Y41571800D01*
%TO.N,/SCL*%
X38749210Y10090010D02*
X36068000Y7408800D01*
D30*
X42456100Y51847700D02*
X39850060Y54453740D01*
X39850060Y55030520D02*
X39850060Y56230520D01*
D31*
X36068000Y7408800D02*
X36068000Y6146800D01*
X38749210Y39112810D02*
X38749210Y10090010D01*
D30*
X42456100Y50749200D02*
X42456100Y51847700D01*
D28*
X42062400Y50355500D02*
X42456100Y50749200D01*
D31*
X42062400Y42426000D02*
X38749210Y39112810D01*
D30*
X39850060Y54453740D02*
X39850060Y55030520D01*
D28*
X42062400Y46228000D02*
X42062400Y50355500D01*
D31*
X42062400Y43688000D02*
X42062400Y42426000D01*
D28*
X42062400Y43688000D02*
X42062400Y46228000D01*
X36068000Y3606800D02*
X36068000Y6146800D01*
D30*
%TO.N,/#OE*%
X44881800Y51949500D02*
X44881800Y50800000D01*
D28*
X48666400Y43688000D02*
X48666400Y46228000D01*
X48666400Y46228000D02*
X44881800Y50012600D01*
D30*
X41800780Y56230520D02*
X41800780Y55030520D01*
D28*
X44881800Y50012600D02*
X44881800Y50800000D01*
D30*
X41800780Y55030520D02*
X44881800Y51949500D01*
D29*
%TO.N,/LED00*%
X36118800Y69697600D02*
X36118800Y73571100D01*
D30*
X41800780Y63825120D02*
X36118800Y69507100D01*
X36118800Y69507100D02*
X36118800Y69697600D01*
D28*
X36728400Y69088000D02*
X36118800Y69697600D01*
D30*
X41800780Y61828680D02*
X41800780Y63825120D01*
D29*
X36118800Y73571100D02*
X34137600Y75552300D01*
D27*
%TO.N,/LED01*%
X38760400Y69596000D02*
X38658800Y69697600D01*
D30*
X42451020Y61828680D02*
X42451020Y64736980D01*
X38658800Y68529200D02*
X38658800Y69697600D01*
X42451020Y64736980D02*
X38658800Y68529200D01*
D29*
X38658800Y74091800D02*
X37896800Y74853800D01*
X38658800Y69697600D02*
X38658800Y74091800D01*
D30*
%TO.N,/LED02*%
X43096180Y61828680D02*
X43096180Y65615820D01*
X43096180Y65615820D02*
X41198800Y67513200D01*
D29*
X41198800Y69697600D02*
X41198800Y74498200D01*
D30*
X41198800Y67513200D02*
X41198800Y69697600D01*
D29*
X41198800Y74498200D02*
X41554400Y74853800D01*
%TO.N,/LED03*%
X46024800Y74091800D02*
X45262800Y74853800D01*
D30*
X43746420Y69689980D02*
X43738800Y69697600D01*
D29*
X43738800Y73329800D02*
X45262800Y74853800D01*
D30*
X43746420Y61828680D02*
X43746420Y69689980D01*
D29*
X43738800Y69697600D02*
X43738800Y73329800D01*
%TO.N,/LED04*%
X48564800Y74396600D02*
X48920400Y74752200D01*
D30*
X44396660Y65224660D02*
X46278800Y67106800D01*
D29*
X46278800Y69697600D02*
X46278800Y71259600D01*
X48920400Y73901200D02*
X48920400Y74558599D01*
D30*
X46278800Y67106800D02*
X46278800Y69697600D01*
D29*
X46278800Y71259600D02*
X48920400Y73901200D01*
X48920400Y74752200D02*
X48920400Y75603100D01*
D30*
X44396660Y61828680D02*
X44396660Y65224660D01*
D29*
%TO.N,/LED05*%
X52628800Y74752200D02*
X52628800Y75603100D01*
X48818800Y71259600D02*
X52117799Y74558599D01*
D30*
X48818800Y68173600D02*
X48818800Y69697600D01*
X45046900Y64401700D02*
X48818800Y68173600D01*
X45046900Y61828680D02*
X45046900Y64401700D01*
D29*
X52117799Y74558599D02*
X52628800Y74558599D01*
X48818800Y69697600D02*
X48818800Y71259600D01*
D30*
%TO.N,/LED06*%
X49326800Y67513200D02*
X50336400Y67513200D01*
D29*
X51358800Y69977000D02*
X56134000Y74752200D01*
X56134000Y74752200D02*
X56134000Y75603100D01*
D30*
X45697140Y63883540D02*
X49326800Y67513200D01*
X51358800Y68535600D02*
X51358800Y69697600D01*
D28*
X51358800Y69240400D02*
X51358800Y69697600D01*
D30*
X50336400Y67513200D02*
X51358800Y68535600D01*
D29*
X51358800Y69697600D02*
X51358800Y69977000D01*
D30*
X45697140Y61828680D02*
X45697140Y63883540D01*
%TO.N,/LED07*%
X47987100Y64668400D02*
X50031600Y64668400D01*
D29*
X59740800Y73977600D02*
X59740800Y74752200D01*
X53898800Y69697600D02*
X55460800Y69697600D01*
D30*
X50031600Y64668400D02*
X53898800Y68535600D01*
X53898800Y68535600D02*
X53898800Y69697600D01*
D29*
X59740800Y74752200D02*
X59740800Y75603100D01*
X55460800Y69697600D02*
X59740800Y73977600D01*
D30*
X46347380Y61828680D02*
X46347381Y63028681D01*
X46347381Y63028681D02*
X47987100Y64668400D01*
%TO.N,/A2*%
X39850060Y63230214D02*
X38535503Y64544771D01*
X38535503Y64544771D02*
X33426400Y64544771D01*
X30378400Y63309500D02*
X31330900Y64262000D01*
X30378400Y62230000D02*
X30378400Y63309500D01*
X39850060Y61828680D02*
X39850060Y63230214D01*
X33143629Y64262000D02*
X31330900Y64262000D01*
X33426400Y64544771D02*
X33143629Y64262000D01*
%TO.N,/A3*%
X40500300Y61828680D02*
X40500300Y63428516D01*
X40500300Y63428516D02*
X38784035Y65144781D01*
X30327600Y66294000D02*
X30327600Y67271900D01*
X35032819Y65144781D02*
X33883600Y66294000D01*
X38784035Y65144781D02*
X35032819Y65144781D01*
X30327600Y67271900D02*
X31381700Y68326000D01*
X40500300Y61836300D02*
X40525539Y61861539D01*
X33883600Y66294000D02*
X30327600Y66294000D01*
X40500300Y61828680D02*
X40500300Y61836300D01*
%TO.N,/A4*%
X36668009Y65744791D02*
X32105600Y70307200D01*
X30365700Y70307200D02*
X30365700Y71374000D01*
X39032567Y65744791D02*
X36668009Y65744791D01*
X32105600Y70307200D02*
X30213300Y70307200D01*
X41150540Y61828680D02*
X41150540Y63626818D01*
X41150540Y63626818D02*
X39032567Y65744791D01*
X30365700Y71374000D02*
X31280100Y72288400D01*
D31*
%TO.N,Net-(J29-Pad1)*%
X35864800Y37604700D02*
X36118800Y37604700D01*
X37095190Y14490202D02*
X33274000Y10669012D01*
D28*
X31038800Y3606800D02*
X31038800Y6146800D01*
D31*
X31707200Y8077200D02*
X32308800Y8077200D01*
X36118800Y37604700D02*
X37095190Y36628310D01*
X32308800Y8077200D02*
X33274000Y9042400D01*
X31038800Y7408800D02*
X31707200Y8077200D01*
X33274000Y10669012D02*
X33274000Y9042400D01*
X31038800Y7408800D02*
X31038800Y6146800D01*
X37095190Y36628310D02*
X37095190Y14490202D01*
D29*
%TO.N,Net-(AFF1-Pad2)*%
X41757600Y20447000D02*
X41757600Y18796000D01*
X41757600Y18796000D02*
X40538400Y17576800D01*
D30*
%TO.N,/A1*%
X39199820Y63009780D02*
X38506400Y63703200D01*
X32175400Y60198000D02*
X35680600Y63703200D01*
X31330900Y60198000D02*
X32175400Y60198000D01*
X30416500Y59283600D02*
X31330900Y60198000D01*
X39199820Y61828680D02*
X39199820Y63009780D01*
X35680600Y63703200D02*
X38506400Y63703200D01*
X30416500Y58216800D02*
X30416500Y59283600D01*
%TO.N,/A0*%
X36288980Y61828680D02*
X35966400Y61506100D01*
X34734500Y61506100D02*
X31381700Y58153300D01*
X38549580Y61828680D02*
X36288980Y61828680D01*
X35966400Y61506100D02*
X34734500Y61506100D01*
X31381700Y58153300D02*
X31381700Y56184800D01*
%TD*%
%TA.AperFunction,Conductor*%
%TO.N,GND*%
G36*
X36281072Y16225326D02*
G01*
X36326402Y16170684D01*
X36336690Y16120816D01*
X36336690Y14856573D01*
X36316688Y14788452D01*
X36299785Y14767478D01*
X32783227Y11250920D01*
X32769376Y11238949D01*
X32749942Y11224481D01*
X32749940Y11224479D01*
X32716003Y11184036D01*
X32712289Y11179982D01*
X32706425Y11174119D01*
X32685864Y11148116D01*
X32635965Y11088648D01*
X32631933Y11082518D01*
X32631878Y11082553D01*
X32627829Y11076199D01*
X32627886Y11076165D01*
X32624033Y11069918D01*
X32591220Y10999552D01*
X32556391Y10930200D01*
X32556390Y10930198D01*
X32556389Y10930195D01*
X32553880Y10923301D01*
X32553817Y10923323D01*
X32551341Y10916201D01*
X32551404Y10916181D01*
X32549097Y10909221D01*
X32533392Y10833162D01*
X32515499Y10757664D01*
X32514648Y10750379D01*
X32514580Y10750386D01*
X32513814Y10742888D01*
X32513881Y10742883D01*
X32513241Y10735570D01*
X32515499Y10657932D01*
X32515499Y9408770D01*
X32495497Y9340649D01*
X32478594Y9319675D01*
X32031524Y8872605D01*
X31969212Y8838579D01*
X31942429Y8835700D01*
X31771641Y8835700D01*
X31753381Y8837030D01*
X31749072Y8837660D01*
X31729411Y8840541D01*
X31697087Y8837713D01*
X31676815Y8835940D01*
X31671322Y8835700D01*
X31663020Y8835700D01*
X31636688Y8832621D01*
X31630104Y8831852D01*
X31619697Y8830941D01*
X31552773Y8825087D01*
X31552770Y8825086D01*
X31552768Y8825086D01*
X31545587Y8823603D01*
X31545573Y8823669D01*
X31538219Y8822039D01*
X31538235Y8821973D01*
X31531093Y8820279D01*
X31531087Y8820279D01*
X31458144Y8793730D01*
X31384461Y8769314D01*
X31384455Y8769310D01*
X31377815Y8766214D01*
X31377786Y8766276D01*
X31371000Y8762991D01*
X31371031Y8762931D01*
X31364468Y8759635D01*
X31299600Y8716971D01*
X31233550Y8676231D01*
X31227791Y8671677D01*
X31227748Y8671730D01*
X31221900Y8666966D01*
X31221944Y8666915D01*
X31216322Y8662198D01*
X31183487Y8627394D01*
X31163036Y8605717D01*
X30548020Y7990701D01*
X30534176Y7978737D01*
X30514742Y7964269D01*
X30514740Y7964267D01*
X30480803Y7923824D01*
X30477089Y7919770D01*
X30471225Y7913907D01*
X30450664Y7887904D01*
X30400765Y7828436D01*
X30396733Y7822306D01*
X30396678Y7822341D01*
X30392629Y7815987D01*
X30392686Y7815953D01*
X30388833Y7809706D01*
X30356020Y7739340D01*
X30321191Y7669988D01*
X30321190Y7669986D01*
X30321189Y7669983D01*
X30318680Y7663089D01*
X30318617Y7663111D01*
X30316141Y7655989D01*
X30316204Y7655969D01*
X30313897Y7649009D01*
X30298192Y7572950D01*
X30282717Y7507653D01*
X30247544Y7445981D01*
X30184613Y7413115D01*
X30173585Y7411432D01*
X30167599Y7410789D01*
X30167596Y7410788D01*
X30167595Y7410788D01*
X30098687Y7385086D01*
X30030596Y7359689D01*
X30030594Y7359688D01*
X30030592Y7359687D01*
X29913538Y7272061D01*
X29825912Y7155007D01*
X29825910Y7155002D01*
X29774811Y7018004D01*
X29774809Y7017996D01*
X29768300Y6957449D01*
X29768300Y5336150D01*
X29774809Y5275603D01*
X29774811Y5275595D01*
X29825910Y5138597D01*
X29825912Y5138592D01*
X29913539Y5021538D01*
X29972143Y4977667D01*
X30014689Y4920831D01*
X30019753Y4850016D01*
X29985728Y4787704D01*
X29972143Y4775933D01*
X29913539Y4732061D01*
X29825912Y4615007D01*
X29825910Y4615002D01*
X29774811Y4478004D01*
X29774809Y4477996D01*
X29768300Y4417449D01*
X29768300Y2864100D01*
X29748298Y2795979D01*
X29694642Y2749486D01*
X29642300Y2738100D01*
X25165300Y2738100D01*
X25097179Y2758102D01*
X25050686Y2811758D01*
X25039300Y2864100D01*
X25039300Y2941127D01*
X25059302Y3009248D01*
X25112958Y3055741D01*
X25121266Y3059182D01*
X25176304Y3079711D01*
X25176307Y3079712D01*
X25293361Y3167338D01*
X25380987Y3284392D01*
X25380989Y3284397D01*
X25432088Y3421395D01*
X25432090Y3421403D01*
X25438599Y3481950D01*
X25438600Y3481967D01*
X25438600Y4468232D01*
X25438599Y4468249D01*
X25432090Y4528796D01*
X25432088Y4528804D01*
X25399937Y4615002D01*
X25380989Y4665804D01*
X25360031Y4693800D01*
X25293361Y4782861D01*
X25234757Y4826732D01*
X25192210Y4883568D01*
X25187146Y4954384D01*
X25221171Y5016696D01*
X25234757Y5028468D01*
X25293361Y5072338D01*
X25380987Y5189392D01*
X25380989Y5189397D01*
X25432088Y5326395D01*
X25432090Y5326403D01*
X25438599Y5386950D01*
X25438600Y5386967D01*
X25438600Y6373232D01*
X25438599Y6373249D01*
X25432090Y6433796D01*
X25432088Y6433804D01*
X25425060Y6452645D01*
X25380989Y6570804D01*
X25293361Y6687861D01*
X25290595Y6689931D01*
X25288520Y6692702D01*
X25286989Y6694234D01*
X25287209Y6694454D01*
X25248047Y6746762D01*
X25240100Y6790802D01*
X25240100Y9685900D01*
X25260102Y9754021D01*
X25313758Y9800514D01*
X25366100Y9811900D01*
X28649356Y9811900D01*
X28655535Y9811596D01*
X28701997Y9807020D01*
X28702000Y9807020D01*
X28702004Y9807020D01*
X28899692Y9826489D01*
X28899704Y9826491D01*
X29089803Y9884158D01*
X29089805Y9884159D01*
X29145440Y9913897D01*
X29265004Y9977805D01*
X29418567Y10103831D01*
X29448189Y10139926D01*
X29452334Y10144500D01*
X35336738Y16028903D01*
X35399050Y16062929D01*
X35435717Y16065420D01*
X35458398Y16063635D01*
X35458400Y16063635D01*
X35695111Y16082265D01*
X35768051Y16099776D01*
X35925992Y16137694D01*
X36005637Y16170684D01*
X36145363Y16228560D01*
X36145364Y16228561D01*
X36145367Y16228562D01*
X36149775Y16230808D01*
X36150324Y16229730D01*
X36213397Y16246787D01*
X36281072Y16225326D01*
G37*
%TD.AperFunction*%
%TA.AperFunction,Conductor*%
G36*
X35179132Y96478172D02*
G01*
X35235968Y96435625D01*
X35260779Y96369105D01*
X35261100Y96360116D01*
X35261100Y87494359D01*
X35241098Y87426238D01*
X35187442Y87379745D01*
X35179166Y87376317D01*
X35161396Y87369689D01*
X35161392Y87369686D01*
X35161391Y87369686D01*
X35044338Y87282061D01*
X34956712Y87165007D01*
X34956710Y87165002D01*
X34905611Y87028004D01*
X34905609Y87027996D01*
X34899100Y86967449D01*
X34899100Y85346150D01*
X34905609Y85285603D01*
X34905611Y85285595D01*
X34956710Y85148597D01*
X34956712Y85148592D01*
X35044338Y85031538D01*
X35161398Y84943909D01*
X35179136Y84937293D01*
X35235971Y84894745D01*
X35260779Y84828224D01*
X35261100Y84819239D01*
X35261100Y83029302D01*
X35241098Y82961181D01*
X35224195Y82940207D01*
X34387525Y82103538D01*
X33552764Y81268777D01*
X33537728Y81255935D01*
X33526345Y81247665D01*
X33500651Y81219128D01*
X33479463Y81195596D01*
X33477226Y81193239D01*
X33461528Y81177541D01*
X33450932Y81164457D01*
X33447571Y81160307D01*
X33445432Y81157802D01*
X33398560Y81105744D01*
X33391520Y81093551D01*
X33380332Y81077274D01*
X33371471Y81066330D01*
X33339662Y81003902D01*
X33338096Y81001017D01*
X33303072Y80940354D01*
X33298723Y80926969D01*
X33291158Y80908705D01*
X33284770Y80896169D01*
X33266641Y80828512D01*
X33265712Y80825375D01*
X33263805Y80819503D01*
X33244059Y80758733D01*
X33244058Y80758727D01*
X33242585Y80744722D01*
X33238984Y80725295D01*
X33235342Y80711702D01*
X33231676Y80641756D01*
X33231418Y80638471D01*
X33229101Y80616424D01*
X33229100Y80616403D01*
X33229100Y80594224D01*
X33229014Y80590953D01*
X33227569Y80563363D01*
X33225347Y80520990D01*
X33227549Y80507091D01*
X33229100Y80487382D01*
X33229100Y79552300D01*
X33209098Y79484179D01*
X33155442Y79437686D01*
X33103100Y79426300D01*
X33072962Y79426300D01*
X33072955Y79426299D01*
X33072950Y79426299D01*
X33012403Y79419790D01*
X33012395Y79419788D01*
X32954941Y79398358D01*
X32875396Y79368689D01*
X32875394Y79368688D01*
X32875392Y79368687D01*
X32758338Y79281061D01*
X32670712Y79164007D01*
X32670710Y79164002D01*
X32619611Y79027004D01*
X32619609Y79026996D01*
X32613100Y78966449D01*
X32613100Y77345150D01*
X32619609Y77284603D01*
X32619611Y77284595D01*
X32670710Y77147597D01*
X32670712Y77147592D01*
X32758338Y77030538D01*
X32875397Y76942909D01*
X32903653Y76932370D01*
X32960487Y76889821D01*
X32977670Y76858353D01*
X32988209Y76830097D01*
X33075839Y76713037D01*
X33134443Y76669167D01*
X33176989Y76612331D01*
X33182053Y76541516D01*
X33148028Y76479204D01*
X33134443Y76467433D01*
X33075839Y76423561D01*
X32988212Y76306507D01*
X32988210Y76306502D01*
X32937111Y76169504D01*
X32937109Y76169496D01*
X32936262Y76161610D01*
X32909093Y76096017D01*
X32881783Y76073194D01*
X32882610Y76072090D01*
X32758338Y75979061D01*
X32670712Y75862007D01*
X32670710Y75862002D01*
X32619611Y75725004D01*
X32619609Y75724996D01*
X32613100Y75664449D01*
X32613100Y74043150D01*
X32619609Y73982603D01*
X32619611Y73982595D01*
X32670710Y73845597D01*
X32670712Y73845592D01*
X32758338Y73728538D01*
X32875392Y73640912D01*
X32875397Y73640910D01*
X33012395Y73589811D01*
X33012403Y73589809D01*
X33072950Y73583300D01*
X33072962Y73583300D01*
X34769596Y73583300D01*
X34837717Y73563298D01*
X34858692Y73546395D01*
X35173396Y73231690D01*
X35207421Y73169378D01*
X35210300Y73142595D01*
X35210300Y71035159D01*
X35190298Y70967038D01*
X35136642Y70920545D01*
X35128366Y70917117D01*
X35110596Y70910489D01*
X35110592Y70910486D01*
X35110591Y70910486D01*
X34993538Y70822861D01*
X34905912Y70705807D01*
X34905910Y70705802D01*
X34854811Y70568804D01*
X34854809Y70568796D01*
X34848300Y70508249D01*
X34848300Y68886967D01*
X34848301Y68886947D01*
X34848728Y68882976D01*
X34836121Y68813107D01*
X34787742Y68761146D01*
X34718951Y68743589D01*
X34651588Y68766011D01*
X34634355Y68780414D01*
X34144062Y69270707D01*
X32623049Y70791719D01*
X32620496Y70794431D01*
X32578873Y70841415D01*
X32527221Y70877067D01*
X32524236Y70879263D01*
X32474826Y70917975D01*
X32465522Y70922161D01*
X32445666Y70933361D01*
X32437275Y70939154D01*
X32378609Y70961402D01*
X32375152Y70962834D01*
X32317929Y70988589D01*
X32307903Y70990426D01*
X32285930Y70996551D01*
X32276401Y71000165D01*
X32214125Y71007726D01*
X32210407Y71008292D01*
X32158448Y71017814D01*
X32095051Y71049766D01*
X32058991Y71110923D01*
X32061719Y71181867D01*
X32084189Y71218131D01*
X32082461Y71219425D01*
X32175487Y71343692D01*
X32175489Y71343697D01*
X32226588Y71480695D01*
X32226590Y71480703D01*
X32233099Y71541250D01*
X32233100Y71541267D01*
X32233100Y73035532D01*
X32233099Y73035549D01*
X32226590Y73096096D01*
X32226588Y73096104D01*
X32209247Y73142595D01*
X32175489Y73233104D01*
X32159599Y73254330D01*
X32087861Y73350161D01*
X31970807Y73437787D01*
X31970806Y73437787D01*
X31970804Y73437789D01*
X31833801Y73488889D01*
X31833799Y73488889D01*
X31833796Y73488890D01*
X31773249Y73495399D01*
X31773245Y73495399D01*
X31773238Y73495400D01*
X30786962Y73495400D01*
X30786955Y73495399D01*
X30786950Y73495399D01*
X30726403Y73488890D01*
X30726395Y73488888D01*
X30683003Y73472703D01*
X30589396Y73437789D01*
X30589394Y73437788D01*
X30589392Y73437787D01*
X30472338Y73350161D01*
X30428468Y73291557D01*
X30371632Y73249010D01*
X30300816Y73243946D01*
X30238504Y73277971D01*
X30226732Y73291557D01*
X30182861Y73350161D01*
X30065807Y73437787D01*
X30065806Y73437787D01*
X30065804Y73437789D01*
X29928801Y73488889D01*
X29928799Y73488889D01*
X29928796Y73488890D01*
X29868249Y73495399D01*
X29868245Y73495399D01*
X29868238Y73495400D01*
X28881962Y73495400D01*
X28881955Y73495399D01*
X28881950Y73495399D01*
X28821403Y73488890D01*
X28821395Y73488888D01*
X28778003Y73472703D01*
X28684396Y73437789D01*
X28684394Y73437788D01*
X28684392Y73437787D01*
X28567338Y73350161D01*
X28479712Y73233107D01*
X28479710Y73233102D01*
X28428611Y73096104D01*
X28428609Y73096096D01*
X28422100Y73035549D01*
X28422100Y71541250D01*
X28428609Y71480703D01*
X28428611Y71480695D01*
X28479710Y71343697D01*
X28479712Y71343692D01*
X28567338Y71226638D01*
X28616109Y71190129D01*
X28658655Y71133293D01*
X28666599Y71089262D01*
X28666599Y69426572D01*
X28646597Y69358451D01*
X28641467Y69351063D01*
X28581312Y69270707D01*
X28581310Y69270702D01*
X28530211Y69133704D01*
X28530209Y69133696D01*
X28523700Y69073149D01*
X28523700Y67578850D01*
X28530209Y67518303D01*
X28530211Y67518295D01*
X28581310Y67381297D01*
X28581312Y67381292D01*
X28668940Y67264236D01*
X28675310Y67257867D01*
X28673885Y67256442D01*
X28709459Y67208914D01*
X28717400Y67164890D01*
X28717400Y65461137D01*
X28697398Y65393016D01*
X28666911Y65360271D01*
X28633472Y65335239D01*
X28618138Y65323760D01*
X28530512Y65206707D01*
X28530510Y65206702D01*
X28479411Y65069704D01*
X28479409Y65069696D01*
X28472900Y65009149D01*
X28472900Y63514850D01*
X28479409Y63454303D01*
X28479411Y63454295D01*
X28530510Y63317297D01*
X28530512Y63317292D01*
X28618138Y63200238D01*
X28666909Y63163729D01*
X28709455Y63106893D01*
X28717399Y63062862D01*
X28717399Y61397137D01*
X28697397Y61329016D01*
X28666909Y61296270D01*
X28620612Y61261612D01*
X28618138Y61259760D01*
X28530512Y61142707D01*
X28530510Y61142702D01*
X28479411Y61005704D01*
X28479409Y61005696D01*
X28472900Y60945149D01*
X28472900Y59450850D01*
X28479409Y59390303D01*
X28479411Y59390295D01*
X28530510Y59253297D01*
X28530512Y59253292D01*
X28618138Y59136238D01*
X28717709Y59061701D01*
X28760256Y59004865D01*
X28768200Y58960833D01*
X28768200Y57383937D01*
X28748198Y57315816D01*
X28717711Y57283071D01*
X28668939Y57246561D01*
X28668938Y57246560D01*
X28581312Y57129507D01*
X28581310Y57129502D01*
X28530211Y56992504D01*
X28530209Y56992496D01*
X28523700Y56931949D01*
X28523700Y56239485D01*
X28503698Y56171364D01*
X28450042Y56124871D01*
X28379768Y56114767D01*
X28315188Y56144261D01*
X28308619Y56150376D01*
X26343805Y58115191D01*
X26309779Y58177503D01*
X26306900Y58204286D01*
X26306900Y68269461D01*
X26326902Y68337582D01*
X26357390Y68370329D01*
X26358367Y68371060D01*
X26423661Y68419939D01*
X26423662Y68419940D01*
X26511287Y68536992D01*
X26511289Y68536997D01*
X26521781Y68565125D01*
X26533324Y68596075D01*
X26562388Y68673995D01*
X26562390Y68674003D01*
X26568899Y68734550D01*
X26568900Y68734567D01*
X26568900Y70355832D01*
X26568899Y70355849D01*
X26562390Y70416396D01*
X26562388Y70416404D01*
X26528131Y70508249D01*
X26511289Y70553404D01*
X26423661Y70670461D01*
X26365054Y70714332D01*
X26322510Y70771165D01*
X26317444Y70841980D01*
X26351468Y70904293D01*
X26365055Y70916067D01*
X26367602Y70917973D01*
X26423661Y70959939D01*
X26424749Y70961392D01*
X26511287Y71076992D01*
X26511289Y71076997D01*
X26512932Y71081400D01*
X26549030Y71178182D01*
X26562388Y71213995D01*
X26562390Y71214003D01*
X26568899Y71274550D01*
X26568900Y71274567D01*
X26568900Y72895832D01*
X26568899Y72895849D01*
X26562390Y72956396D01*
X26562388Y72956404D01*
X26532868Y73035549D01*
X26511289Y73093404D01*
X26423661Y73210461D01*
X26365054Y73254332D01*
X26322510Y73311165D01*
X26317444Y73381980D01*
X26351468Y73444293D01*
X26365055Y73456067D01*
X26395391Y73478776D01*
X26423661Y73499939D01*
X26423662Y73499940D01*
X26511287Y73616992D01*
X26511289Y73616997D01*
X26514998Y73626939D01*
X26546159Y73710484D01*
X26562388Y73753995D01*
X26562390Y73754003D01*
X26568899Y73814550D01*
X26568900Y73814567D01*
X26568900Y75435832D01*
X26568899Y75435849D01*
X26562390Y75496396D01*
X26562388Y75496404D01*
X26537605Y75562849D01*
X26511289Y75633404D01*
X26423661Y75750461D01*
X26365054Y75794332D01*
X26322510Y75851165D01*
X26317444Y75921980D01*
X26351468Y75984293D01*
X26365055Y75996067D01*
X26404309Y76025452D01*
X26423661Y76039939D01*
X26448361Y76072934D01*
X26511287Y76156992D01*
X26511289Y76156997D01*
X26513013Y76161617D01*
X26533324Y76216075D01*
X26562388Y76293995D01*
X26562390Y76294003D01*
X26568899Y76354550D01*
X26568900Y76354567D01*
X26568900Y77975832D01*
X26568899Y77975849D01*
X26562390Y78036396D01*
X26562388Y78036404D01*
X26555360Y78055245D01*
X26511289Y78173404D01*
X26423661Y78290461D01*
X26365054Y78334332D01*
X26322510Y78391165D01*
X26317444Y78461980D01*
X26351468Y78524293D01*
X26365055Y78536067D01*
X26365491Y78536393D01*
X26423661Y78579939D01*
X26423662Y78579940D01*
X26511287Y78696992D01*
X26511289Y78696997D01*
X26515725Y78708888D01*
X26547187Y78793240D01*
X26562388Y78833995D01*
X26562390Y78834003D01*
X26568899Y78894550D01*
X26568900Y78894567D01*
X26568900Y80515832D01*
X26568899Y80515849D01*
X26562390Y80576396D01*
X26562388Y80576404D01*
X26538627Y80640109D01*
X26511289Y80713404D01*
X26502387Y80725295D01*
X26487845Y80744722D01*
X26423661Y80830461D01*
X26365054Y80874332D01*
X26322510Y80931165D01*
X26317444Y81001980D01*
X26351468Y81064293D01*
X26365055Y81076067D01*
X26423660Y81119938D01*
X26423661Y81119939D01*
X26424033Y81120436D01*
X26511287Y81236992D01*
X26511289Y81236997D01*
X26515269Y81247666D01*
X26540706Y81315865D01*
X26562388Y81373995D01*
X26562390Y81374003D01*
X26568899Y81434550D01*
X26568900Y81434567D01*
X26568900Y83055832D01*
X26568899Y83055849D01*
X26562390Y83116396D01*
X26562388Y83116404D01*
X26555360Y83135245D01*
X26511289Y83253404D01*
X26423661Y83370461D01*
X26365054Y83414332D01*
X26322510Y83471165D01*
X26317444Y83541980D01*
X26351468Y83604293D01*
X26365055Y83616067D01*
X26423660Y83659938D01*
X26423661Y83659939D01*
X26423662Y83659940D01*
X26511287Y83776992D01*
X26511289Y83776997D01*
X26562388Y83913995D01*
X26562390Y83914003D01*
X26568899Y83974550D01*
X26568900Y83974567D01*
X26568900Y85595832D01*
X26568899Y85595849D01*
X26562390Y85656396D01*
X26562388Y85656404D01*
X26555360Y85675245D01*
X26511289Y85793404D01*
X26423661Y85910461D01*
X26365054Y85954332D01*
X26322510Y86011165D01*
X26317444Y86081980D01*
X26351468Y86144293D01*
X26365055Y86156067D01*
X26423660Y86199938D01*
X26423661Y86199939D01*
X26473270Y86266209D01*
X26530105Y86308755D01*
X26574138Y86316700D01*
X27007756Y86316700D01*
X27013935Y86316396D01*
X27060397Y86311820D01*
X27060400Y86311820D01*
X27060404Y86311820D01*
X27258092Y86331289D01*
X27258104Y86331291D01*
X27448203Y86388958D01*
X27448205Y86388959D01*
X27493084Y86412948D01*
X27623404Y86482605D01*
X27776967Y86608631D01*
X27806589Y86644726D01*
X27810734Y86649300D01*
X33035498Y91874063D01*
X33040071Y91878208D01*
X33076165Y91907829D01*
X33076168Y91907832D01*
X33202195Y92061396D01*
X33261310Y92171992D01*
X33295842Y92236597D01*
X33353509Y92426700D01*
X33372981Y92624400D01*
X33368404Y92670871D01*
X33368100Y92677051D01*
X33368100Y93254060D01*
X33388102Y93322181D01*
X33441758Y93368674D01*
X33494100Y93380060D01*
X33657929Y93380060D01*
X33718476Y93386569D01*
X33718484Y93386571D01*
X33855482Y93437670D01*
X33855487Y93437672D01*
X33972541Y93525298D01*
X34060167Y93642352D01*
X34060169Y93642357D01*
X34064911Y93655069D01*
X34087276Y93715032D01*
X34111268Y93779355D01*
X34111270Y93779363D01*
X34117779Y93839910D01*
X34117780Y93839927D01*
X34117780Y95468796D01*
X34137782Y95536917D01*
X34154685Y95557891D01*
X35046005Y96449211D01*
X35108317Y96483237D01*
X35179132Y96478172D01*
G37*
%TD.AperFunction*%
%TA.AperFunction,Conductor*%
G36*
X40068696Y85103728D02*
G01*
X40080467Y85090143D01*
X40124337Y85031539D01*
X40241398Y84943909D01*
X40259136Y84937293D01*
X40315971Y84894745D01*
X40340779Y84828224D01*
X40341100Y84819239D01*
X40341100Y79468369D01*
X40321098Y79400248D01*
X40290609Y79367501D01*
X40175138Y79281061D01*
X40087512Y79164007D01*
X40087510Y79164002D01*
X40036411Y79027004D01*
X40036409Y79026996D01*
X40029900Y78966449D01*
X40029900Y77345150D01*
X40036409Y77284603D01*
X40036411Y77284595D01*
X40087510Y77147597D01*
X40087512Y77147592D01*
X40175138Y77030538D01*
X40292192Y76942912D01*
X40292195Y76942911D01*
X40314951Y76934423D01*
X40371785Y76891874D01*
X40388969Y76860404D01*
X40405011Y76817394D01*
X40492639Y76700338D01*
X40551243Y76656467D01*
X40593789Y76599631D01*
X40598853Y76528816D01*
X40564828Y76466504D01*
X40551243Y76454733D01*
X40492639Y76410861D01*
X40405012Y76293807D01*
X40405010Y76293802D01*
X40353911Y76156804D01*
X40352097Y76149126D01*
X40349292Y76149788D01*
X40327325Y76096787D01*
X40298777Y76072934D01*
X40299410Y76072090D01*
X40175138Y75979061D01*
X40087512Y75862007D01*
X40087510Y75862002D01*
X40036411Y75725004D01*
X40036409Y75724996D01*
X40029900Y75664449D01*
X40029900Y74043150D01*
X40036409Y73982603D01*
X40036411Y73982595D01*
X40087510Y73845597D01*
X40087512Y73845592D01*
X40175138Y73728538D01*
X40239809Y73680127D01*
X40282356Y73623291D01*
X40290300Y73579259D01*
X40290300Y71035159D01*
X40270298Y70967038D01*
X40216642Y70920545D01*
X40208366Y70917117D01*
X40190596Y70910489D01*
X40190592Y70910486D01*
X40190591Y70910486D01*
X40073538Y70822861D01*
X40029668Y70764257D01*
X39972832Y70721710D01*
X39902016Y70716646D01*
X39839704Y70750671D01*
X39827932Y70764257D01*
X39784061Y70822861D01*
X39667008Y70910486D01*
X39667004Y70910489D01*
X39649266Y70917104D01*
X39592433Y70959648D01*
X39567621Y71026168D01*
X39567300Y71035159D01*
X39567300Y74010382D01*
X39568851Y74030091D01*
X39571052Y74043990D01*
X39570406Y74056313D01*
X39567385Y74113953D01*
X39567300Y74117224D01*
X39567300Y74139408D01*
X39567299Y74139420D01*
X39567098Y74141328D01*
X39564978Y74161497D01*
X39564724Y74164730D01*
X39562320Y74210600D01*
X39561058Y74234694D01*
X39561057Y74234699D01*
X39561057Y74234703D01*
X39557414Y74248296D01*
X39553812Y74267738D01*
X39552342Y74281725D01*
X39552342Y74281728D01*
X39530689Y74348364D01*
X39529755Y74351521D01*
X39511632Y74419164D01*
X39511630Y74419169D01*
X39511630Y74419170D01*
X39505242Y74431704D01*
X39497670Y74449987D01*
X39493327Y74463356D01*
X39458291Y74524038D01*
X39456745Y74526887D01*
X39435031Y74569502D01*
X39421300Y74626702D01*
X39421300Y75664432D01*
X39421299Y75664449D01*
X39414790Y75724996D01*
X39414788Y75725004D01*
X39388930Y75794330D01*
X39363689Y75862004D01*
X39318791Y75921980D01*
X39276061Y75979061D01*
X39151790Y76072090D01*
X39153067Y76073796D01*
X39111383Y76115475D01*
X39100728Y76149510D01*
X39099103Y76149126D01*
X39097288Y76156804D01*
X39090260Y76175645D01*
X39046189Y76293804D01*
X39036683Y76306502D01*
X38958561Y76410861D01*
X38899957Y76454732D01*
X38857410Y76511568D01*
X38852346Y76582384D01*
X38886371Y76644696D01*
X38899957Y76656468D01*
X38958561Y76700338D01*
X39046187Y76817392D01*
X39046187Y76817394D01*
X39046189Y76817396D01*
X39062230Y76860404D01*
X39104774Y76917237D01*
X39136250Y76934424D01*
X39159004Y76942911D01*
X39159007Y76942912D01*
X39276061Y77030538D01*
X39363687Y77147592D01*
X39363689Y77147597D01*
X39414788Y77284595D01*
X39414790Y77284603D01*
X39421299Y77345150D01*
X39421300Y77345167D01*
X39421300Y78353085D01*
X39441302Y78421206D01*
X39445363Y78427145D01*
X39448638Y78431653D01*
X39449064Y78432391D01*
X39455676Y78443842D01*
X39466867Y78460126D01*
X39475729Y78471070D01*
X39507544Y78533511D01*
X39509110Y78536393D01*
X39544127Y78597044D01*
X39548473Y78610423D01*
X39556037Y78628684D01*
X39562430Y78641230D01*
X39564375Y78648487D01*
X39580558Y78708888D01*
X39581495Y78712052D01*
X39582318Y78714583D01*
X39603142Y78778672D01*
X39604613Y78792675D01*
X39608213Y78812099D01*
X39611857Y78825697D01*
X39615524Y78895668D01*
X39615778Y78898901D01*
X39618100Y78920990D01*
X39618100Y78943174D01*
X39618185Y78946446D01*
X39621852Y79016410D01*
X39619650Y79030306D01*
X39618100Y79050017D01*
X39618100Y84819239D01*
X39638102Y84887360D01*
X39691758Y84933853D01*
X39700064Y84937293D01*
X39717801Y84943909D01*
X39834862Y85031539D01*
X39878733Y85090143D01*
X39935569Y85132689D01*
X40006384Y85137753D01*
X40068696Y85103728D01*
G37*
%TD.AperFunction*%
%TA.AperFunction,Conductor*%
G36*
X46995811Y78439521D02*
G01*
X47002394Y78433391D01*
X47358995Y78076790D01*
X47393021Y78014478D01*
X47395900Y77987695D01*
X47395900Y77243550D01*
X47402409Y77183003D01*
X47402411Y77182995D01*
X47453510Y77045997D01*
X47453512Y77045992D01*
X47541138Y76928938D01*
X47658196Y76841310D01*
X47755212Y76805124D01*
X47812044Y76762580D01*
X47858640Y76700337D01*
X47917243Y76656467D01*
X47959789Y76599631D01*
X47964853Y76528816D01*
X47930828Y76466504D01*
X47917243Y76454733D01*
X47858639Y76410861D01*
X47771012Y76293807D01*
X47771010Y76293802D01*
X47719911Y76156804D01*
X47719909Y76156796D01*
X47713400Y76096249D01*
X47713400Y76069485D01*
X47693398Y76001364D01*
X47662909Y75968617D01*
X47541138Y75877461D01*
X47453512Y75760407D01*
X47453510Y75760402D01*
X47402411Y75623404D01*
X47402409Y75623396D01*
X47395900Y75562849D01*
X47395900Y73941550D01*
X47402409Y73881003D01*
X47402410Y73881002D01*
X47402410Y73880999D01*
X47402411Y73880999D01*
X47427195Y73814550D01*
X47431970Y73801750D01*
X47437035Y73730934D01*
X47403011Y73668624D01*
X47403009Y73668622D01*
X45693964Y71959577D01*
X45678928Y71946735D01*
X45667545Y71938465D01*
X45641851Y71909928D01*
X45620663Y71886396D01*
X45618426Y71884039D01*
X45602728Y71868341D01*
X45592132Y71855257D01*
X45588771Y71851107D01*
X45586632Y71848602D01*
X45539760Y71796544D01*
X45532720Y71784351D01*
X45521532Y71768074D01*
X45512671Y71757130D01*
X45480862Y71694702D01*
X45479296Y71691817D01*
X45444272Y71631154D01*
X45439923Y71617769D01*
X45432358Y71599505D01*
X45425970Y71586969D01*
X45407841Y71519312D01*
X45406912Y71516175D01*
X45395387Y71480703D01*
X45385259Y71449533D01*
X45385258Y71449527D01*
X45383785Y71435522D01*
X45380184Y71416095D01*
X45376542Y71402502D01*
X45372876Y71332556D01*
X45372618Y71329271D01*
X45370301Y71307224D01*
X45370300Y71307203D01*
X45370300Y71285024D01*
X45370214Y71281753D01*
X45368658Y71252061D01*
X45366547Y71211790D01*
X45368749Y71197891D01*
X45370300Y71178182D01*
X45370300Y71035159D01*
X45350298Y70967038D01*
X45296642Y70920545D01*
X45288366Y70917117D01*
X45270596Y70910489D01*
X45270592Y70910486D01*
X45270591Y70910486D01*
X45153538Y70822861D01*
X45109668Y70764257D01*
X45052832Y70721710D01*
X44982016Y70716646D01*
X44919704Y70750671D01*
X44907932Y70764257D01*
X44864061Y70822861D01*
X44747008Y70910486D01*
X44747004Y70910489D01*
X44729266Y70917104D01*
X44672433Y70959648D01*
X44647621Y71026168D01*
X44647300Y71035159D01*
X44647300Y72901296D01*
X44667302Y72969417D01*
X44684204Y72990391D01*
X44926920Y73233107D01*
X45173703Y73479891D01*
X45236016Y73513916D01*
X45306831Y73508852D01*
X45351894Y73479892D01*
X45416056Y73415730D01*
X45527268Y73325672D01*
X45527271Y73325670D01*
X45697429Y73238970D01*
X45881900Y73189542D01*
X46072608Y73179547D01*
X46261234Y73209422D01*
X46439523Y73277861D01*
X46599684Y73381872D01*
X46599691Y73381877D01*
X46734722Y73516908D01*
X46734727Y73516915D01*
X46838738Y73677076D01*
X46891516Y73814567D01*
X46907178Y73855367D01*
X46937052Y74043990D01*
X46927057Y74234703D01*
X46877630Y74419170D01*
X46801032Y74569500D01*
X46787300Y74626702D01*
X46787300Y75664432D01*
X46787299Y75664449D01*
X46780790Y75724996D01*
X46780788Y75725004D01*
X46754930Y75794330D01*
X46729689Y75862004D01*
X46684791Y75921980D01*
X46642061Y75979061D01*
X46517790Y76072090D01*
X46519067Y76073796D01*
X46477383Y76115475D01*
X46466728Y76149510D01*
X46465103Y76149126D01*
X46463288Y76156804D01*
X46456260Y76175645D01*
X46412189Y76293804D01*
X46402683Y76306502D01*
X46324561Y76410861D01*
X46265957Y76454732D01*
X46223410Y76511568D01*
X46218346Y76582384D01*
X46252371Y76644696D01*
X46265957Y76656468D01*
X46324561Y76700338D01*
X46412187Y76817392D01*
X46412187Y76817394D01*
X46412189Y76817396D01*
X46428230Y76860404D01*
X46470774Y76917237D01*
X46502250Y76934424D01*
X46525004Y76942911D01*
X46525007Y76942912D01*
X46642061Y77030538D01*
X46729687Y77147592D01*
X46729689Y77147597D01*
X46780788Y77284595D01*
X46780790Y77284603D01*
X46787299Y77345150D01*
X46787299Y77345152D01*
X46787300Y77345162D01*
X46787299Y78344296D01*
X46807301Y78412417D01*
X46860957Y78458910D01*
X46931231Y78469014D01*
X46995811Y78439521D01*
G37*
%TD.AperFunction*%
%TA.AperFunction,Conductor*%
G36*
X52768696Y85103728D02*
G01*
X52780467Y85090143D01*
X52824338Y85031539D01*
X52941392Y84943912D01*
X52941397Y84943910D01*
X53078395Y84892811D01*
X53078403Y84892809D01*
X53138950Y84886300D01*
X53138962Y84886300D01*
X54760249Y84886300D01*
X54820796Y84892809D01*
X54820804Y84892811D01*
X54957802Y84943910D01*
X54957807Y84943912D01*
X55074861Y85031539D01*
X55106387Y85073651D01*
X55163223Y85116197D01*
X55234038Y85121261D01*
X55296349Y85087236D01*
X58795395Y81588191D01*
X58829421Y81525879D01*
X58832300Y81499096D01*
X58832300Y79450700D01*
X58812298Y79382579D01*
X58758642Y79336086D01*
X58706300Y79324700D01*
X58676162Y79324700D01*
X58676155Y79324699D01*
X58676150Y79324699D01*
X58615603Y79318190D01*
X58615595Y79318188D01*
X58537675Y79289124D01*
X58478596Y79267089D01*
X58478594Y79267088D01*
X58478592Y79267087D01*
X58361538Y79179461D01*
X58273912Y79062407D01*
X58273910Y79062402D01*
X58222811Y78925404D01*
X58222809Y78925396D01*
X58216300Y78864849D01*
X58216300Y77243550D01*
X58222809Y77183003D01*
X58222811Y77182995D01*
X58273910Y77045997D01*
X58273912Y77045992D01*
X58361538Y76928938D01*
X58478596Y76841310D01*
X58575612Y76805124D01*
X58632444Y76762580D01*
X58679040Y76700337D01*
X58737643Y76656467D01*
X58780189Y76599631D01*
X58785253Y76528816D01*
X58751228Y76466504D01*
X58737643Y76454733D01*
X58679039Y76410861D01*
X58591412Y76293807D01*
X58591410Y76293802D01*
X58540311Y76156804D01*
X58540309Y76156796D01*
X58533800Y76096249D01*
X58533799Y76096230D01*
X58533799Y76069481D01*
X58513795Y76001361D01*
X58483308Y75968617D01*
X58361538Y75877461D01*
X58273912Y75760407D01*
X58273910Y75760402D01*
X58222811Y75623404D01*
X58222809Y75623396D01*
X58216300Y75562849D01*
X58216300Y73941550D01*
X58222809Y73881004D01*
X58222810Y73881001D01*
X58231616Y73857392D01*
X58236679Y73786576D01*
X58202654Y73724267D01*
X55245549Y70767162D01*
X55183237Y70733136D01*
X55112422Y70738201D01*
X55055586Y70780748D01*
X55024061Y70822861D01*
X54907004Y70910489D01*
X54775205Y70959648D01*
X54770004Y70961588D01*
X54770003Y70961588D01*
X54770001Y70961589D01*
X54769999Y70961589D01*
X54769996Y70961590D01*
X54709449Y70968099D01*
X54709445Y70968099D01*
X54709438Y70968100D01*
X54709432Y70968100D01*
X53938903Y70968100D01*
X53870782Y70988102D01*
X53824289Y71041758D01*
X53814185Y71112032D01*
X53843679Y71176612D01*
X53849808Y71183195D01*
X56111408Y73444795D01*
X56173720Y73478821D01*
X56200503Y73481700D01*
X57198649Y73481700D01*
X57259196Y73488209D01*
X57259204Y73488211D01*
X57396202Y73539310D01*
X57396207Y73539312D01*
X57513261Y73626938D01*
X57600887Y73743992D01*
X57600889Y73743997D01*
X57651988Y73880995D01*
X57651990Y73881003D01*
X57658499Y73941550D01*
X57658500Y73941567D01*
X57658500Y75562832D01*
X57658499Y75562849D01*
X57651990Y75623396D01*
X57651988Y75623404D01*
X57636679Y75664449D01*
X57600889Y75760404D01*
X57513261Y75877461D01*
X57396204Y75965089D01*
X57396199Y75965090D01*
X57391490Y75968616D01*
X57348944Y76025452D01*
X57341000Y76069485D01*
X57341000Y76096238D01*
X57338932Y76115475D01*
X57334490Y76156796D01*
X57334488Y76156804D01*
X57327460Y76175645D01*
X57283389Y76293804D01*
X57273883Y76306502D01*
X57195761Y76410861D01*
X57137157Y76454732D01*
X57094610Y76511568D01*
X57089546Y76582384D01*
X57123571Y76644696D01*
X57137157Y76656468D01*
X57195760Y76700338D01*
X57195761Y76700339D01*
X57242354Y76762580D01*
X57299188Y76805125D01*
X57396201Y76841309D01*
X57407722Y76849933D01*
X57422326Y76860866D01*
X57513261Y76928938D01*
X57600887Y77045992D01*
X57600889Y77045997D01*
X57651988Y77182995D01*
X57651990Y77183003D01*
X57658499Y77243550D01*
X57658500Y77243567D01*
X57658500Y78864832D01*
X57658499Y78864849D01*
X57651990Y78925396D01*
X57651988Y78925404D01*
X57638045Y78962786D01*
X57600889Y79062404D01*
X57524833Y79164002D01*
X57513261Y79179461D01*
X57396207Y79267087D01*
X57396206Y79267087D01*
X57396204Y79267089D01*
X57259201Y79318189D01*
X57259199Y79318189D01*
X57259196Y79318190D01*
X57198649Y79324699D01*
X57198645Y79324699D01*
X57198638Y79324700D01*
X57198632Y79324700D01*
X57168500Y79324700D01*
X57100379Y79344702D01*
X57053886Y79398358D01*
X57042500Y79450700D01*
X57042500Y79788982D01*
X57044051Y79808691D01*
X57046252Y79822590D01*
X57044603Y79854056D01*
X57042585Y79892553D01*
X57042500Y79895824D01*
X57042500Y79918008D01*
X57042499Y79918020D01*
X57042298Y79919928D01*
X57040178Y79940097D01*
X57039924Y79943330D01*
X57036676Y80005313D01*
X57036258Y80013294D01*
X57036257Y80013299D01*
X57036257Y80013303D01*
X57032614Y80026896D01*
X57029012Y80046338D01*
X57027542Y80060325D01*
X57027542Y80060328D01*
X57005889Y80126964D01*
X57004955Y80130121D01*
X57004647Y80131269D01*
X56995469Y80165525D01*
X56986832Y80197764D01*
X56986831Y80197766D01*
X56986830Y80197770D01*
X56980442Y80210304D01*
X56972870Y80228587D01*
X56970946Y80234509D01*
X56968527Y80241956D01*
X56933491Y80302638D01*
X56931945Y80305487D01*
X56900129Y80367930D01*
X56891269Y80378870D01*
X56880075Y80395157D01*
X56873040Y80407344D01*
X56826174Y80459394D01*
X56824030Y80461904D01*
X56823548Y80462499D01*
X56810072Y80479141D01*
X56794363Y80494848D01*
X56792127Y80497205D01*
X56745253Y80549266D01*
X56733867Y80557537D01*
X56718840Y80570371D01*
X52479159Y84810052D01*
X52445135Y84872362D01*
X52450200Y84943177D01*
X52492747Y85000013D01*
X52534861Y85031539D01*
X52534862Y85031540D01*
X52578733Y85090143D01*
X52635569Y85132689D01*
X52706384Y85137753D01*
X52768696Y85103728D01*
G37*
%TD.AperFunction*%
%TA.AperFunction,Conductor*%
G36*
X43287411Y78845920D02*
G01*
X43293994Y78839791D01*
X43701395Y78432391D01*
X43735420Y78370078D01*
X43738300Y78343295D01*
X43738300Y77345150D01*
X43744809Y77284603D01*
X43744811Y77284595D01*
X43795910Y77147597D01*
X43795912Y77147592D01*
X43883538Y77030538D01*
X44000592Y76942912D01*
X44000595Y76942911D01*
X44023351Y76934423D01*
X44080185Y76891874D01*
X44097369Y76860404D01*
X44113411Y76817394D01*
X44201039Y76700338D01*
X44259643Y76656467D01*
X44302189Y76599631D01*
X44307253Y76528816D01*
X44273228Y76466504D01*
X44259643Y76454733D01*
X44201039Y76410861D01*
X44113412Y76293807D01*
X44113410Y76293802D01*
X44062311Y76156804D01*
X44060497Y76149126D01*
X44057692Y76149788D01*
X44035725Y76096787D01*
X44007177Y76072934D01*
X44007810Y76072090D01*
X43883538Y75979061D01*
X43795912Y75862007D01*
X43795910Y75862002D01*
X43744811Y75725004D01*
X43744809Y75724996D01*
X43738300Y75664449D01*
X43738300Y74666303D01*
X43718298Y74598182D01*
X43701395Y74577208D01*
X43293994Y74169807D01*
X43231682Y74135781D01*
X43160867Y74140846D01*
X43104031Y74183393D01*
X43079220Y74249913D01*
X43078900Y74258873D01*
X43078900Y75664438D01*
X43072389Y75725001D01*
X43021289Y75862004D01*
X42976391Y75921980D01*
X42933661Y75979061D01*
X42809390Y76072090D01*
X42810667Y76073796D01*
X42768983Y76115475D01*
X42758328Y76149510D01*
X42756703Y76149126D01*
X42754888Y76156804D01*
X42747860Y76175645D01*
X42703789Y76293804D01*
X42694283Y76306502D01*
X42616161Y76410861D01*
X42557557Y76454732D01*
X42515010Y76511568D01*
X42509946Y76582384D01*
X42543971Y76644696D01*
X42557557Y76656468D01*
X42616161Y76700338D01*
X42703787Y76817392D01*
X42703787Y76817394D01*
X42703789Y76817396D01*
X42719830Y76860404D01*
X42762374Y76917237D01*
X42793850Y76934424D01*
X42816604Y76942911D01*
X42816607Y76942912D01*
X42933661Y77030538D01*
X43021287Y77147592D01*
X43021289Y77147597D01*
X43072388Y77284595D01*
X43072390Y77284603D01*
X43078899Y77345150D01*
X43078899Y77345152D01*
X43078900Y77345162D01*
X43078900Y78750698D01*
X43098901Y78818816D01*
X43152557Y78865309D01*
X43222831Y78875413D01*
X43287411Y78845920D01*
G37*
%TD.AperFunction*%
%TA.AperFunction,Conductor*%
G36*
X50228696Y85103728D02*
G01*
X50240467Y85090143D01*
X50284337Y85031539D01*
X50401398Y84943909D01*
X50419136Y84937293D01*
X50475971Y84894745D01*
X50500779Y84828224D01*
X50501100Y84819239D01*
X50501100Y84676217D01*
X50499549Y84656506D01*
X50497348Y84642610D01*
X50501014Y84572646D01*
X50501100Y84569374D01*
X50501100Y84547198D01*
X50501101Y84547174D01*
X50503418Y84525128D01*
X50503676Y84521843D01*
X50507342Y84451902D01*
X50510984Y84438309D01*
X50514585Y84418879D01*
X50516058Y84404870D01*
X50537709Y84338229D01*
X50538645Y84335069D01*
X50550490Y84290869D01*
X50556700Y84267694D01*
X50556772Y84267428D01*
X50556773Y84267423D01*
X50563159Y84254890D01*
X50570719Y84236640D01*
X50575071Y84223246D01*
X50610092Y84162588D01*
X50611666Y84159690D01*
X50643471Y84097269D01*
X50643473Y84097265D01*
X50652334Y84086322D01*
X50663518Y84070049D01*
X50670556Y84057860D01*
X50670563Y84057851D01*
X50717429Y84005799D01*
X50719566Y84003297D01*
X50733526Y83986060D01*
X50733531Y83986055D01*
X50749222Y83970363D01*
X50751489Y83967973D01*
X50798346Y83915934D01*
X50809736Y83907658D01*
X50824763Y83894822D01*
X55179792Y79539795D01*
X55213817Y79477483D01*
X55208753Y79406668D01*
X55166206Y79349832D01*
X55099686Y79325021D01*
X55090697Y79324700D01*
X55069362Y79324700D01*
X55069355Y79324699D01*
X55069350Y79324699D01*
X55008803Y79318190D01*
X55008795Y79318188D01*
X54930875Y79289124D01*
X54871796Y79267089D01*
X54871794Y79267088D01*
X54871792Y79267087D01*
X54754738Y79179461D01*
X54667112Y79062407D01*
X54667110Y79062402D01*
X54616011Y78925404D01*
X54616009Y78925396D01*
X54609500Y78864849D01*
X54609500Y77243550D01*
X54616009Y77183003D01*
X54616011Y77182995D01*
X54667110Y77045997D01*
X54667112Y77045992D01*
X54754738Y76928938D01*
X54871796Y76841310D01*
X54968812Y76805124D01*
X55025644Y76762580D01*
X55072240Y76700337D01*
X55130843Y76656467D01*
X55173389Y76599631D01*
X55178453Y76528816D01*
X55144428Y76466504D01*
X55130843Y76454733D01*
X55072239Y76410861D01*
X54984612Y76293807D01*
X54984610Y76293802D01*
X54933511Y76156804D01*
X54933509Y76156796D01*
X54927000Y76096249D01*
X54927000Y76069485D01*
X54906998Y76001364D01*
X54876509Y75968617D01*
X54754738Y75877461D01*
X54667112Y75760407D01*
X54667110Y75760402D01*
X54616011Y75623404D01*
X54616009Y75623396D01*
X54609500Y75562849D01*
X54609500Y74564703D01*
X54589498Y74496582D01*
X54572595Y74475608D01*
X54368395Y74271408D01*
X54306083Y74237382D01*
X54235268Y74242447D01*
X54178432Y74284994D01*
X54153621Y74351514D01*
X54153300Y74360503D01*
X54153300Y75562832D01*
X54153299Y75562849D01*
X54146790Y75623396D01*
X54146788Y75623404D01*
X54131479Y75664449D01*
X54095689Y75760404D01*
X54019633Y75862002D01*
X54008061Y75877461D01*
X53886291Y75968617D01*
X53843744Y76025452D01*
X53835800Y76069485D01*
X53835800Y76096232D01*
X53835799Y76096249D01*
X53829290Y76156796D01*
X53829288Y76156804D01*
X53822260Y76175645D01*
X53778189Y76293804D01*
X53768683Y76306502D01*
X53690561Y76410861D01*
X53631957Y76454732D01*
X53589410Y76511568D01*
X53584346Y76582384D01*
X53618371Y76644696D01*
X53631957Y76656468D01*
X53690560Y76700338D01*
X53690561Y76700339D01*
X53737154Y76762580D01*
X53793988Y76805125D01*
X53891001Y76841309D01*
X53902522Y76849933D01*
X53917126Y76860866D01*
X54008061Y76928938D01*
X54095687Y77045992D01*
X54095689Y77045997D01*
X54146788Y77182995D01*
X54146790Y77183003D01*
X54153299Y77243550D01*
X54153300Y77243567D01*
X54153300Y78864832D01*
X54153299Y78864849D01*
X54146790Y78925396D01*
X54146788Y78925404D01*
X54132845Y78962786D01*
X54095689Y79062404D01*
X54019633Y79164002D01*
X54008061Y79179461D01*
X53891007Y79267087D01*
X53891006Y79267087D01*
X53891004Y79267089D01*
X53754001Y79318189D01*
X53753999Y79318189D01*
X53753996Y79318190D01*
X53693449Y79324699D01*
X53693445Y79324699D01*
X53693438Y79324700D01*
X53693432Y79324700D01*
X52695303Y79324700D01*
X52627182Y79344702D01*
X52606208Y79361605D01*
X49815005Y82152808D01*
X49780979Y82215120D01*
X49778100Y82241903D01*
X49778100Y84819239D01*
X49798102Y84887360D01*
X49851758Y84933853D01*
X49860064Y84937293D01*
X49877801Y84943909D01*
X49994862Y85031539D01*
X50038733Y85090143D01*
X50095569Y85132689D01*
X50166384Y85137753D01*
X50228696Y85103728D01*
G37*
%TD.AperFunction*%
%TA.AperFunction,Conductor*%
G36*
X50653412Y78744319D02*
G01*
X50659995Y78738190D01*
X51067395Y78330790D01*
X51101421Y78268478D01*
X51104300Y78241695D01*
X51104300Y77243550D01*
X51110809Y77183003D01*
X51110811Y77182995D01*
X51161910Y77045997D01*
X51161912Y77045992D01*
X51249538Y76928938D01*
X51366596Y76841310D01*
X51463612Y76805124D01*
X51520444Y76762580D01*
X51567040Y76700337D01*
X51625643Y76656467D01*
X51668189Y76599631D01*
X51673253Y76528816D01*
X51639228Y76466504D01*
X51625643Y76454733D01*
X51567039Y76410861D01*
X51479412Y76293807D01*
X51479410Y76293802D01*
X51428311Y76156804D01*
X51428309Y76156796D01*
X51421800Y76096249D01*
X51421800Y76069485D01*
X51401798Y76001364D01*
X51371309Y75968617D01*
X51249538Y75877461D01*
X51161912Y75760407D01*
X51161910Y75760402D01*
X51110811Y75623404D01*
X51110809Y75623396D01*
X51104300Y75562849D01*
X51104300Y74882103D01*
X51084298Y74813982D01*
X51067395Y74793008D01*
X50659995Y74385608D01*
X50597683Y74351582D01*
X50526868Y74356647D01*
X50470032Y74399194D01*
X50445221Y74465714D01*
X50444900Y74474703D01*
X50444900Y75562832D01*
X50444899Y75562849D01*
X50438390Y75623396D01*
X50438388Y75623404D01*
X50423079Y75664449D01*
X50387289Y75760404D01*
X50311233Y75862002D01*
X50299661Y75877461D01*
X50177891Y75968617D01*
X50135344Y76025452D01*
X50127400Y76069485D01*
X50127400Y76096232D01*
X50127399Y76096249D01*
X50120890Y76156796D01*
X50120888Y76156804D01*
X50113860Y76175645D01*
X50069789Y76293804D01*
X50060283Y76306502D01*
X49982161Y76410861D01*
X49923557Y76454732D01*
X49881010Y76511568D01*
X49875946Y76582384D01*
X49909971Y76644696D01*
X49923557Y76656468D01*
X49982160Y76700338D01*
X49982161Y76700339D01*
X50028754Y76762580D01*
X50085588Y76805125D01*
X50182601Y76841309D01*
X50194122Y76849933D01*
X50208726Y76860866D01*
X50299661Y76928938D01*
X50387287Y77045992D01*
X50387289Y77045997D01*
X50438388Y77182995D01*
X50438390Y77183003D01*
X50444899Y77243550D01*
X50444900Y77243567D01*
X50444900Y78649095D01*
X50464902Y78717216D01*
X50518558Y78763709D01*
X50588832Y78773813D01*
X50653412Y78744319D01*
G37*
%TD.AperFunction*%
%TA.AperFunction,Conductor*%
G36*
X37528696Y85103728D02*
G01*
X37540467Y85090143D01*
X37584337Y85031539D01*
X37701398Y84943909D01*
X37719136Y84937293D01*
X37775971Y84894745D01*
X37800779Y84828224D01*
X37801100Y84819239D01*
X37801100Y79552300D01*
X37781098Y79484179D01*
X37727442Y79437686D01*
X37675100Y79426300D01*
X36832162Y79426300D01*
X36832155Y79426299D01*
X36832150Y79426299D01*
X36771603Y79419790D01*
X36771595Y79419788D01*
X36714141Y79398358D01*
X36634596Y79368689D01*
X36634594Y79368688D01*
X36634592Y79368687D01*
X36517538Y79281061D01*
X36429912Y79164007D01*
X36429910Y79164002D01*
X36378811Y79027004D01*
X36378809Y79026996D01*
X36372300Y78966449D01*
X36372300Y77345150D01*
X36378809Y77284603D01*
X36378811Y77284595D01*
X36429910Y77147597D01*
X36429912Y77147592D01*
X36517538Y77030538D01*
X36634592Y76942912D01*
X36634595Y76942911D01*
X36657351Y76934423D01*
X36714185Y76891874D01*
X36731369Y76860404D01*
X36747411Y76817394D01*
X36835039Y76700338D01*
X36893643Y76656467D01*
X36936189Y76599631D01*
X36941253Y76528816D01*
X36907228Y76466504D01*
X36893643Y76454733D01*
X36835039Y76410861D01*
X36747412Y76293807D01*
X36747410Y76293802D01*
X36696311Y76156804D01*
X36694497Y76149126D01*
X36691692Y76149788D01*
X36669725Y76096787D01*
X36641177Y76072934D01*
X36641810Y76072090D01*
X36517538Y75979061D01*
X36429912Y75862007D01*
X36429910Y75862002D01*
X36378811Y75725004D01*
X36378809Y75724996D01*
X36372300Y75664449D01*
X36372300Y74906603D01*
X36352298Y74838482D01*
X36298642Y74791989D01*
X36228368Y74781885D01*
X36163788Y74811379D01*
X36157205Y74817508D01*
X35699005Y75275708D01*
X35664979Y75338020D01*
X35662100Y75364803D01*
X35662100Y75664432D01*
X35662099Y75664449D01*
X35655590Y75724996D01*
X35655588Y75725004D01*
X35629730Y75794330D01*
X35604489Y75862004D01*
X35559591Y75921980D01*
X35516861Y75979061D01*
X35392590Y76072090D01*
X35394150Y76074174D01*
X35353637Y76114675D01*
X35338936Y76161614D01*
X35338089Y76169501D01*
X35286989Y76306504D01*
X35251009Y76354567D01*
X35199361Y76423561D01*
X35140757Y76467432D01*
X35098210Y76524268D01*
X35093146Y76595084D01*
X35127171Y76657396D01*
X35140757Y76669168D01*
X35199361Y76713038D01*
X35286986Y76830091D01*
X35286986Y76830092D01*
X35286989Y76830096D01*
X35297527Y76858351D01*
X35340073Y76915184D01*
X35371547Y76932371D01*
X35399803Y76942910D01*
X35516861Y77030538D01*
X35604487Y77147592D01*
X35604489Y77147597D01*
X35655588Y77284595D01*
X35655590Y77284603D01*
X35662099Y77345150D01*
X35662100Y77345167D01*
X35662100Y78966432D01*
X35662099Y78966449D01*
X35655590Y79026996D01*
X35655588Y79027004D01*
X35631324Y79092056D01*
X35604489Y79164004D01*
X35516861Y79281061D01*
X35458566Y79324700D01*
X35399807Y79368687D01*
X35399806Y79368687D01*
X35399804Y79368689D01*
X35262801Y79419789D01*
X35262799Y79419789D01*
X35262796Y79419790D01*
X35202249Y79426299D01*
X35202245Y79426299D01*
X35202238Y79426300D01*
X35202232Y79426300D01*
X35172100Y79426300D01*
X35103979Y79446302D01*
X35057486Y79499958D01*
X35046100Y79552300D01*
X35046100Y80140296D01*
X35066102Y80208417D01*
X35083005Y80229391D01*
X36754433Y81900820D01*
X36769464Y81913659D01*
X36780853Y81921934D01*
X36827729Y81973995D01*
X36829982Y81976369D01*
X36845672Y81992059D01*
X36845675Y81992062D01*
X36859628Y82009292D01*
X36861769Y82011798D01*
X36908640Y82063856D01*
X36915676Y82076042D01*
X36926867Y82092326D01*
X36935729Y82103270D01*
X36960969Y82152808D01*
X36967528Y82165680D01*
X36969102Y82168580D01*
X37004127Y82229244D01*
X37008474Y82242623D01*
X37016041Y82260893D01*
X37019406Y82267497D01*
X37022429Y82273430D01*
X37040558Y82341087D01*
X37041495Y82344251D01*
X37063142Y82410872D01*
X37064613Y82424875D01*
X37068213Y82444299D01*
X37071857Y82457897D01*
X37075524Y82527868D01*
X37075778Y82531101D01*
X37078100Y82553190D01*
X37078100Y82575374D01*
X37078185Y82578646D01*
X37081852Y82648610D01*
X37079650Y82662506D01*
X37078100Y82682217D01*
X37078100Y84819239D01*
X37098102Y84887360D01*
X37151758Y84933853D01*
X37160064Y84937293D01*
X37177801Y84943909D01*
X37294862Y85031539D01*
X37338733Y85090143D01*
X37395569Y85132689D01*
X37466384Y85137753D01*
X37528696Y85103728D01*
G37*
%TD.AperFunction*%
%TA.AperFunction,Conductor*%
G36*
X91052621Y141890498D02*
G01*
X91099114Y141836842D01*
X91110500Y141784500D01*
X91110500Y455500D01*
X91090498Y387379D01*
X91036842Y340886D01*
X90984500Y329500D01*
X455500Y329500D01*
X387379Y349502D01*
X340886Y403158D01*
X329500Y455500D01*
X329500Y2796150D01*
X13766300Y2796150D01*
X13772809Y2735603D01*
X13772811Y2735595D01*
X13823910Y2598597D01*
X13823912Y2598592D01*
X13911538Y2481538D01*
X14028592Y2393912D01*
X14028597Y2393910D01*
X14165595Y2342811D01*
X14165603Y2342809D01*
X14226150Y2336300D01*
X14226162Y2336300D01*
X15847449Y2336300D01*
X15907996Y2342809D01*
X15908004Y2342811D01*
X16045002Y2393910D01*
X16045007Y2393912D01*
X16162061Y2481538D01*
X16205932Y2540143D01*
X16262768Y2582690D01*
X16333584Y2587754D01*
X16395896Y2553729D01*
X16407668Y2540143D01*
X16451538Y2481538D01*
X16568592Y2393912D01*
X16568597Y2393910D01*
X16705595Y2342811D01*
X16705603Y2342809D01*
X16766150Y2336300D01*
X16766162Y2336300D01*
X18387449Y2336300D01*
X18447996Y2342809D01*
X18448004Y2342811D01*
X18585002Y2393910D01*
X18585007Y2393912D01*
X18702061Y2481538D01*
X18789687Y2598592D01*
X18789689Y2598597D01*
X18840788Y2735595D01*
X18840790Y2735603D01*
X18847299Y2796150D01*
X18847300Y2796167D01*
X18847300Y4417432D01*
X18847299Y4417449D01*
X18840790Y4477996D01*
X18840788Y4478004D01*
X18821400Y4529984D01*
X18789689Y4615004D01*
X18789467Y4615300D01*
X18745932Y4673456D01*
X18702061Y4732061D01*
X18643455Y4775933D01*
X18600910Y4832765D01*
X18595844Y4903580D01*
X18629868Y4965893D01*
X18643455Y4977667D01*
X18643457Y4977668D01*
X18702061Y5021539D01*
X18702062Y5021540D01*
X18789687Y5138592D01*
X18789689Y5138597D01*
X18840788Y5275595D01*
X18840790Y5275603D01*
X18847299Y5336150D01*
X18847300Y5336167D01*
X18847300Y6957432D01*
X18847299Y6957449D01*
X18840790Y7017996D01*
X18840788Y7018004D01*
X18821400Y7069984D01*
X18789689Y7155004D01*
X18789467Y7155300D01*
X18702061Y7272061D01*
X18635791Y7321670D01*
X18593245Y7378505D01*
X18585300Y7422538D01*
X18585300Y9685900D01*
X18605302Y9754021D01*
X18658958Y9800514D01*
X18711300Y9811900D01*
X23097100Y9811900D01*
X23165221Y9791898D01*
X23211714Y9738242D01*
X23223100Y9685900D01*
X23223100Y6790802D01*
X23203098Y6722681D01*
X23172606Y6689932D01*
X23169839Y6687861D01*
X23169837Y6687858D01*
X23082212Y6570807D01*
X23082210Y6570802D01*
X23031111Y6433804D01*
X23031109Y6433796D01*
X23024600Y6373249D01*
X23024600Y5386950D01*
X23031109Y5326403D01*
X23031111Y5326395D01*
X23082210Y5189397D01*
X23082212Y5189392D01*
X23169839Y5072338D01*
X23228443Y5028467D01*
X23270989Y4971631D01*
X23276053Y4900816D01*
X23242028Y4838504D01*
X23228443Y4826733D01*
X23169839Y4782861D01*
X23082212Y4665807D01*
X23082210Y4665802D01*
X23031111Y4528804D01*
X23031109Y4528796D01*
X23024600Y4468249D01*
X23024600Y3481950D01*
X23031109Y3421403D01*
X23031111Y3421395D01*
X23082210Y3284397D01*
X23082212Y3284392D01*
X23169838Y3167338D01*
X23271809Y3091005D01*
X23314356Y3034170D01*
X23322300Y2990137D01*
X23322300Y2182245D01*
X23322092Y2177129D01*
X23317554Y2121418D01*
X23317554Y2121416D01*
X23328590Y2040420D01*
X23337427Y1959162D01*
X23337759Y1957651D01*
X23342376Y1937949D01*
X23342764Y1936389D01*
X23370948Y1859670D01*
X23397052Y1782200D01*
X23397713Y1780771D01*
X23406460Y1762519D01*
X23407159Y1761108D01*
X23441489Y1707398D01*
X23451179Y1692239D01*
X23467966Y1664338D01*
X23493324Y1622194D01*
X23494264Y1620957D01*
X23506780Y1604948D01*
X23507729Y1603767D01*
X23565551Y1545945D01*
X23621737Y1486630D01*
X23622925Y1485620D01*
X23639928Y1471567D01*
X23812465Y1299031D01*
X23815934Y1295268D01*
X23852125Y1252661D01*
X23852129Y1252657D01*
X23917201Y1203191D01*
X23980918Y1151974D01*
X23982221Y1151142D01*
X23999448Y1140456D01*
X24000781Y1139653D01*
X24074979Y1105325D01*
X24148204Y1069009D01*
X24149705Y1068458D01*
X24168845Y1061720D01*
X24170262Y1061242D01*
X24250101Y1043669D01*
X24329414Y1023944D01*
X24330927Y1023737D01*
X24351139Y1021262D01*
X24352632Y1021100D01*
X24352633Y1021100D01*
X24352634Y1021100D01*
X24434397Y1021100D01*
X24436806Y1021034D01*
X24516089Y1018886D01*
X24517705Y1019018D01*
X24539599Y1021100D01*
X33276154Y1021100D01*
X33281262Y1020892D01*
X33291282Y1020076D01*
X33336981Y1016354D01*
X33336982Y1016354D01*
X33417979Y1027390D01*
X33499234Y1036226D01*
X33500798Y1036570D01*
X33520399Y1041163D01*
X33522015Y1041565D01*
X33598729Y1069748D01*
X33676198Y1095851D01*
X33677591Y1096495D01*
X33695851Y1105246D01*
X33697290Y1105959D01*
X33766160Y1149979D01*
X33836205Y1192124D01*
X33837491Y1193102D01*
X33853408Y1205546D01*
X33854628Y1206526D01*
X33854631Y1206528D01*
X33912454Y1264351D01*
X33971774Y1320542D01*
X33971777Y1320547D01*
X33972881Y1321846D01*
X33986834Y1338731D01*
X33986833Y1338731D01*
X34159378Y1511275D01*
X34163130Y1514734D01*
X34205743Y1550930D01*
X34255208Y1616001D01*
X34306420Y1679712D01*
X34307313Y1681109D01*
X34317932Y1698228D01*
X34318747Y1699584D01*
X34318749Y1699587D01*
X34353074Y1773779D01*
X34357251Y1782200D01*
X34365313Y1798456D01*
X34389390Y1847003D01*
X34389390Y1847006D01*
X34389392Y1847009D01*
X34389958Y1848549D01*
X34396646Y1867546D01*
X34397156Y1869061D01*
X34397157Y1869063D01*
X34414730Y1948901D01*
X34434456Y2028218D01*
X34434684Y2029894D01*
X34437115Y2049738D01*
X34437300Y2051436D01*
X34437300Y2133198D01*
X34439513Y2214889D01*
X34439384Y2216472D01*
X34437300Y2238398D01*
X34437300Y2250590D01*
X34457302Y2318711D01*
X34510958Y2365204D01*
X34519266Y2368645D01*
X34587004Y2393911D01*
X34587007Y2393912D01*
X34704062Y2481539D01*
X34722533Y2506213D01*
X34779369Y2548759D01*
X34850185Y2553823D01*
X34912497Y2519797D01*
X34924267Y2506213D01*
X34942737Y2481539D01*
X35059792Y2393912D01*
X35059797Y2393910D01*
X35196795Y2342811D01*
X35196803Y2342809D01*
X35257350Y2336300D01*
X35257362Y2336300D01*
X36878649Y2336300D01*
X36939196Y2342809D01*
X36939204Y2342811D01*
X37076202Y2393910D01*
X37076207Y2393912D01*
X37193261Y2481538D01*
X37280887Y2598592D01*
X37280889Y2598597D01*
X37331988Y2735595D01*
X37331990Y2735603D01*
X37338499Y2796150D01*
X37338500Y2796167D01*
X37338500Y4417432D01*
X37338499Y4417449D01*
X37331990Y4477996D01*
X37331988Y4478004D01*
X37312600Y4529984D01*
X37280889Y4615004D01*
X37280667Y4615300D01*
X37193261Y4732061D01*
X37134657Y4775932D01*
X37092110Y4832768D01*
X37087046Y4903584D01*
X37121071Y4965896D01*
X37134657Y4977668D01*
X37193261Y5021538D01*
X37280887Y5138592D01*
X37280889Y5138597D01*
X37331988Y5275595D01*
X37331990Y5275603D01*
X37338499Y5336150D01*
X37338500Y5336167D01*
X37338500Y6957432D01*
X37338499Y6957449D01*
X37331990Y7017996D01*
X37331988Y7018004D01*
X37312600Y7069984D01*
X37280889Y7155004D01*
X37280667Y7155300D01*
X37237132Y7213456D01*
X37193261Y7272061D01*
X37193260Y7272062D01*
X37193259Y7272063D01*
X37187697Y7277626D01*
X37153671Y7339938D01*
X37158736Y7410753D01*
X37187697Y7455816D01*
X39239983Y9508102D01*
X39253837Y9520075D01*
X39273267Y9534540D01*
X39307204Y9574985D01*
X39310912Y9579031D01*
X39316791Y9584910D01*
X39337345Y9610905D01*
X39387242Y9670370D01*
X39387245Y9670376D01*
X39391277Y9676505D01*
X39391332Y9676468D01*
X39395379Y9682821D01*
X39395323Y9682857D01*
X39399176Y9689104D01*
X39399177Y9689105D01*
X39431985Y9759462D01*
X39466819Y9828822D01*
X39466819Y9828823D01*
X39466821Y9828827D01*
X39469331Y9835723D01*
X39469395Y9835699D01*
X39471869Y9842815D01*
X39471805Y9842837D01*
X39474113Y9849801D01*
X39489817Y9925859D01*
X39497879Y9959876D01*
X39507710Y10001354D01*
X39507710Y10001359D01*
X39508562Y10008643D01*
X39508628Y10008635D01*
X39509395Y10016136D01*
X39509329Y10016142D01*
X39509967Y10023443D01*
X39509969Y10023452D01*
X39507710Y10101090D01*
X39507710Y16214207D01*
X39527712Y16282328D01*
X39581368Y16328821D01*
X39651642Y16338925D01*
X39699545Y16321640D01*
X39851438Y16228559D01*
X40070807Y16137694D01*
X40301689Y16082265D01*
X40538400Y16063635D01*
X40775111Y16082265D01*
X40848051Y16099776D01*
X41005992Y16137694D01*
X41225361Y16228559D01*
X41229031Y16230808D01*
X41427816Y16352624D01*
X41427817Y16352625D01*
X41427819Y16352626D01*
X41608369Y16506830D01*
X41762573Y16687380D01*
X41762574Y16687382D01*
X41762576Y16687384D01*
X41886640Y16889837D01*
X41977505Y17109206D01*
X42032935Y17340089D01*
X42051565Y17576800D01*
X42039461Y17730585D01*
X42054057Y17800064D01*
X42075978Y17829565D01*
X42342433Y18096020D01*
X42357464Y18108859D01*
X42361568Y18111841D01*
X42368853Y18117134D01*
X42415736Y18169203D01*
X42417971Y18171558D01*
X42433672Y18187259D01*
X42433675Y18187262D01*
X42447628Y18204492D01*
X42449769Y18206998D01*
X42496640Y18259056D01*
X42503676Y18271242D01*
X42514867Y18287526D01*
X42523729Y18298470D01*
X42539950Y18330306D01*
X42555528Y18360880D01*
X42557102Y18363780D01*
X42592127Y18424444D01*
X42596474Y18437823D01*
X42604041Y18456093D01*
X42610429Y18468630D01*
X42628557Y18536287D01*
X42629493Y18539446D01*
X42651142Y18606073D01*
X42652612Y18620062D01*
X42656213Y18639498D01*
X42659857Y18653096D01*
X42663523Y18723066D01*
X42663780Y18726322D01*
X42666099Y18748377D01*
X42666100Y18748391D01*
X42666100Y18770573D01*
X42666185Y18773845D01*
X42669852Y18843809D01*
X42667650Y18857705D01*
X42666100Y18877416D01*
X42666100Y19050500D01*
X42686102Y19118621D01*
X42739758Y19165114D01*
X42792100Y19176500D01*
X42822249Y19176500D01*
X42882796Y19183009D01*
X42882804Y19183011D01*
X43019802Y19234110D01*
X43019807Y19234112D01*
X43136861Y19321738D01*
X43224487Y19438792D01*
X43224489Y19438797D01*
X43275588Y19575795D01*
X43275590Y19575803D01*
X43282099Y19636350D01*
X43282100Y19636367D01*
X43282100Y21257632D01*
X43282099Y21257649D01*
X43275590Y21318196D01*
X43275588Y21318204D01*
X43268560Y21337045D01*
X43224489Y21455204D01*
X43136861Y21572261D01*
X43019804Y21659889D01*
X42882801Y21710989D01*
X42882799Y21710989D01*
X42882796Y21710990D01*
X42822249Y21717499D01*
X42822245Y21717499D01*
X42822238Y21717500D01*
X40692962Y21717500D01*
X40692955Y21717499D01*
X40692950Y21717499D01*
X40632403Y21710990D01*
X40632395Y21710988D01*
X40554475Y21681924D01*
X40495396Y21659889D01*
X40495394Y21659888D01*
X40495392Y21659887D01*
X40378338Y21572261D01*
X40290712Y21455207D01*
X40290710Y21455202D01*
X40239611Y21318204D01*
X40239609Y21318196D01*
X40233100Y21257649D01*
X40233100Y19636350D01*
X40239609Y19575803D01*
X40239611Y19575795D01*
X40290710Y19438797D01*
X40290712Y19438792D01*
X40378338Y19321739D01*
X40406210Y19300874D01*
X40448756Y19244037D01*
X40453819Y19173221D01*
X40419793Y19110910D01*
X40357480Y19076886D01*
X40340598Y19074397D01*
X40301689Y19071335D01*
X40070806Y19015905D01*
X39851437Y18925040D01*
X39851435Y18925038D01*
X39851433Y18925038D01*
X39699545Y18831960D01*
X39631012Y18813421D01*
X39563335Y18834877D01*
X39518002Y18889516D01*
X39507710Y18939392D01*
X39507710Y38746439D01*
X39527712Y38814560D01*
X39544615Y38835534D01*
X42553173Y41844092D01*
X42567027Y41856065D01*
X42586457Y41870530D01*
X42620394Y41910975D01*
X42624102Y41915021D01*
X42629980Y41920899D01*
X42648572Y41944412D01*
X42650537Y41946897D01*
X42657452Y41955138D01*
X42700432Y42006360D01*
X42700435Y42006366D01*
X42704467Y42012495D01*
X42704523Y42012457D01*
X42708571Y42018811D01*
X42708514Y42018847D01*
X42712364Y42025089D01*
X42712365Y42025091D01*
X42712367Y42025094D01*
X42745173Y42095447D01*
X42780009Y42164812D01*
X42780009Y42164814D01*
X42782521Y42171713D01*
X42782584Y42171689D01*
X42785058Y42178806D01*
X42784994Y42178828D01*
X42787302Y42185792D01*
X42802999Y42261817D01*
X42806963Y42278544D01*
X42818483Y42327150D01*
X42853655Y42388819D01*
X42916587Y42421684D01*
X42927616Y42423367D01*
X42933597Y42424010D01*
X42933604Y42424011D01*
X43070602Y42475110D01*
X43070607Y42475112D01*
X43187661Y42562738D01*
X43275287Y42679792D01*
X43275289Y42679797D01*
X43326388Y42816795D01*
X43326390Y42816803D01*
X43332899Y42877350D01*
X43332900Y42877367D01*
X43332900Y44498632D01*
X43332899Y44498649D01*
X43326390Y44559196D01*
X43326388Y44559204D01*
X43319360Y44578045D01*
X43275289Y44696204D01*
X43187661Y44813261D01*
X43129057Y44857132D01*
X43086510Y44913968D01*
X43081446Y44984784D01*
X43115471Y45047096D01*
X43129057Y45058868D01*
X43187661Y45102738D01*
X43275287Y45219792D01*
X43275289Y45219797D01*
X43326388Y45356795D01*
X43326390Y45356803D01*
X43332899Y45417350D01*
X43332900Y45417367D01*
X43332900Y47038632D01*
X43332899Y47038649D01*
X43326390Y47099196D01*
X43326388Y47099204D01*
X43319360Y47118045D01*
X43275289Y47236204D01*
X43187661Y47353261D01*
X43070604Y47440889D01*
X43002867Y47466154D01*
X42946032Y47508700D01*
X42921221Y47575221D01*
X42920900Y47584209D01*
X42920900Y49428069D01*
X42940902Y49496190D01*
X42994558Y49542683D01*
X43002867Y49546124D01*
X43146802Y49599810D01*
X43146807Y49599812D01*
X43263861Y49687438D01*
X43351487Y49804492D01*
X43351489Y49804497D01*
X43402588Y49941495D01*
X43402590Y49941503D01*
X43409099Y50002050D01*
X43409100Y50002067D01*
X43409100Y51496332D01*
X43409099Y51496349D01*
X43402590Y51556896D01*
X43402588Y51556904D01*
X43383640Y51607704D01*
X43351489Y51693904D01*
X43263861Y51810961D01*
X43209822Y51851413D01*
X43167277Y51908245D01*
X43161398Y51929556D01*
X43157190Y51952517D01*
X43156626Y51956225D01*
X43149065Y52018501D01*
X43145450Y52028030D01*
X43139326Y52050004D01*
X43138545Y52054264D01*
X43137489Y52060029D01*
X43111734Y52117252D01*
X43110302Y52120709D01*
X43088054Y52179375D01*
X43082261Y52187766D01*
X43071061Y52207622D01*
X43066875Y52216926D01*
X43028163Y52266336D01*
X43025967Y52269321D01*
X42990315Y52320973D01*
X42943331Y52362596D01*
X42940619Y52365149D01*
X40595463Y54710306D01*
X40561439Y54772616D01*
X40558560Y54799399D01*
X40558560Y55249015D01*
X40566504Y55293046D01*
X40572879Y55310140D01*
X40577049Y55321319D01*
X40577049Y55321321D01*
X40577050Y55321324D01*
X40583559Y55381870D01*
X41067280Y55381870D01*
X41073789Y55321324D01*
X41073791Y55321317D01*
X41084336Y55293046D01*
X41092280Y55249015D01*
X41092280Y55053833D01*
X41092165Y55050028D01*
X41088378Y54987428D01*
X41088377Y54987428D01*
X41099684Y54925721D01*
X41100256Y54921961D01*
X41107814Y54859719D01*
X41111431Y54850181D01*
X41117550Y54828231D01*
X41119389Y54818198D01*
X41119393Y54818185D01*
X41145131Y54760996D01*
X41146587Y54757481D01*
X41168825Y54698846D01*
X41174626Y54690441D01*
X41185815Y54670600D01*
X41190002Y54661299D01*
X41190007Y54661289D01*
X41228684Y54611921D01*
X41230937Y54608859D01*
X41266564Y54557246D01*
X41313520Y54515646D01*
X41316291Y54513038D01*
X43955833Y51873495D01*
X43989859Y51811183D01*
X43984794Y51740368D01*
X43984793Y51740367D01*
X43935311Y51607704D01*
X43935309Y51607696D01*
X43928800Y51547149D01*
X43928800Y50052850D01*
X43935309Y49992303D01*
X43935311Y49992295D01*
X43986410Y49855296D01*
X44051120Y49768853D01*
X44068517Y49736809D01*
X44071947Y49727476D01*
X44098052Y49649999D01*
X44098713Y49648571D01*
X44107460Y49630319D01*
X44108159Y49628908D01*
X44152180Y49560038D01*
X44194324Y49489994D01*
X44195264Y49488757D01*
X44207784Y49472742D01*
X44208732Y49471563D01*
X44266551Y49413746D01*
X44322740Y49354427D01*
X44323944Y49353404D01*
X44340933Y49339363D01*
X47358995Y46321302D01*
X47393021Y46258990D01*
X47395900Y46232207D01*
X47395900Y45417350D01*
X47402409Y45356803D01*
X47402411Y45356795D01*
X47453510Y45219797D01*
X47453512Y45219792D01*
X47541139Y45102738D01*
X47599743Y45058867D01*
X47642289Y45002031D01*
X47647353Y44931216D01*
X47613328Y44868904D01*
X47599743Y44857133D01*
X47541139Y44813261D01*
X47453512Y44696207D01*
X47453510Y44696202D01*
X47402411Y44559204D01*
X47402409Y44559196D01*
X47395900Y44498649D01*
X47395900Y42877350D01*
X47402409Y42816803D01*
X47402411Y42816795D01*
X47453510Y42679797D01*
X47453512Y42679792D01*
X47541138Y42562738D01*
X47658192Y42475112D01*
X47658197Y42475110D01*
X47795195Y42424011D01*
X47795203Y42424009D01*
X47855750Y42417500D01*
X47855762Y42417500D01*
X49477049Y42417500D01*
X49537596Y42424009D01*
X49537604Y42424011D01*
X49674602Y42475110D01*
X49674607Y42475112D01*
X49791661Y42562738D01*
X49879287Y42679792D01*
X49879289Y42679797D01*
X49930388Y42816795D01*
X49930390Y42816803D01*
X49936899Y42877350D01*
X49936900Y42877367D01*
X49936900Y44498632D01*
X49936899Y44498649D01*
X49930390Y44559196D01*
X49930388Y44559204D01*
X49923360Y44578045D01*
X49879289Y44696204D01*
X49791661Y44813261D01*
X49733057Y44857132D01*
X49690510Y44913968D01*
X49685446Y44984784D01*
X49719471Y45047096D01*
X49733057Y45058868D01*
X49791661Y45102738D01*
X49879287Y45219792D01*
X49879289Y45219797D01*
X49930388Y45356795D01*
X49930390Y45356803D01*
X49936899Y45417350D01*
X49936900Y45417367D01*
X49936900Y47038632D01*
X49936899Y47038649D01*
X49930390Y47099196D01*
X49930388Y47099204D01*
X49923360Y47118045D01*
X49879289Y47236204D01*
X49791661Y47353261D01*
X49674604Y47440889D01*
X49537601Y47491989D01*
X49537599Y47491989D01*
X49537596Y47491990D01*
X49477049Y47498499D01*
X49477045Y47498499D01*
X49477038Y47498500D01*
X49477032Y47498500D01*
X48662192Y47498500D01*
X48594071Y47518502D01*
X48573097Y47535405D01*
X45871705Y50236797D01*
X45837679Y50299109D01*
X45834800Y50325892D01*
X45834800Y51547132D01*
X45834799Y51547149D01*
X45828290Y51607696D01*
X45828288Y51607704D01*
X45796137Y51693903D01*
X45777189Y51744704D01*
X45689561Y51861761D01*
X45644702Y51895341D01*
X45602157Y51952173D01*
X45594441Y51988608D01*
X45594200Y51992577D01*
X45594201Y51992593D01*
X45582894Y52054287D01*
X45582325Y52058029D01*
X45582083Y52060026D01*
X45574765Y52120301D01*
X45571150Y52129830D01*
X45565024Y52151809D01*
X45563188Y52161829D01*
X45563187Y52161832D01*
X45555291Y52179375D01*
X45537433Y52219052D01*
X45536006Y52222498D01*
X45513754Y52281175D01*
X45507961Y52289566D01*
X45496761Y52309422D01*
X45492575Y52318726D01*
X45453863Y52368136D01*
X45451667Y52371121D01*
X45416015Y52422773D01*
X45369031Y52464396D01*
X45366319Y52466949D01*
X43126345Y54706925D01*
X43092319Y54769237D01*
X43097384Y54840053D01*
X43139931Y54896888D01*
X43206451Y54921699D01*
X43215440Y54922020D01*
X43369811Y54922020D01*
X43369818Y54922020D01*
X43369824Y54922020D01*
X43369831Y54922021D01*
X43407832Y54926106D01*
X43434765Y54926106D01*
X43472765Y54922021D01*
X43472777Y54922020D01*
X43472782Y54922020D01*
X43472789Y54922020D01*
X44020051Y54922020D01*
X44020058Y54922020D01*
X44020064Y54922020D01*
X44020071Y54922021D01*
X44058072Y54926106D01*
X44085005Y54926106D01*
X44123005Y54922021D01*
X44123017Y54922020D01*
X44123022Y54922020D01*
X44123029Y54922020D01*
X44670291Y54922020D01*
X44670298Y54922020D01*
X44670304Y54922020D01*
X44670311Y54922021D01*
X44708312Y54926106D01*
X44735245Y54926106D01*
X44773245Y54922021D01*
X44773257Y54922020D01*
X44773262Y54922020D01*
X44773269Y54922020D01*
X45320531Y54922020D01*
X45320538Y54922020D01*
X45320544Y54922020D01*
X45320551Y54922021D01*
X45358552Y54926106D01*
X45385485Y54926106D01*
X45423485Y54922021D01*
X45423497Y54922020D01*
X45423502Y54922020D01*
X45423509Y54922020D01*
X45970771Y54922020D01*
X45970778Y54922020D01*
X45970784Y54922020D01*
X45970791Y54922021D01*
X46008792Y54926106D01*
X46035725Y54926106D01*
X46073725Y54922021D01*
X46073737Y54922020D01*
X46073742Y54922020D01*
X46073749Y54922020D01*
X46621011Y54922020D01*
X46621018Y54922020D01*
X46621024Y54922020D01*
X46621031Y54922021D01*
X46659032Y54926106D01*
X46685965Y54926106D01*
X46723965Y54922021D01*
X46723977Y54922020D01*
X46723982Y54922020D01*
X46723989Y54922020D01*
X47271269Y54922020D01*
X47331816Y54928529D01*
X47331824Y54928531D01*
X47468822Y54979630D01*
X47468827Y54979632D01*
X47585881Y55067258D01*
X47673507Y55184312D01*
X47673509Y55184317D01*
X47679438Y55200211D01*
X47698497Y55251311D01*
X47724608Y55321315D01*
X47724610Y55321323D01*
X47731119Y55381870D01*
X47731120Y55381887D01*
X47731120Y57079152D01*
X47731119Y57079169D01*
X47724610Y57139716D01*
X47724608Y57139724D01*
X47712809Y57171358D01*
X47673509Y57276724D01*
X47585881Y57393781D01*
X47468824Y57481409D01*
X47331821Y57532509D01*
X47331819Y57532509D01*
X47331816Y57532510D01*
X47271269Y57539019D01*
X47271265Y57539019D01*
X47271258Y57539020D01*
X46723982Y57539020D01*
X46685967Y57534933D01*
X46659031Y57534933D01*
X46621018Y57539020D01*
X46073742Y57539020D01*
X46035727Y57534933D01*
X46008791Y57534933D01*
X45970778Y57539020D01*
X45423502Y57539020D01*
X45385487Y57534933D01*
X45358551Y57534933D01*
X45320538Y57539020D01*
X44773262Y57539020D01*
X44735247Y57534933D01*
X44708311Y57534933D01*
X44670298Y57539020D01*
X44123022Y57539020D01*
X44085007Y57534933D01*
X44058071Y57534933D01*
X44020058Y57539020D01*
X43472782Y57539020D01*
X43434767Y57534933D01*
X43407831Y57534933D01*
X43369818Y57539020D01*
X42822542Y57539020D01*
X42787068Y57535206D01*
X42760132Y57535206D01*
X42724658Y57539020D01*
X42177382Y57539020D01*
X42139368Y57534933D01*
X42112432Y57534933D01*
X42074418Y57539020D01*
X41527142Y57539020D01*
X41527135Y57539019D01*
X41527130Y57539019D01*
X41466583Y57532510D01*
X41466575Y57532508D01*
X41388655Y57503444D01*
X41329576Y57481409D01*
X41329574Y57481408D01*
X41329572Y57481407D01*
X41212518Y57393781D01*
X41124892Y57276727D01*
X41124890Y57276722D01*
X41073791Y57139724D01*
X41073789Y57139716D01*
X41067280Y57079169D01*
X41067280Y55381870D01*
X40583559Y55381870D01*
X40583560Y55381887D01*
X40583560Y57079152D01*
X40583559Y57079169D01*
X40577050Y57139716D01*
X40577048Y57139724D01*
X40565249Y57171358D01*
X40525949Y57276724D01*
X40438321Y57393781D01*
X40321264Y57481409D01*
X40184261Y57532509D01*
X40184259Y57532509D01*
X40184256Y57532510D01*
X40123709Y57539019D01*
X40123705Y57539019D01*
X40123698Y57539020D01*
X39576422Y57539020D01*
X39538408Y57534933D01*
X39511472Y57534933D01*
X39473458Y57539020D01*
X38926182Y57539020D01*
X38888168Y57534933D01*
X38861232Y57534933D01*
X38823218Y57539020D01*
X38275942Y57539020D01*
X38275935Y57539019D01*
X38275930Y57539019D01*
X38215383Y57532510D01*
X38215375Y57532508D01*
X38137455Y57503444D01*
X38078376Y57481409D01*
X38078374Y57481408D01*
X38078372Y57481407D01*
X37961318Y57393781D01*
X37873692Y57276727D01*
X37873690Y57276722D01*
X37822591Y57139724D01*
X37822589Y57139716D01*
X37816080Y57079169D01*
X37816080Y57065020D01*
X37796078Y56996899D01*
X37742422Y56950406D01*
X37690080Y56939020D01*
X37090725Y56939020D01*
X37022604Y56959022D01*
X37015216Y56964152D01*
X36911107Y57042087D01*
X36911106Y57042087D01*
X36911104Y57042089D01*
X36774101Y57093189D01*
X36774099Y57093189D01*
X36774096Y57093190D01*
X36713549Y57099699D01*
X36713545Y57099699D01*
X36713538Y57099700D01*
X35219262Y57099700D01*
X35219255Y57099699D01*
X35219250Y57099699D01*
X35158703Y57093190D01*
X35158695Y57093188D01*
X35019833Y57041394D01*
X34949018Y57036328D01*
X34931767Y57041394D01*
X34792904Y57093188D01*
X34792903Y57093188D01*
X34792901Y57093189D01*
X34792899Y57093189D01*
X34792896Y57093190D01*
X34732349Y57099699D01*
X34732345Y57099699D01*
X34732338Y57099700D01*
X33238062Y57099700D01*
X33238055Y57099699D01*
X33238050Y57099699D01*
X33177503Y57093190D01*
X33177495Y57093188D01*
X33101976Y57065020D01*
X33040496Y57042089D01*
X33040494Y57042088D01*
X33040492Y57042087D01*
X32923438Y56954461D01*
X32835812Y56837407D01*
X32835810Y56837402D01*
X32784711Y56700404D01*
X32784709Y56700396D01*
X32778200Y56639849D01*
X32778200Y55653550D01*
X32784709Y55593003D01*
X32784711Y55592995D01*
X32835810Y55455997D01*
X32835812Y55455992D01*
X32923437Y55338940D01*
X32961910Y55310140D01*
X33004456Y55253303D01*
X33012400Y55209272D01*
X33012399Y54766332D01*
X32992397Y54698211D01*
X32975495Y54677237D01*
X32823741Y54525483D01*
X32761432Y54491460D01*
X32734648Y54488580D01*
X31513340Y54488580D01*
X31445219Y54508582D01*
X31424245Y54525485D01*
X31187025Y54762705D01*
X31152999Y54825017D01*
X31158064Y54895832D01*
X31200611Y54952668D01*
X31267131Y54977479D01*
X31276120Y54977800D01*
X31874849Y54977800D01*
X31935396Y54984309D01*
X31935404Y54984311D01*
X32072402Y55035410D01*
X32072407Y55035412D01*
X32189461Y55123038D01*
X32277087Y55240092D01*
X32277089Y55240097D01*
X32280416Y55249015D01*
X32303214Y55310140D01*
X32328188Y55377095D01*
X32328190Y55377103D01*
X32334699Y55437650D01*
X32334700Y55437667D01*
X32334700Y56931932D01*
X32334699Y56931949D01*
X32328190Y56992496D01*
X32328188Y56992504D01*
X32311842Y57036328D01*
X32277089Y57129504D01*
X32269444Y57139716D01*
X32245757Y57171358D01*
X32189461Y57246561D01*
X32140689Y57283070D01*
X32098144Y57339904D01*
X32090199Y57383933D01*
X32090199Y57807640D01*
X32110201Y57875761D01*
X32127104Y57896735D01*
X34841202Y60610832D01*
X34903514Y60644858D01*
X34974330Y60639793D01*
X35005805Y60622606D01*
X35021693Y60610712D01*
X35021697Y60610710D01*
X35158695Y60559611D01*
X35158703Y60559609D01*
X35219250Y60553100D01*
X35219262Y60553100D01*
X36713549Y60553100D01*
X36774096Y60559609D01*
X36774104Y60559611D01*
X36911102Y60610710D01*
X36911107Y60610712D01*
X37028161Y60698338D01*
X37115787Y60815392D01*
X37115789Y60815397D01*
X37166888Y60952395D01*
X37166890Y60952403D01*
X37172829Y61007648D01*
X37199997Y61073240D01*
X37258315Y61113732D01*
X37298107Y61120180D01*
X37690080Y61120180D01*
X37758201Y61100178D01*
X37804694Y61046522D01*
X37816080Y60994180D01*
X37816080Y60980030D01*
X37822589Y60919483D01*
X37822591Y60919475D01*
X37873690Y60782477D01*
X37873692Y60782472D01*
X37961318Y60665418D01*
X38078372Y60577792D01*
X38078377Y60577790D01*
X38215375Y60526691D01*
X38215383Y60526689D01*
X38275930Y60520180D01*
X38275942Y60520180D01*
X38823211Y60520180D01*
X38823218Y60520180D01*
X38823224Y60520180D01*
X38823231Y60520181D01*
X38861233Y60524266D01*
X38888167Y60524266D01*
X38926168Y60520181D01*
X38926176Y60520180D01*
X38926182Y60520180D01*
X38926189Y60520180D01*
X39473451Y60520180D01*
X39473458Y60520180D01*
X39473464Y60520180D01*
X39473471Y60520181D01*
X39511473Y60524266D01*
X39538407Y60524266D01*
X39576408Y60520181D01*
X39576416Y60520180D01*
X39576422Y60520180D01*
X39576429Y60520180D01*
X40123691Y60520180D01*
X40123698Y60520180D01*
X40123704Y60520180D01*
X40123711Y60520181D01*
X40161713Y60524266D01*
X40188647Y60524266D01*
X40226648Y60520181D01*
X40226656Y60520180D01*
X40226662Y60520180D01*
X40226669Y60520180D01*
X40773931Y60520180D01*
X40773938Y60520180D01*
X40773944Y60520180D01*
X40773951Y60520181D01*
X40811953Y60524266D01*
X40838887Y60524266D01*
X40876888Y60520181D01*
X40876896Y60520180D01*
X40876902Y60520180D01*
X40876909Y60520180D01*
X41424171Y60520180D01*
X41424178Y60520180D01*
X41424184Y60520180D01*
X41424191Y60520181D01*
X41462193Y60524266D01*
X41489127Y60524266D01*
X41527128Y60520181D01*
X41527136Y60520180D01*
X41527142Y60520180D01*
X41527149Y60520180D01*
X42074411Y60520180D01*
X42074418Y60520180D01*
X42074424Y60520180D01*
X42074431Y60520181D01*
X42112433Y60524266D01*
X42139367Y60524266D01*
X42177368Y60520181D01*
X42177376Y60520180D01*
X42177382Y60520180D01*
X42177389Y60520180D01*
X42724651Y60520180D01*
X42724658Y60520180D01*
X42724664Y60520180D01*
X42724671Y60520181D01*
X42760133Y60523993D01*
X42787067Y60523993D01*
X42822528Y60520181D01*
X42822536Y60520180D01*
X42822542Y60520180D01*
X42822549Y60520180D01*
X43369811Y60520180D01*
X43369818Y60520180D01*
X43369824Y60520180D01*
X43369831Y60520181D01*
X43407832Y60524266D01*
X43434765Y60524266D01*
X43472765Y60520181D01*
X43472777Y60520180D01*
X43472782Y60520180D01*
X43472789Y60520180D01*
X44020051Y60520180D01*
X44020058Y60520180D01*
X44020064Y60520180D01*
X44020071Y60520181D01*
X44058072Y60524266D01*
X44085005Y60524266D01*
X44123005Y60520181D01*
X44123017Y60520180D01*
X44123022Y60520180D01*
X44123029Y60520180D01*
X44670291Y60520180D01*
X44670298Y60520180D01*
X44670304Y60520180D01*
X44670311Y60520181D01*
X44708312Y60524266D01*
X44735245Y60524266D01*
X44773245Y60520181D01*
X44773257Y60520180D01*
X44773262Y60520180D01*
X44773269Y60520180D01*
X45320531Y60520180D01*
X45320538Y60520180D01*
X45320544Y60520180D01*
X45320551Y60520181D01*
X45358552Y60524266D01*
X45385485Y60524266D01*
X45423485Y60520181D01*
X45423497Y60520180D01*
X45423502Y60520180D01*
X45423509Y60520180D01*
X45970771Y60520180D01*
X45970778Y60520180D01*
X45970784Y60520180D01*
X45970791Y60520181D01*
X46008792Y60524266D01*
X46035725Y60524266D01*
X46073725Y60520181D01*
X46073737Y60520180D01*
X46073742Y60520180D01*
X46073749Y60520180D01*
X46621029Y60520180D01*
X46681576Y60526689D01*
X46681584Y60526691D01*
X46818582Y60577790D01*
X46818587Y60577792D01*
X46935641Y60665418D01*
X47023267Y60782472D01*
X47023269Y60782477D01*
X47035548Y60815396D01*
X47074369Y60919479D01*
X47074370Y60919483D01*
X47080879Y60980030D01*
X47080880Y60980047D01*
X47080880Y62677312D01*
X47080880Y62677318D01*
X47079277Y62692225D01*
X47091881Y62762092D01*
X47115460Y62794790D01*
X48243665Y63922995D01*
X48305977Y63957021D01*
X48332760Y63959900D01*
X50008285Y63959900D01*
X50012088Y63959785D01*
X50074693Y63955998D01*
X50074694Y63955998D01*
X50111459Y63962735D01*
X50136386Y63967302D01*
X50140137Y63967873D01*
X50149962Y63969067D01*
X50202394Y63975433D01*
X50202398Y63975434D01*
X50202401Y63975435D01*
X50211936Y63979050D01*
X50233886Y63985170D01*
X50243929Y63987011D01*
X50243930Y63987011D01*
X50243932Y63987012D01*
X50301128Y64012753D01*
X50304643Y64014209D01*
X50340305Y64027734D01*
X50363275Y64036446D01*
X50371670Y64042241D01*
X50391519Y64053435D01*
X50400822Y64057623D01*
X50400826Y64057625D01*
X50431746Y64081849D01*
X50450190Y64096299D01*
X50453255Y64098554D01*
X50504871Y64134183D01*
X50504873Y64134185D01*
X50546480Y64181150D01*
X50549064Y64183894D01*
X54383303Y68018133D01*
X54386057Y68020726D01*
X54433012Y68062324D01*
X54433013Y68062325D01*
X54433015Y68062327D01*
X54468652Y68113955D01*
X54470893Y68117001D01*
X54509575Y68166375D01*
X54513758Y68175670D01*
X54524962Y68195534D01*
X54524963Y68195535D01*
X54530754Y68203925D01*
X54553000Y68262586D01*
X54554445Y68266072D01*
X54580189Y68323271D01*
X54580288Y68323812D01*
X54580470Y68324174D01*
X54582456Y68330546D01*
X54583515Y68330215D01*
X54612241Y68387211D01*
X54673398Y68423271D01*
X54704224Y68427100D01*
X54709449Y68427100D01*
X54769996Y68433609D01*
X54770004Y68433611D01*
X54907002Y68484710D01*
X54907007Y68484712D01*
X55024061Y68572338D01*
X55111687Y68689392D01*
X55111688Y68689395D01*
X55111689Y68689396D01*
X55118305Y68707134D01*
X55160852Y68763969D01*
X55227373Y68788779D01*
X55236360Y68789100D01*
X55379383Y68789100D01*
X55399094Y68787549D01*
X55412993Y68785347D01*
X55455725Y68787587D01*
X55482953Y68789014D01*
X55486224Y68789100D01*
X55508403Y68789100D01*
X55508410Y68789100D01*
X55508415Y68789100D01*
X55508424Y68789101D01*
X55526579Y68791009D01*
X55530474Y68791418D01*
X55533756Y68791676D01*
X55603702Y68795342D01*
X55617295Y68798984D01*
X55636722Y68802585D01*
X55648950Y68803871D01*
X55650728Y68804058D01*
X55650729Y68804058D01*
X55650733Y68804059D01*
X55681316Y68813996D01*
X55717375Y68825712D01*
X55720512Y68826641D01*
X55788169Y68844770D01*
X55794875Y68848187D01*
X55800709Y68851159D01*
X55818969Y68858723D01*
X55832354Y68863072D01*
X55873707Y68886947D01*
X55893018Y68898096D01*
X55895902Y68899662D01*
X55958330Y68931471D01*
X55969274Y68940332D01*
X55985551Y68951520D01*
X55997744Y68958560D01*
X56049802Y69005432D01*
X56052307Y69007571D01*
X56056457Y69010932D01*
X56069541Y69021528D01*
X56085239Y69037226D01*
X56087596Y69039463D01*
X56111128Y69060651D01*
X56139665Y69086345D01*
X56147935Y69097728D01*
X56160777Y69112764D01*
X60325633Y73277620D01*
X60340664Y73290459D01*
X60344768Y73293441D01*
X60352053Y73298734D01*
X60398936Y73350803D01*
X60401171Y73353158D01*
X60416872Y73368859D01*
X60416875Y73368862D01*
X60430828Y73386092D01*
X60432969Y73388598D01*
X60468750Y73428339D01*
X60479258Y73440009D01*
X60539703Y73477249D01*
X60572895Y73481700D01*
X60805449Y73481700D01*
X60865996Y73488209D01*
X60866004Y73488211D01*
X61003002Y73539310D01*
X61003007Y73539312D01*
X61120061Y73626938D01*
X61207687Y73743992D01*
X61207689Y73743997D01*
X61258788Y73880995D01*
X61258790Y73881003D01*
X61265299Y73941550D01*
X61265300Y73941567D01*
X61265300Y75562832D01*
X61265299Y75562849D01*
X61258790Y75623396D01*
X61258788Y75623404D01*
X61243479Y75664449D01*
X61207689Y75760404D01*
X61131633Y75862002D01*
X61120061Y75877461D01*
X60998291Y75968617D01*
X60955744Y76025452D01*
X60947800Y76069485D01*
X60947800Y76096232D01*
X60947799Y76096249D01*
X60941290Y76156796D01*
X60941288Y76156804D01*
X60934260Y76175645D01*
X60890189Y76293804D01*
X60880683Y76306502D01*
X60802561Y76410861D01*
X60743957Y76454732D01*
X60701410Y76511568D01*
X60696346Y76582384D01*
X60730371Y76644696D01*
X60743957Y76656468D01*
X60802560Y76700338D01*
X60802561Y76700339D01*
X60849154Y76762580D01*
X60905988Y76805125D01*
X61003001Y76841309D01*
X61014522Y76849933D01*
X61029126Y76860866D01*
X61120061Y76928938D01*
X61207687Y77045992D01*
X61207688Y77045995D01*
X61207689Y77045996D01*
X61214305Y77063734D01*
X61256852Y77120569D01*
X61323373Y77145379D01*
X61332360Y77145700D01*
X63350897Y77145700D01*
X63419018Y77125698D01*
X63439992Y77108795D01*
X64535795Y76012991D01*
X64569821Y75950679D01*
X64572700Y75923896D01*
X64572700Y71326384D01*
X64587657Y71184071D01*
X64616533Y71095203D01*
X64622700Y71056267D01*
X64622700Y42114592D01*
X64602698Y42046471D01*
X64585795Y42025497D01*
X63005704Y40445406D01*
X62943392Y40411380D01*
X62916609Y40408501D01*
X49960993Y40408501D01*
X49892872Y40428503D01*
X49871898Y40445405D01*
X49785605Y40531698D01*
X49350722Y40966578D01*
X49347279Y40970313D01*
X49311071Y41012942D01*
X49245987Y41062417D01*
X49182287Y41113621D01*
X49182281Y41113624D01*
X49180793Y41114575D01*
X49163928Y41125036D01*
X49162421Y41125942D01*
X49162413Y41125949D01*
X49088220Y41160274D01*
X49014997Y41196590D01*
X49014983Y41196593D01*
X49013313Y41197207D01*
X48994601Y41203795D01*
X48992944Y41204353D01*
X48992937Y41204357D01*
X48913093Y41221931D01*
X48833781Y41241656D01*
X48833779Y41241656D01*
X48832097Y41241885D01*
X48812215Y41244320D01*
X48810567Y41244499D01*
X48810567Y41244500D01*
X48810566Y41244500D01*
X48728802Y41244500D01*
X48647114Y41246713D01*
X48647113Y41246712D01*
X48647109Y41246713D01*
X48645493Y41246581D01*
X48623600Y41244500D01*
X45173460Y41244500D01*
X45168350Y41244707D01*
X45142819Y41246786D01*
X45112619Y41249246D01*
X45112617Y41249245D01*
X45112616Y41249246D01*
X45076462Y41244320D01*
X45031604Y41238208D01*
X44950366Y41229373D01*
X44950362Y41229372D01*
X44950360Y41229372D01*
X44950357Y41229371D01*
X44948761Y41229020D01*
X44929199Y41224436D01*
X44927593Y41224036D01*
X44927591Y41224036D01*
X44850862Y41195847D01*
X44773400Y41169748D01*
X44773397Y41169746D01*
X44773393Y41169745D01*
X44771869Y41169040D01*
X44753826Y41160394D01*
X44752306Y41159640D01*
X44698545Y41125276D01*
X44683432Y41115616D01*
X44613395Y41073476D01*
X44613393Y41073474D01*
X44612131Y41072515D01*
X44596192Y41060055D01*
X44594966Y41059069D01*
X44537164Y41001266D01*
X44477827Y40945059D01*
X44476769Y40943814D01*
X44462761Y40926863D01*
X43869438Y40333540D01*
X43865679Y40330074D01*
X43823058Y40293871D01*
X43773582Y40228787D01*
X43722379Y40165087D01*
X43722377Y40165083D01*
X43721498Y40163708D01*
X43710861Y40146561D01*
X43710051Y40145214D01*
X43675725Y40071021D01*
X43639410Y39997798D01*
X43638864Y39996312D01*
X43632152Y39977249D01*
X43631642Y39975736D01*
X43614068Y39895893D01*
X43594343Y39816582D01*
X43594139Y39815082D01*
X43591662Y39794861D01*
X43591500Y39793369D01*
X43591500Y39711600D01*
X43589227Y39627718D01*
X43567387Y39560164D01*
X43512491Y39515141D01*
X43476739Y39505853D01*
X43440804Y39501990D01*
X43440795Y39501988D01*
X43372807Y39476629D01*
X43303796Y39450889D01*
X43303794Y39450888D01*
X43303792Y39450887D01*
X43186738Y39363261D01*
X43099112Y39246207D01*
X43099110Y39246202D01*
X43048011Y39109204D01*
X43048009Y39109196D01*
X43043907Y39071032D01*
X43016738Y39005439D01*
X42958420Y38964948D01*
X42918629Y38958500D01*
X42887448Y38958500D01*
X42882341Y38958707D01*
X42849230Y38961403D01*
X42826618Y38963245D01*
X42826616Y38963244D01*
X42826615Y38963245D01*
X42745620Y38952209D01*
X42664360Y38943372D01*
X42664358Y38943371D01*
X42664354Y38943371D01*
X42662710Y38943009D01*
X42643326Y38938467D01*
X42641594Y38938036D01*
X42641590Y38938036D01*
X42585034Y38917258D01*
X42564870Y38909850D01*
X42487405Y38883750D01*
X42487402Y38883748D01*
X42487400Y38883748D01*
X42487397Y38883746D01*
X42485840Y38883025D01*
X42467876Y38874417D01*
X42466313Y38873642D01*
X42466310Y38873641D01*
X42397439Y38829620D01*
X42327395Y38787476D01*
X42327394Y38787475D01*
X42326095Y38786487D01*
X42310243Y38774095D01*
X42308962Y38773066D01*
X42251146Y38715249D01*
X42191827Y38659059D01*
X42190765Y38657809D01*
X42176766Y38640869D01*
X41227832Y37691934D01*
X41224067Y37688464D01*
X41210372Y37676831D01*
X41181458Y37652271D01*
X41131982Y37587187D01*
X41080779Y37523487D01*
X41080777Y37523483D01*
X41079898Y37522108D01*
X41069261Y37504961D01*
X41068451Y37503614D01*
X41034125Y37429421D01*
X40997810Y37356198D01*
X40997264Y37354712D01*
X40990552Y37335649D01*
X40990042Y37334136D01*
X40972468Y37254293D01*
X40952743Y37174982D01*
X40952539Y37173482D01*
X40950062Y37153261D01*
X40949900Y37151769D01*
X40949900Y37070000D01*
X40947686Y36988310D01*
X40947818Y36986694D01*
X40949900Y36964801D01*
X40949900Y25145500D01*
X40929898Y25077379D01*
X40876242Y25030886D01*
X40823900Y25019500D01*
X40692962Y25019500D01*
X40692955Y25019499D01*
X40692950Y25019499D01*
X40632403Y25012990D01*
X40632395Y25012988D01*
X40554475Y24983924D01*
X40495396Y24961889D01*
X40495394Y24961888D01*
X40495392Y24961887D01*
X40378338Y24874261D01*
X40290712Y24757207D01*
X40290710Y24757202D01*
X40239611Y24620204D01*
X40239609Y24620196D01*
X40233100Y24559649D01*
X40233100Y22938350D01*
X40239609Y22877803D01*
X40239611Y22877795D01*
X40290710Y22740797D01*
X40290712Y22740792D01*
X40378338Y22623738D01*
X40495392Y22536112D01*
X40495397Y22536110D01*
X40632395Y22485011D01*
X40632403Y22485009D01*
X40692950Y22478500D01*
X40692962Y22478500D01*
X42822249Y22478500D01*
X42882796Y22485009D01*
X42882804Y22485011D01*
X43019802Y22536110D01*
X43019807Y22536112D01*
X43136861Y22623738D01*
X43224487Y22740792D01*
X43224489Y22740797D01*
X43275588Y22877795D01*
X43275590Y22877803D01*
X43282099Y22938350D01*
X43282100Y22938367D01*
X43282100Y24466432D01*
X43302102Y24534553D01*
X43355758Y24581046D01*
X43397118Y24591952D01*
X43503052Y24601220D01*
X43503058Y24601221D01*
X43503061Y24601221D01*
X43503063Y24601222D01*
X43639197Y24637699D01*
X43717793Y24658759D01*
X43717799Y24658761D01*
X43919275Y24752711D01*
X43919277Y24752712D01*
X44101372Y24880216D01*
X44101383Y24880225D01*
X44258574Y25037416D01*
X44258577Y25037419D01*
X44286558Y25077379D01*
X44386087Y25219522D01*
X44386091Y25219528D01*
X44444874Y25345590D01*
X44469704Y25398839D01*
X44516621Y25452125D01*
X44584898Y25471586D01*
X44652858Y25451044D01*
X44698924Y25397022D01*
X44709899Y25345590D01*
X44709900Y18842762D01*
X44689898Y18774641D01*
X44665734Y18746955D01*
X44548431Y18646769D01*
X44548429Y18646766D01*
X44548427Y18646765D01*
X44394226Y18466219D01*
X44394225Y18466217D01*
X44394224Y18466216D01*
X44274741Y18271238D01*
X44270159Y18263761D01*
X44179294Y18044392D01*
X44123865Y17813510D01*
X44105235Y17576799D01*
X44123865Y17340089D01*
X44179294Y17109207D01*
X44270159Y16889838D01*
X44394225Y16687382D01*
X44394226Y16687380D01*
X44548430Y16506830D01*
X44728980Y16352626D01*
X44728982Y16352625D01*
X44931438Y16228559D01*
X45150807Y16137694D01*
X45381689Y16082265D01*
X45618400Y16063635D01*
X45855111Y16082265D01*
X45928051Y16099776D01*
X46085992Y16137694D01*
X46305361Y16228559D01*
X46309031Y16230808D01*
X46507816Y16352624D01*
X46507817Y16352625D01*
X46507819Y16352626D01*
X46688369Y16506830D01*
X46842573Y16687380D01*
X46842574Y16687382D01*
X46842576Y16687384D01*
X46966640Y16889837D01*
X47057505Y17109206D01*
X47112935Y17340089D01*
X47131565Y17576800D01*
X47112935Y17813511D01*
X47057505Y18044394D01*
X46966640Y18263763D01*
X46842576Y18466216D01*
X46688369Y18646769D01*
X46571067Y18746953D01*
X46532261Y18806401D01*
X46526900Y18842762D01*
X46526900Y27003496D01*
X46546902Y27071617D01*
X46563805Y27092591D01*
X50987008Y31515795D01*
X51049320Y31549821D01*
X51076103Y31552700D01*
X58950989Y31552700D01*
X58970700Y31551149D01*
X58984599Y31548947D01*
X59027331Y31551187D01*
X59054559Y31552614D01*
X59057830Y31552700D01*
X59080009Y31552700D01*
X59080016Y31552700D01*
X59080021Y31552700D01*
X59080030Y31552701D01*
X59098185Y31554609D01*
X59102080Y31555018D01*
X59105362Y31555276D01*
X59175308Y31558942D01*
X59188901Y31562584D01*
X59208328Y31566185D01*
X59220556Y31567471D01*
X59222334Y31567658D01*
X59222335Y31567658D01*
X59222339Y31567659D01*
X59252922Y31577596D01*
X59288981Y31589312D01*
X59292118Y31590241D01*
X59359775Y31608370D01*
X59366481Y31611787D01*
X59372315Y31614759D01*
X59390575Y31622323D01*
X59403960Y31626672D01*
X59464623Y31661696D01*
X59467508Y31663262D01*
X59529936Y31695071D01*
X59540880Y31703932D01*
X59557157Y31715120D01*
X59569350Y31722160D01*
X59621408Y31769032D01*
X59623913Y31771171D01*
X59628063Y31774532D01*
X59641147Y31785128D01*
X59656845Y31800826D01*
X59659202Y31803063D01*
X59682734Y31824251D01*
X59711271Y31849945D01*
X59719541Y31861328D01*
X59732383Y31876364D01*
X68199633Y40343614D01*
X68214664Y40356453D01*
X68226053Y40364728D01*
X68264663Y40407609D01*
X68325109Y40444849D01*
X68396093Y40443498D01*
X68455078Y40403984D01*
X68483336Y40338854D01*
X68484300Y40323299D01*
X68484300Y38630102D01*
X68464298Y38561981D01*
X68447399Y38541012D01*
X63312992Y33406605D01*
X58182192Y28275805D01*
X58119880Y28241779D01*
X58093097Y28238900D01*
X50793887Y28238900D01*
X50602913Y28238900D01*
X50559314Y28229632D01*
X50552809Y28228601D01*
X50533948Y28226619D01*
X50508478Y28223943D01*
X50508475Y28223942D01*
X50508472Y28223942D01*
X50493988Y28219235D01*
X50466077Y28210167D01*
X50459703Y28208459D01*
X50416112Y28199194D01*
X50375391Y28181063D01*
X50369237Y28178701D01*
X50326852Y28164930D01*
X50326849Y28164928D01*
X50326844Y28164927D01*
X50288242Y28142639D01*
X50282374Y28139649D01*
X50269741Y28134025D01*
X50241649Y28121519D01*
X50241648Y28121518D01*
X50205576Y28095310D01*
X50200052Y28091724D01*
X50161456Y28069440D01*
X50128327Y28039610D01*
X50123204Y28035463D01*
X50087147Y28009266D01*
X50057317Y27976136D01*
X50052662Y27971481D01*
X50036312Y27956760D01*
X50019530Y27941650D01*
X49993336Y27905594D01*
X49989182Y27900465D01*
X49959360Y27867344D01*
X49959358Y27867341D01*
X49937076Y27828748D01*
X49933485Y27823218D01*
X49909474Y27790169D01*
X49907282Y27787152D01*
X49889153Y27746433D01*
X49886157Y27740553D01*
X49863873Y27701956D01*
X49860545Y27691712D01*
X49850100Y27659569D01*
X49847736Y27653411D01*
X49829605Y27612685D01*
X49824998Y27591014D01*
X49821575Y27574903D01*
X49820340Y27569094D01*
X49818632Y27562719D01*
X49804858Y27520329D01*
X49800198Y27475996D01*
X49799165Y27469480D01*
X49789900Y27425887D01*
X49789900Y18842762D01*
X49769898Y18774641D01*
X49745734Y18746955D01*
X49628431Y18646769D01*
X49628429Y18646766D01*
X49628427Y18646765D01*
X49474226Y18466219D01*
X49474225Y18466217D01*
X49474224Y18466216D01*
X49354741Y18271238D01*
X49350159Y18263761D01*
X49259294Y18044392D01*
X49203865Y17813510D01*
X49185235Y17576799D01*
X49203865Y17340089D01*
X49259294Y17109207D01*
X49350159Y16889838D01*
X49474225Y16687382D01*
X49474226Y16687380D01*
X49628430Y16506830D01*
X49808980Y16352626D01*
X49808982Y16352625D01*
X50011438Y16228559D01*
X50230807Y16137694D01*
X50461689Y16082265D01*
X50698399Y16063635D01*
X50698400Y16063635D01*
X50935111Y16082265D01*
X51008051Y16099776D01*
X51165992Y16137694D01*
X51385361Y16228559D01*
X51389031Y16230808D01*
X51587816Y16352624D01*
X51587817Y16352625D01*
X51587819Y16352626D01*
X51768369Y16506830D01*
X51922573Y16687380D01*
X51922574Y16687382D01*
X51922576Y16687384D01*
X52046640Y16889837D01*
X52137505Y17109206D01*
X52192935Y17340089D01*
X52211565Y17576800D01*
X52192935Y17813511D01*
X52137505Y18044394D01*
X52046640Y18263763D01*
X51922576Y18466216D01*
X51768369Y18646769D01*
X51651067Y18746953D01*
X51612261Y18806401D01*
X51606900Y18842762D01*
X51606900Y26295900D01*
X51626902Y26364021D01*
X51680558Y26410514D01*
X51732900Y26421900D01*
X58440183Y26421900D01*
X58459894Y26420349D01*
X58473793Y26418147D01*
X58516525Y26420387D01*
X58543753Y26421814D01*
X58547024Y26421900D01*
X58569203Y26421900D01*
X58569210Y26421900D01*
X58569215Y26421900D01*
X58569224Y26421901D01*
X58587379Y26423809D01*
X58591274Y26424218D01*
X58594556Y26424476D01*
X58664502Y26428142D01*
X58678095Y26431784D01*
X58697522Y26435385D01*
X58709750Y26436671D01*
X58711528Y26436858D01*
X58711529Y26436858D01*
X58711533Y26436859D01*
X58742116Y26446796D01*
X58778175Y26458512D01*
X58781312Y26459441D01*
X58848969Y26477570D01*
X58855675Y26480987D01*
X58861509Y26483959D01*
X58879769Y26491523D01*
X58893154Y26495872D01*
X58953817Y26530896D01*
X58956702Y26532462D01*
X59019130Y26564271D01*
X59030074Y26573132D01*
X59046351Y26584320D01*
X59058544Y26591360D01*
X59110602Y26638232D01*
X59113107Y26640371D01*
X59117257Y26643732D01*
X59130341Y26654328D01*
X59146039Y26670026D01*
X59148396Y26672263D01*
X59171928Y26693451D01*
X59200465Y26719145D01*
X59208735Y26730528D01*
X59221577Y26745564D01*
X69977633Y37501620D01*
X69992664Y37514459D01*
X70003191Y37522108D01*
X70004053Y37522734D01*
X70004728Y37523483D01*
X70011788Y37531324D01*
X70050936Y37574803D01*
X70053171Y37577158D01*
X70068872Y37592859D01*
X70082840Y37610108D01*
X70084965Y37612595D01*
X70131840Y37664656D01*
X70131842Y37664659D01*
X70138869Y37676831D01*
X70150072Y37693132D01*
X70158926Y37704065D01*
X70158930Y37704071D01*
X70190731Y37766485D01*
X70192305Y37769385D01*
X70227327Y37830044D01*
X70231674Y37843423D01*
X70239241Y37861693D01*
X70245629Y37874230D01*
X70263757Y37941887D01*
X70264693Y37945046D01*
X70268913Y37958031D01*
X70286342Y38011672D01*
X70287812Y38025663D01*
X70291413Y38045098D01*
X70295057Y38058696D01*
X70298723Y38128666D01*
X70298980Y38131922D01*
X70301299Y38153977D01*
X70301300Y38153991D01*
X70301300Y38176173D01*
X70301385Y38179445D01*
X70305052Y38249409D01*
X70302850Y38263305D01*
X70301300Y38283016D01*
X70301300Y84043382D01*
X70302851Y84063091D01*
X70305052Y84076990D01*
X70303989Y84097270D01*
X70301385Y84146953D01*
X70301300Y84150224D01*
X70301300Y84172408D01*
X70301299Y84172420D01*
X70301098Y84174328D01*
X70298978Y84194497D01*
X70298724Y84197730D01*
X70296191Y84246059D01*
X70295058Y84267694D01*
X70295057Y84267699D01*
X70295057Y84267703D01*
X70291414Y84281296D01*
X70287812Y84300738D01*
X70286342Y84314725D01*
X70286342Y84314728D01*
X70264689Y84381364D01*
X70263755Y84384521D01*
X70245632Y84452164D01*
X70245631Y84452166D01*
X70245630Y84452170D01*
X70239242Y84464704D01*
X70231670Y84482987D01*
X70227327Y84496356D01*
X70192291Y84557038D01*
X70190745Y84559887D01*
X70158929Y84622330D01*
X70150069Y84633270D01*
X70138875Y84649557D01*
X70131840Y84661744D01*
X70084974Y84713794D01*
X70082830Y84716304D01*
X70068872Y84733541D01*
X70053163Y84749248D01*
X70050927Y84751605D01*
X70004053Y84803666D01*
X69992667Y84811937D01*
X69977640Y84824771D01*
X63183971Y91618440D01*
X63171137Y91633467D01*
X63162866Y91644853D01*
X63110805Y91691727D01*
X63108448Y91693963D01*
X63092741Y91709672D01*
X63075502Y91723631D01*
X63072994Y91725774D01*
X63068032Y91730241D01*
X63020944Y91772640D01*
X63008757Y91779675D01*
X62992470Y91790869D01*
X62981530Y91799729D01*
X62947177Y91817232D01*
X62895561Y91865980D01*
X62878494Y91934894D01*
X62901394Y92002096D01*
X62956990Y92046249D01*
X63004378Y92055500D01*
X65814697Y92055500D01*
X65882818Y92035498D01*
X65903792Y92018595D01*
X70936595Y86985792D01*
X70970621Y86923480D01*
X70973500Y86896697D01*
X70973500Y34108902D01*
X70953498Y34040781D01*
X70936599Y34019812D01*
X63481058Y26564271D01*
X56031165Y19114378D01*
X55968853Y19080352D01*
X55932187Y19077861D01*
X55778400Y19089965D01*
X55541689Y19071335D01*
X55310806Y19015905D01*
X55091437Y18925040D01*
X54888984Y18800976D01*
X54888982Y18800974D01*
X54888980Y18800973D01*
X54708430Y18646769D01*
X54554226Y18466219D01*
X54554225Y18466217D01*
X54554224Y18466216D01*
X54434741Y18271238D01*
X54430159Y18263761D01*
X54339294Y18044392D01*
X54283865Y17813510D01*
X54265235Y17576799D01*
X54283865Y17340089D01*
X54339294Y17109207D01*
X54430159Y16889838D01*
X54554225Y16687382D01*
X54554226Y16687380D01*
X54708430Y16506830D01*
X54888980Y16352626D01*
X54888982Y16352625D01*
X55091438Y16228559D01*
X55310807Y16137694D01*
X55541689Y16082265D01*
X55778399Y16063635D01*
X55778400Y16063635D01*
X56015111Y16082265D01*
X56088051Y16099776D01*
X56245992Y16137694D01*
X56465361Y16228559D01*
X56469031Y16230808D01*
X56667816Y16352624D01*
X56667817Y16352625D01*
X56667819Y16352626D01*
X56848369Y16506830D01*
X57002573Y16687380D01*
X57002574Y16687382D01*
X57002576Y16687384D01*
X57126640Y16889837D01*
X57217505Y17109206D01*
X57272935Y17340089D01*
X57291565Y17576800D01*
X57279461Y17730585D01*
X57294057Y17800064D01*
X57315978Y17829565D01*
X72466833Y32980420D01*
X72481864Y32993259D01*
X72485968Y32996241D01*
X72493253Y33001534D01*
X72540136Y33053603D01*
X72542371Y33055958D01*
X72558072Y33071659D01*
X72558075Y33071662D01*
X72572028Y33088892D01*
X72574169Y33091398D01*
X72621040Y33143456D01*
X72626763Y33153369D01*
X72628076Y33155642D01*
X72639267Y33171926D01*
X72648129Y33182870D01*
X72679944Y33245311D01*
X72681510Y33248193D01*
X72688737Y33260710D01*
X72716527Y33308844D01*
X72720873Y33322223D01*
X72728437Y33340484D01*
X72734830Y33353030D01*
X72735289Y33354741D01*
X72752958Y33420688D01*
X72753895Y33423852D01*
X72775541Y33490469D01*
X72775542Y33490472D01*
X72777013Y33504475D01*
X72780613Y33523899D01*
X72784257Y33537497D01*
X72787924Y33607468D01*
X72788178Y33610701D01*
X72790500Y33632790D01*
X72790500Y33654974D01*
X72790585Y33658246D01*
X72794252Y33728210D01*
X72792050Y33742106D01*
X72790500Y33761817D01*
X72790500Y87243783D01*
X72792051Y87263492D01*
X72794252Y87277391D01*
X72792355Y87313585D01*
X72790585Y87347354D01*
X72790500Y87350625D01*
X72790500Y87372808D01*
X72790499Y87372822D01*
X72788180Y87394878D01*
X72787923Y87398135D01*
X72785610Y87442276D01*
X72784258Y87468095D01*
X72784257Y87468100D01*
X72784257Y87468104D01*
X72780614Y87481697D01*
X72777012Y87501139D01*
X72775542Y87515126D01*
X72775541Y87515132D01*
X72753894Y87581751D01*
X72752956Y87584916D01*
X72738898Y87637382D01*
X72734829Y87652570D01*
X72728440Y87665108D01*
X72720875Y87683371D01*
X72716527Y87696756D01*
X72681500Y87757421D01*
X72679934Y87760307D01*
X72676828Y87766403D01*
X72648129Y87822731D01*
X72639271Y87833667D01*
X72628069Y87849966D01*
X72621040Y87862144D01*
X72574146Y87914223D01*
X72572042Y87916688D01*
X72558072Y87933941D01*
X72542363Y87949648D01*
X72540127Y87952005D01*
X72493253Y88004066D01*
X72481867Y88012337D01*
X72466840Y88025171D01*
X66943171Y93548840D01*
X66930337Y93563867D01*
X66922066Y93575253D01*
X66870005Y93622127D01*
X66867648Y93624363D01*
X66851941Y93640072D01*
X66834702Y93654031D01*
X66832194Y93656174D01*
X66827232Y93660641D01*
X66780144Y93703040D01*
X66767957Y93710075D01*
X66751667Y93721272D01*
X66740730Y93730129D01*
X66678280Y93761947D01*
X66675442Y93763488D01*
X66614756Y93798527D01*
X66601365Y93802877D01*
X66583106Y93810441D01*
X66570570Y93816829D01*
X66502891Y93834963D01*
X66499752Y93835894D01*
X66499749Y93835895D01*
X66433128Y93857542D01*
X66419137Y93859012D01*
X66399690Y93862616D01*
X66399158Y93862758D01*
X66386103Y93866257D01*
X66386097Y93866257D01*
X66386094Y93866258D01*
X66362000Y93867520D01*
X66316130Y93869924D01*
X66312897Y93870178D01*
X66290810Y93872500D01*
X66290808Y93872500D01*
X66268624Y93872500D01*
X66265353Y93872585D01*
X66200036Y93876008D01*
X66195391Y93876252D01*
X66195390Y93876251D01*
X66195390Y93876252D01*
X66181494Y93874051D01*
X66161783Y93872500D01*
X51656217Y93872500D01*
X51636506Y93874051D01*
X51622610Y93876252D01*
X51552646Y93872585D01*
X51549376Y93872500D01*
X51527190Y93872500D01*
X51527184Y93872499D01*
X51527178Y93872499D01*
X51519915Y93871735D01*
X51505101Y93870178D01*
X51501868Y93869924D01*
X51431897Y93866257D01*
X51418299Y93862613D01*
X51398875Y93859013D01*
X51384872Y93857542D01*
X51318237Y93835890D01*
X51315087Y93834958D01*
X51283243Y93826425D01*
X51247430Y93816829D01*
X51234901Y93810445D01*
X51234893Y93810441D01*
X51216623Y93802874D01*
X51203244Y93798527D01*
X51142580Y93763502D01*
X51139680Y93761928D01*
X51109106Y93746350D01*
X51077270Y93730129D01*
X51066326Y93721267D01*
X51050042Y93710076D01*
X51037856Y93703040D01*
X50985798Y93656169D01*
X50983292Y93654028D01*
X50966062Y93640075D01*
X50966059Y93640072D01*
X50950358Y93624371D01*
X50948003Y93622136D01*
X50895934Y93575253D01*
X50890641Y93567968D01*
X50887659Y93563864D01*
X50874820Y93548833D01*
X45744764Y88418777D01*
X45729728Y88405935D01*
X45718345Y88397665D01*
X45693981Y88370605D01*
X45671463Y88345596D01*
X45669226Y88343239D01*
X45653528Y88327541D01*
X45642932Y88314457D01*
X45639571Y88310307D01*
X45637432Y88307802D01*
X45590560Y88255744D01*
X45583520Y88243551D01*
X45572332Y88227274D01*
X45563471Y88216330D01*
X45531662Y88153902D01*
X45530096Y88151017D01*
X45495072Y88090354D01*
X45490723Y88076969D01*
X45483158Y88058705D01*
X45476770Y88046169D01*
X45458641Y87978512D01*
X45457712Y87975375D01*
X45450126Y87952025D01*
X45436059Y87908733D01*
X45436058Y87908727D01*
X45434585Y87894722D01*
X45430984Y87875295D01*
X45427342Y87861702D01*
X45423676Y87791756D01*
X45423418Y87788471D01*
X45421101Y87766424D01*
X45421100Y87766403D01*
X45421100Y87744224D01*
X45421014Y87740953D01*
X45417997Y87683378D01*
X45417348Y87670990D01*
X45419549Y87657087D01*
X45421099Y87637383D01*
X45421099Y87494359D01*
X45401097Y87426238D01*
X45347441Y87379745D01*
X45339157Y87376313D01*
X45321396Y87369689D01*
X45321394Y87369687D01*
X45321392Y87369687D01*
X45204338Y87282061D01*
X45160468Y87223457D01*
X45103632Y87180910D01*
X45032816Y87175846D01*
X44970504Y87209871D01*
X44958732Y87223457D01*
X44914861Y87282061D01*
X44797808Y87369686D01*
X44797804Y87369689D01*
X44780066Y87376304D01*
X44723233Y87418848D01*
X44698421Y87485368D01*
X44698100Y87494359D01*
X44698100Y102605500D01*
X44718102Y102673621D01*
X44771758Y102720114D01*
X44824100Y102731500D01*
X45398649Y102731500D01*
X45459196Y102738009D01*
X45459204Y102738011D01*
X45596202Y102789110D01*
X45596207Y102789112D01*
X45713261Y102876738D01*
X45800887Y102993792D01*
X45800889Y102993797D01*
X45824258Y103056449D01*
X45866805Y103113285D01*
X45933325Y103138095D01*
X46002699Y103123003D01*
X46028297Y103103006D01*
X46028946Y103103711D01*
X46032778Y103100182D01*
X46216983Y102956810D01*
X46216985Y102956809D01*
X46422273Y102845713D01*
X46422276Y102845711D01*
X46643044Y102769921D01*
X46643051Y102769919D01*
X46758066Y102750727D01*
X46873288Y102731500D01*
X46873292Y102731500D01*
X47106708Y102731500D01*
X47106712Y102731500D01*
X47238411Y102753476D01*
X47336948Y102769919D01*
X47336955Y102769921D01*
X47557723Y102845711D01*
X47557724Y102845712D01*
X47557727Y102845713D01*
X47763017Y102956810D01*
X47855118Y103028496D01*
X47947221Y103100182D01*
X47947225Y103100186D01*
X48105314Y103271916D01*
X48232984Y103467331D01*
X48270367Y103552556D01*
X48326749Y103681093D01*
X48326750Y103681096D01*
X48384048Y103907361D01*
X48384050Y103907371D01*
X48384051Y103907374D01*
X48398346Y104079898D01*
X48423904Y104146132D01*
X48434820Y104158586D01*
X54118557Y109842323D01*
X60010293Y115734059D01*
X60014866Y115738204D01*
X60050968Y115767832D01*
X60176995Y115921396D01*
X60270641Y116096596D01*
X60326334Y116280190D01*
X60328309Y116286699D01*
X60347780Y116484400D01*
X60344477Y116517933D01*
X60343204Y116530864D01*
X60342900Y116537043D01*
X60342900Y122914680D01*
X71359533Y122914680D01*
X86112533Y122914680D01*
X86112533Y125742262D01*
X83749032Y125742262D01*
X83680911Y125762264D01*
X83634418Y125815920D01*
X83623032Y125868262D01*
X83623032Y128079062D01*
X73510322Y128079062D01*
X73510322Y125868262D01*
X73490320Y125800141D01*
X73436664Y125753648D01*
X73384322Y125742262D01*
X71359533Y125742262D01*
X71359533Y122914680D01*
X60342900Y122914680D01*
X60342900Y126185358D01*
X60343204Y126191537D01*
X60347780Y126237998D01*
X60347780Y126238003D01*
X60328309Y126435694D01*
X60328308Y126435695D01*
X60328308Y126435701D01*
X60270641Y126625804D01*
X60176995Y126801004D01*
X60050968Y126954568D01*
X60014862Y126984198D01*
X60010301Y126988332D01*
X57493925Y129504707D01*
X57489811Y129509245D01*
X57460168Y129545368D01*
X57306604Y129671395D01*
X57131404Y129765041D01*
X56941301Y129822709D01*
X56941293Y129822709D01*
X56941292Y129822710D01*
X56743604Y129842180D01*
X56743597Y129842180D01*
X56697135Y129837604D01*
X56690956Y129837300D01*
X33834641Y129837300D01*
X33828461Y129837604D01*
X33782002Y129842180D01*
X33781998Y129842180D01*
X33732453Y129837300D01*
X33584305Y129822709D01*
X33584303Y129822708D01*
X33584299Y129822708D01*
X33394196Y129765041D01*
X33218996Y129671395D01*
X33218995Y129671394D01*
X33065432Y129545368D01*
X33035804Y129509266D01*
X33031659Y129504693D01*
X31937700Y128410734D01*
X31933131Y128406594D01*
X31897032Y128376968D01*
X31897031Y128376967D01*
X31771005Y128223404D01*
X31712205Y128113397D01*
X31677360Y128048207D01*
X31677354Y128048192D01*
X31619691Y127858104D01*
X31619689Y127858092D01*
X31600220Y127660404D01*
X31600220Y127660396D01*
X31604796Y127613934D01*
X31605100Y127607755D01*
X31605100Y109425043D01*
X31604796Y109418864D01*
X31600220Y109372402D01*
X31600220Y109372395D01*
X31619689Y109174707D01*
X31619691Y109174695D01*
X31677358Y108984596D01*
X31677359Y108984594D01*
X31771005Y108809395D01*
X31897032Y108655830D01*
X31933132Y108626204D01*
X31937715Y108622050D01*
X33396995Y107162770D01*
X33431020Y107100458D01*
X33433900Y107073675D01*
X33433900Y97741763D01*
X33413898Y97673642D01*
X33397003Y97652677D01*
X32728448Y96984122D01*
X32666139Y96950099D01*
X32639356Y96947220D01*
X31061282Y96947220D01*
X31061275Y96947219D01*
X31061270Y96947219D01*
X31000723Y96940710D01*
X31000715Y96940708D01*
X30922795Y96911644D01*
X30863716Y96889609D01*
X30863714Y96889608D01*
X30863712Y96889607D01*
X30746658Y96801981D01*
X30659032Y96684927D01*
X30659030Y96684922D01*
X30607931Y96547924D01*
X30607929Y96547916D01*
X30601420Y96487369D01*
X30601420Y96181300D01*
X30581418Y96113179D01*
X30527762Y96066686D01*
X30475420Y96055300D01*
X29723738Y96055300D01*
X29655617Y96075302D01*
X29622870Y96105791D01*
X29617131Y96113457D01*
X29573261Y96172061D01*
X29514654Y96215932D01*
X29472110Y96272765D01*
X29467044Y96343580D01*
X29501068Y96405893D01*
X29514655Y96417667D01*
X29573260Y96461538D01*
X29573261Y96461539D01*
X29573262Y96461540D01*
X29660887Y96578592D01*
X29660889Y96578597D01*
X29711988Y96715595D01*
X29711990Y96715603D01*
X29718499Y96776150D01*
X29718500Y96776167D01*
X29718500Y98397432D01*
X29718499Y98397449D01*
X29711990Y98457996D01*
X29711988Y98458004D01*
X29704960Y98476845D01*
X29660889Y98595004D01*
X29660667Y98595300D01*
X29573261Y98712061D01*
X29456207Y98799687D01*
X29456206Y98799687D01*
X29456204Y98799689D01*
X29319201Y98850789D01*
X29319199Y98850789D01*
X29319196Y98850790D01*
X29258649Y98857299D01*
X29258645Y98857299D01*
X29258638Y98857300D01*
X27637362Y98857300D01*
X27637355Y98857299D01*
X27637350Y98857299D01*
X27576803Y98850790D01*
X27576795Y98850788D01*
X27498875Y98821724D01*
X27439796Y98799689D01*
X27439794Y98799688D01*
X27439792Y98799687D01*
X27322741Y98712063D01*
X27322740Y98712061D01*
X27322739Y98712061D01*
X27278866Y98653454D01*
X27222033Y98610910D01*
X27151217Y98605844D01*
X27088905Y98639869D01*
X27077138Y98653447D01*
X27033261Y98712061D01*
X26916204Y98799689D01*
X26779201Y98850789D01*
X26779199Y98850789D01*
X26779196Y98850790D01*
X26718649Y98857299D01*
X26718645Y98857299D01*
X26718638Y98857300D01*
X25097362Y98857300D01*
X25097355Y98857299D01*
X25097350Y98857299D01*
X25036803Y98850790D01*
X25036795Y98850788D01*
X24958875Y98821724D01*
X24899796Y98799689D01*
X24899794Y98799688D01*
X24899792Y98799687D01*
X24782738Y98712061D01*
X24695112Y98595007D01*
X24695110Y98595002D01*
X24644011Y98458004D01*
X24644009Y98457996D01*
X24637500Y98397449D01*
X24637500Y96776150D01*
X24644009Y96715603D01*
X24644011Y96715595D01*
X24695110Y96578597D01*
X24695112Y96578592D01*
X24782739Y96461538D01*
X24841344Y96417666D01*
X24883890Y96360830D01*
X24888954Y96290014D01*
X24854928Y96227702D01*
X24841346Y96215934D01*
X24795081Y96181300D01*
X24782738Y96172060D01*
X24695112Y96055007D01*
X24695110Y96055002D01*
X24644011Y95918004D01*
X24644009Y95917996D01*
X24637500Y95857449D01*
X24637500Y94236150D01*
X24644009Y94175603D01*
X24644011Y94175595D01*
X24695110Y94038597D01*
X24695112Y94038592D01*
X24782738Y93921538D01*
X24899792Y93833912D01*
X24899797Y93833910D01*
X25036795Y93782811D01*
X25036803Y93782809D01*
X25097350Y93776300D01*
X25097362Y93776300D01*
X26718649Y93776300D01*
X26779196Y93782809D01*
X26779204Y93782811D01*
X26916202Y93833910D01*
X26916207Y93833912D01*
X27033260Y93921538D01*
X27065527Y93964642D01*
X27077131Y93980142D01*
X27133966Y94022689D01*
X27204781Y94027755D01*
X27267094Y93993730D01*
X27278866Y93980144D01*
X27322737Y93921539D01*
X27439792Y93833912D01*
X27439797Y93833910D01*
X27576795Y93782811D01*
X27576803Y93782809D01*
X27637350Y93776300D01*
X27637362Y93776300D01*
X29258649Y93776300D01*
X29319196Y93782809D01*
X29319204Y93782811D01*
X29456202Y93833910D01*
X29456207Y93833912D01*
X29573261Y93921538D01*
X29622870Y93987809D01*
X29679705Y94030355D01*
X29723738Y94038300D01*
X30475420Y94038300D01*
X30543541Y94018298D01*
X30590034Y93964642D01*
X30601420Y93912300D01*
X30601420Y93839910D01*
X30607929Y93779363D01*
X30607931Y93779355D01*
X30659030Y93642357D01*
X30659032Y93642352D01*
X30746658Y93525298D01*
X30863712Y93437672D01*
X30863717Y93437670D01*
X31000715Y93386571D01*
X31000723Y93386569D01*
X31061270Y93380060D01*
X31061282Y93380060D01*
X31225100Y93380060D01*
X31293221Y93360058D01*
X31339714Y93306402D01*
X31351100Y93254060D01*
X31351100Y93094324D01*
X31331098Y93026203D01*
X31314195Y93005229D01*
X26679571Y88370605D01*
X26617259Y88336579D01*
X26590476Y88333700D01*
X26574138Y88333700D01*
X26506017Y88353702D01*
X26473270Y88384191D01*
X26423661Y88450461D01*
X26306607Y88538087D01*
X26306606Y88538087D01*
X26306604Y88538089D01*
X26169601Y88589189D01*
X26169599Y88589189D01*
X26169596Y88589190D01*
X26109049Y88595699D01*
X26109045Y88595699D01*
X26109038Y88595700D01*
X26109032Y88595700D01*
X25728249Y88595700D01*
X25681612Y88604648D01*
X25529427Y88665285D01*
X25345152Y88695496D01*
X25158691Y88685386D01*
X25095133Y88667739D01*
X24978768Y88635431D01*
X24978766Y88635429D01*
X24978763Y88635429D01*
X24931510Y88610377D01*
X24872491Y88595700D01*
X24487762Y88595700D01*
X24487755Y88595699D01*
X24487750Y88595699D01*
X24427203Y88589190D01*
X24427195Y88589188D01*
X24360188Y88564195D01*
X24290196Y88538089D01*
X24290194Y88538088D01*
X24290192Y88538087D01*
X24173138Y88450461D01*
X24085512Y88333407D01*
X24085510Y88333402D01*
X24034411Y88196404D01*
X24034409Y88196396D01*
X24027900Y88135849D01*
X24027900Y86514550D01*
X24034409Y86454003D01*
X24034411Y86453995D01*
X24085510Y86316997D01*
X24085512Y86316992D01*
X24173139Y86199938D01*
X24231744Y86156066D01*
X24274290Y86099230D01*
X24279354Y86028414D01*
X24245328Y85966102D01*
X24231746Y85954334D01*
X24173139Y85910461D01*
X24173138Y85910460D01*
X24085512Y85793407D01*
X24085510Y85793402D01*
X24034411Y85656404D01*
X24034409Y85656396D01*
X24027900Y85595849D01*
X24027900Y83974550D01*
X24034409Y83914003D01*
X24034411Y83913995D01*
X24085510Y83776997D01*
X24085512Y83776992D01*
X24173139Y83659938D01*
X24231744Y83616066D01*
X24274290Y83559230D01*
X24279354Y83488414D01*
X24245328Y83426102D01*
X24231746Y83414334D01*
X24173139Y83370461D01*
X24173138Y83370460D01*
X24085512Y83253407D01*
X24085510Y83253402D01*
X24034411Y83116404D01*
X24034409Y83116396D01*
X24027900Y83055849D01*
X24027900Y81434550D01*
X24034409Y81374003D01*
X24034411Y81373995D01*
X24085510Y81236997D01*
X24085512Y81236992D01*
X24173139Y81119938D01*
X24231744Y81076066D01*
X24274290Y81019230D01*
X24279354Y80948414D01*
X24245328Y80886102D01*
X24231746Y80874334D01*
X24173139Y80830461D01*
X24173138Y80830460D01*
X24085512Y80713407D01*
X24085510Y80713402D01*
X24034411Y80576404D01*
X24034409Y80576396D01*
X24027900Y80515849D01*
X24027900Y78894550D01*
X24034409Y78834003D01*
X24034411Y78833995D01*
X24085510Y78696997D01*
X24085512Y78696992D01*
X24173139Y78579938D01*
X24231744Y78536066D01*
X24274290Y78479230D01*
X24279354Y78408414D01*
X24245328Y78346102D01*
X24231746Y78334334D01*
X24177716Y78293887D01*
X24173138Y78290460D01*
X24085512Y78173407D01*
X24085510Y78173402D01*
X24034411Y78036404D01*
X24034409Y78036396D01*
X24027900Y77975849D01*
X24027900Y76354550D01*
X24034409Y76294003D01*
X24034411Y76293995D01*
X24085510Y76156997D01*
X24085512Y76156992D01*
X24173139Y76039938D01*
X24231744Y75996066D01*
X24274290Y75939230D01*
X24279354Y75868414D01*
X24245328Y75806102D01*
X24231746Y75794334D01*
X24186419Y75760402D01*
X24173138Y75750460D01*
X24085512Y75633407D01*
X24085510Y75633402D01*
X24034411Y75496404D01*
X24034409Y75496396D01*
X24027900Y75435849D01*
X24027900Y73814550D01*
X24034409Y73754003D01*
X24034411Y73753995D01*
X24085510Y73616997D01*
X24085512Y73616992D01*
X24173139Y73499938D01*
X24231744Y73456066D01*
X24274290Y73399230D01*
X24279354Y73328414D01*
X24245328Y73266102D01*
X24231746Y73254334D01*
X24224635Y73249010D01*
X24173138Y73210460D01*
X24085512Y73093407D01*
X24085510Y73093402D01*
X24034411Y72956404D01*
X24034409Y72956396D01*
X24027900Y72895849D01*
X24027900Y71274550D01*
X24034409Y71214003D01*
X24034411Y71213995D01*
X24085510Y71076997D01*
X24085512Y71076992D01*
X24173139Y70959938D01*
X24231744Y70916066D01*
X24274290Y70859230D01*
X24279354Y70788414D01*
X24245328Y70726102D01*
X24231746Y70714334D01*
X24173139Y70670461D01*
X24173138Y70670460D01*
X24085512Y70553407D01*
X24085510Y70553402D01*
X24034411Y70416404D01*
X24034409Y70416396D01*
X24027900Y70355849D01*
X24027900Y68734550D01*
X24034409Y68674003D01*
X24034411Y68673995D01*
X24085510Y68536997D01*
X24085512Y68536992D01*
X24173137Y68419940D01*
X24239410Y68370329D01*
X24281956Y68313493D01*
X24289900Y68269461D01*
X24289900Y57787005D01*
X24289596Y57780826D01*
X24285020Y57734364D01*
X24285020Y57734357D01*
X24304489Y57536669D01*
X24304491Y57536660D01*
X24333541Y57440898D01*
X24362157Y57346563D01*
X24362160Y57346554D01*
X24455805Y57171357D01*
X24581833Y57017792D01*
X24617932Y56988165D01*
X24622515Y56984012D01*
X27954548Y53651978D01*
X27988574Y53589666D01*
X27991453Y53562883D01*
X27991453Y51265890D01*
X27991149Y51259711D01*
X27986573Y51213249D01*
X27986573Y51213242D01*
X28006042Y51015554D01*
X28006044Y51015546D01*
X28045489Y50885516D01*
X28053862Y50857915D01*
X28063712Y50825442D01*
X28157358Y50650242D01*
X28283385Y50496677D01*
X28319485Y50467051D01*
X28324068Y50462897D01*
X30981396Y47805569D01*
X31015422Y47743257D01*
X31018301Y47716474D01*
X31018301Y29087442D01*
X31017997Y29081263D01*
X31013421Y29034801D01*
X31013421Y29034794D01*
X31032890Y28837106D01*
X31032892Y28837094D01*
X31090559Y28646995D01*
X31090560Y28646993D01*
X31184206Y28471794D01*
X31310234Y28318229D01*
X31346333Y28288602D01*
X31350916Y28284449D01*
X34165083Y25470280D01*
X34199109Y25407968D01*
X34201508Y25392174D01*
X34202421Y25381743D01*
X34202421Y25381740D01*
X34259959Y25167006D01*
X34259961Y25167000D01*
X34353912Y24965522D01*
X34427113Y24860981D01*
X34449801Y24793707D01*
X34449900Y24788710D01*
X34449900Y18757355D01*
X34429898Y18689234D01*
X34405732Y18661545D01*
X34388431Y18646769D01*
X34388429Y18646766D01*
X34388427Y18646765D01*
X34234226Y18466219D01*
X34234225Y18466217D01*
X34234224Y18466216D01*
X34114741Y18271238D01*
X34110159Y18263761D01*
X34019294Y18044392D01*
X33963865Y17813510D01*
X33945235Y17576798D01*
X33947020Y17554117D01*
X33932423Y17484637D01*
X33910503Y17455138D01*
X28321171Y11865805D01*
X28258859Y11831779D01*
X28232076Y11828900D01*
X24284241Y11828900D01*
X24278061Y11829204D01*
X24231602Y11833780D01*
X24231598Y11833780D01*
X24185139Y11829204D01*
X24178959Y11828900D01*
X18519754Y11828900D01*
X18451633Y11848902D01*
X18405140Y11902558D01*
X18401699Y11910866D01*
X18398138Y11920411D01*
X18380749Y11967034D01*
X18375626Y11973877D01*
X18293121Y12084091D01*
X18176067Y12171717D01*
X18176066Y12171717D01*
X18176064Y12171719D01*
X18039061Y12222819D01*
X18039059Y12222819D01*
X18039056Y12222820D01*
X17978509Y12229329D01*
X17978505Y12229329D01*
X17978498Y12229330D01*
X15381862Y12229330D01*
X15381855Y12229329D01*
X15381850Y12229329D01*
X15321303Y12222820D01*
X15321295Y12222818D01*
X15266980Y12202559D01*
X15184296Y12171719D01*
X15184294Y12171718D01*
X15184292Y12171717D01*
X15067238Y12084091D01*
X14979612Y11967037D01*
X14979610Y11967032D01*
X14928511Y11830034D01*
X14928509Y11830026D01*
X14922000Y11769479D01*
X14922000Y9871320D01*
X14928509Y9810773D01*
X14928511Y9810765D01*
X14979610Y9673767D01*
X14979612Y9673762D01*
X15067238Y9556708D01*
X15184292Y9469082D01*
X15184297Y9469080D01*
X15321295Y9417981D01*
X15321303Y9417979D01*
X15381850Y9411470D01*
X15381862Y9411470D01*
X16442300Y9411470D01*
X16510421Y9391468D01*
X16556914Y9337812D01*
X16568300Y9285470D01*
X16568300Y7422538D01*
X16548298Y7354417D01*
X16517809Y7321670D01*
X16451539Y7272061D01*
X16407666Y7213454D01*
X16350833Y7170910D01*
X16280017Y7165844D01*
X16217705Y7199869D01*
X16205938Y7213447D01*
X16162061Y7272061D01*
X16091275Y7325051D01*
X16045007Y7359687D01*
X16045006Y7359687D01*
X16045004Y7359689D01*
X15908001Y7410789D01*
X15907999Y7410789D01*
X15907996Y7410790D01*
X15847449Y7417299D01*
X15847445Y7417299D01*
X15847438Y7417300D01*
X14226162Y7417300D01*
X14226155Y7417299D01*
X14226150Y7417299D01*
X14165603Y7410790D01*
X14165595Y7410788D01*
X14096687Y7385086D01*
X14028596Y7359689D01*
X14028594Y7359688D01*
X14028592Y7359687D01*
X13911538Y7272061D01*
X13823912Y7155007D01*
X13823910Y7155002D01*
X13772811Y7018004D01*
X13772809Y7017996D01*
X13766300Y6957449D01*
X13766300Y5336150D01*
X13772809Y5275603D01*
X13772811Y5275595D01*
X13823910Y5138597D01*
X13823912Y5138592D01*
X13911539Y5021538D01*
X13970144Y4977666D01*
X14012690Y4920830D01*
X14017754Y4850014D01*
X13983728Y4787702D01*
X13970146Y4775934D01*
X13911539Y4732061D01*
X13911538Y4732060D01*
X13823912Y4615007D01*
X13823910Y4615002D01*
X13772811Y4478004D01*
X13772809Y4477996D01*
X13766300Y4417449D01*
X13766300Y2796150D01*
X329500Y2796150D01*
X329500Y128993462D01*
X4676389Y128993462D01*
X4676389Y126165880D01*
X5122659Y126165880D01*
X5190780Y126145878D01*
X5237273Y126092222D01*
X5248659Y126039880D01*
X5248659Y123676680D01*
X11790247Y123676680D01*
X11790247Y126039880D01*
X11810249Y126108001D01*
X11863905Y126154494D01*
X11916247Y126165880D01*
X12570419Y126165880D01*
X12570419Y128993462D01*
X4676389Y128993462D01*
X329500Y128993462D01*
X329500Y141784500D01*
X349502Y141852621D01*
X403158Y141899114D01*
X455500Y141910500D01*
X90984500Y141910500D01*
X91052621Y141890498D01*
G37*
%TD.AperFunction*%
%TD*%
M02*
