%TF.GenerationSoftware,KiCad,Pcbnew,7.0.7-7.0.7~ubuntu23.04.1*%
%TF.CreationDate,2023-09-17T10:17:03+00:00*%
%TF.ProjectId,LED7SEG01,4c454437-5345-4473-9031-2e6b69636164,rev?*%
%TF.SameCoordinates,Original*%
%TF.FileFunction,Copper,L1,Top*%
%TF.FilePolarity,Positive*%
%FSLAX46Y46*%
G04 Gerber Fmt 4.6, Leading zero omitted, Abs format (unit mm)*
G04 Created by KiCad (PCBNEW 7.0.7-7.0.7~ubuntu23.04.1) date 2023-09-17 10:17:03*
%MOMM*%
%LPD*%
G01*
G04 APERTURE LIST*
%TA.AperFunction,ComponentPad*%
%ADD10R,1.524000X1.524000*%
%TD*%
%TA.AperFunction,ComponentPad*%
%ADD11C,6.000000*%
%TD*%
%TA.AperFunction,ComponentPad*%
%ADD12R,1.800000X1.800000*%
%TD*%
%TA.AperFunction,ComponentPad*%
%ADD13C,1.800000*%
%TD*%
%TA.AperFunction,ComponentPad*%
%ADD14C,2.000000*%
%TD*%
%TA.AperFunction,ComponentPad*%
%ADD15C,1.524000*%
%TD*%
%TA.AperFunction,ViaPad*%
%ADD16C,1.400000*%
%TD*%
%TA.AperFunction,Conductor*%
%ADD17C,1.000000*%
%TD*%
G04 APERTURE END LIST*
D10*
%TO.P,J1,1*%
%TO.N,GND*%
X12496800Y3606800D03*
%TO.P,J1,2*%
X12496800Y6146800D03*
%TO.P,J1,3*%
%TO.N,+12V*%
X15036800Y3606800D03*
%TO.P,J1,4*%
X15036800Y6146800D03*
%TO.P,J1,5*%
X17576800Y3606800D03*
%TO.P,J1,6*%
X17576800Y6146800D03*
%TO.P,J1,7*%
%TO.N,GND*%
X20116800Y3606800D03*
%TO.P,J1,8*%
X20116800Y6146800D03*
%TD*%
%TO.P,J5,1*%
%TO.N,VDD*%
X33578800Y3606800D03*
%TO.P,J5,2*%
X33578800Y6146800D03*
%TD*%
%TO.P,J6,1*%
%TO.N,/SDA*%
X36982400Y43688000D03*
%TO.P,J6,2*%
X36982400Y46228000D03*
%TD*%
%TO.P,J7,1*%
%TO.N,/SCL*%
X36068000Y3606800D03*
%TO.P,J7,2*%
X36068000Y6146800D03*
%TD*%
%TO.P,J8,1*%
%TO.N,GND*%
X38608000Y3606800D03*
%TO.P,J8,2*%
X38608000Y6146800D03*
%TD*%
%TO.P,J9,1*%
%TO.N,GND*%
X28498800Y3606800D03*
%TO.P,J9,2*%
X28498800Y6146800D03*
%TD*%
D11*
%TO.P,M1,1*%
%TO.N,GND*%
X5080000Y137160000D03*
%TD*%
%TO.P,M3,1*%
%TO.N,GND*%
X27526800Y106704000D03*
%TD*%
%TO.P,M5,1*%
%TO.N,GND*%
X86360000Y5080000D03*
%TD*%
%TO.P,M6,1*%
%TO.N,GND*%
X27526800Y45744000D03*
%TD*%
%TO.P,M7,1*%
%TO.N,GND*%
X58006800Y106704000D03*
%TD*%
%TO.P,M8,1*%
%TO.N,GND*%
X86360000Y137160000D03*
%TD*%
%TO.P,M9,1*%
%TO.N,GND*%
X58006800Y45744000D03*
%TD*%
%TO.P,M10,1*%
%TO.N,GND*%
X5080000Y5080000D03*
%TD*%
D10*
%TO.P,J11,1*%
%TO.N,/LED00*%
X36118800Y69697600D03*
%TD*%
%TO.P,J12,1*%
%TO.N,/LED01*%
X38658800Y69697600D03*
%TD*%
%TO.P,J13,1*%
%TO.N,/LED02*%
X41198800Y69697600D03*
%TD*%
%TO.P,J14,1*%
%TO.N,/LED03*%
X43738800Y69697600D03*
%TD*%
%TO.P,J15,1*%
%TO.N,/LED04*%
X46278800Y69697600D03*
%TD*%
%TO.P,J16,1*%
%TO.N,/LED05*%
X48818800Y69697600D03*
%TD*%
%TO.P,J17,1*%
%TO.N,/LED06*%
X51358800Y69697600D03*
%TD*%
%TO.P,J18,1*%
%TO.N,/LED07*%
X53898800Y69697600D03*
%TD*%
%TO.P,J19,1*%
%TO.N,/G*%
X36169600Y86156800D03*
%TD*%
%TO.P,J20,1*%
%TO.N,/F*%
X38709600Y86156800D03*
%TD*%
%TO.P,J21,1*%
%TO.N,/A*%
X41249600Y86156800D03*
%TD*%
%TO.P,J22,1*%
%TO.N,/C*%
X48869600Y86156800D03*
%TD*%
%TO.P,J23,1*%
%TO.N,/B*%
X43789600Y86156800D03*
%TD*%
%TO.P,J24,1*%
%TO.N,/D*%
X51409600Y86156800D03*
%TD*%
%TO.P,J25,1*%
%TO.N,/DP*%
X46329600Y86156800D03*
%TD*%
%TO.P,J26,1*%
%TO.N,/E*%
X53949600Y86156800D03*
%TD*%
%TO.P,J27,1*%
%TO.N,GND*%
X25908000Y100126800D03*
%TO.P,J27,2*%
X28448000Y100126800D03*
%TO.P,J27,3*%
%TO.N,+12V*%
X25908000Y97586800D03*
%TO.P,J27,4*%
X28448000Y97586800D03*
%TO.P,J27,5*%
X25908000Y95046800D03*
%TO.P,J27,6*%
X28448000Y95046800D03*
%TO.P,J27,7*%
%TO.N,GND*%
X25908000Y92506800D03*
%TO.P,J27,8*%
X28448000Y92506800D03*
%TD*%
%TO.P,J28,1*%
%TO.N,VDD*%
X39522400Y43688000D03*
%TO.P,J28,2*%
X39522400Y46228000D03*
%TD*%
%TO.P,J29,1*%
%TO.N,Net-(J29-Pad1)*%
X31038800Y3606800D03*
%TO.P,J29,2*%
X31038800Y6146800D03*
%TD*%
%TO.P,J30,1*%
%TO.N,/SCL*%
X42062400Y43688000D03*
%TO.P,J30,2*%
X42062400Y46228000D03*
%TD*%
%TO.P,J31,1*%
%TO.N,GND*%
X44602400Y43688000D03*
%TO.P,J31,2*%
X44602400Y46228000D03*
%TD*%
%TO.P,J36,1*%
%TO.N,/#OE*%
X48666400Y43688000D03*
%TO.P,J36,2*%
X48666400Y46228000D03*
%TD*%
%TO.P,J37,1*%
%TO.N,+12V*%
X25298400Y87325200D03*
%TD*%
%TO.P,J38,1*%
%TO.N,+12V*%
X25298400Y79705200D03*
%TD*%
%TO.P,J39,1*%
%TO.N,+12V*%
X25298400Y84785200D03*
%TD*%
%TO.P,J40,1*%
%TO.N,+12V*%
X25298400Y82245200D03*
%TD*%
%TO.P,J41,1*%
%TO.N,+12V*%
X25298400Y74625200D03*
%TD*%
%TO.P,J42,1*%
%TO.N,+12V*%
X25298400Y77165200D03*
%TD*%
%TO.P,J43,1*%
%TO.N,+12V*%
X25298400Y72085200D03*
%TD*%
%TO.P,J44,1*%
%TO.N,+12V*%
X25298400Y69545200D03*
%TD*%
D12*
%TO.P,D3,1*%
%TO.N,/E*%
X44450000Y38100000D03*
D13*
%TO.P,D3,2*%
%TO.N,+12V*%
X46990000Y38100000D03*
%TD*%
D12*
%TO.P,D4,1*%
%TO.N,/B*%
X44450000Y104140000D03*
D13*
%TO.P,D4,2*%
%TO.N,+12V*%
X46990000Y104140000D03*
%TD*%
D14*
%TO.P,AFF1,1*%
%TO.N,+12V*%
X35458400Y17576800D03*
%TO.P,AFF1,2*%
%TO.N,Net-(AFF1-Pad2)*%
X40538400Y17576800D03*
%TO.P,AFF1,3*%
%TO.N,/D*%
X45618400Y17576800D03*
%TO.P,AFF1,4*%
%TO.N,/C*%
X50698400Y17576800D03*
%TO.P,AFF1,5*%
%TO.N,/DP*%
X55778400Y17576800D03*
%TO.P,AFF1,6*%
%TO.N,/B*%
X55778400Y125776800D03*
%TO.P,AFF1,7*%
%TO.N,/A*%
X50698400Y125776800D03*
%TO.P,AFF1,8*%
%TO.N,+12V*%
X45618400Y125776800D03*
%TO.P,AFF1,9*%
%TO.N,/F*%
X40538400Y125776800D03*
%TO.P,AFF1,10*%
%TO.N,/G*%
X35458400Y125776800D03*
%TD*%
D15*
%TO.P,REF\u002A\u002A,1*%
%TO.N,N/C*%
X43281600Y25857200D03*
%TD*%
%TO.P,REF\u002A\u002A,1*%
%TO.N,N/C*%
X35458400Y25603200D03*
%TD*%
%TO.P,J2,1*%
%TO.N,GND*%
X24638000Y55118000D03*
%TD*%
%TO.P,J3,1*%
%TO.N,GND*%
X34391600Y59131200D03*
%TD*%
D16*
%TO.N,+12V*%
X43230800Y25857200D03*
X35458400Y25603200D03*
%TD*%
D17*
%TO.N,+12V*%
X35712400Y25857200D02*
X35458400Y25603200D01*
X43230800Y25857200D02*
X35712400Y25857200D01*
%TD*%
M02*
