%TF.GenerationSoftware,KiCad,Pcbnew,7.0.7-7.0.7~ubuntu23.04.1*%
%TF.CreationDate,2023-09-17T10:17:03+00:00*%
%TF.ProjectId,LED7SEG01,4c454437-5345-4473-9031-2e6b69636164,rev?*%
%TF.SameCoordinates,Original*%
%TF.FileFunction,Soldermask,Bot*%
%TF.FilePolarity,Negative*%
%FSLAX46Y46*%
G04 Gerber Fmt 4.6, Leading zero omitted, Abs format (unit mm)*
G04 Created by KiCad (PCBNEW 7.0.7-7.0.7~ubuntu23.04.1) date 2023-09-17 10:17:03*
%MOMM*%
%LPD*%
G01*
G04 APERTURE LIST*
G04 Aperture macros list*
%AMRoundRect*
0 Rectangle with rounded corners*
0 $1 Rounding radius*
0 $2 $3 $4 $5 $6 $7 $8 $9 X,Y pos of 4 corners*
0 Add a 4 corners polygon primitive as box body*
4,1,4,$2,$3,$4,$5,$6,$7,$8,$9,$2,$3,0*
0 Add four circle primitives for the rounded corners*
1,1,$1+$1,$2,$3*
1,1,$1+$1,$4,$5*
1,1,$1+$1,$6,$7*
1,1,$1+$1,$8,$9*
0 Add four rect primitives between the rounded corners*
20,1,$1+$1,$2,$3,$4,$5,0*
20,1,$1+$1,$4,$5,$6,$7,0*
20,1,$1+$1,$6,$7,$8,$9,0*
20,1,$1+$1,$8,$9,$2,$3,0*%
G04 Aperture macros list end*
%ADD10RoundRect,0.200000X0.762000X-0.762000X0.762000X0.762000X-0.762000X0.762000X-0.762000X-0.762000X0*%
%ADD11C,6.400000*%
%ADD12RoundRect,0.200000X-0.762000X-0.762000X0.762000X-0.762000X0.762000X0.762000X-0.762000X0.762000X0*%
%ADD13RoundRect,0.200000X0.900000X0.900000X-0.900000X0.900000X-0.900000X-0.900000X0.900000X-0.900000X0*%
%ADD14C,2.200000*%
%ADD15C,2.400000*%
%ADD16C,1.924000*%
%ADD17RoundRect,0.200000X0.698500X-0.444500X0.698500X0.444500X-0.698500X0.444500X-0.698500X-0.444500X0*%
%ADD18RoundRect,0.200000X1.275080X1.249680X-1.275080X1.249680X-1.275080X-1.249680X1.275080X-1.249680X0*%
%ADD19RoundRect,0.200000X1.249680X-1.275080X1.249680X1.275080X-1.249680X1.275080X-1.249680X-1.275080X0*%
%ADD20RoundRect,0.200000X-0.650240X-0.849630X0.650240X-0.849630X0.650240X0.849630X-0.650240X0.849630X0*%
%ADD21RoundRect,0.200000X1.249680X0.900430X-1.249680X0.900430X-1.249680X-0.900430X1.249680X-0.900430X0*%
%ADD22RoundRect,0.200000X0.444500X0.698500X-0.444500X0.698500X-0.444500X-0.698500X0.444500X-0.698500X0*%
%ADD23RoundRect,0.200000X-0.444500X-0.698500X0.444500X-0.698500X0.444500X0.698500X-0.444500X0.698500X0*%
%ADD24RoundRect,0.200000X-0.698500X0.444500X-0.698500X-0.444500X0.698500X-0.444500X0.698500X0.444500X0*%
%ADD25RoundRect,0.200000X0.225000X0.800000X-0.225000X0.800000X-0.225000X-0.800000X0.225000X-0.800000X0*%
%ADD26RoundRect,0.200000X-0.225000X-0.800000X0.225000X-0.800000X0.225000X0.800000X-0.225000X0.800000X0*%
%ADD27RoundRect,0.200000X-1.016000X0.762000X-1.016000X-0.762000X1.016000X-0.762000X1.016000X0.762000X0*%
%ADD28RoundRect,0.200000X1.016000X-0.762000X1.016000X0.762000X-1.016000X0.762000X-1.016000X-0.762000X0*%
G04 APERTURE END LIST*
D10*
%TO.C,J1*%
X12496800Y3606800D03*
X12496800Y6146800D03*
X15036800Y3606800D03*
X15036800Y6146800D03*
X17576800Y3606800D03*
X17576800Y6146800D03*
X20116800Y3606800D03*
X20116800Y6146800D03*
%TD*%
%TO.C,J5*%
X33578800Y3606800D03*
X33578800Y6146800D03*
%TD*%
%TO.C,J6*%
X36982400Y43688000D03*
X36982400Y46228000D03*
%TD*%
%TO.C,J7*%
X36068000Y3606800D03*
X36068000Y6146800D03*
%TD*%
%TO.C,J8*%
X38608000Y3606800D03*
X38608000Y6146800D03*
%TD*%
%TO.C,J9*%
X28498800Y3606800D03*
X28498800Y6146800D03*
%TD*%
D11*
%TO.C,M1*%
X5080000Y137160000D03*
%TD*%
%TO.C,M3*%
X27526800Y106704000D03*
%TD*%
%TO.C,M5*%
X86360000Y5080000D03*
%TD*%
%TO.C,M6*%
X27526800Y45744000D03*
%TD*%
%TO.C,M7*%
X58006800Y106704000D03*
%TD*%
%TO.C,M8*%
X86360000Y137160000D03*
%TD*%
%TO.C,M9*%
X58006800Y45744000D03*
%TD*%
%TO.C,M10*%
X5080000Y5080000D03*
%TD*%
D12*
%TO.C,J11*%
X36118800Y69697600D03*
%TD*%
%TO.C,J12*%
X38658800Y69697600D03*
%TD*%
%TO.C,J13*%
X41198800Y69697600D03*
%TD*%
%TO.C,J14*%
X43738800Y69697600D03*
%TD*%
%TO.C,J15*%
X46278800Y69697600D03*
%TD*%
%TO.C,J16*%
X48818800Y69697600D03*
%TD*%
%TO.C,J17*%
X51358800Y69697600D03*
%TD*%
%TO.C,J18*%
X53898800Y69697600D03*
%TD*%
%TO.C,J19*%
X36169600Y86156800D03*
%TD*%
%TO.C,J20*%
X38709600Y86156800D03*
%TD*%
%TO.C,J21*%
X41249600Y86156800D03*
%TD*%
%TO.C,J22*%
X48869600Y86156800D03*
%TD*%
%TO.C,J23*%
X43789600Y86156800D03*
%TD*%
%TO.C,J24*%
X51409600Y86156800D03*
%TD*%
%TO.C,J25*%
X46329600Y86156800D03*
%TD*%
%TO.C,J26*%
X53949600Y86156800D03*
%TD*%
%TO.C,J27*%
X25908000Y100126800D03*
X28448000Y100126800D03*
X25908000Y97586800D03*
X28448000Y97586800D03*
X25908000Y95046800D03*
X28448000Y95046800D03*
X25908000Y92506800D03*
X28448000Y92506800D03*
%TD*%
D10*
%TO.C,J28*%
X39522400Y43688000D03*
X39522400Y46228000D03*
%TD*%
%TO.C,J29*%
X31038800Y3606800D03*
X31038800Y6146800D03*
%TD*%
%TO.C,J30*%
X42062400Y43688000D03*
X42062400Y46228000D03*
%TD*%
%TO.C,J31*%
X44602400Y43688000D03*
X44602400Y46228000D03*
%TD*%
%TO.C,J36*%
X48666400Y43688000D03*
X48666400Y46228000D03*
%TD*%
D12*
%TO.C,J37*%
X25298400Y87325200D03*
%TD*%
%TO.C,J38*%
X25298400Y79705200D03*
%TD*%
%TO.C,J39*%
X25298400Y84785200D03*
%TD*%
%TO.C,J40*%
X25298400Y82245200D03*
%TD*%
%TO.C,J41*%
X25298400Y74625200D03*
%TD*%
%TO.C,J42*%
X25298400Y77165200D03*
%TD*%
%TO.C,J43*%
X25298400Y72085200D03*
%TD*%
%TO.C,J44*%
X25298400Y69545200D03*
%TD*%
D13*
%TO.C,D3*%
X44450000Y38100000D03*
D14*
X46990000Y38100000D03*
%TD*%
D13*
%TO.C,D4*%
X44450000Y104140000D03*
D14*
X46990000Y104140000D03*
%TD*%
D15*
%TO.C,AFF1*%
X35458400Y17576800D03*
X40538400Y17576800D03*
X45618400Y17576800D03*
X50698400Y17576800D03*
X55778400Y17576800D03*
X55778400Y125776800D03*
X50698400Y125776800D03*
X45618400Y125776800D03*
X40538400Y125776800D03*
X35458400Y125776800D03*
%TD*%
D16*
%TO.C,REF\u002A\u002A*%
X43281600Y25857200D03*
%TD*%
%TO.C,REF\u002A\u002A*%
X35458400Y25603200D03*
%TD*%
%TO.C,J2*%
X24638000Y55118000D03*
%TD*%
%TO.C,J3*%
X34391600Y59131200D03*
%TD*%
D17*
%TO.C,C1*%
X33985200Y56146700D03*
X33985200Y58051700D03*
%TD*%
D18*
%TO.C,C2*%
X31567120Y52730400D03*
X26517600Y52730400D03*
%TD*%
D19*
%TO.C,C3*%
X32359600Y95163640D03*
X32359600Y100213160D03*
%TD*%
D17*
%TO.C,C4*%
X35966400Y56146700D03*
X35966400Y58051700D03*
%TD*%
D20*
%TO.C,D1*%
X31473140Y10058400D03*
X34973260Y10058400D03*
%TD*%
D21*
%TO.C,D2*%
X12682220Y10820400D03*
X16680180Y10820400D03*
%TD*%
D22*
%TO.C,R1*%
X30378400Y62230000D03*
X28473400Y62230000D03*
%TD*%
%TO.C,R2*%
X30327600Y66294000D03*
X28422600Y66294000D03*
%TD*%
%TO.C,R3*%
X30365700Y70307200D03*
X28460700Y70307200D03*
%TD*%
%TO.C,R4*%
X38950900Y49225200D03*
X37045900Y49225200D03*
%TD*%
D23*
%TO.C,R5*%
X44881800Y50800000D03*
X46786800Y50800000D03*
%TD*%
%TO.C,R6*%
X40551100Y50749200D03*
X42456100Y50749200D03*
%TD*%
D24*
%TO.C,R7*%
X34137600Y77520800D03*
X34137600Y75615800D03*
%TD*%
%TO.C,R8*%
X37896800Y77508100D03*
X37896800Y75603100D03*
%TD*%
%TO.C,R9*%
X41554400Y77508100D03*
X41554400Y75603100D03*
%TD*%
%TO.C,R10*%
X52628800Y77508100D03*
X52628800Y75603100D03*
%TD*%
%TO.C,R11*%
X45262800Y77508100D03*
X45262800Y75603100D03*
%TD*%
%TO.C,R12*%
X56134000Y77508100D03*
X56134000Y75603100D03*
%TD*%
%TO.C,R13*%
X48920400Y77508100D03*
X48920400Y75603100D03*
%TD*%
%TO.C,R14*%
X59740800Y77508100D03*
X59740800Y75603100D03*
%TD*%
D25*
%TO.C,U1*%
X38549580Y61828680D03*
X39199820Y61828680D03*
X39850060Y61828680D03*
X40500300Y61828680D03*
X41150540Y61828680D03*
X41800780Y61828680D03*
X42451020Y61828680D03*
X43096180Y61828680D03*
X43746420Y61828680D03*
X44396660Y61828680D03*
X45046900Y61828680D03*
X45697140Y61828680D03*
X46347380Y61828680D03*
X46997620Y61828680D03*
D26*
X46997620Y56230520D03*
X46347380Y56230520D03*
X45697140Y56230520D03*
X45046900Y56230520D03*
X44396660Y56230520D03*
X43746420Y56230520D03*
X43096180Y56230520D03*
X42451020Y56230520D03*
X41800780Y56230520D03*
X41150540Y56230520D03*
X40500300Y56230520D03*
X39850060Y56230520D03*
X39199820Y56230520D03*
X38549580Y56230520D03*
%TD*%
D24*
%TO.C,R23*%
X35864800Y39509700D03*
X35864800Y37604700D03*
%TD*%
D23*
%TO.C,R25*%
X29425900Y64262000D03*
X31330900Y64262000D03*
%TD*%
%TO.C,R26*%
X29476700Y68326000D03*
X31381700Y68326000D03*
%TD*%
%TO.C,R27*%
X29375100Y72288400D03*
X31280100Y72288400D03*
%TD*%
%TO.C,R28*%
X29425900Y60198000D03*
X31330900Y60198000D03*
%TD*%
D22*
%TO.C,R29*%
X30416500Y58216800D03*
X28511500Y58216800D03*
%TD*%
D23*
%TO.C,R30*%
X29476700Y56184800D03*
X31381700Y56184800D03*
%TD*%
D24*
%TO.C,R31*%
X35966400Y61506100D03*
X35966400Y59601100D03*
%TD*%
%TO.C,R32*%
X24231600Y5880100D03*
X24231600Y3975100D03*
%TD*%
D27*
%TO.C,R15*%
X34137600Y78155800D03*
X34137600Y74853800D03*
%TD*%
%TO.C,R16*%
X37896800Y78155800D03*
X37896800Y74853800D03*
%TD*%
%TO.C,R17*%
X41554400Y78155800D03*
X41554400Y74853800D03*
%TD*%
%TO.C,R18*%
X52628800Y78054200D03*
X52628800Y74752200D03*
%TD*%
%TO.C,R19*%
X45262800Y78155800D03*
X45262800Y74853800D03*
%TD*%
%TO.C,R20*%
X56134000Y78054200D03*
X56134000Y74752200D03*
%TD*%
%TO.C,R21*%
X48920400Y78054200D03*
X48920400Y74752200D03*
%TD*%
%TO.C,R22*%
X59740800Y78054200D03*
X59740800Y74752200D03*
%TD*%
D28*
%TO.C,R24*%
X41757600Y20447000D03*
X41757600Y23749000D03*
%TD*%
M02*
